<svg width="215" height="37" viewBox="0 0 215 37" fill="none" xmlns="http://www.w3.org/2000/svg">
<rect width="73" height="37" rx="5" fill="white"/>
<path fill-rule="evenodd" clip-rule="evenodd" d="M23.2506 26.8664H18.6637L15.2242 13.6783C15.0609 13.0716 14.7143 12.5353 14.2044 12.2826C12.9319 11.6473 11.5297 11.1418 10 10.8868V10.3791H17.389C18.4088 10.3791 19.1736 11.1418 19.3011 12.0276L21.0857 21.5406L25.6703 10.3791H30.1296L23.2506 26.8664ZM32.6791 26.8664H28.3472L31.9143 10.3791H36.2461L32.6791 26.8664ZM41.8507 14.9477C41.9782 14.0597 42.743 13.552 43.6353 13.552C45.0375 13.4245 46.5649 13.6795 47.8396 14.3125L48.6047 10.7627C47.33 10.255 45.9276 10 44.6551 10C40.4507 10 37.3913 12.2837 37.3913 15.4533C37.3913 17.8645 39.5584 19.1306 41.0881 19.8933C42.743 20.6538 43.3804 21.1615 43.2529 21.9221C43.2529 23.0628 41.9782 23.5706 40.7056 23.5706C39.176 23.5706 37.6463 23.1903 36.2463 22.5551L35.4814 26.1071C37.0111 26.7401 38.6661 26.9951 40.1957 26.9951C44.91 27.1204 47.8396 24.8388 47.8396 21.4143C47.8396 17.1018 41.8507 16.849 41.8507 14.9477ZM63 26.8664L59.5603 10.3791H55.8656C55.101 10.3791 54.3363 10.8868 54.0812 11.6473L47.7119 26.8664H52.1713L53.0615 24.4574H58.5406L59.0503 26.8664H63ZM56.503 14.8186L57.7756 21.0324H54.2086L56.503 14.8186Z" fill="#15195A"/>
<rect x="83" width="47" height="37" rx="5" fill="white"/>
<g clip-path="url(#clip0_264_467)">
<path d="M110.108 11.7808H102.949V24.8742H110.108V11.7808Z" fill="#FF5F00"/>
<path d="M103.405 18.3272C103.404 17.0674 103.684 15.8237 104.226 14.6899C104.767 13.5561 105.554 12.5617 106.529 11.7817C105.5 10.9609 104.293 10.4017 103.009 10.1507C101.724 9.8998 100.399 9.96441 99.1441 10.3392C97.889 10.7139 96.7405 11.388 95.7944 12.3051C94.8482 13.2221 94.1318 14.3556 93.7051 15.611C93.2783 16.8663 93.1535 18.207 93.3411 19.5213C93.5287 20.8355 94.0233 22.0852 94.7835 23.1659C95.5437 24.2466 96.5475 25.1271 97.7112 25.7339C98.8748 26.3406 100.165 26.656 101.473 26.6538C103.308 26.6562 105.09 26.0286 106.529 24.8728C105.554 24.0928 104.767 23.0984 104.226 21.9646C103.684 20.8308 103.404 19.5871 103.405 18.3272Z" fill="#EB001B"/>
<path d="M118.983 23.4865V23.2182H119.09V23.1627H118.812V23.2182H118.919V23.4865H118.983ZM119.509 23.4865V23.1627H119.427L119.332 23.394L119.236 23.1627H119.152V23.4865H119.211V23.2413L119.3 23.4518H119.361L119.45 23.2413V23.4865H119.509Z" fill="#F79E1B"/>
<path d="M119.765 18.3267C119.77 19.8871 119.341 21.4174 118.529 22.742C117.716 24.0665 116.552 25.1316 115.17 25.8151C113.788 26.4985 112.244 26.7725 110.716 26.6058C109.187 26.439 107.736 25.8382 106.529 24.8723C107.503 24.0915 108.29 23.097 108.831 21.9634C109.372 20.8297 109.653 19.5864 109.653 18.3267C109.653 17.0669 109.372 15.8236 108.831 14.69C108.29 13.5563 107.503 12.5618 106.529 11.7811C107.736 10.8151 109.187 10.2143 110.716 10.0475C112.244 9.88076 113.788 10.1548 115.17 10.8383C116.552 11.5217 117.716 12.5868 118.529 13.9114C119.341 15.2359 119.77 16.7662 119.765 18.3267Z" fill="#F79E1B"/>
</g>
<rect x="140" width="75" height="37" rx="5" fill="white"/>
<g clip-path="url(#clip1_264_467)">
<path d="M162.118 12.7518L160.075 19.9039H159.726L157.684 12.7518C157.334 11.5416 156.238 10.7084 154.985 10.7084H150.087V26.2775H154.991V17.0759H155.34L158.148 26.2775H161.654L164.455 17.0759H164.804V26.2775H169.708V10.7084H164.81C163.563 10.7084 162.467 11.5416 162.118 12.7518ZM189.268 26.2775H194.202V21.6737H199.166C201.762 21.6737 203.973 20.1897 204.829 18.1037H189.268V26.2775ZM180.527 12.3504L177.075 19.91H176.726V10.7084H171.822V26.2775H175.985C177.081 26.2775 178.075 25.6329 178.533 24.6355L181.985 17.082H182.334V26.2775H187.238V10.7084H183.075C181.979 10.7084 180.985 11.353 180.527 12.3504Z" fill="#006848"/>
<path d="M199.391 10C200.807 10 202.09 10.5474 203.06 11.4474C204.144 12.4448 204.825 13.8801 204.825 15.4796C204.825 15.808 204.789 16.1304 204.735 16.4466H195.626C192.542 16.4466 189.927 14.4031 189.048 11.5812C189.036 11.5508 189.03 11.5143 189.018 11.4779C188.994 11.3927 188.975 11.3015 188.952 11.2163C188.861 10.821 188.801 10.4196 188.777 10H199.391Z" fill="url(#paint0_linear_264_467)"/>
</g>
<defs>
<linearGradient id="paint0_linear_264_467" x1="204.825" y1="30.1619" x2="188.875" y2="30.1619" gradientUnits="userSpaceOnUse">
<stop stop-color="#1E5CD8"/>
<stop offset="1" stop-color="#02AFFF"/>
</linearGradient>
<clipPath id="clip0_264_467">
<rect width="27" height="17" fill="white" transform="translate(93 10)"/>
</clipPath>
<clipPath id="clip1_264_467">
<rect width="55" height="17" fill="white" transform="translate(150 10)"/>
</clipPath>
</defs>
</svg>
