<svg width="23" height="23" viewBox="0 0 23 23" fill="none" xmlns="http://www.w3.org/2000/svg">
<path d="M20.3444 4.41315C20.884 5.1107 21.3407 5.86854 21.7054 6.67143L11.3598 14.2981L7.03613 11.5876V8.32679L11.3598 11.0373L20.3444 4.41315Z" fill="#21A038"/>
<path d="M2.62385 11.3576C2.62385 11.2112 2.62741 11.0659 2.63455 10.9214L0.0142705 10.793C0.00535192 10.9803 3.16649e-06 11.1694 3.16649e-06 11.3602C-0.00111169 12.8513 0.292173 14.328 0.863041 15.7054C1.4339 17.083 2.27111 18.3342 3.32663 19.3873L5.18526 17.5295C4.37276 16.7202 3.7282 15.7583 3.28862 14.6992C2.84905 13.64 2.62313 12.5043 2.62385 11.3576Z" fill="url(#paint0_linear_414_32)"/>
<path d="M11.3584 2.62329C11.5046 2.62329 11.6499 2.62865 11.7944 2.63578L11.9255 0.014485C11.7377 0.00556601 11.5486 0.00110706 11.3584 0.00110706C9.86658 -0.000712201 8.38922 0.292163 7.011 0.862916C5.63277 1.43367 4.38086 2.27106 3.32715 3.32701L5.18578 5.18572C5.99504 4.37292 6.95698 3.72809 8.01629 3.28834C9.07561 2.84859 10.2114 2.62257 11.3584 2.62329Z" fill="url(#paint1_linear_414_32)"/>
<path d="M11.3581 20.0919C11.2119 20.0919 11.0665 20.0919 10.9212 20.0803L10.79 22.7007C10.9785 22.7102 11.1679 22.715 11.3581 22.715C12.8493 22.7165 14.3259 22.4235 15.7034 21.8526C17.0809 21.2817 18.332 20.4441 19.3849 19.3882L17.5298 17.5304C16.7204 18.3428 15.7586 18.9872 14.6995 19.4268C13.6404 19.8664 12.5048 20.0925 11.3581 20.0919Z" fill="url(#paint2_linear_414_32)"/>
<path d="M16.2812 4.14735L18.4894 2.51963C16.471 0.885191 13.9516 -0.00453703 11.3545 1.73987e-05V2.62309C13.1131 2.62091 14.831 3.15241 16.2812 4.14735Z" fill="url(#paint3_linear_414_32)"/>
<path d="M22.715 11.3575C22.7164 10.6751 22.6567 9.99395 22.5365 9.3222L20.092 11.1238C20.092 11.2015 20.092 11.279 20.092 11.3575C20.0926 12.5779 19.8368 13.7848 19.3412 14.9C18.8456 16.0151 18.1211 17.0137 17.2148 17.8309L18.9781 19.7798C20.1563 18.7161 21.0978 17.4167 21.7415 15.9658C22.3853 14.5149 22.7169 12.9448 22.715 11.3575Z" fill="#21A038"/>
<path d="M11.3574 20.0919C10.137 20.0924 8.93007 19.8364 7.8148 19.3408C6.69959 18.8452 5.70088 18.1208 4.88336 17.2147L2.93555 18.9771C3.99905 20.1555 5.29835 21.0972 6.7492 21.7411C8.20005 22.385 9.77002 22.7169 11.3574 22.715V20.0919Z" fill="url(#paint4_linear_414_32)"/>
<path d="M5.50099 4.88404L3.73868 2.93524C2.56015 3.99872 1.61831 5.29805 0.97423 6.74897C0.330161 8.19987 -0.00175596 9.76997 6.98606e-06 11.3574H2.62385C2.62331 10.1371 2.87915 8.93023 3.37478 7.81507C3.87042 6.69995 4.5948 5.70136 5.50099 4.88404Z" fill="url(#paint5_linear_414_32)"/>
<defs>
<linearGradient id="paint0_linear_414_32" x1="3.85729" y1="19.06" x2="0.990612" y2="10.7734" gradientUnits="userSpaceOnUse">
<stop offset="0.14" stop-color="#F1E813"/>
<stop offset="0.3" stop-color="#E6E418"/>
<stop offset="0.58" stop-color="#C9DA26"/>
<stop offset="0.89" stop-color="#A2CC39"/>
</linearGradient>
<linearGradient id="paint1_linear_414_32" x1="4.07631" y1="3.79079" x2="11.4601" y2="0.977077" gradientUnits="userSpaceOnUse">
<stop offset="0.06" stop-color="#0FA7DF"/>
<stop offset="0.54" stop-color="#0098F8"/>
<stop offset="0.92" stop-color="#0290EA"/>
</linearGradient>
<linearGradient id="paint2_linear_414_32" x1="10.6171" y1="21.1319" x2="18.9666" y2="19.2457" gradientUnits="userSpaceOnUse">
<stop offset="0.12" stop-color="#A2CC39"/>
<stop offset="0.28" stop-color="#86C239"/>
<stop offset="0.87" stop-color="#219F38"/>
</linearGradient>
<linearGradient id="paint3_linear_414_32" x1="10.8087" y1="0.878538" x2="17.9472" y2="3.08134" gradientUnits="userSpaceOnUse">
<stop offset="0.06" stop-color="#0290EA"/>
<stop offset="0.79" stop-color="#0C89CA"/>
</linearGradient>
<linearGradient id="paint4_linear_414_32" x1="3.59373" y1="18.6577" x2="11.3637" y2="21.5615" gradientUnits="userSpaceOnUse">
<stop offset="0.13" stop-color="#F1E813"/>
<stop offset="0.3" stop-color="#EAE616"/>
<stop offset="0.53" stop-color="#D8DF1F"/>
<stop offset="0.8" stop-color="#BAD52D"/>
<stop offset="0.98" stop-color="#A2CC39"/>
</linearGradient>
<linearGradient id="paint5_linear_414_32" x1="0.977481" y1="11.6749" x2="4.09657" y2="3.56146" gradientUnits="userSpaceOnUse">
<stop offset="0.07" stop-color="#A2CC39"/>
<stop offset="0.26" stop-color="#81C45E"/>
<stop offset="0.92" stop-color="#0FA7DF"/>
</linearGradient>
</defs>
</svg>
