<?xml version="1.0" standalone="no"?>
<!DOCTYPE svg PUBLIC "-//W3C//DTD SVG 1.1//EN" "http://www.w3.org/Graphics/SVG/1.1/DTD/svg11.dtd" >
<svg xmlns="http://www.w3.org/2000/svg" xmlns:xlink="http://www.w3.org/1999/xlink" version="1.1">
<metadata>
Created by FontForge 20170731 at Tue Sep 29 09:29:10 2020
 By Aleksey,,,
Copyright (c) 2014 by Vyacheslav Kirilenko, Gayane Bagdasaryan. All rights reserved.
</metadata>
<defs>
<font id="Formular-LightItalic" horiz-adv-x="1200" >
  <font-face 
    font-family="Formular"
    font-weight="300"
    font-style="italic"
    font-stretch="normal"
    units-per-em="2048"
    panose-1="2 0 0 0 0 0 0 0 0 0"
    ascent="1638"
    descent="-410"
    x-height="1024"
    cap-height="1462"
    bbox="-199 -440 2996 1978"
    underline-thickness="102"
    underline-position="-307"
    slope="-10"
    unicode-range="U+000D-FEFF"
  />
<missing-glyph horiz-adv-x="1075" 
d="M231 0v1462h844v-1462h-844zM367 123h573v1216h-573v-1216z" />
    <glyph glyph-name="fi" unicode="fi" horiz-adv-x="1183" 
d="M813 909h-283l-159 -909h-127l159 909h-186l21 115h186l25 143q57 322 380 322h86l-20 -115h-84q-107 0 -162 -54t-74 -153l-24 -143h283zM1184 1024l-180 -1024h-130l181 1024h129zM1243 1327h-141l28 162h142z" />
    <glyph glyph-name="fl" unicode="fl" horiz-adv-x="1177" 
d="M813 909h-283l-159 -909h-127l159 909h-186l21 115h186l25 143q57 322 380 322h86l-20 -115h-84q-107 0 -162 -54t-74 -153l-24 -143h283zM1266 1489l-262 -1489h-130l263 1489h129z" />
    <glyph glyph-name=".notdef" horiz-adv-x="1075" 
d="M231 0v1462h844v-1462h-844zM367 123h573v1216h-573v-1216z" />
    <glyph glyph-name=".null" horiz-adv-x="0" 
 />
    <glyph glyph-name="nonmarkingreturn" horiz-adv-x="682" 
 />
    <glyph glyph-name="NULL" horiz-adv-x="0" 
 />
    <glyph glyph-name="NULL" horiz-adv-x="0" 
 />
    <glyph glyph-name="CR" unicode="&#xd;" horiz-adv-x="569" 
 />
    <glyph glyph-name="space" unicode=" " horiz-adv-x="569" 
 />
    <glyph glyph-name="exclam" unicode="!" horiz-adv-x="618" 
d="M498 1462h135l-107 -608l-112 -489h-84l61 489zM395 0h-172l35 209h172z" />
    <glyph glyph-name="quotedbl" unicode="&#x22;" horiz-adv-x="749" 
d="M334 969l86 493h129l-86 -493h-129zM627 969l86 493h129l-86 -493h-129z" />
    <glyph glyph-name="numbersign" unicode="#" horiz-adv-x="1181" 
d="M762 0l63 410h-297l-63 -410h-117l64 410h-205v106h223l64 402h-207v106h223l65 410h115l-65 -410h299l65 410h115l-66 -410h207v-106h-223l-64 -402h207v-106h-223l-63 -410h-117zM608 918l-63 -402h299l63 402h-299z" />
    <glyph glyph-name="dollar" unicode="$" horiz-adv-x="1300" 
d="M997 1634l-32 -186q140 -29 236 -124.5t108 -236.5h-133q-17 97 -78.5 160t-153.5 80l-94 -530l65 -21q146 -45 231 -142t85 -241q0 -185 -131 -302.5t-346 -117.5q-31 0 -49 2l-31 -176h-103l31 185q-169 21 -280.5 122.5t-128.5 276.5h133q19 -123 94.5 -189t204.5 -90
l106 601l-59 18q-63 21 -111 45.5t-94.5 63.5t-72 96.5t-25.5 130.5q0 178 124.5 290.5t319.5 112.5q13 0 31 -1t20 -1l31 174h102zM866 662l-39 12l-102 -580q18 -2 49 -2q50 0 95.5 9.5t87.5 32t73 56t49.5 84.5t18.5 115q0 108 -57 172.5t-175 100.5zM721 838l31 -11
l92 514q-23 2 -47 2q-129 0 -212 -73.5t-83 -204.5q0 -92 56.5 -144.5t162.5 -82.5z" />
    <glyph glyph-name="percent" unicode="%" horiz-adv-x="1835" 
d="M549 0h-139l1122 1434h137zM946 1153q0 -125 -43 -229.5t-130 -170t-204 -65.5q-124 0 -202 87.5t-78 219.5q0 92 25.5 176t72 149t119 103.5t160.5 38.5q124 0 202 -88t78 -221zM580 793q76 0 133.5 53t85.5 132t28 167q0 102 -44 157.5t-130 55.5q-75 0 -132 -53.5
t-85 -133t-28 -167.5q0 -101 43.5 -156t128.5 -55zM1790 438q0 -125 -43 -229.5t-130 -170t-204 -65.5q-124 0 -202 88t-78 220q0 125 42.5 229.5t129.5 171t204 66.5q124 0 202.5 -88.5t78.5 -221.5zM1423 78q76 0 134 53t86 132t28 167q0 102 -44 157.5t-130 55.5
q-75 0 -132.5 -53.5t-85.5 -133t-28 -167.5q0 -101 43.5 -156t128.5 -55z" />
    <glyph glyph-name="ampersand" unicode="&#x26;" horiz-adv-x="1398" 
d="M475 770l66 33l6 41l-23 33q-51 74 -74.5 136.5t-23.5 129.5q0 137 96 228t248 91q143 0 237.5 -82.5t94.5 -210.5q0 -111 -55 -183t-173 -136l-126 -68l323 -450q105 136 156 325h133q-58 -241 -217 -426l168 -231h-164l-82 115h-45q-186 -142 -397 -142
q-194 0 -311 104t-117 281q0 259 280 412zM633 92q192 0 346 141l-346 488l-94 -49q-217 -116 -217 -314q0 -126 86.5 -196t224.5 -70zM559 1141q0 -100 84 -213l37 -54l111 58q88 46 133 98.5t45 132.5q0 83 -58.5 131.5t-142.5 48.5q-96 0 -152.5 -55.5t-56.5 -146.5z" />
    <glyph glyph-name="quotesingle" unicode="'" horiz-adv-x="456" 
d="M334 969l86 493h129l-86 -493h-129z" />
    <glyph glyph-name="parenleft" unicode="(" horiz-adv-x="593" 
d="M524 -289h-127q-202 305 -202 711q0 326 135 614t370 518h152q-251 -251 -387.5 -529t-136.5 -603q0 -388 196 -711z" />
    <glyph glyph-name="parenright" unicode=")" horiz-adv-x="595" 
d="M295 1554h127q203 -307 203 -710q0 -326 -135.5 -614.5t-370.5 -518.5h-152q251 251 388 529.5t137 603.5q0 385 -197 710z" />
    <glyph glyph-name="asterisk" unicode="*" horiz-adv-x="948" 
d="M1083 1116l-352 -100l168 -281l-102 -67l-150 293l-258 -291l-82 73l262 281l-309 102l43 105l311 -121l39 352h119l-55 -352l344 117z" />
    <glyph glyph-name="plus" unicode="+" horiz-adv-x="1400" 
d="M745 633v461h111v-461h461v-111h-461v-461h-111v461h-460v111h460z" />
    <glyph glyph-name="comma" unicode="," horiz-adv-x="499" 
d="M252 0h-88l37 209h172l-43 -244l-131 -178h-84l131 178z" />
    <glyph glyph-name="hyphen" unicode="-" horiz-adv-x="737" 
d="M723 506h-533l21 117h532z" />
    <glyph glyph-name="period" unicode="." horiz-adv-x="499" 
d="M336 0h-172l35 209h172z" />
    <glyph glyph-name="slash" unicode="/" horiz-adv-x="800" 
d="M78 -289h-129l940 1843h125z" />
    <glyph glyph-name="zero" unicode="0" horiz-adv-x="1259" 
d="M238 498q0 280 74.5 498.5t214.5 342t323 123.5q196 0 311 -135t115 -389q0 -280 -74.5 -499t-214.5 -342.5t-323 -123.5q-195 0 -310.5 135.5t-115.5 389.5zM371 498q0 -193 81.5 -299.5t217.5 -106.5q85 0 157 37t122.5 101.5t89 147t60.5 179t33 191.5t11 190
q0 193 -81.5 299t-217.5 106q-101 0 -183 -53t-135 -138.5t-89 -198.5t-51 -226.5t-15 -228.5z" />
    <glyph glyph-name="one" unicode="1" horiz-adv-x="995" 
d="M123 0l20 119h342l205 1167h-41l-338 -209l25 148l340 209h172l-232 -1315h318l-21 -119h-790z" />
    <glyph glyph-name="two" unicode="2" horiz-adv-x="1155" 
d="M1073 119l-20 -119h-940l26 160q47 35 130 99.5t114 88.5q244 185 393 309q44 35 72 59t69.5 69t65.5 87t42.5 102t18.5 124q0 115 -79.5 180t-206.5 65q-138 0 -228 -72.5t-122 -217.5h-132q20 105 67.5 184.5t115.5 128t148.5 72.5t172.5 24q171 0 284.5 -98.5
t113.5 -259.5q0 -71 -22 -139.5t-52.5 -119.5t-84 -109.5t-93 -94.5t-103.5 -90q-50 -43 -295 -234l-204 -157l-7 -41h756z" />
    <glyph glyph-name="three" unicode="3" horiz-adv-x="1134" 
d="M1178 1274l-451 -348l-6 -41q99 -4 176 -39.5t121.5 -93t67 -125t22.5 -140.5q0 -222 -143.5 -368t-378.5 -146q-195 0 -326 114.5t-131 299.5h133q10 -139 99.5 -217t238.5 -78q167 0 271 113t104 278q0 139 -80 215t-217 76q-80 0 -129 -12l29 172l432 340l8 41h-641
l16 119h809z" />
    <glyph glyph-name="four" unicode="4" horiz-adv-x="1218" 
d="M1004 469h200l-20 -119h-201l-61 -350h-131l61 350h-709l27 160l788 924h216zM317 469h555l142 817h-41l-649 -776z" />
    <glyph glyph-name="five" unicode="5" horiz-adv-x="1202" 
d="M1225 1315h-682l-111 -461h43q100 107 268 107q195 0 313 -116.5t118 -303.5q0 -135 -43.5 -245t-116.5 -179.5t-164.5 -106.5t-192.5 -37q-111 0 -201 35t-147.5 93t-88 132t-30.5 154h132q7 -140 98 -217.5t244 -77.5q72 0 137.5 27.5t119.5 80.5t86.5 139.5
t32.5 195.5q0 142 -80.5 224.5t-230.5 82.5q-200 0 -317 -148h-142l181 740h792z" />
    <glyph glyph-name="six" unicode="6" horiz-adv-x="1210" 
d="M766 926q193 0 313.5 -117.5t120.5 -292.5q0 -148 -59.5 -270.5t-178 -197.5t-276.5 -75q-90 0 -169.5 32t-142.5 94t-99.5 163.5t-36.5 229.5q0 84 9.5 172t31.5 184t54.5 183.5t82.5 166.5t111.5 137.5t145.5 92.5t181 34q165 0 271 -86.5t126 -238.5h-133
q-19 100 -87.5 153t-180.5 53q-89 0 -166.5 -44t-133.5 -119t-94.5 -172t-54.5 -207h41q55 55 139.5 90t184.5 35zM705 92q90 0 161.5 34.5t114 93t64.5 130t22 150.5q0 138 -84 222.5t-235 84.5q-174 0 -271.5 -112.5t-97.5 -280.5q0 -141 83.5 -231.5t242.5 -90.5z" />
    <glyph glyph-name="seven" unicode="7" horiz-adv-x="1089" 
d="M1200 1274l-813 -1274h-141l811 1274l8 41h-731l20 119h875z" />
    <glyph glyph-name="eight" unicode="8" horiz-adv-x="1228" 
d="M1010 752l-9 -39q81 -53 129 -132.5t48 -174.5q0 -130 -70 -230t-186.5 -151.5t-257.5 -51.5q-129 0 -236.5 45.5t-174.5 135.5t-67 208q0 137 74.5 235.5t208.5 154.5l8 39q-65 41 -105 110t-40 162q0 175 137 287t342 112q117 0 215 -42t160.5 -127t62.5 -197
q0 -115 -64.5 -207t-174.5 -137zM465 1059q0 -79 44 -137.5t113 -86.5t152 -28q151 0 246.5 77t95.5 208q0 114 -91.5 182.5t-217.5 68.5q-150 0 -246 -78t-96 -206zM319 371q0 -127 102 -203t249 -76q166 0 270 85.5t104 228.5q0 90 -49.5 155t-128.5 96t-176 31
q-164 0 -267.5 -86t-103.5 -231z" />
    <glyph glyph-name="nine" unicode="9" horiz-adv-x="1210" 
d="M698 510q-193 0 -313.5 117.5t-120.5 292.5q0 148 59.5 270t178 197t276.5 75q91 0 170.5 -32t142.5 -93.5t99.5 -163t36.5 -229.5q0 -84 -9.5 -172t-31.5 -184t-54.5 -183.5t-82.5 -167t-112 -137.5t-146 -92.5t-181 -34.5q-164 0 -270.5 87t-126.5 239h133
q19 -100 87.5 -153.5t180.5 -53.5q118 0 214.5 76.5t154.5 197.5t80 269h-41q-55 -55 -139.5 -90t-184.5 -35zM760 1343q-90 0 -161.5 -34.5t-114.5 -92.5t-65 -129.5t-22 -150.5q0 -138 84.5 -222.5t235.5 -84.5q174 0 271 112.5t97 280.5q0 141 -83 231t-242 90z" />
    <glyph glyph-name="colon" unicode=":" horiz-adv-x="499" 
d="M336 0h-172l35 209h172zM463 815h-172l35 209h172z" />
    <glyph glyph-name="semicolon" unicode=";" horiz-adv-x="499" 
d="M252 0h-88l37 209h172l-43 -244l-131 -178h-84l131 178zM463 815h-172l35 209h172z" />
    <glyph glyph-name="less" unicode="&#x3c;" horiz-adv-x="1400" 
d="M1317 186v-116l-1032 448v117l1032 448v-116l-854 -371v-41z" />
    <glyph glyph-name="equal" unicode="=" horiz-adv-x="1398" 
d="M1315 432v-110h-1030v110h1030zM1315 834v-111h-1030v111h1030z" />
    <glyph glyph-name="greater" unicode="&#x3e;" horiz-adv-x="1400" 
d="M285 70v116l854 369v41l-854 371v116l1032 -448v-117z" />
    <glyph glyph-name="question" unicode="?" horiz-adv-x="1093" 
d="M762 1489q167 0 277 -94.5t110 -247.5q0 -144 -73 -248t-226 -197q-53 -32 -83 -54.5t-58.5 -54.5t-44 -72t-25.5 -97l-10 -59h-129l10 59q24 135 84 209t205 166q114 70 167.5 150t53.5 194q0 105 -72.5 171t-197.5 66q-139 0 -222 -77t-108 -220h-127q34 193 149 299.5
t320 106.5zM592 0h-166l35 207h166z" />
    <glyph glyph-name="at" unicode="@" horiz-adv-x="1992" 
d="M1505 -135l60 -98q-239 -156 -533 -156q-248 0 -433.5 103.5t-283.5 290t-98 431.5q0 206 70.5 387.5t195 313.5t305.5 208t392 76q129 0 246.5 -30t218.5 -90.5t175 -146t116 -204.5t42 -258q0 -162 -51 -299.5t-155.5 -226t-243.5 -88.5q-164 0 -211 115h-41
q-115 -115 -264 -115q-153 0 -240.5 99.5t-87.5 271.5q0 136 52 249.5t153.5 183.5t232.5 70q80 0 140.5 -31t83.5 -71h40l17 74h113l-86 -521l-7 -43q-6 -23 -6 -65q0 -50 33 -78.5t88 -28.5q128 0 219.5 141.5t91.5 370.5q0 273 -189.5 442t-500.5 169q-171 0 -321 -64
t-258.5 -177.5t-171 -277t-62.5 -354.5q0 -116 25 -220t79.5 -196t134.5 -158t196.5 -104.5t258.5 -38.5q241 0 465 144zM1026 188q135 0 216.5 110.5t86.5 289.5v10q0 244 -217 244q-89 0 -159 -59t-105 -148t-35 -186q0 -54 11.5 -99t35.5 -82.5t66.5 -58.5t99.5 -21z" />
    <glyph glyph-name="A" unicode="A" horiz-adv-x="1363" 
d="M1057 1462l262 -1462h-141l-82 473h-660l-246 -473h-147l766 1462h248zM874 1319l-374 -723h575l-123 723h-78z" />
    <glyph glyph-name="B" unicode="B" horiz-adv-x="1404" 
d="M1200 778l-8 -43q75 -44 119.5 -119t44.5 -165q0 -111 -43 -198.5t-116.5 -142t-168 -82.5t-201.5 -28h-634l256 1462h579q79 0 149.5 -22t125.5 -62.5t87.5 -105t32.5 -144.5q0 -119 -61 -213.5t-162 -136.5zM563 1339l-90 -512h453q78 0 141 15.5t114 48.5t79 90.5
t28 136.5q0 109 -80 165t-194 56h-451zM348 123h457q69 0 129 11.5t113.5 37t91.5 64t60 95t22 126.5q0 65 -27 114.5t-73 77.5t-101 42t-117 14h-452z" />
    <glyph glyph-name="C" unicode="C" horiz-adv-x="1423" 
d="M1276 395h143q-67 -190 -222 -306t-372 -116q-170 0 -303 74.5t-208.5 214.5t-75.5 322q0 141 30.5 273.5t93 247t149.5 200.5t206.5 135t257.5 49q204 0 343.5 -105t176.5 -288h-141q-30 127 -127.5 198.5t-255.5 71.5q-121 0 -222.5 -48t-169.5 -126t-115.5 -180.5
t-69 -209t-21.5 -212.5q0 -218 120 -356t338 -138q165 0 278 81.5t167 217.5z" />
    <glyph glyph-name="D" unicode="D" horiz-adv-x="1486" 
d="M193 0l256 1462h425q141 0 253.5 -33.5t198 -102.5t131.5 -183.5t46 -268.5q0 -132 -27 -254.5t-89 -236.5t-154 -198t-232 -134.5t-313 -50.5h-495zM348 123h373q109 0 201.5 27t158 71.5t116.5 107t82.5 129.5t52 143t28.5 143.5t8 134.5q0 127 -35 217.5t-101.5 142.5
t-152 76t-196.5 24h-320z" />
    <glyph glyph-name="E" unicode="E" horiz-adv-x="1308" 
d="M348 123h877l-21 -123h-1011l256 1462h978l-20 -123h-844l-92 -516h686l-20 -123h-686z" />
    <glyph glyph-name="F" unicode="F" horiz-adv-x="1271" 
d="M1413 1339h-850l-94 -536h694l-22 -123h-695l-118 -680h-135l256 1462h985z" />
    <glyph glyph-name="G" unicode="G" horiz-adv-x="1515" 
d="M831 -27q-261 0 -427 168t-166 443q0 142 31.5 275.5t95 247.5t152 199.5t210 134t260.5 48.5q209 0 347 -105.5t175 -287.5h-143q-30 127 -128.5 198.5t-258.5 71.5q-121 0 -223.5 -47t-172 -124.5t-118 -179.5t-70.5 -209.5t-22 -215.5q0 -217 122.5 -355.5
t342.5 -138.5q219 0 356 139t166 400h-498l25 123h626q-5 -128 -31.5 -241.5t-80 -214.5t-130.5 -173t-189.5 -114t-250.5 -42z" />
    <glyph glyph-name="H" unicode="H" horiz-adv-x="1527" 
d="M1454 1462h135l-256 -1462h-135l121 692h-870l-121 -692h-135l256 1462h135l-113 -643h870z" />
    <glyph glyph-name="I" unicode="I" horiz-adv-x="550" 
d="M463 1462h135l-256 -1462h-135z" />
    <glyph glyph-name="J" unicode="J" horiz-adv-x="1167" 
d="M563 -27q-178 0 -293.5 100t-115.5 279q0 24 4 78h135q-4 -50 -4 -57q0 -135 72 -206t202 -71q295 0 363 377l174 989h135l-180 -1022q-38 -220 -163 -343.5t-329 -123.5z" />
    <glyph glyph-name="K" unicode="K" horiz-adv-x="1423" 
d="M193 0l256 1462h135l-135 -766l931 766h174l-542 -461l338 -1001h-144l-301 885h-41l-446 -365l-90 -520h-135z" />
    <glyph glyph-name="L" unicode="L" horiz-adv-x="1236" 
d="M348 127h828l-21 -127h-962l256 1462h135z" />
    <glyph glyph-name="M" unicode="M" horiz-adv-x="1724" 
d="M193 0l256 1462h227l291 -725h39l536 725h244l-256 -1462h-135l231 1319h-41l-549 -735h-141l-295 735h-41l-231 -1319h-135z" />
    <glyph glyph-name="N" unicode="N" horiz-adv-x="1533" 
d="M1460 1462h135l-256 -1462h-239l-500 1319h-41l-231 -1319h-135l256 1462h239l502 -1319h39z" />
    <glyph glyph-name="O" unicode="O" horiz-adv-x="1552" 
d="M979 1489q261 0 425.5 -168t164.5 -442q0 -139 -30.5 -270.5t-92.5 -247t-149.5 -202t-208.5 -136.5t-261 -50q-261 0 -425 168.5t-164 442.5q0 139 30.5 270.5t92.5 246.5t149 201.5t208 136.5t261 50zM834 96q89 0 167.5 25.5t138 69.5t109 104.5t83.5 130t57.5 146
t34 151.5t10.5 149q0 139 -50.5 249t-156.5 177.5t-254 67.5q-103 0 -191.5 -34t-153 -93t-114.5 -135t-80 -163.5t-45.5 -176t-15.5 -174.5q0 -139 50.5 -249t156.5 -177.5t254 -67.5z" />
    <glyph glyph-name="P" unicode="P" horiz-adv-x="1353" 
d="M449 1462h585q177 0 295.5 -101t118.5 -276q0 -120 -43.5 -213t-120 -149t-175 -84.5t-214.5 -28.5h-461l-106 -610h-135zM1012 1339h-449l-106 -606h463q177 0 285 87.5t108 262.5q0 125 -85 190.5t-216 65.5z" />
    <glyph glyph-name="Q" unicode="Q" horiz-adv-x="1552" 
d="M979 1489q261 0 425.5 -168t164.5 -442q0 -216 -76 -412t-213 -322l125 -274h-133l-90 199q-154 -97 -355 -97q-261 0 -425 168.5t-164 442.5q0 139 30.5 270.5t92.5 246.5t149 201.5t208 136.5t261 50zM834 96q166 0 294 88l-200 449h133l164 -365q103 115 156 278
t53 326q0 139 -50.5 249t-156.5 177.5t-254 67.5q-103 0 -191.5 -34t-153 -93t-114.5 -135t-80 -163.5t-45.5 -176t-15.5 -174.5q0 -139 50.5 -249t156.5 -177.5t254 -67.5z" />
    <glyph glyph-name="R" unicode="R" horiz-adv-x="1406" 
d="M438 637l-110 -637h-135l256 1462h622q173 0 287.5 -97.5t114.5 -268.5q0 -160 -77 -265.5t-212 -154.5l121 -676h-136l-116 645q-52 -8 -115 -8h-500zM1051 1339h-488l-102 -579h502q170 0 273 84t103 250q0 121 -80.5 183t-207.5 62z" />
    <glyph glyph-name="S" unicode="S" horiz-adv-x="1323" 
d="M700 850l265 -66q331 -85 331 -378q0 -135 -77.5 -235t-201.5 -149t-274 -49q-112 0 -208.5 24t-175 73t-129 131t-62.5 190h141q12 -80 51 -138t99 -92t132 -49.5t159 -15.5q76 0 146 17t131 51t97.5 94t36.5 139q0 206 -239 267l-277 69q-323 82 -323 342
q0 197 141 305.5t368 108.5q133 0 243.5 -44.5t183 -132t85.5 -204.5h-137q-28 130 -129 194t-254 64q-53 0 -103 -8.5t-98.5 -29t-84.5 -51.5t-58 -80t-22 -110q0 -98 62.5 -153.5t180.5 -83.5z" />
    <glyph glyph-name="T" unicode="T" horiz-adv-x="1183" 
d="M1401 1462l-21 -123h-485l-236 -1339h-135l236 1339h-486l21 123h1106z" />
    <glyph glyph-name="U" unicode="U" horiz-adv-x="1486" 
d="M1419 1462h135l-168 -952q-45 -258 -199.5 -397.5t-414.5 -139.5q-226 0 -365 119t-139 309q0 47 15 144l161 917h136l-162 -919q-15 -97 -15 -135q0 -147 98 -229.5t277 -82.5q211 0 326 114t153 335z" />
    <glyph glyph-name="V" unicode="V" horiz-adv-x="1323" 
d="M514 0l-217 1462h139l193 -1319h104l653 1319h148l-729 -1462h-291z" />
    <glyph glyph-name="W" unicode="W" horiz-adv-x="1736" 
d="M932 938h194l162 -795h39l399 1319h134l-443 -1462h-227l-160 801h-39l-440 -801h-238l70 1462h133l-63 -1319h39z" />
    <glyph glyph-name="X" unicode="X" horiz-adv-x="1271" 
d="M1073 0l-266 690h-78l-518 -690h-164l582 774l-260 688h141l229 -602h78l443 602h159l-504 -680l306 -782h-148z" />
    <glyph glyph-name="Y" unicode="Y" horiz-adv-x="1269" 
d="M731 764h57l539 698h152l-678 -889l-101 -573h-135l101 573l-369 889h141z" />
    <glyph glyph-name="Z" unicode="Z" horiz-adv-x="1288" 
d="M1411 1462l-29 -164l-1079 -1134l-8 -41h909l-20 -123h-1082l29 166l1081 1132l9 41h-830l21 123h999z" />
    <glyph glyph-name="bracketleft" unicode="[" horiz-adv-x="610" 
d="M442 -289h-329l323 1843h330l-18 -110h-201l-287 -1622h201z" />
    <glyph glyph-name="backslash" unicode="\" horiz-adv-x="804" 
d="M754 -289h-131l-289 1843h125z" />
    <glyph glyph-name="bracketright" unicode="]" horiz-adv-x="610" 
d="M395 -289h-329l18 111h201l286 1622h-200l18 110h330z" />
    <glyph glyph-name="asciicircum" unicode="^" horiz-adv-x="1085" 
d="M324 618h-125l538 797h107l260 -797h-113l-207 639h-32z" />
    <glyph glyph-name="underscore" unicode="_" horiz-adv-x="1026" 
d="M983 -256h-1030l20 111h1031z" />
    <glyph glyph-name="grave" unicode="`" horiz-adv-x="479" 
d="M506 1192l-162 297h160l117 -297h-115z" />
    <glyph glyph-name="a" unicode="a" horiz-adv-x="1120" 
d="M829 0l19 113h-41q-129 -140 -322 -140q-160 0 -249 88t-89 218q0 163 111 261.5t301 98.5h379l6 33q10 38 10 88q0 80 -60.5 128t-184.5 48q-127 0 -204 -47.5t-91 -128.5h-129q26 139 143 215t293 76q165 0 262.5 -77.5t97.5 -207.5q0 -66 -10 -104l-117 -662h-125z
M512 88q145 0 255.5 101.5t135.5 248.5l17 92h-334q-137 0 -222 -61.5t-85 -181.5q0 -93 61 -146t172 -53z" />
    <glyph glyph-name="b" unicode="b" horiz-adv-x="1230" 
d="M1214 602q0 -89 -20 -176.5t-62.5 -169.5t-103 -145t-148.5 -100.5t-192 -37.5q-105 0 -191.5 40.5t-131.5 121.5h-41l-25 -135h-125l262 1489h129l-102 -578h41q46 62 128.5 101t176.5 39q98 0 176 -36t127.5 -98t75.5 -142.5t26 -172.5zM803 936q-81 0 -149.5 -31.5
t-115.5 -83t-80.5 -118.5t-49 -136.5t-15.5 -138.5q0 -161 75.5 -250.5t219.5 -89.5q74 0 144.5 33.5t127 95.5t91 162t34.5 221q0 148 -72.5 242t-209.5 94z" />
    <glyph glyph-name="c" unicode="c" horiz-adv-x="1083" 
d="M930 293h133q-42 -149 -158 -234.5t-284 -85.5q-179 0 -301.5 121.5t-122.5 317.5q0 127 35.5 242t100.5 203.5t165.5 141t222.5 52.5q159 0 264.5 -88t126.5 -224h-131q-20 90 -87.5 143.5t-176.5 53.5q-73 0 -137 -29t-110 -79.5t-79 -116.5t-49 -141t-16 -152
q0 -153 83.5 -241.5t221.5 -88.5q111 0 190 55t109 150z" />
    <glyph glyph-name="d" unicode="d" horiz-adv-x="1230" 
d="M197 422q0 89 20 176.5t62.5 169.5t103 145t148.5 100.5t192 37.5q105 0 189.5 -40.5t129.5 -121.5h41l107 600h129l-262 -1489h-125l20 113h-41q-45 -61 -129.5 -100.5t-179.5 -39.5q-98 0 -176 36t-127.5 98t-75.5 142.5t-26 172.5zM608 88q81 0 149.5 31.5t115.5 83
t80.5 118.5t49 136.5t15.5 138.5q0 161 -75.5 250.5t-219.5 89.5q-74 0 -144.5 -33.5t-127 -95.5t-91 -162t-34.5 -221q0 -148 72.5 -242t209.5 -94z" />
    <glyph glyph-name="e" unicode="e" horiz-adv-x="1126" 
d="M928 270h131q-42 -137 -155 -217t-275 -80q-183 0 -307.5 123t-124.5 322q0 133 36 248t102.5 201t169 135t228.5 49q98 0 175 -36.5t124 -99t71.5 -142.5t24.5 -171q0 -42 -2 -67h-792q-8 -52 -8 -111q0 -152 87 -244t234 -92q111 0 177.5 46.5t103.5 135.5zM725 936
q-135 0 -228.5 -78t-136.5 -209h637q-8 130 -74.5 208.5t-197.5 78.5z" />
    <glyph glyph-name="f" unicode="f" horiz-adv-x="716" 
d="M813 909h-283l-159 -909h-127l159 909h-186l21 115h186l25 143q57 322 380 322h86l-20 -115h-84q-107 0 -162 -54t-74 -153l-24 -143h283z" />
    <glyph glyph-name="g" unicode="g" horiz-adv-x="1224" 
d="M197 434q0 87 21.5 173.5t66 166.5t106.5 141.5t150.5 98.5t191.5 37q195 0 309 -168h41l25 141h125l-168 -954q-39 -236 -181 -364t-349 -128q-171 0 -286 81t-122 220h125q11 -98 93 -142t208 -44q310 0 383 377l14 71h-39q-45 -61 -132 -101t-179 -40
q-130 0 -222.5 59.5t-136.5 156t-44 218.5zM612 115q80 0 148 30t115 79t80.5 113t49 132t15.5 135q0 155 -78 243.5t-217 88.5q-74 0 -144.5 -33.5t-128 -95t-92 -159.5t-34.5 -216q0 -144 73.5 -230.5t212.5 -86.5z" />
    <glyph glyph-name="h" unicode="h" 
d="M1042 0h-129l107 604q12 70 12 115q0 108 -57.5 162.5t-179.5 54.5q-151 0 -257.5 -108.5t-136.5 -274.5l-98 -553h-129l264 1489h129l-102 -578h35q111 140 325 140q160 0 248 -85.5t88 -234.5q0 -43 -12 -125z" />
    <glyph glyph-name="i" unicode="i" horiz-adv-x="483" 
d="M483 1024l-180 -1024h-129l180 1024h129zM543 1327h-142l29 162h141z" />
    <glyph glyph-name="j" unicode="j" horiz-adv-x="501" 
d="M-49 -410h-127l20 115h95q108 0 164 52t77 165l195 1102h129l-199 -1118q-60 -316 -354 -316zM561 1327h-141l29 162h141z" />
    <glyph glyph-name="k" unicode="k" horiz-adv-x="1079" 
d="M1053 0h-133l-205 588h-41l-320 -291l-51 -297h-129l262 1489h129l-180 -1018l610 553h164l-348 -315z" />
    <glyph glyph-name="l" unicode="l" horiz-adv-x="477" 
d="M565 1489l-262 -1489h-129l262 1489h129z" />
    <glyph glyph-name="m" unicode="m" horiz-adv-x="1685" 
d="M1364 1051q136 0 209.5 -76t73.5 -203q0 -56 -11 -121l-114 -651h-129l112 643q13 76 13 125q0 168 -179 168q-130 0 -211.5 -88t-107.5 -230l-109 -618h-129l117 670q10 52 10 98q0 84 -46 126t-128 42q-69 0 -127.5 -30.5t-97.5 -82t-64 -110t-36 -121.5l-107 -592
h-129l180 1024h125l-16 -102h39q91 129 264 129q84 0 148.5 -34t95.5 -106h41q124 140 313 140z" />
    <glyph glyph-name="n" unicode="n" 
d="M1042 0h-129l107 604q12 70 12 115q0 108 -57.5 162.5t-179.5 54.5q-151 0 -257.5 -108.5t-136.5 -274.5l-98 -553h-129l182 1024h125l-20 -113h37q125 140 327 140q160 0 248 -85.5t88 -234.5q0 -43 -12 -125z" />
    <glyph glyph-name="o" unicode="o" horiz-adv-x="1216" 
d="M745 1051q196 0 325.5 -120t129.5 -327q0 -178 -63.5 -319.5t-190 -226.5t-295.5 -85q-196 0 -325 120t-129 327q0 177 63 318.5t189 227t296 85.5zM659 88q129 0 224.5 74t141.5 188.5t46 249.5q0 153 -92.5 244.5t-241.5 91.5q-98 0 -177.5 -43t-129.5 -115t-77 -163
t-27 -191q0 -155 90 -245.5t243 -90.5z" />
    <glyph glyph-name="p" unicode="p" horiz-adv-x="1230" 
d="M1214 602q0 -89 -20 -176.5t-62.5 -169.5t-103 -145t-148.5 -100.5t-192 -37.5q-105 0 -189.5 40.5t-129.5 121.5h-41l-97 -545h-129l252 1434h125l-20 -113h41q45 61 129.5 100.5t179.5 39.5q98 0 176 -36t127.5 -98t75.5 -142.5t26 -172.5zM803 936q-81 0 -149.5 -31.5
t-115.5 -83t-80.5 -118.5t-49 -136.5t-15.5 -138.5q0 -161 75.5 -250.5t219.5 -89.5q74 0 144.5 33.5t127 95.5t91 162t34.5 221q0 148 -72.5 242t-209.5 94z" />
    <glyph glyph-name="q" unicode="q" horiz-adv-x="1228" 
d="M197 422q0 89 20 176.5t62.5 169.5t103 145t148.5 100.5t192 37.5q106 0 192.5 -40.5t131.5 -121.5h40l25 135h125l-252 -1434h-129l92 523h-41q-46 -62 -128.5 -101t-176.5 -39q-98 0 -176 36t-127.5 98t-75.5 142.5t-26 172.5zM608 88q81 0 149.5 31.5t115.5 83
t80.5 118.5t49 136.5t15.5 138.5q0 161 -75.5 250.5t-219.5 89.5q-74 0 -144.5 -33.5t-127 -95.5t-91 -162t-34.5 -221q0 -148 72.5 -242t209.5 -94z" />
    <glyph glyph-name="r" unicode="r" horiz-adv-x="761" 
d="M887 1024l-23 -119h-76q-148 0 -253 -93t-134 -257l-98 -555h-129l182 1024h125l-22 -125h39q125 125 321 125h68z" />
    <glyph glyph-name="s" unicode="s" horiz-adv-x="1028" 
d="M623 936q-107 0 -180.5 -45t-73.5 -135q0 -26 8.5 -46t20.5 -33t37.5 -25.5t45 -19t56.5 -18.5l192 -53q256 -71 256 -268q0 -140 -116 -230t-300 -90q-83 0 -156 17t-135 52.5t-100.5 97.5t-44.5 145h127q6 -88 92.5 -142.5t225.5 -54.5q116 0 197 52t81 147
q0 110 -172 159l-190 54q-125 34 -189.5 93.5t-64.5 160.5q0 97 54 165.5t140.5 100t196.5 31.5q159 0 270 -75.5t123 -209.5h-127q-11 77 -82.5 123.5t-191.5 46.5z" />
    <glyph glyph-name="t" unicode="t" horiz-adv-x="757" 
d="M553 1024h266l-20 -115h-267l-110 -622q-8 -31 -8 -78q0 -94 143 -94h100l-18 -115h-72q-143 0 -212.5 46.5t-69.5 150.5q0 44 12 106l106 606h-186l21 115h186l55 317h129z" />
    <glyph glyph-name="u" unicode="u" 
d="M340 1024h129l-107 -604q-12 -70 -12 -115q0 -217 238 -217q150 0 256.5 108.5t136.5 274.5l98 553h129l-182 -1024h-125l21 113h-37q-125 -140 -328 -140q-160 0 -248 85.5t-88 234.5q0 43 12 125z" />
    <glyph glyph-name="v" unicode="v" horiz-adv-x="1058" 
d="M401 0l-172 1024h129l152 -897h78l461 897h143l-539 -1024h-252z" />
    <glyph glyph-name="w" unicode="w" horiz-adv-x="1353" 
d="M698 666h189l92 -539h39l282 897h125l-321 -1024h-213l-96 543h-41l-287 -543h-225l39 1024h122l-34 -897h41z" />
    <glyph glyph-name="x" unicode="x" horiz-adv-x="1073" 
d="M854 0l-195 453h-69l-361 -453h-151l420 524l-205 500h129l176 -428h70l331 428h146l-383 -494l231 -530h-139z" />
    <glyph glyph-name="y" unicode="y" horiz-adv-x="1050" 
d="M326 -410h-138l304 508l-263 926h129l203 -723h55l428 723h140z" />
    <glyph glyph-name="z" unicode="z" horiz-adv-x="1038" 
d="M918 0h-816l27 156l768 714l8 39h-608l20 115h781l-29 -154l-768 -714l-8 -41h643z" />
    <glyph glyph-name="braceleft" unicode="{" horiz-adv-x="768" 
d="M449 653l-9 -41q74 -25 74 -129q0 -48 -12 -94l-62 -356q-8 -36 -8 -86q0 -125 154 -125h67l-18 -111h-68q-123 0 -193.5 53.5t-70.5 169.5q0 57 10 99l60 346q10 65 10 96q0 52 -22.5 77.5t-75.5 25.5h-21l21 110h20q73 0 106 47.5t52 151.5l63 362q28 161 113.5 233
t226.5 72h92l-18 -110h-74q-175 0 -211 -197l-69 -393q-17 -90 -50 -136.5t-87 -64.5z" />
    <glyph glyph-name="bar" unicode="|" horiz-adv-x="497" 
d="M133 -289l324 1843h129l-324 -1843h-129z" />
    <glyph glyph-name="braceright" unicode="}" horiz-adv-x="768" 
d="M543 612l8 41q-74 25 -74 129q0 49 12 95l62 356q8 36 8 86q0 68 -40 96.5t-113 28.5h-68l18 110h68q122 0 193 -54.5t71 -168.5q0 -56 -10 -98l-60 -346q-10 -65 -10 -96q0 -52 22.5 -77.5t76.5 -25.5h20l-20 -110h-21q-73 0 -106 -47.5t-52 -151.5l-63 -363
q-28 -161 -113.5 -233t-226.5 -72h-92l18 111h74q85 0 138.5 45.5t72.5 150.5l70 394q17 90 50 136t87 64z" />
    <glyph glyph-name="asciitilde" unicode="~" horiz-adv-x="1370" 
d="M1176 682h110q0 -279 -252 -279q-58 0 -116 24.5t-106 60t-94.5 71t-96.5 60t-95 24.5q-131 0 -131 -174h-110q0 279 252 279q58 0 117 -24.5t106.5 -60t93.5 -71t95.5 -60t94.5 -24.5q67 0 99.5 41.5t32.5 132.5z" />
    <glyph glyph-name="uni00A0" unicode="&#xa0;" horiz-adv-x="569" 
 />
    <glyph glyph-name="exclamdown" unicode="&#xa1;" horiz-adv-x="618" 
d="M287 -410h-135l102 580l111 489h84l-60 -489zM518 815h-172l35 209h172z" />
    <glyph glyph-name="cent" unicode="&#xa2;" horiz-adv-x="1085" 
d="M930 293h133q-43 -150 -159.5 -235t-287.5 -85l-24 -137h-105l27 150q-141 33 -229 146t-88 280q0 169 58 310t174.5 231.5t272.5 95.5l25 139h104l-26 -146q127 -23 208.5 -104.5t100.5 -198.5h-131q-18 75 -69 126.5t-130 64.5l-147 -842q108 0 184 55t109 150z
M326 418q0 -127 55 -210t154 -108l147 834q-110 -8 -193 -86.5t-123 -191.5t-40 -238z" />
    <glyph glyph-name="sterling" unicode="&#xa3;" horiz-adv-x="1273" 
d="M424 119h788l-20 -119h-1059l21 119h43q76 0 118 47.5t60 144.5l51 283h-188l20 119h188l58 327q74 422 448 422q160 0 260.5 -82t100.5 -231q0 -39 -6 -86h-131q6 37 6 72q0 97 -59.5 152.5t-174.5 55.5q-74 0 -129.5 -23t-91 -67t-56.5 -95.5t-34 -119.5l-57 -325h434
l-21 -119h-434l-47 -264q-9 -44 -15 -65t-23 -51.5t-44 -53.5z" />
    <glyph glyph-name="currency" unicode="&#xa4;" horiz-adv-x="1484" 
d="M1317 20l-139 138q-148 -119 -334 -119q-188 0 -336 119l-139 -138l-84 84l137 140q-119 148 -119 336q0 185 119 333l-137 140l84 84l139 -138q150 117 336 117q184 0 334 -117l139 138l84 -84l-137 -140q116 -148 116 -333q0 -188 -116 -336l137 -140zM844 150
q172 0 289.5 123.5t117.5 306.5q0 180 -117.5 303t-289.5 123t-292 -123.5t-120 -302.5q0 -182 119.5 -306t292.5 -124z" />
    <glyph glyph-name="yen" unicode="&#xa5;" horiz-adv-x="1210" 
d="M344 606l18 107h203l-264 721h135l262 -721h58l516 721h147l-522 -721h207l-19 -107h-266l-55 -78l-14 -82h307l-19 -106h-307l-59 -340h-131l59 340h-303l18 106h303l15 82l-29 78h-260z" />
    <glyph glyph-name="brokenbar" unicode="&#xa6;" horiz-adv-x="497" 
d="M334 854l123 700h129l-123 -700h-129zM133 -289l123 701h129l-123 -701h-129z" />
    <glyph glyph-name="section" unicode="&#xa7;" horiz-adv-x="1196" 
d="M186 43h131q0 -4 -1 -13.5t-1 -13.5q0 -110 73.5 -182t203.5 -72q129 0 205.5 64.5t76.5 169.5q0 70 -34 111t-109 71l-254 101q-130 53 -188 124t-58 166q0 56 16 104.5t39.5 80.5t55.5 58.5t58 40.5t53 24l8 41q-74 66 -74 192q0 154 115 253t299 99q179 0 289 -99
t110 -263q0 -21 -2 -37h-131q2 16 2 33q0 111 -72.5 179t-203.5 68t-202 -63t-71 -170q0 -67 35 -109.5t109 -72.5l254 -101q130 -52 187.5 -123t57.5 -165q0 -69 -23 -126.5t-60 -93t-72 -57t-68 -31.5l-6 -41q74 -71 74 -194q0 -155 -119.5 -253.5t-304.5 -98.5
q-181 0 -290.5 98t-109.5 262q0 7 1 19.5t1 19.5zM864 719l-303 119q-25 -11 -44 -21.5t-50 -34t-51 -49t-35.5 -66t-15.5 -87.5q0 -69 40.5 -113t124.5 -78l301 -121q28 11 57 28.5t63.5 48t56.5 78t22 103.5q0 69 -41 114t-125 79z" />
    <glyph glyph-name="dieresis" unicode="&#xa8;" horiz-adv-x="651" 
d="M457 1327h-142l29 162h141zM817 1327h-141l29 162h141z" />
    <glyph glyph-name="copyright" unicode="&#xa9;" horiz-adv-x="1767" 
d="M1014 1489q123 0 238 -38.5t207 -108.5t161.5 -163t107 -209t37.5 -239t-37.5 -239t-107 -209t-161.5 -163t-207 -108.5t-238 -38.5t-238 38.5t-207.5 108.5t-162 163t-107 209t-37.5 239t37.5 239t107 209t162 163t207.5 108.5t238 38.5zM1014 88q130 0 247.5 51
t202 137t134 205t49.5 250q0 132 -49.5 251.5t-134 206.5t-202 138t-247.5 51t-247.5 -51t-202 -138t-134 -206.5t-49.5 -251.5q0 -131 49.5 -250t134 -205t202 -137t247.5 -51zM1249 604h109q-18 -121 -104.5 -199.5t-217.5 -78.5q-169 0 -267.5 115t-98.5 288
q0 177 98 291.5t268 114.5q127 0 212 -71.5t102 -189.5h-109q-38 166 -205 166q-87 0 -147 -44.5t-85.5 -112.5t-25.5 -154q0 -133 64.5 -219t193.5 -86q89 0 142 48.5t71 131.5z" />
    <glyph glyph-name="ordfeminine" unicode="&#xaa;" horiz-adv-x="870" 
d="M772 682v90h-10q-40 -47 -106.5 -75.5t-147.5 -28.5q-133 0 -208 74t-75 178q0 49 16 92t48.5 80t91 58t135.5 21h252v43q0 72 -47.5 116t-142.5 44q-84 0 -132 -36t-53 -95h-117q7 107 90 170.5t209 63.5q142 0 224 -69t82 -191v-535h-109zM520 768q99 0 173.5 66
t74.5 159v82h-227q-96 0 -149.5 -40.5t-53.5 -110.5q0 -73 51 -114.5t131 -41.5z" />
    <glyph glyph-name="guillemotleft" unicode="&#xab;" horiz-adv-x="1077" 
d="M346 592l-8 -41l262 -338h-139l-246 305l21 121l346 303h151zM737 592l-8 -41l262 -338h-139l-246 305l21 121l346 303h151z" />
    <glyph glyph-name="logicalnot" unicode="&#xac;" horiz-adv-x="1398" 
d="M1165 227v439h-921v108h1030v-547h-109z" />
    <glyph glyph-name="uni00AD" unicode="&#xad;" horiz-adv-x="737" 
d="M723 506h-533l21 117h532z" />
    <glyph glyph-name="registered" unicode="&#xae;" horiz-adv-x="1767" 
d="M1014 1489q123 0 238 -38.5t207 -108.5t161.5 -163t107 -209t37.5 -239t-37.5 -239t-107 -209t-161.5 -163t-207 -108.5t-238 -38.5t-238 38.5t-207.5 108.5t-162 163t-107 209t-37.5 239t37.5 239t107 209t162 163t207.5 108.5t238 38.5zM1014 88q130 0 247.5 51
t202 137t134 205t49.5 250q0 132 -49.5 251.5t-134 206.5t-202 138t-247.5 51t-247.5 -51t-202 -138t-134 -206.5t-49.5 -251.5q0 -131 49.5 -250t134 -205t202 -137t247.5 -51zM735 1120h348q122 0 188 -59t66 -166q0 -147 -116 -199l125 -356h-111l-117 330h-276v-330
h-107v780zM842 764h227q162 0 162 131q0 64 -38.5 96.5t-123.5 32.5h-227v-260z" />
    <glyph glyph-name="overscore" unicode="&#xaf;" horiz-adv-x="710" 
d="M877 1327h-562l19 111h561z" />
    <glyph glyph-name="degree" unicode="&#xb0;" horiz-adv-x="972" 
d="M268 1071q0 173 116 289.5t288 116.5q173 0 289 -116.5t116 -289.5q0 -172 -116 -287.5t-289 -115.5q-172 0 -288 115.5t-116 287.5zM381 1071q0 -131 82 -220t209 -89q129 0 211 89t82 220t-82.5 221t-210.5 90q-127 0 -209 -90t-82 -221z" />
    <glyph glyph-name="plusminus" unicode="&#xb1;" horiz-adv-x="1400" 
d="M244 0v111h1032v-111h-1032zM705 725v369h110v-369h461v-111h-461v-368h-110v368h-459v111h459z" />
    <glyph glyph-name="twosuperior" unicode="&#xb2;" horiz-adv-x="720" 
d="M780 782l-20 -100h-557l24 127l346 242q30 20 48 35t44 41t39 58t13 68q0 54 -38 88.5t-101 34.5q-147 0 -179 -157h-112q24 130 103.5 194t195.5 64q105 0 174 -59t69 -154q0 -53 -18 -99.5t-51.5 -83.5t-62.5 -60.5t-70 -51.5l-230 -160l-6 -27h389z" />
    <glyph glyph-name="threesuperior" unicode="&#xb3;" horiz-adv-x="751" 
d="M846 1350l-207 -152l-4 -24q88 -18 132 -80t44 -138q0 -131 -81 -209.5t-222 -78.5q-118 0 -196.5 70.5t-78.5 183.5h111q4 -71 50.5 -112.5t119.5 -41.5q85 0 134.5 52.5t49.5 133.5q0 63 -40 99.5t-107 36.5q-45 0 -80 -9l21 119l176 131l6 31h-320l17 100h493z" />
    <glyph glyph-name="acute" unicode="&#xb4;" horiz-adv-x="479" 
d="M678 1489l-268 -297h-123l223 297h168z" />
    <glyph glyph-name="mu" unicode="&#xb5;" horiz-adv-x="1230" 
d="M258 1024h129v-629q0 -307 285 -307q147 0 242.5 110.5t95.5 264.5v561h129v-1024h-125v115h-41q-43 -62 -130 -102t-190 -40q-162 0 -266 84v-467h-129v1434z" />
    <glyph glyph-name="paragraph" unicode="&#xb6;" horiz-adv-x="1308" 
d="M817 1462h645l-16 -102h-162l-305 -1722h-121l305 1722h-245l-306 -1722h-120l178 1005q-187 0 -296.5 86.5t-109.5 259.5q0 117 43.5 209t120.5 149t175.5 86t213.5 29z" />
    <glyph glyph-name="middot" unicode="&#xb7;" horiz-adv-x="499" 
d="M432 541h-172l35 209h172z" />
    <glyph glyph-name="cedilla" unicode="&#xb8;" horiz-adv-x="493" 
d="M209 57h84l-100 -176h26q30 17 57 17q48 0 79.5 -37.5t31.5 -98.5q0 -80 -53.5 -131t-140.5 -51q-71 0 -115.5 37.5t-46.5 93.5h96q13 -47 72 -47q39 0 63.5 25.5t24.5 66.5q0 29 -19.5 47.5t-50.5 18.5q-38 0 -61 -23h-97z" />
    <glyph glyph-name="onesuperior" unicode="&#xb9;" horiz-adv-x="673" 
d="M539 782h198l-16 -100h-510l16 100h199l96 541h-33l-182 -96l21 116l221 119h110z" />
    <glyph glyph-name="ordmasculine" unicode="&#xba;" horiz-adv-x="905" 
d="M596 1477q173 0 272 -115t99 -289t-99 -289.5t-272 -115.5t-272 115.5t-99 289.5t99 289t272 115zM596 768q63 0 113.5 26t81.5 69.5t47 97.5t16 112q0 125 -67.5 213t-190.5 88t-190.5 -88t-67.5 -213q0 -58 16 -112t47 -97.5t81.5 -69.5t113.5 -26z" />
    <glyph glyph-name="guillemotright" unicode="&#xbb;" horiz-adv-x="1077" 
d="M932 563l8 41l-262 338h139l246 -305l-21 -121l-346 -303h-151zM541 563l8 41l-262 338h139l246 -305l-21 -121l-346 -303h-151z" />
    <glyph glyph-name="onequarter" unicode="&#xbc;" horiz-adv-x="1824" 
d="M584 0h-127l1120 1434h125zM1679 285h113l-18 -101h-113l-31 -184h-112l30 184h-401l18 109l445 487h157zM1311 285h256l59 344h-31l-278 -314zM539 782h198l-16 -100h-510l16 100h199l96 541h-33l-182 -96l21 116l221 119h110z" />
    <glyph glyph-name="onehalf" unicode="&#xbd;" horiz-adv-x="1861" 
d="M586 0h-127l1120 1434h125zM539 782h198l-16 -100h-510l16 100h199l96 541h-33l-182 -96l21 116l221 119h110zM1800 100l-20 -100h-557l24 127l346 242q30 20 48 35t44 41t39 58t13 68q0 54 -38.5 88.5t-101.5 34.5q-146 0 -178 -157h-112q24 130 103.5 194t195.5 64
q105 0 174 -59t69 -154q0 -53 -18 -99.5t-51.5 -83.5t-62.5 -60.5t-70 -51.5l-230 -160l-6 -27h389z" />
    <glyph glyph-name="threequarters" unicode="&#xbe;" horiz-adv-x="1853" 
d="M612 0h-127l1121 1434h125zM1708 285h113l-19 -101h-112l-31 -184h-113l31 184h-401l18 109l444 487h158zM1339 285h256l60 344h-31l-278 -314zM846 1350l-207 -152l-4 -24q88 -18 132 -80t44 -138q0 -131 -81 -209.5t-222 -78.5q-118 0 -196.5 70.5t-78.5 183.5h111
q4 -71 50.5 -112.5t119.5 -41.5q85 0 134.5 52.5t49.5 133.5q0 63 -40 99.5t-107 36.5q-45 0 -80 -9l21 119l176 131l6 31h-320l17 100h493z" />
    <glyph glyph-name="questiondown" unicode="&#xbf;" horiz-adv-x="1067" 
d="M502 -422q-166 0 -279.5 98t-113.5 250q0 147 71.5 249t227.5 190q6 4 18 11q90 53 119 84q50 54 69 163l7 36h129l-7 -36q-16 -96 -49.5 -157t-84 -102.5t-150.5 -99.5q-114 -65 -167.5 -143.5t-53.5 -192.5q0 -105 75 -173t201 -68q272 0 324 297h127
q-34 -193 -147.5 -299.5t-315.5 -106.5zM662 1024h165l-34 -207h-166z" />
    <glyph glyph-name="Agrave" unicode="&#xc0;" horiz-adv-x="1363" 
d="M1057 1462l262 -1462h-141l-82 473h-660l-246 -473h-147l766 1462h248zM874 1319l-374 -723h575l-123 723h-78zM883 1571l-170 264h159l125 -264h-114z" />
    <glyph glyph-name="Aacute" unicode="&#xc1;" horiz-adv-x="1363" 
d="M1057 1462l262 -1462h-141l-82 473h-660l-246 -473h-147l766 1462h248zM874 1319l-374 -723h575l-123 723h-78zM1266 1835l-260 -264h-123l215 264h168z" />
    <glyph glyph-name="Acircumflex" unicode="&#xc2;" horiz-adv-x="1363" 
d="M1057 1462l262 -1462h-141l-82 473h-660l-246 -473h-147l766 1462h248zM874 1319l-374 -723h575l-123 723h-78zM659 1571l261 264h143l170 -264h-125l-104 162h-41l-162 -162h-142z" />
    <glyph glyph-name="Atilde" unicode="&#xc3;" horiz-adv-x="1366" 
d="M1057 1462l262 -1462h-141l-82 473h-660l-246 -473h-147l766 1462h248zM874 1319l-374 -723h575l-123 723h-78zM1223 1835h98q-24 -138 -79.5 -201t-143.5 -63q-37 0 -72 17t-61 41t-49.5 48t-48.5 41t-48 17q-84 0 -112 -164h-99q24 138 79.5 201t143.5 63q37 0 72 -17
t61 -41t49.5 -48t48.5 -41t48 -17q86 0 113 164z" />
    <glyph glyph-name="Adieresis" unicode="&#xc4;" horiz-adv-x="1363" 
d="M1057 1462l262 -1462h-141l-82 473h-660l-246 -473h-147l766 1462h248zM874 1319l-374 -723h575l-123 723h-78zM854 1673h-141l26 162h142zM1214 1673h-141l27 162h141z" />
    <glyph glyph-name="Aring" unicode="&#xc5;" horiz-adv-x="1363" 
d="M956 1837q89 0 152 -63t63 -152q0 -60 -29.5 -110t-80.5 -80l258 -1432h-141l-82 473h-660l-246 -473h-147l766 1462q-70 63 -70 160q0 89 64 152t153 63zM874 1319l-374 -723h575l-123 723h-78zM956 1499q54 0 88.5 34.5t34.5 88.5t-34.5 88.5t-88.5 34.5t-88 -34.5
t-34 -88.5t34 -88.5t88 -34.5z" />
    <glyph glyph-name="AE" unicode="&#xc6;" horiz-adv-x="2002" 
d="M1047 1462h1075l-21 -123h-741l-92 -516h585l-20 -123h-586l-102 -577h776l-20 -123h-912l82 473h-565l-328 -473h-158zM1106 1339l-516 -743h504l129 743h-117z" />
    <glyph glyph-name="Ccedilla" unicode="&#xc7;" horiz-adv-x="1423" 
d="M1276 395h143q-67 -190 -222 -306t-372 -116q-17 0 -63 4l-53 -96h26q30 17 58 17q48 0 79 -37.5t31 -98.5q0 -80 -53.5 -131t-140.5 -51q-71 0 -115.5 37.5t-46.5 93.5h96q13 -47 72 -47q39 0 63.5 25.5t24.5 66.5q0 29 -19.5 47.5t-50.5 18.5q-38 0 -61 -23h-97
l109 189q-202 40 -324 200.5t-122 395.5q0 141 30.5 273.5t93 247t149.5 200.5t206.5 135t257.5 49q204 0 343.5 -105t176.5 -288h-141q-30 127 -127.5 198.5t-255.5 71.5q-121 0 -222.5 -48t-169.5 -126t-115.5 -180.5t-69 -209t-21.5 -212.5q0 -218 120 -356t338 -138
q165 0 278 81.5t167 217.5z" />
    <glyph glyph-name="Egrave" unicode="&#xc8;" horiz-adv-x="1308" 
d="M348 123h877l-21 -123h-1011l256 1462h978l-20 -123h-844l-92 -516h686l-20 -123h-686zM954 1571l-170 264h160l125 -264h-115z" />
    <glyph glyph-name="Eacute" unicode="&#xc9;" horiz-adv-x="1308" 
d="M348 123h877l-21 -123h-1011l256 1462h978l-20 -123h-844l-92 -516h686l-20 -123h-686zM1214 1835l-260 -264h-123l216 264h167z" />
    <glyph glyph-name="Ecircumflex" unicode="&#xca;" horiz-adv-x="1308" 
d="M348 123h877l-21 -123h-1011l256 1462h978l-20 -123h-844l-92 -516h686l-20 -123h-686zM674 1571l260 264h143l170 -264h-125l-104 162h-41l-162 -162h-141z" />
    <glyph glyph-name="Edieresis" unicode="&#xcb;" horiz-adv-x="1308" 
d="M348 123h877l-21 -123h-1011l256 1462h978l-20 -123h-844l-92 -516h686l-20 -123h-686zM860 1673h-141l26 162h142zM1221 1673h-142l27 162h141z" />
    <glyph glyph-name="Igrave" unicode="&#xcc;" horiz-adv-x="550" 
d="M463 1462h135l-256 -1462h-135zM494 1571l-170 264h159l125 -264h-114z" />
    <glyph glyph-name="Iacute" unicode="&#xcd;" horiz-adv-x="550" 
d="M463 1462h135l-256 -1462h-135zM874 1835l-260 -264h-122l215 264h167z" />
    <glyph glyph-name="Icircumflex" unicode="&#xce;" horiz-adv-x="550" 
d="M463 1462h135l-256 -1462h-135zM254 1571l260 264h143l170 -264h-125l-104 162h-41l-162 -162h-141z" />
    <glyph glyph-name="Idieresis" unicode="&#xcf;" horiz-adv-x="550" 
d="M463 1462h135l-256 -1462h-135zM451 1673h-142l27 162h141zM811 1673h-141l26 162h142z" />
    <glyph glyph-name="Eth" unicode="&#xd0;" horiz-adv-x="1536" 
d="M164 705l20 114h201l113 643h426q141 0 253.5 -33.5t197.5 -102.5t131 -183.5t46 -268.5q0 -132 -27 -254.5t-89 -236.5t-154 -198t-232 -134.5t-313 -50.5h-495l123 705h-201zM397 123h373q109 0 201.5 27t158 71.5t116.5 107t82.5 129.5t52 143t28.5 143.5t8 134.5
q0 127 -35 217.5t-101.5 142.5t-152 76t-196.5 24h-320l-92 -520h467l-20 -114h-467z" />
    <glyph glyph-name="Ntilde" unicode="&#xd1;" horiz-adv-x="1533" 
d="M1460 1462h135l-256 -1462h-239l-500 1319h-41l-231 -1319h-135l256 1462h239l502 -1319h39zM1333 1835h99q-24 -138 -80 -201t-144 -63q-37 0 -72 17t-61 41t-49.5 48t-48 41t-47.5 17q-85 0 -113 -164h-98q24 138 79.5 201t143.5 63q37 0 72 -17t61 -41t49.5 -48
t48.5 -41t48 -17q85 0 112 164z" />
    <glyph glyph-name="Ograve" unicode="&#xd2;" horiz-adv-x="1552" 
d="M979 1489q261 0 425.5 -168t164.5 -442q0 -139 -30.5 -270.5t-92.5 -247t-149.5 -202t-208.5 -136.5t-261 -50q-261 0 -425 168.5t-164 442.5q0 139 30.5 270.5t92.5 246.5t149 201.5t208 136.5t261 50zM834 96q89 0 167.5 25.5t138 69.5t109 104.5t83.5 130t57.5 146
t34 151.5t10.5 149q0 139 -50.5 249t-156.5 177.5t-254 67.5q-103 0 -191.5 -34t-153 -93t-114.5 -135t-80 -163.5t-45.5 -176t-15.5 -174.5q0 -139 50.5 -249t156.5 -177.5t254 -67.5zM1030 1571l-170 264h160l125 -264h-115z" />
    <glyph glyph-name="Oacute" unicode="&#xd3;" horiz-adv-x="1552" 
d="M979 1489q261 0 425.5 -168t164.5 -442q0 -139 -30.5 -270.5t-92.5 -247t-149.5 -202t-208.5 -136.5t-261 -50q-261 0 -425 168.5t-164 442.5q0 139 30.5 270.5t92.5 246.5t149 201.5t208 136.5t261 50zM834 96q89 0 167.5 25.5t138 69.5t109 104.5t83.5 130t57.5 146
t34 151.5t10.5 149q0 139 -50.5 249t-156.5 177.5t-254 67.5q-103 0 -191.5 -34t-153 -93t-114.5 -135t-80 -163.5t-45.5 -176t-15.5 -174.5q0 -139 50.5 -249t156.5 -177.5t254 -67.5zM1376 1835l-260 -264h-123l215 264h168z" />
    <glyph glyph-name="Ocircumflex" unicode="&#xd4;" horiz-adv-x="1552" 
d="M979 1489q261 0 425.5 -168t164.5 -442q0 -139 -30.5 -270.5t-92.5 -247t-149.5 -202t-208.5 -136.5t-261 -50q-261 0 -425 168.5t-164 442.5q0 139 30.5 270.5t92.5 246.5t149 201.5t208 136.5t261 50zM834 96q89 0 167.5 25.5t138 69.5t109 104.5t83.5 130t57.5 146
t34 151.5t10.5 149q0 139 -50.5 249t-156.5 177.5t-254 67.5q-103 0 -191.5 -34t-153 -93t-114.5 -135t-80 -163.5t-45.5 -176t-15.5 -174.5q0 -139 50.5 -249t156.5 -177.5t254 -67.5zM776 1571l260 264h144l170 -264h-125l-105 162h-41l-161 -162h-142z" />
    <glyph glyph-name="Otilde" unicode="&#xd5;" horiz-adv-x="1552" 
d="M979 1489q261 0 425.5 -168t164.5 -442q0 -139 -30.5 -270.5t-92.5 -247t-149.5 -202t-208.5 -136.5t-261 -50q-261 0 -425 168.5t-164 442.5q0 139 30.5 270.5t92.5 246.5t149 201.5t208 136.5t261 50zM834 96q89 0 167.5 25.5t138 69.5t109 104.5t83.5 130t57.5 146
t34 151.5t10.5 149q0 139 -50.5 249t-156.5 177.5t-254 67.5q-103 0 -191.5 -34t-153 -93t-114.5 -135t-80 -163.5t-45.5 -176t-15.5 -174.5q0 -139 50.5 -249t156.5 -177.5t254 -67.5zM1346 1835h98q-24 -138 -79.5 -201t-143.5 -63q-37 0 -72 17t-61 41t-49.5 48t-48.5 41
t-48 17q-85 0 -113 -164h-98q24 138 79.5 201t143.5 63q37 0 72 -17t61 -41t49.5 -48t48.5 -41t48 -17q86 0 113 164z" />
    <glyph glyph-name="Odieresis" unicode="&#xd6;" horiz-adv-x="1552" 
d="M971 1673h-142l27 162h141zM1331 1673h-141l27 162h141zM979 1489q261 0 425.5 -168t164.5 -442q0 -139 -30.5 -270.5t-92.5 -247t-149.5 -202t-208.5 -136.5t-261 -50q-261 0 -425 168.5t-164 442.5q0 139 30.5 270.5t92.5 246.5t149 201.5t208 136.5t261 50zM834 96
q89 0 167.5 25.5t138 69.5t109 104.5t83.5 130t57.5 146t34 151.5t10.5 149q0 139 -50.5 249t-156.5 177.5t-254 67.5q-103 0 -191.5 -34t-153 -93t-114.5 -135t-80 -163.5t-45.5 -176t-15.5 -174.5q0 -139 50.5 -249t156.5 -177.5t254 -67.5z" />
    <glyph glyph-name="multiply" unicode="&#xd7;" horiz-adv-x="1294" 
d="M670 578l-385 387l75 75l388 -387l387 387l75 -75l-387 -387l387 -388l-75 -75l-387 385l-388 -385l-75 75z" />
    <glyph glyph-name="Oslash" unicode="&#xd8;" horiz-adv-x="1552" 
d="M979 1489q264 0 426 -170l141 143h146l-222 -227q99 -151 99 -356q0 -139 -30.5 -270.5t-92.5 -247t-149.5 -202t-208.5 -136.5t-261 -50q-261 0 -426 168l-139 -141h-145l219 223q-98 148 -98 361q0 139 30.5 270.5t92.5 246.5t149 201.5t208 136.5t261 50zM373 590
q0 -151 59 -266l883 901q-128 141 -342 141q-103 0 -191.5 -34t-153 -93t-114.5 -135t-80 -163.5t-45.5 -176t-15.5 -174.5zM834 96q89 0 167.5 25.5t138 69.5t109 104.5t83.5 130t57.5 146t34 151.5t10.5 149q0 142 -60 265l-882 -901q127 -140 342 -140z" />
    <glyph glyph-name="Ugrave" unicode="&#xd9;" horiz-adv-x="1486" 
d="M1419 1462h135l-168 -952q-45 -258 -199.5 -397.5t-414.5 -139.5q-226 0 -365 119t-139 309q0 47 15 144l161 917h136l-162 -919q-15 -97 -15 -135q0 -147 98 -229.5t277 -82.5q211 0 326 114t153 335zM1014 1571l-170 264h160l124 -264h-114z" />
    <glyph glyph-name="Uacute" unicode="&#xda;" horiz-adv-x="1486" 
d="M1419 1462h135l-168 -952q-45 -258 -199.5 -397.5t-414.5 -139.5q-226 0 -365 119t-139 309q0 47 15 144l161 917h136l-162 -919q-15 -97 -15 -135q0 -147 98 -229.5t277 -82.5q211 0 326 114t153 335zM1298 1835l-260 -264h-123l215 264h168z" />
    <glyph glyph-name="Ucircumflex" unicode="&#xdb;" horiz-adv-x="1486" 
d="M1419 1462h135l-168 -952q-45 -258 -199.5 -397.5t-414.5 -139.5q-226 0 -365 119t-139 309q0 47 15 144l161 917h136l-162 -919q-15 -97 -15 -135q0 -147 98 -229.5t277 -82.5q211 0 326 114t153 335zM729 1571l260 264h144l170 -264h-125l-105 162h-41l-162 -162h-141z
" />
    <glyph glyph-name="Udieresis" unicode="&#xdc;" horiz-adv-x="1486" 
d="M1419 1462h135l-168 -952q-45 -258 -199.5 -397.5t-414.5 -139.5q-226 0 -365 119t-139 309q0 47 15 144l161 917h136l-162 -919q-15 -97 -15 -135q0 -147 98 -229.5t277 -82.5q211 0 326 114t153 335zM915 1673h-141l27 162h141zM1276 1673h-141l26 162h142z" />
    <glyph glyph-name="Yacute" unicode="&#xdd;" horiz-adv-x="1269" 
d="M731 764h57l539 698h152l-678 -889l-101 -573h-135l101 573l-369 889h141zM1190 1835l-260 -264h-123l215 264h168z" />
    <glyph glyph-name="Thorn" unicode="&#xde;" horiz-adv-x="1296" 
d="M530 1139h420q169 0 282.5 -96.5t113.5 -262.5q0 -115 -41.5 -204t-115 -142.5t-167.5 -80.5t-205 -27h-430l-59 -326h-135l258 1462h137zM930 1016h-422l-100 -567h434q107 0 188 33.5t130.5 108.5t49.5 185q0 118 -79 179t-201 61z" />
    <glyph glyph-name="germandbls" unicode="&#xdf;" horiz-adv-x="1230" 
d="M418 1024l12 70q36 193 147.5 294t296.5 101q168 0 275.5 -94.5t107.5 -245.5q0 -112 -52.5 -201.5t-149.5 -136.5l-6 -39q91 -50 140.5 -131.5t49.5 -183.5q0 -208 -143.5 -332.5t-366.5 -124.5h-158l21 115h141q169 0 273 95t104 253q0 124 -91 198t-216 74h-103
l21 115h139q122 0 195 83t73 204q0 111 -73.5 174t-184.5 63q-138 0 -215 -75.5t-102 -221.5l-188 -1077h-127l159 909h-196l20 115h197z" />
    <glyph glyph-name="agrave" unicode="&#xe0;" horiz-adv-x="1120" 
d="M829 0l19 113h-41q-129 -140 -322 -140q-160 0 -249 88t-89 218q0 163 111 261.5t301 98.5h379l6 33q10 38 10 88q0 80 -60.5 128t-184.5 48q-127 0 -204 -47.5t-91 -128.5h-129q26 139 143 215t293 76q165 0 262.5 -77.5t97.5 -207.5q0 -66 -10 -104l-117 -662h-125z
M512 88q145 0 255.5 101.5t135.5 248.5l17 92h-334q-137 0 -222 -61.5t-85 -181.5q0 -93 61 -146t172 -53zM756 1192l-162 297h160l116 -297h-114z" />
    <glyph glyph-name="aacute" unicode="&#xe1;" horiz-adv-x="1120" 
d="M829 0l19 113h-41q-129 -140 -322 -140q-160 0 -249 88t-89 218q0 163 111 261.5t301 98.5h379l6 33q10 38 10 88q0 80 -60.5 128t-184.5 48q-127 0 -204 -47.5t-91 -128.5h-129q26 139 143 215t293 76q165 0 262.5 -77.5t97.5 -207.5q0 -66 -10 -104l-117 -662h-125z
M512 88q145 0 255.5 101.5t135.5 248.5l17 92h-334q-137 0 -222 -61.5t-85 -181.5q0 -93 61 -146t172 -53zM1071 1489l-268 -297h-123l223 297h168z" />
    <glyph glyph-name="acircumflex" unicode="&#xe2;" horiz-adv-x="1120" 
d="M829 0l19 113h-41q-129 -140 -322 -140q-160 0 -249 88t-89 218q0 163 111 261.5t301 98.5h379l6 33q10 38 10 88q0 80 -60.5 128t-184.5 48q-127 0 -204 -47.5t-91 -128.5h-129q26 139 143 215t293 76q165 0 262.5 -77.5t97.5 -207.5q0 -66 -10 -104l-117 -662h-125z
M512 88q145 0 255.5 101.5t135.5 248.5l17 92h-334q-137 0 -222 -61.5t-85 -181.5q0 -93 61 -146t172 -53zM905 1489l162 -297h-123l-104 194h-41l-174 -194h-131l268 297h143z" />
    <glyph glyph-name="atilde" unicode="&#xe3;" horiz-adv-x="1107" 
d="M829 0l19 113h-41q-129 -140 -322 -140q-160 0 -249 88t-89 218q0 163 111 261.5t301 98.5h379l6 33q10 38 10 88q0 80 -60.5 128t-184.5 48q-127 0 -204 -47.5t-91 -128.5h-129q26 139 143 215t293 76q165 0 262.5 -77.5t97.5 -207.5q0 -66 -10 -104l-117 -662h-125z
M512 88q145 0 255.5 101.5t135.5 248.5l17 92h-334q-137 0 -222 -61.5t-85 -181.5q0 -93 61 -146t172 -53zM1059 1470h98q-24 -138 -79.5 -201t-143.5 -63q-37 0 -72 17t-61 41t-49.5 48t-48.5 41t-48 17q-84 0 -112 -164h-99q24 138 80 201t144 63q37 0 72 -17t61 -41
t49.5 -47.5t48 -40.5t47.5 -17q86 0 113 163z" />
    <glyph glyph-name="adieresis" unicode="&#xe4;" horiz-adv-x="1120" 
d="M829 0l19 113h-41q-129 -140 -322 -140q-160 0 -249 88t-89 218q0 163 111 261.5t301 98.5h379l6 33q10 38 10 88q0 80 -60.5 128t-184.5 48q-127 0 -204 -47.5t-91 -128.5h-129q26 139 143 215t293 76q165 0 262.5 -77.5t97.5 -207.5q0 -66 -10 -104l-117 -662h-125z
M512 88q145 0 255.5 101.5t135.5 248.5l17 92h-334q-137 0 -222 -61.5t-85 -181.5q0 -93 61 -146t172 -53zM688 1327h-141l28 162h142zM1049 1327h-142l29 162h141z" />
    <glyph glyph-name="aring" unicode="&#xe5;" horiz-adv-x="1120" 
d="M829 0l19 113h-41q-129 -140 -322 -140q-160 0 -249 88t-89 218q0 163 111 261.5t301 98.5h379l6 33q10 38 10 88q0 80 -60.5 128t-184.5 48q-127 0 -204 -47.5t-91 -128.5h-129q26 139 143 215t293 76q165 0 262.5 -77.5t97.5 -207.5q0 -66 -10 -104l-117 -662h-125z
M512 88q145 0 255.5 101.5t135.5 248.5l17 92h-334q-137 0 -222 -61.5t-85 -181.5q0 -93 61 -146t172 -53zM807 1624q89 0 152 -63t63 -152t-63 -153t-152 -64t-153 64t-64 153t64 152t153 63zM807 1286q54 0 88.5 34.5t34.5 88.5t-34.5 88.5t-88.5 34.5t-88.5 -34.5
t-34.5 -88.5t34.5 -88.5t88.5 -34.5z" />
    <glyph glyph-name="ae" unicode="&#xe6;" horiz-adv-x="1832" 
d="M1634 270h131q-45 -136 -160 -216.5t-272 -80.5q-118 0 -214 54.5t-152 152.5h-66q-84 -103 -194 -155t-226 -52q-159 0 -246.5 88t-87.5 218q0 163 111 261.5t301 98.5h379l6 33q10 38 10 88q0 80 -61 128t-186 48q-124 0 -199.5 -47.5t-93.5 -128.5h-129
q29 138 145.5 214.5t288.5 76.5q119 0 204.5 -42.5t127.5 -117.5h36q65 73 155.5 116.5t195.5 43.5q97 0 174.5 -36.5t125 -99t72.5 -142.5t25 -171q0 -47 -2 -72h-795q-6 -53 -6 -106q0 -152 87.5 -244t234.5 -92q198 0 280 182zM512 88q145 0 255.5 101.5t135.5 248.5
l17 92h-334q-137 0 -222 -61.5t-85 -181.5q0 -93 61 -146t172 -53zM1071 662l-8 -23h641q-4 64 -20.5 116t-47.5 93.5t-83 64.5t-121 23q-133 0 -224.5 -74t-136.5 -200z" />
    <glyph glyph-name="ccedilla" unicode="&#xe7;" horiz-adv-x="1083" 
d="M930 293h133q-42 -149 -158 -234.5t-284 -85.5q-5 0 -14 1t-13 1l-53 -94h26q30 17 58 17q48 0 79 -37.5t31 -98.5q0 -80 -53.5 -131t-140.5 -51q-71 0 -115.5 37.5t-46.5 93.5h96q13 -47 72 -47q39 0 63.5 25.5t24.5 66.5q0 29 -19.5 47.5t-50.5 18.5q-38 0 -61 -23h-96
l106 187q-141 33 -229 146t-88 280q0 127 35.5 242t100.5 203.5t165.5 141t222.5 52.5q159 0 264.5 -88t126.5 -224h-131q-20 90 -87.5 143.5t-176.5 53.5q-73 0 -137 -29t-110 -79.5t-79 -116.5t-49 -141t-16 -152q0 -153 83.5 -241.5t221.5 -88.5q111 0 190 55t109 150z
" />
    <glyph glyph-name="egrave" unicode="&#xe8;" horiz-adv-x="1126" 
d="M928 270h131q-42 -137 -155 -217t-275 -80q-183 0 -307.5 123t-124.5 322q0 133 36 248t102.5 201t169 135t228.5 49q98 0 175 -36.5t124 -99t71.5 -142.5t24.5 -171q0 -42 -2 -67h-792q-8 -52 -8 -111q0 -152 87 -244t234 -92q111 0 177.5 46.5t103.5 135.5zM725 936
q-135 0 -228.5 -78t-136.5 -209h637q-8 130 -74.5 208.5t-197.5 78.5zM745 1192l-161 297h159l117 -297h-115z" />
    <glyph glyph-name="eacute" unicode="&#xe9;" horiz-adv-x="1126" 
d="M928 270h131q-42 -137 -155 -217t-275 -80q-183 0 -307.5 123t-124.5 322q0 133 36 248t102.5 201t169 135t228.5 49q98 0 175 -36.5t124 -99t71.5 -142.5t24.5 -171q0 -42 -2 -67h-792q-8 -52 -8 -111q0 -152 87 -244t234 -92q111 0 177.5 46.5t103.5 135.5zM725 936
q-135 0 -228.5 -78t-136.5 -209h637q-8 130 -74.5 208.5t-197.5 78.5zM1071 1489l-268 -297h-123l223 297h168z" />
    <glyph glyph-name="ecircumflex" unicode="&#xea;" horiz-adv-x="1126" 
d="M928 270h131q-42 -137 -155 -217t-275 -80q-183 0 -307.5 123t-124.5 322q0 133 36 248t102.5 201t169 135t228.5 49q98 0 175 -36.5t124 -99t71.5 -142.5t24.5 -171q0 -42 -2 -67h-792q-8 -52 -8 -111q0 -152 87 -244t234 -92q111 0 177.5 46.5t103.5 135.5zM725 936
q-135 0 -228.5 -78t-136.5 -209h637q-8 130 -74.5 208.5t-197.5 78.5zM895 1489l162 -297h-123l-105 194h-41l-174 -194h-131l269 297h143z" />
    <glyph glyph-name="edieresis" unicode="&#xeb;" horiz-adv-x="1126" 
d="M928 270h131q-42 -137 -155 -217t-275 -80q-183 0 -307.5 123t-124.5 322q0 133 36 248t102.5 201t169 135t228.5 49q98 0 175 -36.5t124 -99t71.5 -142.5t24.5 -171q0 -42 -2 -67h-792q-8 -52 -8 -111q0 -152 87 -244t234 -92q111 0 177.5 46.5t103.5 135.5zM725 936
q-135 0 -228.5 -78t-136.5 -209h637q-8 130 -74.5 208.5t-197.5 78.5zM678 1327h-141l28 162h142zM1038 1327h-141l29 162h141z" />
    <glyph glyph-name="igrave" unicode="&#xec;" horiz-adv-x="475" 
d="M483 1024l-180 -1024h-129l180 1024h129zM391 1192l-162 297h160l117 -297h-115z" />
    <glyph glyph-name="iacute" unicode="&#xed;" horiz-adv-x="475" 
d="M483 1024l-180 -1024h-129l180 1024h129zM782 1489l-268 -297h-123l223 297h168z" />
    <glyph glyph-name="icircumflex" unicode="&#xee;" horiz-adv-x="475" 
d="M483 1024l-180 -1024h-129l180 1024h129zM561 1489l162 -297h-123l-104 194h-41l-174 -194h-131l268 297h143z" />
    <glyph glyph-name="idieresis" unicode="&#xef;" horiz-adv-x="475" 
d="M483 1024l-180 -1024h-129l180 1024h129zM354 1327h-141l29 162h141zM715 1327h-142l29 162h141z" />
    <glyph glyph-name="eth" unicode="&#xf0;" horiz-adv-x="1167" 
d="M406 1233h366q-113 139 -291 256h168q161 -124 260 -256h254l-20 -98h-168q166 -272 166 -562q0 -126 -35 -235t-100 -190.5t-164 -128t-221 -46.5q-185 0 -304.5 116t-119.5 296q0 159 59.5 291t174 211.5t261.5 79.5q80 0 144 -28.5t98 -66.5h49q-39 115 -141 263h-455
zM627 88q119 0 209.5 69t135 174t44.5 226q0 135 -85 215t-220 80q-89 0 -164 -39.5t-123.5 -105t-75 -147.5t-26.5 -169q0 -136 85.5 -219.5t219.5 -83.5z" />
    <glyph glyph-name="ntilde" unicode="&#xf1;" 
d="M1042 0h-129l107 604q12 70 12 115q0 108 -57.5 162.5t-179.5 54.5q-151 0 -257.5 -108.5t-136.5 -274.5l-98 -553h-129l182 1024h125l-20 -113h37q125 140 327 140q160 0 248 -85.5t88 -234.5q0 -43 -12 -125zM1120 1470h99q-24 -138 -80 -201t-144 -63q-37 0 -72 17
t-61 41t-49.5 48t-48 41t-47.5 17q-85 0 -113 -164h-98q24 138 79.5 201t143.5 63q37 0 72 -17t61 -41t49.5 -47.5t48.5 -40.5t48 -17q85 0 112 163z" />
    <glyph glyph-name="ograve" unicode="&#xf2;" horiz-adv-x="1216" 
d="M745 1051q196 0 325.5 -120t129.5 -327q0 -178 -63.5 -319.5t-190 -226.5t-295.5 -85q-196 0 -325 120t-129 327q0 177 63 318.5t189 227t296 85.5zM659 88q129 0 224.5 74t141.5 188.5t46 249.5q0 153 -92.5 244.5t-241.5 91.5q-98 0 -177.5 -43t-129.5 -115t-77 -163
t-27 -191q0 -155 90 -245.5t243 -90.5zM776 1192l-162 297h160l117 -297h-115z" />
    <glyph glyph-name="oacute" unicode="&#xf3;" horiz-adv-x="1216" 
d="M745 1051q196 0 325.5 -120t129.5 -327q0 -178 -63.5 -319.5t-190 -226.5t-295.5 -85q-196 0 -325 120t-129 327q0 177 63 318.5t189 227t296 85.5zM659 88q129 0 224.5 74t141.5 188.5t46 249.5q0 153 -92.5 244.5t-241.5 91.5q-98 0 -177.5 -43t-129.5 -115t-77 -163
t-27 -191q0 -155 90 -245.5t243 -90.5zM1098 1489l-269 -297h-122l223 297h168z" />
    <glyph glyph-name="ocircumflex" unicode="&#xf4;" horiz-adv-x="1216" 
d="M745 1051q196 0 325.5 -120t129.5 -327q0 -178 -63.5 -319.5t-190 -226.5t-295.5 -85q-196 0 -325 120t-129 327q0 177 63 318.5t189 227t296 85.5zM659 88q129 0 224.5 74t141.5 188.5t46 249.5q0 153 -92.5 244.5t-241.5 91.5q-98 0 -177.5 -43t-129.5 -115t-77 -163
t-27 -191q0 -155 90 -245.5t243 -90.5zM915 1489l162 -297h-123l-104 194h-41l-174 -194h-131l268 297h143z" />
    <glyph glyph-name="otilde" unicode="&#xf5;" horiz-adv-x="1216" 
d="M745 1051q196 0 325.5 -120t129.5 -327q0 -178 -63.5 -319.5t-190 -226.5t-295.5 -85q-196 0 -325 120t-129 327q0 177 63 318.5t189 227t296 85.5zM659 88q129 0 224.5 74t141.5 188.5t46 249.5q0 153 -92.5 244.5t-241.5 91.5q-98 0 -177.5 -43t-129.5 -115t-77 -163
t-27 -191q0 -155 90 -245.5t243 -90.5zM1063 1470h98q-24 -138 -79.5 -201t-143.5 -63q-37 0 -72 17t-61 41t-49.5 48t-48.5 41t-48 17q-84 0 -112 -164h-98q24 138 79.5 201t143.5 63q37 0 72 -17t61 -41t49.5 -47.5t48 -40.5t47.5 -17q86 0 113 163z" />
    <glyph glyph-name="odieresis" unicode="&#xf6;" horiz-adv-x="1216" 
d="M745 1051q196 0 325.5 -120t129.5 -327q0 -178 -63.5 -319.5t-190 -226.5t-295.5 -85q-196 0 -325 120t-129 327q0 177 63 318.5t189 227t296 85.5zM659 88q129 0 224.5 74t141.5 188.5t46 249.5q0 153 -92.5 244.5t-241.5 91.5q-98 0 -177.5 -43t-129.5 -115t-77 -163
t-27 -191q0 -155 90 -245.5t243 -90.5zM698 1327h-141l29 162h141zM1059 1327h-141l28 162h141z" />
    <glyph glyph-name="divide" unicode="&#xf7;" horiz-adv-x="1398" 
d="M1315 522h-1030v111h1030v-111zM877 887h-156v207h156v-207zM877 61h-156v207h156v-207z" />
    <glyph glyph-name="oslash" unicode="&#xf8;" horiz-adv-x="1216" 
d="M745 1051q172 0 295 -97l72 70h135l-139 -135q92 -119 92 -285q0 -178 -63.5 -319.5t-190 -226.5t-295.5 -85q-213 0 -340 133l-108 -106h-135l186 182q-57 99 -57 238q0 177 63 318.5t189 227t296 85.5zM659 88q129 0 224.5 74t141.5 188.5t46 249.5q0 117 -55 199
l-615 -604q90 -107 258 -107zM326 424q0 -86 26 -145l600 587q-88 70 -215 70q-98 0 -177.5 -43t-129.5 -115t-77 -163t-27 -191z" />
    <glyph glyph-name="ugrave" unicode="&#xf9;" 
d="M741 1192l-161 297h159l117 -297h-115zM340 1024h129l-107 -604q-12 -70 -12 -115q0 -217 238 -217q150 0 256.5 108.5t136.5 274.5l98 553h129l-182 -1024h-125l21 113h-37q-125 -140 -328 -140q-160 0 -248 85.5t-88 234.5q0 43 12 125z" />
    <glyph glyph-name="uacute" unicode="&#xfa;" 
d="M1065 1489l-268 -297h-123l223 297h168zM340 1024h129l-107 -604q-12 -70 -12 -115q0 -217 238 -217q150 0 256.5 108.5t136.5 274.5l98 553h129l-182 -1024h-125l21 113h-37q-125 -140 -328 -140q-160 0 -248 85.5t-88 234.5q0 43 12 125z" />
    <glyph glyph-name="ucircumflex" unicode="&#xfb;" 
d="M911 1489l162 -297h-123l-104 194h-41l-174 -194h-131l268 297h143zM340 1024h129l-107 -604q-12 -70 -12 -115q0 -217 238 -217q150 0 256.5 108.5t136.5 274.5l98 553h129l-182 -1024h-125l21 113h-37q-125 -140 -328 -140q-160 0 -248 85.5t-88 234.5q0 43 12 125z
" />
    <glyph glyph-name="udieresis" unicode="&#xfc;" 
d="M694 1327h-141l29 162h141zM1055 1327h-142l29 162h141zM340 1024h129l-107 -604q-12 -70 -12 -115q0 -217 238 -217q150 0 256.5 108.5t136.5 274.5l98 553h129l-182 -1024h-125l21 113h-37q-125 -140 -328 -140q-160 0 -248 85.5t-88 234.5q0 43 12 125z" />
    <glyph glyph-name="yacute" unicode="&#xfd;" horiz-adv-x="1050" 
d="M326 -410h-138l304 508l-263 926h129l203 -723h55l428 723h140zM1008 1489l-269 -297h-123l224 297h168z" />
    <glyph glyph-name="thorn" unicode="&#xfe;" horiz-adv-x="1230" 
d="M1214 602q0 -89 -20 -176.5t-62.5 -169.5t-103 -145t-148.5 -100.5t-192 -37.5q-105 0 -189.5 40.5t-129.5 121.5h-41l-97 -545h-129l334 1899h129l-102 -578h41q46 62 128.5 101t176.5 39q98 0 176 -36t127.5 -98t75.5 -142.5t26 -172.5zM803 936q-81 0 -149.5 -31.5
t-115.5 -83t-80.5 -118.5t-49 -136.5t-15.5 -138.5q0 -161 75.5 -250.5t219.5 -89.5q74 0 144.5 33.5t127 95.5t91 162t34.5 221q0 148 -72.5 242t-209.5 94z" />
    <glyph glyph-name="ydieresis" unicode="&#xff;" horiz-adv-x="1050" 
d="M326 -410h-138l304 508l-263 926h129l203 -723h55l428 723h140zM616 1327h-141l29 162h141zM977 1327h-141l28 162h142z" />
    <glyph glyph-name="Amacron" unicode="&#x100;" horiz-adv-x="1363" 
d="M1057 1462l262 -1462h-141l-82 473h-660l-246 -473h-147l766 1462h248zM874 1319l-374 -723h575l-123 723h-78zM1243 1673h-561l18 111h562z" />
    <glyph glyph-name="amacron" unicode="&#x101;" horiz-adv-x="1120" 
d="M829 0l19 113h-41q-129 -140 -322 -140q-160 0 -249 88t-89 218q0 163 111 261.5t301 98.5h379l6 33q10 38 10 88q0 80 -60.5 128t-184.5 48q-127 0 -204 -47.5t-91 -128.5h-129q26 139 143 215t293 76q165 0 262.5 -77.5t97.5 -207.5q0 -66 -10 -104l-117 -662h-125z
M512 88q145 0 255.5 101.5t135.5 248.5l17 92h-334q-137 0 -222 -61.5t-85 -181.5q0 -93 61 -146t172 -53zM1081 1327h-561l19 111h561z" />
    <glyph glyph-name="Abreve" unicode="&#x102;" horiz-adv-x="1363" 
d="M1057 1462l262 -1462h-141l-82 473h-660l-246 -473h-147l766 1462h248zM874 1319l-374 -723h575l-123 723h-78zM1155 1835h109q-25 -131 -111.5 -197.5t-208.5 -66.5q-105 0 -175.5 56.5t-70.5 150.5q0 21 4 57h109q-4 -28 -4 -39q0 -64 39 -95.5t108 -31.5
q159 0 201 166z" />
    <glyph glyph-name="abreve" unicode="&#x103;" horiz-adv-x="1120" 
d="M829 0l19 113h-41q-129 -140 -322 -140q-160 0 -249 88t-89 218q0 163 111 261.5t301 98.5h379l6 33q10 38 10 88q0 80 -60.5 128t-184.5 48q-127 0 -204 -47.5t-91 -128.5h-129q26 139 143 215t293 76q165 0 262.5 -77.5t97.5 -207.5q0 -66 -10 -104l-117 -662h-125z
M512 88q145 0 255.5 101.5t135.5 248.5l17 92h-334q-137 0 -222 -61.5t-85 -181.5q0 -93 61 -146t172 -53zM1004 1489h106q-24 -147 -112 -222t-210 -75q-106 0 -174.5 58.5t-68.5 160.5q0 47 8 78h104q-6 -35 -6 -59q0 -67 40 -103.5t108 -36.5q162 0 205 199z" />
    <glyph glyph-name="Aogonek" unicode="&#x104;" horiz-adv-x="1363" 
d="M1057 1462l262 -1462q-191 -96 -191 -221q0 -92 144 -92l-19 -95q-18 -2 -47 -2q-97 0 -148.5 42.5t-51.5 117.5q0 77 48.5 144.5t123.5 105.5l-82 473h-660l-246 -473h-147l766 1462h248zM874 1319l-374 -723h575l-123 723h-78z" />
    <glyph glyph-name="aogonek" unicode="&#x105;" horiz-adv-x="1120" 
d="M1071 662l-117 -662q-190 -95 -190 -221q0 -92 143 -92l-18 -95q-18 -2 -47 -2q-97 0 -149 42.5t-52 117.5q0 83 52.5 150t135.5 104l19 109h-41q-129 -140 -322 -140q-160 0 -249 88t-89 218q0 163 111 261.5t301 98.5h379l6 33q10 38 10 88q0 80 -60.5 128t-184.5 48
q-127 0 -204 -47.5t-91 -128.5h-129q26 139 143 215t293 76q165 0 262.5 -77.5t97.5 -207.5q0 -66 -10 -104zM512 88q145 0 255.5 101.5t135.5 248.5l17 92h-334q-137 0 -222 -61.5t-85 -181.5q0 -93 61 -146t172 -53z" />
    <glyph glyph-name="Cacute" unicode="&#x106;" horiz-adv-x="1423" 
d="M1276 395h143q-67 -190 -222 -306t-372 -116q-170 0 -303 74.5t-208.5 214.5t-75.5 322q0 141 30.5 273.5t93 247t149.5 200.5t206.5 135t257.5 49q204 0 343.5 -105t176.5 -288h-141q-30 127 -127.5 198.5t-255.5 71.5q-121 0 -222.5 -48t-169.5 -126t-115.5 -180.5
t-69 -209t-21.5 -212.5q0 -218 120 -356t338 -138q165 0 278 81.5t167 217.5zM1337 1835l-260 -264h-123l215 264h168z" />
    <glyph glyph-name="cacute" unicode="&#x107;" horiz-adv-x="1083" 
d="M930 293h133q-42 -149 -158 -234.5t-284 -85.5q-179 0 -301.5 121.5t-122.5 317.5q0 127 35.5 242t100.5 203.5t165.5 141t222.5 52.5q159 0 264.5 -88t126.5 -224h-131q-20 90 -87.5 143.5t-176.5 53.5q-73 0 -137 -29t-110 -79.5t-79 -116.5t-49 -141t-16 -152
q0 -153 83.5 -241.5t221.5 -88.5q111 0 190 55t109 150zM1102 1489l-268 -297h-123l223 297h168z" />
    <glyph glyph-name="Ccaron" unicode="&#x10c;" horiz-adv-x="1464" 
d="M1276 395h143q-67 -190 -222 -306t-372 -116q-170 0 -303 74.5t-208.5 214.5t-75.5 322q0 141 30.5 273.5t93 247t149.5 200.5t206.5 135t257.5 49q204 0 343.5 -105t176.5 -288h-141q-30 127 -127.5 198.5t-255.5 71.5q-121 0 -222.5 -48t-169.5 -126t-115.5 -180.5
t-69 -209t-21.5 -212.5q0 -218 120 -356t338 -138q165 0 278 81.5t167 217.5zM952 1571l-170 264h129l107 -162h41l160 162h137l-260 -264h-144z" />
    <glyph glyph-name="ccaron" unicode="&#x10d;" horiz-adv-x="1083" 
d="M930 293h133q-42 -149 -158 -234.5t-284 -85.5q-179 0 -301.5 121.5t-122.5 317.5q0 127 35.5 242t100.5 203.5t165.5 141t222.5 52.5q159 0 264.5 -88t126.5 -224h-131q-20 90 -87.5 143.5t-176.5 53.5q-73 0 -137 -29t-110 -79.5t-79 -116.5t-49 -141t-16 -152
q0 -153 83.5 -241.5t221.5 -88.5q111 0 190 55t109 150zM698 1192l-161 297h122l105 -195h41l174 195h131l-268 -297h-144z" />
    <glyph glyph-name="Dcaron" unicode="&#x10e;" horiz-adv-x="1486" 
d="M193 0l256 1462h425q141 0 253.5 -33.5t198 -102.5t131.5 -183.5t46 -268.5q0 -132 -27 -254.5t-89 -236.5t-154 -198t-232 -134.5t-313 -50.5h-495zM348 123h373q109 0 201.5 27t158 71.5t116.5 107t82.5 129.5t52 143t28.5 143.5t8 134.5q0 127 -35 217.5t-101.5 142.5
t-152 76t-196.5 24h-320zM885 1571l-170 264h129l106 -162h41l160 162h137l-260 -264h-143z" />
    <glyph glyph-name="dcaron" unicode="&#x10f;" horiz-adv-x="1400" 
d="M1577 1300h-84l35 189h172l-41 -223l-113 -138h-88l113 138zM197 422q0 89 20 176.5t62.5 169.5t103 145t148.5 100.5t192 37.5q105 0 189.5 -40.5t129.5 -121.5h41l107 600h129l-262 -1489h-125l20 113h-41q-45 -61 -129.5 -100.5t-179.5 -39.5q-98 0 -176 36t-127.5 98
t-75.5 142.5t-26 172.5zM608 88q81 0 149.5 31.5t115.5 83t80.5 118.5t49 136.5t15.5 138.5q0 161 -75.5 250.5t-219.5 89.5q-74 0 -144.5 -33.5t-127 -95.5t-91 -162t-34.5 -221q0 -148 72.5 -242t209.5 -94z" />
    <glyph glyph-name="Dcroat" unicode="&#x110;" horiz-adv-x="1536" 
d="M164 705l20 114h201l113 643h426q141 0 253.5 -33.5t197.5 -102.5t131 -183.5t46 -268.5q0 -132 -27 -254.5t-89 -236.5t-154 -198t-232 -134.5t-313 -50.5h-495l123 705h-201zM397 123h373q109 0 201.5 27t158 71.5t116.5 107t82.5 129.5t52 143t28.5 143.5t8 134.5
q0 127 -35 217.5t-101.5 142.5t-152 76t-196.5 24h-320l-92 -520h467l-20 -114h-467z" />
    <glyph glyph-name="dslash" unicode="&#x111;" horiz-adv-x="1251" 
d="M197 422q0 89 20 176.5t62.5 169.5t103 145t148.5 100.5t192 37.5q105 0 189.5 -40.5t129.5 -121.5h41l56 311h-326l18 103h326l33 186h129l-33 -186h174l-18 -103h-174l-211 -1200h-125l20 113h-41q-45 -61 -129.5 -100.5t-179.5 -39.5q-98 0 -176 36t-127.5 98
t-75.5 142.5t-26 172.5zM608 88q81 0 149.5 31.5t115.5 83t80.5 118.5t49 136.5t15.5 138.5q0 161 -75.5 250.5t-219.5 89.5q-74 0 -144.5 -33.5t-127 -95.5t-91 -162t-34.5 -221q0 -148 72.5 -242t209.5 -94z" />
    <glyph glyph-name="Emacron" unicode="&#x112;" horiz-adv-x="1308" 
d="M348 123h877l-21 -123h-1011l256 1462h978l-20 -123h-844l-92 -516h686l-20 -123h-686zM1262 1673h-562l19 111h561z" />
    <glyph glyph-name="emacron" unicode="&#x113;" horiz-adv-x="1126" 
d="M928 270h131q-42 -137 -155 -217t-275 -80q-183 0 -307.5 123t-124.5 322q0 133 36 248t102.5 201t169 135t228.5 49q98 0 175 -36.5t124 -99t71.5 -142.5t24.5 -171q0 -42 -2 -67h-792q-8 -52 -8 -111q0 -152 87 -244t234 -92q111 0 177.5 46.5t103.5 135.5zM725 936
q-135 0 -228.5 -78t-136.5 -209h637q-8 130 -74.5 208.5t-197.5 78.5zM1096 1327h-561l18 111h561z" />
    <glyph glyph-name="Edotaccent" unicode="&#x116;" horiz-adv-x="1308" 
d="M348 123h877l-21 -123h-1011l256 1462h978l-20 -123h-844l-92 -516h686l-20 -123h-686zM1032 1673h-141l27 162h141z" />
    <glyph glyph-name="edotaccent" unicode="&#x117;" horiz-adv-x="1126" 
d="M928 270h131q-42 -137 -155 -217t-275 -80q-183 0 -307.5 123t-124.5 322q0 133 36 248t102.5 201t169 135t228.5 49q98 0 175 -36.5t124 -99t71.5 -142.5t24.5 -171q0 -42 -2 -67h-792q-8 -52 -8 -111q0 -152 87 -244t234 -92q111 0 177.5 46.5t103.5 135.5zM725 936
q-135 0 -228.5 -78t-136.5 -209h637q-8 130 -74.5 208.5t-197.5 78.5zM862 1327h-141l29 162h141z" />
    <glyph glyph-name="Eogonek" unicode="&#x118;" horiz-adv-x="1308" 
d="M348 123h877l-21 -123q-190 -95 -190 -221q0 -92 143 -92l-18 -95q-18 -2 -47 -2q-97 0 -149 42.5t-52 117.5q0 78 51 145.5t129 104.5h-878l256 1462h978l-20 -123h-844l-92 -516h686l-20 -123h-686z" />
    <glyph glyph-name="eogonek" unicode="&#x119;" horiz-adv-x="1126" 
d="M928 270h131q-30 -96 -88 -158t-154 -104q-96 -45 -154.5 -99.5t-58.5 -129.5q0 -92 144 -92l-19 -95q-18 -2 -47 -2q-97 0 -149 42.5t-52 117.5q0 66 36.5 124.5t96.5 98.5q-178 5 -297.5 127t-119.5 318q0 133 36 248t102.5 201t169 135t228.5 49q98 0 175 -36.5
t124 -99t71.5 -142.5t24.5 -171q0 -42 -2 -67h-792q-8 -52 -8 -111q0 -152 87 -244t234 -92q111 0 177.5 46.5t103.5 135.5zM725 936q-135 0 -228.5 -78t-136.5 -209h637q-8 130 -74.5 208.5t-197.5 78.5z" />
    <glyph glyph-name="Ecaron" unicode="&#x11a;" horiz-adv-x="1308" 
d="M348 123h877l-21 -123h-1011l256 1462h978l-20 -123h-844l-92 -516h686l-20 -123h-686zM870 1571l-170 264h129l107 -162h41l160 162h137l-260 -264h-144z" />
    <glyph glyph-name="ecaron" unicode="&#x11b;" horiz-adv-x="1126" 
d="M928 270h131q-42 -137 -155 -217t-275 -80q-183 0 -307.5 123t-124.5 322q0 133 36 248t102.5 201t169 135t228.5 49q98 0 175 -36.5t124 -99t71.5 -142.5t24.5 -171q0 -42 -2 -67h-792q-8 -52 -8 -111q0 -152 87 -244t234 -92q111 0 177.5 46.5t103.5 135.5zM725 936
q-135 0 -228.5 -78t-136.5 -209h637q-8 130 -74.5 208.5t-197.5 78.5zM692 1192l-162 297h123l105 -195h41l174 195h131l-268 -297h-144z" />
    <glyph glyph-name="uni0122" unicode="&#x122;" horiz-adv-x="1515" 
d="M831 -27q-261 0 -427 168t-166 443q0 142 31.5 275.5t95 247.5t152 199.5t210 134t260.5 48.5q209 0 347 -105.5t175 -287.5h-143q-30 127 -128.5 198.5t-258.5 71.5q-121 0 -223.5 -47t-172 -124.5t-118 -179.5t-70.5 -209.5t-22 -215.5q0 -217 122.5 -355.5
t342.5 -138.5q219 0 356 139t166 400h-498l25 123h626q-5 -128 -31.5 -241.5t-80 -214.5t-130.5 -173t-189.5 -114t-250.5 -42zM717 -440h-88l119 123l6 34h-84l28 162h172l-34 -196z" />
    <glyph glyph-name="uni0123" unicode="&#x123;" horiz-adv-x="1224" 
d="M197 434q0 87 21.5 173.5t66 166.5t106.5 141.5t150.5 98.5t191.5 37q195 0 309 -168h41l25 141h125l-168 -954q-39 -236 -181 -364t-349 -128q-171 0 -286 81t-122 220h125q11 -98 93 -142t208 -44q310 0 383 377l14 71h-39q-45 -61 -132 -101t-179 -40
q-130 0 -222.5 59.5t-136.5 156t-44 218.5zM612 115q80 0 148 30t115 79t80.5 113t49 132t15.5 135q0 155 -78 243.5t-217 88.5q-74 0 -144.5 -33.5t-128 -95t-92 -159.5t-34.5 -216q0 -144 73.5 -230.5t212.5 -86.5zM874 1489h89l-119 -123l-6 -35h84l-29 -162h-172l35 197
z" />
    <glyph glyph-name="Itilde" unicode="&#x128;" horiz-adv-x="550" 
d="M463 1462h135l-256 -1462h-135zM831 1835h99q-24 -138 -79.5 -201t-143.5 -63q-37 0 -72 17t-61 41t-49.5 48t-48.5 41t-48 17q-85 0 -113 -164h-98q24 138 79.5 201t143.5 63q37 0 72 -17t61 -41t49.5 -48t48.5 -41t48 -17q85 0 112 164z" />
    <glyph glyph-name="itilde" unicode="&#x129;" horiz-adv-x="475" 
d="M483 1024l-180 -1024h-129l180 1024h129zM733 1470h98q-24 -138 -79.5 -201t-143.5 -63q-37 0 -72 17t-61 41t-49.5 48t-48 41t-47.5 17q-85 0 -113 -164h-98q24 138 79.5 201t143.5 63q37 0 72 -17t61 -41t49.5 -47.5t48.5 -40.5t48 -17q85 0 112 163z" />
    <glyph glyph-name="Imacron" unicode="&#x12a;" horiz-adv-x="550" 
d="M463 1462h135l-256 -1462h-135zM840 1673h-561l18 111h561z" />
    <glyph glyph-name="imacron" unicode="&#x12b;" horiz-adv-x="475" 
d="M483 1024l-180 -1024h-129l180 1024h129zM739 1327h-561l19 111h561z" />
    <glyph glyph-name="Iogonek" unicode="&#x12e;" horiz-adv-x="550" 
d="M463 1462h135l-256 -1462q-190 -95 -190 -221q0 -92 143 -92l-19 -95q-18 -2 -47 -2q-97 0 -148.5 42.5t-51.5 117.5q0 78 51 145.5t127 104.5z" />
    <glyph glyph-name="iogonek" unicode="&#x12f;" horiz-adv-x="483" 
d="M483 1024l-180 -1024q-190 -95 -190 -221q0 -92 143 -92l-18 -95q-18 -2 -48 -2q-97 0 -148.5 42.5t-51.5 117.5q0 81 52 147.5t132 104.5l180 1022h129zM543 1327h-142l29 162h141z" />
    <glyph glyph-name="dotlessi" unicode="&#x131;" horiz-adv-x="475" 
d="M483 1024l-180 -1024h-129l180 1024h129z" />
    <glyph glyph-name="uni0136" unicode="&#x136;" horiz-adv-x="1423" 
d="M193 0l256 1462h135l-135 -766l931 766h174l-542 -461l338 -1001h-144l-301 885h-41l-446 -365l-90 -520h-135zM674 -440h-88l119 123l6 34h-84l28 162h172l-34 -196z" />
    <glyph glyph-name="uni0137" unicode="&#x137;" horiz-adv-x="1079" 
d="M1053 0h-133l-205 588h-41l-320 -291l-51 -297h-129l262 1489h129l-180 -1018l610 553h164l-348 -315zM518 -440h-88l119 123l6 34h-84l29 162h172l-35 -196z" />
    <glyph glyph-name="kgreenlandic" unicode="&#x138;" horiz-adv-x="1079" 
d="M1053 0h-133l-205 588h-41l-320 -291l-51 -297h-129l180 1024h129l-98 -553l610 553h164l-348 -315z" />
    <glyph glyph-name="Lacute" unicode="&#x139;" horiz-adv-x="1236" 
d="M348 127h828l-21 -127h-962l256 1462h135zM856 1835l-260 -264h-123l215 264h168z" />
    <glyph glyph-name="lacute" unicode="&#x13a;" horiz-adv-x="477" 
d="M565 1489l-262 -1489h-129l262 1489h129zM834 1835l-261 -264h-122l215 264h168z" />
    <glyph glyph-name="uni013B" unicode="&#x13b;" horiz-adv-x="1236" 
d="M348 127h828l-21 -127h-962l256 1462h135zM606 -440h-88l119 123l6 34h-84l29 162h172l-35 -196z" />
    <glyph glyph-name="uni013C" unicode="&#x13c;" horiz-adv-x="477" 
d="M565 1489l-262 -1489h-129l262 1489h129zM152 -440h-89l119 123l6 34h-84l29 162h172l-35 -196z" />
    <glyph glyph-name="Lcaron" unicode="&#x13d;" horiz-adv-x="1236" 
d="M889 1274h-84l35 188h172l-41 -223l-113 -137h-88l113 137zM348 127h828l-21 -127h-962l256 1462h135z" />
    <glyph glyph-name="lcaron" unicode="&#x13e;" horiz-adv-x="634" 
d="M811 1300h-84l35 189h172l-41 -223l-113 -138h-88l113 138zM565 1489l-262 -1489h-129l262 1489h129z" />
    <glyph glyph-name="Lslash" unicode="&#x141;" horiz-adv-x="1267" 
d="M379 127h827l-20 -127h-963l109 625l-203 -115l25 133l202 115l123 704h135l-110 -620l383 215l-23 -133l-383 -215z" />
    <glyph glyph-name="lslash" unicode="&#x142;" horiz-adv-x="653" 
d="M657 1489l-108 -617l217 125l-23 -133l-219 -123l-129 -741h-129l115 659l-227 -129l24 134l228 129l122 696h129z" />
    <glyph glyph-name="Nacute" unicode="&#x143;" horiz-adv-x="1533" 
d="M1460 1462h135l-256 -1462h-239l-500 1319h-41l-231 -1319h-135l256 1462h239l502 -1319h39zM1341 1835l-260 -264h-123l216 264h167z" />
    <glyph glyph-name="nacute" unicode="&#x144;" 
d="M1042 0h-129l107 604q12 70 12 115q0 108 -57.5 162.5t-179.5 54.5q-151 0 -257.5 -108.5t-136.5 -274.5l-98 -553h-129l182 1024h125l-20 -113h37q125 140 327 140q160 0 248 -85.5t88 -234.5q0 -43 -12 -125zM1141 1489l-269 -297h-122l223 297h168z" />
    <glyph glyph-name="uni0145" unicode="&#x145;" horiz-adv-x="1533" 
d="M1460 1462h135l-256 -1462h-239l-500 1319h-41l-231 -1319h-135l256 1462h239l502 -1319h39zM666 -440h-88l118 123l6 34h-84l29 162h172l-35 -196z" />
    <glyph glyph-name="uni0146" unicode="&#x146;" 
d="M1042 0h-129l107 604q12 70 12 115q0 108 -57.5 162.5t-179.5 54.5q-151 0 -257.5 -108.5t-136.5 -274.5l-98 -553h-129l182 1024h125l-20 -113h37q125 140 327 140q160 0 248 -85.5t88 -234.5q0 -43 -12 -125zM563 -440h-88l119 123l6 34h-84l29 162h172l-35 -196z" />
    <glyph glyph-name="Ncaron" unicode="&#x147;" horiz-adv-x="1533" 
d="M1460 1462h135l-256 -1462h-239l-500 1319h-41l-231 -1319h-135l256 1462h239l502 -1319h39zM979 1571l-170 264h129l106 -162h41l160 162h137l-260 -264h-143z" />
    <glyph glyph-name="ncaron" unicode="&#x148;" 
d="M1042 0h-129l107 604q12 70 12 115q0 108 -57.5 162.5t-179.5 54.5q-151 0 -257.5 -108.5t-136.5 -274.5l-98 -553h-129l182 1024h125l-20 -113h37q125 140 327 140q160 0 248 -85.5t88 -234.5q0 -43 -12 -125zM750 1192l-162 297h123l104 -195h41l174 195h131l-268 -297
h-143z" />
    <glyph glyph-name="Eng" unicode="&#x14a;" horiz-adv-x="1533" 
d="M1100 0l-500 1319h-41l-231 -1319h-135l256 1462h239l502 -1319h39l231 1319h135l-245 -1405q-38 -220 -163 -343.5t-329 -123.5h-135l22 123h113q256 0 342 287h-100z" />
    <glyph glyph-name="eng" unicode="&#x14b;" 
d="M672 -410h-127l20 115h94q108 0 164.5 52.5t77.5 164.5l119 682q12 70 12 115q0 108 -57.5 162.5t-179.5 54.5q-151 0 -257.5 -108.5t-136.5 -274.5l-98 -553h-129l182 1024h125l-20 -113h37q125 140 327 140q160 0 248 -85.5t88 -234.5q0 -43 -12 -125l-123 -700
q-60 -316 -354 -316z" />
    <glyph glyph-name="Omacron" unicode="&#x14c;" horiz-adv-x="1552" 
d="M979 1489q261 0 425.5 -168t164.5 -442q0 -139 -30.5 -270.5t-92.5 -247t-149.5 -202t-208.5 -136.5t-261 -50q-261 0 -425 168.5t-164 442.5q0 139 30.5 270.5t92.5 246.5t149 201.5t208 136.5t261 50zM834 96q89 0 167.5 25.5t138 69.5t109 104.5t83.5 130t57.5 146
t34 151.5t10.5 149q0 139 -50.5 249t-156.5 177.5t-254 67.5q-103 0 -191.5 -34t-153 -93t-114.5 -135t-80 -163.5t-45.5 -176t-15.5 -174.5q0 -139 50.5 -249t156.5 -177.5t254 -67.5zM1362 1673h-561l18 111h561z" />
    <glyph glyph-name="omacron" unicode="&#x14d;" horiz-adv-x="1216" 
d="M745 1051q196 0 325.5 -120t129.5 -327q0 -178 -63.5 -319.5t-190 -226.5t-295.5 -85q-196 0 -325 120t-129 327q0 177 63 318.5t189 227t296 85.5zM659 88q129 0 224.5 74t141.5 188.5t46 249.5q0 153 -92.5 244.5t-241.5 91.5q-98 0 -177.5 -43t-129.5 -115t-77 -163
t-27 -191q0 -155 90 -245.5t243 -90.5zM1087 1327h-561l19 111h561z" />
    <glyph glyph-name="Ohungarumlaut" unicode="&#x150;" horiz-adv-x="1552" 
d="M979 1489q261 0 425.5 -168t164.5 -442q0 -139 -30.5 -270.5t-92.5 -247t-149.5 -202t-208.5 -136.5t-261 -50q-261 0 -425 168.5t-164 442.5q0 139 30.5 270.5t92.5 246.5t149 201.5t208 136.5t261 50zM834 96q89 0 167.5 25.5t138 69.5t109 104.5t83.5 130t57.5 146
t34 151.5t10.5 149q0 139 -50.5 249t-156.5 177.5t-254 67.5q-103 0 -191.5 -34t-153 -93t-114.5 -135t-80 -163.5t-45.5 -176t-15.5 -174.5q0 -139 50.5 -249t156.5 -177.5t254 -67.5zM1182 1835l-240 -264h-115l195 264h160zM1477 1835l-240 -264h-115l195 264h160z" />
    <glyph glyph-name="ohungarumlaut" unicode="&#x151;" horiz-adv-x="1216" 
d="M745 1051q196 0 325.5 -120t129.5 -327q0 -178 -63.5 -319.5t-190 -226.5t-295.5 -85q-196 0 -325 120t-129 327q0 177 63 318.5t189 227t296 85.5zM659 88q129 0 224.5 74t141.5 188.5t46 249.5q0 153 -92.5 244.5t-241.5 91.5q-98 0 -177.5 -43t-129.5 -115t-77 -163
t-27 -191q0 -155 90 -245.5t243 -90.5zM928 1489l-248 -297h-115l203 297h160zM1223 1489l-248 -297h-115l203 297h160z" />
    <glyph glyph-name="OE" unicode="&#x152;" horiz-adv-x="2199" 
d="M1339 123h777l-21 -123h-911l18 106h-41q-144 -133 -350 -133q-262 0 -417.5 164.5t-155.5 454.5q0 116 21 226t61.5 210.5t104.5 184.5t145 145.5t187 96t228 34.5q241 0 391 -150h41l23 123h878l-20 -123h-744l-92 -516h586l-20 -123h-586zM834 96q144 0 246 68.5
t163 175.5l137 782q-48 111 -156 177.5t-253 66.5q-121 0 -222 -46t-169.5 -122.5t-116 -177.5t-69 -208.5t-21.5 -217.5q0 -238 121.5 -368t339.5 -130z" />
    <glyph glyph-name="oe" unicode="&#x153;" horiz-adv-x="1949" 
d="M1751 270h133q-44 -136 -155 -216.5t-267 -80.5q-117 0 -211.5 55t-148.5 154h-43q-147 -209 -416 -209q-193 0 -319.5 118.5t-126.5 328.5q0 177 61.5 318.5t185.5 227t291 85.5q125 0 225.5 -52t159.5 -151h41q143 203 398 203q126 0 217 -63.5t133.5 -163.5t42.5 -222
q0 -42 -2 -67h-770q-6 -55 -6 -111q0 -153 82 -244.5t223 -91.5q104 0 168 47t104 135zM651 88q126 0 219.5 74t138 188.5t44.5 249.5q0 153 -89.5 244.5t-236.5 91.5q-127 0 -220 -74.5t-137 -188.5t-44 -249q0 -158 88 -247t237 -89zM1550 936q-136 0 -222.5 -77
t-125.5 -210h617q-8 130 -73.5 208.5t-195.5 78.5z" />
    <glyph glyph-name="Racute" unicode="&#x154;" horiz-adv-x="1406" 
d="M438 637l-110 -637h-135l256 1462h622q173 0 287.5 -97.5t114.5 -268.5q0 -160 -77 -265.5t-212 -154.5l121 -676h-136l-116 645q-52 -8 -115 -8h-500zM1051 1339h-488l-102 -579h502q170 0 273 84t103 250q0 121 -80.5 183t-207.5 62zM1227 1835l-260 -264h-123l215 264
h168z" />
    <glyph glyph-name="racute" unicode="&#x155;" horiz-adv-x="761" 
d="M887 1024l-23 -119h-76q-148 0 -253 -93t-134 -257l-98 -555h-129l182 1024h125l-22 -125h39q125 125 321 125h68zM918 1489l-269 -297h-123l224 297h168z" />
    <glyph glyph-name="uni0156" unicode="&#x156;" horiz-adv-x="1406" 
d="M438 637l-110 -637h-135l256 1462h622q173 0 287.5 -97.5t114.5 -268.5q0 -160 -77 -265.5t-212 -154.5l121 -676h-136l-116 645q-52 -8 -115 -8h-500zM1051 1339h-488l-102 -579h502q170 0 273 84t103 250q0 121 -80.5 183t-207.5 62zM623 -440h-88l118 123l6 34h-84
l29 162h172l-35 -196z" />
    <glyph glyph-name="uni0157" unicode="&#x157;" horiz-adv-x="761" 
d="M887 1024l-23 -119h-76q-148 0 -253 -93t-134 -257l-98 -555h-129l182 1024h125l-22 -125h39q125 125 321 125h68zM162 -440h-88l119 123l6 34h-84l28 162h172l-34 -196z" />
    <glyph glyph-name="Rcaron" unicode="&#x158;" horiz-adv-x="1406" 
d="M438 637l-110 -637h-135l256 1462h622q173 0 287.5 -97.5t114.5 -268.5q0 -160 -77 -265.5t-212 -154.5l121 -676h-136l-116 645q-52 -8 -115 -8h-500zM1051 1339h-488l-102 -579h502q170 0 273 84t103 250q0 121 -80.5 183t-207.5 62zM866 1571l-170 264h129l107 -162
h41l160 162h137l-260 -264h-144z" />
    <glyph glyph-name="rcaron" unicode="&#x159;" horiz-adv-x="761" 
d="M887 1024l-23 -119h-76q-148 0 -253 -93t-134 -257l-98 -555h-129l182 1024h125l-22 -125h39q125 125 321 125h68zM569 1192l-161 297h122l105 -195h41l174 195h131l-268 -297h-144z" />
    <glyph glyph-name="Sacute" unicode="&#x15a;" horiz-adv-x="1323" 
d="M700 850l265 -66q331 -85 331 -378q0 -135 -77.5 -235t-201.5 -149t-274 -49q-112 0 -208.5 24t-175 73t-129 131t-62.5 190h141q12 -80 51 -138t99 -92t132 -49.5t159 -15.5q76 0 146 17t131 51t97.5 94t36.5 139q0 206 -239 267l-277 69q-323 82 -323 342
q0 197 141 305.5t368 108.5q133 0 243.5 -44.5t183 -132t85.5 -204.5h-137q-28 130 -129 194t-254 64q-53 0 -103 -8.5t-98.5 -29t-84.5 -51.5t-58 -80t-22 -110q0 -98 62.5 -153.5t180.5 -83.5zM1180 1835l-260 -264h-123l215 264h168z" />
    <glyph glyph-name="sacute" unicode="&#x15b;" horiz-adv-x="1028" 
d="M623 936q-107 0 -180.5 -45t-73.5 -135q0 -26 8.5 -46t20.5 -33t37.5 -25.5t45 -19t56.5 -18.5l192 -53q256 -71 256 -268q0 -140 -116 -230t-300 -90q-83 0 -156 17t-135 52.5t-100.5 97.5t-44.5 145h127q6 -88 92.5 -142.5t225.5 -54.5q116 0 197 52t81 147
q0 110 -172 159l-190 54q-125 34 -189.5 93.5t-64.5 160.5q0 97 54 165.5t140.5 100t196.5 31.5q159 0 270 -75.5t123 -209.5h-127q-11 77 -82.5 123.5t-191.5 46.5zM932 1489l-268 -297h-123l223 297h168z" />
    <glyph glyph-name="Scedilla" unicode="&#x15e;" horiz-adv-x="1323" 
d="M700 850l265 -66q331 -85 331 -378q0 -135 -77.5 -235t-201.5 -149t-274 -49q-31 0 -45 2l-53 -94h27q30 17 57 17q48 0 79.5 -37.5t31.5 -98.5q0 -80 -54 -131t-141 -51q-71 0 -115.5 37.5t-46.5 93.5h97q13 -47 71 -47q39 0 63.5 25.5t24.5 66.5q0 29 -19 47.5
t-50 18.5q-39 0 -62 -23h-96l104 183q-187 27 -308 127.5t-140 281.5h141q12 -80 51 -138t99 -92t132 -49.5t159 -15.5q76 0 146 17t131 51t97.5 94t36.5 139q0 206 -239 267l-277 69q-323 82 -323 342q0 197 141 305.5t368 108.5q133 0 243.5 -44.5t183 -132t85.5 -204.5
h-137q-28 130 -129 194t-254 64q-53 0 -103 -8.5t-98.5 -29t-84.5 -51.5t-58 -80t-22 -110q0 -98 62.5 -153.5t180.5 -83.5z" />
    <glyph glyph-name="scedilla" unicode="&#x15f;" horiz-adv-x="1028" 
d="M623 936q-107 0 -180.5 -45t-73.5 -135q0 -26 8.5 -46t20.5 -33t37.5 -25.5t45 -19t56.5 -18.5l192 -53q256 -71 256 -268q0 -140 -116 -230t-300 -90h-20l-51 -92h26q30 17 58 17q48 0 79 -37.5t31 -98.5q0 -80 -53.5 -131t-140.5 -51q-71 0 -115.5 37.5t-46.5 93.5h96
q13 -47 72 -47q39 0 63.5 25.5t24.5 66.5q0 29 -19.5 47.5t-50.5 18.5q-38 0 -61 -23h-96l104 183q-67 9 -124 31t-104 57.5t-75.5 90.5t-32.5 124h127q6 -88 92.5 -142.5t225.5 -54.5q116 0 197 52t81 147q0 110 -172 159l-190 54q-125 34 -189.5 93.5t-64.5 160.5
q0 97 54 165.5t140.5 100t196.5 31.5q159 0 270 -75.5t123 -209.5h-127q-11 77 -82.5 123.5t-191.5 46.5z" />
    <glyph glyph-name="Scaron" unicode="&#x160;" horiz-adv-x="1323" 
d="M700 850l265 -66q331 -85 331 -378q0 -135 -77.5 -235t-201.5 -149t-274 -49q-112 0 -208.5 24t-175 73t-129 131t-62.5 190h141q12 -80 51 -138t99 -92t132 -49.5t159 -15.5q76 0 146 17t131 51t97.5 94t36.5 139q0 206 -239 267l-277 69q-323 82 -323 342
q0 197 141 305.5t368 108.5q133 0 243.5 -44.5t183 -132t85.5 -204.5h-137q-28 130 -129 194t-254 64q-53 0 -103 -8.5t-98.5 -29t-84.5 -51.5t-58 -80t-22 -110q0 -98 62.5 -153.5t180.5 -83.5zM805 1571l-170 264h129l106 -162h41l160 162h137l-260 -264h-143z" />
    <glyph glyph-name="scaron" unicode="&#x161;" horiz-adv-x="1028" 
d="M623 936q-107 0 -180.5 -45t-73.5 -135q0 -26 8.5 -46t20.5 -33t37.5 -25.5t45 -19t56.5 -18.5l192 -53q256 -71 256 -268q0 -140 -116 -230t-300 -90q-83 0 -156 17t-135 52.5t-100.5 97.5t-44.5 145h127q6 -88 92.5 -142.5t225.5 -54.5q116 0 197 52t81 147
q0 110 -172 159l-190 54q-125 34 -189.5 93.5t-64.5 160.5q0 97 54 165.5t140.5 100t196.5 31.5q159 0 270 -75.5t123 -209.5h-127q-11 77 -82.5 123.5t-191.5 46.5zM592 1192l-162 297h123l104 -195h41l174 195h132l-269 -297h-143z" />
    <glyph glyph-name="uni0162" unicode="&#x162;" horiz-adv-x="1183" 
d="M1401 1462l-21 -123h-485l-236 -1339h-135l236 1339h-486l21 123h1106zM502 -440h-88l118 123l7 34h-84l28 162h172l-34 -196z" />
    <glyph glyph-name="uni0163" unicode="&#x163;" horiz-adv-x="757" 
d="M553 1024h266l-20 -115h-267l-110 -622q-8 -31 -8 -78q0 -94 143 -94h100l-18 -115h-72q-143 0 -212.5 46.5t-69.5 150.5q0 44 12 106l106 606h-186l21 115h186l55 317h129zM346 -440h-88l119 123l6 34h-84l29 162h172l-35 -196z" />
    <glyph glyph-name="Tcaron" unicode="&#x164;" horiz-adv-x="1183" 
d="M1401 1462l-21 -123h-485l-236 -1339h-135l236 1339h-486l21 123h1106zM791 1571l-170 264h129l106 -162h41l160 162h137l-260 -264h-143z" />
    <glyph glyph-name="tcaron" unicode="&#x165;" horiz-adv-x="735" 
d="M911 1300h-84l35 189h172l-41 -223l-112 -138h-88l112 138zM553 1024h266l-20 -115h-267l-110 -622q-8 -31 -8 -78q0 -94 143 -94h100l-18 -115h-72q-143 0 -212.5 46.5t-69.5 150.5q0 44 12 106l106 606h-186l21 115h186l55 317h129z" />
    <glyph glyph-name="Tbar" unicode="&#x166;" horiz-adv-x="1183" 
d="M1401 1462l-21 -123h-485l-92 -520h342l-21 -114h-342l-123 -705h-135l123 705h-344l21 114h344l92 520h-486l21 123h1106z" />
    <glyph glyph-name="tbar" unicode="&#x167;" horiz-adv-x="757" 
d="M553 1024h266l-20 -115h-267l-47 -264h265l-21 -115h-264l-43 -243q-8 -31 -8 -78q0 -94 143 -94h100l-18 -115h-72q-143 0 -212.5 46.5t-69.5 150.5q0 44 12 106l39 227h-184l20 115h184l47 264h-186l21 115h186l55 317h129z" />
    <glyph glyph-name="Utilde" unicode="&#x168;" horiz-adv-x="1486" 
d="M1419 1462h135l-168 -952q-45 -258 -199.5 -397.5t-414.5 -139.5q-226 0 -365 119t-139 309q0 47 15 144l161 917h136l-162 -919q-15 -97 -15 -135q0 -147 98 -229.5t277 -82.5q211 0 326 114t153 335zM1298 1835h99q-24 -138 -79.5 -201t-143.5 -63q-37 0 -72 17t-61 41
t-49.5 48t-48.5 41t-48 17q-85 0 -113 -164h-98q24 138 79.5 201t143.5 63q37 0 72 -17t61 -41t49.5 -48t48.5 -41t48 -17q85 0 112 164z" />
    <glyph glyph-name="utilde" unicode="&#x169;" 
d="M340 1024h129l-107 -604q-12 -70 -12 -115q0 -217 238 -217q150 0 256.5 108.5t136.5 274.5l98 553h129l-182 -1024h-125l21 113h-37q-125 -140 -328 -140q-160 0 -248 85.5t-88 234.5q0 43 12 125zM1081 1470h99q-24 -138 -80 -201t-144 -63q-37 0 -72 17t-61 41
t-49.5 48t-48 41t-47.5 17q-85 0 -113 -164h-98q24 138 79.5 201t143.5 63q37 0 72 -17t61 -41t49.5 -47.5t48.5 -40.5t48 -17q85 0 112 163z" />
    <glyph glyph-name="Umacron" unicode="&#x16a;" horiz-adv-x="1486" 
d="M1419 1462h135l-168 -952q-45 -258 -199.5 -397.5t-414.5 -139.5q-226 0 -365 119t-139 309q0 47 15 144l161 917h136l-162 -919q-15 -97 -15 -135q0 -147 98 -229.5t277 -82.5q211 0 326 114t153 335zM1305 1673h-562l19 111h561z" />
    <glyph glyph-name="umacron" unicode="&#x16b;" 
d="M1092 1327h-562l19 111h561zM340 1024h129l-107 -604q-12 -70 -12 -115q0 -217 238 -217q150 0 256.5 108.5t136.5 274.5l98 553h129l-182 -1024h-125l21 113h-37q-125 -140 -328 -140q-160 0 -248 85.5t-88 234.5q0 43 12 125z" />
    <glyph glyph-name="Uring" unicode="&#x16e;" horiz-adv-x="1486" 
d="M1419 1462h135l-168 -952q-45 -258 -199.5 -397.5t-414.5 -139.5q-226 0 -365 119t-139 309q0 47 15 144l161 917h136l-162 -919q-15 -97 -15 -135q0 -147 98 -229.5t277 -82.5q211 0 326 114t153 335zM1020 1978q89 0 152 -63t63 -152t-63 -153t-152 -64t-153 64
t-64 153t64 152t153 63zM1020 1640q54 0 88.5 34.5t34.5 88.5t-34.5 88.5t-88.5 34.5t-88.5 -34.5t-34.5 -88.5t34.5 -88.5t88.5 -34.5z" />
    <glyph glyph-name="uring" unicode="&#x16f;" 
d="M805 1624q89 0 152 -63t63 -152t-63 -153t-152 -64t-153 64t-64 153t64 152t153 63zM805 1286q54 0 88.5 34.5t34.5 88.5t-34.5 88.5t-88.5 34.5t-88.5 -34.5t-34.5 -88.5t34.5 -88.5t88.5 -34.5zM340 1024h129l-107 -604q-12 -70 -12 -115q0 -217 238 -217
q150 0 256.5 108.5t136.5 274.5l98 553h129l-182 -1024h-125l21 113h-37q-125 -140 -328 -140q-160 0 -248 85.5t-88 234.5q0 43 12 125z" />
    <glyph glyph-name="Uhungarumlaut" unicode="&#x170;" horiz-adv-x="1486" 
d="M1419 1462h135l-168 -952q-45 -258 -199.5 -397.5t-414.5 -139.5q-226 0 -365 119t-139 309q0 47 15 144l161 917h136l-162 -919q-15 -97 -15 -135q0 -147 98 -229.5t277 -82.5q211 0 326 114t153 335zM1130 1835l-239 -264h-115l195 264h159zM1425 1835l-239 -264h-115
l195 264h159z" />
    <glyph glyph-name="uhungarumlaut" unicode="&#x171;" 
d="M915 1489l-247 -297h-115l203 297h159zM1210 1489l-247 -297h-115l203 297h159zM340 1024h129l-107 -604q-12 -70 -12 -115q0 -217 238 -217q150 0 256.5 108.5t136.5 274.5l98 553h129l-182 -1024h-125l21 113h-37q-125 -140 -328 -140q-160 0 -248 85.5t-88 234.5
q0 43 12 125z" />
    <glyph glyph-name="Uogonek" unicode="&#x172;" horiz-adv-x="1486" 
d="M1419 1462h135l-168 -952q-64 -361 -335 -483q-138 -62 -200.5 -115.5t-62.5 -132.5q0 -92 144 -92l-19 -95q-18 -2 -47 -2q-97 0 -148.5 42.5t-51.5 117.5q0 66 36.5 124.5t96.5 98.5h-27q-226 0 -365 119t-139 309q0 47 15 144l161 917h136l-162 -919q-15 -97 -15 -135
q0 -147 98 -229.5t277 -82.5q211 0 326 114t153 335z" />
    <glyph glyph-name="uogonek" unicode="&#x173;" 
d="M340 1024h129l-107 -604q-12 -70 -12 -115q0 -217 238 -217q150 0 256.5 108.5t136.5 274.5l98 553h129l-182 -1024q-190 -95 -190 -221q0 -92 143 -92l-18 -95q-18 -2 -48 -2q-97 0 -148.5 42.5t-51.5 117.5q0 83 52.5 150t135.5 104l21 109h-37q-125 -140 -328 -140
q-160 0 -248 85.5t-88 234.5q0 43 12 125z" />
    <glyph glyph-name="Ydieresis" unicode="&#x178;" horiz-adv-x="1269" 
d="M731 764h57l539 698h152l-678 -889l-101 -573h-135l101 573l-369 889h141zM778 1673h-141l27 162h141zM1139 1673h-142l27 162h141z" />
    <glyph glyph-name="Zacute" unicode="&#x179;" horiz-adv-x="1288" 
d="M1411 1462l-29 -164l-1079 -1134l-8 -41h909l-20 -123h-1082l29 166l1081 1132l9 41h-830l21 123h999zM1221 1835l-260 -264h-123l215 264h168z" />
    <glyph glyph-name="zacute" unicode="&#x17a;" horiz-adv-x="1038" 
d="M918 0h-816l27 156l768 714l8 39h-608l20 115h781l-29 -154l-768 -714l-8 -41h643zM1016 1489l-268 -297h-123l223 297h168z" />
    <glyph glyph-name="Zdotaccent" unicode="&#x17b;" horiz-adv-x="1288" 
d="M1411 1462l-29 -164l-1079 -1134l-8 -41h909l-20 -123h-1082l29 166l1081 1132l9 41h-830l21 123h999zM997 1673h-141l27 162h141z" />
    <glyph glyph-name="zdotaccent" unicode="&#x17c;" horiz-adv-x="1038" 
d="M918 0h-816l27 156l768 714l8 39h-608l20 115h781l-29 -154l-768 -714l-8 -41h643zM811 1327h-141l28 162h142z" />
    <glyph glyph-name="Zcaron" unicode="&#x17d;" horiz-adv-x="1288" 
d="M1411 1462l-29 -164l-1079 -1134l-8 -41h909l-20 -123h-1082l29 166l1081 1132l9 41h-830l21 123h999zM850 1571l-170 264h129l106 -162h41l160 162h137l-260 -264h-143z" />
    <glyph glyph-name="zcaron" unicode="&#x17e;" horiz-adv-x="1038" 
d="M918 0h-816l27 156l768 714l8 39h-608l20 115h781l-29 -154l-768 -714l-8 -41h643zM653 1192l-161 297h122l105 -195h41l174 195h131l-268 -297h-144z" />
    <glyph glyph-name="florin" unicode="&#x192;" horiz-adv-x="845" 
d="M358 -410h-129l203 1151h-194v115h215l53 303q30 172 123.5 251t259.5 79h72v-115h-84q-109 0 -166.5 -61.5t-77.5 -173.5l-51 -283h260v-115h-281z" />
    <glyph glyph-name="circumflex" unicode="&#x2c6;" horiz-adv-x="722" 
d="M702 1489l162 -297h-123l-104 194h-41l-174 -194h-131l268 297h143z" />
    <glyph glyph-name="caron" unicode="&#x2c7;" horiz-adv-x="722" 
d="M506 1192l-162 297h123l104 -195h41l174 195h132l-269 -297h-143z" />
    <glyph glyph-name="breve" unicode="&#x2d8;" horiz-adv-x="706" 
d="M795 1489h106q-24 -147 -111.5 -222t-209.5 -75q-106 0 -175 59t-69 160q0 47 8 78h105q-7 -40 -7 -59q0 -67 40 -103.5t108 -36.5q162 0 205 199z" />
    <glyph glyph-name="dotaccent" unicode="&#x2d9;" horiz-adv-x="290" 
d="M457 1327h-142l29 162h141z" />
    <glyph glyph-name="ring" unicode="&#x2da;" horiz-adv-x="581" 
d="M504 1624q89 0 152 -63t63 -152t-63 -153t-152 -64t-153 64t-64 153t64 152t153 63zM504 1286q54 0 88.5 34.5t34.5 88.5t-34.5 88.5t-88.5 34.5t-88.5 -34.5t-34.5 -88.5t34.5 -88.5t88.5 -34.5z" />
    <glyph glyph-name="ogonek" unicode="&#x2db;" horiz-adv-x="428" 
d="M215 12l104 -12q-190 -95 -190 -221q0 -92 143 -92l-18 -95q-18 -2 -47 -2q-97 0 -149 42.5t-52 117.5q0 85 61 156.5t148 105.5z" />
    <glyph glyph-name="tilde" unicode="&#x2dc;" horiz-adv-x="815" 
d="M907 1470h99q-24 -138 -80 -201t-144 -63q-37 0 -72 17t-61 41t-49.5 48t-48 41t-47.5 17q-85 0 -113 -164h-98q24 138 79.5 201t143.5 63q37 0 72 -17t61 -41t49.5 -47.5t48.5 -40.5t48 -17q85 0 112 163z" />
    <glyph glyph-name="hungarumlaut" unicode="&#x2dd;" horiz-adv-x="761" 
d="M653 1489l-247 -297h-115l203 297h159zM948 1489l-248 -297h-114l202 297h160z" />
    <glyph glyph-name="uni03A9" unicode="&#x3a9;" horiz-adv-x="1540" 
d="M1255 164v-41h285v-123h-547v121q58 33 109 71t110 98t100.5 127.5t69 160.5t27.5 196q0 268 -142 430t-376 162t-376 -162t-142 -430q0 -103 27.5 -196t69 -160.5t100 -127.5t109.5 -98t109 -71v-121h-546v123h284v41q-288 247 -288 610q0 208 79.5 370t228.5 253.5
t345 91.5t345 -91.5t228.5 -253.5t79.5 -370q0 -362 -289 -610z" />
    <glyph glyph-name="pi" unicode="&#x3c0;" horiz-adv-x="1331" 
d="M1288 0h-71q-132 0 -190 66t-58 200v643h-457v-909h-129v909h-166v115h1071v-115h-190v-643q0 -79 33.5 -115t111.5 -36h45v-115z" />
    <glyph glyph-name="uni0401" unicode="&#x401;" horiz-adv-x="1308" 
d="M348 123h877l-21 -123h-1011l256 1462h978l-20 -123h-844l-92 -516h686l-20 -123h-686zM848 1673h-141l26 162h141zM1208 1673h-141l27 162h141z" />
    <glyph glyph-name="uni0402" unicode="&#x402;" horiz-adv-x="1597" 
d="M907 -16l23 122q30 -10 129 -10q158 0 263 94.5t105 247.5q0 135 -95.5 215t-299.5 80q-172 0 -336 -45l-121 -688h-135l236 1339h-402l21 123h1063l-21 -123h-526l-92 -524q166 41 336 41q126 0 225.5 -34t160 -92.5t91.5 -132.5t31 -159q0 -213 -142.5 -339
t-382.5 -126q-89 0 -131 11z" />
    <glyph glyph-name="uni0403" unicode="&#x403;" horiz-adv-x="1249" 
d="M1391 1339h-826l-235 -1339h-135l256 1462h960zM1210 1847l-268 -297h-123l223 297h168z" />
    <glyph glyph-name="uni0404" unicode="&#x404;" horiz-adv-x="1419" 
d="M831 96q159 0 270.5 78t168.5 209h145q-72 -187 -223.5 -298.5t-366.5 -111.5q-170 0 -303 74.5t-208.5 214.5t-75.5 322q0 141 30.5 273.5t93 247t149.5 200.5t206.5 135t257.5 49q202 0 340 -101.5t176 -279.5h-141q-32 122 -128 190t-251 68q-119 0 -218.5 -45.5
t-168.5 -124.5t-115 -173.5t-72 -205.5h721l-22 -123h-719q-4 -26 -4 -104q0 -218 120 -356t338 -138z" />
    <glyph glyph-name="uni0405" unicode="&#x405;" horiz-adv-x="1323" 
d="M700 850l265 -66q331 -85 331 -378q0 -135 -77.5 -235t-201.5 -149t-274 -49q-112 0 -208.5 24t-175 73t-129 131t-62.5 190h141q12 -80 51 -138t99 -92t132 -49.5t159 -15.5q76 0 146 17t131 51t97.5 94t36.5 139q0 206 -239 267l-277 69q-323 82 -323 342
q0 197 141 305.5t368 108.5q133 0 243.5 -44.5t183 -132t85.5 -204.5h-137q-28 130 -129 194t-254 64q-53 0 -103 -8.5t-98.5 -29t-84.5 -51.5t-58 -80t-22 -110q0 -98 62.5 -153.5t180.5 -83.5z" />
    <glyph glyph-name="uni0406" unicode="&#x406;" horiz-adv-x="550" 
d="M463 1462h135l-256 -1462h-135z" />
    <glyph glyph-name="uni0407" unicode="&#x407;" horiz-adv-x="550" 
d="M463 1462h135l-256 -1462h-135zM457 1673h-142l27 162h141zM817 1673h-141l26 162h142z" />
    <glyph glyph-name="uni0408" unicode="&#x408;" horiz-adv-x="1167" 
d="M563 -27q-178 0 -293.5 100t-115.5 279q0 24 4 78h135q-4 -50 -4 -57q0 -135 72 -206t202 -71q295 0 363 377l174 989h135l-180 -1022q-38 -220 -163 -343.5t-329 -123.5z" />
    <glyph glyph-name="uni0409" unicode="&#x409;" horiz-adv-x="2228" 
d="M1358 879h407q184 0 306 -103t122 -284q0 -100 -29.5 -182t-81.5 -139t-124 -96t-156.5 -57t-179.5 -18h-553l236 1339h-596l-76 -426q-47 -271 -101 -448.5t-125.5 -280t-154 -143.5t-197.5 -41h-35l23 135h35q62 0 108 18.5t91 68t82 136.5t73 224t70 331l96 549h862z
M1745 756h-410l-110 -633h424q118 0 208 37t145.5 121t55.5 208q0 129 -88.5 198t-224.5 69z" />
    <glyph glyph-name="uni040A" unicode="&#x40a;" horiz-adv-x="2336" 
d="M1460 846h430q177 0 294.5 -99.5t117.5 -273.5q0 -120 -43 -212.5t-119.5 -148.5t-174.5 -84t-214 -28h-573l127 719h-850l-127 -719h-135l256 1462h135l-107 -616h850l107 616h135zM1872 719h-434l-105 -596h449q172 0 278.5 87t106.5 259q0 122 -83.5 186t-211.5 64z
" />
    <glyph glyph-name="uni040B" unicode="&#x40b;" horiz-adv-x="1603" 
d="M1481 0h-135l75 428q13 54 13 117q0 33 -8.5 59t-32 51t-61 41.5t-100 26.5t-145.5 10q-205 0 -391 -43l-121 -690h-135l236 1339h-402l21 123h1063l-21 -123h-526l-92 -524q198 41 381 41q110 0 193 -15.5t135 -42t84 -65.5t44.5 -81.5t12.5 -94.5q0 -37 -15 -135z" />
    <glyph glyph-name="uni040C" unicode="&#x40c;" horiz-adv-x="1366" 
d="M193 0l256 1462h135l-113 -645h469l412 645h145l-446 -710l209 -752h-144l-192 694h-475l-121 -694h-135zM1188 1817l-268 -297h-123l223 297h168z" />
    <glyph glyph-name="uni040E" unicode="&#x40e;" horiz-adv-x="1263" 
d="M518 0h-147l286 442l-358 1020h143l289 -815h57l533 815h152zM1143 1851h121q-29 -151 -134.5 -235t-252.5 -84q-131 0 -218.5 67t-87.5 187q0 25 7 65h116q-4 -28 -4 -41q0 -77 53 -122.5t140 -45.5q100 0 171.5 56t88.5 153z" />
    <glyph glyph-name="uni040F" unicode="&#x40f;" horiz-adv-x="1505" 
d="M618 -358l62 358h-487l256 1462h135l-236 -1339h848l236 1339h135l-256 -1462h-496l-61 -358h-136z" />
    <glyph glyph-name="uni0410" unicode="&#x410;" horiz-adv-x="1363" 
d="M1057 1462l262 -1462h-141l-82 473h-660l-246 -473h-147l766 1462h248zM874 1319l-374 -723h575l-123 723h-78z" />
    <glyph glyph-name="uni0411" unicode="&#x411;" horiz-adv-x="1376" 
d="M905 729h-448l-107 -606h463q177 0 285 87.5t108 262.5q0 125 -85 190.5t-216 65.5zM193 0l256 1462h960l-20 -123h-826l-86 -487h451q115 0 207.5 -43t149 -130t56.5 -204q0 -120 -43.5 -213t-120 -149t-175 -84.5t-214.5 -28.5h-595z" />
    <glyph glyph-name="uni0412" unicode="&#x412;" horiz-adv-x="1404" 
d="M1200 778l-8 -43q75 -44 119.5 -119t44.5 -165q0 -111 -43 -198.5t-116.5 -142t-168 -82.5t-201.5 -28h-634l256 1462h579q79 0 149.5 -22t125.5 -62.5t87.5 -105t32.5 -144.5q0 -119 -61 -213.5t-162 -136.5zM563 1339l-90 -512h453q78 0 141 15.5t114 48.5t79 90.5
t28 136.5q0 109 -80 165t-194 56h-451zM348 123h457q69 0 129 11.5t113.5 37t91.5 64t60 95t22 126.5q0 65 -27 114.5t-73 77.5t-101 42t-117 14h-452z" />
    <glyph glyph-name="uni0413" unicode="&#x413;" horiz-adv-x="1249" 
d="M1391 1339h-826l-235 -1339h-135l256 1462h960z" />
    <glyph glyph-name="uni0414" unicode="&#x414;" horiz-adv-x="1509" 
d="M1266 123h207l-84 -481h-136l64 358h-1149l-64 -358h-133l82 481h150q271 445 379 1044l51 295h868zM1130 123l216 1216h-598l-31 -172q-109 -605 -363 -1044h776z" />
    <glyph glyph-name="uni0415" unicode="&#x415;" horiz-adv-x="1308" 
d="M348 123h877l-21 -123h-1011l256 1462h978l-20 -123h-844l-92 -516h686l-20 -123h-686z" />
    <glyph glyph-name="uni0416" unicode="&#x416;" horiz-adv-x="2045" 
d="M1614 684h-410l-119 -684h-135l119 684h-397l-398 -684h-151l432 741l-158 721h142l143 -655h410l114 655h135l-114 -655h397l373 655h151l-411 -721l174 -741h-139z" />
    <glyph glyph-name="uni0417" unicode="&#x417;" horiz-adv-x="1316" 
d="M612 827h248q154 0 247 70.5t93 212.5q0 121 -89.5 188.5t-233.5 67.5q-310 0 -385 -258h-138q43 179 176 280t349 101q207 0 331.5 -105t124.5 -251q0 -128 -61.5 -216t-171.5 -124l-6 -37q184 -86 184 -281q0 -151 -78.5 -266.5t-211 -175.5t-296.5 -60
q-243 0 -378 109.5t-146 302.5h139q12 -144 113 -216.5t276 -72.5q87 0 165.5 22t142 65t101.5 113.5t38 160.5q0 111 -76 179.5t-240 68.5h-239z" />
    <glyph glyph-name="uni0418" unicode="&#x418;" horiz-adv-x="1533" 
d="M449 1462h135l-232 -1319h41l963 1319h239l-256 -1462h-135l232 1319h-41l-967 -1319h-235z" />
    <glyph glyph-name="uni0419" unicode="&#x419;" horiz-adv-x="1533" 
d="M449 1462h135l-232 -1319h41l963 1319h239l-256 -1462h-135l232 1319h-41l-967 -1319h-235zM1296 1851h121q-29 -151 -134.5 -235t-252.5 -84q-131 0 -218 67t-87 187q0 30 6 65h117q-4 -28 -4 -41q0 -77 52.5 -122.5t139.5 -45.5q100 0 171.5 56t88.5 153z" />
    <glyph glyph-name="uni041A" unicode="&#x41a;" horiz-adv-x="1366" 
d="M193 0l256 1462h135l-113 -645h469l412 645h145l-446 -710l209 -752h-144l-192 694h-475l-121 -694h-135z" />
    <glyph glyph-name="uni041B" unicode="&#x41b;" horiz-adv-x="1439" 
d="M43 135h35q62 0 108 18.5t91 68t82 136.5t73 224t70 331l96 549h903l-256 -1462h-135l236 1339h-637l-76 -426q-47 -271 -101 -448.5t-125.5 -280t-154 -143.5t-197.5 -41h-35z" />
    <glyph glyph-name="uni041C" unicode="&#x41c;" horiz-adv-x="1724" 
d="M193 0l256 1462h227l291 -725h39l536 725h244l-256 -1462h-135l231 1319h-41l-549 -735h-141l-295 735h-41l-231 -1319h-135z" />
    <glyph glyph-name="uni041D" unicode="&#x41d;" horiz-adv-x="1527" 
d="M1454 1462h135l-256 -1462h-135l121 692h-870l-121 -692h-135l256 1462h135l-113 -643h870z" />
    <glyph glyph-name="uni041E" unicode="&#x41e;" horiz-adv-x="1552" 
d="M979 1489q261 0 425.5 -168t164.5 -442q0 -139 -30.5 -270.5t-92.5 -247t-149.5 -202t-208.5 -136.5t-261 -50q-261 0 -425 168.5t-164 442.5q0 139 30.5 270.5t92.5 246.5t149 201.5t208 136.5t261 50zM834 96q89 0 167.5 25.5t138 69.5t109 104.5t83.5 130t57.5 146
t34 151.5t10.5 149q0 139 -50.5 249t-156.5 177.5t-254 67.5q-103 0 -191.5 -34t-153 -93t-114.5 -135t-80 -163.5t-45.5 -176t-15.5 -174.5q0 -139 50.5 -249t156.5 -177.5t254 -67.5z" />
    <glyph glyph-name="uni041F" unicode="&#x41f;" horiz-adv-x="1513" 
d="M449 1462h1126l-256 -1462h-135l235 1339h-858l-233 -1339h-135z" />
    <glyph glyph-name="uni0420" unicode="&#x420;" horiz-adv-x="1353" 
d="M449 1462h585q177 0 295.5 -101t118.5 -276q0 -120 -43.5 -213t-120 -149t-175 -84.5t-214.5 -28.5h-461l-106 -610h-135zM1012 1339h-449l-106 -606h463q177 0 285 87.5t108 262.5q0 125 -85 190.5t-216 65.5z" />
    <glyph glyph-name="uni0421" unicode="&#x421;" horiz-adv-x="1423" 
d="M1276 395h143q-67 -190 -222 -306t-372 -116q-170 0 -303 74.5t-208.5 214.5t-75.5 322q0 141 30.5 273.5t93 247t149.5 200.5t206.5 135t257.5 49q204 0 343.5 -105t176.5 -288h-141q-30 127 -127.5 198.5t-255.5 71.5q-121 0 -222.5 -48t-169.5 -126t-115.5 -180.5
t-69 -209t-21.5 -212.5q0 -218 120 -356t338 -138q165 0 278 81.5t167 217.5z" />
    <glyph glyph-name="uni0422" unicode="&#x422;" horiz-adv-x="1183" 
d="M1401 1462l-21 -123h-485l-236 -1339h-135l236 1339h-486l21 123h1106z" />
    <glyph glyph-name="uni0423" unicode="&#x423;" horiz-adv-x="1263" 
d="M518 0h-147l286 442l-358 1020h143l289 -815h57l533 815h152z" />
    <glyph glyph-name="uni0424" unicode="&#x424;" horiz-adv-x="1714" 
d="M784 -27l33 187q-274 17 -434 155t-160 363q0 317 202.5 491t551.5 174h49l29 166h135l-29 -166q273 -17 433.5 -156.5t160.5 -363.5q0 -317 -202.5 -490t-551.5 -173h-49l-32 -187h-136zM975 283h47q265 0 431.5 140.5t166.5 387.5q0 185 -124 292.5t-355 117.5z
M1006 1221h-48q-173 0 -307.5 -61t-212.5 -182t-78 -286q0 -185 124.5 -292t355.5 -117z" />
    <glyph glyph-name="uni0425" unicode="&#x425;" horiz-adv-x="1271" 
d="M1073 0l-266 690h-78l-518 -690h-164l582 774l-260 688h141l229 -602h78l443 602h159l-504 -680l306 -782h-148z" />
    <glyph glyph-name="uni0426" unicode="&#x426;" horiz-adv-x="1574" 
d="M1317 -358l63 358h-1187l256 1462h135l-236 -1339h848l236 1339h135l-236 -1339h205l-84 -481h-135z" />
    <glyph glyph-name="uni0427" unicode="&#x427;" horiz-adv-x="1357" 
d="M379 1462h135l-76 -428q-12 -50 -12 -116q0 -42 14.5 -73.5t51 -59t107 -42t173.5 -14.5q205 0 391 43l121 690h135l-256 -1462h-135l113 647q-198 -41 -381 -41q-110 0 -193 15.5t-135 42t-84 65.5t-44.5 81.5t-12.5 94.5q0 44 14 135z" />
    <glyph glyph-name="uni0428" unicode="&#x428;" horiz-adv-x="2004" 
d="M1810 0h-1617l256 1462h135l-236 -1339h606l236 1339h135l-235 -1339h606l235 1339h135z" />
    <glyph glyph-name="uni0429" unicode="&#x429;" horiz-adv-x="2074" 
d="M1819 -358l63 358h-1689l256 1462h135l-236 -1339h606l236 1339h135l-235 -1339h606l235 1339h135l-235 -1339h207l-84 -481h-135z" />
    <glyph glyph-name="uni042A" unicode="&#x42a;" horiz-adv-x="1554" 
d="M664 879h428q184 0 306 -103t122 -284q0 -125 -45 -221t-124 -154t-181 -87.5t-222 -29.5h-573l233 1339h-372l20 123h510zM1071 756h-430l-111 -633h445q118 0 208 37t145.5 121t55.5 208q0 129 -88.5 198t-224.5 69z" />
    <glyph glyph-name="uni042B" unicode="&#x42b;" horiz-adv-x="1773" 
d="M1700 1462h135l-256 -1462h-135zM481 879h408q184 0 306 -103t122 -284q0 -125 -45 -221t-124 -154t-181 -87.5t-222 -29.5h-552l256 1462h135zM868 756h-409l-111 -633h424q88 0 161 21.5t129.5 65t88 115t31.5 164.5q0 129 -89 198t-225 69z" />
    <glyph glyph-name="uni042C" unicode="&#x42c;" horiz-adv-x="1372" 
d="M481 879h428q184 0 306 -103t122 -284q0 -100 -29.5 -182t-81.5 -139t-124 -96t-156.5 -57t-179.5 -18h-573l256 1462h135zM889 756h-430l-111 -633h445q118 0 208 37t145.5 121t55.5 208q0 129 -88.5 198t-224.5 69z" />
    <glyph glyph-name="uni042D" unicode="&#x42d;" horiz-adv-x="1439" 
d="M170 383h141q23 -130 136.5 -208.5t279.5 -78.5q98 0 184 33t150.5 90t115 134t82 162.5t46.5 178.5h-730l23 123h721q2 18 2 55q0 98 -28 185.5t-82 157t-141.5 110.5t-197.5 41q-167 0 -272 -64t-166 -194h-143q68 189 222 285t372 96q132 0 240.5 -48.5t180.5 -132.5
t111 -195.5t39 -238.5q0 -142 -30.5 -274t-93 -246t-150.5 -199t-210.5 -133.5t-264.5 -48.5q-210 0 -356.5 113.5t-180.5 296.5z" />
    <glyph glyph-name="uni042E" unicode="&#x42e;" horiz-adv-x="2054" 
d="M2071 879q0 -139 -29.5 -270.5t-90 -247t-145.5 -202t-202.5 -136.5t-253.5 -50q-125 0 -231.5 44t-182 123.5t-118 193.5t-42.5 250q0 54 4 108h-331l-121 -692h-135l256 1462h135l-113 -643h328q27 140 86 260t145 212.5t206.5 145t260.5 52.5q254 0 414 -168.5
t160 -441.5zM1356 96q99 0 185 34t148 93t110 135t77 164t44 176t15 174q0 139 -48.5 249t-150.5 177.5t-245 67.5q-99 0 -185 -34t-148 -93t-110.5 -135t-77.5 -163.5t-44 -176t-15 -174.5q0 -139 49 -249t151.5 -177.5t244.5 -67.5z" />
    <glyph glyph-name="uni042F" unicode="&#x42f;" horiz-adv-x="1435" 
d="M1497 1462l-256 -1462h-135l111 637h-469q-62 0 -117 12l-336 -649h-148l361 694q-170 93 -170 303q0 116 42 206.5t116 146t169.5 84t208.5 28.5h623zM762 758h477l104 581h-493q-170 0 -273.5 -83t-103.5 -252q0 -123 81 -184.5t208 -61.5z" />
    <glyph glyph-name="uni0430" unicode="&#x430;" horiz-adv-x="1120" 
d="M829 0l19 113h-41q-129 -140 -322 -140q-160 0 -249 88t-89 218q0 163 111 261.5t301 98.5h379l6 33q10 38 10 88q0 80 -60.5 128t-184.5 48q-127 0 -204 -47.5t-91 -128.5h-129q26 139 143 215t293 76q165 0 262.5 -77.5t97.5 -207.5q0 -66 -10 -104l-117 -662h-125z
M512 88q145 0 255.5 101.5t135.5 248.5l17 92h-334q-137 0 -222 -61.5t-85 -181.5q0 -93 61 -146t172 -53z" />
    <glyph glyph-name="uni0431" unicode="&#x431;" horiz-adv-x="1220" 
d="M801 1024q187 0 295 -118.5t108 -297.5q0 -120 -35 -232t-100.5 -202.5t-171 -145.5t-235.5 -55q-196 0 -311 120.5t-115 352.5q0 79 6.5 157.5t23 166t42.5 165t68 151.5t95.5 130t129 95t165.5 51l311 43q52 8 71 23t32 61h127q-14 -91 -66 -140.5t-164 -66.5l-311 -43
q-75 -10 -135.5 -43.5t-101.5 -85.5t-68.5 -110.5t-44.5 -127.5h37q75 83 158 117.5t190 34.5zM676 86q75 0 141 29.5t112.5 79t80 114.5t49.5 136.5t16 144.5q0 147 -84.5 234t-226.5 87q-94 0 -171.5 -44.5t-126 -117t-75 -161t-26.5 -180.5q0 -148 84 -235t227 -87z" />
    <glyph glyph-name="uni0432" unicode="&#x432;" horiz-adv-x="1130" 
d="M946 559l-8 -41q139 -56 139 -205q0 -144 -106 -228.5t-279 -84.5h-518l180 1024h461q136 0 210.5 -60.5t74.5 -172.5q0 -88 -42 -147t-112 -85zM809 909h-344l-57 -325h354q95 0 152 47t57 141q0 69 -45 103t-117 34zM772 469h-385l-63 -354h395q100 0 164.5 51.5
t64.5 152.5q0 74 -49.5 112t-126.5 38z" />
    <glyph glyph-name="uni0433" unicode="&#x433;" horiz-adv-x="991" 
d="M1087 1024l-20 -115h-604l-160 -909h-129l180 1024h733z" />
    <glyph glyph-name="uni0434" unicode="&#x434;" horiz-adv-x="1284" 
d="M1063 115h186l-71 -408h-129l53 293h-920l-53 -293h-129l70 408h127q188 273 252 635l49 274h727zM934 115l141 794h-475l-29 -159q-70 -399 -233 -635h596z" />
    <glyph glyph-name="uni0435" unicode="&#x435;" horiz-adv-x="1126" 
d="M928 270h131q-42 -137 -155 -217t-275 -80q-183 0 -307.5 123t-124.5 322q0 133 36 248t102.5 201t169 135t228.5 49q98 0 175 -36.5t124 -99t71.5 -142.5t24.5 -171q0 -42 -2 -67h-792q-8 -52 -8 -111q0 -152 87 -244t234 -92q111 0 177.5 46.5t103.5 135.5zM725 936
q-135 0 -228.5 -78t-136.5 -209h637q-8 130 -74.5 208.5t-197.5 78.5z" />
    <glyph glyph-name="uni0436" unicode="&#x436;" horiz-adv-x="1540" 
d="M504 467l-281 -467h-141l317 526l-123 498h132l108 -442h289l78 442h129l-78 -442h278l267 442h139l-301 -498l135 -526h-133l-119 467h-287l-82 -467h-129l82 467h-280z" />
    <glyph glyph-name="uni0437" unicode="&#x437;" horiz-adv-x="1050" 
d="M481 580h176q46 0 88 9.5t79.5 30.5t60 59t22.5 89q0 79 -63.5 123.5t-165.5 44.5q-232 0 -281 -180h-127q31 146 136.5 220.5t277.5 74.5q162 0 257 -73.5t95 -186.5q0 -191 -164 -240l-6 -41q125 -48 125 -184q0 -167 -124.5 -260t-321.5 -93q-183 0 -290 84t-112 222
h127q11 -98 89.5 -144.5t195.5 -46.5q78 0 145.5 23t114.5 76t47 128q0 150 -219 150h-180z" />
    <glyph glyph-name="uni0438" unicode="&#x438;" horiz-adv-x="1218" 
d="M406 0h-232l180 1024h129l-159 -897h41l620 897h242l-180 -1024h-129l157 897h-41z" />
    <glyph glyph-name="uni0439" unicode="&#x439;" horiz-adv-x="1218" 
d="M406 0h-232l180 1024h129l-159 -897h41l620 897h242l-180 -1024h-129l157 897h-41zM1028 1489h109q-24 -142 -116.5 -219.5t-221.5 -77.5q-115 0 -189.5 62.5t-74.5 175.5q0 29 6 59h104q-4 -28 -4 -43q0 -72 45.5 -113t120.5 -41q87 0 145.5 52.5t75.5 144.5z" />
    <glyph glyph-name="uni043A" unicode="&#x43a;" horiz-adv-x="1089" 
d="M874 0l-149 471h-340l-82 -471h-129l180 1024h129l-77 -438h333l295 438h142l-334 -494l168 -530h-136z" />
    <glyph glyph-name="uni043B" unicode="&#x43b;" 
d="M53 0l21 119h35q73 0 123.5 45t92.5 159.5t78 317.5l68 383h737l-180 -1024h-129l160 909h-488l-47 -268q-44 -243 -102.5 -382.5t-137.5 -199t-196 -59.5h-35z" />
    <glyph glyph-name="uni043C" unicode="&#x43c;" horiz-adv-x="1370" 
d="M174 0l180 1024h221l181 -496h41l350 496h231l-180 -1024h-129l158 897h-35l-348 -487h-170l-176 487h-37l-158 -897h-129z" />
    <glyph glyph-name="uni043D" unicode="&#x43d;" horiz-adv-x="1216" 
d="M1225 1024l-181 -1024h-129l82 471h-612l-82 -471h-129l180 1024h129l-77 -438h612l78 438h129z" />
    <glyph glyph-name="uni043E" unicode="&#x43e;" horiz-adv-x="1216" 
d="M745 1051q196 0 325.5 -120t129.5 -327q0 -178 -63.5 -319.5t-190 -226.5t-295.5 -85q-196 0 -325 120t-129 327q0 177 63 318.5t189 227t296 85.5zM659 88q129 0 224.5 74t141.5 188.5t46 249.5q0 153 -92.5 244.5t-241.5 91.5q-98 0 -177.5 -43t-129.5 -115t-77 -163
t-27 -191q0 -155 90 -245.5t243 -90.5z" />
    <glyph glyph-name="uni043F" unicode="&#x43f;" horiz-adv-x="1208" 
d="M1036 0h-129l160 909h-604l-160 -909h-129l180 1024h863z" />
    <glyph glyph-name="uni0440" unicode="&#x440;" horiz-adv-x="1230" 
d="M1214 602q0 -89 -20 -176.5t-62.5 -169.5t-103 -145t-148.5 -100.5t-192 -37.5q-105 0 -189.5 40.5t-129.5 121.5h-41l-97 -545h-129l252 1434h125l-20 -113h41q45 61 129.5 100.5t179.5 39.5q98 0 176 -36t127.5 -98t75.5 -142.5t26 -172.5zM803 936q-81 0 -149.5 -31.5
t-115.5 -83t-80.5 -118.5t-49 -136.5t-15.5 -138.5q0 -161 75.5 -250.5t219.5 -89.5q74 0 144.5 33.5t127 95.5t91 162t34.5 221q0 148 -72.5 242t-209.5 94z" />
    <glyph glyph-name="uni0441" unicode="&#x441;" horiz-adv-x="1083" 
d="M930 293h133q-42 -149 -158 -234.5t-284 -85.5q-179 0 -301.5 121.5t-122.5 317.5q0 127 35.5 242t100.5 203.5t165.5 141t222.5 52.5q159 0 264.5 -88t126.5 -224h-131q-20 90 -87.5 143.5t-176.5 53.5q-73 0 -137 -29t-110 -79.5t-79 -116.5t-49 -141t-16 -152
q0 -153 83.5 -241.5t221.5 -88.5q111 0 190 55t109 150z" />
    <glyph glyph-name="uni0442" unicode="&#x442;" horiz-adv-x="964" 
d="M221 909l21 115h841l-20 -115h-356l-160 -909h-129l160 909h-357z" />
    <glyph glyph-name="uni0443" unicode="&#x443;" horiz-adv-x="1050" 
d="M326 -410h-138l304 508l-263 926h129l203 -723h55l428 723h140z" />
    <glyph glyph-name="uni0444" unicode="&#x444;" horiz-adv-x="1413" 
d="M811 0h-41l-72 -410h-129l72 410q-68 3 -131.5 21t-121 53t-99.5 83.5t-67 117.5t-25 151q0 146 45.5 261.5t125 188.5t185 110.5t229.5 37.5h41l82 465h129l-82 -465q86 -4 164 -32t141.5 -78.5t101.5 -132.5t38 -183q0 -146 -45.5 -261.5t-125.5 -188.5t-185.5 -110.5
t-229.5 -37.5zM326 428q0 -148 96 -228t240 -85l141 794h-41q-110 0 -195.5 -39.5t-137 -107t-77.5 -152.5t-26 -182zM1268 596q0 148 -96 228t-240 85l-141 -794h40q110 0 195.5 39.5t137 107t78 152.5t26.5 182z" />
    <glyph glyph-name="uni0445" unicode="&#x445;" horiz-adv-x="1073" 
d="M854 0l-195 453h-69l-361 -453h-151l420 524l-205 500h129l176 -428h70l331 428h146l-383 -494l231 -530h-139z" />
    <glyph glyph-name="uni0446" unicode="&#x446;" horiz-adv-x="1267" 
d="M1208 1024l-159 -909h184l-72 -408h-129l51 293h-909l180 1024h129l-159 -909h596l159 909h129z" />
    <glyph glyph-name="uni0447" unicode="&#x447;" horiz-adv-x="1099" 
d="M295 1024h129l-51 -293q-11 -46 -11 -92q0 -29 10.5 -51t36.5 -40.5t76.5 -28t124.5 -9.5q131 0 283 31l86 483h129l-180 -1024h-129l73 426q-152 -31 -282 -31q-104 0 -176.5 17t-111 49.5t-55 71t-16.5 88.5q0 38 13 114z" />
    <glyph glyph-name="uni0448" unicode="&#x448;" horiz-adv-x="1599" 
d="M1479 1024h129l-181 -1024h-1253l180 1024h129l-159 -909h434l160 909h129l-160 -909h432z" />
    <glyph glyph-name="uni0449" unicode="&#x449;" horiz-adv-x="1667" 
d="M1479 1024h129l-160 -909h184l-71 -408h-129l51 293h-1309l180 1024h129l-159 -909h434l160 909h129l-160 -909h432z" />
    <glyph glyph-name="uni044A" unicode="&#x44a;" horiz-adv-x="1261" 
d="M201 909l20 115h436l-63 -358h319q138 0 231 -79t93 -216q0 -93 -34 -165.5t-94 -116.5t-137 -66.5t-167 -22.5h-457l160 909h-307zM891 551h-318l-75 -436h327q127 0 205 63t78 189q0 90 -61 137t-156 47z" />
    <glyph glyph-name="uni044B" unicode="&#x44b;" horiz-adv-x="1437" 
d="M174 0l180 1024h129l-63 -358h295q138 0 230.5 -79t92.5 -216q0 -93 -34 -165.5t-94 -116.5t-137 -66.5t-167 -22.5h-432zM692 551h-293l-75 -436h303q127 0 204.5 63t77.5 189q0 90 -61 137t-156 47zM1137 0l180 1024h129l-180 -1024h-129z" />
    <glyph glyph-name="uni044C" unicode="&#x44c;" horiz-adv-x="1087" 
d="M717 551h-318l-75 -436h327q127 0 205 63t78 189q0 90 -61 137t-156 47zM174 0l180 1024h129l-63 -358h319q138 0 231 -79t93 -216q0 -93 -34 -165.5t-94 -116.5t-137 -66.5t-167 -22.5h-457z" />
    <glyph glyph-name="uni044D" unicode="&#x44d;" horiz-adv-x="1110" 
d="M358 750h-131q44 138 156 219.5t279 81.5q194 0 313 -126t119 -319q0 -177 -65 -320.5t-190 -228t-288 -84.5q-164 0 -279 88.5t-122 221.5h131q11 -87 85 -141t195 -54q145 0 252.5 94t138.5 281h-499l20 115h492v32q0 139 -83.5 232.5t-222.5 93.5q-117 0 -192.5 -50.5
t-108.5 -135.5z" />
    <glyph glyph-name="uni044E" unicode="&#x44e;" horiz-adv-x="1605" 
d="M1169 1051q177 0 298.5 -121.5t121.5 -317.5q0 -171 -60 -314.5t-180.5 -234t-279.5 -90.5q-181 0 -301.5 121t-120.5 318q0 36 2 59h-264l-82 -471h-129l180 1024h129l-77 -438h258q42 204 175 334.5t330 130.5zM1075 88q91 0 166 45.5t121.5 120t72 165.5t25.5 187
q0 152 -82 241t-219 89q-91 0 -165.5 -45.5t-121 -120t-71.5 -165.5t-25 -187q0 -150 81.5 -240t217.5 -90z" />
    <glyph glyph-name="uni044F" unicode="&#x44f;" horiz-adv-x="1150" 
d="M1159 1024l-180 -1024h-129l76 432h-365q-35 0 -51 2l-242 -434h-137l262 473q-121 70 -121 221q0 162 108 246t277 84h502zM582 547h364l64 362h-373q-105 0 -170.5 -52.5t-65.5 -156.5q0 -74 52 -113.5t129 -39.5z" />
    <glyph glyph-name="uni0451" unicode="&#x451;" horiz-adv-x="1126" 
d="M928 270h131q-42 -137 -155 -217t-275 -80q-183 0 -307.5 123t-124.5 322q0 133 36 248t102.5 201t169 135t228.5 49q98 0 175 -36.5t124 -99t71.5 -142.5t24.5 -171q0 -42 -2 -67h-792q-8 -52 -8 -111q0 -152 87 -244t234 -92q111 0 177.5 46.5t103.5 135.5zM725 936
q-135 0 -228.5 -78t-136.5 -209h637q-8 130 -74.5 208.5t-197.5 78.5zM678 1327h-141l28 162h142zM1038 1327h-141l29 162h141z" />
    <glyph glyph-name="uni0452" unicode="&#x452;" horiz-adv-x="1243" 
d="M252 1200l18 103h174l33 186h129l-33 -186h437l-19 -103h-436l-61 -350h34q48 61 130 100t196 39q160 0 248 -85t88 -234q0 -43 -12 -125l-109 -611q-31 -159 -122.5 -251.5t-239.5 -92.5h-127l20 115h96q108 0 165.5 58.5t78.5 173.5l109 606q12 70 12 114
q0 217 -238 217q-151 0 -257 -108t-136 -274l-88 -492h-129l213 1200h-174z" />
    <glyph glyph-name="uni0453" unicode="&#x453;" horiz-adv-x="991" 
d="M1087 1024l-20 -115h-604l-160 -909h-129l180 1024h733zM1063 1489l-268 -297h-123l223 297h168z" />
    <glyph glyph-name="uni0454" unicode="&#x454;" horiz-adv-x="1081" 
d="M926 283h133q-48 -148 -161 -229t-277 -81q-179 0 -301.5 121.5t-122.5 317.5q0 127 35.5 242t100.5 203.5t165.5 141t222.5 52.5q158 0 263 -84.5t126 -216.5h-131q-20 89 -88 137.5t-176 48.5q-95 0 -173 -50t-126.5 -129t-71.5 -179h481l-20 -115h-479v-45
q0 -149 82.5 -239.5t218.5 -90.5q108 0 186 51t113 144z" />
    <glyph glyph-name="uni0455" unicode="&#x455;" horiz-adv-x="1028" 
d="M623 936q-107 0 -180.5 -45t-73.5 -135q0 -26 8.5 -46t20.5 -33t37.5 -25.5t45 -19t56.5 -18.5l192 -53q256 -71 256 -268q0 -140 -116 -230t-300 -90q-83 0 -156 17t-135 52.5t-100.5 97.5t-44.5 145h127q6 -88 92.5 -142.5t225.5 -54.5q116 0 197 52t81 147
q0 110 -172 159l-190 54q-125 34 -189.5 93.5t-64.5 160.5q0 97 54 165.5t140.5 100t196.5 31.5q159 0 270 -75.5t123 -209.5h-127q-11 77 -82.5 123.5t-191.5 46.5z" />
    <glyph glyph-name="uni0456" unicode="&#x456;" horiz-adv-x="483" 
d="M483 1024l-180 -1024h-129l180 1024h129zM543 1327h-142l29 162h141z" />
    <glyph glyph-name="uni0457" unicode="&#x457;" horiz-adv-x="475" 
d="M483 1024l-180 -1024h-129l180 1024h129zM365 1327h-142l29 162h141zM725 1327h-141l28 162h142z" />
    <glyph glyph-name="uni0458" unicode="&#x458;" horiz-adv-x="501" 
d="M-49 -410h-127l20 115h95q108 0 164 52t77 165l195 1102h129l-199 -1118q-60 -316 -354 -316zM561 1327h-141l29 162h141z" />
    <glyph glyph-name="uni0459" unicode="&#x459;" horiz-adv-x="1771" 
d="M879 0l159 909h-467l-47 -268q-44 -243 -102.5 -382.5t-137.5 -199t-196 -59.5h-35l21 119h35q73 0 123.5 45t92.5 159.5t78 317.5l68 383h717l-64 -358h299q138 0 231 -79t93 -216q0 -93 -34 -165.5t-94 -116.5t-137 -66.5t-167 -22.5h-436zM1401 551h-297l-76 -436h307
q127 0 205 63t78 189q0 90 -61 137t-156 47z" />
    <glyph glyph-name="uni045A" unicode="&#x45a;" horiz-adv-x="1748" 
d="M854 0l82 471h-551l-82 -471h-129l180 1024h129l-77 -438h550l78 438h129l-63 -358h301q138 0 230.5 -79t92.5 -216q0 -93 -34 -165.5t-94 -116.5t-137 -66.5t-167 -22.5h-438zM1378 551h-299l-75 -436h309q127 0 204.5 63t77.5 189q0 90 -61 137t-156 47z" />
    <glyph glyph-name="uni045B" unicode="&#x45b;" horiz-adv-x="1243" 
d="M252 1200l18 103h174l33 186h129l-33 -186h437l-19 -103h-436l-61 -350h34q48 61 130 100t196 39q160 0 248 -85t88 -234q0 -43 -12 -125l-97 -545h-129l97 543q12 70 12 114q0 217 -238 217q-151 0 -257 -108t-136 -274l-88 -492h-129l213 1200h-174z" />
    <glyph glyph-name="uni045C" unicode="&#x45c;" horiz-adv-x="1089" 
d="M874 0l-149 471h-340l-82 -471h-129l180 1024h129l-77 -438h333l295 438h142l-334 -494l168 -530h-136zM1047 1489l-269 -297h-123l224 297h168z" />
    <glyph glyph-name="uni045E" unicode="&#x45e;" horiz-adv-x="1050" 
d="M326 -410h-138l304 508l-263 926h129l203 -723h55l428 723h140zM942 1489h109q-24 -142 -116.5 -219.5t-221.5 -77.5q-115 0 -189.5 62.5t-74.5 175.5q0 29 6 59h104q-4 -28 -4 -43q0 -72 45.5 -113t120.5 -41q87 0 145.5 52.5t75.5 144.5z" />
    <glyph glyph-name="uni045F" unicode="&#x45f;" 
d="M1208 1024l-180 -1024h-366l-52 -293h-129l51 293h-358l180 1024h129l-159 -909h596l159 909h129z" />
    <glyph glyph-name="uni0490" unicode="&#x490;" horiz-adv-x="1249" 
d="M563 1339l-235 -1339h-133l256 1462h823l55 307h137l-75 -430h-828z" />
    <glyph glyph-name="uni0491" unicode="&#x491;" horiz-adv-x="991" 
d="M981 1260h127l-61 -351h-586l-160 -909h-127l180 1024h586z" />
    <glyph glyph-name="uni0492" unicode="&#x492;" horiz-adv-x="1312" 
d="M178 670l21 114h198l119 678h959l-21 -123h-823l-99 -555h525l-21 -114h-524l-117 -670h-135l117 670h-199z" />
    <glyph glyph-name="uni0493" unicode="&#x493;" horiz-adv-x="1048" 
d="M125 420l20 115h183l86 489h731l-21 -115h-604l-65 -374h401l-20 -115h-402l-74 -420h-127l74 420h-182z" />
    <glyph glyph-name="uni049A" unicode="&#x49a;" horiz-adv-x="1431" 
d="M193 0l256 1462h135l-113 -645h469l412 645h145l-446 -710l174 -629h176l-84 -481h-133l63 358h-131l-192 694h-475l-121 -694h-135z" />
    <glyph glyph-name="uni049B" unicode="&#x49b;" horiz-adv-x="1173" 
d="M874 0l-149 471h-340l-82 -471h-129l180 1024h129l-77 -438h333l295 438h142l-334 -494l131 -415h160l-72 -408h-127l53 293h-113z" />
    <glyph glyph-name="uni04A2" unicode="&#x4a2;" horiz-adv-x="1597" 
d="M1454 1462h135l-235 -1339h207l-84 -481h-134l64 358h-209l121 692h-870l-121 -692h-135l256 1462h135l-113 -643h870z" />
    <glyph glyph-name="uni04A3" unicode="&#x4a3;" horiz-adv-x="1284" 
d="M1225 1024l-162 -909h186l-71 -408h-127l53 293h-189l82 471h-614l-82 -471h-127l180 1024h127l-78 -438h615l78 438h129z" />
    <glyph glyph-name="uni04AE" unicode="&#x4ae;" horiz-adv-x="1269" 
d="M731 764h57l539 698h152l-678 -889l-101 -573h-135l101 573l-369 889h141z" />
    <glyph glyph-name="uni04AF" unicode="&#x4af;" horiz-adv-x="1058" 
d="M389 -70l-160 1094h125l142 -979h75l476 979h145l-551 -1094h-59l-60 -340h-129l60 340h-64z" />
    <glyph glyph-name="uni04B0" unicode="&#x4b0;" horiz-adv-x="1269" 
d="M731 764h57l539 698h152l-623 -815h330l-21 -115h-372l-93 -532h-135l92 532h-374l20 115h332l-338 815h141z" />
    <glyph glyph-name="uni04B1" unicode="&#x4b1;" horiz-adv-x="1058" 
d="M154 -115l20 115h205l-150 1024h125l142 -979h75l476 979h145l-516 -1024h211l-21 -115h-293l-51 -295h-129l51 295h-290z" />
    <glyph glyph-name="uni04BA" unicode="&#x4ba;" horiz-adv-x="1357" 
d="M1233 0h-135l76 428q12 50 12 117q0 42 -14.5 73t-51 58.5t-107 42t-173.5 14.5q-205 0 -391 -43l-121 -690h-135l256 1462h135l-113 -647q198 41 381 41q110 0 193 -15.5t135 -42t84 -65.5t44.5 -81.5t12.5 -94.5q0 -44 -14 -135z" />
    <glyph glyph-name="uni04BB" unicode="&#x4bb;" 
d="M1042 0h-129l107 604q12 70 12 115q0 108 -57.5 162.5t-179.5 54.5q-151 0 -257.5 -108.5t-136.5 -274.5l-98 -553h-129l264 1489h129l-102 -578h35q111 140 325 140q160 0 248 -85.5t88 -234.5q0 -43 -12 -125z" />
    <glyph glyph-name="uni04D8" unicode="&#x4d8;" horiz-adv-x="1515" 
d="M514 1108h-145q63 173 218 277t369 104q257 0 416.5 -168t159.5 -442q0 -139 -29 -270.5t-89 -247t-144.5 -202t-203.5 -136.5t-257 -50q-257 0 -414 168t-157 443q0 103 22 233h1135q2 18 2 55q0 104 -28 192.5t-82 156.5t-140.5 106.5t-196.5 38.5q-162 0 -275.5 -72.5
t-160.5 -185.5zM815 96q101 0 187.5 34t148.5 91t110 135.5t77 162t44 175.5h-1005q-6 -53 -6 -104q0 -104 27.5 -192.5t80.5 -156.5t139.5 -106.5t196.5 -38.5z" />
    <glyph glyph-name="uni04D9" unicode="&#x4d9;" horiz-adv-x="1126" 
d="M379 754h-131q45 137 158.5 217t275.5 80q115 0 211.5 -52t156.5 -155t60 -238q0 -179 -61.5 -321t-185 -227t-290.5 -85q-98 0 -175 37t-124 101t-71.5 145.5t-24.5 175.5q0 90 6 125h795q2 14 2 43q0 151 -88 243.5t-221 92.5q-82 0 -140.5 -23.5t-92.5 -61.5t-60 -97z
M582 88q155 0 253 96.5t132 259.5h-660v-12q0 -344 275 -344z" />
    <glyph glyph-name="uni04E8" unicode="&#x4e8;" horiz-adv-x="1552" 
d="M979 1489q261 0 425.5 -168t164.5 -442q0 -139 -30.5 -270.5t-92.5 -247t-149.5 -202t-208.5 -136.5t-261 -50q-261 0 -425 168.5t-164 442.5q0 139 30.5 270.5t92.5 246.5t149 201.5t208 136.5t261 50zM834 96q102 0 190.5 34t153 91t114.5 135t80 162t45 176h-1040
q-4 -26 -4 -104q0 -139 50.5 -249t156.5 -177.5t254 -67.5zM973 1366q-96 0 -180.5 -31t-147 -82.5t-112.5 -123t-82.5 -149t-53.5 -163.5h1035q2 18 2 55q0 139 -50.5 249t-156.5 177.5t-254 67.5z" />
    <glyph glyph-name="uni04E9" unicode="&#x4e9;" horiz-adv-x="1216" 
d="M745 1051q196 0 325.5 -120t129.5 -327q0 -178 -63.5 -319.5t-190 -226.5t-295.5 -85q-196 0 -325 120t-129 327q0 177 63 318.5t189 227t296 85.5zM659 88q159 0 261.5 104.5t136.5 270.5h-731v-39q0 -155 90 -245.5t243 -90.5zM737 936q-155 0 -257 -100t-138 -258h729
v22q0 153 -92.5 244.5t-241.5 91.5z" />
    <glyph glyph-name="endash" unicode="&#x2013;" horiz-adv-x="1259" 
d="M1245 506h-1055l21 117h1055z" />
    <glyph glyph-name="emdash" unicode="&#x2014;" horiz-adv-x="1792" 
d="M1778 506h-1588l21 117h1587z" />
    <glyph glyph-name="quoteleft" unicode="&#x2018;" horiz-adv-x="499" 
d="M457 1249h88l-37 -209h-172l43 244l131 178h84l-131 -178z" />
    <glyph glyph-name="quoteright" unicode="&#x2019;" horiz-adv-x="499" 
d="M459 1253h-88l37 209h172l-43 -243l-131 -179h-84l131 179z" />
    <glyph glyph-name="quotesinglbase" unicode="&#x201a;" horiz-adv-x="499" 
d="M252 0h-88l37 209h172l-43 -244l-131 -178h-84l131 178z" />
    <glyph glyph-name="quotedblleft" unicode="&#x201c;" horiz-adv-x="819" 
d="M457 1249h88l-37 -209h-172l43 244l131 178h84l-131 -178zM776 1249h88l-37 -209h-172l43 244l131 178h84l-131 -178z" />
    <glyph glyph-name="quotedblright" unicode="&#x201d;" horiz-adv-x="819" 
d="M459 1253h-88l37 209h172l-43 -243l-131 -179h-84l131 179zM778 1253h-88l37 209h172l-43 -243l-131 -179h-84l131 179z" />
    <glyph glyph-name="quotedblbase" unicode="&#x201e;" horiz-adv-x="819" 
d="M252 0h-88l37 209h172l-43 -244l-131 -178h-84l131 178zM571 0h-88l37 209h172l-43 -244l-131 -178h-84l131 178z" />
    <glyph glyph-name="dagger" unicode="&#x2020;" horiz-adv-x="1126" 
d="M659 915h-395l21 109h395l76 438h129l-76 -438h397l-20 -109h-398l-215 -1226h-129z" />
    <glyph glyph-name="daggerdbl" unicode="&#x2021;" horiz-adv-x="1126" 
d="M659 915h-395l21 109h395l76 438h129l-76 -438h397l-20 -109h-398l-118 -679h395l-21 -109h-395l-76 -438h-129l76 438h-397l20 109h398z" />
    <glyph glyph-name="bullet" unicode="&#x2022;" horiz-adv-x="888" 
d="M270 729q0 125 88 213t213 88t213 -88t88 -213t-88 -213t-213 -88t-213 88t-88 213z" />
    <glyph glyph-name="ellipsis" unicode="&#x2026;" horiz-adv-x="1458" 
d="M336 0h-172l35 209h172zM336 0h-172l35 209h172zM815 0h-172l35 209h172zM1294 0h-172l35 209h172z" />
    <glyph glyph-name="perthousand" unicode="&#x2030;" horiz-adv-x="2596" 
d="M549 0h-139l1122 1434h137zM946 1153q0 -125 -43 -229.5t-130 -170t-204 -65.5q-124 0 -202 87.5t-78 219.5q0 92 25.5 176t72 149t119 103.5t160.5 38.5q124 0 202 -88t78 -221zM580 793q76 0 133.5 53t85.5 132t28 167q0 102 -44 157.5t-130 55.5q-75 0 -132 -53.5
t-85 -133t-28 -167.5q0 -101 43.5 -156t128.5 -55zM2552 438q0 -125 -43 -229.5t-130 -170t-204 -65.5q-124 0 -202.5 88t-78.5 220q0 92 25.5 176t72 149t119 103.5t160.5 38.5q124 0 202.5 -88.5t78.5 -221.5zM2185 78q76 0 134 53t86 132t28 167q0 102 -44 157.5
t-130 55.5q-75 0 -132.5 -53.5t-85.5 -133t-28 -167.5q0 -101 43.5 -156t128.5 -55zM1790 438q0 -125 -43 -229.5t-130 -170t-204 -65.5q-124 0 -202 88t-78 220q0 125 42.5 229.5t129.5 171t204 66.5q124 0 202.5 -88.5t78.5 -221.5zM1423 78q76 0 134 53t86 132t28 167
q0 102 -44 157.5t-130 55.5q-75 0 -132.5 -53.5t-85.5 -133t-28 -167.5q0 -101 43.5 -156t128.5 -55z" />
    <glyph glyph-name="guilsinglleft" unicode="&#x2039;" horiz-adv-x="686" 
d="M346 592l-8 -41l262 -338h-139l-246 305l21 121l346 303h151z" />
    <glyph glyph-name="guilsinglright" unicode="&#x203a;" horiz-adv-x="686" 
d="M541 563l8 41l-262 338h139l246 -305l-21 -121l-346 -303h-151z" />
    <glyph glyph-name="fraction" unicode="&#x2044;" horiz-adv-x="555" 
d="M-72 0h-127l1121 1434h125z" />
    <glyph glyph-name="Euro" unicode="&#x20ac;" horiz-adv-x="1386" 
d="M225 813l56 107h125q75 252 231.5 397t368.5 145q180 0 293.5 -102t136.5 -297h-136q-12 135 -95.5 207.5t-205.5 72.5q-86 0 -160.5 -33t-130.5 -91.5t-97 -133.5t-68 -165h544l-55 -107h-516q-17 -66 -27 -160h459l-53 -106h-414v-49q0 -191 90.5 -298.5t245.5 -107.5
q148 0 246 80t141 219h133q-60 -201 -197 -309.5t-329 -108.5q-200 0 -331.5 139.5t-131.5 385.5v49h-170l55 106h121q8 73 25 160h-154z" />
    <glyph glyph-name="uni20B4" unicode="&#x20b4;" horiz-adv-x="1298" 
d="M1135 362h137q-44 -184 -180.5 -286.5t-354.5 -102.5q-221 0 -348 106.5t-127 276.5q0 93 45 185h-137l18 106h1133l-18 -106h-857q-51 -77 -51 -179q0 -128 92.5 -199t253.5 -71q156 0 257.5 68.5t136.5 201.5zM1350 807h-1133l19 106h862q65 78 65 187q0 112 -87 177.5
t-212 65.5q-279 0 -344 -231h-133q31 156 154.5 253t326.5 97q190 0 309 -101t119 -261q0 -105 -55 -187h127z" />
    <glyph glyph-name="uni20B8" unicode="&#x20b8;" horiz-adv-x="1054" 
d="M229 1061l19 106h977l-19 -106h-422l-186 -1061h-133l186 1061h-422zM276 1327l19 107h977l-19 -107h-977z" />
    <glyph glyph-name="uni20BD" unicode="&#x20bd;" horiz-adv-x="1359" 
d="M213 623l18 106h201l123 705h506q170 0 281.5 -96t111.5 -263q0 -114 -41.5 -202t-114.5 -142t-166.5 -81t-203.5 -27h-381l-29 -160h541l-19 -107h-540l-64 -356h-131l62 356h-201l18 107h201l29 160h-201zM567 729h379q165 0 270 89t105 255q0 119 -80 180.5t-205 61.5
h-366z" />
    <glyph glyph-name="uni2116" unicode="&#x2116;" horiz-adv-x="2316" 
d="M1438 1434h133l-252 -1434h-240l-487 1292h-39l-227 -1292h-133l251 1434h238l489 -1293h39zM2251 444h-643l18 105h643zM2365 1153q0 -125 -42.5 -229.5t-129.5 -170t-204 -65.5q-124 0 -202.5 87.5t-78.5 219.5q0 92 25.5 176t72 149t119 103.5t160.5 38.5
q124 0 202 -88t78 -221zM1999 793q76 0 134 53t86 132t28 167q0 102 -44 157.5t-130 55.5q-75 0 -132.5 -53.5t-85.5 -133t-28 -167.5q0 -101 43.5 -156t128.5 -55z" />
    <glyph glyph-name="trademark" unicode="&#x2122;" horiz-adv-x="1724" 
d="M946 682l137 780h181l129 -370h24l256 370h185l-138 -780h-106l119 672h-21l-262 -377h-123l-135 377h-21l-118 -672h-107zM952 1462l-16 -94h-268l-121 -686h-107l121 686h-270l16 94h645z" />
    <glyph glyph-name="Omega" unicode="&#x2126;" horiz-adv-x="1540" 
d="M1255 164v-41h285v-123h-547v121q58 33 109 71t110 98t100.5 127.5t69 160.5t27.5 196q0 268 -142 430t-376 162t-376 -162t-142 -430q0 -103 27.5 -196t69 -160.5t100 -127.5t109.5 -98t109 -71v-121h-546v123h284v41q-288 247 -288 610q0 208 79.5 370t228.5 253.5
t345 91.5t345 -91.5t228.5 -253.5t79.5 -370q0 -362 -289 -610z" />
    <glyph glyph-name="arrowleft" unicode="&#x2190;" horiz-adv-x="1683" 
d="M692 1024h160l-412 -412v-43h1202v-114h-1202v-43l412 -412h-160l-512 512z" />
    <glyph glyph-name="arrowup" unicode="&#x2191;" horiz-adv-x="1392" 
d="M1329 950v-159l-411 411h-44v-1202h-114v1202h-43l-412 -411v159l512 512z" />
    <glyph glyph-name="arrowright" unicode="&#x2192;" horiz-adv-x="1683" 
d="M975 1024h160l512 -512l-512 -512h-160l411 412v43h-1202v114h1202v43z" />
    <glyph glyph-name="arrowdown" unicode="&#x2193;" horiz-adv-x="1392" 
d="M1329 672v-160l-512 -512l-512 512v160l412 -412h43v1202h114v-1202h44z" />
    <glyph glyph-name="uni2196" unicode="&#x2196;" horiz-adv-x="1441" 
d="M459 627l-113 112v723h723l113 -112h-582l-31 -31l850 -850l-80 -80l-850 850l-30 -31v-581z" />
    <glyph glyph-name="uni2197" unicode="&#x2197;" horiz-adv-x="1441" 
d="M1358 739l-113 -112v581l-31 31l-849 -850l-80 80l850 850l-31 31h-582l113 112h723v-723z" />
    <glyph glyph-name="uni2198" unicode="&#x2198;" horiz-adv-x="1441" 
d="M328 694l112 113v-582l31 -30l850 849l80 -79l-850 -850l31 -31h581l-112 -113h-723v723z" />
    <glyph glyph-name="uni2199" unicode="&#x2199;" horiz-adv-x="1441" 
d="M1225 807l112 -113v-723h-723l-112 113h581l31 31l-850 850l80 79l850 -849l31 30v582z" />
    <glyph glyph-name="partialdiff" unicode="&#x2202;" horiz-adv-x="1191" 
d="M684 88q92 0 163 31t113 84.5t63 120.5t21 145t-21 145t-63 121.5t-113 85.5t-163 31t-163 -31t-113.5 -85.5t-64 -121.5t-21.5 -145t21.5 -145t64 -120.5t113.5 -84.5t163 -31zM440 1489h162q54 -40 99.5 -77t106 -95.5t108.5 -116t97.5 -135.5t82.5 -158.5t54 -180.5
t21 -204q0 -116 -30 -214.5t-89 -174t-154 -118t-218 -42.5q-147 0 -258.5 69t-168 181t-56.5 248q0 135 57 247t167.5 180.5t254.5 68.5q81 0 151 -26t115 -71h47q-33 79 -83.5 156.5t-103 138.5t-119.5 123.5t-122 107t-121 93.5z" />
    <glyph glyph-name="increment" unicode="&#x2206;" horiz-adv-x="1298" 
d="M793 1434l475 -1270v-164h-1135v164l475 1270h185zM1137 123v41l-416 1126h-41l-416 -1126v-41h873z" />
    <glyph glyph-name="product" unicode="&#x220f;" 
d="M1104 -410h-139v1749h-402v-1749h-139v1749h-199v123h1078v-123h-199v-1749z" />
    <glyph glyph-name="summation" unicode="&#x2211;" horiz-adv-x="1118" 
d="M344 123h815v-123h-975v166l430 545v41l-411 546v164h923v-123h-764v-41l412 -546v-41l-430 -547v-41z" />
    <glyph glyph-name="minus" unicode="&#x2212;" horiz-adv-x="1400" 
d="M285 633h1032v-111h-1032v111z" />
    <glyph glyph-name="radical" unicode="&#x221a;" horiz-adv-x="1298" 
d="M272 1024h127l271 -881h41l428 1291h295v-111h-207l-443 -1323h-192z" />
    <glyph glyph-name="infinity" unicode="&#x221e;" horiz-adv-x="1918" 
d="M1034 664h51q100 104 153 145q129 100 261 100q149 0 242.5 -90t93.5 -241t-93.5 -241.5t-242.5 -90.5q-65 0 -126.5 21.5t-115.5 62t-90.5 76t-81.5 86.5h-51q-35 -40 -62.5 -68.5t-70.5 -64.5t-83 -58.5t-92 -38.5t-105 -16q-149 0 -242.5 90.5t-93.5 241.5t93.5 241
t242.5 90q63 0 120 -18.5t114 -62t83.5 -68.5t82.5 -83zM971 578q-43 50 -72.5 81t-75.5 69.5t-95 57.5t-101 19q-98 0 -164 -60.5t-66 -166.5t66 -167t164 -61q52 0 101.5 19.5t94 56t77 70.5t71.5 82zM1149 578q39 -48 71.5 -82t77 -70.5t94 -56t101.5 -19.5
q98 0 163.5 61t65.5 167t-65.5 166.5t-163.5 60.5q-52 0 -101 -19t-95 -57.5t-75.5 -69.5t-72.5 -81z" />
    <glyph glyph-name="integral" unicode="&#x222b;" horiz-adv-x="929" 
d="M973 1489h71v-115h-83q-109 0 -166.5 -61.5t-77.5 -173.5l-215 -1219q-30 -171 -124 -250.5t-257 -79.5h-72v115h82q109 0 166.5 61.5t77.5 174.5l215 1218q30 172 123.5 251t259.5 79z" />
    <glyph glyph-name="approxequal" unicode="&#x2248;" horiz-adv-x="1370" 
d="M1176 922h110q0 -279 -252 -279q-58 0 -116 24.5t-106 60t-94.5 71t-96.5 60t-95 24.5q-131 0 -131 -174h-110q0 278 252 278q58 0 117 -24.5t106.5 -59.5t93.5 -70.5t95.5 -60t94.5 -24.5q67 0 99.5 41.5t32.5 132.5zM1176 500h110q0 -279 -252 -279q-58 0 -116 24.5
t-106 60t-94.5 71t-96.5 60t-95 24.5q-131 0 -131 -174h-110q0 278 252 278q58 0 117 -24.5t106.5 -59.5t93.5 -70.5t95.5 -60t94.5 -24.5q67 0 99.5 41.5t32.5 132.5z" />
    <glyph glyph-name="notequal" unicode="&#x2260;" horiz-adv-x="1398" 
d="M1294 834v-111h-358l-188 -291h546v-110h-618l-166 -261h-125l168 261h-289v110h361l190 291h-551v111h623l170 260h117l-168 -260h288z" />
    <glyph glyph-name="lessequal" unicode="&#x2264;" horiz-adv-x="1400" 
d="M1276 246l-1032 358v131l1032 359v-123l-854 -281v-41l854 -280v-123zM244 0v111h1032v-111h-1032z" />
    <glyph glyph-name="greaterequal" unicode="&#x2265;" horiz-adv-x="1400" 
d="M1317 604l-1032 -358v123l854 280v41l-854 281v123l1032 -359v-131zM1317 111v-111h-1032v111h1032z" />
    <glyph glyph-name="lozenge" unicode="&#x25ca;" horiz-adv-x="1060" 
d="M723 1462l332 -731l-332 -731h-152l-331 731l331 731h152zM668 143l254 588l-254 588h-41l-254 -588l254 -588h41z" />
    <glyph glyph-name="commaaccent" unicode="&#xf6c3;" horiz-adv-x="305" 
d="M82 -440h-88l119 123l6 34h-84l28 162h173l-35 -196z" />
    <glyph glyph-name="uniFEFF" unicode="&#xfeff;" horiz-adv-x="0" 
 />
    <glyph glyph-name="seven.numr" horiz-adv-x="626" 
d="M301 1462h533l-19 -102l-475 -678h-123l447 637l8 43h-389z" />
    <glyph glyph-name="eight.numr" horiz-adv-x="763" 
d="M868 1268q0 -52 -33 -98.5t-85 -77.5l-5 -25q38 -28 62 -68.5t24 -85.5q0 -113 -87.5 -179t-217.5 -66q-120 0 -201 59.5t-81 161.5q0 139 137 203l4 24q-59 59 -59 137q0 99 79 161.5t203 62.5q109 0 184.5 -55.5t75.5 -153.5zM528 768q87 0 139 38.5t52 106.5
q0 59 -50.5 93t-127.5 34q-79 0 -132 -41t-53 -106q0 -59 48.5 -92t123.5 -33zM586 1141q75 0 122.5 32.5t47.5 92.5q0 51 -45 80.5t-105 29.5q-74 0 -122 -34t-48 -93q0 -52 44 -80t106 -28z" />
    <glyph glyph-name="nine.numr" horiz-adv-x="747" 
d="M522 944q-111 0 -178.5 65.5t-67.5 166.5q0 127 80 214t219 87q118 0 194.5 -73.5t76.5 -215.5q0 -48 -7.5 -101.5t-23 -113t-44 -113t-66 -97.5t-92.5 -69.5t-121 -25.5q-99 0 -164 52.5t-82 149.5h112q14 -102 136 -102q82 0 142 71t73 165h-31q-21 -25 -65 -42.5
t-91 -17.5zM565 1376q-87 0 -131.5 -56t-44.5 -136q0 -62 41.5 -101t114.5 -39q88 0 135 52.5t47 134.5q0 64 -41.5 104.5t-120.5 40.5z" />
    <glyph glyph-name="zero.dnom" horiz-adv-x="774" 
d="M502 795q120 0 188 -74.5t68 -218.5q0 -229 -98 -372.5t-261 -143.5q-120 0 -189 73.5t-69 216.5q0 229 99 374t262 145zM403 86q64 0 113 39t76 102.5t40 133t13 141.5q0 91 -40 141.5t-105 50.5q-64 0 -113.5 -39.5t-77.5 -103t-41.5 -133.5t-13.5 -142
q0 -90 40.5 -140t108.5 -50z" />
    <glyph glyph-name="one.dnom" horiz-adv-x="673" 
d="M418 100h198l-16 -100h-510l16 100h199l96 541h-32l-183 -96l21 117l221 118h111z" />
    <glyph glyph-name="two.dnom" horiz-adv-x="720" 
d="M659 100l-20 -100h-557l24 127l347 242q29 20 47.5 35t44 41t38.5 58t13 68q0 54 -38 88.5t-101 34.5q-146 0 -178 -157h-113q24 130 103.5 194t195.5 64q105 0 174.5 -59t69.5 -154q0 -53 -18 -99.5t-52 -83.5t-62.5 -60.5t-70.5 -51.5l-230 -160l-6 -27h389z" />
    <glyph glyph-name="six.numr" horiz-adv-x="747" 
d="M586 1200q111 0 178 -65t67 -166q0 -127 -80 -214t-219 -87q-118 0 -194 73t-76 215q0 59 10 124t36 137t64.5 128.5t102 94t141.5 37.5q99 0 164 -53t82 -150h-112q-14 102 -136 102q-82 0 -142 -71t-73 -164h31q21 24 64.5 41.5t91.5 17.5zM543 768q87 0 131.5 56
t44.5 137q0 62 -41.5 100.5t-114.5 38.5q-88 0 -135 -52.5t-47 -134.5q0 -64 41.5 -104.5t120.5 -40.5z" />
    <glyph glyph-name="four.dnom" horiz-adv-x="792" 
d="M647 285h113l-19 -101h-112l-31 -184h-113l31 184h-401l18 109l445 487h157zM279 285h256l59 344h-31l-278 -314z" />
    <glyph glyph-name="five.dnom" horiz-adv-x="735" 
d="M721 680h-379l-49 -182h41q43 37 125 37q103 0 169 -65t66 -169q0 -149 -87.5 -232t-213.5 -83q-129 0 -203.5 76t-74.5 176h108q6 -72 51.5 -112t120.5 -40q76 0 131.5 52.5t55.5 148.5q0 67 -41.5 107t-112.5 40q-102 0 -160 -76h-114l106 420h477z" />
    <glyph glyph-name="six.dnom" horiz-adv-x="747" 
d="M465 518q111 0 178.5 -65t67.5 -166q0 -127 -80 -214t-219 -87q-118 0 -194.5 73t-76.5 215q0 59 10 124t36.5 137t65 129t102 94t141.5 37q99 0 163.5 -52.5t81.5 -150.5h-112q-14 102 -135 102q-82 0 -142 -71t-73 -164h30q21 24 64.5 41.5t91.5 17.5zM422 86
q87 0 131.5 56t44.5 137q0 62 -41.5 100.5t-114.5 38.5q-88 0 -135 -52.5t-47 -134.5q0 -64 41.5 -104.5t120.5 -40.5z" />
    <glyph glyph-name="seven.dnom" horiz-adv-x="626" 
d="M180 780h533l-19 -102l-475 -678h-123l447 637l8 43h-389z" />
    <glyph glyph-name="eight.dnom" horiz-adv-x="763" 
d="M748 586q0 -52 -33.5 -98.5t-85.5 -77.5l-4 -25q38 -28 62 -68.5t24 -85.5q0 -113 -87.5 -179t-217.5 -66q-120 0 -201.5 59.5t-81.5 161.5q0 139 137 203l4 24q-59 59 -59 137q0 99 79 161.5t203 62.5q109 0 185 -55.5t76 -153.5zM408 86q87 0 138.5 38.5t51.5 106.5
q0 59 -50.5 93t-127.5 34q-79 0 -131.5 -41t-52.5 -106q0 -59 48.5 -92t123.5 -33zM465 459q75 0 122.5 32.5t47.5 92.5q0 51 -45 80.5t-105 29.5q-74 0 -122 -34t-48 -93q0 -52 44 -80t106 -28z" />
    <glyph glyph-name="nine.dnom" horiz-adv-x="747" 
d="M410 262q-111 0 -178.5 65.5t-67.5 166.5q0 127 80 214t219 87q118 0 194 -73.5t76 -215.5q0 -48 -7.5 -101.5t-23 -113t-44 -113t-66 -97.5t-92.5 -69.5t-121 -25.5q-99 0 -164 52.5t-82 149.5h113q14 -102 135 -102q82 0 142 71t73 165h-31q-21 -25 -64.5 -42.5
t-90.5 -17.5zM453 694q-87 0 -132 -56t-45 -136q0 -62 41.5 -101t114.5 -39q88 0 135 52.5t47 134.5q0 65 -41 105t-120 40z" />
    <glyph glyph-name="zero.onum" horiz-adv-x="1245" 
d="M758 1051q130 0 236 -53t170.5 -158.5t64.5 -245.5q0 -178 -65.5 -318t-194 -221.5t-301.5 -81.5q-130 0 -236 53t-170.5 158.5t-64.5 245.5q0 276 150.5 448.5t410.5 172.5zM676 88q131 0 229.5 71t146.5 184t48 249q0 158 -97 251t-253 93q-131 0 -229.5 -70.5
t-146.5 -183.5t-48 -250q0 -157 97.5 -250.5t252.5 -93.5z" />
    <glyph glyph-name="one.onum" horiz-adv-x="894" 
d="M123 0l20 115h291l137 772h-39l-282 -168l24 139l283 166h168l-162 -909h271l-21 -115h-690z" />
    <glyph glyph-name="two.onum" horiz-adv-x="1112" 
d="M1024 115l-20 -115h-891l26 154l479 223q57 26 96.5 46.5t87.5 53.5t77.5 66t50 79.5t20.5 98.5q0 96 -71 155.5t-197 59.5q-149 0 -234 -78t-106 -221h-129q10 86 46 160.5t94.5 131.5t144.5 89.5t190 32.5q95 0 171 -27.5t123 -74t72 -104t25 -120.5q0 -57 -15.5 -107
t-46.5 -91t-66 -74.5t-86 -65.5t-94.5 -54.5t-102.5 -49.5l-279 -129l-6 -39h641z" />
    <glyph glyph-name="three.onum" horiz-adv-x="1136" 
d="M1106 868l-451 -342l-6 -41q99 -4 175.5 -39t121 -92t66.5 -124t22 -140q0 -223 -141.5 -367.5t-378.5 -144.5q-196 0 -325.5 114t-129.5 300h129q11 -140 101 -219.5t239 -79.5q168 0 272.5 113.5t104.5 279.5q0 139 -81 216t-218 77q-80 0 -129 -12l29 174l428 327
l8 41h-637l17 115h808z" />
    <glyph glyph-name="four.onum" horiz-adv-x="1234" 
d="M952 115h205l-20 -115h-205l-72 -410h-129l72 410h-721l27 156l790 868h213zM254 115h569l135 768h-40l-658 -727z" />
    <glyph glyph-name="five.onum" horiz-adv-x="1193" 
d="M1153 909h-684l-111 -454h43q99 106 271 106q195 0 311.5 -116t116.5 -302q0 -135 -43 -244.5t-115.5 -178.5t-163.5 -105.5t-192 -36.5q-110 0 -199.5 35.5t-145.5 95t-87 132t-33 151.5h127q11 -141 101.5 -220t242.5 -79q71 0 137.5 28t121 81t87.5 140t33 195
q0 142 -82 224.5t-232 82.5q-199 0 -317 -149h-139l180 729h790z" />
    <glyph glyph-name="six.onum" horiz-adv-x="1189" 
d="M754 926q193 0 312.5 -117.5t119.5 -292.5q0 -149 -58.5 -270.5t-176.5 -197t-277 -75.5q-90 0 -169.5 32t-142 94t-99 163t-36.5 230q0 78 8.5 163t29.5 180.5t52.5 183.5t80 169.5t109 141.5t144 96t180.5 36q165 0 274 -86.5t132 -238.5h-129q-19 99 -93.5 155
t-187.5 56q-89 0 -165.5 -46.5t-130 -125.5t-89.5 -174.5t-53 -200.5h41q55 55 139.5 90t184.5 35zM692 88q91 0 163 35.5t115 95t65 131.5t22 150q0 137 -86 224t-236 87q-174 0 -272 -114.5t-98 -282.5q0 -141 84.5 -233.5t242.5 -92.5z" />
    <glyph glyph-name="seven.onum" horiz-adv-x="1101" 
d="M1130 872l-815 -1282h-141l813 1282l8 41h-731l19 111h874z" />
    <glyph glyph-name="eight.onum" horiz-adv-x="1228" 
d="M1008 756l-9 -39q81 -53 128 -133t47 -176q0 -129 -70 -229.5t-186 -153t-256 -52.5q-129 0 -236.5 46t-173.5 137t-66 209q0 138 73.5 237t207.5 154l8 39q-139 89 -139 270q0 177 133.5 287t339.5 110q117 0 213.5 -41.5t157.5 -126t61 -196.5q0 -115 -62 -206.5
t-171 -135.5zM465 1061q0 -119 90.5 -186.5t216.5 -67.5q148 0 244 77.5t96 209.5q0 114 -91.5 184t-215.5 70q-147 0 -243.5 -80t-96.5 -207zM315 373q0 -128 103.5 -206.5t249.5 -78.5q164 0 270 88.5t106 231.5q0 135 -103 211.5t-253 76.5q-163 0 -268 -88.5
t-105 -234.5z" />
    <glyph glyph-name="nine.onum" horiz-adv-x="1189" 
d="M627 98q-193 0 -312.5 117.5t-119.5 292.5q0 149 58.5 270.5t176.5 197t277 75.5q90 0 169.5 -32t142 -94t98.5 -163t36 -230q0 -78 -8.5 -162t-29.5 -178t-52.5 -180.5t-80 -166.5t-109 -138.5t-144 -93.5t-180.5 -35q-165 0 -274 87t-132 239h129q19 -99 93.5 -155
t187.5 -56q89 0 165.5 44t130 119t89.5 168t53 199h-41q-55 -55 -139 -90t-184 -35zM688 936q-91 0 -162.5 -35.5t-114.5 -95t-65 -131t-22 -150.5q0 -137 85.5 -224t235.5 -87q174 0 272.5 114.5t98.5 282.5q0 141 -84.5 233.5t-243.5 92.5z" />
    <glyph glyph-name="zero.tnum" horiz-adv-x="1290" 
d="M252 498q0 280 74.5 498.5t214.5 342t323 123.5q196 0 311 -135t115 -389q0 -280 -74.5 -499t-214.5 -342.5t-323 -123.5q-195 0 -310.5 135.5t-115.5 389.5zM385 498q0 -132 37 -219l637 976q-76 88 -201 88q-101 0 -183 -53t-135 -138.5t-89 -198.5t-51 -226.5
t-15 -228.5zM1157 938q0 118 -35 211l-637 -973q78 -84 199 -84q85 0 157 37t122.5 101.5t89 147t60.5 179t33 191.5t11 190z" />
    <glyph glyph-name="one.tnum" horiz-adv-x="1290" 
d="M129 0l21 119h487l207 1171h-39l-391 -229l24 143l391 230h172l-231 -1315h418l-21 -119h-1038z" />
    <glyph glyph-name="two.tnum" horiz-adv-x="1290" 
d="M1141 119l-21 -119h-940l27 160q47 35 130 99.5t114 88.5q244 185 393 309q44 35 72 59t69.5 69t65.5 87t42.5 102t18.5 124q0 114 -79.5 179.5t-207.5 65.5q-138 0 -228 -72.5t-122 -217.5h-131q20 105 67.5 184.5t115.5 128t148.5 72.5t172.5 24q171 0 284 -98.5
t113 -259.5q0 -71 -22 -139.5t-52 -119.5t-83.5 -109.5t-93 -94.5t-103.5 -90q-50 -43 -295 -234l-205 -157l-6 -41h756z" />
    <glyph glyph-name="three.tnum" horiz-adv-x="1290" 
d="M1255 1274l-450 -348l-6 -41q99 -4 176 -39.5t121.5 -93t67 -125t22.5 -140.5q0 -222 -143.5 -368t-378.5 -146q-195 0 -326 114.5t-131 299.5h133q10 -139 99.5 -217t238.5 -78q167 0 271 113t104 278q0 139 -80 215t-217 76q-80 0 -129 -12l28 172l432 340l9 41h-641
l16 119h809z" />
    <glyph glyph-name="four.tnum" horiz-adv-x="1290" 
d="M1038 469h201l-20 -119h-201l-62 -350h-131l62 350h-709l27 160l788 924h215zM352 469h555l142 817h-41l-650 -776z" />
    <glyph glyph-name="five.tnum" horiz-adv-x="1290" 
d="M1270 1315h-682l-111 -461h43q100 107 268 107q195 0 313 -116.5t118 -303.5q0 -135 -43.5 -245t-116.5 -179.5t-164.5 -106.5t-192.5 -37q-111 0 -201 35t-147 93.5t-87.5 132t-30.5 153.5h131q7 -140 98 -217.5t244 -77.5q72 0 137.5 27.5t119.5 80.5t86.5 139.5
t32.5 195.5q0 142 -80.5 224.5t-230.5 82.5q-200 0 -317 -148h-142l181 740h792z" />
    <glyph glyph-name="six.tnum" horiz-adv-x="1290" 
d="M805 926q193 0 313.5 -117.5t120.5 -292.5q0 -148 -59.5 -270.5t-178 -197.5t-276.5 -75q-90 0 -170 32t-143 94t-99.5 163.5t-36.5 229.5q0 84 9.5 172t31.5 184t54.5 183.5t82.5 166.5t112 137.5t146 92.5t181 34q165 0 271 -86.5t126 -238.5h-133q-19 100 -87.5 153
t-180.5 53q-89 0 -166.5 -44t-133.5 -119t-94.5 -172t-54.5 -207h41q55 55 139.5 90t184.5 35zM743 92q90 0 161.5 34.5t114.5 93t65 130t22 150.5q0 138 -84.5 222.5t-235.5 84.5q-174 0 -271 -112.5t-97 -280.5q0 -141 83 -231.5t242 -90.5z" />
    <glyph glyph-name="seven.tnum" horiz-adv-x="1290" 
d="M1300 1274l-813 -1274h-141l811 1274l8 41h-731l21 119h874z" />
    <glyph glyph-name="eight.tnum" horiz-adv-x="1290" 
d="M1040 752l-8 -39q81 -53 128.5 -132.5t47.5 -174.5q0 -130 -70 -230t-186.5 -151.5t-257.5 -51.5q-129 0 -236.5 45.5t-174 135.5t-66.5 208q0 137 74.5 235.5t208.5 154.5l8 39q-65 42 -105.5 110.5t-40.5 161.5q0 175 137.5 287t342.5 112q117 0 215 -42t160.5 -127
t62.5 -197q0 -115 -65 -207t-175 -137zM496 1059q0 -79 44 -137.5t113 -86.5t152 -28q151 0 246.5 77t95.5 208q0 114 -91.5 182.5t-217.5 68.5q-150 0 -246 -78t-96 -206zM350 371q0 -128 101.5 -203.5t248.5 -75.5q166 0 270.5 85.5t104.5 228.5q0 90 -49.5 155t-128.5 96
t-176 31q-164 0 -267.5 -86t-103.5 -231z" />
    <glyph glyph-name="nine.tnum" horiz-adv-x="1290" 
d="M737 510q-193 0 -313.5 117.5t-120.5 292.5q0 148 59.5 270t178 197t276.5 75q91 0 170.5 -32t142.5 -93.5t99.5 -163t36.5 -229.5q0 -84 -9.5 -172t-31.5 -184t-54.5 -183.5t-82.5 -167t-112 -137.5t-146 -92.5t-181 -34.5q-164 0 -270.5 87t-126.5 239h133
q19 -100 87.5 -153.5t180.5 -53.5q118 0 214.5 76.5t154.5 197.5t80 269h-41q-55 -55 -139.5 -90t-184.5 -35zM799 1343q-90 0 -161.5 -34.5t-114.5 -92.5t-65 -129.5t-22 -150.5q0 -138 84.5 -222.5t235.5 -84.5q174 0 271 112.5t97 280.5q0 141 -83 231t-242 90z" />
    <glyph glyph-name="dollar.tnum" horiz-adv-x="1290" 
d="M975 1634l-33 -186q133 -30 222.5 -124t109.5 -237h-133q-37 190 -219 242l-95 -532l64 -21q141 -45 224 -142.5t83 -240.5q0 -189 -139.5 -304.5t-358.5 -115.5h-16l-31 -174h-104l31 185q-77 13 -143 43t-119 78t-87.5 119t-44.5 159h133q32 -231 283 -281l105 603
l-54 18q-49 16 -88 34.5t-79.5 47.5t-68 63.5t-44.5 84t-17 108.5q0 121 63.5 213.5t169 140t234.5 47.5h17l30 172h105zM842 662l-35 10l-102 -580h16q147 0 245.5 77t98.5 216q0 109 -54.5 175t-168.5 102zM700 838l29 -11l90 516h-12q-89 0 -158.5 -27t-114.5 -89.5
t-45 -153.5q0 -97 52.5 -149t158.5 -86z" />
    <glyph glyph-name="Euro.tnum" horiz-adv-x="1290" 
d="M176 813l55 107h121q75 252 227.5 397t360.5 145q175 0 285.5 -103t130.5 -296h-133q-12 135 -90.5 207.5t-198.5 72.5q-163 0 -274 -116.5t-168 -306.5h536l-55 -107h-510q-19 -104 -25 -160h451l-55 -106h-404v-49q0 -191 87 -298.5t237 -107.5q143 0 236.5 80.5
t137.5 218.5h132q-57 -199 -190.5 -308.5t-321.5 -109.5q-192 0 -321.5 141t-129.5 384v49h-168l55 106h119q8 73 25 160h-152z" />
    <glyph glyph-name="sterling.tnum" horiz-adv-x="1290" 
d="M432 119h789l-21 -119h-1059l21 119h43q76 0 118 47.5t60 144.5l51 283h-188l20 119h189l57 327q74 422 449 422q159 0 259.5 -82t100.5 -231q0 -39 -6 -86h-131q6 37 6 72q0 97 -59.5 152.5t-174.5 55.5q-74 0 -129.5 -23t-91 -67t-56.5 -95.5t-34 -119.5l-57 -325h434
l-21 -119h-434l-47 -264q-9 -44 -15 -65t-23 -51.5t-44 -53.5z" />
    <glyph glyph-name="yen.tnum" horiz-adv-x="1290" 
d="M385 606l18 107h203l-264 721h135l262 -721h58l516 721h147l-522 -721h207l-19 -107h-266l-55 -78l-14 -82h307l-19 -106h-307l-59 -340h-131l59 340h-303l18 106h303l15 82l-29 78h-260z" />
    <glyph glyph-name="uni20BD.tnum" horiz-adv-x="1290" 
d="M190 623l19 106h186l123 705h457q170 0 281.5 -96t111.5 -263q0 -114 -41.5 -202t-114.5 -142t-166.5 -81t-203.5 -27h-332l-29 -160h492l-19 -107h-491l-64 -356h-131l62 356h-187l19 107h186l29 160h-187zM530 729h330q165 0 270 89t105 255q0 119 -80 180.5t-205 61.5
h-317z" />
    <glyph glyph-name="uni20B4.tnum" horiz-adv-x="1290" 
d="M1108 362h137q-48 -184 -181.5 -286.5t-340.5 -102.5q-210 0 -329.5 109t-119.5 280q0 94 48 179h-127l16 106h1077l-18 -106h-805q-57 -80 -57 -185q0 -119 86 -191.5t233 -72.5q145 0 244 68.5t137 201.5zM1315 807h-1075l16 106h813q68 78 68 187q0 111 -77.5 177
t-187.5 66q-266 0 -344 -231h-133q39 156 162 253t317 97q176 0 286 -103t110 -259q0 -96 -58 -187h121z" />
    <glyph glyph-name="uni20B8.tnum" horiz-adv-x="1290" 
d="M346 1061l19 106h976l-18 -106h-422l-186 -1061h-133l186 1061h-422zM393 1327l19 107h977l-19 -107h-977z" />
    <glyph glyph-name="cent.tnum" horiz-adv-x="1290" 
d="M1018 293h133q-43 -150 -159 -235t-287 -85l-25 -137h-105l27 150q-141 33 -229 146t-88 280q0 125 34.5 238t97.5 201t160 141t214 57l24 139h105l-27 -146q127 -23 208.5 -104.5t100.5 -198.5h-131q-18 75 -69 126.5t-130 64.5l-147 -842q108 0 184 55t109 150z
M414 418q0 -127 55 -210t154 -108l147 834q-110 -8 -193 -86.5t-123 -191.5t-40 -238z" />
    <glyph glyph-name="hungarumlaut.cap" horiz-adv-x="761" 
d="M508 1835l-240 -264h-114l194 264h160zM803 1835l-240 -264h-114l194 264h160z" />
    <glyph glyph-name="breve.cap" horiz-adv-x="706" 
d="M643 1835h109q-25 -131 -111.5 -197.5t-208.5 -66.5q-105 0 -175.5 56.5t-70.5 150.5q0 21 4 57h109q-4 -28 -4 -39q0 -64 39 -95.5t108 -31.5q159 0 201 166z" />
    <glyph glyph-name="dotaccent.cap" horiz-adv-x="290" 
d="M313 1673h-141l27 162h141z" />
    <glyph glyph-name="caron.cap" horiz-adv-x="722" 
d="M369 1571l-170 264h129l106 -162h41l160 162h137l-260 -264h-143z" />
    <glyph glyph-name="ring.cap" horiz-adv-x="581" 
d="M381 1978q89 0 152 -63t63 -152t-63 -153t-152 -64t-153 64t-64 153t64 152t153 63zM381 1640q54 0 88.5 34.5t34.5 88.5t-34.5 88.5t-88.5 34.5t-88.5 -34.5t-34.5 -88.5t34.5 -88.5t88.5 -34.5z" />
    <glyph glyph-name="tilde.cap" horiz-adv-x="815" 
d="M768 1835h98q-24 -138 -79.5 -201t-143.5 -63q-37 0 -72 17t-61 41t-49.5 48t-48 41t-47.5 17q-85 0 -113 -164h-98q24 138 79.5 201t143.5 63q37 0 72 -17t61 -41t49.5 -48t48 -41t47.5 -17q86 0 113 164z" />
    <glyph glyph-name="grave.cap" horiz-adv-x="479" 
d="M369 1571l-170 264h159l125 -264h-114z" />
    <glyph glyph-name="macron.cap" horiz-adv-x="710" 
d="M733 1673h-561l18 111h562z" />
    <glyph glyph-name="acute.cap" horiz-adv-x="479" 
d="M532 1835l-260 -264h-122l215 264h167z" />
    <glyph glyph-name="dieresis.cap" horiz-adv-x="651" 
d="M313 1673h-141l27 162h141zM674 1673h-142l27 162h141z" />
    <glyph glyph-name="circumflex.cap" horiz-adv-x="722" 
d="M154 1571l260 264h143l170 -264h-125l-104 162h-41l-162 -162h-141z" />
    <glyph glyph-name="cyrbreve" horiz-adv-x="819" 
d="M866 1489h109q-24 -142 -116.5 -219.5t-221.5 -77.5q-115 0 -189.5 62.5t-74.5 175.5q0 29 6 59h104q-4 -28 -4 -43q0 -72 45.5 -113t120.5 -41q87 0 145.5 52.5t75.5 144.5z" />
    <glyph glyph-name="cyrbreve.cap" horiz-adv-x="837" 
d="M770 1851h121q-29 -151 -134.5 -235t-252.5 -84q-131 0 -218 67t-87 187q0 30 6 65h117q-5 -35 -5 -41q0 -77 53 -122.5t140 -45.5q100 0 171.5 56t88.5 153z" />
    <glyph glyph-name="hyphen.case" horiz-adv-x="737" 
d="M754 680h-533l21 117h532z" />
    <glyph glyph-name="endash.case" horiz-adv-x="1259" 
d="M1276 680h-1055l21 117h1054z" />
    <glyph glyph-name="emdash.case" horiz-adv-x="1792" 
d="M1808 680h-1587l21 117h1587z" />
    <glyph glyph-name="emdash.ss02.case" horiz-adv-x="2959" 
d="M2976 680h-2755l21 117h2754z" />
    <glyph glyph-name="bracketleft.case" horiz-adv-x="610" 
d="M459 -190h-330l324 1843h329l-18 -111h-201l-287 -1622h201z" />
    <glyph glyph-name="bracketright.case" horiz-adv-x="610" 
d="M406 1653h329l-323 -1843h-330l18 110h201l287 1622h-201z" />
    <glyph glyph-name="braceleft.case" horiz-adv-x="768" 
d="M465 752l-8 -41q73 -25 73 -129q0 -49 -12 -95l-61 -356q-8 -36 -8 -86q0 -68 40 -96.5t113 -28.5h68l-19 -110h-67q-123 0 -194 53.5t-71 169.5q0 52 11 98l59 346q10 65 10 96q0 52 -22.5 77.5t-75.5 25.5h-20l20 110h21q73 0 105.5 47.5t51.5 151.5l64 363
q28 161 113.5 233t226.5 72h92l-19 -111h-73q-85 0 -138.5 -45.5t-72.5 -150.5l-70 -394q-17 -90 -50 -136t-87 -64z" />
    <glyph glyph-name="braceright.case" horiz-adv-x="768" 
d="M573 711l9 41q-74 25 -74 129q0 48 12 94l62 356q8 36 8 86q0 125 -154 125h-67l18 111h68q123 0 193.5 -53.5t70.5 -169.5q0 -57 -10 -99l-60 -346q-10 -65 -10 -96q0 -52 22.5 -77.5t75.5 -25.5h21l-21 -110h-20q-73 0 -106 -47.5t-52 -151.5l-63 -362
q-28 -161 -113.5 -233t-226.5 -72h-93l19 110h74q175 0 211 197l69 393q17 90 50 136.5t87 64.5z" />
    <glyph glyph-name="parenleft.case" horiz-adv-x="585" 
d="M532 -190h-126q-203 307 -203 710q0 326 135.5 614.5t370.5 518.5h151q-250 -250 -387 -529t-137 -604q0 -387 196 -710z" />
    <glyph glyph-name="parenright.case" horiz-adv-x="587" 
d="M293 1653h127q203 -307 203 -711q0 -326 -135.5 -614t-370.5 -518h-152q251 251 387.5 529t136.5 603q0 388 -196 711z" />
    <glyph glyph-name="guillemotright.case" horiz-adv-x="1077" 
d="M952 698l9 41l-263 338h140l245 -305l-20 -121l-346 -303h-152zM561 698l8 41l-262 338h139l246 -305l-20 -121l-346 -303h-152z" />
    <glyph glyph-name="guillemotleft.case" horiz-adv-x="1077" 
d="M369 727l-9 -41l263 -338h-140l-245 305l20 121l346 303h152zM760 727l-8 -41l262 -338h-140l-245 305l20 121l346 303h152z" />
    <glyph glyph-name="guilsinglright.case" horiz-adv-x="686" 
d="M561 698l8 41l-262 338h139l246 -305l-20 -121l-346 -303h-152z" />
    <glyph glyph-name="guilsinglleft.case" horiz-adv-x="686" 
d="M369 727l-9 -41l263 -338h-140l-245 305l20 121l346 303h152z" />
    <glyph glyph-name="exclamdown.case" horiz-adv-x="618" 
d="M358 0h-135l107 608l112 490h84l-61 -490zM461 1462h172l-35 -209h-172z" />
    <glyph glyph-name="questiondown.case" horiz-adv-x="1093" 
d="M592 -27q-167 0 -277 94.5t-110 247.5q0 144 73 248t226 197q53 32 83 54.5t58.5 54.5t44 72t25.5 97l10 60h129l-10 -60q-16 -94 -52 -158t-87 -108.5t-150 -107.5q-114 -70 -167.5 -150.5t-53.5 -194.5q0 -105 72.5 -171t197.5 -66q139 0 222 77t108 220h127
q-34 -193 -149 -299.5t-320 -106.5zM762 1462h166l-35 -207h-166z" />
    <glyph glyph-name="a.ss03" horiz-adv-x="1228" 
d="M197 422q0 89 20 176.5t62.5 169.5t103 145t148.5 100.5t192 37.5q106 0 192.5 -40.5t131.5 -121.5h40l25 135h125l-180 -1024h-125l20 113h-41q-45 -61 -129.5 -100.5t-179.5 -39.5q-98 0 -176 36t-127.5 98t-75.5 142.5t-26 172.5zM608 88q81 0 149.5 31.5t115.5 83
t80.5 118.5t49 136.5t15.5 138.5q0 161 -75.5 250.5t-219.5 89.5q-74 0 -144.5 -33.5t-127 -95.5t-91 -162t-34.5 -221q0 -148 72.5 -242t209.5 -94z" />
    <glyph glyph-name="atilde.ss03" horiz-adv-x="1228" 
d="M197 422q0 89 20 176.5t62.5 169.5t103 145t148.5 100.5t192 37.5q106 0 192.5 -40.5t131.5 -121.5h40l25 135h125l-180 -1024h-125l20 113h-41q-45 -61 -129.5 -100.5t-179.5 -39.5q-98 0 -176 36t-127.5 98t-75.5 142.5t-26 172.5zM608 88q81 0 149.5 31.5t115.5 83
t80.5 118.5t49 136.5t15.5 138.5q0 161 -75.5 250.5t-219.5 89.5q-74 0 -144.5 -33.5t-127 -95.5t-91 -162t-34.5 -221q0 -148 72.5 -242t209.5 -94zM1098 1470h98q-24 -138 -79.5 -201t-143.5 -63q-37 0 -72 17t-61 41t-49.5 48t-48.5 41t-48 17q-84 0 -112 -164h-99
q24 138 80 201t144 63q37 0 72 -17t61 -41t49.5 -47.5t48 -40.5t47.5 -17q86 0 113 163z" />
    <glyph glyph-name="adieresis.ss03" horiz-adv-x="1228" 
d="M197 422q0 89 20 176.5t62.5 169.5t103 145t148.5 100.5t192 37.5q106 0 192.5 -40.5t131.5 -121.5h40l25 135h125l-180 -1024h-125l20 113h-41q-45 -61 -129.5 -100.5t-179.5 -39.5q-98 0 -176 36t-127.5 98t-75.5 142.5t-26 172.5zM608 88q81 0 149.5 31.5t115.5 83
t80.5 118.5t49 136.5t15.5 138.5q0 161 -75.5 250.5t-219.5 89.5q-74 0 -144.5 -33.5t-127 -95.5t-91 -162t-34.5 -221q0 -148 72.5 -242t209.5 -94zM727 1327h-141l28 162h142zM1087 1327h-141l29 162h141z" />
    <glyph glyph-name="acircumflex.ss03" horiz-adv-x="1228" 
d="M197 422q0 89 20 176.5t62.5 169.5t103 145t148.5 100.5t192 37.5q106 0 192.5 -40.5t131.5 -121.5h40l25 135h125l-180 -1024h-125l20 113h-41q-45 -61 -129.5 -100.5t-179.5 -39.5q-98 0 -176 36t-127.5 98t-75.5 142.5t-26 172.5zM608 88q81 0 149.5 31.5t115.5 83
t80.5 118.5t49 136.5t15.5 138.5q0 161 -75.5 250.5t-219.5 89.5q-74 0 -144.5 -33.5t-127 -95.5t-91 -162t-34.5 -221q0 -148 72.5 -242t209.5 -94zM938 1489l162 -297h-123l-105 194h-41l-174 -194h-131l269 297h143z" />
    <glyph glyph-name="agrave.ss03" horiz-adv-x="1228" 
d="M197 422q0 89 20 176.5t62.5 169.5t103 145t148.5 100.5t192 37.5q106 0 192.5 -40.5t131.5 -121.5h40l25 135h125l-180 -1024h-125l20 113h-41q-45 -61 -129.5 -100.5t-179.5 -39.5q-98 0 -176 36t-127.5 98t-75.5 142.5t-26 172.5zM608 88q81 0 149.5 31.5t115.5 83
t80.5 118.5t49 136.5t15.5 138.5q0 161 -75.5 250.5t-219.5 89.5q-74 0 -144.5 -33.5t-127 -95.5t-91 -162t-34.5 -221q0 -148 72.5 -242t209.5 -94zM774 1192l-162 297h160l117 -297h-115z" />
    <glyph glyph-name="aacute.ss03" horiz-adv-x="1228" 
d="M197 422q0 89 20 176.5t62.5 169.5t103 145t148.5 100.5t192 37.5q106 0 192.5 -40.5t131.5 -121.5h40l25 135h125l-180 -1024h-125l20 113h-41q-45 -61 -129.5 -100.5t-179.5 -39.5q-98 0 -176 36t-127.5 98t-75.5 142.5t-26 172.5zM608 88q81 0 149.5 31.5t115.5 83
t80.5 118.5t49 136.5t15.5 138.5q0 161 -75.5 250.5t-219.5 89.5q-74 0 -144.5 -33.5t-127 -95.5t-91 -162t-34.5 -221q0 -148 72.5 -242t209.5 -94zM1128 1489l-268 -297h-123l224 297h167z" />
    <glyph glyph-name="aring.ss03" horiz-adv-x="1228" 
d="M197 422q0 89 20 176.5t62.5 169.5t103 145t148.5 100.5t192 37.5q106 0 192.5 -40.5t131.5 -121.5h40l25 135h125l-180 -1024h-125l20 113h-41q-45 -61 -129.5 -100.5t-179.5 -39.5q-98 0 -176 36t-127.5 98t-75.5 142.5t-26 172.5zM608 88q81 0 149.5 31.5t115.5 83
t80.5 118.5t49 136.5t15.5 138.5q0 161 -75.5 250.5t-219.5 89.5q-74 0 -144.5 -33.5t-127 -95.5t-91 -162t-34.5 -221q0 -148 72.5 -242t209.5 -94zM842 1624q89 0 152 -63t63 -152t-63 -153t-152 -64t-153 64t-64 153t64 152t153 63zM842 1286q54 0 88.5 34.5t34.5 88.5
t-34.5 88.5t-88.5 34.5t-88.5 -34.5t-34.5 -88.5t34.5 -88.5t88.5 -34.5z" />
    <glyph glyph-name="amacron.ss03" horiz-adv-x="1228" 
d="M197 422q0 89 20 176.5t62.5 169.5t103 145t148.5 100.5t192 37.5q106 0 192.5 -40.5t131.5 -121.5h40l25 135h125l-180 -1024h-125l20 113h-41q-45 -61 -129.5 -100.5t-179.5 -39.5q-98 0 -176 36t-127.5 98t-75.5 142.5t-26 172.5zM608 88q81 0 149.5 31.5t115.5 83
t80.5 118.5t49 136.5t15.5 138.5q0 161 -75.5 250.5t-219.5 89.5q-74 0 -144.5 -33.5t-127 -95.5t-91 -162t-34.5 -221q0 -148 72.5 -242t209.5 -94zM1143 1327h-561l18 111h561z" />
    <glyph glyph-name="abreve.ss03" horiz-adv-x="1228" 
d="M197 422q0 89 20 176.5t62.5 169.5t103 145t148.5 100.5t192 37.5q106 0 192.5 -40.5t131.5 -121.5h40l25 135h125l-180 -1024h-125l20 113h-41q-45 -61 -129.5 -100.5t-179.5 -39.5q-98 0 -176 36t-127.5 98t-75.5 142.5t-26 172.5zM608 88q81 0 149.5 31.5t115.5 83
t80.5 118.5t49 136.5t15.5 138.5q0 161 -75.5 250.5t-219.5 89.5q-74 0 -144.5 -33.5t-127 -95.5t-91 -162t-34.5 -221q0 -148 72.5 -242t209.5 -94zM1044 1489h107q-24 -147 -112 -222t-210 -75q-106 0 -174.5 58.5t-68.5 160.5q0 47 8 78h104q-6 -35 -6 -59
q0 -67 40 -103.5t108 -36.5q161 0 204 199z" />
    <glyph glyph-name="aogonek.ss03" horiz-adv-x="1228" 
d="M197 422q0 89 20 176.5t62.5 169.5t103 145t148.5 100.5t192 37.5q106 0 192.5 -40.5t131.5 -121.5h40l25 135h125l-180 -1024q-191 -96 -191 -221q0 -92 144 -92l-19 -95q-18 -2 -47 -2q-97 0 -149 42.5t-52 117.5q0 82 53 149.5t136 104.5l20 109h-41
q-45 -61 -129.5 -100.5t-179.5 -39.5q-98 0 -176 36t-127.5 98t-75.5 142.5t-26 172.5zM608 88q81 0 149.5 31.5t115.5 83t80.5 118.5t49 136.5t15.5 138.5q0 161 -75.5 250.5t-219.5 89.5q-74 0 -144.5 -33.5t-127 -95.5t-91 -162t-34.5 -221q0 -148 72.5 -242t209.5 -94z
" />
    <glyph glyph-name="t.ss04" horiz-adv-x="696" 
d="M371 0h-127l159 909h-186l21 115h186l55 317h127l-55 -317h268l-20 -115h-269z" />
    <glyph glyph-name="tcaron.ss04" horiz-adv-x="735" 
d="M911 1300h-84l35 189h172l-41 -223l-112 -138h-88l112 138zM371 0h-127l159 909h-186l21 115h186l55 317h127l-55 -317h268l-20 -115h-269z" />
    <glyph glyph-name="uni0163.ss04" horiz-adv-x="696" 
d="M371 0h-127l159 909h-186l21 115h186l55 317h127l-55 -317h268l-20 -115h-269zM227 -440h-88l119 123l6 34h-84l29 162h172l-35 -196z" />
    <glyph glyph-name="Y.ss05" horiz-adv-x="1263" 
d="M518 0h-147l286 442l-358 1020h143l289 -815h57l533 815h152z" />
    <glyph glyph-name="Ydieresis.ss05" horiz-adv-x="1263" 
d="M518 0h-147l286 442l-358 1020h143l289 -815h57l533 815h152zM887 1673h-142l27 162h141zM1247 1673h-141l27 162h141z" />
    <glyph glyph-name="Yacute.ss05" horiz-adv-x="1263" 
d="M518 0h-147l286 442l-358 1020h143l289 -815h57l533 815h152zM1239 1835l-260 -264h-123l215 264h168z" />
    <glyph glyph-name="ampersand.ss06" horiz-adv-x="1308" 
d="M1376 834l-20 -119h-144l-49 -285q-38 -219 -182 -338t-365 -119q-197 0 -320.5 111.5t-123.5 277.5q0 94 28 169.5t75 124t98 78t108 44.5l6 39q-60 29 -101.5 97t-41.5 165q0 177 122.5 280t311.5 103q163 0 282.5 -88.5t131.5 -226.5h-131q-20 95 -96 145.5t-185 50.5
q-143 0 -223 -75.5t-80 -192.5q0 -104 66.5 -172.5t185.5 -68.5h96l-20 -119h-96q-185 0 -294.5 -90t-109.5 -248q0 -129 89.5 -207t236.5 -78q337 0 401 338l70 404h274z" />
    <glyph glyph-name="zero.ss07" horiz-adv-x="1259" 
d="M240 498q0 280 74.5 498.5t214.5 342t323 123.5q196 0 311 -135t115 -389q0 -280 -74.5 -499t-214.5 -342.5t-323 -123.5q-195 0 -310.5 135.5t-115.5 389.5zM373 498q0 -132 37 -219l637 976q-76 88 -201 88q-101 0 -183 -53t-135 -138.5t-89 -198.5t-51 -226.5
t-15 -228.5zM1145 938q0 118 -35 211l-637 -973q78 -84 199 -84q85 0 157 37t122.5 101.5t89 147t60.5 179t33 191.5t11 190z" />
    <glyph glyph-name="uni0430.ss03" horiz-adv-x="1228" 
d="M197 422q0 89 20 176.5t62.5 169.5t103 145t148.5 100.5t192 37.5q106 0 192.5 -40.5t131.5 -121.5h40l25 135h125l-180 -1024h-125l20 113h-41q-45 -61 -129.5 -100.5t-179.5 -39.5q-98 0 -176 36t-127.5 98t-75.5 142.5t-26 172.5zM608 88q81 0 149.5 31.5t115.5 83
t80.5 118.5t49 136.5t15.5 138.5q0 161 -75.5 250.5t-219.5 89.5q-74 0 -144.5 -33.5t-127 -95.5t-91 -162t-34.5 -221q0 -148 72.5 -242t209.5 -94z" />
    <glyph glyph-name="emdash.ss02" horiz-adv-x="2959" 
d="M2945 506h-2755l21 117h2755z" />
    <glyph glyph-name="uni0423.ss08" horiz-adv-x="1251" 
d="M213 0l23 131h51q85 0 141 32t119 130l98 149l-358 1020h143l289 -815h57l533 815h151l-747 -1147q-113 -176 -209 -245.5t-240 -69.5h-51z" />
    <glyph glyph-name="uni040E.ss08" horiz-adv-x="1251" 
d="M213 0l23 131h51q85 0 141 32t119 130l98 149l-358 1020h143l289 -815h57l533 815h151l-747 -1147q-113 -176 -209 -245.5t-240 -69.5h-51zM1137 1851h120q-29 -151 -134.5 -235t-252.5 -84q-131 0 -218 67t-87 187q0 30 6 65h117q-4 -28 -4 -41q0 -77 53 -122.5
t140 -45.5q100 0 171.5 56t88.5 153z" />
    <glyph glyph-name="five.numr" horiz-adv-x="735" 
d="M842 1362h-379l-49 -182h41q43 37 125 37q103 0 169 -65t66 -169q0 -149 -87.5 -232t-213.5 -83q-129 0 -203.5 76t-74.5 176h108q6 -72 51.5 -112t120.5 -40q76 0 131 52t55 149q0 67 -41 107t-112 40q-102 0 -160 -76h-115l107 420h477z" />
    <glyph glyph-name="four.numr" horiz-adv-x="792" 
d="M768 967h113l-19 -101h-112l-31 -184h-113l31 184h-401l18 109l444 487h158zM399 967h256l60 344h-31l-278 -314z" />
    <glyph glyph-name="three.numr" horiz-adv-x="751" 
d="M846 1350l-207 -152l-4 -24q88 -18 132 -80t44 -138q0 -131 -81 -209.5t-222 -78.5q-118 0 -196.5 70.5t-78.5 183.5h111q4 -71 50.5 -112.5t119.5 -41.5q85 0 134.5 52.5t49.5 133.5q0 63 -40 99.5t-107 36.5q-45 0 -80 -9l21 119l176 131l6 31h-320l17 100h493z" />
    <glyph glyph-name="two.numr" horiz-adv-x="720" 
d="M780 782l-20 -100h-557l24 127l346 242q30 20 48 35t44 41t39 58t13 68q0 54 -38 88.5t-101 34.5q-147 0 -179 -157h-112q24 130 103.5 194t195.5 64q105 0 174 -59t69 -154q0 -53 -18 -99.5t-51.5 -83.5t-62.5 -60.5t-70 -51.5l-230 -160l-6 -27h389z" />
    <glyph glyph-name="one.numr" horiz-adv-x="673" 
d="M539 782h198l-16 -100h-510l16 100h199l96 541h-33l-182 -96l21 116l221 119h110z" />
    <glyph glyph-name="quotedbl.ss01" horiz-adv-x="649" 
d="M334 969l86 493h69l-86 -493h-69zM586 969l86 493h69l-86 -493h-69z" />
    <glyph glyph-name="numbersign.ss01" horiz-adv-x="1128" 
d="M750 0l65 426h-326l-65 -426h-70l66 426h-213v63h225l70 455h-209v64h219l68 426h69l-69 -426h329l68 426h70l-68 -426h213v-64h-223l-72 -455h211v-63h-221l-66 -426h-71zM571 944l-71 -455h327l72 455h-328z" />
    <glyph glyph-name="quotesingle.ss01" horiz-adv-x="397" 
d="M334 969l86 493h69l-86 -493h-69z" />
    <glyph glyph-name="parenleft.ss01" horiz-adv-x="524" 
d="M682 1554h92q-241 -228 -372.5 -513.5t-131.5 -616.5q0 -192 44.5 -363t134.5 -350h-76q-172 328 -172 715q0 313 124.5 603.5t356.5 524.5z" />
    <glyph glyph-name="parenright.ss01" horiz-adv-x="524" 
d="M66 -289h-93q241 228 372.5 514t131.5 617q0 192 -44 363t-134 349h76q172 -328 172 -714q0 -313 -124.5 -604t-356.5 -525z" />
    <glyph glyph-name="bracketleft.ss01" horiz-adv-x="522" 
d="M354 -289h-241l323 1843h242l-10 -63h-172l-303 -1716h172z" />
    <glyph glyph-name="bracketright.ss01" horiz-adv-x="522" 
d="M389 1554h242l-324 -1843h-241l10 64h172l303 1716h-172z" />
    <glyph glyph-name="braceleft.ss01" horiz-adv-x="690" 
d="M395 651l-8 -37q51 -17 51 -98q0 -36 -10 -88l-78 -440q-6 -40 -6 -76q0 -73 38 -105t124 -32h61l-10 -64h-61q-222 0 -222 195q0 44 9 84l73 418q13 70 13 106q0 88 -74 88h-27l13 62h26q58 0 82.5 44t44.5 150l74 418q28 150 105 214t206 64h62l-11 -63h-61
q-104 0 -157 -50.5t-72 -162.5l-78 -440q-16 -88 -42 -130.5t-65 -56.5z" />
    <glyph glyph-name="braceright.ss01" horiz-adv-x="690" 
d="M516 614l8 37q-51 17 -51 99q0 36 10 88l78 440q6 40 6 76q0 73 -37.5 105t-123.5 32h-62l10 63h62q108 0 164.5 -46t56.5 -148q0 -48 -8 -84l-74 -418q-12 -65 -12 -106q0 -44 16.5 -66t56.5 -22h27l-12 -62h-27q-58 0 -82.5 -44t-44.5 -150l-74 -418
q-28 -150 -105 -214.5t-206 -64.5h-61l10 64h61q104 0 157.5 50.5t72.5 162.5l78 440q16 88 41.5 130t64.5 56z" />
    <glyph glyph-name="asterisk.ss01" horiz-adv-x="917" 
d="M1051 1145l-365 -103l172 -297l-63 -38l-158 301l-275 -301l-49 51l281 286l-328 111l27 70l323 -129l37 366h74l-51 -366l362 118z" />
    <glyph glyph-name="plus.ss01" horiz-adv-x="1400" 
d="M768 610v484h68v-484h481v-63h-481v-486h-68v486h-483v63h483z" />
    <glyph glyph-name="minus.ss01" horiz-adv-x="1400" 
d="M285 610h1032v-63h-1032v63z" />
    <glyph glyph-name="less.ss01" horiz-adv-x="1400" 
d="M1317 156v-68l-1032 442v91l1032 442v-68l-930 -401v-37z" />
    <glyph glyph-name="equal.ss01" horiz-adv-x="1398" 
d="M1315 412v-64h-1030v64h1030zM1315 805v-64h-1030v64h1030z" />
    <glyph glyph-name="greater.ss01" horiz-adv-x="1400" 
d="M285 88v68l929 401v37l-929 401v68l1032 -442v-91z" />
    <glyph glyph-name="hyphen.ss01" horiz-adv-x="737" 
d="M727 532h-532l12 64h532z" />
    <glyph glyph-name="endash.ss01" horiz-adv-x="1259" 
d="M1249 532h-1054l12 64h1055z" />
    <glyph glyph-name="emdash.ss01" horiz-adv-x="1792" 
d="M1782 532h-1587l12 64h1587z" />
    <glyph glyph-name="emdash.ss01.ss02" horiz-adv-x="2959" 
d="M2949 532h-2754l12 64h2754z" />
    <glyph glyph-name="underscore.ss01" horiz-adv-x="1026" 
d="M987 -231h-1030l12 63h1030z" />
    <glyph glyph-name="slash.ss01" horiz-adv-x="743" 
d="M20 -289h-71l940 1843h67z" />
    <glyph glyph-name="bar.ss01" horiz-adv-x="438" 
d="M133 -289l324 1843h69l-323 -1843h-70z" />
    <glyph glyph-name="backslash.ss01" horiz-adv-x="747" 
d="M696 -289h-69l-289 1843h63z" />
    <glyph glyph-name="degree.ss01" horiz-adv-x="944" 
d="M268 1071q0 174 111.5 290t277.5 116t279 -116t113 -290q0 -173 -113 -288t-279 -115t-277.5 115t-111.5 288zM338 1071q0 -146 90 -243t229 -97q140 0 231 97t91 243q0 148 -90.5 245t-231.5 97q-139 0 -229 -97t-90 -245z" />
    <glyph glyph-name="guillemotleft.ss01" horiz-adv-x="989" 
d="M299 588l-6 -37l266 -338h-84l-260 324l14 79l373 326h96zM637 588l-6 -37l266 -338h-84l-260 324l14 79l373 326h96z" />
    <glyph glyph-name="guillemotright.ss01" horiz-adv-x="989" 
d="M891 567l6 37l-266 338h84l260 -324l-14 -79l-373 -326h-96zM553 567l6 37l-266 338h84l260 -324l-14 -79l-373 -326h-96z" />
    <glyph glyph-name="guilsinglleft.ss01" horiz-adv-x="651" 
d="M299 588l-6 -37l266 -338h-84l-260 324l14 79l373 326h96z" />
    <glyph glyph-name="guilsinglright.ss01" horiz-adv-x="651" 
d="M553 567l6 37l-266 338h84l260 -324l-14 -79l-373 -326h-96z" />
    <glyph glyph-name="quoteleft.ss01" horiz-adv-x="458" 
d="M436 1249h68l-37 -209h-131l43 244l131 178h63l-131 -178z" />
    <glyph glyph-name="quoteright.ss01" horiz-adv-x="458" 
d="M438 1253h-67l37 209h131l-43 -243l-131 -179h-64l131 179z" />
    <glyph glyph-name="quotesinglbase.ss01" horiz-adv-x="458" 
d="M231 0h-67l37 209h131l-43 -244l-131 -178h-64l131 178z" />
    <glyph glyph-name="quotedblleft.ss01" horiz-adv-x="735" 
d="M713 1249h67l-37 -209h-131l43 244l131 178h64l-131 -178zM432 1249h68l-37 -209h-131l43 244l131 178h63l-131 -178z" />
    <glyph glyph-name="quotedblright.ss01" horiz-adv-x="739" 
d="M438 1253h-67l37 209h131l-43 -243l-131 -179h-64l131 179zM719 1253h-68l37 209h131l-43 -243l-131 -179h-63l131 179z" />
    <glyph glyph-name="quotedblbase.ss01" horiz-adv-x="739" 
d="M231 0h-67l37 209h131l-43 -244l-131 -178h-64l131 178zM512 0h-68l37 209h131l-43 -244l-131 -178h-63l131 178z" />
    <glyph glyph-name="arrowleft.ss01" horiz-adv-x="1683" 
d="M692 1024h94l-436 -438v-41h1292v-64h-1292v-43l436 -438h-94l-512 512z" />
    <glyph glyph-name="arrowup.ss01" horiz-adv-x="1392" 
d="M1329 950v-94l-438 440h-39v-1296h-70v1296h-39l-438 -440v94l512 512z" />
    <glyph glyph-name="arrowright.ss01" horiz-adv-x="1683" 
d="M1040 1024h95l512 -512l-512 -512h-95l437 438v43h-1293v64h1293v41z" />
    <glyph glyph-name="arrowdown.ss01" horiz-adv-x="1392" 
d="M305 512v94l438 -440h39v1296h70v-1296h39l438 440v-94l-512 -512z" />
    <glyph glyph-name="uni2196.ss01" horiz-adv-x="1425" 
d="M1069 1462l66 -65h-617l-26 -29l911 -915l-47 -47l-916 913l-26 -29v-618l-68 67v723h723z" />
    <glyph glyph-name="uni2197.ss01" horiz-adv-x="1425" 
d="M553 1397l65 65h723v-723l-67 -67v618l-27 29l-915 -913l-47 47l911 915l-27 29h-616z" />
    <glyph glyph-name="uni2198.ss01" horiz-adv-x="1425" 
d="M1116 66l-65 -66h-723v723l67 68v-619l27 -29l915 914l47 -47l-911 -916l27 -28h616z" />
    <glyph glyph-name="uni2199.ss01" horiz-adv-x="1425" 
d="M598 0l-66 66h617l27 28l-912 916l47 47l916 -914l26 29v619l68 -68v-723h-723z" />
    <glyph glyph-name="parenleft.ss01.case" horiz-adv-x="524" 
d="M713 1653h92q-241 -228 -372.5 -514t-131.5 -617q0 -192 44 -363t134 -349h-76q-172 328 -172 714q0 313 125 604t357 525z" />
    <glyph glyph-name="parenright.ss01.case" horiz-adv-x="526" 
d="M96 -190h-92q241 228 372.5 513.5t131.5 616.5q0 192 -44.5 363.5t-133.5 349.5h76q172 -328 172 -715q0 -312 -124.5 -603t-357.5 -525z" />
    <glyph glyph-name="bracketleft.ss01.case" horiz-adv-x="522" 
d="M371 -190h-242l324 1843h241l-10 -64h-172l-303 -1716h172z" />
    <glyph glyph-name="bracketright.ss01.case" horiz-adv-x="522" 
d="M406 1653h241l-323 -1843h-242l10 63h172l303 1716h-172z" />
    <glyph glyph-name="braceleft.ss01.case" horiz-adv-x="690" 
d="M412 750l-9 -37q52 -18 52 -99q0 -31 -11 -88l-77 -440q-7 -47 -7 -76q0 -73 38 -105t124 -32h62l-11 -63h-61q-108 0 -164.5 46t-56.5 148q0 48 8 84l74 418q12 64 12 106q0 88 -74 88h-26l12 62h27q58 0 82.5 44t44.5 150l73 418q28 150 105.5 214.5t206.5 64.5h61
l-10 -64h-62q-104 0 -157 -50.5t-72 -162.5l-78 -440q-16 -88 -41.5 -130t-64.5 -56z" />
    <glyph glyph-name="braceright.ss01.case" horiz-adv-x="690" 
d="M535 713l8 37q-51 17 -51 98q0 36 10 88l78 440q6 40 6 76q0 73 -38 105t-124 32h-62l11 64h61q108 0 164.5 -46.5t56.5 -148.5q0 -48 -8 -84l-74 -418q-12 -64 -12 -106q0 -88 74 -88h27l-13 -62h-26q-58 0 -82.5 -44t-44.5 -150l-74 -418q-28 -150 -105 -214t-206 -64
h-62l10 63h62q104 0 157 50.5t72 162.5l78 440q16 88 42 130.5t65 56.5z" />
    <glyph glyph-name="guillemotleft.ss01.case" horiz-adv-x="989" 
d="M322 723l-7 -37l267 -338h-84l-260 324l14 80l373 325h96zM659 723l-6 -37l267 -338h-84l-261 324l15 80l373 325h96z" />
    <glyph glyph-name="guillemotright.ss01.case" horiz-adv-x="989" 
d="M911 702l7 37l-267 338h84l260 -323l-14 -80l-373 -326h-96zM573 702l7 37l-267 338h84l260 -323l-14 -80l-373 -326h-96z" />
    <glyph glyph-name="guilsinglleft.ss01.case" horiz-adv-x="651" 
d="M322 723l-7 -37l267 -338h-84l-260 324l14 80l373 325h96z" />
    <glyph glyph-name="guilsinglright.ss01.case" horiz-adv-x="651" 
d="M573 702l7 37l-267 338h84l260 -323l-14 -80l-373 -326h-96z" />
    <glyph glyph-name="hyphen.ss01.case" horiz-adv-x="729" 
d="M754 707h-533l12 63h533z" />
    <glyph glyph-name="endash.ss01.case" horiz-adv-x="1251" 
d="M1276 707h-1055l12 63h1055z" />
    <glyph glyph-name="emdash.ss01.case" horiz-adv-x="1783" 
d="M1808 707h-1587l12 63h1588z" />
    <glyph glyph-name="emdash.ss01.ss02.case" horiz-adv-x="2951" 
d="M2976 707h-2755l12 63h2755z" />
    <glyph glyph-name="zero.numr" horiz-adv-x="774" 
d="M623 1477q120 0 188 -74.5t68 -218.5q0 -229 -98 -372.5t-261 -143.5q-120 0 -189 73.5t-69 216.5q0 229 99 374t262 145zM524 768q64 0 113 39t76 102.5t40 133t13 141.5q0 91 -40 141.5t-105 50.5q-64 0 -113.5 -39.5t-77.5 -103t-41.5 -133.5t-13.5 -142
q0 -90 40.5 -140t108.5 -50z" />
    <glyph glyph-name="three.dnom" horiz-adv-x="751" 
d="M725 668l-207 -152l-4 -24q88 -18 132 -80t44 -138q0 -131 -81 -209.5t-222 -78.5q-118 0 -196 70t-78 184h110q4 -71 50.5 -112.5t119.5 -41.5q85 0 135 53t50 133q0 62 -40.5 99t-107.5 37q-46 0 -80 -9l21 119l176 131l6 31h-320l17 100h493z" />
    </font>
</defs>
</svg>
