<?xml version="1.0" standalone="no"?>
<!DOCTYPE svg PUBLIC "-//W3C//DTD SVG 1.1//EN" "http://www.w3.org/Graphics/SVG/1.1/DTD/svg11.dtd" >
<svg xmlns="http://www.w3.org/2000/svg" xmlns:xlink="http://www.w3.org/1999/xlink" version="1.1">
<metadata>
Created by FontForge 20170731 at Tue Sep 29 09:29:07 2020
 By Aleksey,,,
Copyright (c) 2014 by Vyacheslav Kirilenko, Gayane Bagdasaryan. All rights reserved.
</metadata>
<defs>
<font id="Formular-MediumItalic" horiz-adv-x="1261" >
  <font-face 
    font-family="Formular"
    font-weight="500"
    font-style="italic"
    font-stretch="normal"
    units-per-em="2048"
    panose-1="2 0 0 0 0 0 0 0 0 0"
    ascent="1638"
    descent="-410"
    x-height="1042"
    cap-height="1462"
    bbox="-205 -463 3009 1995"
    underline-thickness="102"
    underline-position="-307"
    slope="-10"
    unicode-range="U+000D-FEFF"
  />
<missing-glyph horiz-adv-x="1060" 
d="M147 0v1462h844v-1462h-844zM293 133h555v1196h-555v-1196z" />
    <glyph glyph-name="fi" unicode="fi" horiz-adv-x="1312" 
d="M864 846h-268l-147 -846h-232l150 846h-164l33 196h165l19 109q31 179 138 258.5t286 79.5h135l-37 -197h-111q-153 0 -182 -159l-18 -91h268zM1335 1042l-184 -1042h-231l182 1042h233zM1376 1266h-237l39 223h237z" />
    <glyph glyph-name="fl" unicode="fl" horiz-adv-x="1310" 
d="M864 846h-268l-147 -846h-232l150 846h-164l33 196h165l19 109q31 179 138 258.5t286 79.5h135l-37 -197h-111q-153 0 -182 -159l-18 -91h268zM1413 1489l-262 -1489h-231l262 1489h231z" />
    <glyph glyph-name=".notdef" horiz-adv-x="1060" 
d="M147 0v1462h844v-1462h-844zM293 133h555v1196h-555v-1196z" />
    <glyph glyph-name=".null" horiz-adv-x="0" 
 />
    <glyph glyph-name="nonmarkingreturn" horiz-adv-x="682" 
 />
    <glyph glyph-name="NULL" horiz-adv-x="0" 
 />
    <glyph glyph-name="NULL" horiz-adv-x="0" 
 />
    <glyph glyph-name="CR" unicode="&#xd;" horiz-adv-x="569" 
 />
    <glyph glyph-name="space" unicode=" " horiz-adv-x="569" 
 />
    <glyph glyph-name="exclam" unicode="!" horiz-adv-x="675" 
d="M475 1462h236l-105 -598l-123 -450h-147l37 450zM469 0h-264l47 274h266z" />
    <glyph glyph-name="quotedbl" unicode="&#x22;" horiz-adv-x="886" 
d="M313 907l97 555h213l-97 -555h-213zM680 907l96 555h213l-96 -555h-213z" />
    <glyph glyph-name="numbersign" unicode="#" horiz-adv-x="1265" 
d="M266 1051h236l61 383h185l-60 -383h254l62 383h184l-62 -383h203v-181h-229l-49 -309h206v-180h-235l-59 -381h-189l62 381h-254l-60 -381h-188l61 381h-200v180h229l51 309h-209v181zM659 870l-49 -309h254l49 309h-254z" />
    <glyph glyph-name="dollar" unicode="$" horiz-adv-x="1312" 
d="M877 1634h129l-33 -186q160 -32 258 -132t104 -259h-233q-10 74 -53.5 121t-112.5 65l-74 -409l78 -25q328 -105 328 -387q0 -196 -147 -322.5t-376 -126.5q-20 0 -34 2l-31 -176h-127l31 185q-184 29 -296.5 142t-119.5 298h235q10 -100 65.5 -155t152.5 -76l81 462
l-81 27q-297 97 -297 352q0 101 39 184t105.5 135.5t151.5 80.5t181 28q20 0 45 -2zM825 623l-77 -443q54 -4 102 6.5t89 36.5t65 73.5t24 111.5q0 80 -39.5 125t-128.5 77zM561 1049q0 -67 39 -105.5t115 -64.5l24 -9l70 390q-107 5 -177.5 -47t-70.5 -164z" />
    <glyph glyph-name="percent" unicode="%" horiz-adv-x="1845" 
d="M578 0h-183l1121 1434h182zM952 1149q0 -90 -24.5 -172t-70.5 -147t-120.5 -103.5t-167.5 -38.5q-135 0 -217 86t-82 227q0 90 24.5 172t70.5 147t120 103.5t166 38.5q136 0 218.5 -86.5t82.5 -226.5zM580 838q66 0 113.5 47.5t68 113.5t20.5 140q0 81 -35 127.5
t-106 46.5q-65 0 -112 -47.5t-68 -114.5t-21 -141q0 -81 35 -126.5t105 -45.5zM1823 434q0 -90 -24.5 -172t-70.5 -147t-120.5 -103.5t-167.5 -38.5q-135 0 -217 86.5t-82 227.5q0 90 24.5 172t70.5 147t120 103.5t166 38.5q136 0 218.5 -87t82.5 -227zM1450 123
q66 0 113.5 47.5t68.5 113.5t21 140q0 81 -35.5 127.5t-106.5 46.5q-65 0 -112.5 -47.5t-68.5 -114.5t-21 -141q0 -80 35.5 -126t105.5 -46z" />
    <glyph glyph-name="ampersand" unicode="&#x26;" horiz-adv-x="1495" 
d="M467 780l41 19l2 49q-100 125 -100 270q0 152 109.5 248t271.5 96q163 0 267.5 -87t104.5 -228q0 -68 -21 -122.5t-66.5 -100.5t-98.5 -81.5t-135 -78.5l252 -344q99 123 137 280h227q-57 -238 -233 -442l202 -258h-270l-72 96h-49q-180 -123 -385 -123q-211 0 -338 107
t-127 289q0 265 281 411zM670 172q142 0 272 107l-289 389l-67 -35q-172 -95 -172 -246q0 -98 70 -156.5t186 -58.5zM623 1122q0 -80 67 -168l37 -51l78 43q72 40 108.5 84t36.5 107q0 64 -45.5 101.5t-113.5 37.5q-74 0 -121 -41.5t-47 -112.5z" />
    <glyph glyph-name="quotesingle" unicode="'" horiz-adv-x="520" 
d="M313 907l97 555h213l-97 -555h-213z" />
    <glyph glyph-name="parenleft" unicode="(" horiz-adv-x="655" 
d="M594 -289h-205q-194 294 -194 713q0 328 134.5 617t370.5 513h228q-123 -132 -212.5 -253t-164 -262t-112.5 -297.5t-38 -325.5q0 -360 193 -705z" />
    <glyph glyph-name="parenright" unicode=")" horiz-adv-x="655" 
d="M285 1554h204q195 -295 195 -712q0 -327 -135 -617t-371 -514h-227q123 132 212.5 253.5t163.5 262.5t112 297.5t38 325.5q0 361 -192 704z" />
    <glyph glyph-name="asterisk" unicode="*" horiz-adv-x="993" 
d="M1126 1077l-340 -92l162 -264l-145 -100l-141 280l-240 -278l-127 106l252 264l-299 92l69 158l295 -115l39 334h174l-61 -334l326 113z" />
    <glyph glyph-name="plus" unicode="+" horiz-adv-x="1386" 
d="M688 686v424h199v-424h426v-197h-426v-423h-199v423h-424v197h424z" />
    <glyph glyph-name="comma" unicode="," horiz-adv-x="565" 
d="M270 0h-120l47 274h266l-55 -319l-177 -219h-145l178 219z" />
    <glyph glyph-name="hyphen" unicode="-" horiz-adv-x="786" 
d="M772 471h-590l35 203h590z" />
    <glyph glyph-name="period" unicode="." horiz-adv-x="565" 
d="M414 0h-264l47 274h266z" />
    <glyph glyph-name="slash" unicode="/" horiz-adv-x="864" 
d="M145 -289h-200l942 1843h196z" />
    <glyph glyph-name="zero" unicode="0" horiz-adv-x="1304" 
d="M225 512q0 273 77.5 488t223.5 338.5t338 123.5q98 0 181.5 -33t148 -97t101 -169t36.5 -239q0 -273 -78 -488.5t-224 -339t-337 -123.5q-98 0 -181.5 33t-148 97.5t-101 169.5t-36.5 239zM465 506q0 -155 64 -237.5t173 -82.5q82 0 149.5 47t111 122.5t73.5 175
t43 199.5t13 200q0 154 -64.5 236.5t-173.5 82.5q-83 0 -150.5 -47t-111 -122.5t-73 -174.5t-42 -199t-12.5 -200z" />
    <glyph glyph-name="one" unicode="1" horiz-adv-x="1052" 
d="M113 0l37 209h327l172 981h-47l-315 -195l41 242l315 197h287l-217 -1225h303l-37 -209h-866z" />
    <glyph glyph-name="two" unicode="2" horiz-adv-x="1206" 
d="M492 1020h-238q37 215 180 328.5t357 113.5q191 0 314.5 -105t123.5 -282q0 -76 -23.5 -147t-56 -124t-88.5 -111t-99.5 -94.5t-109.5 -86.5l-205 -152l-141 -102l-8 -49h653l-35 -209h-1012l43 256l213 152q121 82 351 247q63 44 107 81.5t87 87.5t65.5 107.5
t22.5 121.5q0 95 -63.5 145.5t-161.5 50.5q-230 0 -276 -229z" />
    <glyph glyph-name="three" unicode="3" horiz-adv-x="1200" 
d="M1225 1182l-361 -256l-8 -47q161 -19 244.5 -124.5t83.5 -260.5q0 -227 -155 -374t-400 -147q-222 0 -359 122.5t-137 324.5h238q7 -114 79 -174t193 -60q135 0 219 86.5t84 214.5q0 115 -67.5 176.5t-186.5 61.5q-70 0 -125 -12l39 217l350 252l11 49h-613l33 203h881z
" />
    <glyph glyph-name="four" unicode="4" horiz-adv-x="1265" 
d="M1087 530h187l-39 -208h-184l-56 -322h-231l55 322h-686l45 258l772 854h297zM406 530h456l111 629h-47l-512 -579z" />
    <glyph glyph-name="five" unicode="5" horiz-adv-x="1253" 
d="M1268 1231h-664l-84 -352h49q96 92 252 92q187 0 301.5 -115.5t114.5 -310.5q0 -132 -45 -241.5t-121 -181t-174.5 -110.5t-206.5 -39q-120 0 -217 36t-159.5 97.5t-96 142t-33.5 171.5h238q6 -114 77.5 -174t196.5 -60t213 91.5t88 248.5q0 118 -68 185t-184 67
q-157 0 -260 -121h-227l193 777h852z" />
    <glyph glyph-name="six" unicode="6" 
d="M1317 1102h-240q-12 75 -66 116.5t-151 41.5q-134 0 -235.5 -119.5t-130.5 -311.5h49q115 111 293 111q184 0 305 -116t121 -298q0 -111 -38 -211t-107 -176t-172 -121t-226 -45q-104 0 -192.5 33.5t-156.5 99t-106.5 171.5t-38.5 241t24.5 268t76 255.5t125.5 215.5
t180.5 149t232.5 56q198 0 316 -104t137 -256zM1024 506q0 110 -70.5 174.5t-187.5 64.5q-133 0 -214 -88.5t-81 -222.5q0 -119 67.5 -187.5t194.5 -68.5q93 0 161 48t99 121t31 159z" />
    <glyph glyph-name="seven" unicode="7" horiz-adv-x="1138" 
d="M1243 1178l-774 -1178h-250l774 1178l13 49h-693l37 207h938z" />
    <glyph glyph-name="eight" unicode="8" horiz-adv-x="1280" 
d="M1081 760l-10 -47q172 -102 172 -297t-151.5 -319t-395.5 -124q-236 0 -378 111t-142 291q0 73 23 136t63 108.5t86.5 78t100.5 54.5l10 47q-59 39 -97 105.5t-38 154.5q0 171 140.5 287t364.5 116q212 0 344 -103.5t132 -268.5q0 -117 -64 -203.5t-160 -126.5zM557 1047
q0 -97 71 -149t173 -52q120 0 195 60.5t75 166.5q0 90 -72.5 143.5t-173.5 53.5q-118 0 -193 -60.5t-75 -162.5zM418 403q0 -106 82 -165.5t202 -59.5q133 0 217.5 68.5t84.5 183.5q0 112 -80.5 172t-204.5 60q-134 0 -217.5 -69.5t-83.5 -189.5z" />
    <glyph glyph-name="nine" unicode="9" 
d="M197 334h239q12 -75 66 -116.5t151 -41.5q134 0 236 119t131 311h-49q-114 -110 -293 -110q-184 0 -305 115.5t-121 297.5q0 111 38 211t107 176t172 121t226 45q104 0 192 -33.5t156 -99t106.5 -171t38.5 -240.5t-24 -268t-76 -255.5t-126 -216t-180.5 -149.5
t-232.5 -56q-101 0 -184.5 29.5t-138 80.5t-87.5 115t-42 136zM489 930q0 -110 71 -175t188 -65q133 0 213.5 88t80.5 223q0 119 -67.5 187.5t-194.5 68.5q-138 0 -214.5 -96.5t-76.5 -230.5z" />
    <glyph glyph-name="colon" unicode=":" horiz-adv-x="565" 
d="M414 0h-264l47 274h266zM541 768h-265l48 274h266z" />
    <glyph glyph-name="semicolon" unicode=";" horiz-adv-x="565" 
d="M270 0h-120l47 274h266l-55 -319l-177 -219h-145l178 219zM541 768h-265l48 274h266z" />
    <glyph glyph-name="less" unicode="&#x3c;" horiz-adv-x="1370" 
d="M1296 248v-205l-1032 459v170l1032 458v-204l-718 -316v-49z" />
    <glyph glyph-name="equal" unicode="=" horiz-adv-x="1382" 
d="M1309 477v-198h-1045v198h1045zM1309 895v-199h-1045v199h1045z" />
    <glyph glyph-name="greater" unicode="&#x3e;" horiz-adv-x="1370" 
d="M264 43v205l717 313v49l-717 316v204l1032 -458v-170z" />
    <glyph glyph-name="question" unicode="?" horiz-adv-x="1146" 
d="M778 1489q199 0 321 -103.5t122 -261.5q0 -78 -22 -142.5t-67.5 -116t-94.5 -89.5t-122 -82q-92 -57 -130.5 -102t-55.5 -125l-10 -53h-234l11 55q21 124 78.5 197.5t183.5 150.5q59 37 92.5 62t68 60t49.5 74.5t15 88.5q0 81 -59 131.5t-160 50.5q-112 0 -180.5 -62.5
t-85.5 -179.5h-234q26 201 157 324t357 123zM666 0h-263l48 274h260z" />
    <glyph glyph-name="at" unicode="@" horiz-adv-x="1992" 
d="M1032 231q110 0 181 99t71 248q0 215 -174 215q-110 0 -179 -103.5t-69 -240.5q0 -105 42.5 -161.5t127.5 -56.5zM1503 -127l60 -106q-239 -156 -539 -156q-248 0 -434 103t-285.5 289t-99.5 429q0 209 70 391t194.5 314t305.5 208t394 76q165 0 312.5 -51t259.5 -144
t178 -235t66 -313q0 -123 -30 -231.5t-86 -192.5t-144.5 -133t-198.5 -49q-190 0 -242 118h-41q-101 -118 -260 -118q-154 0 -242 98.5t-88 271.5q0 136 53 251.5t154.5 187t231.5 71.5q76 0 130.5 -28.5t77.5 -67.5h41l17 68h188l-86 -521q-10 -45 -10 -100
q0 -104 115 -104q113 0 198.5 125.5t85.5 355.5q0 276 -190 448t-508 172q-172 0 -321 -62t-257.5 -173.5t-170.5 -274.5t-62 -356q0 -112 25 -214t79.5 -191.5t134.5 -155t196.5 -103.5t258.5 -38q254 0 469 141z" />
    <glyph glyph-name="A" unicode="A" horiz-adv-x="1431" 
d="M1147 0l-62 420h-593l-205 -420h-248l735 1462h393l226 -1462h-246zM887 1223l-287 -584h455l-84 584h-84z" />
    <glyph glyph-name="B" unicode="B" horiz-adv-x="1456" 
d="M1264 782l-9 -49q70 -38 113 -114.5t43 -172.5q0 -98 -31 -175t-84.5 -127.5t-130.5 -83t-164.5 -46.5t-191.5 -14h-631l256 1462h623q184 0 301 -92.5t117 -247.5q0 -125 -58 -214.5t-153 -125.5zM643 1249l-70 -387h375q78 0 136.5 20.5t96.5 72t38 130.5
q0 62 -37.5 100.5t-87.5 51t-113 12.5h-338zM459 213h387q137 0 223 63t86 191q0 94 -68 140t-169 46h-379z" />
    <glyph glyph-name="C" unicode="C" horiz-adv-x="1482" 
d="M1223 442h256q-54 -211 -223.5 -340t-411.5 -129q-177 0 -315.5 74t-219 217.5t-80.5 335.5q0 181 53 342.5t149.5 283t242 192.5t319.5 71q221 0 368 -115.5t179 -316.5h-252q-47 209 -309 209q-97 0 -179.5 -38t-140.5 -102.5t-98.5 -149t-60 -177t-19.5 -187.5
q0 -190 99 -302.5t280 -112.5q137 0 231.5 65t131.5 180z" />
    <glyph glyph-name="D" unicode="D" horiz-adv-x="1523" 
d="M178 0l256 1462h465q148 0 265.5 -34.5t204.5 -105.5t134 -186.5t47 -269.5q0 -135 -28.5 -259t-92.5 -235.5t-156.5 -193.5t-229.5 -130t-304 -48h-561zM461 223h295q92 0 170 22.5t133 60t98 89.5t69.5 108t43.5 119.5t23.5 119.5t6.5 112q0 385 -409 385h-250z" />
    <glyph glyph-name="E" unicode="E" horiz-adv-x="1339" 
d="M461 223h819l-35 -223h-1067l256 1462h1041l-39 -223h-795l-68 -377h631l-39 -219h-628z" />
    <glyph glyph-name="F" unicode="F" horiz-adv-x="1304" 
d="M1438 1239h-797l-72 -401h637l-37 -220h-639l-106 -618h-246l256 1462h1041z" />
    <glyph glyph-name="G" unicode="G" horiz-adv-x="1552" 
d="M854 -27q-181 0 -321.5 74t-222 217.5t-81.5 335.5q0 185 53.5 346.5t151 282.5t244 190.5t323.5 69.5q226 0 374.5 -114.5t180.5 -311.5h-256q-25 98 -103.5 150.5t-207.5 52.5q-99 0 -183.5 -37t-143.5 -100t-100.5 -147t-61 -177.5t-19.5 -192.5q0 -192 101.5 -304.5
t287.5 -112.5q175 0 286 100.5t140 290.5h-405l37 209h637q-5 -136 -32.5 -255.5t-83.5 -224.5t-136.5 -180t-197.5 -118.5t-261 -43.5z" />
    <glyph glyph-name="H" unicode="H" horiz-adv-x="1566" 
d="M1399 1462h246l-256 -1462h-246l110 639h-718l-111 -639h-246l256 1462h246l-107 -594h721z" />
    <glyph glyph-name="I" unicode="I" horiz-adv-x="624" 
d="M444 1462h248l-256 -1462h-248z" />
    <glyph glyph-name="J" unicode="J" horiz-adv-x="1208" 
d="M584 -27q-196 0 -320.5 103t-124.5 286q0 44 6 91h244q-4 -46 -4 -52q0 -102 55 -153t156 -51q227 0 278 295l170 970h246l-174 -999q-42 -234 -176.5 -362t-355.5 -128z" />
    <glyph glyph-name="K" unicode="K" horiz-adv-x="1495" 
d="M178 0l256 1462h246l-117 -655l770 655h299l-518 -454l322 -1008h-258l-260 788h-50l-360 -301l-84 -487h-246z" />
    <glyph glyph-name="L" unicode="L" horiz-adv-x="1294" 
d="M463 231h788l-41 -231h-1032l256 1462h246z" />
    <glyph glyph-name="M" unicode="M" horiz-adv-x="1773" 
d="M178 0l256 1462h377l188 -637h50l407 637h395l-256 -1462h-231l205 1169h-49l-418 -641h-244l-194 641h-50l-204 -1169h-232z" />
    <glyph glyph-name="N" unicode="N" horiz-adv-x="1572" 
d="M1421 1462h230l-256 -1462h-332l-412 1106h-49l-194 -1106h-230l256 1462h332l412 -1106h49z" />
    <glyph glyph-name="O" unicode="O" horiz-adv-x="1597" 
d="M1001 1489q134 0 248.5 -43.5t197.5 -123t130 -198t47 -260.5q0 -143 -33 -275.5t-98.5 -244.5t-157 -195t-216 -129.5t-267.5 -46.5q-276 0 -449.5 170t-173.5 457q0 143 33 275t98.5 243.5t157 194.5t216 129.5t267.5 46.5zM866 197q100 0 185 39t143.5 104t100 150
t60.5 177t19 185q0 188 -101.5 301t-285.5 113q-100 0 -185 -39t-143.5 -103.5t-100 -149.5t-60.5 -177t-19 -185q0 -189 101.5 -302t285.5 -113z" />
    <glyph glyph-name="P" unicode="P" horiz-adv-x="1417" 
d="M434 1462h627q191 0 316.5 -107.5t125.5 -293.5q0 -236 -159.5 -370t-428.5 -134h-395l-96 -557h-246zM1018 1245h-377l-82 -473h387q137 0 222 70t85 205q0 97 -66 147.5t-169 50.5z" />
    <glyph glyph-name="Q" unicode="Q" horiz-adv-x="1597" 
d="M1001 1489q134 0 248.5 -43.5t197.5 -123t130 -198t47 -260.5q0 -232 -85.5 -429.5t-242.5 -317.5l113 -264h-219l-70 167q-127 -47 -268 -47q-276 0 -449.5 170t-173.5 457q0 143 33 275t98.5 243.5t157 194.5t216 129.5t267.5 46.5zM866 197q92 0 168 30l-180 435h213
l133 -318q87 94 130.5 229t43.5 279q0 188 -101.5 301t-285.5 113q-100 0 -185 -39t-143.5 -103.5t-100 -149.5t-60.5 -177t-19 -185q0 -189 101.5 -302t285.5 -113z" />
    <glyph glyph-name="R" unicode="R" horiz-adv-x="1454" 
d="M524 582l-100 -582h-246l256 1462h651q121 0 217.5 -44.5t155 -134.5t58.5 -212q0 -156 -73.5 -267t-207.5 -169l117 -635h-244l-107 586q-70 -4 -108 -4h-369zM1044 1245h-403l-80 -450h416q134 0 212.5 65.5t78.5 196.5q0 93 -62.5 140.5t-161.5 47.5z" />
    <glyph glyph-name="S" unicode="S" horiz-adv-x="1382" 
d="M752 889l262 -70q338 -90 338 -387q0 -139 -79.5 -245t-212 -160t-294.5 -54q-261 0 -423.5 116.5t-174.5 338.5h252q30 -240 358 -240q60 0 114.5 12t103 37t77.5 71t29 108q0 149 -195 202l-272 70q-155 42 -237.5 133.5t-82.5 229.5q0 203 149 320.5t398 117.5
q228 0 379.5 -110t163.5 -302h-250q-11 67 -54.5 112.5t-106 65t-142.5 19.5q-55 0 -104 -11t-91 -33.5t-67 -64t-25 -96.5q0 -76 46 -115t141 -65z" />
    <glyph glyph-name="T" unicode="T" horiz-adv-x="1241" 
d="M1462 1462l-37 -217h-464l-218 -1245h-245l219 1245h-463l37 217h1171z" />
    <glyph glyph-name="U" unicode="U" horiz-adv-x="1527" 
d="M1364 1462h246l-164 -936q-48 -269 -209.5 -411t-437.5 -142q-247 0 -394 122t-147 325q0 55 12 133l160 909h244l-160 -897q-10 -55 -10 -110q0 -123 80.5 -190.5t226.5 -67.5q331 0 393 352z" />
    <glyph glyph-name="V" unicode="V" horiz-adv-x="1396" 
d="M481 0l-186 1462h248l143 -1220h96l572 1220h260l-699 -1462h-434z" />
    <glyph glyph-name="W" unicode="W" horiz-adv-x="1835" 
d="M928 993h315l98 -706h50l346 1175h237l-434 -1462h-369l-94 760h-49l-360 -760h-375l80 1462h227l-65 -1175h49z" />
    <glyph glyph-name="X" unicode="X" horiz-adv-x="1363" 
d="M1057 0l-217 633h-70l-446 -633h-281l549 770l-234 692h244l193 -559h69l393 559h265l-482 -684l277 -778h-260z" />
    <glyph glyph-name="Y" unicode="Y" horiz-adv-x="1343" 
d="M780 838h58l454 624h269l-672 -923l-94 -539h-248l96 539l-352 923h250z" />
    <glyph glyph-name="Z" unicode="Z" horiz-adv-x="1331" 
d="M1462 1462l-47 -270l-960 -922l-9 -47h828l-39 -223h-1141l47 270l959 922l8 47h-741l39 223h1056z" />
    <glyph glyph-name="bracketleft" unicode="[" horiz-adv-x="718" 
d="M557 -289h-457l324 1843h459l-31 -176h-254l-264 -1491h256z" />
    <glyph glyph-name="backslash" unicode="\" horiz-adv-x="833" 
d="M805 -289h-187l-288 1843h180z" />
    <glyph glyph-name="bracketright" unicode="]" horiz-adv-x="718" 
d="M518 -289h-459l31 176h254l262 1491h-254l31 176h459z" />
    <glyph glyph-name="asciicircum" unicode="^" horiz-adv-x="1163" 
d="M406 580h-222l568 839h157l273 -839h-207l-170 530h-43z" />
    <glyph glyph-name="underscore" unicode="_" horiz-adv-x="1040" 
d="M991 -295h-1044l28 160h1043z" />
    <glyph glyph-name="grave" unicode="`" horiz-adv-x="589" 
d="M524 1192l-178 297h250l127 -297h-199z" />
    <glyph glyph-name="a" unicode="a" horiz-adv-x="1177" 
d="M809 0l16 98h-49q-115 -125 -299 -125q-152 0 -245 90t-93 226q0 181 125 279t332 98h319q11 42 11 79q0 67 -49 104.5t-144 37.5q-97 0 -155 -34.5t-72 -98.5h-232q25 148 151 231.5t318 83.5q185 0 296.5 -81t111.5 -228q0 -51 -10 -103l-117 -657h-215zM563 162
q115 0 204 79t107 189l13 72h-258q-115 0 -183.5 -45.5t-68.5 -143.5q0 -72 48 -111.5t138 -39.5z" />
    <glyph glyph-name="b" unicode="b" horiz-adv-x="1280" 
d="M1278 612q0 -96 -21.5 -188t-65.5 -174t-105 -143.5t-146.5 -97.5t-183.5 -36q-100 0 -181 38t-122 106h-50l-20 -117h-223l262 1489h231l-96 -549h49q40 57 113.5 93t163.5 36q185 0 290 -130t105 -327zM813 872q-66 0 -122 -25.5t-94.5 -68t-66 -97.5t-40.5 -115
t-13 -120q0 -130 64 -203t180 -73q134 0 227.5 119t93.5 309q0 127 -57.5 200.5t-171.5 73.5z" />
    <glyph glyph-name="c" unicode="c" horiz-adv-x="1157" 
d="M907 334h232q-36 -167 -164.5 -264t-323.5 -97q-129 0 -233.5 54t-167 159.5t-62.5 245.5q0 132 38.5 248t109 202.5t178.5 136.5t240 50q173 0 290 -95.5t134 -248.5h-230q-14 68 -67.5 107.5t-139.5 39.5q-98 0 -173 -63t-111.5 -159.5t-36.5 -207.5
q0 -129 65.5 -200.5t182.5 -71.5q90 0 152.5 44t86.5 120z" />
    <glyph glyph-name="d" unicode="d" horiz-adv-x="1282" 
d="M188 432q0 94 21.5 185.5t65 173t104.5 143.5t145.5 98.5t182.5 36.5q99 0 177.5 -37.5t119.5 -105.5h49l100 563h231l-262 -1489h-223l19 102h-50q-44 -58 -117.5 -93.5t-166.5 -35.5q-184 0 -290 128.5t-106 330.5zM655 170q80 0 145.5 38.5t105.5 101t61.5 136.5
t21.5 150q0 130 -64 203t-180 73q-134 0 -227.5 -119t-93.5 -309q0 -127 58 -200.5t173 -73.5z" />
    <glyph glyph-name="e" unicode="e" horiz-adv-x="1181" 
d="M899 303h234q-37 -155 -163 -242.5t-315 -87.5q-129 0 -234.5 54.5t-169 161.5t-63.5 247q0 181 65.5 323.5t194.5 226t304 83.5q193 0 314.5 -124.5t121.5 -332.5q0 -52 -6 -110h-760q-4 -28 -4 -56q0 -126 68.5 -202t189.5 -76q167 0 223 135zM741 885q-106 0 -179 -55
t-109 -156h503q-5 94 -58.5 152.5t-156.5 58.5z" />
    <glyph glyph-name="f" unicode="f" horiz-adv-x="778" 
d="M864 846h-268l-147 -846h-232l150 846h-164l33 196h165l19 109q31 179 138 258.5t286 79.5h135l-37 -197h-111q-153 0 -182 -159l-18 -91h268z" />
    <glyph glyph-name="g" unicode="g" horiz-adv-x="1277" 
d="M1077 1042h226l-173 -981q-41 -234 -190 -361.5t-371 -127.5q-193 0 -317.5 88.5t-128.5 247.5h227q19 -146 238 -146q130 0 205.5 81t105.5 235l12 57h-49q-39 -55 -114 -90t-164 -35q-186 0 -291 124t-105 315q0 93 22 183t67 169t107.5 139t148.5 94.5t184 34.5
q106 0 178 -42.5t113 -104.5h49zM743 872q-133 0 -227 -112t-94 -295q0 -119 63 -188.5t177 -69.5q79 0 143 35.5t103 93.5t60 127t21 141q0 126 -67 197t-179 71z" />
    <glyph glyph-name="h" unicode="h" 
d="M1116 0h-231l102 582q12 66 12 102q0 178 -194 178q-121 0 -206 -85t-110 -224l-98 -553h-231l264 1489h231l-98 -547h49q108 127 299 127q157 0 243.5 -88.5t86.5 -237.5q0 -47 -12 -129z" />
    <glyph glyph-name="i" unicode="i" horiz-adv-x="552" 
d="M575 1042l-184 -1042h-231l182 1042h233zM616 1266h-237l39 223h237z" />
    <glyph glyph-name="j" unicode="j" horiz-adv-x="573" 
d="M362 1042h234l-199 -1114q-59 -338 -417 -338h-138l35 197h94q89 0 136 44t65 134zM438 1489h238l-41 -223h-238z" />
    <glyph glyph-name="k" unicode="k" horiz-adv-x="1169" 
d="M1145 0h-234l-174 526h-49l-246 -223l-51 -303h-231l262 1489h231l-159 -903l501 456h273l-350 -321z" />
    <glyph glyph-name="l" unicode="l" horiz-adv-x="550" 
d="M653 1489l-262 -1489h-231l262 1489h231z" />
    <glyph glyph-name="m" unicode="m" horiz-adv-x="1789" 
d="M567 1042l-16 -94h49q88 121 262 121q181 0 242 -127h49q109 127 307 127q149 0 226 -81.5t77 -221.5q0 -55 -10 -123l-113 -643h-231l109 623q10 45 10 94q0 145 -150 145q-107 0 -171.5 -71t-86.5 -189l-106 -602h-232l113 639q8 31 8 80q0 143 -145 143
q-111 0 -178 -81.5t-86 -198.5l-103 -582h-231l182 1042h225z" />
    <glyph glyph-name="n" unicode="n" 
d="M1116 0h-231l102 582q12 66 12 102q0 178 -194 178q-121 0 -206 -85t-110 -224l-98 -553h-231l184 1042h223l-18 -100h49q110 127 307 127q157 0 243.5 -88.5t86.5 -237.5q0 -47 -12 -129z" />
    <glyph glyph-name="o" unicode="o" horiz-adv-x="1253" 
d="M768 1069q99 0 186.5 -31.5t153.5 -89t104.5 -145.5t38.5 -195q0 -182 -67.5 -325t-200.5 -226.5t-313 -83.5q-207 0 -344.5 124.5t-137.5 338.5q0 181 67 323.5t200 226t313 83.5zM684 170q105 0 183 61.5t115.5 157.5t37.5 209q0 128 -71 201t-195 73
q-105 0 -183 -61.5t-115.5 -157t-37.5 -207.5q0 -130 71 -203t195 -73z" />
    <glyph glyph-name="p" unicode="p" horiz-adv-x="1280" 
d="M344 1042h223l-18 -102h47q44 57 120.5 93t166.5 36q185 0 290 -130t105 -327q0 -119 -34.5 -232t-98 -204.5t-164 -147t-221.5 -55.5q-99 0 -178.5 38t-120.5 106h-49l-93 -527h-231zM721 168q134 0 227.5 120t93.5 310q0 127 -58.5 201.5t-172.5 74.5q-81 0 -147 -39
t-105.5 -102.5t-60.5 -137t-21 -149.5q0 -130 64 -204t180 -74z" />
    <glyph glyph-name="q" unicode="q" horiz-adv-x="1282" 
d="M188 432q0 95 21.5 186.5t65 173t105 143.5t147 98t184.5 36q101 0 180.5 -37.5t120.5 -105.5h49l22 116h224l-256 -1452h-232l92 512h-49q-40 -57 -114 -93t-164 -36q-124 0 -215.5 62.5t-136 165t-44.5 231.5zM655 168q80 0 145.5 39t105.5 102t61.5 137.5t21.5 149.5
q0 130 -64 204t-180 74q-134 0 -227.5 -120t-93.5 -310q0 -128 58 -202t173 -74z" />
    <glyph glyph-name="r" unicode="r" horiz-adv-x="858" 
d="M989 1042l-39 -215h-92q-158 0 -254 -82t-125 -241l-88 -504h-231l184 1042h223l-20 -120h49q43 51 116.5 85.5t176.5 34.5h100z" />
    <glyph glyph-name="s" unicode="s" horiz-adv-x="1087" 
d="M129 315h227q6 -67 75.5 -108t178.5 -41q87 0 150 34.5t63 98.5q0 47 -34.5 73.5t-116.5 51.5l-187 53q-124 36 -185.5 102t-61.5 169q0 151 118 235t308 84q172 0 291.5 -80.5t136.5 -222.5h-228q-10 53 -65.5 83t-141.5 30q-80 0 -134 -28.5t-54 -88.5q0 -20 8 -35.5
t16.5 -24t33 -18.5t36 -13.5t47.5 -13.5l187 -53q258 -74 258 -293q0 -150 -127 -243t-326 -93q-130 0 -231 34.5t-167.5 113t-74.5 194.5z" />
    <glyph glyph-name="t" unicode="t" horiz-adv-x="800" 
d="M633 1042h239l-32 -196h-242l-92 -500q-6 -27 -6 -61q0 -84 114 -84h109l-33 -201h-125q-145 0 -222 61t-77 172q0 59 8 95l93 518h-164l33 196h165l54 304h231z" />
    <glyph glyph-name="u" unicode="u" 
d="M330 1042h231l-102 -581q-13 -76 -13 -107q0 -174 195 -174q121 0 205.5 85t109.5 224l99 553h231l-184 -1042h-223l18 100h-49q-110 -127 -307 -127q-157 0 -243.5 88.5t-86.5 237.5q0 65 12 129z" />
    <glyph glyph-name="v" unicode="v" horiz-adv-x="1132" 
d="M360 0l-133 1042h228l102 -823h82l389 823h246l-506 -1042h-408z" />
    <glyph glyph-name="w" unicode="w" horiz-adv-x="1464" 
d="M733 729h244l74 -463h49l235 776h221l-325 -1042h-303l-82 508h-49l-256 -508h-312l47 1042h209l-36 -776h49z" />
    <glyph glyph-name="x" unicode="x" horiz-adv-x="1173" 
d="M862 0l-160 410h-71l-305 -410h-254l401 535l-186 507h229l141 -385h72l283 385h248l-369 -501l211 -541h-240z" />
    <glyph glyph-name="y" unicode="y" horiz-adv-x="1153" 
d="M422 -410h-242l312 519l-269 933h228l178 -628h55l373 628h241z" />
    <glyph glyph-name="z" unicode="z" horiz-adv-x="1091" 
d="M989 0h-887l41 246l660 551l8 49h-524l35 196h839l-45 -245l-657 -551l-8 -49h571z" />
    <glyph glyph-name="braceleft" unicode="{" horiz-adv-x="837" 
d="M500 657l-8 -49q43 -14 67.5 -53t24.5 -100q0 -51 -9 -86l-47 -267q-10 -42 -10 -88q0 -69 38 -98t114 -29h71l-28 -176h-84q-149 0 -235.5 67.5t-86.5 194.5q0 61 10 103l45 262q11 64 11 86q0 117 -113 117h-39l35 184h37q76 0 116 48t58 147l51 299q59 335 410 335
h108l-30 -176h-80q-91 0 -141 -49.5t-70 -159.5l-51 -299q-31 -175 -164 -213z" />
    <glyph glyph-name="bar" unicode="|" horiz-adv-x="534" 
d="M119 -289l323 1843h195l-324 -1843h-194z" />
    <glyph glyph-name="braceright" unicode="}" horiz-adv-x="837" 
d="M561 608l8 49q-43 14 -67.5 53.5t-24.5 100.5q0 55 8 86l47 266q11 57 11 88q0 69 -38 98t-114 29h-72l29 176h84q149 0 235.5 -67.5t86.5 -194.5q0 -56 -11 -102l-47 -262q-8 -41 -8 -86q0 -117 113 -117h39l-35 -184h-37q-78 0 -117 -47.5t-57 -147.5l-51 -299
q-59 -336 -410 -336h-108l30 176h80q91 0 141 49.5t70 159.5l51 299q31 175 164 213z" />
    <glyph glyph-name="asciitilde" unicode="~" horiz-adv-x="1372" 
d="M1130 729h168q0 -171 -73.5 -252.5t-206.5 -81.5q-54 0 -109.5 21t-101.5 50.5t-90 59.5t-89.5 51t-84.5 21q-56 0 -83.5 -36t-27.5 -118h-168q0 171 73 252.5t206 81.5q54 0 110.5 -21t102.5 -51t89.5 -59.5t89 -50.5t83.5 -21q56 0 84 36t28 118z" />
    <glyph glyph-name="uni00A0" unicode="&#xa0;" horiz-adv-x="569" 
 />
    <glyph glyph-name="exclamdown" unicode="&#xa1;" horiz-adv-x="675" 
d="M373 -410h-236l105 590l123 449h147l-35 -449zM594 768h-264l47 274h264z" />
    <glyph glyph-name="cent" unicode="&#xa2;" horiz-adv-x="1157" 
d="M907 334h232q-33 -162 -161 -261.5t-316 -99.5h-13l-24 -137h-111l27 150q-157 30 -255 148.5t-98 297.5q0 130 36 243.5t103.5 200.5t171.5 138t232 53l25 139h110l-26 -145q141 -20 233 -111.5t105 -224.5h-230q-11 56 -47.5 93.5t-95.5 47.5l-123 -698q83 1 142 46.5
t83 119.5zM420 442q0 -102 40.5 -169.5t114.5 -90.5l121 686q-87 -8 -151.5 -73.5t-94.5 -157.5t-30 -195z" />
    <glyph glyph-name="sterling" unicode="&#xa3;" horiz-adv-x="1310" 
d="M504 209h770l-35 -209h-1130l34 209h39q77 0 118.5 45t59.5 135l33 182h-184l35 191h180l47 254q38 210 159.5 328t325.5 118q185 0 292.5 -93t107.5 -253q0 -38 -6 -82h-226q6 30 6 58q0 75 -48 116t-138 41q-107 0 -166 -61t-80 -178l-45 -248h445l-35 -191h-442
l-27 -155q-12 -61 -28 -94.5t-54 -63.5z" />
    <glyph glyph-name="currency" unicode="&#xa4;" horiz-adv-x="1478" 
d="M1292 8l-139 137q-137 -106 -317 -106t-320 106l-139 -137l-113 111l137 139q-106 145 -106 322t106 317l-137 139l113 113l139 -137q142 104 320 104t317 -104l139 137l113 -113l-137 -141q104 -139 104 -315q0 -178 -104 -320l137 -141zM836 193q156 0 262 111t106 276
q0 162 -106 272.5t-262 110.5t-264.5 -110.5t-108.5 -272.5q0 -165 108.5 -276t264.5 -111z" />
    <glyph glyph-name="yen" unicode="&#xa5;" horiz-adv-x="1290" 
d="M307 635l23 129h186l-213 670h238l200 -670h58l440 670h256l-446 -670h182l-23 -129h-247l-93 -137h316l-23 -129h-332l-65 -369h-238q18 108 37.5 211.5t20.5 110.5l8 47h-332l23 129h317l-43 137h-250z" />
    <glyph glyph-name="brokenbar" unicode="&#xa6;" horiz-adv-x="534" 
d="M319 842l123 712h195l-123 -712h-195zM119 -289l125 713h194l-125 -713h-194z" />
    <glyph glyph-name="section" unicode="&#xa7;" 
d="M180 57h217q-4 -103 59.5 -164t174.5 -61q104 0 164.5 43t60.5 131q0 56 -32 92.5t-101 63.5l-254 98q-132 50 -191 123t-59 174q0 55 16.5 103t40.5 80t56 57.5t59 39t53 21.5l11 49q-74 66 -74 191q0 157 122 260.5t326 103.5q94 0 174.5 -24.5t142.5 -73t96 -128.5
t30 -183h-219q6 101 -56 161t-178 60q-104 0 -161.5 -48t-57.5 -128q0 -54 32 -89.5t101 -62.5l254 -98q133 -53 192.5 -125t59.5 -172q0 -68 -23.5 -124.5t-60.5 -91.5t-73 -56t-70 -29l-8 -49q73 -70 73 -195q0 -157 -125 -259.5t-331 -102.5q-130 0 -231.5 46t-159.5 141
t-50 226zM887 674l-297 117q-23 -7 -47.5 -22.5t-49 -39.5t-40 -61t-15.5 -78q0 -57 31 -91t102 -65q43 -18 92 -38t109 -44t92 -37q54 15 105 69.5t51 131.5q0 59 -32 94.5t-101 63.5z" />
    <glyph glyph-name="dieresis" unicode="&#xa8;" horiz-adv-x="749" 
d="M510 1266h-205l39 223h207zM899 1266h-207l41 223h205z" />
    <glyph glyph-name="copyright" unicode="&#xa9;" horiz-adv-x="1753" 
d="M1204 608h154q-21 -126 -109.5 -204t-226.5 -78q-176 0 -275.5 113t-99.5 290q0 179 99.5 292.5t275.5 113.5q134 0 222.5 -73t107.5 -192h-156q-27 127 -174 127q-112 0 -165.5 -72.5t-53.5 -195.5q0 -119 54.5 -191.5t164.5 -72.5q77 0 123.5 37.5t58.5 105.5z
M1004 1489q157 0 297 -58.5t240.5 -159.5t159 -241.5t58.5 -298.5t-58.5 -298.5t-159 -241.5t-240.5 -159.5t-297 -58.5t-297.5 58.5t-241 159.5t-159 241.5t-58.5 298.5t59 298.5t159.5 241.5t240.5 159.5t297 58.5zM1004 94q177 0 321 83.5t225.5 229.5t81.5 324
q0 179 -81.5 324.5t-225.5 229t-321 83.5t-321 -83.5t-225 -229t-81 -324.5t81 -324.5t225 -229t321 -83.5z" />
    <glyph glyph-name="ordfeminine" unicode="&#xaa;" horiz-adv-x="888" 
d="M754 686v72h-27q-80 -90 -229 -90q-130 0 -203.5 75t-73.5 181q0 48 16.5 91t50 81t94 60t140.5 22h226v28q0 62 -41 96.5t-119 34.5q-142 0 -154 -100h-166q6 110 92 175t222 65q153 0 241 -70t88 -207v-514h-157zM541 807q87 0 147 52.5t60 133.5v64h-191
q-78 0 -125 -33.5t-47 -89.5q0 -60 43.5 -93.5t112.5 -33.5z" />
    <glyph glyph-name="guillemotleft" unicode="&#xab;" horiz-adv-x="1253" 
d="M428 602l-8 -47l276 -356h-241l-250 315l24 154l353 307h256zM907 602l-8 -47l277 -356h-242l-250 315l25 154l352 307h256z" />
    <glyph glyph-name="logicalnot" unicode="&#xac;" horiz-adv-x="1396" 
d="M1102 213v408h-862v196h1056v-604h-194z" />
    <glyph glyph-name="uni00AD" unicode="&#xad;" horiz-adv-x="786" 
d="M772 471h-590l35 203h590z" />
    <glyph glyph-name="registered" unicode="&#xae;" horiz-adv-x="1753" 
d="M715 1120h362q129 0 199 -62t70 -175q0 -143 -115 -205l121 -338h-156l-109 305h-221v-305h-151v780zM866 776h189q137 0 137 105q0 52 -32.5 78t-104.5 26h-189v-209zM1006 1489q157 0 297 -58.5t240.5 -159.5t159 -241.5t58.5 -298.5t-58.5 -298.5t-159 -241.5
t-240.5 -159.5t-297 -58.5t-297.5 58.5t-241 159.5t-159 241.5t-58.5 298.5t59 298.5t159.5 241.5t240.5 159.5t297 58.5zM1006 94q177 0 321 83.5t225.5 229.5t81.5 324q0 179 -81.5 324.5t-225.5 229t-321 83.5t-321 -83.5t-225 -229t-81 -324.5t81 -324.5t225 -229
t321 -83.5z" />
    <glyph glyph-name="overscore" unicode="&#xaf;" horiz-adv-x="753" 
d="M907 1288h-598l25 154h598z" />
    <glyph glyph-name="degree" unicode="&#xb0;" horiz-adv-x="958" 
d="M1069 1071q0 -173 -115.5 -289t-287.5 -116t-287 116t-115 289t115 289.5t287 116.5t287.5 -116.5t115.5 -289.5zM666 817q105 0 173 73t68 181t-68 182t-173 74t-173.5 -74t-68.5 -182t68.5 -181t173.5 -73z" />
    <glyph glyph-name="plusminus" unicode="&#xb1;" horiz-adv-x="1386" 
d="M231 0v197h1049v-197h-1049zM655 819v322h199v-322h426v-196h-426v-322h-199v322h-422v196h422z" />
    <glyph glyph-name="twosuperior" unicode="&#xb2;" horiz-adv-x="741" 
d="M813 821l-27 -139h-589l30 174l312 193q71 42 111 86.5t40 99.5q0 46 -32 72t-83 26q-119 0 -139 -123h-160q46 267 312 267q114 0 191 -62.5t77 -165.5q0 -43 -14.5 -82t-32.5 -65.5t-54 -56.5t-57.5 -45t-64.5 -42l-164 -102l-6 -35h350z" />
    <glyph glyph-name="threesuperior" unicode="&#xb3;" horiz-adv-x="759" 
d="M854 1298l-172 -104l-6 -29q80 -20 120 -75.5t40 -135.5q0 -126 -89.5 -206t-230.5 -80q-130 0 -211.5 73t-81.5 191h156q4 -59 42.5 -90t100.5 -31q72 0 115 38.5t43 100.5q0 53 -36 83t-93 30q-45 0 -76 -8l25 143l149 92l6 33h-315l25 139h518z" />
    <glyph glyph-name="acute" unicode="&#xb4;" horiz-adv-x="589" 
d="M782 1489l-284 -297h-211l233 297h262z" />
    <glyph glyph-name="mu" unicode="&#xb5;" horiz-adv-x="1286" 
d="M244 1042h231v-606q0 -256 232 -256q121 0 195.5 89t74.5 216v557h231v-1042h-223v100h-49q-94 -127 -301 -127q-81 0 -160 27v-410h-231v1452z" />
    <glyph glyph-name="paragraph" unicode="&#xb6;" horiz-adv-x="1415" 
d="M809 1462h776l-29 -166h-163l-293 -1658h-199l293 1658h-217l-293 -1658h-201l179 1005q-187 0 -296.5 86.5t-109.5 259.5q0 117 43.5 209t120.5 149t175.5 86t213.5 29z" />
    <glyph glyph-name="middot" unicode="&#xb7;" horiz-adv-x="565" 
d="M510 541h-264l47 274h266z" />
    <glyph glyph-name="cedilla" unicode="&#xb8;" horiz-adv-x="567" 
d="M211 49h104l-94 -170h27q27 21 69 21q55 0 91 -41t36 -107q0 -88 -61 -146.5t-164 -58.5q-88 0 -139 44t-53 110h129q9 -49 69 -49q36 0 60 23t24 61q0 29 -18 46t-47 17q-39 0 -66 -24h-123z" />
    <glyph glyph-name="onesuperior" unicode="&#xb9;" horiz-adv-x="681" 
d="M573 821h183l-25 -139h-530l24 139h189l82 465h-37l-166 -90l24 154l211 112h160z" />
    <glyph glyph-name="ordmasculine" unicode="&#xba;" horiz-adv-x="919" 
d="M623 1477q176 0 280.5 -114t104.5 -290t-104.5 -290.5t-280.5 -114.5t-280.5 114.5t-104.5 290.5t104.5 290t280.5 114zM623 815q106 0 163.5 75t57.5 183q0 107 -57 181.5t-164 74.5t-164.5 -74.5t-57.5 -181.5q0 -69 23.5 -126t75 -94.5t123.5 -37.5z" />
    <glyph glyph-name="guillemotright" unicode="&#xbb;" horiz-adv-x="1253" 
d="M1032 571l8 47l-276 357h242l249 -316l-24 -153l-352 -307h-256zM553 571l8 47l-276 357h241l250 -316l-24 -153l-353 -307h-256z" />
    <glyph glyph-name="onequarter" unicode="&#xbc;" horiz-adv-x="1814" 
d="M592 0h-178l1120 1434h176zM573 821h183l-25 -139h-530l24 139h189l82 465h-37l-166 -90l24 154l211 112h160zM1692 305h100l-25 -137h-100l-29 -168h-155l28 168h-383l27 160l422 452h199zM1319 305h219l51 291h-33l-231 -256z" />
    <glyph glyph-name="onehalf" unicode="&#xbd;" horiz-adv-x="1884" 
d="M592 0h-178l1120 1434h176zM573 821h183l-25 -139h-530l24 139h189l82 465h-37l-166 -90l24 154l211 112h160zM1821 139l-27 -139h-590l31 174l311 193q71 43 111.5 87t40.5 99q0 46 -32 72t-83 26q-119 0 -139 -123h-160q46 267 311 267q114 0 191.5 -62.5t77.5 -165.5
q0 -36 -8.5 -68t-27.5 -60t-36 -48t-49 -44t-49.5 -36t-53.5 -35l-163 -102l-7 -35h351z" />
    <glyph glyph-name="threequarters" unicode="&#xbe;" horiz-adv-x="1835" 
d="M612 0h-178l1120 1434h177zM1712 305h100l-24 -137h-100l-29 -168h-156l29 168h-383l27 160l421 452h199zM1339 305h220l51 291h-33l-231 -256zM854 1298l-172 -104l-6 -29q80 -20 120 -75.5t40 -135.5q0 -126 -89.5 -206t-230.5 -80q-130 0 -211.5 73t-81.5 191h156
q4 -59 42.5 -90t100.5 -31q72 0 115 38.5t43 100.5q0 53 -36 83t-93 30q-45 0 -76 -8l25 143l149 92l6 33h-315l25 139h518z" />
    <glyph glyph-name="questiondown" unicode="&#xbf;" horiz-adv-x="1132" 
d="M547 -428q-199 0 -323 105t-124 262q0 64 15.5 119t40.5 96t66.5 80.5t83.5 69t102 63.5q91 52 131 95t51 120l8 47h236l-9 -49q-10 -66 -28.5 -113t-53 -86.5t-75 -70t-107.5 -70.5q-115 -68 -168 -127t-53 -152q0 -81 60.5 -133.5t158.5 -52.5q114 0 181.5 62.5
t84.5 180.5h232q-13 -97 -50 -176.5t-98.5 -140.5t-154 -95t-207.5 -34zM653 1042h262l-49 -274h-258z" />
    <glyph glyph-name="Agrave" unicode="&#xc0;" horiz-adv-x="1431" 
d="M1147 0l-62 420h-593l-205 -420h-248l735 1462h393l226 -1462h-246zM887 1223l-287 -584h455l-84 584h-84zM883 1571l-187 264h252l137 -264h-202z" />
    <glyph glyph-name="Aacute" unicode="&#xc1;" horiz-adv-x="1431" 
d="M1147 0l-62 420h-593l-205 -420h-248l735 1462h393l226 -1462h-246zM887 1223l-287 -584h455l-84 584h-84zM1360 1835l-277 -264h-215l230 264h262z" />
    <glyph glyph-name="Acircumflex" unicode="&#xc2;" horiz-adv-x="1431" 
d="M1147 0l-62 420h-593l-205 -420h-248l735 1462h393l226 -1462h-246zM887 1223l-287 -584h455l-84 584h-84zM657 1571l267 264h211l174 -264h-187l-86 127h-49l-131 -127h-199z" />
    <glyph glyph-name="Atilde" unicode="&#xc3;" horiz-adv-x="1431" 
d="M1147 0l-62 420h-593l-205 -420h-248l735 1462h393l226 -1462h-246zM887 1223l-287 -584h455l-84 584h-84zM1253 1835h119q-48 -266 -237 -266q-44 0 -84.5 19t-66 42.5t-57.5 42.5t-61 19q-74 0 -98 -121h-121q48 266 238 266q45 0 86 -19t66.5 -41.5t57 -41.5t58.5 -19
q75 0 100 119z" />
    <glyph glyph-name="Adieresis" unicode="&#xc4;" horiz-adv-x="1431" 
d="M1147 0l-62 420h-593l-205 -420h-248l735 1462h393l226 -1462h-246zM887 1223l-287 -584h455l-84 584h-84zM907 1626h-207l35 209h207zM1294 1626h-204l34 209h205z" />
    <glyph glyph-name="Aring" unicode="&#xc5;" horiz-adv-x="1431" 
d="M971 1815q96 0 163.5 -68t67.5 -162q0 -67 -37 -123l228 -1462h-246l-62 420h-593l-205 -420h-248l735 1462q-37 52 -37 123q0 94 69.5 162t164.5 68zM887 1223l-287 -584h455l-84 584h-84zM971 1475q47 0 78.5 31.5t31.5 78.5t-31.5 79t-78.5 32t-79 -32t-32 -79
t32 -78.5t79 -31.5z" />
    <glyph glyph-name="AE" unicode="&#xc6;" horiz-adv-x="2091" 
d="M1034 0l74 422h-526l-291 -422h-279l1035 1462h1179l-37 -223h-692l-67 -377h526l-37 -219h-526l-76 -420h719l-39 -223h-963zM1147 1239l-416 -600h414l106 600h-104z" />
    <glyph glyph-name="Ccedilla" unicode="&#xc7;" horiz-adv-x="1482" 
d="M1223 442h256q-54 -211 -223.5 -340t-411.5 -129q-8 0 -24.5 1t-24.5 1l-54 -96h27q27 21 70 21q55 0 91 -41t36 -107q0 -87 -61.5 -146t-164.5 -59q-88 0 -139 44t-53 110h129q9 -49 69 -49q36 0 60 23t24 61q0 29 -18 46t-47 17q-39 0 -66 -24h-123l121 213
q-213 42 -340 203.5t-127 408.5q0 181 53 342.5t149.5 283t242 192.5t319.5 71q221 0 368 -115.5t179 -316.5h-252q-47 209 -309 209q-97 0 -179.5 -38t-140.5 -102.5t-98.5 -149t-60 -177t-19.5 -187.5q0 -190 99 -302.5t280 -112.5q137 0 231.5 65t131.5 180z" />
    <glyph glyph-name="Egrave" unicode="&#xc8;" horiz-adv-x="1339" 
d="M461 223h819l-35 -223h-1067l256 1462h1041l-39 -223h-795l-68 -377h631l-39 -219h-628zM926 1571l-187 264h252l137 -264h-202z" />
    <glyph glyph-name="Eacute" unicode="&#xc9;" horiz-adv-x="1339" 
d="M461 223h819l-35 -223h-1067l256 1462h1041l-39 -223h-795l-68 -377h631l-39 -219h-628zM1286 1835l-276 -264h-215l229 264h262z" />
    <glyph glyph-name="Ecircumflex" unicode="&#xca;" horiz-adv-x="1339" 
d="M461 223h819l-35 -223h-1067l256 1462h1041l-39 -223h-795l-68 -377h631l-39 -219h-628zM653 1571l267 264h210l175 -264h-187l-86 127h-49l-131 -127h-199z" />
    <glyph glyph-name="Edieresis" unicode="&#xcb;" horiz-adv-x="1339" 
d="M461 223h819l-35 -223h-1067l256 1462h1041l-39 -223h-795l-68 -377h631l-39 -219h-628zM895 1626h-207l35 209h207zM1282 1626h-205l35 209h205z" />
    <glyph glyph-name="Igrave" unicode="&#xcc;" horiz-adv-x="624" 
d="M444 1462h248l-256 -1462h-248zM492 1571l-187 264h252l137 -264h-202z" />
    <glyph glyph-name="Iacute" unicode="&#xcd;" horiz-adv-x="624" 
d="M444 1462h248l-256 -1462h-248zM973 1835l-277 -264h-215l230 264h262z" />
    <glyph glyph-name="Icircumflex" unicode="&#xce;" horiz-adv-x="624" 
d="M444 1462h248l-256 -1462h-248zM258 1571l266 264h211l174 -264h-186l-86 127h-49l-131 -127h-199z" />
    <glyph glyph-name="Idieresis" unicode="&#xcf;" horiz-adv-x="624" 
d="M444 1462h248l-256 -1462h-248zM504 1626h-207l35 209h207zM891 1626h-205l35 209h205z" />
    <glyph glyph-name="Eth" unicode="&#xd0;" horiz-adv-x="1576" 
d="M182 651l33 193h164l108 618h465q148 0 265.5 -34.5t205 -105.5t134.5 -186.5t47 -269.5q0 -135 -28.5 -259t-92.5 -235.5t-156.5 -193.5t-229.5 -130t-304 -48h-562l113 651h-162zM514 223h295q107 0 194.5 29.5t145.5 80.5t99.5 113.5t63.5 136t32 139.5t10 132
q0 385 -410 385h-250l-71 -395h417l-32 -193h-418z" />
    <glyph glyph-name="Ntilde" unicode="&#xd1;" horiz-adv-x="1572" 
d="M1421 1462h230l-256 -1462h-332l-412 1106h-49l-194 -1106h-230l256 1462h332l412 -1106h49zM1319 1835h119q-48 -266 -238 -266q-36 0 -69 12.5t-57 30.5t-46.5 36.5t-47 31t-48.5 12.5q-74 0 -98 -121h-121q48 266 237 266q45 0 86 -19t67 -41.5t57.5 -41.5t58.5 -19
q75 0 100 119z" />
    <glyph glyph-name="Ograve" unicode="&#xd2;" horiz-adv-x="1597" 
d="M1001 1489q134 0 248.5 -43.5t197.5 -123t130 -198t47 -260.5q0 -143 -33 -275.5t-98.5 -244.5t-157 -195t-216 -129.5t-267.5 -46.5q-276 0 -449.5 170t-173.5 457q0 143 33 275t98.5 243.5t157 194.5t216 129.5t267.5 46.5zM866 197q100 0 185 39t143.5 104t100 150
t60.5 177t19 185q0 188 -101.5 301t-285.5 113q-100 0 -185 -39t-143.5 -103.5t-100 -149.5t-60.5 -177t-19 -185q0 -189 101.5 -302t285.5 -113zM987 1571l-186 264h252l137 -264h-203z" />
    <glyph glyph-name="Oacute" unicode="&#xd3;" horiz-adv-x="1597" 
d="M1001 1489q134 0 248.5 -43.5t197.5 -123t130 -198t47 -260.5q0 -143 -33 -275.5t-98.5 -244.5t-157 -195t-216 -129.5t-267.5 -46.5q-276 0 -449.5 170t-173.5 457q0 143 33 275t98.5 243.5t157 194.5t216 129.5t267.5 46.5zM866 197q100 0 185 39t143.5 104t100 150
t60.5 177t19 185q0 188 -101.5 301t-285.5 113q-100 0 -185 -39t-143.5 -103.5t-100 -149.5t-60.5 -177t-19 -185q0 -189 101.5 -302t285.5 -113zM1430 1835l-277 -264h-215l229 264h263z" />
    <glyph glyph-name="Ocircumflex" unicode="&#xd4;" horiz-adv-x="1597" 
d="M1001 1489q134 0 248.5 -43.5t197.5 -123t130 -198t47 -260.5q0 -143 -33 -275.5t-98.5 -244.5t-157 -195t-216 -129.5t-267.5 -46.5q-276 0 -449.5 170t-173.5 457q0 143 33 275t98.5 243.5t157 194.5t216 129.5t267.5 46.5zM866 197q100 0 185 39t143.5 104t100 150
t60.5 177t19 185q0 188 -101.5 301t-285.5 113q-100 0 -185 -39t-143.5 -103.5t-100 -149.5t-60.5 -177t-19 -185q0 -189 101.5 -302t285.5 -113zM766 1571l266 264h211l174 -264h-186l-86 127h-49l-131 -127h-199z" />
    <glyph glyph-name="Otilde" unicode="&#xd5;" horiz-adv-x="1597" 
d="M1001 1489q134 0 248.5 -43.5t197.5 -123t130 -198t47 -260.5q0 -143 -33 -275.5t-98.5 -244.5t-157 -195t-216 -129.5t-267.5 -46.5q-276 0 -449.5 170t-173.5 457q0 143 33 275t98.5 243.5t157 194.5t216 129.5t267.5 46.5zM866 197q100 0 185 39t143.5 104t100 150
t60.5 177t19 185q0 188 -101.5 301t-285.5 113q-100 0 -185 -39t-143.5 -103.5t-100 -149.5t-60.5 -177t-19 -185q0 -189 101.5 -302t285.5 -113zM1339 1835h119q-48 -266 -237 -266q-44 0 -84.5 19t-66 42.5t-57.5 42.5t-61 19q-74 0 -98 -121h-121q48 266 238 266
q45 0 86 -19t66.5 -41.5t57 -41.5t58.5 -19q75 0 100 119z" />
    <glyph glyph-name="Odieresis" unicode="&#xd6;" horiz-adv-x="1597" 
d="M1001 1489q134 0 248.5 -43.5t197.5 -123t130 -198t47 -260.5q0 -143 -33 -275.5t-98.5 -244.5t-157 -195t-216 -129.5t-267.5 -46.5q-276 0 -449.5 170t-173.5 457q0 143 33 275t98.5 243.5t157 194.5t216 129.5t267.5 46.5zM866 197q100 0 185 39t143.5 104t100 150
t60.5 177t19 185q0 188 -101.5 301t-285.5 113q-100 0 -185 -39t-143.5 -103.5t-100 -149.5t-60.5 -177t-19 -185q0 -189 101.5 -302t285.5 -113zM999 1626h-206l34 209h207zM1386 1626h-204l35 209h204z" />
    <glyph glyph-name="multiply" unicode="&#xd7;" horiz-adv-x="1329" 
d="M621 588l-357 360l137 137l359 -358l358 356l137 -135l-356 -360l356 -361l-137 -137l-358 359l-357 -355l-137 135z" />
    <glyph glyph-name="Oslash" unicode="&#xd8;" horiz-adv-x="1597" 
d="M1001 1489q257 0 429 -152l122 125h199l-229 -231q102 -151 102 -367q0 -143 -33 -275.5t-98.5 -244.5t-157 -195t-216 -129.5t-267.5 -46.5q-258 0 -430 152l-123 -125h-197l230 231q-103 153 -103 369q0 143 33 275t98.5 243.5t157 194.5t216 129.5t267.5 46.5z
M866 197q100 0 185 39t143.5 104t100 150t60.5 177t19 185q0 111 -37 195l-743 -750q100 -100 272 -100zM479 612q0 -106 35 -196l746 749q-106 101 -273 101q-100 0 -185 -39t-143.5 -103.5t-100 -149.5t-60.5 -177t-19 -185z" />
    <glyph glyph-name="Ugrave" unicode="&#xd9;" horiz-adv-x="1527" 
d="M1364 1462h246l-164 -936q-48 -269 -209.5 -411t-437.5 -142q-247 0 -394 122t-147 325q0 55 12 133l160 909h244l-160 -897q-10 -55 -10 -110q0 -123 80.5 -190.5t226.5 -67.5q331 0 393 352zM975 1571l-187 264h252l138 -264h-203z" />
    <glyph glyph-name="Uacute" unicode="&#xda;" horiz-adv-x="1527" 
d="M1364 1462h246l-164 -936q-48 -269 -209.5 -411t-437.5 -142q-247 0 -394 122t-147 325q0 55 12 133l160 909h244l-160 -897q-10 -55 -10 -110q0 -123 80.5 -190.5t226.5 -67.5q331 0 393 352zM1393 1835l-277 -264h-215l229 264h263z" />
    <glyph glyph-name="Ucircumflex" unicode="&#xdb;" horiz-adv-x="1527" 
d="M1364 1462h246l-164 -936q-48 -269 -209.5 -411t-437.5 -142q-247 0 -394 122t-147 325q0 55 12 133l160 909h244l-160 -897q-10 -55 -10 -110q0 -123 80.5 -190.5t226.5 -67.5q331 0 393 352zM709 1571l266 264h211l174 -264h-186l-87 127h-49l-131 -127h-198z" />
    <glyph glyph-name="Udieresis" unicode="&#xdc;" horiz-adv-x="1527" 
d="M1364 1462h246l-164 -936q-48 -269 -209.5 -411t-437.5 -142q-247 0 -394 122t-147 325q0 55 12 133l160 909h244l-160 -897q-10 -55 -10 -110q0 -123 80.5 -190.5t226.5 -67.5q331 0 393 352zM954 1626h-206l34 209h207zM1341 1626h-204l34 209h205z" />
    <glyph glyph-name="Yacute" unicode="&#xdd;" horiz-adv-x="1343" 
d="M780 838h58l454 624h269l-672 -923l-94 -539h-248l96 539l-352 923h250zM1284 1835l-276 -264h-215l229 264h262z" />
    <glyph glyph-name="Thorn" unicode="&#xde;" horiz-adv-x="1357" 
d="M629 1167h350q120 0 215.5 -44t152 -133t56.5 -210q0 -227 -152.5 -356t-410.5 -129h-365l-53 -295h-246l258 1462h246zM936 950h-346l-78 -438h356q126 0 205.5 64.5t79.5 189.5q0 89 -61.5 136.5t-155.5 47.5z" />
    <glyph glyph-name="germandbls" unicode="&#xdf;" horiz-adv-x="1282" 
d="M217 1042h186q42 228 159 339.5t333 111.5q185 0 299.5 -99.5t114.5 -254.5q0 -110 -52.5 -193.5t-146.5 -126.5l-6 -49q91 -42 138.5 -121.5t47.5 -183.5q0 -212 -147 -338.5t-373 -126.5h-158l35 197h111q134 0 217.5 73t83.5 201q0 102 -68.5 162.5t-175.5 60.5h-67
l34 197h88q92 0 150.5 64t58.5 159q0 85 -54 133.5t-142 48.5q-107 0 -165.5 -58t-82.5 -181l-186 -1057h-230l148 846h-183z" />
    <glyph glyph-name="agrave" unicode="&#xe0;" horiz-adv-x="1177" 
d="M809 0l16 98h-49q-115 -125 -299 -125q-152 0 -245 90t-93 226q0 181 125 279t332 98h319q11 42 11 79q0 67 -49 104.5t-144 37.5q-97 0 -155 -34.5t-72 -98.5h-232q25 148 151 231.5t318 83.5q185 0 296.5 -81t111.5 -228q0 -51 -10 -103l-117 -657h-215zM563 162
q115 0 204 79t107 189l13 72h-258q-115 0 -183.5 -45.5t-68.5 -143.5q0 -72 48 -111.5t138 -39.5zM737 1192l-178 297h250l127 -297h-199z" />
    <glyph glyph-name="aacute" unicode="&#xe1;" horiz-adv-x="1177" 
d="M809 0l16 98h-49q-115 -125 -299 -125q-152 0 -245 90t-93 226q0 181 125 279t332 98h319q11 42 11 79q0 67 -49 104.5t-144 37.5q-97 0 -155 -34.5t-72 -98.5h-232q25 148 151 231.5t318 83.5q185 0 296.5 -81t111.5 -228q0 -51 -10 -103l-117 -657h-215zM563 162
q115 0 204 79t107 189l13 72h-258q-115 0 -183.5 -45.5t-68.5 -143.5q0 -72 48 -111.5t138 -39.5zM1149 1489l-285 -297h-211l234 297h262z" />
    <glyph glyph-name="acircumflex" unicode="&#xe2;" horiz-adv-x="1177" 
d="M809 0l16 98h-49q-115 -125 -299 -125q-152 0 -245 90t-93 226q0 181 125 279t332 98h319q11 42 11 79q0 67 -49 104.5t-144 37.5q-97 0 -155 -34.5t-72 -98.5h-232q25 148 151 231.5t318 83.5q185 0 296.5 -81t111.5 -228q0 -51 -10 -103l-117 -657h-215zM563 162
q115 0 204 79t107 189l13 72h-258q-115 0 -183.5 -45.5t-68.5 -143.5q0 -72 48 -111.5t138 -39.5zM963 1489l167 -297h-178l-88 154h-49l-145 -154h-191l277 297h207z" />
    <glyph glyph-name="atilde" unicode="&#xe3;" horiz-adv-x="1177" 
d="M809 0l16 98h-49q-115 -125 -299 -125q-152 0 -245 90t-93 226q0 181 125 279t332 98h319q11 42 11 79q0 67 -49 104.5t-144 37.5q-97 0 -155 -34.5t-72 -98.5h-232q25 148 151 231.5t318 83.5q185 0 296.5 -81t111.5 -228q0 -51 -10 -103l-117 -657h-215zM563 162
q115 0 204 79t107 189l13 72h-258q-115 0 -183.5 -45.5t-68.5 -143.5q0 -72 48 -111.5t138 -39.5zM1067 1479h123q-48 -279 -242 -279q-43 0 -83.5 20.5t-65.5 45t-55.5 45t-57.5 20.5q-73 0 -98 -131h-123q48 279 242 279q43 0 83.5 -20.5t65.5 -45t55.5 -45t57.5 -20.5
q73 0 98 131z" />
    <glyph glyph-name="adieresis" unicode="&#xe4;" horiz-adv-x="1177" 
d="M809 0l16 98h-49q-115 -125 -299 -125q-152 0 -245 90t-93 226q0 181 125 279t332 98h319q11 42 11 79q0 67 -49 104.5t-144 37.5q-97 0 -155 -34.5t-72 -98.5h-232q25 148 151 231.5t318 83.5q185 0 296.5 -81t111.5 -228q0 -51 -10 -103l-117 -657h-215zM563 162
q115 0 204 79t107 189l13 72h-258q-115 0 -183.5 -45.5t-68.5 -143.5q0 -72 48 -111.5t138 -39.5zM719 1266h-205l39 223h207zM1108 1266h-207l41 223h205z" />
    <glyph glyph-name="aring" unicode="&#xe5;" horiz-adv-x="1177" 
d="M809 0l16 98h-49q-115 -125 -299 -125q-152 0 -245 90t-93 226q0 181 125 279t332 98h319q11 42 11 79q0 67 -49 104.5t-144 37.5q-97 0 -155 -34.5t-72 -98.5h-232q25 148 151 231.5t318 83.5q185 0 296.5 -81t111.5 -228q0 -51 -10 -103l-117 -657h-215zM563 162
q115 0 204 79t107 189l13 72h-258q-115 0 -183.5 -45.5t-68.5 -143.5q0 -72 48 -111.5t138 -39.5zM834 1634q97 0 164 -65.5t67 -163.5q0 -93 -67.5 -160t-163.5 -67q-95 0 -164.5 67.5t-69.5 159.5q0 97 69 163t165 66zM834 1296q47 0 78.5 31t31.5 78q0 48 -31.5 80.5
t-78.5 32.5t-79 -33t-32 -80t32 -78t79 -31z" />
    <glyph glyph-name="ae" unicode="&#xe6;" horiz-adv-x="1851" 
d="M506 754h-232q26 147 149.5 231t305.5 84q220 0 315 -141h50q141 141 344 141q183 0 301.5 -124.5t118.5 -330.5q0 -54 -9 -112h-749q-2 -27 -2 -74q0 -118 67.5 -188t184.5 -70q83 0 134.5 32.5t84.5 100.5h233q-42 -153 -163 -241.5t-302 -88.5q-118 0 -212 49
t-154 140h-49q-74 -85 -181 -137t-237 -52q-173 0 -269 89.5t-96 228.5q0 181 124.5 277t332.5 96h315q13 67 13 86q0 64 -51 100.5t-142 36.5q-96 0 -153.5 -35t-71.5 -98zM563 162q116 0 201.5 75.5t105.5 192.5l13 72h-256q-113 0 -181.5 -46t-68.5 -143q0 -73 47.5 -112
t138.5 -39zM1413 885q-104 0 -178 -56t-109 -161h498q-5 97 -56 157t-155 60z" />
    <glyph glyph-name="ccedilla" unicode="&#xe7;" horiz-adv-x="1157" 
d="M907 334h232q-36 -167 -164.5 -264t-323.5 -97q-21 0 -35 2l-51 -96h27q27 21 70 21q55 0 90.5 -40.5t35.5 -107.5q0 -88 -61 -146.5t-164 -58.5q-88 0 -139 44t-53 110h129q9 -49 69 -49q36 0 60 23t24 61q0 29 -18 46t-47 17q-39 0 -66 -24h-123l121 215
q-150 38 -241 153.5t-91 288.5q0 132 38.5 248t109 202.5t178.5 136.5t240 50q173 0 290 -95.5t134 -248.5h-230q-14 68 -67.5 107.5t-139.5 39.5q-98 0 -173 -63t-111.5 -159.5t-36.5 -207.5q0 -129 65.5 -200.5t182.5 -71.5q90 0 152.5 44t86.5 120z" />
    <glyph glyph-name="egrave" unicode="&#xe8;" horiz-adv-x="1181" 
d="M899 303h234q-37 -155 -163 -242.5t-315 -87.5q-129 0 -234.5 54.5t-169 161.5t-63.5 247q0 181 65.5 323.5t194.5 226t304 83.5q193 0 314.5 -124.5t121.5 -332.5q0 -52 -6 -110h-760q-4 -28 -4 -56q0 -126 68.5 -202t189.5 -76q167 0 223 135zM741 885q-106 0 -179 -55
t-109 -156h503q-5 94 -58.5 152.5t-156.5 58.5zM727 1192l-178 297h250l127 -297h-199z" />
    <glyph glyph-name="eacute" unicode="&#xe9;" horiz-adv-x="1181" 
d="M899 303h234q-37 -155 -163 -242.5t-315 -87.5q-129 0 -234.5 54.5t-169 161.5t-63.5 247q0 181 65.5 323.5t194.5 226t304 83.5q193 0 314.5 -124.5t121.5 -332.5q0 -52 -6 -110h-760q-4 -28 -4 -56q0 -126 68.5 -202t189.5 -76q167 0 223 135zM741 885q-106 0 -179 -55
t-109 -156h503q-5 94 -58.5 152.5t-156.5 58.5zM1149 1489l-285 -297h-211l234 297h262z" />
    <glyph glyph-name="ecircumflex" unicode="&#xea;" horiz-adv-x="1181" 
d="M899 303h234q-37 -155 -163 -242.5t-315 -87.5q-129 0 -234.5 54.5t-169 161.5t-63.5 247q0 181 65.5 323.5t194.5 226t304 83.5q193 0 314.5 -124.5t121.5 -332.5q0 -52 -6 -110h-760q-4 -28 -4 -56q0 -126 68.5 -202t189.5 -76q167 0 223 135zM741 885q-106 0 -179 -55
t-109 -156h503q-5 94 -58.5 152.5t-156.5 58.5zM944 1489l168 -297h-178l-88 154h-49l-146 -154h-190l276 297h207z" />
    <glyph glyph-name="edieresis" unicode="&#xeb;" horiz-adv-x="1181" 
d="M899 303h234q-37 -155 -163 -242.5t-315 -87.5q-129 0 -234.5 54.5t-169 161.5t-63.5 247q0 181 65.5 323.5t194.5 226t304 83.5q193 0 314.5 -124.5t121.5 -332.5q0 -52 -6 -110h-760q-4 -28 -4 -56q0 -126 68.5 -202t189.5 -76q167 0 223 135zM741 885q-106 0 -179 -55
t-109 -156h503q-5 94 -58.5 152.5t-156.5 58.5zM705 1266h-205l39 223h206zM1094 1266h-207l41 223h205z" />
    <glyph glyph-name="igrave" unicode="&#xec;" horiz-adv-x="548" 
d="M385 1192l-178 297h250l127 -297h-199zM575 1042l-184 -1042h-231l182 1042h233z" />
    <glyph glyph-name="iacute" unicode="&#xed;" horiz-adv-x="548" 
d="M877 1489l-285 -297h-211l233 297h263zM575 1042l-184 -1042h-231l182 1042h233z" />
    <glyph glyph-name="icircumflex" unicode="&#xee;" horiz-adv-x="548" 
d="M575 1042l-184 -1042h-231l182 1042h233zM637 1489l168 -297h-178l-88 154h-50l-145 -154h-190l276 297h207z" />
    <glyph glyph-name="idieresis" unicode="&#xef;" horiz-adv-x="548" 
d="M403 1266h-204l39 223h206zM793 1266h-207l41 223h204zM575 1042l-184 -1042h-231l182 1042h233z" />
    <glyph glyph-name="eth" unicode="&#xf0;" horiz-adv-x="1214" 
d="M420 1264h315q-89 98 -258 217h275q137 -105 227 -217h246l-23 -125h-143q147 -259 147 -535q0 -184 -66 -326t-195 -223.5t-302 -81.5q-196 0 -325.5 121t-129.5 318q0 167 61.5 301.5t174.5 212.5t258 78q73 0 132.5 -23t88.5 -55h49q-39 110 -116 213h-439zM659 170
q98 0 172 58t109 146.5t35 190.5q0 115 -65.5 182.5t-176.5 67.5q-98 0 -171.5 -58.5t-108.5 -146.5t-35 -190q0 -115 65 -182.5t176 -67.5z" />
    <glyph glyph-name="ntilde" unicode="&#xf1;" 
d="M1116 0h-231l102 582q12 66 12 102q0 178 -194 178q-121 0 -206 -85t-110 -224l-98 -553h-231l184 1042h223l-18 -100h49q110 127 307 127q157 0 243.5 -88.5t86.5 -237.5q0 -47 -12 -129zM1118 1479h123q-48 -279 -242 -279q-43 0 -83.5 20.5t-65.5 45t-55.5 45
t-57.5 20.5q-73 0 -98 -131h-123q48 279 242 279q43 0 83.5 -20.5t65.5 -45t55.5 -45t57.5 -20.5q73 0 98 131z" />
    <glyph glyph-name="ograve" unicode="&#xf2;" horiz-adv-x="1253" 
d="M768 1069q99 0 186.5 -31.5t153.5 -89t104.5 -145.5t38.5 -195q0 -182 -67.5 -325t-200.5 -226.5t-313 -83.5q-207 0 -344.5 124.5t-137.5 338.5q0 181 67 323.5t200 226t313 83.5zM684 170q105 0 183 61.5t115.5 157.5t37.5 209q0 128 -71 201t-195 73
q-105 0 -183 -61.5t-115.5 -157t-37.5 -207.5q0 -130 71 -203t195 -73zM752 1192l-179 297h250l127 -297h-198z" />
    <glyph glyph-name="oacute" unicode="&#xf3;" horiz-adv-x="1253" 
d="M768 1069q99 0 186.5 -31.5t153.5 -89t104.5 -145.5t38.5 -195q0 -182 -67.5 -325t-200.5 -226.5t-313 -83.5q-207 0 -344.5 124.5t-137.5 338.5q0 181 67 323.5t200 226t313 83.5zM684 170q105 0 183 61.5t115.5 157.5t37.5 209q0 128 -71 201t-195 73
q-105 0 -183 -61.5t-115.5 -157t-37.5 -207.5q0 -130 71 -203t195 -73zM1174 1489l-285 -297h-211l233 297h263z" />
    <glyph glyph-name="ocircumflex" unicode="&#xf4;" horiz-adv-x="1253" 
d="M768 1069q99 0 186.5 -31.5t153.5 -89t104.5 -145.5t38.5 -195q0 -182 -67.5 -325t-200.5 -226.5t-313 -83.5q-207 0 -344.5 124.5t-137.5 338.5q0 181 67 323.5t200 226t313 83.5zM684 170q105 0 183 61.5t115.5 157.5t37.5 209q0 128 -71 201t-195 73
q-105 0 -183 -61.5t-115.5 -157t-37.5 -207.5q0 -130 71 -203t195 -73zM971 1489l168 -297h-178l-89 154h-49l-145 -154h-191l277 297h207z" />
    <glyph glyph-name="otilde" unicode="&#xf5;" horiz-adv-x="1253" 
d="M768 1069q99 0 186.5 -31.5t153.5 -89t104.5 -145.5t38.5 -195q0 -182 -67.5 -325t-200.5 -226.5t-313 -83.5q-207 0 -344.5 124.5t-137.5 338.5q0 181 67 323.5t200 226t313 83.5zM684 170q105 0 183 61.5t115.5 157.5t37.5 209q0 128 -71 201t-195 73
q-105 0 -183 -61.5t-115.5 -157t-37.5 -207.5q0 -130 71 -203t195 -73zM1073 1479h123q-48 -279 -242 -279q-43 0 -83.5 20.5t-65.5 45t-55.5 45t-57.5 20.5q-73 0 -98 -131h-123q48 279 242 279q43 0 83.5 -20.5t65.5 -45t55.5 -45t57.5 -20.5q73 0 98 131z" />
    <glyph glyph-name="odieresis" unicode="&#xf6;" horiz-adv-x="1253" 
d="M768 1069q99 0 186.5 -31.5t153.5 -89t104.5 -145.5t38.5 -195q0 -182 -67.5 -325t-200.5 -226.5t-313 -83.5q-207 0 -344.5 124.5t-137.5 338.5q0 181 67 323.5t200 226t313 83.5zM684 170q105 0 183 61.5t115.5 157.5t37.5 209q0 128 -71 201t-195 73
q-105 0 -183 -61.5t-115.5 -157t-37.5 -207.5q0 -130 71 -203t195 -73zM741 1266h-204l38 223h207zM1130 1266h-206l41 223h204z" />
    <glyph glyph-name="divide" unicode="&#xf7;" horiz-adv-x="1402" 
d="M930 35h-266v254h266v-254zM930 887h-266v254h266v-254zM1329 489h-1065v197h1065v-197z" />
    <glyph glyph-name="oslash" unicode="&#xf8;" horiz-adv-x="1253" 
d="M768 1069q181 0 317 -102l76 75h174l-166 -161q82 -116 82 -273q0 -182 -67.5 -325t-200.5 -226.5t-313 -83.5q-187 0 -320 103l-76 -76h-174l166 164q-78 115 -78 272q0 181 67 323.5t200 226t313 83.5zM684 170q105 0 183 61.5t115.5 157.5t37.5 209q0 66 -21 115
l-493 -486q69 -57 178 -57zM418 446q0 -66 18 -116l494 485q-69 57 -176 57q-105 0 -183 -61.5t-115.5 -157t-37.5 -207.5z" />
    <glyph glyph-name="ugrave" unicode="&#xf9;" 
d="M330 1042h231l-102 -581q-13 -76 -13 -107q0 -174 195 -174q121 0 205.5 85t109.5 224l99 553h231l-184 -1042h-223l18 100h-49q-110 -127 -307 -127q-157 0 -243.5 88.5t-86.5 237.5q0 65 12 129zM752 1192l-179 297h250l127 -297h-198z" />
    <glyph glyph-name="uacute" unicode="&#xfa;" 
d="M330 1042h231l-102 -581q-13 -76 -13 -107q0 -174 195 -174q121 0 205.5 85t109.5 224l99 553h231l-184 -1042h-223l18 100h-49q-110 -127 -307 -127q-157 0 -243.5 88.5t-86.5 237.5q0 65 12 129zM1174 1489l-285 -297h-211l233 297h263z" />
    <glyph glyph-name="ucircumflex" unicode="&#xfb;" 
d="M330 1042h231l-102 -581q-13 -76 -13 -107q0 -174 195 -174q121 0 205.5 85t109.5 224l99 553h231l-184 -1042h-223l18 100h-49q-110 -127 -307 -127q-157 0 -243.5 88.5t-86.5 237.5q0 65 12 129zM983 1489l168 -297h-178l-88 154h-49l-146 -154h-190l276 297h207z" />
    <glyph glyph-name="udieresis" unicode="&#xfc;" 
d="M330 1042h231l-102 -581q-13 -76 -13 -107q0 -174 195 -174q121 0 205.5 85t109.5 224l99 553h231l-184 -1042h-223l18 100h-49q-110 -127 -307 -127q-157 0 -243.5 88.5t-86.5 237.5q0 65 12 129zM743 1266h-204l39 223h206zM1133 1266h-207l41 223h204z" />
    <glyph glyph-name="yacute" unicode="&#xfd;" horiz-adv-x="1153" 
d="M422 -410h-242l312 519l-269 933h228l178 -628h55l373 628h241zM1130 1489l-284 -297h-211l233 297h262z" />
    <glyph glyph-name="thorn" unicode="&#xfe;" horiz-adv-x="1280" 
d="M420 1489h223l-94 -549h47q44 57 120.5 93t166.5 36q185 0 290 -130t105 -327q0 -119 -34.5 -232t-98 -204.5t-164 -147t-221.5 -55.5q-99 0 -178.5 38t-120.5 106h-49l-93 -527h-231zM721 168q134 0 227.5 120t93.5 310q0 127 -58.5 201.5t-172.5 74.5q-81 0 -147 -39
t-105.5 -102.5t-60.5 -137t-21 -149.5q0 -130 64 -204t180 -74z" />
    <glyph glyph-name="ydieresis" unicode="&#xff;" horiz-adv-x="1153" 
d="M422 -410h-242l312 519l-269 933h228l178 -628h55l373 628h241zM686 1266h-205l39 223h207zM1075 1266h-207l41 223h205z" />
    <glyph glyph-name="Amacron" unicode="&#x100;" horiz-adv-x="1431" 
d="M1147 0l-62 420h-593l-205 -420h-248l735 1462h393l226 -1462h-246zM887 1223l-287 -584h455l-84 584h-84zM1294 1645h-598l25 147h598z" />
    <glyph glyph-name="amacron" unicode="&#x101;" horiz-adv-x="1177" 
d="M809 0l16 98h-49q-115 -125 -299 -125q-152 0 -245 90t-93 226q0 181 125 279t332 98h319q11 42 11 79q0 67 -49 104.5t-144 37.5q-97 0 -155 -34.5t-72 -98.5h-232q25 148 151 231.5t318 83.5q185 0 296.5 -81t111.5 -228q0 -51 -10 -103l-117 -657h-215zM563 162
q115 0 204 79t107 189l13 72h-258q-115 0 -183.5 -45.5t-68.5 -143.5q0 -72 48 -111.5t138 -39.5zM1118 1288h-598l25 154h598z" />
    <glyph glyph-name="Abreve" unicode="&#x102;" horiz-adv-x="1431" 
d="M1147 0l-62 420h-593l-205 -420h-248l735 1462h393l226 -1462h-246zM887 1223l-287 -584h455l-84 584h-84zM727 1835h150q-3 -24 -3 -27q0 -102 121 -102q132 0 164 129h150q-26 -128 -114 -196t-220 -68q-117 0 -184.5 56.5t-67.5 154.5q0 21 4 53z" />
    <glyph glyph-name="abreve" unicode="&#x103;" horiz-adv-x="1177" 
d="M809 0l16 98h-49q-115 -125 -299 -125q-152 0 -245 90t-93 226q0 181 125 279t332 98h319q11 42 11 79q0 67 -49 104.5t-144 37.5q-97 0 -155 -34.5t-72 -98.5h-232q25 148 151 231.5t318 83.5q185 0 296.5 -81t111.5 -228q0 -51 -10 -103l-117 -657h-215zM563 162
q115 0 204 79t107 189l13 72h-258q-115 0 -183.5 -45.5t-68.5 -143.5q0 -72 48 -111.5t138 -39.5zM991 1489h148q-23 -142 -109 -219.5t-221 -77.5q-118 0 -188 59.5t-70 163.5q0 43 8 74h148q-5 -13 -5 -47q0 -53 32.5 -82t88.5 -29q136 0 168 158z" />
    <glyph glyph-name="Aogonek" unicode="&#x104;" horiz-adv-x="1431" 
d="M1147 0l-62 420h-593l-205 -420h-248l735 1462h393l226 -1462q-160 -82 -160 -188q0 -76 121 -76l-27 -144q-23 -2 -59 -2q-116 0 -171 45t-55 121q0 80 53.5 143t137.5 101h-86zM887 1223l-287 -584h455l-84 584h-84z" />
    <glyph glyph-name="aogonek" unicode="&#x105;" horiz-adv-x="1177" 
d="M809 0l16 98h-49q-115 -125 -299 -125q-152 0 -245 90t-93 226q0 181 125 279t332 98h319q11 42 11 79q0 67 -49 104.5t-144 37.5q-97 0 -155 -34.5t-72 -98.5h-232q25 148 151 231.5t318 83.5q185 0 296.5 -81t111.5 -228q0 -51 -10 -103l-117 -657q-160 -82 -160 -188
q0 -76 121 -76l-27 -144q-23 -2 -59 -2q-116 0 -170.5 44.5t-54.5 121.5q0 80 53 143t137 101h-55zM563 162q115 0 204 79t107 189l13 72h-258q-115 0 -183.5 -45.5t-68.5 -143.5q0 -72 48 -111.5t138 -39.5z" />
    <glyph glyph-name="Cacute" unicode="&#x106;" horiz-adv-x="1482" 
d="M1223 442h256q-54 -211 -223.5 -340t-411.5 -129q-177 0 -315.5 74t-219 217.5t-80.5 335.5q0 181 53 342.5t149.5 283t242 192.5t319.5 71q221 0 368 -115.5t179 -316.5h-252q-47 209 -309 209q-97 0 -179.5 -38t-140.5 -102.5t-98.5 -149t-60 -177t-19.5 -187.5
q0 -190 99 -302.5t280 -112.5q137 0 231.5 65t131.5 180zM1403 1835l-277 -264h-215l230 264h262z" />
    <glyph glyph-name="cacute" unicode="&#x107;" horiz-adv-x="1157" 
d="M907 334h232q-36 -167 -164.5 -264t-323.5 -97q-129 0 -233.5 54t-167 159.5t-62.5 245.5q0 132 38.5 248t109 202.5t178.5 136.5t240 50q173 0 290 -95.5t134 -248.5h-230q-14 68 -67.5 107.5t-139.5 39.5q-98 0 -173 -63t-111.5 -159.5t-36.5 -207.5
q0 -129 65.5 -200.5t182.5 -71.5q90 0 152.5 44t86.5 120zM1174 1489l-285 -297h-211l233 297h263z" />
    <glyph glyph-name="Ccaron" unicode="&#x10c;" horiz-adv-x="1482" 
d="M1223 442h256q-54 -211 -223.5 -340t-411.5 -129q-177 0 -315.5 74t-219 217.5t-80.5 335.5q0 181 53 342.5t149.5 283t242 192.5t319.5 71q221 0 368 -115.5t179 -316.5h-252q-47 209 -309 209q-97 0 -179.5 -38t-140.5 -102.5t-98.5 -149t-60 -177t-19.5 -187.5
q0 -190 99 -302.5t280 -112.5q137 0 231.5 65t131.5 180zM932 1571l-176 264h188l86 -127h49l131 127h197l-264 -264h-211z" />
    <glyph glyph-name="ccaron" unicode="&#x10d;" horiz-adv-x="1157" 
d="M907 334h232q-36 -167 -164.5 -264t-323.5 -97q-129 0 -233.5 54t-167 159.5t-62.5 245.5q0 132 38.5 248t109 202.5t178.5 136.5t240 50q173 0 290 -95.5t134 -248.5h-230q-14 68 -67.5 107.5t-139.5 39.5q-98 0 -173 -63t-111.5 -159.5t-36.5 -207.5
q0 -129 65.5 -200.5t182.5 -71.5q90 0 152.5 44t86.5 120zM690 1192l-168 297h176l90 -154h50l143 154h193l-275 -297h-209z" />
    <glyph glyph-name="Dcaron" unicode="&#x10e;" horiz-adv-x="1523" 
d="M178 0l256 1462h465q148 0 265.5 -34.5t204.5 -105.5t134 -186.5t47 -269.5q0 -135 -28.5 -259t-92.5 -235.5t-156.5 -193.5t-229.5 -130t-304 -48h-561zM461 223h295q92 0 170 22.5t133 60t98 89.5t69.5 108t43.5 119.5t23.5 119.5t6.5 112q0 385 -409 385h-250z
M874 1571l-176 264h189l86 -127h49l131 127h197l-265 -264h-211z" />
    <glyph glyph-name="dcaron" unicode="&#x10f;" horiz-adv-x="1527" 
d="M1655 1262h-119l41 227h256l-49 -272l-160 -158h-137l160 158zM188 432q0 94 21.5 185.5t65 173t104.5 143.5t145.5 98.5t182.5 36.5q99 0 177.5 -37.5t119.5 -105.5h49l100 563h231l-262 -1489h-223l19 102h-50q-44 -58 -117.5 -93.5t-166.5 -35.5q-184 0 -290 128.5
t-106 330.5zM655 170q80 0 145.5 38.5t105.5 101t61.5 136.5t21.5 150q0 130 -64 203t-180 73q-134 0 -227.5 -119t-93.5 -309q0 -127 58 -200.5t173 -73.5z" />
    <glyph glyph-name="Dcroat" unicode="&#x110;" horiz-adv-x="1576" 
d="M182 651l33 193h164l108 618h465q148 0 265.5 -34.5t205 -105.5t134.5 -186.5t47 -269.5q0 -135 -28.5 -259t-92.5 -235.5t-156.5 -193.5t-229.5 -130t-304 -48h-562l113 651h-162zM514 223h295q107 0 194.5 29.5t145.5 80.5t99.5 113.5t63.5 136t32 139.5t10 132
q0 385 -410 385h-250l-71 -395h417l-32 -193h-418z" />
    <glyph glyph-name="dslash" unicode="&#x111;" horiz-adv-x="1282" 
d="M188 432q0 94 21.5 185.5t65 173t104.5 143.5t145.5 98.5t182.5 36.5q99 0 177.5 -37.5t119.5 -105.5h49l45 252h-324l25 141h323l31 170h231l-30 -170h155l-24 -141h-156l-207 -1178h-223l19 102h-50q-44 -58 -117.5 -93.5t-166.5 -35.5q-184 0 -290 128.5t-106 330.5z
M655 170q80 0 145.5 38.5t105.5 101t61.5 136.5t21.5 150q0 130 -64 203t-180 73q-134 0 -227.5 -119t-93.5 -309q0 -127 58 -200.5t173 -73.5z" />
    <glyph glyph-name="Emacron" unicode="&#x112;" horiz-adv-x="1339" 
d="M461 223h819l-35 -223h-1067l256 1462h1041l-39 -223h-795l-68 -377h631l-39 -219h-628zM1294 1645h-598l25 147h598z" />
    <glyph glyph-name="emacron" unicode="&#x113;" horiz-adv-x="1181" 
d="M899 303h234q-37 -155 -163 -242.5t-315 -87.5q-129 0 -234.5 54.5t-169 161.5t-63.5 247q0 181 65.5 323.5t194.5 226t304 83.5q193 0 314.5 -124.5t121.5 -332.5q0 -52 -6 -110h-760q-4 -28 -4 -56q0 -126 68.5 -202t189.5 -76q167 0 223 135zM741 885q-106 0 -179 -55
t-109 -156h503q-5 94 -58.5 152.5t-156.5 58.5zM1124 1288h-598l25 154h598z" />
    <glyph glyph-name="Edotaccent" unicode="&#x116;" horiz-adv-x="1339" 
d="M461 223h819l-35 -223h-1067l256 1462h1041l-39 -223h-795l-68 -377h631l-39 -219h-628zM1079 1626h-237l35 209h239z" />
    <glyph glyph-name="edotaccent" unicode="&#x117;" horiz-adv-x="1181" 
d="M899 303h234q-37 -155 -163 -242.5t-315 -87.5q-129 0 -234.5 54.5t-169 161.5t-63.5 247q0 181 65.5 323.5t194.5 226t304 83.5q193 0 314.5 -124.5t121.5 -332.5q0 -52 -6 -110h-760q-4 -28 -4 -56q0 -126 68.5 -202t189.5 -76q167 0 223 135zM741 885q-106 0 -179 -55
t-109 -156h503q-5 94 -58.5 152.5t-156.5 58.5zM930 1266h-238l39 223h238z" />
    <glyph glyph-name="Eogonek" unicode="&#x118;" horiz-adv-x="1339" 
d="M461 223h819l-35 -223q-160 -82 -160 -188q0 -76 121 -76l-26 -144q-23 -2 -60 -2q-116 0 -170.5 44.5t-54.5 121.5q0 80 53 143t137 101h-907l256 1462h1041l-39 -223h-795l-68 -377h631l-39 -219h-628z" />
    <glyph glyph-name="eogonek" unicode="&#x119;" horiz-adv-x="1181" 
d="M899 303h234q-24 -101 -83 -170t-159 -117q-160 -76 -160 -186q0 -76 121 -76l-27 -143q-23 -2 -59 -2q-116 0 -170.5 44.5t-54.5 121.5q0 120 110 198q-198 0 -330.5 126t-132.5 337q0 181 65.5 323.5t194.5 226t304 83.5q193 0 314.5 -124.5t121.5 -332.5
q0 -52 -6 -110h-760q-4 -28 -4 -56q0 -126 68.5 -202t189.5 -76q167 0 223 135zM741 885q-106 0 -179 -55t-109 -156h503q-5 94 -58.5 152.5t-156.5 58.5z" />
    <glyph glyph-name="Ecaron" unicode="&#x11a;" horiz-adv-x="1339" 
d="M461 223h819l-35 -223h-1067l256 1462h1041l-39 -223h-795l-68 -377h631l-39 -219h-628zM848 1571l-176 264h188l86 -127h49l131 127h197l-264 -264h-211z" />
    <glyph glyph-name="ecaron" unicode="&#x11b;" horiz-adv-x="1181" 
d="M899 303h234q-37 -155 -163 -242.5t-315 -87.5q-129 0 -234.5 54.5t-169 161.5t-63.5 247q0 181 65.5 323.5t194.5 226t304 83.5q193 0 314.5 -124.5t121.5 -332.5q0 -52 -6 -110h-760q-4 -28 -4 -56q0 -126 68.5 -202t189.5 -76q167 0 223 135zM741 885q-106 0 -179 -55
t-109 -156h503q-5 94 -58.5 152.5t-156.5 58.5zM680 1192l-168 297h176l90 -154h49l144 154h192l-274 -297h-209z" />
    <glyph glyph-name="uni0122" unicode="&#x122;" horiz-adv-x="1552" 
d="M854 -27q-181 0 -321.5 74t-222 217.5t-81.5 335.5q0 185 53.5 346.5t151 282.5t244 190.5t323.5 69.5q226 0 374.5 -114.5t180.5 -311.5h-256q-25 98 -103.5 150.5t-207.5 52.5q-99 0 -183.5 -37t-143.5 -100t-100.5 -147t-61 -177.5t-19.5 -192.5q0 -192 101.5 -304.5
t287.5 -112.5q175 0 286 100.5t140 290.5h-405l37 209h637q-5 -136 -32.5 -255.5t-83.5 -224.5t-136.5 -180t-197.5 -118.5t-261 -43.5zM727 -463h-139l147 125l6 41h-108l33 182h247l-41 -223z" />
    <glyph glyph-name="uni0123" unicode="&#x123;" horiz-adv-x="1277" 
d="M1077 1042h226l-173 -981q-41 -234 -190 -361.5t-371 -127.5q-193 0 -317.5 88.5t-128.5 247.5h227q19 -146 238 -146q130 0 205.5 81t105.5 235l12 57h-49q-39 -55 -114 -90t-164 -35q-186 0 -291 124t-105 315q0 93 22 183t67 169t107.5 139t148.5 94.5t184 34.5
q106 0 178 -42.5t113 -104.5h49zM743 872q-133 0 -227 -112t-94 -295q0 -119 63 -188.5t177 -69.5q79 0 143 35.5t103 93.5t60 127t21 141q0 126 -67 197t-179 71zM901 1528h139l-147 -125l-6 -41h108l-32 -182h-248l41 223z" />
    <glyph glyph-name="Itilde" unicode="&#x128;" horiz-adv-x="624" 
d="M444 1462h248l-256 -1462h-248zM856 1835h119q-48 -266 -238 -266q-36 0 -69 12.5t-57 30.5t-46.5 36.5t-47 31t-48.5 12.5q-74 0 -98 -121h-121q48 266 237 266q45 0 86 -19t67 -41.5t57.5 -41.5t58.5 -19q76 0 100 119z" />
    <glyph glyph-name="itilde" unicode="&#x129;" horiz-adv-x="548" 
d="M758 1479h123q-48 -279 -242 -279q-43 0 -83.5 20.5t-65.5 45t-55.5 45t-57.5 20.5q-73 0 -98 -131h-123q48 279 241 279q43 0 83.5 -20.5t65.5 -45t55.5 -45t57.5 -20.5q74 0 99 131zM575 1042l-184 -1042h-231l182 1042h233z" />
    <glyph glyph-name="Imacron" unicode="&#x12a;" horiz-adv-x="624" 
d="M444 1462h248l-256 -1462h-248zM895 1645h-598l25 147h598z" />
    <glyph glyph-name="imacron" unicode="&#x12b;" horiz-adv-x="548" 
d="M795 1288h-598l24 154h598zM575 1042l-184 -1042h-231l182 1042h233z" />
    <glyph glyph-name="Iogonek" unicode="&#x12e;" horiz-adv-x="624" 
d="M444 1462h248l-256 -1462q-160 -82 -160 -188q0 -76 121 -76l-26 -144q-23 -2 -60 -2q-116 0 -170.5 44.5t-54.5 121.5q0 80 53 143t137 101h-88z" />
    <glyph glyph-name="iogonek" unicode="&#x12f;" horiz-adv-x="552" 
d="M575 1042l-184 -1042q-160 -82 -160 -188q0 -76 121 -76l-26 -144q-23 -2 -60 -2q-116 0 -170.5 44.5t-54.5 121.5q0 80 53 143t137 101h-71l182 1042h233zM616 1266h-237l39 223h237z" />
    <glyph glyph-name="dotlessi" unicode="&#x131;" horiz-adv-x="550" 
d="M575 1042l-184 -1042h-231l182 1042h233z" />
    <glyph glyph-name="uni0136" unicode="&#x136;" horiz-adv-x="1495" 
d="M178 0l256 1462h246l-117 -655l770 655h299l-518 -454l322 -1008h-258l-260 788h-50l-360 -301l-84 -487h-246zM715 -463h-140l148 125l6 41h-108l32 182h248l-41 -223z" />
    <glyph glyph-name="uni0137" unicode="&#x137;" horiz-adv-x="1169" 
d="M1145 0h-234l-174 526h-49l-246 -223l-51 -303h-231l262 1489h231l-159 -903l501 456h273l-350 -321zM569 -463h-139l148 125l6 41h-109l33 182h248l-41 -223z" />
    <glyph glyph-name="kgreenlandic" unicode="&#x138;" horiz-adv-x="1169" 
d="M1145 0h-234l-174 526h-49l-246 -223l-51 -303h-231l184 1042h231l-81 -458l503 458h271l-350 -321z" />
    <glyph glyph-name="Lacute" unicode="&#x139;" horiz-adv-x="1294" 
d="M463 231h788l-41 -231h-1032l256 1462h246zM958 1835l-276 -264h-215l229 264h262z" />
    <glyph glyph-name="lacute" unicode="&#x13a;" horiz-adv-x="550" 
d="M653 1489l-262 -1489h-231l262 1489h231zM932 1835l-277 -264h-215l230 264h262z" />
    <glyph glyph-name="uni013B" unicode="&#x13b;" horiz-adv-x="1294" 
d="M463 231h788l-41 -231h-1032l256 1462h246zM623 -463h-140l148 125l6 41h-109l33 182h248l-41 -223z" />
    <glyph glyph-name="uni013C" unicode="&#x13c;" horiz-adv-x="550" 
d="M653 1489l-262 -1489h-231l262 1489h231zM193 -463h-140l148 125l6 41h-109l33 182h248l-41 -223z" />
    <glyph glyph-name="Lcaron" unicode="&#x13d;" horiz-adv-x="1294" 
d="M1149 1190l-160 -158h-137l160 158l8 45h-119l41 227h254zM461 219h788l-39 -219h-1032l256 1462h246z" />
    <glyph glyph-name="lcaron" unicode="&#x13e;" horiz-adv-x="788" 
d="M653 1489l-262 -1489h-231l262 1489h231zM918 1262h-121l43 227h254l-50 -272l-159 -158h-137l159 158z" />
    <glyph glyph-name="Lslash" unicode="&#x141;" horiz-adv-x="1331" 
d="M500 231h788l-41 -231h-1032l102 588l-194 -74l37 209l194 72l117 667h246l-101 -569l385 145l-36 -207l-385 -145z" />
    <glyph glyph-name="lslash" unicode="&#x142;" horiz-adv-x="722" 
d="M741 1489l-102 -576l219 91l-37 -211l-219 -93l-123 -700h-231l104 598l-215 -90l37 211l215 90l121 680h231z" />
    <glyph glyph-name="Nacute" unicode="&#x143;" horiz-adv-x="1572" 
d="M1421 1462h230l-256 -1462h-332l-412 1106h-49l-194 -1106h-230l256 1462h332l412 -1106h49zM1423 1835l-276 -264h-215l229 264h262z" />
    <glyph glyph-name="nacute" unicode="&#x144;" 
d="M1116 0h-231l102 582q12 66 12 102q0 178 -194 178q-121 0 -206 -85t-110 -224l-98 -553h-231l184 1042h223l-18 -100h49q110 127 307 127q157 0 243.5 -88.5t86.5 -237.5q0 -47 -12 -129zM1223 1489l-285 -297h-211l234 297h262z" />
    <glyph glyph-name="uni0145" unicode="&#x145;" horiz-adv-x="1572" 
d="M1421 1462h230l-256 -1462h-332l-412 1106h-49l-194 -1106h-230l256 1462h332l412 -1106h49zM702 -463h-139l148 125l6 41h-109l33 182h248l-41 -223z" />
    <glyph glyph-name="uni0146" unicode="&#x146;" 
d="M1116 0h-231l102 582q12 66 12 102q0 178 -194 178q-121 0 -206 -85t-110 -224l-98 -553h-231l184 1042h223l-18 -100h49q110 127 307 127q157 0 243.5 -88.5t86.5 -237.5q0 -47 -12 -129zM582 -463h-140l148 125l6 41h-109l33 182h248l-41 -223z" />
    <glyph glyph-name="Ncaron" unicode="&#x147;" horiz-adv-x="1572" 
d="M1421 1462h230l-256 -1462h-332l-412 1106h-49l-194 -1106h-230l256 1462h332l412 -1106h49zM952 1571l-176 264h189l86 -127h49l131 127h196l-264 -264h-211z" />
    <glyph glyph-name="ncaron" unicode="&#x148;" 
d="M1116 0h-231l102 582q12 66 12 102q0 178 -194 178q-121 0 -206 -85t-110 -224l-98 -553h-231l184 1042h223l-18 -100h49q110 127 307 127q157 0 243.5 -88.5t86.5 -237.5q0 -47 -12 -129zM737 1192l-168 297h176l91 -154h49l143 154h193l-275 -297h-209z" />
    <glyph glyph-name="Eng" unicode="&#x14a;" horiz-adv-x="1572" 
d="M1421 1462h230l-252 -1429q-76 -440 -520 -443h-117l37 207h102q108 0 172 47.5t94 155.5h-104l-412 1106h-49l-194 -1106h-230l256 1462h332l412 -1106h49z" />
    <glyph glyph-name="eng" unicode="&#x14b;" 
d="M344 1042h223l-18 -100h49q110 127 307 127q157 0 243.5 -88.5t86.5 -237.5q0 -47 -12 -129l-107 -624q-17 -93 -47.5 -163.5t-81.5 -125t-128 -83t-179 -28.5h-131l35 195h94q89 0 136 44t65 134l108 619q12 70 12 102q0 178 -194 178q-121 0 -206 -85t-110 -224
l-98 -553h-231z" />
    <glyph glyph-name="Omacron" unicode="&#x14c;" horiz-adv-x="1597" 
d="M1001 1489q134 0 248.5 -43.5t197.5 -123t130 -198t47 -260.5q0 -143 -33 -275.5t-98.5 -244.5t-157 -195t-216 -129.5t-267.5 -46.5q-276 0 -449.5 170t-173.5 457q0 143 33 275t98.5 243.5t157 194.5t216 129.5t267.5 46.5zM866 197q100 0 185 39t143.5 104t100 150
t60.5 177t19 185q0 188 -101.5 301t-285.5 113q-100 0 -185 -39t-143.5 -103.5t-100 -149.5t-60.5 -177t-19 -185q0 -189 101.5 -302t285.5 -113zM1393 1645h-598l24 147h598z" />
    <glyph glyph-name="omacron" unicode="&#x14d;" horiz-adv-x="1253" 
d="M768 1069q99 0 186.5 -31.5t153.5 -89t104.5 -145.5t38.5 -195q0 -182 -67.5 -325t-200.5 -226.5t-313 -83.5q-207 0 -344.5 124.5t-137.5 338.5q0 181 67 323.5t200 226t313 83.5zM684 170q105 0 183 61.5t115.5 157.5t37.5 209q0 128 -71 201t-195 73
q-105 0 -183 -61.5t-115.5 -157t-37.5 -207.5q0 -130 71 -203t195 -73zM1133 1288h-598l24 154h598z" />
    <glyph glyph-name="Ohungarumlaut" unicode="&#x150;" horiz-adv-x="1597" 
d="M1001 1489q134 0 248.5 -43.5t197.5 -123t130 -198t47 -260.5q0 -143 -33 -275.5t-98.5 -244.5t-157 -195t-216 -129.5t-267.5 -46.5q-276 0 -449.5 170t-173.5 457q0 143 33 275t98.5 243.5t157 194.5t216 129.5t267.5 46.5zM866 197q100 0 185 39t143.5 104t100 150
t60.5 177t19 185q0 188 -101.5 301t-285.5 113q-100 0 -185 -39t-143.5 -103.5t-100 -149.5t-60.5 -177t-19 -185q0 -189 101.5 -302t285.5 -113zM1196 1835l-242 -264h-188l195 264h235zM1544 1835l-241 -264h-187l195 264h233z" />
    <glyph glyph-name="ohungarumlaut" unicode="&#x151;" horiz-adv-x="1253" 
d="M768 1069q99 0 186.5 -31.5t153.5 -89t104.5 -145.5t38.5 -195q0 -182 -67.5 -325t-200.5 -226.5t-313 -83.5q-207 0 -344.5 124.5t-137.5 338.5q0 181 67 323.5t200 226t313 83.5zM684 170q105 0 183 61.5t115.5 157.5t37.5 209q0 128 -71 201t-195 73
q-105 0 -183 -61.5t-115.5 -157t-37.5 -207.5q0 -130 71 -203t195 -73zM950 1489l-243 -297h-189l197 297h235zM1298 1489l-245 -297h-187l197 297h235z" />
    <glyph glyph-name="OE" unicode="&#x152;" horiz-adv-x="2220" 
d="M1446 223h717l-37 -223h-965l17 92h-50q-143 -119 -344 -119q-252 0 -403.5 164.5t-151.5 454.5q0 184 51 346.5t145 285t238 194t318 71.5q224 0 369 -135h49l18 108h938l-39 -223h-690l-67 -377h526l-39 -217h-524zM864 197q128 0 220 53.5t147 144.5l117 676
q-42 89 -136 142t-217 53q-125 0 -225.5 -55.5t-163 -148.5t-95 -208.5t-32.5 -241.5q0 -200 101.5 -307.5t283.5 -107.5z" />
    <glyph glyph-name="oe" unicode="&#x153;" horiz-adv-x="1949" 
d="M188 436q0 181 66.5 323.5t195.5 226t300 83.5q240 0 362 -170h49q144 170 381 170q180 0 297 -125t117 -332q0 -71 -6 -110h-738q-2 -18 -2 -56q0 -130 64 -203t180 -73q82 0 131.5 32.5t81.5 100.5h238q-42 -153 -162 -241.5t-299 -88.5q-109 0 -199 45.5t-151 128.5
h-50q-148 -174 -391 -174q-94 0 -177.5 31t-148 88.5t-102 146.5t-37.5 197zM676 170q102 0 179 61.5t114 157.5t37 209q0 128 -70.5 201t-190.5 73q-102 0 -178 -61.5t-112.5 -157t-36.5 -207.5q0 -130 69.5 -203t188.5 -73zM1518 885q-210 0 -279 -211h483
q-2 92 -53.5 151.5t-150.5 59.5z" />
    <glyph glyph-name="Racute" unicode="&#x154;" horiz-adv-x="1454" 
d="M524 582l-100 -582h-246l256 1462h651q121 0 217.5 -44.5t155 -134.5t58.5 -212q0 -156 -73.5 -267t-207.5 -169l117 -635h-244l-107 586q-70 -4 -108 -4h-369zM1044 1245h-403l-80 -450h416q134 0 212.5 65.5t78.5 196.5q0 93 -62.5 140.5t-161.5 47.5zM1317 1835
l-277 -264h-215l230 264h262z" />
    <glyph glyph-name="racute" unicode="&#x155;" horiz-adv-x="858" 
d="M989 1042l-39 -215h-92q-158 0 -254 -82t-125 -241l-88 -504h-231l184 1042h223l-20 -120h49q43 51 116.5 85.5t176.5 34.5h100zM1008 1489l-285 -297h-211l233 297h263z" />
    <glyph glyph-name="uni0156" unicode="&#x156;" horiz-adv-x="1454" 
d="M524 582l-100 -582h-246l256 1462h651q121 0 217.5 -44.5t155 -134.5t58.5 -212q0 -156 -73.5 -267t-207.5 -169l117 -635h-244l-107 586q-70 -4 -108 -4h-369zM1044 1245h-403l-80 -450h416q134 0 212.5 65.5t78.5 196.5q0 93 -62.5 140.5t-161.5 47.5zM664 -463h-140
l148 125l6 41h-109l33 182h248l-41 -223z" />
    <glyph glyph-name="uni0157" unicode="&#x157;" horiz-adv-x="858" 
d="M989 1042l-39 -215h-92q-158 0 -254 -82t-125 -241l-88 -504h-231l184 1042h223l-20 -120h49q43 51 116.5 85.5t176.5 34.5h100zM195 -463h-140l148 125l6 41h-109l33 182h248l-41 -223z" />
    <glyph glyph-name="Rcaron" unicode="&#x158;" horiz-adv-x="1454" 
d="M524 582l-100 -582h-246l256 1462h651q121 0 217.5 -44.5t155 -134.5t58.5 -212q0 -156 -73.5 -267t-207.5 -169l117 -635h-244l-107 586q-70 -4 -108 -4h-369zM1044 1245h-403l-80 -450h416q134 0 212.5 65.5t78.5 196.5q0 93 -62.5 140.5t-161.5 47.5zM854 1571
l-176 264h188l86 -127h49l132 127h196l-264 -264h-211z" />
    <glyph glyph-name="rcaron" unicode="&#x159;" horiz-adv-x="858" 
d="M989 1042l-39 -215h-92q-158 0 -254 -82t-125 -241l-88 -504h-231l184 1042h223l-20 -120h49q43 51 116.5 85.5t176.5 34.5h100zM582 1192l-168 297h176l90 -154h49l143 154h193l-274 -297h-209z" />
    <glyph glyph-name="Sacute" unicode="&#x15a;" horiz-adv-x="1382" 
d="M752 889l262 -70q338 -90 338 -387q0 -139 -79.5 -245t-212 -160t-294.5 -54q-261 0 -423.5 116.5t-174.5 338.5h252q30 -240 358 -240q60 0 114.5 12t103 37t77.5 71t29 108q0 149 -195 202l-272 70q-155 42 -237.5 133.5t-82.5 229.5q0 203 149 320.5t398 117.5
q228 0 379.5 -110t163.5 -302h-250q-11 67 -54.5 112.5t-106 65t-142.5 19.5q-55 0 -104 -11t-91 -33.5t-67 -64t-25 -96.5q0 -76 46 -115t141 -65zM1276 1835l-277 -264h-215l230 264h262z" />
    <glyph glyph-name="sacute" unicode="&#x15b;" horiz-adv-x="1087" 
d="M129 315h227q6 -67 75.5 -108t178.5 -41q87 0 150 34.5t63 98.5q0 47 -34.5 73.5t-116.5 51.5l-187 53q-124 36 -185.5 102t-61.5 169q0 151 118 235t308 84q172 0 291.5 -80.5t136.5 -222.5h-228q-10 53 -65.5 83t-141.5 30q-80 0 -134 -28.5t-54 -88.5q0 -20 8 -35.5
t16.5 -24t33 -18.5t36 -13.5t47.5 -13.5l187 -53q258 -74 258 -293q0 -150 -127 -243t-326 -93q-130 0 -231 34.5t-167.5 113t-74.5 194.5zM1022 1489l-285 -297h-211l234 297h262z" />
    <glyph glyph-name="Scedilla" unicode="&#x15e;" horiz-adv-x="1382" 
d="M752 889l262 -70q338 -90 338 -387q0 -139 -79.5 -245t-212 -160t-294.5 -54h-39l-51 -94h26q27 21 70 21q55 0 91 -41t36 -107q0 -88 -61 -146.5t-164 -58.5q-88 0 -139.5 44t-53.5 110h129q9 -49 70 -49q36 0 60 23t24 61q0 29 -18 46t-48 17q-38 0 -65 -24h-123
l117 209q-204 25 -325.5 139t-133.5 305h252q30 -240 358 -240q60 0 114.5 12t103 37t77.5 71t29 108q0 149 -195 202l-272 70q-155 42 -237.5 133.5t-82.5 229.5q0 203 149 320.5t398 117.5q228 0 379.5 -110t163.5 -302h-250q-11 67 -54.5 112.5t-106 65t-142.5 19.5
q-55 0 -104 -11t-91 -33.5t-67 -64t-25 -96.5q0 -76 46 -115t141 -65z" />
    <glyph glyph-name="scedilla" unicode="&#x15f;" horiz-adv-x="1087" 
d="M129 315h227q6 -67 75.5 -108t178.5 -41q87 0 150 34.5t63 98.5q0 47 -34.5 73.5t-116.5 51.5l-187 53q-124 36 -185.5 102t-61.5 169q0 151 118 235t308 84q172 0 291.5 -80.5t136.5 -222.5h-228q-10 53 -65.5 83t-141.5 30q-80 0 -134 -28.5t-54 -88.5q0 -20 8 -35.5
t16.5 -24t33 -18.5t36 -13.5t47.5 -13.5l187 -53q258 -74 258 -293q0 -150 -127 -243t-326 -93h-22l-52 -94h27q27 21 70 21q55 0 91 -41t36 -107q0 -87 -61.5 -146t-164.5 -59q-88 0 -139 44t-53 110h129q9 -49 69 -49q36 0 60 23t24 61q0 29 -18 46t-47 17q-39 0 -66 -24
h-123l117 209q-153 23 -245.5 105.5t-104.5 225.5z" />
    <glyph glyph-name="Scaron" unicode="&#x160;" horiz-adv-x="1382" 
d="M752 889l262 -70q338 -90 338 -387q0 -139 -79.5 -245t-212 -160t-294.5 -54q-261 0 -423.5 116.5t-174.5 338.5h252q30 -240 358 -240q60 0 114.5 12t103 37t77.5 71t29 108q0 149 -195 202l-272 70q-155 42 -237.5 133.5t-82.5 229.5q0 203 149 320.5t398 117.5
q228 0 379.5 -110t163.5 -302h-250q-11 67 -54.5 112.5t-106 65t-142.5 19.5q-55 0 -104 -11t-91 -33.5t-67 -64t-25 -96.5q0 -76 46 -115t141 -65zM815 1571l-176 264h188l86 -127h50l131 127h196l-264 -264h-211z" />
    <glyph glyph-name="scaron" unicode="&#x161;" horiz-adv-x="1087" 
d="M129 315h227q6 -67 75.5 -108t178.5 -41q87 0 150 34.5t63 98.5q0 47 -34.5 73.5t-116.5 51.5l-187 53q-124 36 -185.5 102t-61.5 169q0 151 118 235t308 84q172 0 291.5 -80.5t136.5 -222.5h-228q-10 53 -65.5 83t-141.5 30q-80 0 -134 -28.5t-54 -88.5q0 -20 8 -35.5
t16.5 -24t33 -18.5t36 -13.5t47.5 -13.5l187 -53q258 -74 258 -293q0 -150 -127 -243t-326 -93q-130 0 -231 34.5t-167.5 113t-74.5 194.5zM588 1192l-168 297h176l90 -154h49l144 154h192l-274 -297h-209z" />
    <glyph glyph-name="uni0162" unicode="&#x162;" horiz-adv-x="1241" 
d="M1462 1462l-37 -217h-464l-218 -1245h-245l219 1245h-463l37 217h1171zM541 -463h-140l148 125l6 41h-109l33 182h248l-41 -223z" />
    <glyph glyph-name="uni0163" unicode="&#x163;" horiz-adv-x="800" 
d="M633 1042h239l-32 -196h-242l-92 -500q-6 -27 -6 -61q0 -84 114 -84h109l-33 -201h-125q-145 0 -222 61t-77 172q0 59 8 95l93 518h-164l33 196h165l54 304h231zM362 -463h-139l148 125l6 41h-109l33 182h248l-41 -223z" />
    <glyph glyph-name="Tcaron" unicode="&#x164;" horiz-adv-x="1241" 
d="M1462 1462l-37 -217h-464l-218 -1245h-245l219 1245h-463l37 217h1171zM778 1571l-176 264h189l86 -127h49l131 127h196l-264 -264h-211z" />
    <glyph glyph-name="tcaron" unicode="&#x165;" horiz-adv-x="845" 
d="M1001 1346h-118l41 227h254l-50 -273l-159 -157h-135l159 157zM633 1042h239l-32 -196h-242l-92 -500q-6 -27 -6 -61q0 -84 114 -84h109l-33 -201h-125q-145 0 -222 61t-77 172q0 59 8 95l93 518h-164l33 196h165l54 304h231z" />
    <glyph glyph-name="Tbar" unicode="&#x166;" horiz-adv-x="1241" 
d="M1462 1462l-37 -217h-464l-70 -401h313l-35 -193h-313l-113 -651h-245l114 651h-315l35 193h313l72 401h-463l37 217h1171z" />
    <glyph glyph-name="tbar" unicode="&#x167;" horiz-adv-x="800" 
d="M633 1042h239l-30 -188h-242l-35 -180h248l-35 -189h-248l-24 -139q-6 -25 -6 -61q0 -84 114 -84h109l-33 -201h-125q-145 0 -222 61t-77 172q0 59 8 95l29 157h-168l35 189h166l33 180h-164l31 188h165l54 304h231z" />
    <glyph glyph-name="Utilde" unicode="&#x168;" horiz-adv-x="1527" 
d="M1364 1462h246l-164 -936q-48 -269 -209.5 -411t-437.5 -142q-247 0 -394 122t-147 325q0 55 12 133l160 909h244l-160 -897q-10 -55 -10 -110q0 -123 80.5 -190.5t226.5 -67.5q331 0 393 352zM1305 1835h118q-48 -266 -237 -266q-36 0 -69 12.5t-57 30.5t-46.5 36.5
t-47 31t-48.5 12.5q-75 0 -99 -121h-121q48 266 238 266q45 0 86 -19t66.5 -41.5t57 -41.5t58.5 -19q76 0 101 119z" />
    <glyph glyph-name="utilde" unicode="&#x169;" 
d="M330 1042h231l-102 -581q-13 -76 -13 -107q0 -174 195 -174q121 0 205.5 85t109.5 224l99 553h231l-184 -1042h-223l18 100h-49q-110 -127 -307 -127q-157 0 -243.5 88.5t-86.5 237.5q0 65 12 129zM1098 1479h123q-48 -279 -242 -279q-43 0 -83.5 20.5t-65.5 45t-55.5 45
t-57.5 20.5q-74 0 -99 -131h-122q48 279 241 279q43 0 83.5 -20.5t65.5 -45t55.5 -45t57.5 -20.5q74 0 99 131z" />
    <glyph glyph-name="Umacron" unicode="&#x16a;" horiz-adv-x="1527" 
d="M1364 1462h246l-164 -936q-48 -269 -209.5 -411t-437.5 -142q-247 0 -394 122t-147 325q0 55 12 133l160 909h244l-160 -897q-10 -55 -10 -110q0 -123 80.5 -190.5t226.5 -67.5q331 0 393 352zM1348 1645h-598l24 147h598z" />
    <glyph glyph-name="umacron" unicode="&#x16b;" 
d="M330 1042h231l-102 -581q-13 -76 -13 -107q0 -174 195 -174q121 0 205.5 85t109.5 224l99 553h231l-184 -1042h-223l18 100h-49q-110 -127 -307 -127q-157 0 -243.5 88.5t-86.5 237.5q0 65 12 129zM1143 1288h-598l24 154h598z" />
    <glyph glyph-name="Uring" unicode="&#x16e;" horiz-adv-x="1527" 
d="M1364 1462h246l-164 -936q-48 -269 -209.5 -411t-437.5 -142q-247 0 -394 122t-147 325q0 55 12 133l160 909h244l-160 -897q-10 -55 -10 -110q0 -123 80.5 -190.5t226.5 -67.5q331 0 393 352zM1040 1995q96 0 164 -68t68 -162t-68 -161.5t-164 -67.5q-95 0 -164 67.5
t-69 161.5t69 162t164 68zM1040 1655q47 0 79 31.5t32 78.5t-32 79t-79 32t-78.5 -32t-31.5 -79t31.5 -78.5t78.5 -31.5z" />
    <glyph glyph-name="uring" unicode="&#x16f;" 
d="M330 1042h231l-102 -581q-13 -76 -13 -107q0 -174 195 -174q121 0 205.5 85t109.5 224l99 553h231l-184 -1042h-223l18 100h-49q-110 -127 -307 -127q-157 0 -243.5 88.5t-86.5 237.5q0 65 12 129zM840 1634q97 0 164 -65.5t67 -163.5q0 -93 -67.5 -160t-163.5 -67
q-95 0 -164.5 67.5t-69.5 159.5q0 97 69 163t165 66zM840 1296q47 0 78.5 31t31.5 78q0 48 -31.5 80.5t-78.5 32.5t-79 -33t-32 -80t32 -78t79 -31z" />
    <glyph glyph-name="Uhungarumlaut" unicode="&#x170;" horiz-adv-x="1527" 
d="M1364 1462h246l-164 -936q-48 -269 -209.5 -411t-437.5 -142q-247 0 -394 122t-147 325q0 55 12 133l160 909h244l-160 -897q-10 -55 -10 -110q0 -123 80.5 -190.5t226.5 -67.5q331 0 393 352zM1167 1835l-241 -264h-189l195 264h235zM1516 1835l-242 -264h-187l195 264
h234z" />
    <glyph glyph-name="uhungarumlaut" unicode="&#x171;" 
d="M330 1042h231l-102 -581q-13 -76 -13 -107q0 -174 195 -174q121 0 205.5 85t109.5 224l99 553h231l-184 -1042h-223l18 100h-49q-110 -127 -307 -127q-157 0 -243.5 88.5t-86.5 237.5q0 65 12 129zM961 1489l-244 -297h-189l197 297h236zM1309 1489l-246 -297h-186
l196 297h236z" />
    <glyph glyph-name="Uogonek" unicode="&#x172;" horiz-adv-x="1527" 
d="M1364 1462h246l-164 -936q-36 -205 -133 -328t-266 -190q-193 -74 -193 -196q0 -76 121 -76l-27 -144q-23 -2 -59 -2q-116 0 -170.5 44.5t-54.5 121.5q0 66 37 122.5t100 94.5h-4q-247 0 -393 122t-146 325q0 55 12 133l160 909h244l-160 -897q-10 -55 -10 -110
q0 -123 80.5 -190.5t226.5 -67.5q331 0 393 352z" />
    <glyph glyph-name="uogonek" unicode="&#x173;" 
d="M330 1042h231l-102 -581q-13 -76 -13 -107q0 -174 195 -174q121 0 205.5 85t109.5 224l99 553h231l-184 -1042q-160 -82 -160 -188q0 -76 121 -76l-27 -144q-23 -2 -59 -2q-116 0 -170.5 44.5t-54.5 121.5q0 80 53 143t137 101h-63l18 100h-49q-110 -127 -307 -127
q-157 0 -243.5 88.5t-86.5 237.5q0 65 12 129z" />
    <glyph glyph-name="Ydieresis" unicode="&#x178;" horiz-adv-x="1343" 
d="M780 838h58l454 624h269l-672 -923l-94 -539h-248l96 539l-352 923h250zM836 1626h-207l35 209h206zM1223 1626h-205l35 209h204z" />
    <glyph glyph-name="Zacute" unicode="&#x179;" horiz-adv-x="1331" 
d="M1462 1462l-47 -270l-960 -922l-9 -47h828l-39 -223h-1141l47 270l959 922l8 47h-741l39 223h1056zM1300 1835l-276 -264h-215l229 264h262z" />
    <glyph glyph-name="zacute" unicode="&#x17a;" horiz-adv-x="1091" 
d="M989 0h-887l41 246l660 551l8 49h-524l35 196h839l-45 -245l-657 -551l-8 -49h571zM1106 1489l-285 -297h-211l234 297h262z" />
    <glyph glyph-name="Zdotaccent" unicode="&#x17b;" horiz-adv-x="1331" 
d="M1462 1462l-47 -270l-960 -922l-9 -47h828l-39 -223h-1141l47 270l959 922l8 47h-741l39 223h1056zM1065 1626h-238l35 209h240z" />
    <glyph glyph-name="zdotaccent" unicode="&#x17c;" horiz-adv-x="1091" 
d="M989 0h-887l41 246l660 551l8 49h-524l35 196h839l-45 -245l-657 -551l-8 -49h571zM887 1266h-238l39 223h238z" />
    <glyph glyph-name="Zcaron" unicode="&#x17d;" horiz-adv-x="1331" 
d="M1462 1462l-47 -270l-960 -922l-9 -47h828l-39 -223h-1141l47 270l959 922l8 47h-741l39 223h1056zM834 1571l-177 264h189l86 -127h49l131 127h197l-265 -264h-210z" />
    <glyph glyph-name="zcaron" unicode="&#x17e;" horiz-adv-x="1091" 
d="M989 0h-887l41 246l660 551l8 49h-524l35 196h839l-45 -245l-657 -551l-8 -49h571zM655 1192l-168 297h177l90 -154h49l143 154h193l-275 -297h-209z" />
    <glyph glyph-name="florin" unicode="&#x192;" horiz-adv-x="884" 
d="M440 -410h-231l194 1106h-186v197h221l35 199q37 212 146 304.5t303 92.5h90v-197h-86q-101 0 -151 -56t-75 -173l-32 -170h231v-197h-264z" />
    <glyph glyph-name="circumflex" unicode="&#x2c6;" horiz-adv-x="806" 
d="M774 1489l168 -297h-178l-88 154h-49l-146 -154h-190l276 297h207z" />
    <glyph glyph-name="caron" unicode="&#x2c7;" horiz-adv-x="806" 
d="M512 1192l-168 297h176l90 -154h49l144 154h192l-274 -297h-209z" />
    <glyph glyph-name="breve" unicode="&#x2d8;" horiz-adv-x="735" 
d="M776 1489h148q-23 -142 -109 -219.5t-221 -77.5q-118 0 -188 59.5t-70 163.5q0 43 8 74h148q-5 -13 -5 -47q0 -53 32.5 -82t88.5 -29q136 0 168 158z" />
    <glyph glyph-name="dotaccent" unicode="&#x2d9;" horiz-adv-x="393" 
d="M543 1266h-238l39 223h238z" />
    <glyph glyph-name="ring" unicode="&#x2da;" horiz-adv-x="622" 
d="M539 1634q97 0 164 -65.5t67 -163.5q0 -93 -67.5 -160t-163.5 -67q-95 0 -164.5 67.5t-69.5 159.5q0 97 69 163t165 66zM539 1296q47 0 78.5 31t31.5 78q0 48 -31.5 80.5t-78.5 32.5t-79 -33t-32 -80t32 -78t79 -31z" />
    <glyph glyph-name="ogonek" unicode="&#x2db;" horiz-adv-x="471" 
d="M256 16l115 -16q-160 -82 -160 -188q0 -76 121 -76l-27 -144q-23 -2 -59 -2q-116 0 -171 45t-55 121q0 90 68.5 160t167.5 100z" />
    <glyph glyph-name="tilde" unicode="&#x2dc;" horiz-adv-x="833" 
d="M895 1479h123q-48 -279 -242 -279q-43 0 -83.5 20.5t-65.5 45t-55.5 45t-57.5 20.5q-73 0 -98 -131h-123q48 279 242 279q43 0 83.5 -20.5t65.5 -45t55.5 -45t57.5 -20.5q73 0 98 131z" />
    <glyph glyph-name="hungarumlaut" unicode="&#x2dd;" horiz-adv-x="892" 
d="M723 1489l-244 -297h-188l196 297h236zM1071 1489l-246 -297h-186l197 297h235z" />
    <glyph glyph-name="uni03A9" unicode="&#x3a9;" horiz-adv-x="1566" 
d="M1313 248v-47h252v-201h-584v205q336 215 336 569q0 227 -117 359.5t-309 132.5t-309 -132.5t-117 -359.5q0 -352 334 -569v-205h-582v201h254v47q-109 91 -182.5 227t-73.5 318q0 202 80.5 359t235 247t360.5 90q207 0 361.5 -90t234.5 -247t80 -359q0 -327 -254 -545z
" />
    <glyph glyph-name="pi" unicode="&#x3c0;" horiz-adv-x="1345" 
d="M1327 0h-76q-100 0 -168 23t-105 69.5t-52 105t-15 140.5v508h-333v-846h-232v846h-162v196h1143v-196h-184v-508q0 -141 108 -141h76v-197z" />
    <glyph glyph-name="uni0401" unicode="&#x401;" horiz-adv-x="1339" 
d="M461 223h819l-35 -223h-1067l256 1462h1041l-39 -223h-795l-68 -377h631l-39 -219h-628zM893 1626h-207l35 209h207zM1280 1626h-205l35 209h205z" />
    <glyph glyph-name="uni0402" unicode="&#x402;" horiz-adv-x="1658" 
d="M952 -18l39 223q32 -8 101 -8q126 0 207 62t81 179q0 100 -75.5 158.5t-235.5 58.5q-154 0 -287 -34l-108 -621h-246l219 1245h-393l37 217h1147l-37 -217h-510l-70 -399q143 33 307 33q101 0 184 -22t141.5 -60.5t98.5 -92t59 -116t19 -133.5q0 -120 -43 -213.5
t-118 -151t-173 -87.5t-213 -30q-68 0 -131 9z" />
    <glyph glyph-name="uni0403" unicode="&#x403;" horiz-adv-x="1282" 
d="M1286 1847l-285 -297h-210l233 297h262zM1413 1239h-770l-219 -1239h-246l256 1462h1018z" />
    <glyph glyph-name="uni0404" unicode="&#x404;" horiz-adv-x="1480" 
d="M1219 416h256q-54 -199 -222.5 -321t-408.5 -122q-177 0 -315.5 74t-219 217.5t-80.5 335.5q0 181 53 342.5t149.5 283t242 192.5t319.5 71q218 0 365.5 -112.5t179.5 -305.5h-254q-56 197 -303 197q-91 0 -169.5 -32.5t-136 -90t-98 -130.5t-63.5 -159h608l-39 -219
h-598q-2 -4 -2 -14v-23q0 -182 98.5 -293.5t278.5 -111.5q132 0 224.5 59t134.5 162z" />
    <glyph glyph-name="uni0405" unicode="&#x405;" horiz-adv-x="1382" 
d="M752 889l262 -70q338 -90 338 -387q0 -139 -79.5 -245t-212 -160t-294.5 -54q-261 0 -423.5 116.5t-174.5 338.5h252q30 -240 358 -240q60 0 114.5 12t103 37t77.5 71t29 108q0 149 -195 202l-272 70q-155 42 -237.5 133.5t-82.5 229.5q0 203 149 320.5t398 117.5
q228 0 379.5 -110t163.5 -302h-250q-11 67 -54.5 112.5t-106 65t-142.5 19.5q-55 0 -104 -11t-91 -33.5t-67 -64t-25 -96.5q0 -76 46 -115t141 -65z" />
    <glyph glyph-name="uni0406" unicode="&#x406;" horiz-adv-x="624" 
d="M444 1462h248l-256 -1462h-248z" />
    <glyph glyph-name="uni0407" unicode="&#x407;" horiz-adv-x="624" 
d="M444 1462h248l-256 -1462h-248zM506 1626h-207l35 209h207zM893 1626h-205l35 209h205z" />
    <glyph glyph-name="uni0408" unicode="&#x408;" horiz-adv-x="1208" 
d="M584 -27q-196 0 -320.5 103t-124.5 286q0 44 6 91h244q-4 -46 -4 -52q0 -102 55 -153t156 -51q227 0 278 295l170 970h246l-174 -999q-42 -234 -176.5 -362t-355.5 -128z" />
    <glyph glyph-name="uni0409" unicode="&#x409;" horiz-adv-x="2293" 
d="M1475 934h342q197 0 326.5 -109.5t129.5 -304.5q0 -246 -164 -383t-444 -137h-600l217 1239h-504l-67 -377q-37 -213 -82.5 -363t-98 -247.5t-122.5 -153t-146 -77t-180 -21.5h-47l41 242h45q51 0 86 9t70 36t60.5 74t52.5 126t51.5 189t52.5 266l90 520h983zM1774 717
h-338l-88 -500h348q147 0 237 72t90 219q0 103 -70.5 156t-178.5 53z" />
    <glyph glyph-name="uni040A" unicode="&#x40a;" horiz-adv-x="2353" 
d="M1534 934h340q199 0 329 -109.5t130 -304.5q0 -245 -165.5 -382.5t-443.5 -137.5h-600l115 653h-700l-115 -653h-246l256 1462h246l-102 -583h702l100 583h246zM1831 717h-334l-90 -500h346q149 0 238.5 72.5t89.5 218.5q0 102 -71 155.5t-179 53.5z" />
    <glyph glyph-name="uni040B" unicode="&#x40b;" horiz-adv-x="1662" 
d="M1550 0h-247l67 389q12 54 12 105q0 37 -11 63t-40 50t-88.5 36t-148.5 12q-156 0 -310 -37l-108 -618h-246l217 1245h-393l37 217h1149l-37 -217h-510l-72 -403q161 37 340 37q139 0 236 -23.5t148 -67t72 -95t21 -118.5q0 -71 -14 -153z" />
    <glyph glyph-name="uni040C" unicode="&#x40c;" horiz-adv-x="1439" 
d="M178 0l256 1462h246l-107 -598h383l383 598h258l-448 -710l211 -752h-244l-182 641h-399l-111 -641h-246zM1337 1835l-276 -264h-215l229 264h262z" />
    <glyph glyph-name="uni040E" unicode="&#x40e;" horiz-adv-x="1355" 
d="M786 754h58l463 708h264l-957 -1462h-252l283 438l-356 1024h250zM1149 1851h190q-31 -149 -139 -232t-274 -83q-152 0 -242 70.5t-90 197.5q0 19 4 47h182q-2 -74 38 -113.5t124 -39.5t138.5 42t68.5 111z" />
    <glyph glyph-name="uni040F" unicode="&#x40f;" horiz-adv-x="1544" 
d="M586 -358l61 358h-469l256 1462h246l-219 -1241h698l217 1241h246l-256 -1462h-473l-62 -358h-245z" />
    <glyph glyph-name="uni0410" unicode="&#x410;" horiz-adv-x="1431" 
d="M1147 0l-62 420h-593l-205 -420h-248l735 1462h393l226 -1462h-246zM887 1223l-287 -584h455l-84 584h-84z" />
    <glyph glyph-name="uni0411" unicode="&#x411;" horiz-adv-x="1427" 
d="M920 682h-375l-84 -465h385q138 0 223.5 67.5t85.5 202.5q0 95 -67.5 145t-167.5 50zM178 0l256 1462h1026l-39 -223h-780l-61 -352h391q187 0 309.5 -104.5t122.5 -288.5q0 -234 -155.5 -364t-420.5 -130h-649z" />
    <glyph glyph-name="uni0412" unicode="&#x412;" horiz-adv-x="1456" 
d="M1264 782l-9 -49q70 -38 113 -114.5t43 -172.5q0 -98 -31 -175t-84.5 -127.5t-130.5 -83t-164.5 -46.5t-191.5 -14h-631l256 1462h623q184 0 301 -92.5t117 -247.5q0 -125 -58 -214.5t-153 -125.5zM643 1249l-70 -387h375q78 0 136.5 20.5t96.5 72t38 130.5
q0 62 -37.5 100.5t-87.5 51t-113 12.5h-338zM459 213h387q137 0 223 63t86 191q0 94 -68 140t-169 46h-379z" />
    <glyph glyph-name="uni0413" unicode="&#x413;" horiz-adv-x="1282" 
d="M1413 1239h-770l-219 -1239h-246l256 1462h1018z" />
    <glyph glyph-name="uni0414" unicode="&#x414;" horiz-adv-x="1591" 
d="M621 1462h964l-219 -1239h205l-101 -581h-239l61 358h-1011l-64 -358h-240l97 581h151q237 360 332 875zM1124 223l181 1016h-494l-27 -141q-113 -581 -307 -875h647z" />
    <glyph glyph-name="uni0415" unicode="&#x415;" horiz-adv-x="1339" 
d="M461 223h819l-35 -223h-1067l256 1462h1041l-39 -223h-795l-68 -377h631l-39 -219h-628z" />
    <glyph glyph-name="uni0416" unicode="&#x416;" horiz-adv-x="2148" 
d="M1642 631h-342l-112 -631h-240l111 631h-330l-367 -631h-260l435 741l-160 721h246l133 -608h342l106 608h240l-105 -608h328l346 608h258l-413 -721l176 -741h-244z" />
    <glyph glyph-name="uni0417" unicode="&#x417;" horiz-adv-x="1392" 
d="M659 866h230q116 0 191 53t75 158q0 89 -73.5 139t-186.5 50q-259 0 -311 -197h-254q43 199 194 309.5t387 110.5q226 0 363 -107.5t137 -267.5q0 -122 -60.5 -206t-170.5 -120l-9 -49q183 -77 183 -272q0 -116 -49 -210.5t-133 -156t-194 -94.5t-235 -33
q-274 0 -424.5 118t-156.5 333h258q21 -229 325 -229q149 0 251 69t102 197q0 85 -63 135.5t-193 50.5h-219z" />
    <glyph glyph-name="uni0418" unicode="&#x418;" horiz-adv-x="1579" 
d="M434 1462h234l-203 -1138h49l780 1138h363l-256 -1462h-234l199 1139h-49l-782 -1139h-357z" />
    <glyph glyph-name="uni0419" unicode="&#x419;" horiz-adv-x="1579" 
d="M434 1462h234l-203 -1138h49l780 1138h363l-256 -1462h-234l199 1139h-49l-782 -1139h-357zM1276 1851h190q-31 -149 -139 -232t-274 -83q-152 0 -242 70.5t-90 197.5q0 19 4 47h182q-2 -74 38 -113.5t124 -39.5t138.5 42t68.5 111z" />
    <glyph glyph-name="uni041A" unicode="&#x41a;" horiz-adv-x="1439" 
d="M178 0l256 1462h246l-107 -598h383l383 598h258l-448 -710l211 -752h-244l-182 641h-399l-111 -641h-246z" />
    <glyph glyph-name="uni041B" unicode="&#x41b;" horiz-adv-x="1511" 
d="M76 242h45q60 0 100 14t79 54.5t69.5 119.5t61 202.5t63.5 309.5l90 520h1005l-256 -1462h-246l218 1239h-527l-67 -377q-37 -213 -82.5 -363t-98 -247.5t-122.5 -153t-146 -77t-180 -21.5h-47z" />
    <glyph glyph-name="uni041C" unicode="&#x41c;" horiz-adv-x="1773" 
d="M178 0l256 1462h377l188 -637h50l407 637h395l-256 -1462h-231l205 1169h-49l-418 -641h-244l-194 641h-50l-204 -1169h-232z" />
    <glyph glyph-name="uni041D" unicode="&#x41d;" horiz-adv-x="1566" 
d="M1399 1462h246l-256 -1462h-246l110 639h-718l-111 -639h-246l256 1462h246l-107 -594h721z" />
    <glyph glyph-name="uni041E" unicode="&#x41e;" horiz-adv-x="1597" 
d="M1001 1489q134 0 248.5 -43.5t197.5 -123t130 -198t47 -260.5q0 -143 -33 -275.5t-98.5 -244.5t-157 -195t-216 -129.5t-267.5 -46.5q-276 0 -449.5 170t-173.5 457q0 143 33 275t98.5 243.5t157 194.5t216 129.5t267.5 46.5zM866 197q100 0 185 39t143.5 104t100 150
t60.5 177t19 185q0 188 -101.5 301t-285.5 113q-100 0 -185 -39t-143.5 -103.5t-100 -149.5t-60.5 -177t-19 -185q0 -189 101.5 -302t285.5 -113z" />
    <glyph glyph-name="uni041F" unicode="&#x41f;" horiz-adv-x="1552" 
d="M434 1462h1196l-256 -1462h-246l218 1239h-707l-215 -1239h-246z" />
    <glyph glyph-name="uni0420" unicode="&#x420;" horiz-adv-x="1417" 
d="M434 1462h627q191 0 316.5 -107.5t125.5 -293.5q0 -236 -159.5 -370t-428.5 -134h-395l-96 -557h-246zM1018 1245h-377l-82 -473h387q137 0 222 70t85 205q0 97 -66 147.5t-169 50.5z" />
    <glyph glyph-name="uni0421" unicode="&#x421;" horiz-adv-x="1482" 
d="M1223 442h256q-54 -211 -223.5 -340t-411.5 -129q-177 0 -315.5 74t-219 217.5t-80.5 335.5q0 181 53 342.5t149.5 283t242 192.5t319.5 71q221 0 368 -115.5t179 -316.5h-252q-47 209 -309 209q-97 0 -179.5 -38t-140.5 -102.5t-98.5 -149t-60 -177t-19.5 -187.5
q0 -190 99 -302.5t280 -112.5q137 0 231.5 65t131.5 180z" />
    <glyph glyph-name="uni0422" unicode="&#x422;" horiz-adv-x="1241" 
d="M1462 1462l-37 -217h-464l-218 -1245h-245l219 1245h-463l37 217h1171z" />
    <glyph glyph-name="uni0423" unicode="&#x423;" horiz-adv-x="1355" 
d="M786 754h58l463 708h264l-957 -1462h-252l283 438l-356 1024h250z" />
    <glyph glyph-name="uni0424" unicode="&#x424;" horiz-adv-x="1802" 
d="M778 -27l33 191q-272 17 -431 154.5t-159 363.5q0 208 97.5 357.5t268.5 224.5t398 75h33l31 170h235l-29 -170q271 -17 430.5 -155t159.5 -365q0 -208 -97.5 -357t-268.5 -223.5t-398 -74.5h-32l-35 -191h-236zM1085 377h33q140 0 246 46t169.5 143.5t63.5 236.5
q0 148 -98 232.5t-280 90.5zM983 1126h-33q-140 0 -246 -46t-169.5 -143.5t-63.5 -236.5q0 -149 98 -234t281 -89z" />
    <glyph glyph-name="uni0425" unicode="&#x425;" horiz-adv-x="1363" 
d="M1057 0l-217 633h-70l-446 -633h-281l549 770l-234 692h244l193 -559h69l393 559h265l-482 -684l277 -778h-260z" />
    <glyph glyph-name="uni0426" unicode="&#x426;" horiz-adv-x="1628" 
d="M1266 -358l63 358h-1151l256 1462h246l-219 -1239h696l219 1239h246l-217 -1239h205l-103 -581h-241z" />
    <glyph glyph-name="uni0427" unicode="&#x427;" horiz-adv-x="1411" 
d="M369 1462h247l-73 -418q-13 -54 -13 -104q0 -37 11.5 -64t41 -50.5t89 -35.5t147.5 -12q167 0 307 35l115 649h248l-256 -1462h-248l105 592q-161 -37 -336 -37q-112 0 -197 16t-138 43t-85.5 67t-45 83t-12.5 96q0 73 15 154z" />
    <glyph glyph-name="uni0428" unicode="&#x428;" horiz-adv-x="2095" 
d="M1917 0h-1739l256 1462h240l-219 -1239h510l217 1239h241l-219 -1239h510l217 1239h242z" />
    <glyph glyph-name="uni0429" unicode="&#x429;" horiz-adv-x="2179" 
d="M1819 -358l63 358h-1704l256 1462h240l-219 -1239h510l217 1239h241l-219 -1239h510l217 1239h242l-219 -1239h205l-99 -581h-241z" />
    <glyph glyph-name="uni042A" unicode="&#x42a;" horiz-adv-x="1630" 
d="M793 934h358q199 0 329 -109.5t130 -304.5q0 -246 -164.5 -383t-444.5 -137h-620l217 1239h-371l39 223h617zM1108 717h-354l-88 -500h364q148 0 239 73t91 218q0 102 -71.5 155.5t-180.5 53.5z" />
    <glyph glyph-name="uni042B" unicode="&#x42b;" horiz-adv-x="1878" 
d="M1710 1462h246l-256 -1462h-246zM588 934h319q128 0 230 -46t164.5 -141.5t62.5 -226.5q0 -246 -164 -383t-444 -137h-578l256 1462h246zM864 717h-313l-90 -500h325q147 0 237.5 73t90.5 218q0 102 -71 155.5t-179 53.5z" />
    <glyph glyph-name="uni042C" unicode="&#x42c;" horiz-adv-x="1427" 
d="M588 934h360q199 0 329 -109.5t130 -304.5q0 -245 -165 -382.5t-443 -137.5h-621l256 1462h246zM905 717h-354l-90 -500h366q149 0 238.5 72.5t89.5 218.5q0 102 -71 155.5t-179 53.5z" />
    <glyph glyph-name="uni042D" unicode="&#x42d;" horiz-adv-x="1470" 
d="M641 856h602l-2 45q-8 160 -104.5 263.5t-259.5 103.5q-264 0 -351 -197h-258q59 201 224.5 309.5t402.5 108.5q270 0 436 -173t166 -456q0 -182 -52.5 -342.5t-148 -282t-242 -192t-323.5 -70.5q-226 0 -384 122t-187 321h252q18 -104 110.5 -162.5t229.5 -58.5
q95 0 175.5 35t137.5 97t95 140t57 170h-613z" />
    <glyph glyph-name="uni042E" unicode="&#x42e;" horiz-adv-x="2158" 
d="M434 1462h244l-105 -596h277q31 133 94 245.5t153.5 197t213 132.5t264.5 48q131 0 243.5 -43.5t193.5 -123.5t127 -197.5t46 -260.5t-32 -275.5t-96 -244.5t-153.5 -195t-211.5 -129.5t-262 -46.5q-253 0 -421.5 155.5t-185.5 416.5q-2 31 -2 94h-289l-110 -639h-244z
M1444 197q120 0 216.5 59t155 155t89 209.5t30.5 231.5q0 188 -98.5 301t-275.5 113q-97 0 -179.5 -39t-139 -103.5t-96.5 -149.5t-58.5 -176.5t-18.5 -185.5q0 -189 98.5 -302t276.5 -113z" />
    <glyph glyph-name="uni042F" unicode="&#x42f;" horiz-adv-x="1454" 
d="M1532 1462l-256 -1462h-246l103 582h-312q-61 0 -116 6l-308 -588h-260l336 647q-81 49 -126.5 131t-45.5 191q0 233 154.5 363t416.5 130h660zM772 795h397l80 450h-409q-130 0 -210.5 -65.5t-80.5 -194.5q0 -94 62.5 -142t160.5 -48z" />
    <glyph glyph-name="uni0430" unicode="&#x430;" horiz-adv-x="1177" 
d="M809 0l16 98h-49q-115 -125 -299 -125q-152 0 -245 90t-93 226q0 181 125 279t332 98h319q11 42 11 79q0 67 -49 104.5t-144 37.5q-97 0 -155 -34.5t-72 -98.5h-232q25 148 151 231.5t318 83.5q185 0 296.5 -81t111.5 -228q0 -51 -10 -103l-117 -657h-215zM563 162
q115 0 204 79t107 189l13 72h-258q-115 0 -183.5 -45.5t-68.5 -143.5q0 -72 48 -111.5t138 -39.5z" />
    <glyph glyph-name="uni0431" unicode="&#x431;" 
d="M846 1020q190 0 299.5 -116.5t109.5 -299.5q0 -130 -39 -244t-111 -200.5t-182.5 -136.5t-244.5 -50q-212 0 -338.5 128t-126.5 368q0 90 11.5 180.5t36 188t68 183.5t101.5 158t143 121.5t187 65.5l295 43q56 8 78 23.5t32 56.5h193q-32 -233 -248 -258l-338 -47
q-243 -35 -319 -312h49q66 81 149 114.5t195 33.5zM698 170q99 0 176 60.5t115.5 152.5t38.5 195q0 120 -68 185.5t-186 65.5q-102 0 -179.5 -59.5t-115 -150t-37.5 -193.5q0 -120 69 -188t187 -68z" />
    <glyph glyph-name="uni0432" unicode="&#x432;" horiz-adv-x="1198" 
d="M1030 569l-10 -49q131 -58 131 -203q0 -163 -123.5 -240t-331.5 -77h-536l182 1042h530q142 0 224 -64t82 -175q0 -91 -41 -150t-107 -84zM823 866h-284l-43 -245h292q71 0 113.5 35.5t42.5 107.5q0 51 -33.5 76.5t-87.5 25.5zM778 453h-311l-49 -277h317q83 0 133 39
t50 121q0 58 -39.5 87.5t-100.5 29.5z" />
    <glyph glyph-name="uni0433" unicode="&#x433;" horiz-adv-x="1036" 
d="M1149 1042l-35 -196h-573l-150 -846h-231l182 1042h807z" />
    <glyph glyph-name="uni0434" unicode="&#x434;" horiz-adv-x="1372" 
d="M1159 197h187l-86 -490h-222l54 293h-822l-53 -293h-221l84 490h139q156 236 213 553l51 292h826zM928 197l114 649h-380l-17 -96q-55 -321 -194 -553h477z" />
    <glyph glyph-name="uni0435" unicode="&#x435;" horiz-adv-x="1181" 
d="M899 303h234q-37 -155 -163 -242.5t-315 -87.5q-129 0 -234.5 54.5t-169 161.5t-63.5 247q0 181 65.5 323.5t194.5 226t304 83.5q193 0 314.5 -124.5t121.5 -332.5q0 -52 -6 -110h-760q-4 -28 -4 -56q0 -126 68.5 -202t189.5 -76q167 0 223 135zM741 885q-106 0 -179 -55
t-109 -156h503q-5 94 -58.5 152.5t-156.5 58.5z" />
    <glyph glyph-name="uni0436" unicode="&#x436;" horiz-adv-x="1693" 
d="M588 434l-269 -434h-243l334 537l-136 505h226l106 -411h238l71 411h218l-70 -411h221l252 411h240l-314 -505l148 -537h-230l-116 434h-236l-78 -434h-217l76 434h-221z" />
    <glyph glyph-name="uni0437" unicode="&#x437;" horiz-adv-x="1124" 
d="M528 625h162q35 0 66.5 5.5t62 18.5t48.5 39.5t18 63.5q0 58 -51 89t-134 31q-100 0 -156.5 -31t-76.5 -102h-215q34 167 156.5 248.5t312.5 81.5q186 0 290.5 -77.5t104.5 -200.5q0 -176 -149 -232l-9 -49q115 -40 115 -172q0 -89 -39.5 -160t-107.5 -115t-154 -67
t-184 -23q-126 0 -224.5 35.5t-160 113t-64.5 189.5h215q13 -141 242 -141q42 0 83 8.5t78.5 26t61 50.5t23.5 77q0 104 -170 104h-176z" />
    <glyph glyph-name="uni0438" unicode="&#x438;" horiz-adv-x="1280" 
d="M440 0h-280l182 1042h225l-121 -688h50l522 688h287l-183 -1042h-225l121 688h-49z" />
    <glyph glyph-name="uni0439" unicode="&#x439;" horiz-adv-x="1280" 
d="M440 0h-280l182 1042h225l-121 -688h50l522 688h287l-183 -1042h-225l121 688h-49zM522 1477h178v-19q0 -62 38 -95.5t106 -33.5q77 0 125.5 40t62.5 108h182q-29 -143 -130.5 -223t-254.5 -80q-142 0 -225.5 69t-83.5 191q0 25 2 43z" />
    <glyph glyph-name="uni043A" unicode="&#x43a;" horiz-adv-x="1200" 
d="M879 0l-144 436h-268l-76 -436h-231l182 1042h233l-73 -409h264l276 409h242l-342 -501l174 -541h-237z" />
    <glyph glyph-name="uni043B" unicode="&#x43b;" horiz-adv-x="1275" 
d="M47 0l39 219h37q32 0 59 7.5t49 21.5t40.5 38.5t33.5 53.5t28.5 71.5t25 87t24 106.5t23.5 123t25 143q19 110 30 171h839l-184 -1042h-231l149 846h-393l-43 -250q-38 -225 -105 -357t-162.5 -185.5t-238.5 -53.5h-45z" />
    <glyph glyph-name="uni043C" unicode="&#x43c;" horiz-adv-x="1474" 
d="M160 0l182 1042h317l148 -456h49l309 456h334l-184 -1042h-228l134 750h-50l-264 -392h-213l-127 392h-49l-131 -750h-227z" />
    <glyph glyph-name="uni043D" unicode="&#x43d;" horiz-adv-x="1273" 
d="M1298 1042l-180 -1042h-233l76 436h-494l-76 -436h-231l182 1042h233l-73 -409h493l72 409h231z" />
    <glyph glyph-name="uni043E" unicode="&#x43e;" horiz-adv-x="1253" 
d="M768 1069q99 0 186.5 -31.5t153.5 -89t104.5 -145.5t38.5 -195q0 -182 -67.5 -325t-200.5 -226.5t-313 -83.5q-207 0 -344.5 124.5t-137.5 338.5q0 181 67 323.5t200 226t313 83.5zM684 170q105 0 183 61.5t115.5 157.5t37.5 209q0 128 -71 201t-195 73
q-105 0 -183 -61.5t-115.5 -157t-37.5 -207.5q0 -130 71 -203t195 -73z" />
    <glyph glyph-name="uni043F" unicode="&#x43f;" horiz-adv-x="1265" 
d="M1110 0h-233l149 846h-485l-150 -846h-231l182 1042h948z" />
    <glyph glyph-name="uni0440" unicode="&#x440;" horiz-adv-x="1280" 
d="M344 1042h223l-18 -102h47q44 57 120.5 93t166.5 36q185 0 290 -130t105 -327q0 -119 -34.5 -232t-98 -204.5t-164 -147t-221.5 -55.5q-99 0 -178.5 38t-120.5 106h-49l-93 -527h-231zM721 168q134 0 227.5 120t93.5 310q0 127 -58.5 201.5t-172.5 74.5q-81 0 -147 -39
t-105.5 -102.5t-60.5 -137t-21 -149.5q0 -130 64 -204t180 -74z" />
    <glyph glyph-name="uni0441" unicode="&#x441;" horiz-adv-x="1157" 
d="M907 334h232q-36 -167 -164.5 -264t-323.5 -97q-129 0 -233.5 54t-167 159.5t-62.5 245.5q0 132 38.5 248t109 202.5t178.5 136.5t240 50q173 0 290 -95.5t134 -248.5h-230q-14 68 -67.5 107.5t-139.5 39.5q-98 0 -173 -63t-111.5 -159.5t-36.5 -207.5
q0 -129 65.5 -200.5t182.5 -71.5q90 0 152.5 44t86.5 120z" />
    <glyph glyph-name="uni0442" unicode="&#x442;" horiz-adv-x="1050" 
d="M211 846l35 196h925l-34 -196h-346l-150 -846h-231l149 846h-348z" />
    <glyph glyph-name="uni0443" unicode="&#x443;" horiz-adv-x="1153" 
d="M422 -410h-242l312 519l-269 933h228l178 -628h55l373 628h241z" />
    <glyph glyph-name="uni0444" unicode="&#x444;" horiz-adv-x="1538" 
d="M586 -410l71 410q-207 12 -338 130t-131 310q0 152 51 269t141.5 188.5t207 108t254.5 36.5l80 447h227l-80 -447q207 -12 337 -130t130 -310q0 -152 -50.5 -269t-140.5 -188.5t-206 -108t-254 -36.5l-72 -410h-227zM418 457q0 -123 74 -194.5t198 -76.5l121 670
q-192 0 -292.5 -112t-100.5 -287zM1309 586q0 124 -75.5 194.5t-197.5 75.5l-121 -670q192 0 293 112.5t101 287.5z" />
    <glyph glyph-name="uni0445" unicode="&#x445;" horiz-adv-x="1173" 
d="M862 0l-160 410h-71l-305 -410h-254l401 535l-186 507h229l141 -385h72l283 385h248l-369 -501l211 -541h-240z" />
    <glyph glyph-name="uni0446" unicode="&#x446;" horiz-adv-x="1345" 
d="M1012 -293l51 293h-903l182 1042h233l-149 -845h477l148 845h231l-147 -845h184l-86 -490h-221z" />
    <glyph glyph-name="uni0447" unicode="&#x447;" horiz-adv-x="1171" 
d="M285 1042h231l-49 -284q-12 -50 -12 -88q0 -53 40.5 -81t155.5 -28q114 0 232 23l82 458h231l-184 -1042h-232l68 393q-137 -28 -279 -28q-354 0 -354 229q0 59 18 158z" />
    <glyph glyph-name="uni0448" unicode="&#x448;" horiz-adv-x="1697" 
d="M1497 1042h225l-182 -1042h-1380l182 1042h225l-147 -845h352l150 845h225l-150 -845h351z" />
    <glyph glyph-name="uni0449" unicode="&#x449;" horiz-adv-x="1785" 
d="M1497 1042h225l-147 -845h184l-86 -490h-221l51 293h-1343l182 1042h225l-147 -845h352l150 845h225l-150 -845h351z" />
    <glyph glyph-name="uni044A" unicode="&#x44a;" horiz-adv-x="1333" 
d="M186 846l35 196h535l-58 -323h275q147 0 246.5 -86.5t99.5 -235.5q0 -99 -36.5 -176t-100.5 -124.5t-146.5 -72t-179.5 -24.5h-514l147 846h-303zM666 532l-58 -335h260q99 0 159 47t60 145q0 70 -47 106.5t-120 36.5h-254z" />
    <glyph glyph-name="uni044B" unicode="&#x44b;" horiz-adv-x="1597" 
d="M342 1042h233l-57 -323h248q147 0 246.5 -86.5t99.5 -235.5q0 -99 -36.5 -176.5t-101 -124.5t-147.5 -71.5t-180 -24.5h-487zM483 532l-59 -335h235q99 0 160.5 47.5t61.5 144.5q0 70 -48 106.5t-122 36.5h-228zM1622 1042l-182 -1042h-232l183 1042h231z" />
    <glyph glyph-name="uni044C" unicode="&#x44c;" horiz-adv-x="1150" 
d="M160 0l184 1042h229l-57 -323h275q147 0 246.5 -86.5t99.5 -235.5q0 -99 -36.5 -176.5t-100.5 -124.5t-147 -71.5t-179 -24.5h-514zM483 532l-59 -335h260q100 0 160.5 47t60.5 145q0 70 -48 106.5t-122 36.5h-252z" />
    <glyph glyph-name="uni044D" unicode="&#x44d;" horiz-adv-x="1169" 
d="M442 739h-221q45 156 169 243t312 87q208 0 336.5 -130t128.5 -329q0 -282 -156 -459.5t-413 -177.5q-186 0 -315 98t-133 246h219q6 -69 67 -108t160 -39q121 0 208.5 67t115.5 197h-420l32 189h404q-6 113 -72.5 181t-179.5 68q-93 0 -156 -35t-86 -98z" />
    <glyph glyph-name="uni044E" unicode="&#x44e;" horiz-adv-x="1712" 
d="M342 1042h229l-73 -407h215q52 198 190 316t348 118q196 0 327.5 -125t131.5 -332q0 -132 -38.5 -248t-109 -203t-177 -137.5t-236.5 -50.5q-203 0 -331 130t-128 335h-227l-76 -438h-227zM1159 170q99 0 174.5 64.5t112.5 161.5t37 206q0 127 -66.5 198.5t-183.5 71.5
q-98 0 -173.5 -64t-112 -160.5t-36.5 -205.5q0 -127 66 -199.5t182 -72.5z" />
    <glyph glyph-name="uni044F" unicode="&#x44f;" horiz-adv-x="1196" 
d="M1221 1042l-183 -1042h-233l67 379h-241q-49 0 -72 2l-213 -381h-231l245 440q-116 77 -116 234q0 93 33.5 164.5t92.5 115.5t135.5 66t166.5 22h549zM623 559h280l51 295h-286q-86 0 -139.5 -41.5t-53.5 -128.5q0 -62 41.5 -93.5t106.5 -31.5z" />
    <glyph glyph-name="uni0451" unicode="&#x451;" horiz-adv-x="1181" 
d="M899 303h234q-37 -155 -163 -242.5t-315 -87.5q-129 0 -234.5 54.5t-169 161.5t-63.5 247q0 181 65.5 323.5t194.5 226t304 83.5q193 0 314.5 -124.5t121.5 -332.5q0 -52 -6 -110h-760q-4 -28 -4 -56q0 -126 68.5 -202t189.5 -76q167 0 223 135zM741 885q-106 0 -179 -55
t-109 -156h503q-5 94 -58.5 152.5t-156.5 58.5zM705 1266h-205l39 223h206zM1094 1266h-207l41 223h205z" />
    <glyph glyph-name="uni0452" unicode="&#x452;" horiz-adv-x="1304" 
d="M465 1489h231l-30 -170h387l-27 -150h-387l-53 -307h49q108 127 299 127q157 0 243.5 -88t86.5 -237q0 -40 -13 -129l-94 -545q-17 -93 -47.5 -163.5t-81.5 -125t-128 -83t-179 -28.5h-131l35 195h94q89 0 136 44t65 134l96 539q12 66 12 102q0 178 -194 178
q-121 0 -206 -85t-110 -224l-86 -473h-231l207 1169h-156l27 150h155z" />
    <glyph glyph-name="uni0453" unicode="&#x453;" horiz-adv-x="1036" 
d="M1110 1489l-285 -297h-211l234 297h262zM1149 1042l-35 -196h-573l-150 -846h-231l182 1042h807z" />
    <glyph glyph-name="uni0454" unicode="&#x454;" horiz-adv-x="1155" 
d="M840 623l-31 -189h-389q0 -121 62.5 -192.5t181.5 -71.5q88 0 150.5 37t88.5 110h232q-37 -160 -164 -252t-320 -92q-129 0 -233.5 54t-167 159.5t-62.5 245.5q0 132 38.5 248t109 202.5t178.5 136.5t240 50q174 0 289.5 -91t132.5 -239h-230q-13 65 -68 99t-139 34
q-108 0 -187.5 -68.5t-109.5 -180.5h398z" />
    <glyph glyph-name="uni0455" unicode="&#x455;" horiz-adv-x="1087" 
d="M129 315h227q6 -67 75.5 -108t178.5 -41q87 0 150 34.5t63 98.5q0 47 -34.5 73.5t-116.5 51.5l-187 53q-124 36 -185.5 102t-61.5 169q0 151 118 235t308 84q172 0 291.5 -80.5t136.5 -222.5h-228q-10 53 -65.5 83t-141.5 30q-80 0 -134 -28.5t-54 -88.5q0 -20 8 -35.5
t16.5 -24t33 -18.5t36 -13.5t47.5 -13.5l187 -53q258 -74 258 -293q0 -150 -127 -243t-326 -93q-130 0 -231 34.5t-167.5 113t-74.5 194.5z" />
    <glyph glyph-name="uni0456" unicode="&#x456;" horiz-adv-x="552" 
d="M575 1042l-184 -1042h-231l182 1042h233zM616 1266h-237l39 223h237z" />
    <glyph glyph-name="uni0457" unicode="&#x457;" horiz-adv-x="548" 
d="M408 1266h-205l39 223h207zM797 1266h-207l41 223h205zM575 1042l-184 -1042h-231l182 1042h233z" />
    <glyph glyph-name="uni0458" unicode="&#x458;" horiz-adv-x="573" 
d="M362 1042h234l-199 -1114q-59 -338 -417 -338h-138l35 197h94q89 0 136 44t65 134zM438 1489h238l-41 -223h-238z" />
    <glyph glyph-name="uni0459" unicode="&#x459;" horiz-adv-x="1853" 
d="M1288 1042l-57 -323h262q147 0 246.5 -86.5t99.5 -235.5q0 -99 -36.5 -176.5t-100.5 -124.5t-147 -71.5t-179 -24.5h-502l150 846h-383l-43 -250q-41 -227 -106.5 -357.5t-160 -184.5t-239.5 -54h-45l39 219h37q72 0 118.5 33t82.5 119t63 241l74 430h827zM1198 532
l-59 -335h247q100 0 161 47t61 145q0 70 -48 106.5t-122 36.5h-240z" />
    <glyph glyph-name="uni045A" unicode="&#x45a;" horiz-adv-x="1835" 
d="M852 0l76 436h-461l-76 -436h-231l182 1042h233l-73 -409h461l71 409h232l-58 -323h267q147 0 246.5 -86.5t99.5 -235.5q0 -99 -36.5 -176.5t-100.5 -124.5t-147 -71.5t-179 -24.5h-506zM1176 532l-58 -335h250q100 0 160.5 47t60.5 145q0 70 -48 106.5t-122 36.5h-243z
" />
    <glyph glyph-name="uni045B" unicode="&#x45b;" horiz-adv-x="1304" 
d="M1157 0h-231l90 502q12 66 12 102q0 178 -194 178q-121 0 -206 -85t-110 -224l-86 -473h-231l207 1169h-156l27 150h155l31 170h231l-30 -170h387l-27 -150h-387l-53 -307h49q108 127 299 127q157 0 243.5 -88t86.5 -237q0 -62 -13 -129z" />
    <glyph glyph-name="uni045C" unicode="&#x45c;" horiz-adv-x="1200" 
d="M1157 1489l-285 -297h-210l233 297h262zM879 0l-144 436h-268l-76 -436h-231l182 1042h233l-73 -409h264l276 409h242l-342 -501l174 -541h-237z" />
    <glyph glyph-name="uni045E" unicode="&#x45e;" horiz-adv-x="1153" 
d="M422 -410h-242l312 519l-269 933h228l178 -628h55l373 628h241zM455 1477h178v-19q0 -62 37.5 -95.5t105.5 -33.5q77 0 126 40t63 108h182q-29 -143 -130.5 -223t-254.5 -80q-142 0 -225.5 69t-83.5 191q0 25 2 43z" />
    <glyph glyph-name="uni045F" unicode="&#x45f;" horiz-adv-x="1257" 
d="M465 -303l53 303h-358l182 1042h233l-149 -845h477l148 845h231l-180 -1042h-363l-55 -303h-219z" />
    <glyph glyph-name="uni0490" unicode="&#x490;" horiz-adv-x="1282" 
d="M641 1239l-217 -1239h-246l256 1462h770l56 307h247l-94 -530h-772z" />
    <glyph glyph-name="uni0491" unicode="&#x491;" horiz-adv-x="1034" 
d="M952 1305h219l-79 -459h-553l-150 -846h-229l182 1042h565z" />
    <glyph glyph-name="uni0492" unicode="&#x492;" horiz-adv-x="1345" 
d="M162 629l33 192h192l111 641h1018l-39 -223h-768l-76 -418h452l-34 -192h-451l-111 -629h-247l110 629h-190z" />
    <glyph glyph-name="uni0493" unicode="&#x493;" horiz-adv-x="1073" 
d="M113 377l30 174h162l86 491h795l-33 -196h-563l-53 -295h362l-31 -174h-362l-66 -377h-231l65 377h-161z" />
    <glyph glyph-name="uni049A" unicode="&#x49a;" horiz-adv-x="1523" 
d="M434 1462h246l-107 -598h383l383 598h258l-448 -710l149 -529h213l-100 -581h-240l62 358h-117l-182 641h-399l-111 -641h-246z" />
    <glyph glyph-name="uni049B" unicode="&#x49b;" horiz-adv-x="1265" 
d="M879 0l-144 436h-268l-76 -436h-231l182 1042h233l-73 -409h264l276 409h242l-342 -501l111 -344h184l-86 -490h-221l53 293h-104z" />
    <glyph glyph-name="uni04A2" unicode="&#x4a2;" horiz-adv-x="1650" 
d="M1399 1462h246l-218 -1239h207l-100 -581h-240l62 358h-213l110 639h-718l-111 -639h-246l256 1462h246l-107 -594h721z" />
    <glyph glyph-name="uni04A3" unicode="&#x4a3;" horiz-adv-x="1361" 
d="M1298 1042l-147 -845h184l-86 -490h-221l53 293h-196l76 436h-494l-76 -436h-231l182 1042h233l-73 -409h493l72 409h231z" />
    <glyph glyph-name="uni04AE" unicode="&#x4ae;" horiz-adv-x="1343" 
d="M780 838h58l454 624h269l-672 -923l-94 -539h-248l96 539l-352 923h250z" />
    <glyph glyph-name="uni04AF" unicode="&#x4af;" horiz-adv-x="1136" 
d="M344 -100l-111 1142h230l78 -923h94l397 923h242l-514 -1142h-94l-54 -308h-231l53 308h-90z" />
    <glyph glyph-name="uni04B0" unicode="&#x4b0;" horiz-adv-x="1343" 
d="M780 838h58l456 624h267l-576 -788h295l-33 -193h-368l-84 -481h-248l86 481h-367l33 193h293l-301 788h250z" />
    <glyph glyph-name="uni04B1" unicode="&#x4b1;" horiz-adv-x="1136" 
d="M109 -168l28 168h197l-101 1042h230l78 -923h94l397 923h242l-469 -1042h196l-28 -168h-318l-43 -240h-231l43 240h-315z" />
    <glyph glyph-name="uni04BA" unicode="&#x4ba;" horiz-adv-x="1413" 
d="M1298 0h-247l73 418q13 54 13 104q0 37 -11.5 64t-41 50.5t-89 35.5t-147.5 12q-167 0 -307 -35l-115 -649h-248l256 1462h248l-104 -592q161 37 335 37q112 0 197 -16t138 -43t85.5 -67t45 -83t12.5 -96q0 -72 -15 -153z" />
    <glyph glyph-name="uni04BB" unicode="&#x4bb;" 
d="M1116 0h-231l102 582q12 66 12 102q0 178 -194 178q-121 0 -206 -85t-110 -224l-98 -553h-231l264 1489h231l-98 -547h49q108 127 299 127q157 0 243.5 -88.5t86.5 -237.5q0 -47 -12 -129z" />
    <glyph glyph-name="uni04D8" unicode="&#x4d8;" horiz-adv-x="1552" 
d="M254 856h1069v33q0 169 -97 274t-272 105q-134 0 -222.5 -53.5t-125.5 -143.5h-258q55 189 222 303.5t405 114.5q271 0 437.5 -171t166.5 -458q0 -175 -49 -333.5t-141 -282.5t-237.5 -197.5t-324.5 -73.5q-183 0 -319.5 82t-207.5 223.5t-71 321.5q0 122 25 256z
M1300 637h-815q-4 -36 -4 -59q0 -172 94 -277.5t271 -105.5q183 0 299 122t155 320z" />
    <glyph glyph-name="uni04D9" unicode="&#x4d9;" horiz-adv-x="1177" 
d="M467 739h-236q42 154 167 242t313 88q96 0 180 -31.5t147.5 -89t100.5 -146t37 -196.5q0 -182 -65 -324t-194 -225.5t-305 -83.5q-193 0 -313.5 127t-120.5 340q0 78 10 150h758v16q0 111 -65 188.5t-187 77.5q-90 0 -143 -33.5t-84 -99.5zM930 418h-529v-12
q0 -115 56.5 -181.5t169.5 -66.5q244 0 303 260z" />
    <glyph glyph-name="uni04E8" unicode="&#x4e8;" horiz-adv-x="1597" 
d="M1001 1489q134 0 248.5 -43.5t197.5 -123t130 -198t47 -260.5q0 -143 -33 -275.5t-98.5 -244.5t-157 -195t-216 -129.5t-267.5 -46.5q-276 0 -449.5 170t-173.5 457q0 143 33 275t98.5 243.5t157 194.5t216 129.5t267.5 46.5zM866 197q97 0 180 34.5t141.5 96t99 139.5
t61.5 170h-869v-25q0 -189 101.5 -302t285.5 -113zM987 1266q-180 0 -304.5 -116t-168.5 -294h860q-2 191 -102.5 300.5t-284.5 109.5z" />
    <glyph glyph-name="uni04E9" unicode="&#x4e9;" horiz-adv-x="1253" 
d="M768 1069q99 0 186.5 -31.5t153.5 -89t104.5 -145.5t38.5 -195q0 -182 -67.5 -325t-200.5 -226.5t-313 -83.5q-207 0 -344.5 124.5t-137.5 338.5q0 181 67 323.5t200 226t313 83.5zM684 170q121 0 204.5 73.5t108.5 194.5h-579q1 -129 72 -198.5t194 -69.5zM754 872
q-119 0 -201.5 -72.5t-112.5 -189.5h580q-4 123 -75.5 192.5t-190.5 69.5z" />
    <glyph glyph-name="endash" unicode="&#x2013;" horiz-adv-x="1267" 
d="M1257 479h-1079l33 187h1077z" />
    <glyph glyph-name="emdash" unicode="&#x2014;" horiz-adv-x="1796" 
d="M1786 479h-1608l33 187h1606z" />
    <glyph glyph-name="quoteleft" unicode="&#x2018;" horiz-adv-x="565" 
d="M498 1198h120l-47 -274h-266l55 319l177 219h145l-178 -219z" />
    <glyph glyph-name="quoteright" unicode="&#x2019;" horiz-adv-x="565" 
d="M471 1188h-121l47 274h267l-56 -319l-176 -219h-145l178 219z" />
    <glyph glyph-name="quotesinglbase" unicode="&#x201a;" horiz-adv-x="565" 
d="M270 0h-120l47 274h266l-55 -319l-177 -219h-145l178 219z" />
    <glyph glyph-name="quotedblleft" unicode="&#x201c;" horiz-adv-x="972" 
d="M498 1198h120l-47 -274h-266l55 319l177 219h145l-178 -219zM905 1198h121l-47 -274h-266l55 319l176 219h146l-179 -219z" />
    <glyph glyph-name="quotedblright" unicode="&#x201d;" horiz-adv-x="972" 
d="M471 1188h-121l47 274h267l-56 -319l-176 -219h-145l178 219zM879 1188h-121l47 274h266l-55 -319l-176 -219h-146l178 219z" />
    <glyph glyph-name="quotedblbase" unicode="&#x201e;" horiz-adv-x="972" 
d="M270 0h-120l47 274h266l-55 -319l-177 -219h-145l178 219zM678 0h-121l47 274h266l-55 -319l-176 -219h-145l178 219z" />
    <glyph glyph-name="dagger" unicode="&#x2020;" horiz-adv-x="1126" 
d="M608 858h-372l36 195h371l72 409h213l-72 -409h371l-35 -195h-371l-207 -1169h-213z" />
    <glyph glyph-name="daggerdbl" unicode="&#x2021;" horiz-adv-x="1126" 
d="M608 858h-372l36 195h371l72 409h213l-72 -409h371l-35 -195h-371l-98 -559h373l-37 -195h-371l-74 -415h-213l74 415h-371l35 195h371z" />
    <glyph glyph-name="bullet" unicode="&#x2022;" horiz-adv-x="864" 
d="M258 729q0 125 88 213t213 88t213 -88t88 -213t-88 -213t-213 -88t-213 88t-88 213z" />
    <glyph glyph-name="ellipsis" unicode="&#x2026;" horiz-adv-x="1632" 
d="M414 0h-264l47 274h266zM948 0h-264l47 274h264zM1483 0h-266l49 274h264z" />
    <glyph glyph-name="perthousand" unicode="&#x2030;" horiz-adv-x="2607" 
d="M578 0h-183l1121 1434h182zM952 1149q0 -90 -24.5 -172t-70.5 -147t-120.5 -103.5t-167.5 -38.5q-135 0 -217 86t-82 227q0 90 24.5 172t70.5 147t120 103.5t166 38.5q136 0 218.5 -86.5t82.5 -226.5zM580 838q66 0 113.5 47.5t68 113.5t20.5 140q0 81 -35 127.5
t-106 46.5q-65 0 -112 -47.5t-68 -114.5t-21 -141q0 -81 35 -126.5t105 -45.5zM1823 434q0 -90 -24.5 -172t-70.5 -147t-120.5 -103.5t-167.5 -38.5q-135 0 -217 86.5t-82 227.5q0 90 24.5 172t70.5 147t120 103.5t166 38.5q136 0 218.5 -87t82.5 -227zM1450 123
q66 0 113.5 47.5t68.5 113.5t21 140q0 81 -35.5 127.5t-106.5 46.5q-65 0 -112.5 -47.5t-68.5 -114.5t-21 -141q0 -80 35.5 -126t105.5 -46zM2585 434q0 -90 -24.5 -172t-70.5 -147t-120 -103.5t-166 -38.5q-134 0 -216.5 87t-82.5 227q0 72 15 138.5t46 125.5t75 102.5
t106.5 69t136.5 25.5q136 0 218.5 -87t82.5 -227zM2214 123q65 0 112.5 47t69 114t21.5 140q0 81 -36.5 127.5t-107.5 46.5q-65 0 -112 -47.5t-67.5 -114t-20.5 -141.5q0 -80 35.5 -126t105.5 -46z" />
    <glyph glyph-name="guilsinglleft" unicode="&#x2039;" horiz-adv-x="774" 
d="M428 602l-8 -47l276 -356h-241l-250 315l24 154l353 307h256z" />
    <glyph glyph-name="guilsinglright" unicode="&#x203a;" horiz-adv-x="774" 
d="M553 571l8 47l-276 357h241l250 -316l-24 -153l-353 -307h-256z" />
    <glyph glyph-name="fraction" unicode="&#x2044;" horiz-adv-x="589" 
d="M-27 0h-178l1120 1434h177z" />
    <glyph glyph-name="Euro" unicode="&#x20ac;" horiz-adv-x="1423" 
d="M199 791l67 129h125q67 249 231.5 395.5t389.5 146.5q203 0 327.5 -112.5t147.5 -315.5h-238q-12 103 -81.5 159t-172.5 56q-131 0 -224.5 -88.5t-139.5 -240.5h475l-66 -129h-440q-16 -95 -18 -138h385l-64 -129h-325q9 -338 280 -338q120 0 200 65t113 181h240
q-59 -210 -205 -334.5t-358 -124.5q-236 0 -368 147.5t-140 403.5h-188l67 129h123q6 73 18 138h-161z" />
    <glyph glyph-name="uni20B4" unicode="&#x20b4;" horiz-adv-x="1404" 
d="M1110 383h240q-42 -194 -190.5 -302t-383.5 -108q-228 0 -365 109.5t-137 292.5q0 66 29 151h-143l22 129h1264l-23 -129h-878q-35 -59 -35 -135q0 -100 77.5 -152.5t200.5 -52.5q261 0 322 197zM1470 793h-1263l22 129h889q41 64 41 137q0 93 -72.5 141.5t-171.5 48.5
q-228 0 -280 -174h-238q38 178 175 282.5t356 104.5q205 0 333 -106.5t128 -284.5q0 -77 -35 -149h139z" />
    <glyph glyph-name="uni20B8" unicode="&#x20b8;" horiz-adv-x="1097" 
d="M219 1038l23 129h1030l-23 -129h-395l-182 -1038h-240l182 1038h-395zM266 1305l23 129h1030l-23 -129h-1030z" />
    <glyph glyph-name="uni20BD" unicode="&#x20bd;" horiz-adv-x="1437" 
d="M207 760h194l119 674h574q121 0 217 -44t154.5 -134t58.5 -212q0 -230 -155 -359.5t-415 -129.5h-352l-24 -137h436l-21 -129h-438l-49 -289h-238l51 289h-194l22 129h195l25 137h-195zM721 1231l-82 -471h340q136 0 220.5 69.5t84.5 204.5q0 94 -66 145.5t-165 51.5
h-332z" />
    <glyph glyph-name="uni2116" unicode="&#x2116;" horiz-adv-x="2344" 
d="M1397 1434h225l-252 -1434h-328l-401 1083h-49l-191 -1083h-223l252 1434h328l399 -1084h49zM2302 422h-666l23 145h665zM2421 1149q0 -90 -24.5 -172t-70.5 -147t-120.5 -103.5t-167.5 -38.5q-135 0 -217 86t-82 227q0 90 24.5 172t70.5 147t120 103.5t166 38.5
q136 0 218.5 -86.5t82.5 -226.5zM2048 838q66 0 113.5 47.5t68.5 113.5t21 140q0 81 -35.5 127.5t-106.5 46.5q-65 0 -112 -47.5t-67.5 -114t-20.5 -141.5q0 -81 34.5 -126.5t104.5 -45.5z" />
    <glyph glyph-name="trademark" unicode="&#x2122;" horiz-adv-x="1746" 
d="M952 684l138 778h237l88 -329h29l201 329h239l-137 -778h-143l106 604h-29l-206 -334h-150l-92 334h-29l-106 -604h-146zM958 1462l-22 -137h-252l-115 -641h-151l114 641h-251l22 137h655z" />
    <glyph glyph-name="Omega" unicode="&#x2126;" horiz-adv-x="1566" 
d="M1313 248v-47h252v-201h-584v205q336 215 336 569q0 227 -117 359.5t-309 132.5t-309 -132.5t-117 -359.5q0 -352 334 -569v-205h-582v201h254v47q-109 91 -182.5 227t-73.5 318q0 202 80.5 359t235 247t360.5 90q207 0 361.5 -90t234.5 -247t80 -359q0 -327 -254 -545z
" />
    <glyph glyph-name="arrowleft" unicode="&#x2190;" horiz-adv-x="1667" 
d="M688 1042h277l-375 -372v-49h1038v-201h-1038v-49l375 -371h-277l-522 520z" />
    <glyph glyph-name="arrowup" unicode="&#x2191;" horiz-adv-x="1380" 
d="M291 664v274l522 524l520 -522v-276l-370 374h-50v-1038h-200v1038h-49z" />
    <glyph glyph-name="arrowright" unicode="&#x2192;" horiz-adv-x="1667" 
d="M862 1042h277l522 -522l-522 -520h-277l375 371v49h-1038v201h1038v49z" />
    <glyph glyph-name="arrowdown" unicode="&#x2193;" horiz-adv-x="1380" 
d="M291 524v275l373 -375h49v1038h200v-1038h50l370 375v-277l-520 -522z" />
    <glyph glyph-name="uni2196" unicode="&#x2196;" horiz-adv-x="1445" 
d="M530 530l-194 193v739h737l197 -192h-529l-34 -35l735 -733l-142 -144l-735 736l-35 -35v-529z" />
    <glyph glyph-name="uni2197" unicode="&#x2197;" horiz-adv-x="1445" 
d="M1372 723l-194 -193v529l-35 35l-735 -736l-142 144l735 733l-34 35h-529l197 192h737v-739z" />
    <glyph glyph-name="uni2198" unicode="&#x2198;" horiz-adv-x="1445" 
d="M309 739l195 193v-529l35 -34l735 735l141 -143l-735 -734l35 -34h528l-196 -193h-738v739z" />
    <glyph glyph-name="uni2199" unicode="&#x2199;" horiz-adv-x="1445" 
d="M1161 932l195 -193v-739h-738l-196 193h528l35 34l-735 734l141 143l735 -735l35 34v529z" />
    <glyph glyph-name="partialdiff" unicode="&#x2202;" horiz-adv-x="1239" 
d="M709 170q144 0 216 90.5t72 231.5q0 142 -72 232.5t-216 90.5q-145 0 -218 -91t-73 -232q0 -140 73.5 -231t217.5 -91zM406 1489h278q72 -50 139 -108t144 -149t132.5 -189.5t92.5 -231.5t37 -274q0 -164 -57 -289.5t-177 -200t-290 -74.5q-156 0 -274.5 69.5
t-180.5 187.5t-62 264q0 221 129.5 365.5t327.5 144.5q165 0 242 -74h49q-119 276 -530 559z" />
    <glyph glyph-name="increment" unicode="&#x2206;" horiz-adv-x="1323" 
d="M846 1434l448 -1186v-248h-1157v248l451 1186h258zM1087 199v49l-346 921h-49l-346 -921v-49h741z" />
    <glyph glyph-name="product" unicode="&#x220f;" horiz-adv-x="1249" 
d="M1167 -410h-206v1680h-332v-1680h-207v1680h-197v192h1139v-192h-197v-1680z" />
    <glyph glyph-name="summation" unicode="&#x2211;" horiz-adv-x="1208" 
d="M492 213h741v-213h-1024v262l385 445v49l-369 444v262h971v-213h-690v-49l344 -424v-92l-358 -422v-49z" />
    <glyph glyph-name="minus" unicode="&#x2212;" horiz-adv-x="1384" 
d="M1311 489h-1047v197h1047v-197z" />
    <glyph glyph-name="radical" unicode="&#x221a;" horiz-adv-x="1341" 
d="M252 1042h201l235 -800h49l377 1192h356v-179h-213l-403 -1255h-287z" />
    <glyph glyph-name="infinity" unicode="&#x221e;" horiz-adv-x="1888" 
d="M1014 664h51q100 104 153 145q129 100 261 100q149 0 242.5 -90t93.5 -241t-93.5 -241.5t-242.5 -90.5q-65 0 -126.5 21.5t-115.5 62t-90.5 76t-81.5 86.5h-51q-45 -51 -81.5 -86.5t-90.5 -76t-115.5 -62t-126.5 -21.5q-149 0 -242.5 90.5t-93.5 241.5t93.5 241t242.5 90
q39 0 77.5 -9.5t67 -19.5t66.5 -36t55.5 -38.5t55.5 -49t46 -45t46 -47.5zM950 578q-43 50 -72.5 81t-75.5 69.5t-95 57.5t-101 19q-98 0 -163.5 -60.5t-65.5 -166.5t65.5 -167t163.5 -61q52 0 101.5 19.5t94 56t77 70.5t71.5 82zM1128 578q38 -47 71 -81.5t78 -71t94.5 -56
t101.5 -19.5q98 0 163.5 61t65.5 167t-65.5 166.5t-163.5 60.5q-42 0 -84.5 -14.5t-74.5 -34.5t-69.5 -54t-60.5 -59.5t-56 -64.5z" />
    <glyph glyph-name="integral" unicode="&#x222b;" horiz-adv-x="935" 
d="M973 1489h90v-197h-84q-102 0 -153.5 -56.5t-71.5 -170.5l-191 -1077q-36 -211 -146 -304.5t-300 -93.5h-90v197h82q104 0 155.5 56t71.5 171l188 1078q37 211 147.5 304t301.5 93z" />
    <glyph glyph-name="approxequal" unicode="&#x2248;" horiz-adv-x="1372" 
d="M1133 967h165q0 -334 -280 -334q-54 0 -109.5 21.5t-101.5 51.5t-90 60.5t-89.5 52t-84.5 21.5q-113 0 -113 -156h-166q0 332 279 332q54 0 110.5 -21t102.5 -51t89.5 -60.5t89 -51.5t83.5 -21q115 0 115 156zM1133 522h165q0 -334 -280 -334q-54 0 -109.5 21.5
t-101.5 52t-90 60.5t-89.5 51.5t-84.5 21.5q-113 0 -113 -157h-166q0 171 73 252t206 81q54 0 110.5 -21t102.5 -51.5t89.5 -61t89 -51.5t83.5 -21q115 0 115 157z" />
    <glyph glyph-name="notequal" unicode="&#x2260;" horiz-adv-x="1384" 
d="M1300 477v-198h-616l-158 -246h-209l158 246h-219v198h346l141 219h-487v199h616l158 246h209l-158 -246h219v-199h-348l-141 -219h489z" />
    <glyph glyph-name="lessequal" unicode="&#x2264;" horiz-adv-x="1386" 
d="M244 0v197h1046v-197h-1046zM1290 276l-1046 320v225l1046 320v-203l-727 -205v-49l727 -205v-203z" />
    <glyph glyph-name="greaterequal" unicode="&#x2265;" horiz-adv-x="1384" 
d="M1311 596l-1047 -320v203l727 205v49l-727 205v203l1047 -320v-225zM1311 197v-197h-1047v197h1047z" />
    <glyph glyph-name="lozenge" unicode="&#x25ca;" horiz-adv-x="1134" 
d="M799 1462l346 -731l-346 -731h-215l-348 731l348 731h215zM715 262l207 469l-207 469h-49l-207 -469l207 -469h49z" />
    <glyph glyph-name="commaaccent" unicode="&#xf6c3;" horiz-adv-x="403" 
d="M133 -463h-139l147 125l6 41h-108l33 182h247l-40 -223z" />
    <glyph glyph-name="uniFEFF" unicode="&#xfeff;" horiz-adv-x="0" 
 />
    <glyph glyph-name="eight.numr" horiz-adv-x="776" 
d="M887 1272q0 -109 -113 -174l-4 -31q86 -62 86 -149q0 -117 -94.5 -183.5t-229.5 -66.5q-128 0 -211 63t-83 164q0 140 139 195l4 30q-59 48 -59 131q0 106 85 166t211 60q117 0 193 -58t76 -147zM541 801q70 0 111.5 32.5t41.5 88.5q0 49 -40.5 78.5t-102.5 29.5
q-67 0 -109.5 -34.5t-42.5 -90.5q0 -48 40 -76t102 -28zM596 1151q62 0 98.5 27t36.5 77q0 40 -35.5 67.5t-83.5 27.5q-61 0 -98 -29.5t-37 -79.5q0 -42 34 -66t85 -24z" />
    <glyph glyph-name="nine.numr" horiz-adv-x="770" 
d="M508 940q-104 0 -169 64.5t-65 164.5q0 136 88 222t232 86q125 0 205 -75.5t80 -221.5q0 -67 -12.5 -135.5t-42 -136.5t-72 -121t-107.5 -86t-143 -33q-105 0 -175.5 58.5t-80.5 156.5h157q9 -82 107 -82q68 0 120.5 53.5t69.5 138.5h-36q-53 -53 -156 -53zM584 1341
q-70 0 -109 -44t-39 -113q0 -51 33.5 -83t93.5 -32q71 0 111.5 42.5t40.5 111.5q0 55 -34.5 86.5t-96.5 31.5z" />
    <glyph glyph-name="zero.dnom" horiz-adv-x="792" 
d="M512 795q122 0 198 -76.5t76 -222.5q0 -223 -102 -366.5t-270 -143.5q-123 0 -200 75t-77 222q0 223 103.5 367.5t271.5 144.5zM422 129q52 0 93 34.5t64 90.5t34.5 117.5t11.5 124.5q0 76 -32.5 115.5t-88.5 39.5q-54 0 -96 -35t-65 -91t-34.5 -118t-11.5 -124
q0 -74 33.5 -114t91.5 -40z" />
    <glyph glyph-name="one.dnom" horiz-adv-x="681" 
d="M453 139h182l-25 -139h-530l24 139h189l82 465h-37l-166 -90l25 154l211 112h159z" />
    <glyph glyph-name="two.dnom" horiz-adv-x="741" 
d="M692 139l-26 -139h-590l30 174l312 193q71 42 111 86.5t40 99.5q0 46 -31.5 72t-82.5 26q-120 0 -140 -123h-159q46 267 311 267q114 0 191 -62.5t77 -165.5q0 -43 -14.5 -82t-32.5 -65.5t-54 -56.5t-57.5 -45t-64.5 -42l-164 -102l-6 -35h350z" />
    <glyph glyph-name="three.dnom" horiz-adv-x="759" 
d="M733 616l-172 -104l-6 -29q80 -20 120 -75.5t40 -135.5q0 -126 -89.5 -206t-230.5 -80q-130 0 -211.5 73t-81.5 191h156q4 -59 42.5 -90t100.5 -31q72 0 115 38.5t43 100.5q0 53 -36 83t-93 30q-45 0 -76 -8l25 143l149 92l7 33h-316l25 139h518z" />
    <glyph glyph-name="seven.numr" horiz-adv-x="663" 
d="M311 1462h551l-28 -157l-428 -623h-170l413 600l6 41h-368z" />
    <glyph glyph-name="five.dnom" horiz-adv-x="753" 
d="M735 641h-370l-39 -143h41q46 39 129 39q102 0 164.5 -64.5t62.5 -169.5q0 -144 -90 -230.5t-227 -86.5q-136 0 -213.5 76t-77.5 186h155q4 -56 41.5 -87.5t98.5 -31.5q65 0 108 40.5t43 115.5q0 57 -32.5 89t-92.5 32q-85 0 -135 -62h-154l113 434h500z" />
    <glyph glyph-name="six.dnom" horiz-adv-x="770" 
d="M506 522q105 0 169 -64t64 -165q0 -136 -87.5 -221.5t-229.5 -85.5q-125 0 -205 75.5t-80 221.5q0 67 12.5 135.5t42 136.5t72 121t107.5 86t143 33q105 0 176 -59t78 -156h-156q-9 82 -108 82q-68 0 -120 -53.5t-69 -139.5h37q53 53 154 53zM432 121q70 0 109 44.5
t39 113.5q0 51 -34 82.5t-93 31.5q-71 0 -111.5 -42t-40.5 -111q0 -55 33.5 -87t97.5 -32z" />
    <glyph glyph-name="seven.dnom" horiz-adv-x="663" 
d="M190 780h551l-28 -157l-428 -623h-170l413 600l7 41h-369z" />
    <glyph glyph-name="eight.dnom" horiz-adv-x="776" 
d="M766 590q0 -109 -113 -174l-4 -31q86 -62 86 -149q0 -79 -46 -137t-118 -85.5t-159 -27.5q-128 0 -211.5 63t-83.5 164q0 140 139 195l4 30q-59 48 -59 131q0 106 85.5 166t211.5 60q117 0 192.5 -58t75.5 -147zM420 119q70 0 111.5 32.5t41.5 88.5q0 49 -40.5 78.5
t-102.5 29.5q-67 0 -109 -34.5t-42 -90.5q0 -48 39.5 -76t101.5 -28zM475 469q62 0 98.5 27t36.5 77q0 41 -35 68t-83 27q-61 0 -98.5 -29.5t-37.5 -79.5q0 -42 34 -66t85 -24z" />
    <glyph glyph-name="nine.dnom" horiz-adv-x="770" 
d="M393 258q-104 0 -168.5 64.5t-64.5 164.5q0 136 87.5 222t231.5 86q125 0 205 -75.5t80 -221.5q0 -67 -12.5 -135.5t-42 -136.5t-72 -121t-107.5 -86t-143 -33q-105 0 -175.5 58.5t-80.5 156.5h158q9 -82 106 -82q69 0 121.5 53.5t69.5 138.5h-37q-53 -53 -156 -53z
M469 659q-70 0 -108.5 -44t-38.5 -113q0 -51 33.5 -83t93.5 -32q71 0 111 42.5t40 111.5q0 55 -34.5 86.5t-96.5 31.5z" />
    <glyph glyph-name="zero.onum" horiz-adv-x="1282" 
d="M782 1069q139 0 250.5 -54t179.5 -161.5t68 -251.5q0 -180 -69.5 -321.5t-206 -224.5t-320.5 -83q-138 0 -249.5 54.5t-179 162.5t-67.5 252q0 181 69.5 322t205.5 223t319 82zM698 178q108 0 189 58t121.5 150.5t40.5 203.5q0 128 -76 201t-205 73q-160 0 -254 -118
t-94 -291q0 -128 76 -202.5t202 -74.5z" />
    <glyph glyph-name="one.onum" horiz-adv-x="997" 
d="M125 0l35 205h291l106 604h-49l-268 -158l41 234l268 157h282l-147 -837h262l-35 -205h-786z" />
    <glyph glyph-name="two.onum" horiz-adv-x="1126" 
d="M1071 205l-37 -205h-946l45 244l494 227q125 59 161 85q88 63 89 155q0 70 -54 111.5t-147 41.5q-110 0 -175.5 -54.5t-78.5 -162.5h-234q18 184 151 303t351 119q102 0 183.5 -27t131.5 -73t76.5 -104t26.5 -122q0 -66 -21 -122t-52.5 -96t-83 -77t-98.5 -61.5
t-112 -52.5l-186 -82l-8 -47h524z" />
    <glyph glyph-name="three.onum" horiz-adv-x="1202" 
d="M1149 793l-358 -254l-9 -47q159 -19 240.5 -123.5t81.5 -259.5q0 -227 -153 -373t-398 -146q-222 0 -358 121.5t-136 323.5h232q11 -113 84 -176.5t194 -63.5q134 0 218.5 88.5t84.5 216.5q0 117 -68.5 179.5t-187.5 62.5q-72 0 -124 -14l38 221l349 244l10 49h-608
l30 200h881z" />
    <glyph glyph-name="four.onum" horiz-adv-x="1273" 
d="M1036 205h189l-37 -205h-189l-67 -391h-230l68 391h-696l45 254l768 788h297zM348 205h467l103 581h-50l-512 -532z" />
    <glyph glyph-name="five.onum" horiz-adv-x="1249" 
d="M1198 842h-663l-84 -350h47q96 92 256 92q187 0 299 -114.5t112 -309.5q0 -131 -44.5 -240.5t-119.5 -180.5t-173 -110t-205 -39q-120 0 -216 36t-157 97.5t-94 141t-35 170.5h231q8 -111 81.5 -175.5t195.5 -64.5q125 0 215 94t90 254q0 118 -69 185t-187 67
q-158 0 -260 -123h-225l192 770h846z" />
    <glyph glyph-name="six.onum" 
d="M1309 1102h-234q-27 162 -219 162q-134 0 -236 -122t-131 -315h50q119 115 292 115q184 0 303 -117t119 -299q0 -111 -37.5 -211t-105 -176t-170 -121t-225.5 -45q-104 0 -192.5 33.5t-156 99t-105.5 171.5t-38 241q0 136 24 268t75.5 255t124.5 216t180 149t233 56
q102 0 185 -29.5t137 -80.5t86 -114.5t41 -135.5zM1022 506q0 112 -71 178t-189 66q-133 0 -216 -90t-83 -226q0 -119 69.5 -189.5t196.5 -70.5q138 0 215.5 98t77.5 234z" />
    <glyph glyph-name="seven.onum" horiz-adv-x="1144" 
d="M1176 791l-777 -1182h-247l776 1182l8 47h-690l35 204h938z" />
    <glyph glyph-name="eight.onum" horiz-adv-x="1280" 
d="M1079 760l-8 -47q170 -101 170 -297q0 -195 -150.5 -319t-394.5 -124q-237 0 -377.5 111t-140.5 291q0 73 23 136t63 108.5t86.5 78t100.5 54.5l10 47q-59 39 -97 105.5t-38 154.5q0 171 139.5 287t363.5 116q213 0 343.5 -103.5t130.5 -268.5q0 -117 -64 -203.5
t-160 -126.5zM553 1044q0 -99 72 -149.5t176 -50.5q120 0 197 60t77 167q0 93 -75 148t-175 55q-116 0 -194 -64t-78 -166zM414 401q0 -106 83 -166.5t205 -60.5q132 0 219 69t87 185q0 112 -83 173t-206 61q-134 0 -219.5 -70.5t-85.5 -190.5z" />
    <glyph glyph-name="nine.onum" horiz-adv-x="1251" 
d="M131 -47h234q13 -76 67 -120t150 -44q139 0 237 115.5t131 310.5h-49q-119 -115 -293 -115q-185 0 -304.5 117t-119.5 301q0 110 37.5 209.5t105.5 175.5t170.5 121t225.5 45q105 0 193.5 -33.5t155.5 -99t104.5 -171t37.5 -241.5q0 -112 -17 -222.5t-50.5 -215.5
t-87.5 -195t-122 -158t-160.5 -106.5t-198.5 -38.5q-101 0 -183.5 30t-136.5 81.5t-86 116t-41 137.5zM416 537q0 -112 72 -178t190 -66q132 0 214.5 90t82.5 227q0 119 -69 188.5t-195 69.5q-140 0 -217.5 -96.5t-77.5 -234.5z" />
    <glyph glyph-name="zero.tnum" horiz-adv-x="1290" 
d="M219 512q0 273 77.5 488t223.5 338.5t338 123.5q98 0 181.5 -33t148 -97t101 -169t36.5 -239q0 -273 -78 -488.5t-224 -339t-337 -123.5q-98 0 -181.5 33t-148 97.5t-101 169.5t-36.5 239zM459 506q0 -70 12 -123l535 801q-62 65 -158 65q-83 0 -150.5 -47t-111 -122.5
t-73 -174.5t-42 -199t-12.5 -200zM1085 930q0 53 -14 121l-532 -801q58 -64 157 -64q82 0 149.5 47t111 122.5t73.5 175t42.5 199.5t12.5 200z" />
    <glyph glyph-name="one.tnum" horiz-adv-x="1290" 
d="M123 0l37 209h442l172 981h-49l-328 -191l41 240l332 195h285l-215 -1225h358l-37 -209h-1038z" />
    <glyph glyph-name="two.tnum" horiz-adv-x="1290" 
d="M526 1020h-237q37 215 179.5 328.5t356.5 113.5q192 0 315.5 -105t123.5 -282q0 -76 -23.5 -147t-56 -124t-88.5 -111t-99.5 -94.5t-109.5 -86.5l-205 -152l-141 -102l-9 -49h654l-35 -209h-1012l43 256l213 152q103 70 350 247q63 44 107 81.5t87.5 87.5t66 107.5
t22.5 121.5q0 95 -63.5 145.5t-161.5 50.5q-111 0 -182.5 -57t-94.5 -172z" />
    <glyph glyph-name="three.tnum" horiz-adv-x="1290" 
d="M1268 1182l-361 -256l-8 -47q161 -19 244.5 -124.5t83.5 -260.5q0 -227 -155 -374t-400 -147q-222 0 -359 122.5t-137 324.5h238q7 -114 79 -174t193 -60q135 0 219 86.5t84 214.5q0 115 -67.5 176.5t-186.5 61.5q-69 0 -125 -12l39 217l350 252l11 49h-613l33 203h881z
" />
    <glyph glyph-name="four.tnum" horiz-adv-x="1290" 
d="M1102 530h186l-39 -208h-184l-55 -322h-232l56 322h-687l46 258l772 854h297zM420 530h457l110 629h-47l-512 -579z" />
    <glyph glyph-name="five.tnum" horiz-adv-x="1290" 
d="M1284 1231h-663l-84 -352h49q96 92 252 92q187 0 301 -115.5t114 -310.5q0 -132 -45 -241.5t-120.5 -181t-174 -110.5t-206.5 -39q-120 0 -217 36t-159.5 97.5t-96 142t-33.5 171.5h237q6 -114 78 -174t197 -60t213 91.5t88 248.5q0 118 -68 185t-184 67
q-157 0 -260 -121h-228l193 777h852z" />
    <glyph glyph-name="six.tnum" horiz-adv-x="1290" 
d="M1329 1102h-239q-12 75 -66.5 116.5t-151.5 41.5q-134 0 -235.5 -119.5t-130.5 -311.5h49q115 111 293 111q184 0 305 -116t121 -298q0 -111 -38 -211t-107 -176t-172 -121t-226 -45q-104 0 -192 33.5t-156 99t-106.5 171.5t-38.5 241t24.5 268t76 255.5t125.5 215.5
t180.5 149t232.5 56q198 0 315.5 -104t136.5 -256zM1036 506q0 110 -70.5 174.5t-187.5 64.5q-133 0 -214 -88.5t-81 -222.5q0 -119 67.5 -187.5t194.5 -68.5q93 0 161 48t99 121t31 159z" />
    <glyph glyph-name="seven.tnum" horiz-adv-x="1290" 
d="M1311 1178l-774 -1178h-250l774 1178l12 49h-692l37 207h938z" />
    <glyph glyph-name="eight.tnum" horiz-adv-x="1290" 
d="M1092 760l-11 -47q172 -102 172 -297t-151 -319t-395 -124q-236 0 -378.5 111t-142.5 291q0 73 23 136t63 108.5t86.5 78t100.5 54.5l10 47q-59 39 -97 105.5t-38 154.5q0 171 141 287t365 116q212 0 343.5 -103.5t131.5 -268.5q0 -117 -63.5 -204t-159.5 -126zM567 1047
q0 -97 71 -149t173 -52q120 0 195 60.5t75 166.5q0 90 -72.5 143.5t-172.5 53.5q-118 0 -193.5 -60.5t-75.5 -162.5zM428 403q0 -106 82.5 -165.5t202.5 -59.5q133 0 217 68.5t84 183.5q0 112 -80.5 172t-204.5 60q-134 0 -217.5 -69.5t-83.5 -189.5z" />
    <glyph glyph-name="nine.tnum" horiz-adv-x="1290" 
d="M211 334h240q12 -75 66 -116.5t151 -41.5q134 0 235.5 119t130.5 311h-49q-114 -110 -293 -110q-184 0 -305 115.5t-121 297.5q0 111 38 211t107 176t172 121t226 45q104 0 192.5 -33.5t156.5 -99t106.5 -171t38.5 -240.5t-24 -268t-76 -255.5t-126 -216t-180.5 -149.5
t-232.5 -56q-198 0 -316 104.5t-137 256.5zM504 930q0 -110 70.5 -175t187.5 -65q133 0 214 88.5t81 222.5q0 119 -67.5 187.5t-194.5 68.5q-138 0 -214.5 -96.5t-76.5 -230.5z" />
    <glyph glyph-name="dollar.tnum" horiz-adv-x="1290" 
d="M166 424h235q19 -187 205 -231l80 464l-80 27q-287 95 -287 350q0 191 138.5 309.5t355.5 118.5h16l31 172h129l-33 -188q152 -30 247.5 -132t107.5 -259h-236q-12 74 -52.5 122.5t-102.5 65.5l-72 -412l82 -24q146 -48 228.5 -140.5t82.5 -246.5q0 -131 -68.5 -233
t-188.5 -158t-269 -56h-19l-30 -174h-129l32 187q-177 30 -284 141.5t-119 296.5zM1006 403q0 88 -47 136t-150 79l-76 -442q110 -5 191.5 55.5t81.5 171.5zM555 1051q0 -71 35.5 -109t109.5 -63l25 -9l70 390q-102 0 -171 -54t-69 -155z" />
    <glyph glyph-name="Euro.tnum" horiz-adv-x="1290" 
d="M158 791l65 129h105q72 246 228 394t374 148q210 0 325.5 -113t133.5 -315h-236q-7 104 -67.5 159.5t-163.5 55.5q-125 0 -214.5 -89.5t-136.5 -239.5h449l-66 -129h-417q-8 -40 -21 -138h365l-66 -129h-301q12 -338 258 -338q114 0 190 68.5t111 177.5h234
q-59 -211 -197.5 -335t-343.5 -124q-219 0 -351 145.5t-139 405.5h-167l65 129h107q6 73 18 138h-141z" />
    <glyph glyph-name="sterling.tnum" horiz-adv-x="1290" 
d="M506 209h747l-36 -209h-1104l37 209h36q71 0 109.5 45.5t56.5 136.5l33 180h-170l33 191h170l45 258q37 211 155.5 326.5t325.5 115.5q184 0 294 -95t110 -255q0 -31 -7 -78h-235q4 46 4 60q0 75 -45 115t-131 40q-102 0 -158 -59t-76 -172l-43 -256h426l-34 -191h-426
l-29 -155q-12 -61 -28 -95.5t-54 -62.5z" />
    <glyph glyph-name="yen.tnum" horiz-adv-x="1290" 
d="M313 635l25 129h180l-205 670h234l196 -670h58l430 670h252l-439 -670h179l-25 -129h-240l-90 -137h308l-23 -129h-324l-65 -369h-238l66 369h-324l23 129h309l-45 137h-242z" />
    <glyph glyph-name="uni20BD.tnum" horiz-adv-x="1290" 
d="M184 760h185l118 674h480q121 0 217 -44t154.5 -134t58.5 -212q0 -230 -155 -359.5t-415 -129.5h-258l-24 -137h436l-20 -129h-439l-49 -289h-237l51 289h-185l23 129h184l25 137h-184zM688 1231l-82 -471h246q136 0 220.5 69.5t84.5 204.5q0 94 -66 145.5t-165 51.5
h-238z" />
    <glyph glyph-name="uni20B4.tnum" horiz-adv-x="1290" 
d="M168 526l22 129h1129l-23 -129h-768q-41 -71 -41 -147q0 -90 65 -141.5t175 -51.5q109 0 182.5 50.5t102.5 146.5h241q-39 -192 -177 -301t-357 -109q-220 0 -344.5 112.5t-124.5 287.5q0 80 33 153h-115zM238 922h772q47 68 47 145q0 83 -58 132.5t-141 49.5
q-191 0 -256 -174h-235q33 175 164 281t333 106q198 0 314 -108.5t116 -272.5q0 -85 -39 -159h111l-25 -129h-1126z" />
    <glyph glyph-name="uni20B8.tnum" horiz-adv-x="1290" 
d="M313 1038l23 129h1032l-22 -129h-398l-182 -1038h-238l183 1038h-398zM360 1305l23 129h1032l-22 -129h-1033z" />
    <glyph glyph-name="cent.tnum" horiz-adv-x="1290" 
d="M958 334h232q-33 -162 -161 -261.5t-316 -99.5h-13l-24 -137h-111l27 150q-157 30 -254.5 148t-97.5 298q0 130 36 243.5t103 200.5t171 138t232 53l25 139h111l-27 -145q141 -20 233 -111.5t105 -224.5h-230q-11 56 -47.5 93.5t-95.5 47.5l-123 -698q83 1 142 46.5
t83 119.5zM471 442q0 -102 41 -169.5t115 -90.5l121 686q-87 -8 -151.5 -73.5t-95 -157.5t-30.5 -195z" />
    <glyph glyph-name="circumflex.cap" horiz-adv-x="806" 
d="M246 1571l266 264h211l174 -264h-186l-86 127h-50l-131 -127h-198z" />
    <glyph glyph-name="dieresis.cap" horiz-adv-x="749" 
d="M463 1626h-207l35 209h207zM850 1626h-205l35 209h205z" />
    <glyph glyph-name="acute.cap" horiz-adv-x="600" 
d="M737 1835l-276 -264h-215l229 264h262z" />
    <glyph glyph-name="grave.cap" horiz-adv-x="600" 
d="M483 1571l-186 264h252l137 -264h-203z" />
    <glyph glyph-name="ring.cap" horiz-adv-x="622" 
d="M498 1982q96 0 163.5 -67.5t67.5 -161.5t-67.5 -161.5t-163.5 -67.5q-95 0 -164.5 67.5t-69.5 161.5t69.5 161.5t164.5 67.5zM498 1642q47 0 78.5 32t31.5 79t-31.5 79t-78.5 32t-79 -32t-32 -79t32 -79t79 -32z" />
    <glyph glyph-name="caron.cap" horiz-adv-x="806" 
d="M467 1571l-176 264h188l86 -127h49l131 127h197l-264 -264h-211z" />
    <glyph glyph-name="dotaccent.cap" horiz-adv-x="393" 
d="M494 1626h-238l35 209h239z" />
    <glyph glyph-name="breve.cap" horiz-adv-x="735" 
d="M287 1835h149q-2 -16 -2 -27q0 -102 121 -102q132 0 164 129h149q-26 -128 -113.5 -196t-219.5 -68q-117 0 -184.5 56.5t-67.5 154.5q0 21 4 53z" />
    <glyph glyph-name="hungarumlaut.cap" horiz-adv-x="897" 
d="M676 1835l-242 -264h-188l194 264h236zM1024 1835l-242 -264h-186l195 264h233z" />
    <glyph glyph-name="tilde.cap" horiz-adv-x="854" 
d="M969 1835h118q-48 -266 -237 -266q-36 0 -69 12.5t-57 30.5t-46.5 36.5t-47 31t-48.5 12.5q-75 0 -99 -121h-121q48 266 238 266q45 0 86 -19t66.5 -41.5t57 -41.5t58.5 -19q76 0 101 119z" />
    <glyph glyph-name="macron.cap" horiz-adv-x="753" 
d="M858 1645h-598l25 147h598z" />
    <glyph glyph-name="cyrbreve" horiz-adv-x="888" 
d="M360 1477h179v-19q0 -62 37.5 -95.5t105.5 -33.5q77 0 125.5 40t62.5 108h183q-29 -143 -130.5 -223t-254.5 -80q-142 0 -226 69t-84 191q0 25 2 43z" />
    <glyph glyph-name="cyrbreve.cap" horiz-adv-x="899" 
d="M848 1851h190q-31 -149 -139 -232t-274 -83q-152 0 -242 70.5t-90 197.5q0 19 4 47h182q-2 -74 38 -113.5t124 -39.5t138.5 42t68.5 111z" />
    <glyph glyph-name="hyphen.case" horiz-adv-x="786" 
d="M803 645h-590l35 203h590z" />
    <glyph glyph-name="endash.case" horiz-adv-x="1267" 
d="M1288 653h-1079l33 187h1077z" />
    <glyph glyph-name="emdash.case" horiz-adv-x="1796" 
d="M1817 653h-1608l33 187h1605z" />
    <glyph glyph-name="emdash.ss02.case" horiz-adv-x="2957" 
d="M2978 653h-2769l31 187h2769z" />
    <glyph glyph-name="bracketleft.case" horiz-adv-x="718" 
d="M575 -190h-456l323 1843h459l-31 -176h-254l-264 -1491h256z" />
    <glyph glyph-name="bracketright.case" horiz-adv-x="718" 
d="M401 1653h457l-323 -1843h-459l30 176h254l265 1491h-256z" />
    <glyph glyph-name="braceleft.case" horiz-adv-x="837" 
d="M524 756l-8 -49q43 -14 67.5 -53.5t24.5 -100.5q0 -55 -8 -86l-47 -266q-10 -42 -10 -88q0 -69 37.5 -98t113.5 -29h72l-29 -176h-84q-149 0 -235 67.5t-86 194.5q0 60 10 102l45 262q10 58 10 86q0 58 -26.5 87.5t-85.5 29.5h-39l35 184h36q76 0 116.5 48t58.5 147
l51 299q59 336 409 336h109l-31 -176h-80q-91 0 -141 -49.5t-70 -159.5l-51 -299q-31 -175 -164 -213z" />
    <glyph glyph-name="braceright.case" horiz-adv-x="837" 
d="M586 707l8 49q-43 14 -67.5 53t-24.5 100q0 55 8 86l47 267q10 42 10 88q0 69 -37.5 98t-113.5 29h-72l29 176h84q149 0 235 -67.5t86 -194.5q0 -61 -10 -103l-45 -262q-10 -58 -10 -86q0 -58 26.5 -87.5t85.5 -29.5h39l-35 -184h-36q-76 0 -116.5 -48t-58.5 -147
l-51 -299q-59 -335 -409 -335h-109l31 176h80q91 0 141 49.5t70 159.5l51 299q31 175 164 213z" />
    <glyph glyph-name="parenleft.case" horiz-adv-x="655" 
d="M612 -190h-204q-195 295 -195 712q0 327 135 617t371 514h227q-123 -132 -212.5 -253.5t-163.5 -262.5t-112 -297.5t-38 -325.5q0 -361 192 -704z" />
    <glyph glyph-name="parenright.case" horiz-adv-x="655" 
d="M301 1653h205q194 -294 194 -713q0 -328 -134.5 -617t-370.5 -513h-228q123 132 212.5 253t164 262t112.5 297.5t38 325.5q0 360 -193 705z" />
    <glyph glyph-name="guillemotright.case" horiz-adv-x="1253" 
d="M1057 707l8 47l-277 356h242l250 -315l-25 -154l-352 -307h-256zM578 707l8 47l-277 356h242l250 -315l-25 -154l-352 -307h-256z" />
    <glyph glyph-name="guillemotleft.case" horiz-adv-x="1253" 
d="M449 737l-9 -47l277 -356h-242l-250 315l25 154l352 307h256zM930 737l-8 -47l276 -356h-242l-249 315l24 154l352 307h256z" />
    <glyph glyph-name="guilsinglright.case" horiz-adv-x="774" 
d="M578 707l8 47l-277 356h242l250 -315l-25 -154l-352 -307h-256z" />
    <glyph glyph-name="guilsinglleft.case" horiz-adv-x="774" 
d="M453 737l-9 -47l277 -356h-242l-250 315l25 154l352 307h256z" />
    <glyph glyph-name="exclamdown.case" horiz-adv-x="675" 
d="M446 0h-235l104 598l123 451h148l-37 -451zM453 1462h264l-47 -274h-267z" />
    <glyph glyph-name="questiondown.case" horiz-adv-x="1146" 
d="M627 -27q-199 0 -321 103.5t-122 261.5q0 63 16 118t41 96.5t67 82t83 69.5t98 64q93 57 131.5 102t55.5 125l10 54h234l-11 -56q-21 -124 -78.5 -197.5t-183.5 -150.5q-59 -37 -92.5 -62t-68 -60t-49.5 -74.5t-15 -88.5q0 -81 59 -131.5t160 -50.5q112 0 180.5 62.5
t85.5 179.5h234q-26 -201 -157 -324t-357 -123zM739 1462h262l-47 -274h-260z" />
    <glyph glyph-name="a.ss03" horiz-adv-x="1282" 
d="M188 432q0 94 21.5 185.5t65 173t104.5 143.5t145.5 98.5t182.5 36.5q100 0 182 -37.5t123 -105.5h49l22 116h224l-185 -1042h-223l19 102h-50q-44 -57 -117 -92t-167 -35q-185 0 -290.5 127.5t-105.5 329.5zM655 170q80 0 145.5 38.5t105.5 101t61.5 136.5t21.5 150
q0 130 -64 203t-180 73q-134 0 -227.5 -119t-93.5 -309q0 -127 58 -200.5t173 -73.5z" />
    <glyph glyph-name="aacute.ss03" horiz-adv-x="1280" 
d="M1210 1489l-284 -297h-211l233 297h262zM188 432q0 94 21.5 185.5t65 173t104.5 143.5t145.5 98.5t182.5 36.5q100 0 182 -37.5t123 -105.5h49l22 116h224l-185 -1042h-223l19 102h-50q-44 -57 -117 -92t-167 -35q-185 0 -290.5 127.5t-105.5 329.5zM655 170
q80 0 145.5 38.5t105.5 101t61.5 136.5t21.5 150q0 130 -64 203t-180 73q-134 0 -227.5 -119t-93.5 -309q0 -127 58 -200.5t173 -73.5z" />
    <glyph glyph-name="agrave.ss03" horiz-adv-x="1282" 
d="M784 1192l-178 297h250l127 -297h-199zM188 432q0 94 21.5 185.5t65 173t104.5 143.5t145.5 98.5t182.5 36.5q100 0 182 -37.5t123 -105.5h49l22 116h224l-185 -1042h-223l19 102h-50q-44 -57 -117 -92t-167 -35q-185 0 -290.5 127.5t-105.5 329.5zM655 170
q80 0 145.5 38.5t105.5 101t61.5 136.5t21.5 150q0 130 -64 203t-180 73q-134 0 -227.5 -119t-93.5 -309q0 -127 58 -200.5t173 -73.5z" />
    <glyph glyph-name="acircumflex.ss03" horiz-adv-x="1282" 
d="M188 432q0 94 21.5 185.5t65 173t104.5 143.5t145.5 98.5t182.5 36.5q100 0 182 -37.5t123 -105.5h49l22 116h224l-185 -1042h-223l19 102h-50q-44 -57 -117 -92t-167 -35q-185 0 -290.5 127.5t-105.5 329.5zM655 170q80 0 145.5 38.5t105.5 101t61.5 136.5t21.5 150
q0 130 -64 203t-180 73q-134 0 -227.5 -119t-93.5 -309q0 -127 58 -200.5t173 -73.5zM1014 1489l168 -297h-178l-89 154h-49l-145 -154h-191l277 297h207z" />
    <glyph glyph-name="adieresis.ss03" horiz-adv-x="1282" 
d="M188 432q0 94 21.5 185.5t65 173t104.5 143.5t145.5 98.5t182.5 36.5q100 0 182 -37.5t123 -105.5h49l22 116h224l-185 -1042h-223l19 102h-50q-44 -57 -117 -92t-167 -35q-185 0 -290.5 127.5t-105.5 329.5zM655 170q80 0 145.5 38.5t105.5 101t61.5 136.5t21.5 150
q0 130 -64 203t-180 73q-134 0 -227.5 -119t-93.5 -309q0 -127 58 -200.5t173 -73.5zM772 1266h-205l39 223h207zM1161 1266h-207l41 223h205z" />
    <glyph glyph-name="atilde.ss03" horiz-adv-x="1282" 
d="M1114 1479h123q-48 -279 -242 -279q-43 0 -83.5 20.5t-65.5 45t-55.5 45t-57.5 20.5q-73 0 -98 -131h-123q48 279 242 279q43 0 83.5 -20.5t65.5 -45t55.5 -45t57.5 -20.5q73 0 98 131zM188 432q0 94 21.5 185.5t65 173t104.5 143.5t145.5 98.5t182.5 36.5
q100 0 182 -37.5t123 -105.5h49l22 116h224l-185 -1042h-223l19 102h-50q-44 -57 -117 -92t-167 -35q-185 0 -290.5 127.5t-105.5 329.5zM655 170q80 0 145.5 38.5t105.5 101t61.5 136.5t21.5 150q0 130 -64 203t-180 73q-134 0 -227.5 -119t-93.5 -309q0 -127 58 -200.5
t173 -73.5z" />
    <glyph glyph-name="aring.ss03" horiz-adv-x="1282" 
d="M874 1634q97 0 164.5 -65.5t67.5 -163.5q0 -93 -68 -160t-164 -67q-95 0 -164 67.5t-69 159.5q0 97 68.5 163t164.5 66zM874 1296q47 0 79 31t32 78t-32 80t-79 33t-78.5 -32.5t-31.5 -80.5q0 -47 31.5 -78t78.5 -31zM188 432q0 94 21.5 185.5t65 173t104.5 143.5
t145.5 98.5t182.5 36.5q100 0 182 -37.5t123 -105.5h49l22 116h224l-185 -1042h-223l19 102h-50q-44 -57 -117 -92t-167 -35q-185 0 -290.5 127.5t-105.5 329.5zM655 170q80 0 145.5 38.5t105.5 101t61.5 136.5t21.5 150q0 130 -64 203t-180 73q-134 0 -227.5 -119
t-93.5 -309q0 -127 58 -200.5t173 -73.5z" />
    <glyph glyph-name="amacron.ss03" horiz-adv-x="1282" 
d="M188 432q0 94 21.5 185.5t65 173t104.5 143.5t145.5 98.5t182.5 36.5q100 0 182 -37.5t123 -105.5h49l22 116h224l-185 -1042h-223l19 102h-50q-44 -57 -117 -92t-167 -35q-185 0 -290.5 127.5t-105.5 329.5zM655 170q80 0 145.5 38.5t105.5 101t61.5 136.5t21.5 150
q0 130 -64 203t-180 73q-134 0 -227.5 -119t-93.5 -309q0 -127 58 -200.5t173 -73.5zM1165 1288h-598l25 154h598z" />
    <glyph glyph-name="abreve.ss03" horiz-adv-x="1282" 
d="M188 432q0 94 21.5 185.5t65 173t104.5 143.5t145.5 98.5t182.5 36.5q100 0 182 -37.5t123 -105.5h49l22 116h224l-185 -1042h-223l19 102h-50q-44 -57 -117 -92t-167 -35q-185 0 -290.5 127.5t-105.5 329.5zM655 170q80 0 145.5 38.5t105.5 101t61.5 136.5t21.5 150
q0 130 -64 203t-180 73q-134 0 -227.5 -119t-93.5 -309q0 -127 58 -200.5t173 -73.5zM1034 1489h148q-23 -142 -109 -219.5t-221 -77.5q-118 0 -188 59.5t-70 163.5q0 43 8 74h148q-5 -13 -5 -47q0 -53 32.5 -82t88.5 -29q136 0 168 158z" />
    <glyph glyph-name="aogonek.ss03" horiz-adv-x="1282" 
d="M188 432q0 94 21.5 185.5t65 173t104.5 143.5t145.5 98.5t182.5 36.5q100 0 182 -37.5t123 -105.5h49l22 116h224l-185 -1042q-159 -82 -159 -188q0 -76 120 -76l-26 -144q-23 -2 -60 -2q-116 0 -170.5 44.5t-54.5 121.5q0 80 53.5 143t137.5 101h-64l19 102h-50
q-44 -57 -117 -92t-167 -35q-185 0 -290.5 127.5t-105.5 329.5zM655 170q80 0 145.5 38.5t105.5 101t61.5 136.5t21.5 150q0 130 -64 203t-180 73q-134 0 -227.5 -119t-93.5 -309q0 -127 58 -200.5t173 -73.5z" />
    <glyph glyph-name="t.ss04" horiz-adv-x="747" 
d="M446 0h-229l148 846h-164l35 196h163l54 304h231l-53 -304h241l-34 -196h-242z" />
    <glyph glyph-name="tcaron.ss04" horiz-adv-x="845" 
d="M1001 1346h-118l41 227h254l-50 -273l-159 -157h-135l159 157zM446 0h-229l148 846h-164l35 196h163l54 304h231l-53 -304h241l-34 -196h-242z" />
    <glyph glyph-name="uni0163.ss04" horiz-adv-x="747" 
d="M446 0h-229l148 846h-164l35 196h163l54 304h231l-53 -304h241l-34 -196h-242zM252 -463h-139l147 125l6 41h-108l32 182h248l-41 -223z" />
    <glyph glyph-name="Y.ss05" horiz-adv-x="1355" 
d="M786 754h58l463 708h264l-957 -1462h-252l283 438l-356 1024h250z" />
    <glyph glyph-name="Yacute.ss05" horiz-adv-x="1355" 
d="M786 754h58l463 708h264l-957 -1462h-252l283 438l-356 1024h250zM1303 1835l-277 -264h-215l229 264h263z" />
    <glyph glyph-name="Ydieresis.ss05" horiz-adv-x="1355" 
d="M786 754h58l463 708h264l-957 -1462h-252l283 438l-356 1024h250zM897 1626h-207l35 209h207zM1284 1626h-205l35 209h205z" />
    <glyph glyph-name="ampersand.ss06" horiz-adv-x="1359" 
d="M1079 866h371l-35 -200h-137l-41 -222q-37 -216 -191.5 -343.5t-390.5 -127.5q-220 0 -354.5 112t-134.5 290q0 70 18 130.5t46.5 103.5t66.5 77t76 54t78 30l6 49q-127 80 -127 248q0 180 133 287.5t340 107.5q191 0 314.5 -96.5t135.5 -251.5h-233q-13 72 -72 110
t-147 38q-113 0 -176.5 -57t-63.5 -150q0 -85 54.5 -137t146.5 -52h100l-35 -200h-102q-151 0 -237.5 -68t-86.5 -195q0 -102 74 -162.5t199 -60.5q285 0 334 273z" />
    <glyph glyph-name="zero.ss07" horiz-adv-x="1304" 
d="M225 512q0 273 77.5 488t223.5 338.5t338 123.5q98 0 181.5 -33t148 -97t101 -169t36.5 -239q0 -273 -78 -488.5t-224 -339t-337 -123.5q-98 0 -181.5 33t-148 97.5t-101 169.5t-36.5 239zM465 506q0 -70 12 -123l535 801q-62 65 -158 65q-83 0 -150.5 -47t-111 -122.5
t-73 -174.5t-42 -199t-12.5 -200zM1092 930q0 48 -15 121l-532 -801q58 -64 157 -64q82 0 149.5 47t111 122.5t73.5 175t43 199.5t13 200z" />
    <glyph glyph-name="emdash.ss02" horiz-adv-x="2961" 
d="M2947 479h-2769l35 187h2769z" />
    <glyph glyph-name="uni0430.ss03" horiz-adv-x="1282" 
d="M188 432q0 94 21.5 185.5t65 173t104.5 143.5t145.5 98.5t182.5 36.5q100 0 182 -37.5t123 -105.5h49l22 116h224l-185 -1042h-223l19 102h-50q-44 -57 -117 -92t-167 -35q-185 0 -290.5 127.5t-105.5 329.5zM655 170q80 0 145.5 38.5t105.5 101t61.5 136.5t21.5 150
q0 130 -64 203t-180 73q-134 0 -227.5 -119t-93.5 -309q0 -127 58 -200.5t173 -73.5z" />
    <glyph glyph-name="uni0423.ss08" horiz-adv-x="1327" 
d="M246 0l41 238h61q76 0 127.5 27t97.5 95l56 84l-357 1018h250l248 -704h57l457 704h262l-737 -1134q-118 -181 -226.5 -254.5t-269.5 -73.5h-67z" />
    <glyph glyph-name="uni040E.ss08" horiz-adv-x="1327" 
d="M1139 1851h190q-31 -149 -139.5 -232t-274.5 -83q-152 0 -241.5 70.5t-89.5 197.5q0 19 4 47h182q-2 -74 38 -113.5t124 -39.5t138.5 42t68.5 111zM246 0l41 238h61q76 0 127.5 27t97.5 95l56 84l-357 1018h250l248 -704h57l457 704h262l-737 -1134
q-118 -181 -226.5 -254.5t-269.5 -73.5h-67z" />
    <glyph glyph-name="six.numr" horiz-adv-x="770" 
d="M627 1204q105 0 169 -64t64 -165q0 -136 -87.5 -221.5t-229.5 -85.5q-125 0 -205 75.5t-80 221.5q0 67 12.5 135.5t42 136.5t72 121t107.5 86t143 33q105 0 176 -59t78 -156h-156q-9 81 -108 81q-68 0 -120 -53t-69 -139h37q53 53 154 53zM553 803q70 0 108.5 44.5
t38.5 113.5q0 51 -34 82.5t-93 31.5q-71 0 -111 -42t-40 -111q0 -55 33.5 -87t97.5 -32z" />
    <glyph glyph-name="five.numr" horiz-adv-x="753" 
d="M856 1323h-371l-39 -143h41q46 39 129 39q102 0 165 -64.5t63 -169.5q0 -144 -90.5 -230.5t-227.5 -86.5q-136 0 -213 76t-77 186h155q4 -57 41 -88t98 -31q65 0 108.5 40.5t43.5 115.5q0 57 -32.5 88.5t-92.5 31.5q-86 0 -135 -61h-154l113 434h500z" />
    <glyph glyph-name="four.numr" horiz-adv-x="782" 
d="M780 987h101l-25 -137h-100l-29 -168h-156l29 168h-383l27 160l422 452h198zM408 987h219l51 291h-33l-231 -256z" />
    <glyph glyph-name="three.numr" horiz-adv-x="759" 
d="M854 1298l-172 -104l-6 -29q80 -20 120 -75.5t40 -135.5q0 -126 -89.5 -206t-230.5 -80q-130 0 -211.5 73t-81.5 191h156q4 -59 42.5 -90t100.5 -31q72 0 115 38.5t43 100.5q0 53 -36 83t-93 30q-45 0 -76 -8l25 143l149 92l6 33h-315l25 139h518z" />
    <glyph glyph-name="two.numr" horiz-adv-x="741" 
d="M813 821l-27 -139h-589l30 174l312 193q71 42 111 86.5t40 99.5q0 46 -32 72t-83 26q-119 0 -139 -123h-160q46 267 312 267q114 0 191 -62.5t77 -165.5q0 -43 -14.5 -82t-32.5 -65.5t-54 -56.5t-57.5 -45t-64.5 -42l-164 -102l-6 -35h350z" />
    <glyph glyph-name="quotedbl.ss01" horiz-adv-x="649" 
d="M334 969l86 493h69l-86 -493h-69zM586 969l86 493h69l-86 -493h-69z" />
    <glyph glyph-name="numbersign.ss01" horiz-adv-x="1128" 
d="M750 0l65 426h-326l-65 -426h-70l66 426h-213v63h225l70 455h-209v64h219l68 426h69l-69 -426h329l68 426h70l-68 -426h213v-64h-223l-72 -455h211v-63h-221l-66 -426h-71zM571 944l-71 -455h327l72 455h-328z" />
    <glyph glyph-name="quotesingle.ss01" horiz-adv-x="397" 
d="M334 969l86 493h69l-86 -493h-69z" />
    <glyph glyph-name="parenleft.ss01" horiz-adv-x="524" 
d="M682 1554h92q-241 -228 -372.5 -513.5t-131.5 -616.5q0 -192 44.5 -363t134.5 -350h-76q-172 328 -172 715q0 313 124.5 603.5t356.5 524.5z" />
    <glyph glyph-name="parenright.ss01" horiz-adv-x="524" 
d="M66 -289h-93q241 228 372.5 514t131.5 617q0 192 -44 363t-134 349h76q172 -328 172 -714q0 -313 -124.5 -604t-356.5 -525z" />
    <glyph glyph-name="bracketleft.ss01" horiz-adv-x="522" 
d="M354 -289h-241l323 1843h242l-10 -63h-172l-303 -1716h172z" />
    <glyph glyph-name="bracketright.ss01" horiz-adv-x="522" 
d="M389 1554h242l-324 -1843h-241l10 64h172l303 1716h-172z" />
    <glyph glyph-name="braceleft.ss01" horiz-adv-x="690" 
d="M395 651l-8 -37q51 -17 51 -98q0 -36 -10 -88l-78 -440q-6 -40 -6 -76q0 -73 38 -105t124 -32h61l-10 -64h-61q-222 0 -222 195q0 44 9 84l73 418q13 70 13 106q0 88 -74 88h-27l13 62h26q58 0 82.5 44t44.5 150l74 418q28 150 105 214t206 64h62l-11 -63h-61
q-104 0 -157 -50.5t-72 -162.5l-78 -440q-16 -88 -42 -130.5t-65 -56.5z" />
    <glyph glyph-name="braceright.ss01" horiz-adv-x="690" 
d="M516 614l8 37q-51 17 -51 99q0 36 10 88l78 440q6 40 6 76q0 73 -37.5 105t-123.5 32h-62l10 63h62q108 0 164.5 -46t56.5 -148q0 -48 -8 -84l-74 -418q-12 -65 -12 -106q0 -44 16.5 -66t56.5 -22h27l-12 -62h-27q-58 0 -82.5 -44t-44.5 -150l-74 -418
q-28 -150 -105 -214.5t-206 -64.5h-61l10 64h61q104 0 157.5 50.5t72.5 162.5l78 440q16 88 41.5 130t64.5 56z" />
    <glyph glyph-name="asterisk.ss01" horiz-adv-x="917" 
d="M1051 1145l-365 -103l172 -297l-63 -38l-158 301l-275 -301l-49 51l281 286l-328 111l27 70l323 -129l37 366h74l-51 -366l362 118z" />
    <glyph glyph-name="plus.ss01" horiz-adv-x="1386" 
d="M756 621v489h67v-489h490v-64h-490v-491h-67v491h-492v64h492z" />
    <glyph glyph-name="minus.ss01" horiz-adv-x="1384" 
d="M1311 557h-1047v64h1047v-64z" />
    <glyph glyph-name="less.ss01" horiz-adv-x="1370" 
d="M1296 166v-68l-1032 443v90l1032 442v-67l-929 -402v-37z" />
    <glyph glyph-name="equal.ss01" horiz-adv-x="1382" 
d="M1309 422v-64h-1045v64h1045zM1309 815v-63h-1045v63h1045z" />
    <glyph glyph-name="greater.ss01" horiz-adv-x="1370" 
d="M264 98v68l930 401v37l-930 402v67l1032 -442v-90z" />
    <glyph glyph-name="hyphen.ss01" horiz-adv-x="786" 
d="M784 541h-589l10 63h590z" />
    <glyph glyph-name="endash.ss01" horiz-adv-x="1267" 
d="M1268 541h-1080l13 63h1077z" />
    <glyph glyph-name="emdash.ss01" horiz-adv-x="1796" 
d="M1796 541h-1608l13 63h1605z" />
    <glyph glyph-name="emdash.ss01.ss02" horiz-adv-x="2961" 
d="M2957 541h-2767l13 63h2767z" />
    <glyph glyph-name="underscore.ss01" horiz-adv-x="1040" 
d="M999 -246h-1044l12 64h1045z" />
    <glyph glyph-name="slash.ss01" horiz-adv-x="743" 
d="M20 -289h-71l940 1843h67z" />
    <glyph glyph-name="bar.ss01" horiz-adv-x="438" 
d="M133 -289l324 1843h69l-323 -1843h-70z" />
    <glyph glyph-name="backslash.ss01" horiz-adv-x="747" 
d="M696 -289h-69l-289 1843h63z" />
    <glyph glyph-name="degree.ss01" horiz-adv-x="944" 
d="M268 1071q0 174 111.5 290t277.5 116t279 -116t113 -290q0 -173 -113 -288t-279 -115t-277.5 115t-111.5 288zM338 1071q0 -146 90 -243t229 -97q140 0 231 97t91 243q0 148 -90.5 245t-231.5 97q-139 0 -229 -97t-90 -245z" />
    <glyph glyph-name="guillemotleft.ss01" horiz-adv-x="987" 
d="M295 604l-6 -37l291 -368h-84l-285 354l14 80l391 342h97zM633 604l-6 -37l291 -368h-84l-285 354l14 80l391 342h97z" />
    <glyph glyph-name="guillemotright.ss01" horiz-adv-x="987" 
d="M915 584l7 37l-281 354h84l274 -340l-14 -80l-407 -356h-97zM578 584l6 37l-281 354h84l275 -340l-15 -80l-407 -356h-97z" />
    <glyph glyph-name="guilsinglleft.ss01" horiz-adv-x="649" 
d="M295 604l-6 -37l291 -368h-84l-285 354l14 80l391 342h97z" />
    <glyph glyph-name="guilsinglright.ss01" horiz-adv-x="649" 
d="M578 584l6 37l-281 354h84l275 -340l-15 -80l-407 -356h-97z" />
    <glyph glyph-name="quoteleft.ss01" horiz-adv-x="458" 
d="M436 1249h68l-37 -209h-131l43 244l131 178h63l-131 -178z" />
    <glyph glyph-name="quoteright.ss01" horiz-adv-x="458" 
d="M438 1253h-67l37 209h131l-43 -243l-131 -179h-64l131 179z" />
    <glyph glyph-name="quotesinglbase.ss01" horiz-adv-x="458" 
d="M231 0h-67l37 209h131l-43 -244l-131 -178h-64l131 178z" />
    <glyph glyph-name="quotedblleft.ss01" horiz-adv-x="735" 
d="M713 1249h67l-37 -209h-131l43 244l131 178h64l-131 -178zM432 1249h68l-37 -209h-131l43 244l131 178h63l-131 -178z" />
    <glyph glyph-name="quotedblright.ss01" horiz-adv-x="739" 
d="M438 1253h-67l37 209h131l-43 -243l-131 -179h-64l131 179zM719 1253h-68l37 209h131l-43 -243l-131 -179h-63l131 179z" />
    <glyph glyph-name="quotedblbase.ss01" horiz-adv-x="739" 
d="M231 0h-67l37 209h131l-43 -244l-131 -178h-64l131 178zM512 0h-68l37 209h131l-43 -244l-131 -178h-63l131 178z" />
    <glyph glyph-name="arrowleft.ss01" horiz-adv-x="1667" 
d="M688 1042h94l-446 -448v-41h1292v-64h-1292v-43l446 -446h-94l-522 520z" />
    <glyph glyph-name="arrowup.ss01" horiz-adv-x="1380" 
d="M1333 940v-94l-446 450h-39v-1296h-70v1296h-39l-448 -452v94l522 524z" />
    <glyph glyph-name="arrowright.ss01" horiz-adv-x="1667" 
d="M1044 1042h95l522 -522l-522 -520h-95l447 446v43h-1292v64h1292v41z" />
    <glyph glyph-name="arrowdown.ss01" horiz-adv-x="1380" 
d="M1333 616v-94l-520 -522l-522 524v94l448 -452h39v1296h70v-1296h39z" />
    <glyph glyph-name="uni2196.ss01" horiz-adv-x="1396" 
d="M1075 1462l66 -65h-633l-27 -29l912 -915l-47 -47l-916 913l-27 -29v-635l-67 68v739h739z" />
    <glyph glyph-name="uni2197.ss01" horiz-adv-x="1396" 
d="M518 1397l66 65h739v-739l-68 -68v635l-26 29l-916 -913l-47 47l912 915l-27 29h-633z" />
    <glyph glyph-name="uni2198.ss01" horiz-adv-x="1396" 
d="M1114 66l-65 -66h-740v739l68 68v-635l26 -29l916 914l47 -47l-911 -916l26 -28h633z" />
    <glyph glyph-name="uni2199.ss01" horiz-adv-x="1396" 
d="M567 0l-65 66h633l26 28l-911 916l47 47l915 -914l27 29v635l68 -68v-739h-740z" />
    <glyph glyph-name="parenleft.ss01.case" horiz-adv-x="524" 
d="M713 1653h92q-241 -228 -372.5 -514t-131.5 -617q0 -192 44 -363t134 -349h-76q-172 328 -172 714q0 313 125 604t357 525z" />
    <glyph glyph-name="parenright.ss01.case" horiz-adv-x="526" 
d="M96 -190h-92q241 228 372.5 513.5t131.5 616.5q0 192 -44.5 363.5t-133.5 349.5h76q172 -328 172 -715q0 -312 -124.5 -603t-357.5 -525z" />
    <glyph glyph-name="bracketleft.ss01.case" horiz-adv-x="522" 
d="M371 -190h-242l324 1843h241l-10 -64h-172l-303 -1716h172z" />
    <glyph glyph-name="bracketright.ss01.case" horiz-adv-x="522" 
d="M406 1653h241l-323 -1843h-242l10 63h172l303 1716h-172z" />
    <glyph glyph-name="braceleft.ss01.case" horiz-adv-x="690" 
d="M412 750l-9 -37q52 -18 52 -99q0 -31 -11 -88l-77 -440q-7 -47 -7 -76q0 -73 38 -105t124 -32h62l-11 -63h-61q-108 0 -164.5 46t-56.5 148q0 48 8 84l74 418q12 64 12 106q0 88 -74 88h-26l12 62h27q58 0 82.5 44t44.5 150l73 418q28 150 105.5 214.5t206.5 64.5h61
l-10 -64h-62q-104 0 -157 -50.5t-72 -162.5l-78 -440q-16 -88 -41.5 -130t-64.5 -56z" />
    <glyph glyph-name="braceright.ss01.case" horiz-adv-x="690" 
d="M535 713l8 37q-51 17 -51 98q0 36 10 88l78 440q6 40 6 76q0 73 -38 105t-124 32h-62l11 64h61q108 0 164.5 -46.5t56.5 -148.5q0 -48 -8 -84l-74 -418q-12 -64 -12 -106q0 -88 74 -88h27l-13 -62h-26q-58 0 -82.5 -44t-44.5 -150l-74 -418q-28 -150 -105 -214t-206 -64
h-62l10 63h62q104 0 157 50.5t72 162.5l78 440q16 88 42 130.5t65 56.5z" />
    <glyph glyph-name="guillemotleft.ss01.case" horiz-adv-x="987" 
d="M319 739l-6 -37l291 -368h-84l-284 354l14 80l391 342h96zM657 739l-6 -37l291 -368h-84l-285 354l15 80l391 342h96z" />
    <glyph glyph-name="guillemotright.ss01.case" horiz-adv-x="987" 
d="M940 719l6 37l-280 354h84l274 -340l-14 -80l-408 -356h-96zM602 719l6 37l-280 354h84l274 -340l-14 -80l-408 -356h-96z" />
    <glyph glyph-name="guilsinglleft.ss01.case" horiz-adv-x="649" 
d="M319 739l-6 -37l291 -368h-84l-284 354l14 80l391 342h96z" />
    <glyph glyph-name="guilsinglright.ss01.case" horiz-adv-x="649" 
d="M602 719l6 37l-280 354h84l274 -340l-14 -80l-408 -356h-96z" />
    <glyph glyph-name="endash.ss01.case" horiz-adv-x="1267" 
d="M1303 715h-1080l13 63h1077z" />
    <glyph glyph-name="hyphen.ss01.case" horiz-adv-x="786" 
d="M815 715h-590l11 63h589z" />
    <glyph glyph-name="emdash.ss01.case" horiz-adv-x="1796" 
d="M1831 715h-1608l13 63h1605z" />
    <glyph glyph-name="emdash.ss01.ss02.case" horiz-adv-x="2961" 
d="M2990 715h-2767l13 63h2766z" />
    <glyph glyph-name="one.numr" horiz-adv-x="681" 
d="M573 821h183l-25 -139h-530l24 139h189l82 465h-37l-166 -90l24 154l211 112h160z" />
    <glyph glyph-name="zero.numr" horiz-adv-x="792" 
d="M633 1477q122 0 198 -76.5t76 -222.5q0 -223 -102 -366.5t-270 -143.5q-123 0 -200 75t-77 222q0 223 103.5 367.5t271.5 144.5zM543 811q52 0 93 34.5t63.5 90.5t34 117.5t11.5 124.5q0 76 -32 115.5t-88 39.5q-54 0 -96 -35t-65 -91t-34.5 -118t-11.5 -124
q0 -74 33.5 -114t91.5 -40z" />
    <glyph glyph-name="four.dnom" horiz-adv-x="782" 
d="M659 305h101l-25 -137h-100l-29 -168h-155l28 168h-383l27 160l422 452h198zM287 305h219l51 291h-33l-231 -256z" />
    </font>
</defs>
</svg>
