<?xml version="1.0" standalone="no"?>
<!DOCTYPE svg PUBLIC "-//W3C//DTD SVG 1.1//EN" "http://www.w3.org/Graphics/SVG/1.1/DTD/svg11.dtd" >
<svg xmlns="http://www.w3.org/2000/svg" xmlns:xlink="http://www.w3.org/1999/xlink" version="1.1">
<metadata>
Created by FontForge 20170731 at Tue Sep 29 09:29:08 2020
 By Aleksey,,,
Copyright (c) 2014 by Vyacheslav Kirilenko, Gayane Bagdasaryan. All rights reserved.
</metadata>
<defs>
<font id="Formular-Bold" horiz-adv-x="1314" >
  <font-face 
    font-family="Formular"
    font-weight="700"
    font-stretch="normal"
    units-per-em="2048"
    panose-1="2 0 0 0 0 0 0 0 0 0"
    ascent="1638"
    descent="-410"
    x-height="1053"
    cap-height="1462"
    bbox="-287 -475 2867 2003"
    underline-thickness="102"
    underline-position="-307"
    unicode-range="U+000D-FEFF"
  />
<missing-glyph horiz-adv-x="1058" 
d="M106 0v1462h844v-1462h-844zM258 137h545v1188h-545v-1188z" />
    <glyph glyph-name="fi" unicode="fi" horiz-adv-x="1390" 
d="M754 813h-265v-813h-286v813h-154v240h154v75q0 96 31 166.5t88 112.5t130.5 62t165.5 20h136v-240h-131q-70 0 -102 -37.5t-32 -97.5v-61h265v-240zM1239 1233h-291v256h291v-256zM1237 1053v-1053h-287v1053h287z" />
    <glyph glyph-name="fl" unicode="fl" horiz-adv-x="1388" 
d="M754 813h-265v-813h-286v813h-154v240h154v75q0 96 31 166.5t88 112.5t130.5 62t165.5 20h136v-240h-131q-70 0 -102 -37.5t-32 -97.5v-61h265v-240zM950 1489h287v-1489h-287v1489z" />
    <glyph glyph-name=".notdef" horiz-adv-x="1058" 
d="M106 0v1462h844v-1462h-844zM258 137h545v1188h-545v-1188z" />
    <glyph glyph-name=".null" horiz-adv-x="0" 
 />
    <glyph glyph-name="nonmarkingreturn" horiz-adv-x="682" 
 />
    <glyph glyph-name="NULL" horiz-adv-x="0" 
 />
    <glyph glyph-name="NULL" horiz-adv-x="0" 
 />
    <glyph glyph-name="CR" unicode="&#xd;" horiz-adv-x="569" 
 />
    <glyph glyph-name="space" unicode=" " horiz-adv-x="569" 
 />
    <glyph glyph-name="exclam" unicode="!" horiz-adv-x="706" 
d="M209 1462h289v-594l-54 -428h-182l-53 428v594zM510 0h-313v311h313v-311z" />
    <glyph glyph-name="quotedbl" unicode="&#x22;" horiz-adv-x="960" 
d="M147 874v588h261v-588h-261zM553 874v588h260v-588h-260z" />
    <glyph glyph-name="numbersign" unicode="#" horiz-adv-x="1312" 
d="M129 1065h244l59 369h221l-57 -369h231l60 369h221l-57 -369h198v-217h-233l-41 -262h207v-217h-240l-59 -369h-226l60 369h-232l-57 -369h-225l57 369h-197v217h232l43 262h-209v217zM561 848l-41 -262h232l41 262h-232z" />
    <glyph glyph-name="dollar" unicode="$" horiz-adv-x="1337" 
d="M733 858l98 -18q183 -35 289.5 -136t106.5 -280t-130 -306.5t-366 -144.5v-174h-135v176q-228 18 -355 140.5t-151 330.5h291q17 -93 74.5 -147.5t140.5 -67.5v394l-98 20q-179 37 -271 134.5t-92 252.5q0 171 123 292t338 138v172h137v-176q190 -20 312.5 -132.5
t144.5 -287.5h-289q-12 67 -56.5 111.5t-111.5 54.5v-346zM762 594l-29 6v-373q89 5 145 54.5t56 126.5q0 148 -172 186zM428 1044q0 -68 40 -105t128 -56v325q-74 -6 -121 -51t-47 -113z" />
    <glyph glyph-name="percent" unicode="%" horiz-adv-x="1802" 
d="M416 1462q166 0 254 -107.5t88 -279.5t-88 -279.5t-254 -107.5q-165 0 -251.5 107.5t-86.5 279.5t86.5 279.5t251.5 107.5zM416 856q76 0 113.5 58.5t37.5 160.5q0 99 -37.5 159t-113.5 60q-75 0 -112.5 -60t-37.5 -159q0 -101 37.5 -160t112.5 -59zM1384 748
q164 0 252 -108t88 -280t-88 -279.5t-252 -107.5q-166 0 -254 107.5t-88 279.5t88.5 280t253.5 108zM1384 141q75 0 113.5 59t38.5 160q0 99 -38.5 159.5t-113.5 60.5q-76 0 -113.5 -60.5t-37.5 -159.5q0 -102 37.5 -160.5t113.5 -58.5zM573 0h-208l868 1434h207z" />
    <glyph glyph-name="ampersand" unicode="&#x26;" horiz-adv-x="1570" 
d="M1094 725h276q-36 -235 -160 -412l310 -313h-346l-111 113h-53q-179 -140 -404 -140q-227 0 -363.5 113.5t-136.5 314.5q0 233 242 385v54q-64 78 -92.5 138t-28.5 144q0 150 104 245t279 95q176 0 292 -91.5t116 -246.5q0 -106 -62 -183t-196 -173l258 -268
q60 97 76 225zM623 219q136 0 237 94l-311 320l-47 -33q-111 -76 -111 -190q0 -88 63 -139.5t169 -51.5zM618 1247q-61 0 -99 -34.5t-38 -94.5q0 -22 6.5 -43.5t13.5 -36t24 -35.5t24.5 -29t29.5 -29.5t25 -24.5q12 10 39.5 31t39 30.5t30.5 28t27 33t15 35t7 42.5
q0 59 -40.5 93t-103.5 34z" />
    <glyph glyph-name="quotesingle" unicode="'" horiz-adv-x="555" 
d="M147 874v588h261v-588h-261z" />
    <glyph glyph-name="parenleft" unicode="(" horiz-adv-x="665" 
d="M338 637q0 -149 27 -288t76.5 -255.5t100 -204.5t115.5 -178h-249q-318 383 -318 926q0 529 311 917h250q-49 -69 -89.5 -135.5t-83.5 -158t-72.5 -183t-48.5 -206.5t-19 -234z" />
    <glyph glyph-name="parenright" unicode=")" horiz-adv-x="665" 
d="M328 637q0 147 -27 285t-76 253.5t-98.5 202.5t-112.5 176h250q311 -388 311 -917q0 -544 -317 -926h-250q65 90 115.5 178t100 204.5t77 255.5t27.5 288z" />
    <glyph glyph-name="asterisk" unicode="*" horiz-adv-x="1015" 
d="M410 1462h198l-14 -325l307 114l64 -190l-316 -90l203 -256l-162 -119l-184 270l-180 -270l-160 119l201 256l-314 90l62 190l305 -114z" />
    <glyph glyph-name="plus" unicode="+" horiz-adv-x="1378" 
d="M567 715v403h242v-403h408v-244h-408v-405h-242v405h-405v244h405z" />
    <glyph glyph-name="comma" unicode="," horiz-adv-x="600" 
d="M281 0h-140v311h316v-362l-158 -240h-174l156 240v51z" />
    <glyph glyph-name="hyphen" unicode="-" horiz-adv-x="813" 
d="M717 455h-621v247h621v-247z" />
    <glyph glyph-name="period" unicode="." horiz-adv-x="600" 
d="M457 0h-316v311h316v-311z" />
    <glyph glyph-name="slash" unicode="/" horiz-adv-x="899" 
d="M236 -289h-240l618 1843h234z" />
    <glyph glyph-name="zero" unicode="0" horiz-adv-x="1323" 
d="M662 1462q122 0 222 -44t177 -132t119.5 -233t42.5 -336q0 -190 -42.5 -335t-119.5 -233t-177 -132t-222 -44t-222 44t-177 132t-120 233t-43 335q0 153 28 277.5t78.5 210.5t121 144.5t154 85.5t180.5 27zM662 236q63 0 111 28.5t76.5 74t47 110.5t25 129.5t6.5 138.5
q0 75 -6.5 139.5t-25 129.5t-47 111t-76.5 74.5t-111 28.5q-62 0 -110 -28.5t-76.5 -74.5t-47 -111t-25 -129.5t-6.5 -139.5q0 -74 6.5 -138.5t25 -129t47 -110.5t76.5 -74.5t110 -28.5z" />
    <glyph glyph-name="one" unicode="1" horiz-adv-x="1089" 
d="M109 0v256h323v883h-51l-275 -187v293l275 189h346v-1178h295v-256h-913z" />
    <glyph glyph-name="two" unicode="2" horiz-adv-x="1243" 
d="M395 1001h-295q12 222 151.5 341.5t373.5 119.5q222 0 359.5 -122t137.5 -339q0 -252 -266 -458l-301 -234v-53h606v-256h-1059v307l492 367q49 35 85.5 66.5t72 72t54.5 87t19 95.5q0 101 -56.5 153t-152.5 52q-94 0 -152.5 -49t-68.5 -150z" />
    <glyph glyph-name="three" unicode="3" horiz-adv-x="1236" 
d="M150 1434h921v-301l-274 -203v-56q153 -13 252.5 -120t99.5 -291q0 -224 -152 -357t-395 -133q-238 0 -389 131.5t-156 331.5h295q12 -97 78.5 -148.5t171.5 -51.5q116 0 184 62t68 167q0 108 -65.5 171.5t-186.5 63.5q-82 0 -131 -14v244l274 203v53h-595v248z" />
    <glyph glyph-name="four" unicode="4" horiz-adv-x="1298" 
d="M1040 563h179v-256h-179v-307h-284v307h-682v309l626 818h340v-871zM350 563h416v539h-53l-363 -486v-53z" />
    <glyph glyph-name="five" unicode="5" horiz-adv-x="1277" 
d="M723 977q199 0 329 -134.5t130 -348.5q0 -231 -150 -376t-381 -145q-245 0 -389 129t-156 334h295q12 -98 73.5 -149t166.5 -51q115 0 180.5 68.5t65.5 184.5q0 124 -67 190t-177 66q-148 0 -227 -106h-275l64 795h885v-248h-656l-22 -293h53q35 26 62.5 41.5t79.5 29
t116 13.5z" />
    <glyph glyph-name="six" unicode="6" horiz-adv-x="1273" 
d="M735 952q196 0 329.5 -132.5t133.5 -338.5q0 -140 -63.5 -255t-184.5 -184t-278 -69q-127 0 -228.5 39t-180 121.5t-121 223.5t-42.5 333q0 170 35 309t104.5 243.5t182 162t258.5 57.5q192 0 326 -109t155 -270h-293q-39 136 -194 136q-127 0 -204 -96t-87 -283h53
q99 112 299 112zM666 219q107 0 171 66t64 186t-64.5 184t-172.5 64t-173 -63.5t-65 -182.5q0 -120 66.5 -187t173.5 -67z" />
    <glyph glyph-name="seven" unicode="7" horiz-adv-x="1173" 
d="M1075 1126l-573 -1126h-307l575 1126v52h-674v256h979v-308z" />
    <glyph glyph-name="eight" unicode="8" horiz-adv-x="1294" 
d="M987 786v-53q38 -16 73 -42.5t67.5 -66t52.5 -97t20 -124.5q0 -87 -36.5 -164.5t-104.5 -137t-174.5 -94t-237.5 -34.5t-237.5 34.5t-174.5 94t-104.5 137t-36.5 164.5q0 67 20 124.5t52.5 97t67.5 66t73 42.5v53q-68 36 -117 107.5t-49 183.5q0 166 137 275.5t369 109.5
t369 -109.5t137 -275.5q0 -58 -15.5 -108t-41.5 -85t-53 -59t-56 -39zM647 1235q-98 0 -159.5 -53.5t-61.5 -134.5q0 -85 61 -138t160 -53q102 0 161.5 52.5t59.5 138.5q0 81 -60 134.5t-161 53.5zM647 219q124 0 192 60.5t68 152.5q0 91 -68 152t-192 61q-125 0 -192.5 -61
t-67.5 -152q0 -93 67.5 -153t192.5 -60z" />
    <glyph glyph-name="nine" unicode="9" horiz-adv-x="1273" 
d="M539 483q-196 0 -329.5 132.5t-133.5 338.5q0 140 63.5 255t184.5 184t278 69q127 0 228.5 -39t180 -121.5t121 -223.5t42.5 -333q0 -170 -35 -309t-104.5 -243.5t-182 -162t-258.5 -57.5q-192 0 -326 109t-155 270h293q39 -135 194 -135q127 0 204 96t87 283h-53
q-100 -113 -299 -113zM608 1217q-107 0 -171 -66t-64 -186t64.5 -184t172.5 -64t173 63.5t65 182.5q0 120 -66.5 187t-173.5 67z" />
    <glyph glyph-name="colon" unicode=":" horiz-adv-x="600" 
d="M457 0h-316v311h316v-311zM457 741h-316v312h316v-312z" />
    <glyph glyph-name="semicolon" unicode=";" horiz-adv-x="600" 
d="M281 0h-140v311h316v-362l-158 -240h-174l156 240v51zM457 741h-316v312h316v-312z" />
    <glyph glyph-name="less" unicode="&#x3c;" horiz-adv-x="1355" 
d="M1194 281v-252l-1032 465v196l1032 465v-252l-645 -285v-53z" />
    <glyph glyph-name="equal" unicode="=" horiz-adv-x="1376" 
d="M1214 502v-244h-1052v244h1052zM1214 926v-244h-1052v244h1052z" />
    <glyph glyph-name="greater" unicode="&#x3e;" horiz-adv-x="1355" 
d="M162 29v252l643 284v53l-643 285v252l1032 -465v-196z" />
    <glyph glyph-name="question" unicode="?" horiz-adv-x="1183" 
d="M573 1489q123 0 220 -33t158 -91t92.5 -134.5t31.5 -167.5q0 -72 -18 -129.5t-56.5 -103.5t-75.5 -76.5t-98 -71.5q-77 -53 -104 -89t-27 -99v-54h-293v54q0 117 44 187t157 153q10 8 40 29.5t39 28.5t30.5 25.5t28.5 30t18 30.5t14.5 39t3.5 44q0 76 -51 125t-145 49
q-103 0 -157 -51t-58 -164h-293q2 99 34.5 183t93 148.5t156 101t215.5 36.5zM705 0h-314v311h314v-311z" />
    <glyph glyph-name="at" unicode="@" horiz-adv-x="1998" 
d="M1409 -125l59 -108q-239 -156 -540 -156q-249 0 -436.5 103t-287.5 288.5t-100 427.5q0 209 70 392t195 315t306.5 208t395.5 76q166 0 315 -52t262 -146.5t179.5 -238t66.5 -314.5q0 -126 -30 -235t-87 -191t-145.5 -129t-199.5 -47q-203 0 -258 125h-39
q-93 -125 -261 -125q-155 0 -242 99t-87 273q0 136 53 252t154 188t229 72q76 0 129 -28t76 -68h39l16 68h229l-86 -521q-10 -80 -10 -92q0 -58 28.5 -83t84.5 -25q48 0 94 26.5t86 80t64 147t24 213.5q0 137 -49 253t-138.5 199t-221.5 129.5t-291 46.5q-172 0 -321 -62
t-257.5 -173.5t-170.5 -274.5t-62 -356q0 -110 25 -211t79.5 -190.5t134.5 -155t196.5 -103.5t258.5 -38q256 0 471 141zM942 252q98 0 160.5 93.5t62.5 227.5q0 197 -149 197q-99 0 -160 -95.5t-61 -225.5q0 -99 39 -148t108 -49z" />
    <glyph glyph-name="A" unicode="A" horiz-adv-x="1478" 
d="M1133 0l-119 395h-557l-119 -395h-301l465 1462h473l467 -1462h-309zM688 1169l-153 -507h397l-154 507h-90z" />
    <glyph glyph-name="B" unicode="B" horiz-adv-x="1482" 
d="M1188 786v-53q82 -37 136 -120.5t54 -188.5q0 -192 -127 -308t-377 -116h-704v1462h686q117 0 210.5 -31t151.5 -84.5t88.5 -122.5t30.5 -149q0 -98 -40 -175t-109 -114zM475 883h344q205 0 205 164q0 161 -207 161h-342v-325zM475 260h354q236 0 236 180q0 187 -231 187
h-359v-367z" />
    <glyph glyph-name="C" unicode="C" horiz-adv-x="1509" 
d="M1094 467h317q-33 -223 -195.5 -358.5t-414.5 -135.5q-219 0 -378.5 96t-241 266.5t-81.5 395.5t82 395.5t241.5 266.5t377.5 96q239 0 399 -124.5t197 -328.5h-320q-52 181 -276 181q-96 0 -170.5 -37.5t-121.5 -104.5t-71 -154t-24 -190q0 -139 41 -246t130 -173
t216 -66q118 0 194 58t99 163z" />
    <glyph glyph-name="D" unicode="D" horiz-adv-x="1558" 
d="M170 1462h610q329 0 503.5 -196.5t174.5 -534.5q0 -221 -75 -384t-229 -255t-374 -92h-610v1462zM475 272h266q107 0 187 35.5t126.5 99.5t68.5 144.5t22 179.5t-22 179.5t-68.5 144.5t-126.5 99.5t-187 35.5h-266v-918z" />
    <glyph glyph-name="E" unicode="E" horiz-adv-x="1363" 
d="M475 272h799v-272h-1104v1462h1081v-272h-776v-307h604v-267h-604v-344z" />
    <glyph glyph-name="F" unicode="F" horiz-adv-x="1331" 
d="M1249 1190h-774v-336h610v-266h-610v-588h-305v1462h1079v-272z" />
    <glyph glyph-name="G" unicode="G" horiz-adv-x="1558" 
d="M797 813h651v-172q0 -105 -22 -200.5t-72 -181.5t-123 -149t-181.5 -100t-242.5 -37q-224 0 -385.5 98t-241.5 267.5t-80 392.5q0 222 80.5 391.5t242.5 268t386 98.5q246 0 402 -119.5t198 -325.5h-317q-52 173 -285 173q-190 0 -291.5 -134t-101.5 -352t102 -352.5
t293 -134.5q162 0 245.5 86.5t88.5 232.5h-346v250z" />
    <glyph glyph-name="H" unicode="H" horiz-adv-x="1595" 
d="M1122 1462h305v-1462h-305v612h-647v-612h-305v1462h305v-569h647v569z" />
    <glyph glyph-name="I" unicode="I" horiz-adv-x="663" 
d="M180 1462h305v-1462h-305v1462z" />
    <glyph glyph-name="J" unicode="J" horiz-adv-x="1236" 
d="M573 -27q-149 0 -262.5 56t-180 168t-71.5 268h303q15 -219 209 -219q94 0 144.5 63t50.5 185v968h305v-970q0 -245 -132 -382t-366 -137z" />
    <glyph glyph-name="K" unicode="K" horiz-adv-x="1542" 
d="M170 0v1462h305v-604l598 604h357l-439 -458l508 -1004h-336l-370 735h-54l-264 -264v-471h-305z" />
    <glyph glyph-name="L" unicode="L" horiz-adv-x="1333" 
d="M475 279h774v-279h-1079v1462h305v-1183z" />
    <glyph glyph-name="M" unicode="M" horiz-adv-x="1808" 
d="M170 0v1462h469l240 -590h53l237 590h471v-1462h-284v1090h-53l-246 -590h-305l-244 590h-53v-1090h-285z" />
    <glyph glyph-name="N" unicode="N" horiz-adv-x="1601" 
d="M1155 1462h279v-1462h-396l-536 991h-53v-991h-279v1462h395l537 -991h53v991z" />
    <glyph glyph-name="O" unicode="O" horiz-adv-x="1626" 
d="M813 1489q170 0 306.5 -58t225 -160t135 -240t46.5 -300t-46.5 -300t-135 -240t-225 -160t-306.5 -58t-306.5 58t-225 160t-135 240t-46.5 300t46.5 300t135 240t225 160t306.5 58zM813 246q100 0 177.5 37.5t125 104t72 153.5t24.5 190t-24.5 190t-72 154t-125 104.5
t-177.5 37.5q-131 0 -222.5 -66t-134 -173.5t-42.5 -246.5t42.5 -246t134 -173t222.5 -66z" />
    <glyph glyph-name="P" unicode="P" horiz-adv-x="1464" 
d="M170 1462h668q251 0 389.5 -122.5t138.5 -342.5q0 -223 -138.5 -348t-389.5 -125h-363v-524h-305v1462zM475 793h320q137 0 197.5 50t60.5 150q0 101 -60.5 151t-197.5 50h-320v-401z" />
    <glyph glyph-name="Q" unicode="Q" horiz-adv-x="1626" 
d="M813 1489q170 0 306.5 -58t225 -160t135 -240t46.5 -300q0 -361 -215 -573l186 -316h-276l-109 187q-141 -56 -299 -56q-170 0 -306.5 58t-225 160t-135 240t-46.5 300t46.5 300t135 240t225 160t306.5 58zM813 246q82 0 158 28l-232 402h267l141 -240q65 127 65 295
q0 103 -24.5 190t-72 154t-125 104.5t-177.5 37.5q-131 0 -222.5 -66t-134 -173.5t-42.5 -246.5t42.5 -246t134 -173t222.5 -66z" />
    <glyph glyph-name="R" unicode="R" horiz-adv-x="1486" 
d="M170 1462h688q244 0 379 -119.5t135 -334.5q0 -136 -56 -236t-161 -156l219 -616h-307l-197 551h-395v-551h-305v1462zM475 1194v-383h340q131 0 188.5 48.5t57.5 144.5q0 103 -62.5 146.5t-214.5 43.5h-309z" />
    <glyph glyph-name="S" unicode="S" horiz-adv-x="1413" 
d="M1268 1061h-312q-20 87 -84.5 126.5t-181.5 39.5q-104 0 -171.5 -42t-67.5 -124q0 -67 48.5 -101t133.5 -49l272 -49q398 -75 398 -428q0 -93 -36.5 -175t-107 -146.5t-185 -102t-259.5 -37.5q-275 0 -438 126.5t-187 346.5h311q35 -210 326 -210q123 0 195.5 48.5
t72.5 135.5q0 82 -49.5 122.5t-148.5 59.5l-279 49q-184 32 -279.5 133.5t-95.5 266.5q0 91 37 170t105.5 139t174 94.5t234.5 34.5q240 0 394.5 -115t179.5 -313z" />
    <glyph glyph-name="T" unicode="T" horiz-adv-x="1280" 
d="M1247 1462v-268h-454v-1194h-306v1194h-454v268h1214z" />
    <glyph glyph-name="U" unicode="U" horiz-adv-x="1556" 
d="M1085 1462h306v-923q0 -272 -159.5 -419t-455.5 -147q-293 0 -451.5 147t-158.5 419v923h305v-917q0 -137 80.5 -218t226.5 -81q147 0 227 80.5t80 218.5v917z" />
    <glyph glyph-name="V" unicode="V" horiz-adv-x="1445" 
d="M469 0l-432 1462h317l324 -1167h94l324 1167h313l-432 -1462h-508z" />
    <glyph glyph-name="W" unicode="W" horiz-adv-x="1898" 
d="M760 1020h381l184 -658h51l125 1100h289l-174 -1462h-447l-192 735h-53l-195 -735h-446l-174 1462h292l123 -1100h54z" />
    <glyph glyph-name="X" unicode="X" horiz-adv-x="1421" 
d="M1047 0l-306 602h-63l-311 -602h-328l403 768l-348 694h314l272 -536h63l281 536h309l-354 -686l403 -776h-335z" />
    <glyph glyph-name="Y" unicode="Y" horiz-adv-x="1390" 
d="M666 879h57l313 583h324l-512 -942v-520h-307v520l-510 942h321z" />
    <glyph glyph-name="Z" unicode="Z" horiz-adv-x="1363" 
d="M1241 1462v-329l-762 -803v-58h795v-272h-1184v330l766 803v57h-711v272h1096z" />
    <glyph glyph-name="bracketleft" unicode="[" horiz-adv-x="780" 
d="M672 -289h-531v1843h531v-211h-283v-1421h283v-211z" />
    <glyph glyph-name="backslash" unicode="\" horiz-adv-x="899" 
d="M903 -289h-239l-613 1843h234z" />
    <glyph glyph-name="bracketright" unicode="]" horiz-adv-x="780" 
d="M639 -289h-530v211h282v1421h-282v211h530v-1843z" />
    <glyph glyph-name="asciicircum" unicode="^" horiz-adv-x="1204" 
d="M344 559h-266l432 860h186l430 -860h-264l-233 473h-54z" />
    <glyph glyph-name="underscore" unicode="_" horiz-adv-x="1050" 
d="M1053 -315h-1055v186h1055v-186z" />
    <glyph glyph-name="grave" unicode="`" horiz-adv-x="655" 
d="M319 1192l-237 297h301l190 -297h-254z" />
    <glyph glyph-name="a" unicode="a" horiz-adv-x="1200" 
d="M799 0v90h-54q-100 -117 -294 -117q-172 0 -272.5 102.5t-100.5 248.5q0 65 24 124.5t72.5 111.5t134 83t197.5 31h280v26q0 164 -186 164q-166 0 -178 -112h-285q3 99 62 174t159.5 114t227.5 39q225 0 351 -95.5t126 -299.5v-684h-264zM551 201q104 0 169.5 61.5
t65.5 159.5v65h-225q-196 0 -196 -141q0 -71 48.5 -108t137.5 -37z" />
    <glyph glyph-name="b" unicode="b" 
d="M776 1079q135 0 237.5 -72t156 -197t53.5 -284q0 -243 -121 -398t-326 -155q-198 0 -295 123h-53v-96h-276v1489h286v-533h54q91 123 284 123zM684 211q123 0 187.5 88.5t64.5 226.5t-64.5 226t-187.5 88q-126 0 -191 -89.5t-65 -224.5t65 -225t191 -90z" />
    <glyph glyph-name="c" unicode="c" horiz-adv-x="1193" 
d="M821 354h283q-20 -171 -152 -276t-329 -105q-244 0 -387.5 151t-143.5 402q0 250 144 401.5t387 151.5q196 0 324.5 -99.5t148.5 -262.5h-285q-35 123 -186 123q-126 0 -186 -87t-60 -225q0 -67 14 -122.5t42.5 -100t77 -69.5t112.5 -25q85 0 134.5 37t61.5 106z" />
    <glyph glyph-name="d" unicode="d" 
d="M539 1079q193 0 284 -123h54v533h286v-1489h-276v96h-53q-97 -123 -295 -123q-205 0 -326 155t-121 398t121 398t326 155zM631 211q126 0 191 90t65 225t-65 224.5t-191 89.5q-123 0 -187.5 -88t-64.5 -226t64.5 -226.5t187.5 -88.5z" />
    <glyph glyph-name="e" unicode="e" horiz-adv-x="1222" 
d="M1130 580v-86h-753q6 -137 70.5 -210t185.5 -73q154 0 196 111h291q-33 -163 -157.5 -256t-333.5 -93q-249 0 -393 151.5t-144 405.5q0 252 143.5 400.5t387.5 148.5q233 0 367.5 -139t139.5 -360zM621 864q-188 0 -234 -180h451q-13 83 -67.5 131.5t-149.5 48.5z" />
    <glyph glyph-name="f" unicode="f" horiz-adv-x="817" 
d="M754 813h-265v-813h-286v813h-154v240h154v75q0 96 31 166.5t88 112.5t130.5 62t165.5 20h136v-240h-131q-70 0 -102 -37.5t-32 -97.5v-61h265v-240z" />
    <glyph glyph-name="g" unicode="g" horiz-adv-x="1316" 
d="M889 1053h276v-1002q0 -222 -146 -352.5t-382 -130.5q-220 0 -354.5 91.5t-151.5 262.5h285q21 -129 217 -129q128 0 187 77t59 206v61h-54q-86 -121 -274 -121q-209 0 -334 147.5t-125 383.5q0 234 126.5 383t334.5 149q103 0 176 -35.5t107 -87.5h53v97zM631 256
q123 0 190.5 82.5t67.5 208.5q0 128 -67.5 210.5t-190.5 82.5q-119 0 -185.5 -81t-66.5 -212t66.5 -211t185.5 -80z" />
    <glyph glyph-name="h" unicode="h" horiz-adv-x="1300" 
d="M1163 0h-286v596q0 229 -205 229q-105 0 -169.5 -78t-64.5 -188v-559h-286v1489h286v-533h54q91 123 286 123q193 0 289 -112.5t96 -319.5v-647z" />
    <glyph glyph-name="i" unicode="i" horiz-adv-x="593" 
d="M442 1233h-290v256h290v-256zM440 1053v-1053h-286v1053h286z" />
    <glyph glyph-name="j" unicode="j" horiz-adv-x="616" 
d="M465 1233h-291v256h291v-256zM59 -410h-133v240h94q156 0 156 162v1061h287v-1086q0 -101 -30.5 -175t-86 -117.5t-127 -64t-160.5 -20.5z" />
    <glyph glyph-name="k" unicode="k" horiz-adv-x="1226" 
d="M1204 0h-301l-244 494h-53l-166 -187v-307h-288v1489h288v-848l389 412h320l-299 -326z" />
    <glyph glyph-name="l" unicode="l" horiz-adv-x="589" 
d="M152 1489h286v-1489h-286v1489z" />
    <glyph glyph-name="m" unicode="m" horiz-adv-x="1855" 
d="M1352 1079q184 0 275 -109t91 -306v-664h-286v608q0 108 -38 162.5t-122 54.5q-95 0 -144 -65t-49 -172v-588h-286v608q0 217 -160 217q-97 0 -146 -73t-49 -187v-565h-286v1053h276v-97h53q77 123 262 123q186 0 269 -123h53q91 123 287 123z" />
    <glyph glyph-name="n" unicode="n" horiz-adv-x="1300" 
d="M1163 0h-286v596q0 111 -53 170t-152 59q-105 0 -169.5 -78t-64.5 -188v-559h-286v1053h276v-97h53q95 123 293 123q194 0 291.5 -112.5t97.5 -319.5v-647z" />
    <glyph glyph-name="o" unicode="o" horiz-adv-x="1273" 
d="M637 1079q250 0 397.5 -152t147.5 -401t-147.5 -401t-397.5 -152q-248 0 -396.5 152t-148.5 401t148.5 401t396.5 152zM637 211q128 0 193 89t65 226q0 87 -26 156t-86 113.5t-146 44.5q-127 0 -192.5 -89.5t-65.5 -224.5q0 -88 26.5 -157.5t86 -113.5t145.5 -44z" />
    <glyph glyph-name="p" unicode="p" 
d="M684 840q-126 0 -191 -89.5t-65 -224.5t65 -225t191 -90q123 0 187.5 88.5t64.5 226.5t-64.5 226t-187.5 88zM152 1053h276v-97h53q97 123 295 123q205 0 326 -155t121 -398q0 -245 -121.5 -399t-325.5 -154q-193 0 -284 123h-54v-506h-286v1463z" />
    <glyph glyph-name="q" unicode="q" 
d="M631 840q-123 0 -187.5 -88t-64.5 -226t64.5 -226.5t187.5 -88.5q126 0 191 90t65 225t-65 224.5t-191 89.5zM887 1053h276v-1463h-286v506h-54q-91 -123 -284 -123q-206 0 -326.5 153.5t-120.5 399.5q0 243 121 398t326 155q198 0 295 -123h53v97z" />
    <glyph glyph-name="r" unicode="r" horiz-adv-x="917" 
d="M862 1053v-267h-102q-322 0 -322 -325v-461h-286v1053h276v-119h53q32 47 101 83t182 36h98z" />
    <glyph glyph-name="s" unicode="s" horiz-adv-x="1118" 
d="M1008 764h-285q-18 94 -170 94q-70 0 -112 -22.5t-42 -67.5q0 -40 26.5 -57t86.5 -29l190 -29q336 -52 336 -338q0 -141 -123.5 -241.5t-343.5 -100.5q-232 0 -354.5 94.5t-140.5 264.5h284q20 -137 209 -137q88 0 135.5 29t47.5 85q0 52 -35.5 77.5t-116.5 39.5l-205 33
q-134 25 -208 94t-74 197q0 144 113 236.5t335 92.5q194 0 311.5 -85.5t135.5 -229.5z" />
    <glyph glyph-name="t" unicode="t" horiz-adv-x="829" 
d="M489 1053h232v-240h-232v-453q0 -116 136 -116h96v-244h-100q-76 0 -136 9t-114 31.5t-90 59t-57 93.5t-21 133v487h-154v240h154v295h286v-295z" />
    <glyph glyph-name="u" unicode="u" horiz-adv-x="1300" 
d="M137 1053h287v-596q0 -111 53 -170.5t152 -59.5q105 0 169 78.5t64 188.5v559h287v-1053h-277v96h-53q-95 -123 -293 -123q-194 0 -291.5 113t-97.5 320v647z" />
    <glyph glyph-name="v" unicode="v" horiz-adv-x="1183" 
d="M340 0l-299 1053h293l217 -797h88l209 797h293l-303 -1053h-498z" />
    <glyph glyph-name="w" unicode="w" horiz-adv-x="1536" 
d="M627 764h288l132 -434h53l88 723h268l-145 -1053h-367l-149 494h-54l-149 -494h-369l-143 1053h272l90 -723h54z" />
    <glyph glyph-name="x" unicode="x" horiz-adv-x="1236" 
d="M860 0l-205 387h-75l-209 -387h-303l301 541l-271 512h297l189 -363h75l193 363h293l-275 -508l299 -545h-309z" />
    <glyph glyph-name="y" unicode="y" horiz-adv-x="1216" 
d="M547 -410h-287l223 519l-446 944h299l262 -561h53l242 561h289z" />
    <glyph glyph-name="z" unicode="z" horiz-adv-x="1134" 
d="M1032 0h-930v291l527 469v53h-494v240h881v-293l-527 -469v-53h543v-238z" />
    <glyph glyph-name="braceleft" unicode="{" horiz-adv-x="874" 
d="M412 659v-53q63 -20 100 -78t37 -153v-236q0 -112 43 -164.5t139 -52.5h72v-211h-115q-181 0 -284 101.5t-103 273.5v242q0 98 -33 146t-112 48h-50v221h50q79 0 112 48.5t33 146.5v242q0 172 103 273t284 101h115v-211h-72q-96 0 -139 -52.5t-43 -164.5v-235
q0 -95 -37 -153.5t-100 -78.5z" />
    <glyph glyph-name="bar" unicode="|" horiz-adv-x="552" 
d="M162 -289v1843h229v-1843h-229z" />
    <glyph glyph-name="braceright" unicode="}" horiz-adv-x="874" 
d="M463 606v53q-63 20 -100 78.5t-37 153.5v235q0 111 -43.5 164t-139.5 53h-71v211h114q181 0 284 -101t103 -273v-242q0 -98 33.5 -146.5t112.5 -48.5h49v-221h-49q-79 0 -112.5 -48t-33.5 -146v-242q0 -172 -103 -273.5t-284 -101.5h-114v211h71q96 0 139.5 53t43.5 164
v236q0 95 37 153t100 78z" />
    <glyph glyph-name="asciitilde" unicode="~" horiz-adv-x="1374" 
d="M1016 754h196q0 -183 -78 -273t-216 -90q-53 0 -107 19.5t-98.5 47t-87 54.5t-85.5 46.5t-79 19.5q-103 0 -103 -146h-196q0 183 77.5 273t215.5 90q53 0 108 -19.5t100 -46.5t87 -54.5t84.5 -47t78.5 -19.5q103 0 103 146z" />
    <glyph glyph-name="uni00A0" unicode="&#xa0;" horiz-adv-x="569" 
 />
    <glyph glyph-name="exclamdown" unicode="&#xa1;" horiz-adv-x="706" 
d="M498 -410h-289v594l53 428h182l54 -428v-594zM510 741h-313v312h313v-312z" />
    <glyph glyph-name="cent" unicode="&#xa2;" horiz-adv-x="1193" 
d="M821 354h283q-20 -162 -137 -264.5t-297 -114.5v-139h-109v141q-216 17 -342.5 166t-126.5 383q0 233 126 381t343 168v142h109v-140q178 -12 292 -109t134 -251h-285q-30 109 -141 121v-623q63 6 101.5 42.5t49.5 96.5zM379 528q0 -120 45 -206.5t137 -102.5v615
q-93 -19 -137.5 -103t-44.5 -203z" />
    <glyph glyph-name="sterling" unicode="&#xa3;" horiz-adv-x="1325" 
d="M510 256h747v-256h-1163v256h35q77 0 109 45t32 131v127h-174v229h174v203q0 213 122 342t345 129q220 0 340.5 -121.5t128.5 -322.5h-295q-5 93 -45 137.5t-125 44.5q-88 0 -133 -53t-45 -156v-203h441v-229h-441v-96q0 -58 -11.5 -91.5t-41.5 -62.5v-53z" />
    <glyph glyph-name="currency" unicode="&#xa4;" horiz-adv-x="1478" 
d="M1190 0l-141 137q-137 -98 -308 -98q-174 0 -311 98l-139 -137l-129 127l137 139q-98 140 -98 314q0 172 98 309l-137 139l129 129l139 -139q137 98 311 98q171 0 308 -98l141 139l127 -129l-137 -141q98 -137 98 -307q0 -172 -98 -312l137 -141zM741 213
q147 0 246.5 105.5t99.5 261.5q0 153 -99.5 256.5t-246.5 103.5q-148 0 -250 -103.5t-102 -256.5q0 -156 102 -261.5t250 -105.5z" />
    <glyph glyph-name="yen" unicode="&#xa5;" horiz-adv-x="1341" 
d="M166 649v142h192l-307 643h295l295 -643h57l297 643h295l-307 -643h191v-142h-259l-59 -125h318v-141h-357v-383h-295v383h-356v141h319l-61 125h-258z" />
    <glyph glyph-name="brokenbar" unicode="&#xa6;" horiz-adv-x="552" 
d="M162 834v720h229v-720h-229zM162 -289v721h229v-721h-229z" />
    <glyph glyph-name="section" unicode="&#xa7;" horiz-adv-x="1292" 
d="M485 750q-46 -15 -80 -55.5t-34 -96.5q0 -60 34 -97t107 -57q35 -11 152 -45t145 -43q44 21 77.5 60.5t33.5 91.5q0 59 -33 94.5t-107 59.5q-27 10 -82 26.5t-121.5 35t-91.5 26.5zM1182 551q0 -68 -32 -126.5t-72 -91.5t-81 -48v-54q97 -76 97 -227q0 -156 -127 -258
t-338 -102q-208 0 -334.5 108.5t-136.5 313.5h264q6 -94 61 -144.5t158 -50.5q93 0 140.5 40t47.5 101q0 99 -139 140l-268 73q-159 44 -236 121.5t-77 208.5q0 104 58 173t130 93v53q-96 76 -96 228q0 157 125 258.5t336 101.5q207 0 332.5 -107t135.5 -311h-262
q-6 93 -61 142t-158 49q-94 0 -140 -40t-46 -99q0 -102 137 -142q37 -11 105 -30q83 -23 122.5 -34.5t101.5 -33t91 -38.5t67 -44.5t54 -58t28.5 -72t12.5 -92.5z" />
    <glyph glyph-name="dieresis" unicode="&#xa8;" horiz-adv-x="806" 
d="M725 1233h-240v256h240v-256zM324 1233h-242v256h242v-256z" />
    <glyph glyph-name="copyright" unicode="&#xa9;" horiz-adv-x="1740" 
d="M1053 610h178q-21 -128 -111 -206t-233 -78q-179 0 -279 112.5t-100 290.5q0 179 100 292.5t279 113.5q140 0 229.5 -72.5t108.5 -192.5h-181q-24 107 -157 107q-100 0 -148.5 -66.5t-48.5 -181.5q0 -112 48.5 -179t148.5 -67q145 0 166 127zM870 1489q159 0 300 -58
t242 -158t159.5 -241t58.5 -301q0 -214 -99.5 -387.5t-273.5 -272t-387 -98.5q-214 0 -387.5 98.5t-271.5 272t-98 387.5q0 160 58.5 301t159 241t241 158t298.5 58zM870 96q179 0 323 83.5t224 228.5t80 323q0 179 -80 324.5t-224 229t-323 83.5t-322 -83.5t-221.5 -229
t-78.5 -324.5q0 -181 79 -325.5t221 -227t322 -82.5z" />
    <glyph glyph-name="ordfeminine" unicode="&#xaa;" horiz-adv-x="897" 
d="M598 686v68h-33q-79 -86 -221 -86q-127 0 -199.5 75t-72.5 181q0 48 17 92t52 81.5t96.5 60t141.5 22.5h211v24q0 119 -144 119q-122 0 -137 -88h-192q6 110 93.5 176t227.5 66q161 0 251.5 -70t90.5 -215v-506h-182zM406 825q79 0 131.5 47.5t52.5 120.5v56h-170
q-72 0 -114 -30t-42 -81q0 -54 38.5 -83.5t103.5 -29.5z" />
    <glyph glyph-name="guillemotleft" unicode="&#xab;" horiz-adv-x="1345" 
d="M371 618v-53l350 -375h-309l-306 318v168l306 315h309zM889 618v-53l350 -375h-309l-305 318v168l305 315h309z" />
    <glyph glyph-name="logicalnot" unicode="&#xac;" horiz-adv-x="1396" 
d="M993 205v393h-831v244h1073v-637h-242z" />
    <glyph glyph-name="uni00AD" unicode="&#xad;" horiz-adv-x="811" 
d="M717 455h-621v247h621v-247z" />
    <glyph glyph-name="registered" unicode="&#xae;" horiz-adv-x="1740" 
d="M573 1120h373q131 0 203 -64.5t72 -181.5q0 -142 -113 -206l117 -328h-181l-104 291h-190v-291h-177v780zM750 780h168q122 0 122 92q0 95 -122 95h-168v-187zM870 1489q159 0 300 -58t242 -158t159.5 -241t58.5 -301q0 -214 -99.5 -387.5t-273.5 -272t-387 -98.5
q-214 0 -387.5 98.5t-271.5 272t-98 387.5q0 160 58.5 301t159 241t241 158t298.5 58zM870 96q179 0 323 83.5t224 228.5t80 323q0 179 -80 324.5t-224 229t-323 83.5t-322 -83.5t-221.5 -229t-78.5 -324.5q0 -181 79 -325.5t221 -227t322 -82.5z" />
    <glyph glyph-name="overscore" unicode="&#xaf;" horiz-adv-x="782" 
d="M700 1268h-618v174h618v-174z" />
    <glyph glyph-name="degree" unicode="&#xb0;" horiz-adv-x="950" 
d="M879 1071q0 -173 -116 -288t-290 -115q-172 0 -286.5 115t-114.5 288t114.5 289.5t286.5 116.5q173 0 289.5 -116.5t116.5 -289.5zM473 840q96 0 158.5 66t62.5 165t-62.5 166.5t-158.5 67.5t-157.5 -67.5t-61.5 -166.5t61.5 -165t157.5 -66z" />
    <glyph glyph-name="plusminus" unicode="&#xb1;" horiz-adv-x="1378" 
d="M567 827v338h242v-338h408v-243h-408v-340h408v-244h-1055v244h405v340h-403v243h403z" />
    <glyph glyph-name="twosuperior" unicode="&#xb2;" horiz-adv-x="757" 
d="M365 842h319v-160h-612v197l227 141q84 50 130 94t46 96q0 50 -27.5 75.5t-76.5 25.5q-110 0 -113 -105h-186q4 132 85.5 201.5t219.5 69.5q128 0 206.5 -67t78.5 -189q0 -148 -154 -248l-143 -92v-39z" />
    <glyph glyph-name="threesuperior" unicode="&#xb3;" horiz-adv-x="755" 
d="M502 1190v-37q76 -12 129 -67.5t53 -149.5q0 -122 -85.5 -195t-223.5 -73q-140 0 -225.5 74.5t-90.5 193.5h185q4 -52 39 -77t92 -25q60 0 92.5 28t32.5 78q0 53 -33 81t-90 28q-43 0 -76 -11v148l121 80v37h-309v159h532v-192z" />
    <glyph glyph-name="acute" unicode="&#xb4;" horiz-adv-x="655" 
d="M573 1489l-239 -297h-252l188 297h303z" />
    <glyph glyph-name="mu" unicode="&#xb5;" 
d="M152 1053h286v-596q0 -111 53 -170.5t152 -59.5q105 0 169.5 78.5t64.5 188.5v559h286v-1053h-276v96h-53q-94 -123 -293 -123q-39 0 -103 11v-394h-286v1463z" />
    <glyph glyph-name="paragraph" unicode="&#xb6;" horiz-adv-x="1458" 
d="M762 -362h-242v1005q-95 0 -174.5 24t-142 72.5t-98 129t-35.5 184.5q0 208 120 308.5t330 100.5h848v-200h-164v-1624h-241v1624h-201v-1624z" />
    <glyph glyph-name="middot" unicode="&#xb7;" horiz-adv-x="600" 
d="M457 541h-316v311h316v-311z" />
    <glyph glyph-name="cedilla" unicode="&#xb8;" horiz-adv-x="608" 
d="M219 45h105l-62 -164h29q27 21 80 21q68 0 112.5 -48t44.5 -128q0 -81 -58 -138t-173 -57q-98 0 -154 49t-61 117h147q5 -22 23.5 -36.5t48.5 -14.5q33 0 53.5 19.5t20.5 51.5t-20.5 51t-53.5 19q-38 0 -63 -25h-127z" />
    <glyph glyph-name="onesuperior" unicode="&#xb9;" horiz-adv-x="688" 
d="M442 842h172v-160h-542v160h184v426h-39l-145 -88v174l186 108h184v-620z" />
    <glyph glyph-name="ordmasculine" unicode="&#xba;" horiz-adv-x="931" 
d="M465 1477q177 0 285 -114.5t108 -289.5q0 -177 -107.5 -291t-285.5 -114t-285.5 114t-107.5 291q0 175 108 289.5t285 114.5zM465 838q98 0 149.5 67.5t51.5 167.5q0 99 -52 166.5t-149 67.5t-149 -67.5t-52 -166.5q0 -100 51.5 -167.5t149.5 -67.5z" />
    <glyph glyph-name="guillemotright" unicode="&#xbb;" horiz-adv-x="1345" 
d="M975 565v53l-350 373h309l305 -315v-168l-305 -318h-309zM457 565v53l-351 373h310l305 -315v-168l-305 -318h-310z" />
    <glyph glyph-name="onequarter" unicode="&#xbc;" horiz-adv-x="1794" 
d="M582 0h-209l868 1434h207zM442 842h172v-160h-542v160h184v426h-39l-145 -88v174l186 108h184v-620zM1626 315h94v-159h-94v-156h-180v156h-371v188l334 436h217v-465zM1247 315h205v258h-39l-166 -221v-37z" />
    <glyph glyph-name="onehalf" unicode="&#xbd;" horiz-adv-x="1839" 
d="M582 0h-209l868 1434h207zM442 842h172v-160h-542v160h184v426h-39l-145 -88v174l186 108h184v-620zM1446 160h319v-160h-612v197l227 141q84 50 130 94t46 96q0 50 -27.5 75.5t-76.5 25.5q-110 0 -113 -105h-186q4 132 85.5 201.5t219.5 69.5q128 0 206.5 -67t78.5 -189
q0 -148 -154 -248l-143 -92v-39z" />
    <glyph glyph-name="threequarters" unicode="&#xbe;" horiz-adv-x="1802" 
d="M592 0h-209l868 1434h207zM1636 315h95v-159h-95v-156h-180v156h-371v188l334 436h217v-465zM1257 315h205v258h-39l-166 -221v-37zM502 1190v-37q76 -12 129 -67.5t53 -149.5q0 -122 -85.5 -195t-223.5 -73q-140 0 -225.5 74.5t-90.5 193.5h185q4 -52 39 -77t92 -25
q60 0 92.5 28t32.5 78q0 53 -33 81t-90 28q-43 0 -76 -11v148l121 80v37h-309v159h532v-192z" />
    <glyph glyph-name="questiondown" unicode="&#xbf;" horiz-adv-x="1179" 
d="M602 -432q-244 0 -374 119.5t-130 306.5q0 58 14 107.5t34 84.5t56.5 71.5t66.5 59.5t79 56q77 56 104 91.5t27 96.5v51h293v-51q0 -80 -22.5 -137.5t-58.5 -96t-107 -94.5q-14 -10 -51 -36.5t-48.5 -36t-35 -31.5t-31.5 -38t-15.5 -41t-7.5 -54q0 -75 52 -124.5
t147 -49.5q208 0 217 215h291q-2 -99 -34.5 -183t-93.5 -148.5t-156.5 -101t-215.5 -36.5zM471 1053h313v-312h-313v312z" />
    <glyph glyph-name="Agrave" unicode="&#xc0;" horiz-adv-x="1478" 
d="M1133 0l-119 395h-557l-119 -395h-301l465 1462h473l467 -1462h-309zM688 1169l-153 -507h397l-154 507h-90zM610 1571l-237 264h311l188 -264h-262z" />
    <glyph glyph-name="Aacute" unicode="&#xc1;" horiz-adv-x="1478" 
d="M1133 0l-119 395h-557l-119 -395h-301l465 1462h473l467 -1462h-309zM688 1169l-153 -507h397l-154 507h-90zM1100 1835l-240 -264h-260l186 264h314z" />
    <glyph glyph-name="Acircumflex" unicode="&#xc2;" horiz-adv-x="1478" 
d="M1133 0l-119 395h-557l-119 -395h-301l465 1462h473l467 -1462h-309zM688 1169l-153 -507h397l-154 507h-90zM862 1835l223 -264h-227l-96 112h-53l-95 -112h-223l223 264h248z" />
    <glyph glyph-name="Atilde" unicode="&#xc3;" horiz-adv-x="1478" 
d="M1133 0l-119 395h-557l-119 -395h-301l465 1462h473l467 -1462h-309zM688 1169l-153 -507h397l-154 507h-90zM946 1835h131q0 -124 -53.5 -195t-157.5 -71q-44 0 -86 15t-69 33t-61 33t-64 15q-36 0 -49 -24t-15 -70h-129q0 126 52.5 196t156.5 70q43 0 85.5 -14.5
t70.5 -32.5t63 -32.5t66 -14.5q34 0 45.5 23.5t13.5 68.5z" />
    <glyph glyph-name="Adieresis" unicode="&#xc4;" horiz-adv-x="1478" 
d="M1133 0l-119 395h-557l-119 -395h-301l465 1462h473l467 -1462h-309zM688 1169l-153 -507h397l-154 507h-90zM1065 1602h-240v233h240v-233zM664 1602h-242v233h242v-233z" />
    <glyph glyph-name="Aring" unicode="&#xc5;" horiz-adv-x="1478" 
d="M1133 0l-119 395h-557l-119 -395h-301l465 1462h33q-39 56 -39 129q0 98 71 167t170 69q102 0 172 -68.5t70 -167.5q0 -73 -39 -129h35l467 -1462h-309zM688 1169l-153 -507h397l-154 507h-90zM737 1487q43 0 74 30.5t31 73.5t-31 74t-74 31q-41 0 -71.5 -31t-30.5 -74
t30.5 -73.5t71.5 -30.5z" />
    <glyph glyph-name="AE" unicode="&#xc6;" horiz-adv-x="2152" 
d="M1063 0v395h-508l-205 -395h-342l787 1462h1245v-272h-672v-307h500v-267h-500v-344h694v-272h-999zM963 1178l-271 -516h371v516h-100z" />
    <glyph glyph-name="Ccedilla" unicode="&#xc7;" horiz-adv-x="1509" 
d="M1094 467h317q-33 -220 -193.5 -355t-408.5 -139l-35 -92h29q27 21 80 21q68 0 112.5 -48t44.5 -128q0 -81 -58 -138t-173 -57q-98 0 -154 49t-61 117h147q5 -22 23.5 -36.5t48.5 -14.5q33 0 53.5 19.5t20.5 51.5t-20.5 51t-53.5 19q-38 0 -63 -25h-127l82 218
q-286 29 -445.5 232t-159.5 519q0 225 82 395.5t241.5 266.5t377.5 96q239 0 399 -124.5t197 -328.5h-320q-52 181 -276 181q-96 0 -170.5 -37.5t-121.5 -104.5t-71 -154t-24 -190q0 -139 41 -246t130 -173t216 -66q118 0 194 58t99 163z" />
    <glyph glyph-name="Egrave" unicode="&#xc8;" horiz-adv-x="1363" 
d="M475 272h799v-272h-1104v1462h1081v-272h-776v-307h604v-267h-604v-344zM629 1571l-238 264h311l189 -264h-262z" />
    <glyph glyph-name="Eacute" unicode="&#xc9;" horiz-adv-x="1363" 
d="M475 272h799v-272h-1104v1462h1081v-272h-776v-307h604v-267h-604v-344zM1004 1835l-240 -264h-260l186 264h314z" />
    <glyph glyph-name="Ecircumflex" unicode="&#xca;" horiz-adv-x="1363" 
d="M475 272h799v-272h-1104v1462h1081v-272h-776v-307h604v-267h-604v-344zM840 1835l223 -264h-227l-97 112h-53l-94 -112h-223l223 264h248z" />
    <glyph glyph-name="Edieresis" unicode="&#xcb;" horiz-adv-x="1363" 
d="M475 272h799v-272h-1104v1462h1081v-272h-776v-307h604v-267h-604v-344zM1032 1602h-239v233h239v-233zM631 1602h-242v233h242v-233z" />
    <glyph glyph-name="Igrave" unicode="&#xcc;" horiz-adv-x="665" 
d="M180 1462h305v-1462h-305v1462zM209 1571l-238 264h312l188 -264h-262z" />
    <glyph glyph-name="Iacute" unicode="&#xcd;" horiz-adv-x="665" 
d="M180 1462h305v-1462h-305v1462zM702 1835l-239 -264h-260l186 264h313z" />
    <glyph glyph-name="Icircumflex" unicode="&#xce;" horiz-adv-x="665" 
d="M180 1462h305v-1462h-305v1462zM461 1835l223 -264h-227l-97 112h-53l-94 -112h-223l223 264h248z" />
    <glyph glyph-name="Idieresis" unicode="&#xcf;" horiz-adv-x="665" 
d="M180 1462h305v-1462h-305v1462zM657 1602h-239v233h239v-233zM256 1602h-242v233h242v-233z" />
    <glyph glyph-name="Eth" unicode="&#xd0;" horiz-adv-x="1601" 
d="M41 625v233h172v604h610q329 0 503.5 -196.5t174.5 -534.5q0 -221 -75 -384t-229 -255t-374 -92h-610v625h-172zM518 272h266q107 0 187 35.5t126.5 99.5t68.5 144.5t22 179.5t-22 179.5t-68.5 144.5t-126.5 99.5t-187 35.5h-266v-332h361v-233h-361v-353z" />
    <glyph glyph-name="Ntilde" unicode="&#xd1;" horiz-adv-x="1601" 
d="M1155 1462h279v-1462h-396l-536 991h-53v-991h-279v1462h395l537 -991h53v991zM1014 1835h131q0 -124 -53.5 -195t-157.5 -71q-56 0 -106.5 24t-94 48t-80.5 24q-35 0 -48 -23.5t-15 -70.5h-129q0 126 52.5 196t156.5 70q55 0 106 -23.5t95.5 -47t82.5 -23.5
q34 0 46 23.5t14 68.5z" />
    <glyph glyph-name="Ograve" unicode="&#xd2;" horiz-adv-x="1626" 
d="M813 1489q170 0 306.5 -58t225 -160t135 -240t46.5 -300t-46.5 -300t-135 -240t-225 -160t-306.5 -58t-306.5 58t-225 160t-135 240t-46.5 300t46.5 300t135 240t225 160t306.5 58zM813 246q100 0 177.5 37.5t125 104t72 153.5t24.5 190t-24.5 190t-72 154t-125 104.5
t-177.5 37.5q-131 0 -222.5 -66t-134 -173.5t-42.5 -246.5t42.5 -246t134 -173t222.5 -66zM694 1571l-237 264h311l188 -264h-262z" />
    <glyph glyph-name="Oacute" unicode="&#xd3;" horiz-adv-x="1626" 
d="M813 1489q170 0 306.5 -58t225 -160t135 -240t46.5 -300t-46.5 -300t-135 -240t-225 -160t-306.5 -58t-306.5 58t-225 160t-135 240t-46.5 300t46.5 300t135 240t225 160t306.5 58zM813 246q100 0 177.5 37.5t125 104t72 153.5t24.5 190t-24.5 190t-72 154t-125 104.5
t-177.5 37.5q-131 0 -222.5 -66t-134 -173.5t-42.5 -246.5t42.5 -246t134 -173t222.5 -66zM1180 1835l-240 -264h-260l186 264h314z" />
    <glyph glyph-name="Ocircumflex" unicode="&#xd4;" horiz-adv-x="1626" 
d="M813 1489q170 0 306.5 -58t225 -160t135 -240t46.5 -300t-46.5 -300t-135 -240t-225 -160t-306.5 -58t-306.5 58t-225 160t-135 240t-46.5 300t46.5 300t135 240t225 160t306.5 58zM813 246q100 0 177.5 37.5t125 104t72 153.5t24.5 190t-24.5 190t-72 154t-125 104.5
t-177.5 37.5q-131 0 -222.5 -66t-134 -173.5t-42.5 -246.5t42.5 -246t134 -173t222.5 -66zM940 1835l223 -264h-227l-96 112h-54l-94 -112h-223l223 264h248z" />
    <glyph glyph-name="Otilde" unicode="&#xd5;" horiz-adv-x="1626" 
d="M813 1489q170 0 306.5 -58t225 -160t135 -240t46.5 -300t-46.5 -300t-135 -240t-225 -160t-306.5 -58t-306.5 58t-225 160t-135 240t-46.5 300t46.5 300t135 240t225 160t306.5 58zM813 246q100 0 177.5 37.5t125 104t72 153.5t24.5 190t-24.5 190t-72 154t-125 104.5
t-177.5 37.5q-131 0 -222.5 -66t-134 -173.5t-42.5 -246.5t42.5 -246t134 -173t222.5 -66zM1028 1835h131q0 -124 -53.5 -195t-157.5 -71q-44 0 -86 15t-69 33t-61 33t-64 15q-36 0 -49 -24t-15 -70h-129q0 126 52.5 196t156.5 70q43 0 85.5 -14.5t70.5 -32.5t63 -32.5
t66 -14.5q34 0 45.5 23.5t13.5 68.5z" />
    <glyph glyph-name="Odieresis" unicode="&#xd6;" horiz-adv-x="1626" 
d="M813 1489q170 0 306.5 -58t225 -160t135 -240t46.5 -300t-46.5 -300t-135 -240t-225 -160t-306.5 -58t-306.5 58t-225 160t-135 240t-46.5 300t46.5 300t135 240t225 160t306.5 58zM813 246q100 0 177.5 37.5t125 104t72 153.5t24.5 190t-24.5 190t-72 154t-125 104.5
t-177.5 37.5q-131 0 -222.5 -66t-134 -173.5t-42.5 -246.5t42.5 -246t134 -173t222.5 -66zM1137 1602h-240v233h240v-233zM735 1602h-241v233h241v-233z" />
    <glyph glyph-name="multiply" unicode="&#xd7;" horiz-adv-x="1347" 
d="M504 592l-342 344l170 170l342 -342l344 342l168 -170l-340 -342l340 -346l-168 -168l-344 342l-340 -340l-170 168z" />
    <glyph glyph-name="Oslash" unicode="&#xd8;" horiz-adv-x="1626" 
d="M813 1489q249 0 420 -121l78 94h215l-170 -207q170 -200 170 -524q0 -162 -46.5 -300t-135 -240t-225 -160t-306.5 -58q-243 0 -420 119l-76 -92h-217l170 205q-170 203 -170 526q0 162 46.5 300t135 240t225 160t306.5 58zM414 731q0 -171 59 -280l574 694
q-90 72 -234 72q-131 0 -222.5 -66t-134 -173.5t-42.5 -246.5zM813 246q100 0 177.5 37.5t125 104t72 153.5t24.5 190q0 172 -59 281l-573 -695q89 -71 233 -71z" />
    <glyph glyph-name="Ugrave" unicode="&#xd9;" horiz-adv-x="1556" 
d="M1085 1462h306v-923q0 -272 -159.5 -419t-455.5 -147q-293 0 -451.5 147t-158.5 419v923h305v-917q0 -137 80.5 -218t226.5 -81q147 0 227 80.5t80 218.5v917zM672 1571l-238 264h311l189 -264h-262z" />
    <glyph glyph-name="Uacute" unicode="&#xda;" horiz-adv-x="1556" 
d="M1085 1462h306v-923q0 -272 -159.5 -419t-455.5 -147q-293 0 -451.5 147t-158.5 419v923h305v-917q0 -137 80.5 -218t226.5 -81q147 0 227 80.5t80 218.5v917zM1122 1835l-239 -264h-260l186 264h313z" />
    <glyph glyph-name="Ucircumflex" unicode="&#xdb;" horiz-adv-x="1556" 
d="M1085 1462h306v-923q0 -272 -159.5 -419t-455.5 -147q-293 0 -451.5 147t-158.5 419v923h305v-917q0 -137 80.5 -218t226.5 -81q147 0 227 80.5t80 218.5v917zM903 1835l223 -264h-227l-96 112h-53l-95 -112h-223l223 264h248z" />
    <glyph glyph-name="Udieresis" unicode="&#xdc;" horiz-adv-x="1556" 
d="M1085 1462h306v-923q0 -272 -159.5 -419t-455.5 -147q-293 0 -451.5 147t-158.5 419v923h305v-917q0 -137 80.5 -218t226.5 -81q147 0 227 80.5t80 218.5v917zM1100 1602h-240v233h240v-233zM698 1602h-241v233h241v-233z" />
    <glyph glyph-name="Yacute" unicode="&#xdd;" horiz-adv-x="1390" 
d="M666 879h57l313 583h324l-512 -942v-520h-307v520l-510 942h321zM1042 1835l-239 -264h-260l186 264h313z" />
    <glyph glyph-name="Thorn" unicode="&#xde;" horiz-adv-x="1396" 
d="M475 1184h316q241 0 374 -119.5t133 -333.5q0 -212 -133.5 -332t-373.5 -120h-316v-279h-305v1462h305v-278zM475 547h275q125 0 180 47t55 139q0 91 -55 136.5t-180 45.5h-275v-368z" />
    <glyph glyph-name="germandbls" unicode="&#xdf;" horiz-adv-x="1316" 
d="M993 831v-51q110 -33 178 -128t68 -224q0 -202 -124.5 -315t-340.5 -113h-139v238h86q106 0 168.5 50.5t62.5 160.5t-65 167.5t-193 57.5h-26v237h26q87 0 131.5 49t44.5 123q0 79 -48 126.5t-132 47.5q-194 0 -194 -237v-1020h-287v813h-176v240h178q0 207 131.5 324.5
t353.5 117.5q203 0 330 -107t127 -284q0 -96 -43.5 -169t-116.5 -104z" />
    <glyph glyph-name="agrave" unicode="&#xe0;" horiz-adv-x="1200" 
d="M799 0v90h-54q-100 -117 -294 -117q-172 0 -272.5 102.5t-100.5 248.5q0 65 24 124.5t72.5 111.5t134 83t197.5 31h280v26q0 164 -186 164q-166 0 -178 -112h-285q3 99 62 174t159.5 114t227.5 39q225 0 351 -95.5t126 -299.5v-684h-264zM551 201q104 0 169.5 61.5
t65.5 159.5v65h-225q-196 0 -196 -141q0 -71 48.5 -108t137.5 -37zM514 1192l-238 297h302l190 -297h-254z" />
    <glyph glyph-name="aacute" unicode="&#xe1;" horiz-adv-x="1200" 
d="M799 0v90h-54q-100 -117 -294 -117q-172 0 -272.5 102.5t-100.5 248.5q0 65 24 124.5t72.5 111.5t134 83t197.5 31h280v26q0 164 -186 164q-166 0 -178 -112h-285q3 99 62 174t159.5 114t227.5 39q225 0 351 -95.5t126 -299.5v-684h-264zM551 201q104 0 169.5 61.5
t65.5 159.5v65h-225q-196 0 -196 -141q0 -71 48.5 -108t137.5 -37zM924 1489l-240 -297h-252l189 297h303z" />
    <glyph glyph-name="acircumflex" unicode="&#xe2;" horiz-adv-x="1200" 
d="M799 0v90h-54q-100 -117 -294 -117q-172 0 -272.5 102.5t-100.5 248.5q0 65 24 124.5t72.5 111.5t134 83t197.5 31h280v26q0 164 -186 164q-166 0 -178 -112h-285q3 99 62 174t159.5 114t227.5 39q225 0 351 -95.5t126 -299.5v-684h-264zM551 201q104 0 169.5 61.5
t65.5 159.5v65h-225q-196 0 -196 -141q0 -71 48.5 -108t137.5 -37zM729 1489l225 -297h-217l-106 135h-53l-105 -135h-213l225 297h244z" />
    <glyph glyph-name="atilde" unicode="&#xe3;" horiz-adv-x="1200" 
d="M799 0v90h-54q-100 -117 -294 -117q-172 0 -272.5 102.5t-100.5 248.5q0 65 24 124.5t72.5 111.5t134 83t197.5 31h280v26q0 164 -186 164q-166 0 -178 -112h-285q3 99 62 174t159.5 114t227.5 39q225 0 351 -95.5t126 -299.5v-684h-264zM551 201q104 0 169.5 61.5
t65.5 159.5v65h-225q-196 0 -196 -141q0 -71 48.5 -108t137.5 -37zM838 1483h129q0 -133 -53 -210t-156 -77q-43 0 -85.5 18.5t-70 40t-60.5 40t-61 18.5q-67 0 -67 -117h-129q0 134 53.5 210.5t155.5 76.5q43 0 85.5 -18.5t70 -40t61 -40t61.5 -18.5q66 0 66 117z" />
    <glyph glyph-name="adieresis" unicode="&#xe4;" horiz-adv-x="1200" 
d="M799 0v90h-54q-100 -117 -294 -117q-172 0 -272.5 102.5t-100.5 248.5q0 65 24 124.5t72.5 111.5t134 83t197.5 31h280v26q0 164 -186 164q-166 0 -178 -112h-285q3 99 62 174t159.5 114t227.5 39q225 0 351 -95.5t126 -299.5v-684h-264zM551 201q104 0 169.5 61.5
t65.5 159.5v65h-225q-196 0 -196 -141q0 -71 48.5 -108t137.5 -37zM940 1233h-240v256h240v-256zM539 1233h-242v256h242v-256z" />
    <glyph glyph-name="aring" unicode="&#xe5;" horiz-adv-x="1200" 
d="M799 0v90h-54q-100 -117 -294 -117q-172 0 -272.5 102.5t-100.5 248.5q0 65 24 124.5t72.5 111.5t134 83t197.5 31h280v26q0 164 -186 164q-166 0 -178 -112h-285q3 99 62 174t159.5 114t227.5 39q225 0 351 -95.5t126 -299.5v-684h-264zM551 201q104 0 169.5 61.5
t65.5 159.5v65h-225q-196 0 -196 -141q0 -71 48.5 -108t137.5 -37zM606 1640q102 0 172 -68t70 -167t-70 -167.5t-172 -68.5q-99 0 -170 69t-71 167t71 166.5t170 68.5zM606 1303q43 0 74 30t31 72q0 43 -31 73.5t-74 30.5q-41 0 -71.5 -30.5t-30.5 -73.5q0 -42 30 -72
t72 -30z" />
    <glyph glyph-name="ae" unicode="&#xe6;" horiz-adv-x="1878" 
d="M1786 494h-744q8 -134 69.5 -208.5t180.5 -74.5q145 0 193 111h291q-37 -166 -156.5 -257.5t-327.5 -91.5q-238 0 -381 177h-49q-65 -82 -165 -129.5t-224 -47.5q-186 0 -290.5 97t-104.5 249q0 162 113.5 258.5t322.5 96.5h256v26q0 164 -182 164q-155 0 -170 -112h-285
q8 149 127.5 238t314.5 89q226 0 340 -129h52q129 129 331 129q220 0 351.5 -141t136.5 -365v-79zM770 416v71h-211q-194 0 -194 -143q0 -70 47 -106.5t131 -36.5q104 0 165.5 59t61.5 156zM1284 864q-185 0 -227 -188h438q-12 89 -64.5 138.5t-146.5 49.5z" />
    <glyph glyph-name="ccedilla" unicode="&#xe7;" horiz-adv-x="1193" 
d="M821 354h283q-20 -171 -151.5 -276t-327.5 -105l-35 -92h28q27 21 80 21q68 0 113 -48t45 -128q0 -81 -58 -138t-173 -57q-98 0 -154 49t-61 117h147q5 -22 23.5 -36.5t48.5 -14.5q32 0 52.5 19.5t20.5 51.5t-20 51t-53 19q-39 0 -64 -25h-127l84 220
q-201 29 -315.5 174.5t-114.5 369.5q0 250 144 401.5t387 151.5q196 0 324.5 -99.5t148.5 -262.5h-285q-35 123 -186 123q-126 0 -186 -87t-60 -225q0 -67 14 -122.5t42.5 -100t77 -69.5t112.5 -25q85 0 134.5 37t61.5 106z" />
    <glyph glyph-name="egrave" unicode="&#xe8;" horiz-adv-x="1222" 
d="M1130 580v-86h-753q6 -137 70.5 -210t185.5 -73q154 0 196 111h291q-33 -163 -157.5 -256t-333.5 -93q-249 0 -393 151.5t-144 405.5q0 252 143.5 400.5t387.5 148.5q233 0 367.5 -139t139.5 -360zM621 864q-188 0 -234 -180h451q-13 83 -67.5 131.5t-149.5 48.5z
M547 1192l-238 297h301l191 -297h-254z" />
    <glyph glyph-name="eacute" unicode="&#xe9;" horiz-adv-x="1222" 
d="M1130 580v-86h-753q6 -137 70.5 -210t185.5 -73q154 0 196 111h291q-33 -163 -157.5 -256t-333.5 -93q-249 0 -393 151.5t-144 405.5q0 252 143.5 400.5t387.5 148.5q233 0 367.5 -139t139.5 -360zM621 864q-188 0 -234 -180h451q-13 83 -67.5 131.5t-149.5 48.5z
M973 1489l-240 -297h-252l189 297h303z" />
    <glyph glyph-name="ecircumflex" unicode="&#xea;" horiz-adv-x="1222" 
d="M1130 580v-86h-753q6 -137 70.5 -210t185.5 -73q154 0 196 111h291q-33 -163 -157.5 -256t-333.5 -93q-249 0 -393 151.5t-144 405.5q0 252 143.5 400.5t387.5 148.5q233 0 367.5 -139t139.5 -360zM621 864q-188 0 -234 -180h451q-13 83 -67.5 131.5t-149.5 48.5z
M741 1489l226 -297h-217l-107 135h-53l-105 -135h-213l226 297h243z" />
    <glyph glyph-name="edieresis" unicode="&#xeb;" horiz-adv-x="1222" 
d="M1130 580v-86h-753q6 -137 70.5 -210t185.5 -73q154 0 196 111h291q-33 -163 -157.5 -256t-333.5 -93q-249 0 -393 151.5t-144 405.5q0 252 143.5 400.5t387.5 148.5q233 0 367.5 -139t139.5 -360zM621 864q-188 0 -234 -180h451q-13 83 -67.5 131.5t-149.5 48.5z
M946 1233h-239v256h239v-256zM545 1233h-242v256h242v-256z" />
    <glyph glyph-name="igrave" unicode="&#xec;" horiz-adv-x="595" 
d="M188 1192l-237 297h301l190 -297h-254zM440 1053v-1053h-286v1053h286z" />
    <glyph glyph-name="iacute" unicode="&#xed;" horiz-adv-x="593" 
d="M664 1489l-240 -297h-252l188 297h304zM440 1053v-1053h-286v1053h286z" />
    <glyph glyph-name="icircumflex" unicode="&#xee;" horiz-adv-x="593" 
d="M440 1053v-1053h-286v1053h286zM422 1489l225 -297h-217l-106 135h-54l-104 -135h-213l225 297h244z" />
    <glyph glyph-name="idieresis" unicode="&#xef;" horiz-adv-x="593" 
d="M621 1233h-240v256h240v-256zM219 1233h-242v256h242v-256zM440 1053v-1053h-286v1053h286z" />
    <glyph glyph-name="eth" unicode="&#xf0;" horiz-adv-x="1261" 
d="M281 1141v135h286q-90 88 -272 213h342q135 -90 244 -213h225v-135h-121q184 -276 184 -596q0 -167 -60.5 -294.5t-184.5 -202.5t-297 -75q-245 0 -390 150t-145 383q0 226 129 372t316 146q147 0 225 -68h53q-38 89 -121 185h-413zM631 211q125 0 187.5 81t62.5 212
q0 130 -63 212.5t-187 82.5q-125 0 -189.5 -83t-64.5 -212q0 -130 64.5 -211.5t189.5 -81.5z" />
    <glyph glyph-name="ntilde" unicode="&#xf1;" horiz-adv-x="1300" 
d="M1163 0h-286v596q0 111 -53 170t-152 59q-105 0 -169.5 -78t-64.5 -188v-559h-286v1053h276v-97h53q95 123 293 123q194 0 291.5 -112.5t97.5 -319.5v-647zM872 1483h129q0 -133 -52.5 -210t-155.5 -77q-43 0 -85.5 18.5t-70 40t-60.5 40t-61 18.5q-67 0 -67 -117h-130
q0 134 53.5 210.5t155.5 76.5q43 0 85.5 -18.5t70 -40t61.5 -40t62 -18.5q65 0 65 117z" />
    <glyph glyph-name="ograve" unicode="&#xf2;" horiz-adv-x="1273" 
d="M637 1079q250 0 397.5 -152t147.5 -401t-147.5 -401t-397.5 -152q-248 0 -396.5 152t-148.5 401t148.5 401t396.5 152zM637 211q128 0 193 89t65 226q0 87 -26 156t-86 113.5t-146 44.5q-127 0 -192.5 -89.5t-65.5 -224.5q0 -88 26.5 -157.5t86 -113.5t145.5 -44z
M522 1192l-237 297h301l190 -297h-254z" />
    <glyph glyph-name="oacute" unicode="&#xf3;" horiz-adv-x="1273" 
d="M637 1079q250 0 397.5 -152t147.5 -401t-147.5 -401t-397.5 -152q-248 0 -396.5 152t-148.5 401t148.5 401t396.5 152zM637 211q128 0 193 89t65 226q0 87 -26 156t-86 113.5t-146 44.5q-127 0 -192.5 -89.5t-65.5 -224.5q0 -88 26.5 -157.5t86 -113.5t145.5 -44z
M991 1489l-239 -297h-252l188 297h303z" />
    <glyph glyph-name="ocircumflex" unicode="&#xf4;" horiz-adv-x="1273" 
d="M637 1079q250 0 397.5 -152t147.5 -401t-147.5 -401t-397.5 -152q-248 0 -396.5 152t-148.5 401t148.5 401t396.5 152zM637 211q128 0 193 89t65 226q0 87 -26 156t-86 113.5t-146 44.5q-127 0 -192.5 -89.5t-65.5 -224.5q0 -88 26.5 -157.5t86 -113.5t145.5 -44z
M760 1489l225 -297h-217l-106 135h-54l-104 -135h-213l225 297h244z" />
    <glyph glyph-name="otilde" unicode="&#xf5;" horiz-adv-x="1273" 
d="M637 1079q250 0 397.5 -152t147.5 -401t-147.5 -401t-397.5 -152q-248 0 -396.5 152t-148.5 401t148.5 401t396.5 152zM637 211q128 0 193 89t65 226q0 87 -26 156t-86 113.5t-146 44.5q-127 0 -192.5 -89.5t-65.5 -224.5q0 -88 26.5 -157.5t86 -113.5t145.5 -44z
M848 1483h129q0 -133 -53 -210t-156 -77q-43 0 -85.5 18.5t-69.5 40t-60 40t-61 18.5q-68 0 -68 -117h-129q0 134 53.5 210.5t155.5 76.5q43 0 85.5 -18.5t70 -40t61 -40t61.5 -18.5q66 0 66 117z" />
    <glyph glyph-name="odieresis" unicode="&#xf6;" horiz-adv-x="1273" 
d="M637 1079q250 0 397.5 -152t147.5 -401t-147.5 -401t-397.5 -152q-248 0 -396.5 152t-148.5 401t148.5 401t396.5 152zM637 211q128 0 193 89t65 226q0 87 -26 156t-86 113.5t-146 44.5q-127 0 -192.5 -89.5t-65.5 -224.5q0 -88 26.5 -157.5t86 -113.5t145.5 -44z
M958 1233h-239v256h239v-256zM557 1233h-242v256h242v-256z" />
    <glyph glyph-name="divide" unicode="&#xf7;" horiz-adv-x="1406" 
d="M866 18h-325v279h325v-279zM866 887h-325v278h325v-278zM1245 471h-1083v244h1083v-244z" />
    <glyph glyph-name="oslash" unicode="&#xf8;" horiz-adv-x="1273" 
d="M637 1079q183 0 311 -84l49 58h185l-127 -150q127 -145 127 -377q0 -249 -147.5 -401t-397.5 -152q-183 0 -311 84l-50 -57h-184l127 147q-127 149 -127 379q0 249 148.5 401t396.5 152zM637 211q128 0 193 89t65 226q0 95 -31 158l-368 -430q55 -43 141 -43zM379 526
q0 -101 31 -159l366 430q-55 43 -139 43q-127 0 -192.5 -89.5t-65.5 -224.5z" />
    <glyph glyph-name="ugrave" unicode="&#xf9;" horiz-adv-x="1300" 
d="M137 1053h287v-596q0 -111 53 -170.5t152 -59.5q105 0 169 78.5t64 188.5v559h287v-1053h-277v96h-53q-95 -123 -293 -123q-194 0 -291.5 113t-97.5 320v647zM532 1192l-237 297h301l190 -297h-254z" />
    <glyph glyph-name="uacute" unicode="&#xfa;" horiz-adv-x="1300" 
d="M137 1053h287v-596q0 -111 53 -170.5t152 -59.5q105 0 169 78.5t64 188.5v559h287v-1053h-277v96h-53q-95 -123 -293 -123q-194 0 -291.5 113t-97.5 320v647zM993 1489l-239 -297h-252l188 297h303z" />
    <glyph glyph-name="ucircumflex" unicode="&#xfb;" horiz-adv-x="1300" 
d="M137 1053h287v-596q0 -111 53 -170.5t152 -59.5q105 0 169 78.5t64 188.5v559h287v-1053h-277v96h-53q-95 -123 -293 -123q-194 0 -291.5 113t-97.5 320v647zM764 1489l225 -297h-217l-106 135h-54l-104 -135h-213l225 297h244z" />
    <glyph glyph-name="udieresis" unicode="&#xfc;" horiz-adv-x="1300" 
d="M137 1053h287v-596q0 -111 53 -170.5t152 -59.5q105 0 169 78.5t64 188.5v559h287v-1053h-277v96h-53q-95 -123 -293 -123q-194 0 -291.5 113t-97.5 320v647zM963 1233h-240v256h240v-256zM561 1233h-242v256h242v-256z" />
    <glyph glyph-name="yacute" unicode="&#xfd;" horiz-adv-x="1216" 
d="M547 -410h-287l223 519l-446 944h299l262 -561h53l242 561h289zM961 1489l-240 -297h-252l188 297h304z" />
    <glyph glyph-name="thorn" unicode="&#xfe;" 
d="M684 840q-126 0 -191 -89.5t-65 -224.5t65 -225t191 -90q123 0 187.5 88.5t64.5 226.5t-64.5 226t-187.5 88zM152 1489h286v-533h54q94 123 286 123q205 0 325 -155t120 -398q0 -245 -121.5 -399t-325.5 -154q-193 0 -284 123h-54v-506h-286v1899z" />
    <glyph glyph-name="ydieresis" unicode="&#xff;" horiz-adv-x="1216" 
d="M547 -410h-287l223 519l-446 944h299l262 -561h53l242 561h289zM938 1233h-240v256h240v-256zM537 1233h-242v256h242v-256z" />
    <glyph glyph-name="Amacron" unicode="&#x100;" horiz-adv-x="1478" 
d="M1133 0l-119 395h-557l-119 -395h-301l465 1462h473l467 -1462h-309zM688 1169l-153 -507h397l-154 507h-90zM1049 1628h-619v168h619v-168z" />
    <glyph glyph-name="amacron" unicode="&#x101;" horiz-adv-x="1200" 
d="M799 0v90h-54q-100 -117 -294 -117q-172 0 -272.5 102.5t-100.5 248.5q0 65 24 124.5t72.5 111.5t134 83t197.5 31h280v26q0 164 -186 164q-166 0 -178 -112h-285q3 99 62 174t159.5 114t227.5 39q225 0 351 -95.5t126 -299.5v-684h-264zM551 201q104 0 169.5 61.5
t65.5 159.5v65h-225q-196 0 -196 -141q0 -71 48.5 -108t137.5 -37zM920 1268h-619v174h619v-174z" />
    <glyph glyph-name="Abreve" unicode="&#x102;" horiz-adv-x="1478" 
d="M1133 0l-119 395h-557l-119 -395h-301l465 1462h473l467 -1462h-309zM688 1169l-153 -507h397l-154 507h-90zM866 1835h170q-5 -126 -79.5 -195t-217.5 -69q-139 0 -214.5 69.5t-80.5 194.5h172q3 -113 123 -113q60 0 92.5 29.5t34.5 83.5z" />
    <glyph glyph-name="abreve" unicode="&#x103;" horiz-adv-x="1200" 
d="M799 0v90h-54q-100 -117 -294 -117q-172 0 -272.5 102.5t-100.5 248.5q0 65 24 124.5t72.5 111.5t134 83t197.5 31h280v26q0 164 -186 164q-166 0 -178 -112h-285q3 99 62 174t159.5 114t227.5 39q225 0 351 -95.5t126 -299.5v-684h-264zM551 201q104 0 169.5 61.5
t65.5 159.5v65h-225q-196 0 -196 -141q0 -71 48.5 -108t137.5 -37zM727 1489h170q0 -138 -75.5 -217.5t-219.5 -79.5q-145 0 -221 79.5t-76 217.5h172q0 -67 31.5 -103t93.5 -36q61 0 93 36t32 103z" />
    <glyph glyph-name="Aogonek" unicode="&#x104;" horiz-adv-x="1482" 
d="M1133 0l-119 395h-557l-119 -395h-301l465 1462h473l467 -1462q-55 -30 -87 -69.5t-32 -80.5q0 -42 31.5 -67t91.5 -25v-168h-62q-141 0 -207.5 53.5t-66.5 143.5q0 64 39 121.5t115 91.5h-131zM688 1169l-153 -507h397l-154 507h-90z" />
    <glyph glyph-name="aogonek" unicode="&#x105;" horiz-adv-x="1200" 
d="M799 0v90h-54q-100 -117 -294 -117q-172 0 -272.5 102.5t-100.5 248.5q0 65 24 124.5t72.5 111.5t134 83t197.5 31h280v26q0 164 -186 164q-166 0 -178 -112h-285q3 99 62 174t159.5 114t227.5 39q225 0 351 -95.5t126 -299.5v-684q-55 -30 -87 -69.5t-32 -80.5
q0 -42 31.5 -67t91.5 -25v-168h-61q-141 0 -208 53.5t-67 143.5q0 64 39 121.5t115 91.5h-86zM551 201q104 0 169.5 61.5t65.5 159.5v65h-225q-196 0 -196 -141q0 -71 48.5 -108t137.5 -37z" />
    <glyph glyph-name="Cacute" unicode="&#x106;" horiz-adv-x="1536" 
d="M1094 467h317q-33 -223 -195.5 -358.5t-414.5 -135.5q-219 0 -378.5 96t-241 266.5t-81.5 395.5t82 395.5t241.5 266.5t377.5 96q239 0 399 -124.5t197 -328.5h-320q-52 181 -276 181q-96 0 -170.5 -37.5t-121.5 -104.5t-71 -154t-24 -190q0 -139 41 -246t130 -173
t216 -66q118 0 194 58t99 163zM1165 1835l-239 -264h-260l186 264h313z" />
    <glyph glyph-name="cacute" unicode="&#x107;" horiz-adv-x="1193" 
d="M821 354h283q-20 -171 -152 -276t-329 -105q-244 0 -387.5 151t-143.5 402q0 250 144 401.5t387 151.5q196 0 324.5 -99.5t148.5 -262.5h-285q-35 123 -186 123q-126 0 -186 -87t-60 -225q0 -67 14 -122.5t42.5 -100t77 -69.5t112.5 -25q85 0 134.5 37t61.5 106z
M958 1489l-239 -297h-252l188 297h303z" />
    <glyph glyph-name="Ccaron" unicode="&#x10c;" horiz-adv-x="1536" 
d="M1094 467h317q-33 -223 -195.5 -358.5t-414.5 -135.5q-219 0 -378.5 96t-241 266.5t-81.5 395.5t82 395.5t241.5 266.5t377.5 96q239 0 399 -124.5t197 -328.5h-320q-52 181 -276 181q-96 0 -170.5 -37.5t-121.5 -104.5t-71 -154t-24 -190q0 -139 41 -246t130 -173
t216 -66q118 0 194 58t99 163zM680 1571l-223 264h227l94 -113h53l97 113h223l-223 -264h-248z" />
    <glyph glyph-name="ccaron" unicode="&#x10d;" horiz-adv-x="1193" 
d="M821 354h283q-20 -171 -152 -276t-329 -105q-244 0 -387.5 151t-143.5 402q0 250 144 401.5t387 151.5q196 0 324.5 -99.5t148.5 -262.5h-285q-35 123 -186 123q-126 0 -186 -87t-60 -225q0 -67 14 -122.5t42.5 -100t77 -69.5t112.5 -25q85 0 134.5 37t61.5 106z
M498 1192l-226 297h217l105 -135h53l105 135h215l-226 -297h-243z" />
    <glyph glyph-name="Dcaron" unicode="&#x10e;" horiz-adv-x="1560" 
d="M170 1462h610q329 0 503.5 -196.5t174.5 -534.5q0 -221 -75 -384t-229 -255t-374 -92h-610v1462zM475 272h266q107 0 187 35.5t126.5 99.5t68.5 144.5t22 179.5t-22 179.5t-68.5 144.5t-126.5 99.5t-187 35.5h-266v-918zM594 1571l-223 264h227l94 -113h53l97 113h223
l-223 -264h-248z" />
    <glyph glyph-name="dcaron" unicode="&#x10f;" horiz-adv-x="1587" 
d="M1479 1241h-140v248h301v-299l-155 -170h-162l156 170v51zM539 1079q193 0 284 -123h54v533h286v-1489h-276v96h-53q-97 -123 -295 -123q-205 0 -326 155t-121 398t121 398t326 155zM631 211q126 0 191 90t65 225t-65 224.5t-191 89.5q-123 0 -187.5 -88t-64.5 -226
t64.5 -226.5t187.5 -88.5z" />
    <glyph glyph-name="Dcroat" unicode="&#x110;" horiz-adv-x="1601" 
d="M41 625v233h172v604h610q329 0 503.5 -196.5t174.5 -534.5q0 -221 -75 -384t-229 -255t-374 -92h-610v625h-172zM518 272h266q107 0 187 35.5t126.5 99.5t68.5 144.5t22 179.5t-22 179.5t-68.5 144.5t-126.5 99.5t-187 35.5h-266v-332h361v-233h-361v-353z" />
    <glyph glyph-name="dslash" unicode="&#x111;" horiz-adv-x="1353" 
d="M539 1079q193 0 284 -123h54v224h-320v145h320v164h286v-164h158v-145h-158v-1180h-278v96h-51q-97 -123 -295 -123q-205 0 -326 155t-121 398t121 398t326 155zM629 211q127 0 191.5 90t64.5 225t-64.5 224.5t-191.5 89.5q-124 0 -187 -87.5t-63 -226.5t63 -227t187 -88
z" />
    <glyph glyph-name="Emacron" unicode="&#x112;" horiz-adv-x="1363" 
d="M475 272h799v-272h-1104v1462h1081v-272h-776v-307h604v-267h-604v-344zM1030 1628h-618v168h618v-168z" />
    <glyph glyph-name="emacron" unicode="&#x113;" horiz-adv-x="1222" 
d="M1130 580v-86h-753q6 -137 70.5 -210t185.5 -73q154 0 196 111h291q-33 -163 -157.5 -256t-333.5 -93q-249 0 -393 151.5t-144 405.5q0 252 143.5 400.5t387.5 148.5q233 0 367.5 -139t139.5 -360zM621 864q-188 0 -234 -180h451q-13 83 -67.5 131.5t-149.5 48.5z
M944 1268h-618v174h618v-174z" />
    <glyph glyph-name="Edotaccent" unicode="&#x116;" horiz-adv-x="1363" 
d="M475 272h799v-272h-1104v1462h1081v-272h-776v-307h604v-267h-604v-344zM866 1602h-291v233h291v-233z" />
    <glyph glyph-name="edotaccent" unicode="&#x117;" horiz-adv-x="1222" 
d="M1130 580v-86h-753q6 -137 70.5 -210t185.5 -73q154 0 196 111h291q-33 -163 -157.5 -256t-333.5 -93q-249 0 -393 151.5t-144 405.5q0 252 143.5 400.5t387.5 148.5q233 0 367.5 -139t139.5 -360zM621 864q-188 0 -234 -180h451q-13 83 -67.5 131.5t-149.5 48.5z
M770 1233h-291v256h291v-256z" />
    <glyph glyph-name="Eogonek" unicode="&#x118;" horiz-adv-x="1363" 
d="M475 272h799v-272q-55 -30 -87 -69.5t-32 -80.5q0 -42 31.5 -67t91.5 -25v-168h-61q-141 0 -208 53.5t-67 143.5q0 64 39 121.5t115 91.5h-926v1462h1081v-272h-776v-307h604v-267h-604v-344z" />
    <glyph glyph-name="eogonek" unicode="&#x119;" horiz-adv-x="1222" 
d="M1130 580v-86h-753q6 -137 70.5 -210t185.5 -73q154 0 196 111h291q-23 -105 -74 -172t-147 -121q-70 -40 -98.5 -75t-28.5 -77t31.5 -67t91.5 -25v-168h-61q-141 0 -208 53.5t-67 143.5t72 159h-2q-249 0 -393 151.5t-144 405.5q0 252 143.5 400.5t387.5 148.5
q233 0 367.5 -139t139.5 -360zM621 864q-188 0 -234 -180h451q-13 83 -67.5 131.5t-149.5 48.5z" />
    <glyph glyph-name="Ecaron" unicode="&#x11a;" horiz-adv-x="1363" 
d="M475 272h799v-272h-1104v1462h1081v-272h-776v-307h604v-267h-604v-344zM598 1571l-223 264h227l94 -113h54l96 113h223l-223 -264h-248z" />
    <glyph glyph-name="ecaron" unicode="&#x11b;" horiz-adv-x="1222" 
d="M1130 580v-86h-753q6 -137 70.5 -210t185.5 -73q154 0 196 111h291q-33 -163 -157.5 -256t-333.5 -93q-249 0 -393 151.5t-144 405.5q0 252 143.5 400.5t387.5 148.5q233 0 367.5 -139t139.5 -360zM621 864q-188 0 -234 -180h451q-13 83 -67.5 131.5t-149.5 48.5z
M502 1192l-226 297h218l104 -135h53l105 135h215l-226 -297h-243z" />
    <glyph glyph-name="uni0122" unicode="&#x122;" horiz-adv-x="1576" 
d="M799 813h651v-172q0 -105 -22 -200.5t-72 -181.5t-123 -149t-181.5 -100t-242.5 -37q-224 0 -385.5 98t-241.5 267.5t-80 392.5q0 222 80.5 391.5t242.5 268t386 98.5q246 0 402 -119.5t198 -325.5h-317q-52 173 -285 173q-190 0 -291.5 -134t-101.5 -352t102 -352.5
t293 -134.5q162 0 245.5 86.5t88.5 232.5h-346v250zM817 -475h-168l142 127v43h-121v194h286v-237z" />
    <glyph glyph-name="uni0123" unicode="&#x123;" horiz-adv-x="1316" 
d="M891 1053h276v-1002q0 -222 -146 -352.5t-382 -130.5q-220 0 -354.5 91.5t-151.5 262.5h285q21 -129 217 -129q128 0 187 77t59 206v61h-54q-86 -121 -274 -121q-209 0 -334 147.5t-125 383.5q0 234 126.5 383t334.5 149q103 0 176 -35.5t107 -87.5h53v97zM633 256
q123 0 190.5 82.5t67.5 208.5q0 128 -67.5 210.5t-190.5 82.5q-119 0 -185.5 -81t-66.5 -212t66.5 -211t185.5 -80zM631 1548h168l-142 -127v-43h121v-194h-286v237z" />
    <glyph glyph-name="Itilde" unicode="&#x128;" horiz-adv-x="665" 
d="M180 1462h305v-1462h-305v1462zM547 1835h131q0 -124 -53.5 -195t-157.5 -71q-56 0 -106.5 24t-94 48t-80.5 24q-35 0 -48 -23.5t-15 -70.5h-129q0 126 52.5 196t156.5 70q55 0 106 -23.5t95.5 -47t82.5 -23.5q34 0 46 23.5t14 68.5z" />
    <glyph glyph-name="itilde" unicode="&#x129;" horiz-adv-x="593" 
d="M512 1483h129q0 -133 -53 -210t-156 -77q-43 0 -85.5 18.5t-69.5 40t-60 40t-61 18.5q-68 0 -68 -117h-129q0 134 53.5 210.5t155.5 76.5q43 0 85.5 -18.5t70 -40t61 -40t61.5 -18.5q66 0 66 117zM440 1053v-1053h-286v1053h286z" />
    <glyph glyph-name="Imacron" unicode="&#x12a;" horiz-adv-x="665" 
d="M180 1462h305v-1462h-305v1462zM643 1628h-618v168h618v-168z" />
    <glyph glyph-name="imacron" unicode="&#x12b;" horiz-adv-x="593" 
d="M608 1268h-618v174h618v-174zM440 1053v-1053h-286v1053h286z" />
    <glyph glyph-name="Iogonek" unicode="&#x12e;" horiz-adv-x="665" 
d="M180 1462h305v-1462q-55 -30 -86.5 -69.5t-31.5 -80.5q0 -43 31 -67.5t91 -24.5v-168h-61q-141 0 -207.5 53.5t-66.5 143.5q0 64 38.5 121.5t114.5 91.5h-127v1462z" />
    <glyph glyph-name="iogonek" unicode="&#x12f;" horiz-adv-x="593" 
d="M440 1053v-1053q-55 -30 -86.5 -69.5t-31.5 -80.5q0 -43 31 -67.5t91 -24.5v-168h-61q-141 0 -207.5 53.5t-66.5 143.5q0 64 38.5 121.5t114.5 91.5h-108v1053h286zM442 1233h-290v256h290v-256z" />
    <glyph glyph-name="dotlessi" unicode="&#x131;" horiz-adv-x="593" 
d="M440 1053v-1053h-286v1053h286z" />
    <glyph glyph-name="uni0136" unicode="&#x136;" horiz-adv-x="1542" 
d="M170 0v1462h305v-604l598 604h357l-439 -458l508 -1004h-336l-370 735h-54l-264 -264v-471h-305zM823 -475h-168l142 127v43h-121v194h287v-237z" />
    <glyph glyph-name="uni0137" unicode="&#x137;" horiz-adv-x="1220" 
d="M1204 0h-301l-244 494h-53l-166 -187v-307h-288v1489h288v-848l389 412h320l-299 -326zM678 -475h-168l141 127v43h-121v194h287v-237z" />
    <glyph glyph-name="kgreenlandic" unicode="&#x138;" horiz-adv-x="1226" 
d="M1204 0h-301l-244 494h-53l-166 -187v-307h-288v1053h288v-412l389 412h320l-299 -326z" />
    <glyph glyph-name="Lacute" unicode="&#x139;" horiz-adv-x="1333" 
d="M475 279h774v-279h-1079v1462h305v-1183zM690 1835l-239 -264h-261l187 264h313z" />
    <glyph glyph-name="lacute" unicode="&#x13a;" horiz-adv-x="589" 
d="M152 1489h286v-1489h-286v1489zM666 1835l-240 -264h-260l186 264h314z" />
    <glyph glyph-name="uni013B" unicode="&#x13b;" horiz-adv-x="1333" 
d="M475 279h774v-279h-1079v1462h305v-1183zM713 -475h-168l141 127v43h-121v194h287v-237z" />
    <glyph glyph-name="uni013C" unicode="&#x13c;" horiz-adv-x="589" 
d="M152 1489h286v-1489h-286v1489zM299 -475h-168l141 127v43h-120v194h286v-237z" />
    <glyph glyph-name="Lcaron" unicode="&#x13d;" horiz-adv-x="1333" 
d="M928 1214h-140v248h302v-299l-156 -170h-162l156 170v51zM475 279h774v-279h-1079v1462h305v-1183z" />
    <glyph glyph-name="lcaron" unicode="&#x13e;" horiz-adv-x="862" 
d="M614 1241v248h301v-299l-155 -170h-162l156 170v51h-140zM152 1489h286v-1489h-286v1489z" />
    <glyph glyph-name="Lslash" unicode="&#x141;" horiz-adv-x="1388" 
d="M528 279h777v-279h-1082v545l-182 -72v252l182 72v665h305v-542l361 145v-252l-361 -145v-389z" />
    <glyph glyph-name="lslash" unicode="&#x142;" horiz-adv-x="761" 
d="M238 1489h286v-549l199 88v-254l-199 -88v-686h-286v557l-199 -88v254l199 88v678z" />
    <glyph glyph-name="Nacute" unicode="&#x143;" horiz-adv-x="1599" 
d="M1155 1462h279v-1462h-396l-536 991h-53v-991h-279v1462h395l537 -991h53v991zM1151 1835l-240 -264h-260l187 264h313z" />
    <glyph glyph-name="nacute" unicode="&#x144;" horiz-adv-x="1300" 
d="M1163 0h-286v596q0 111 -53 170t-152 59q-105 0 -169.5 -78t-64.5 -188v-559h-286v1053h276v-97h53q95 123 293 123q194 0 291.5 -112.5t97.5 -319.5v-647zM1016 1489l-240 -297h-252l189 297h303z" />
    <glyph glyph-name="uni0145" unicode="&#x145;" horiz-adv-x="1599" 
d="M1155 1462h279v-1462h-396l-536 991h-53v-991h-279v1462h395l537 -991h53v991zM807 -475h-168l141 127v43h-121v194h287v-237z" />
    <glyph glyph-name="uni0146" unicode="&#x146;" horiz-adv-x="1300" 
d="M1163 0h-286v596q0 111 -53 170t-152 59q-105 0 -169.5 -78t-64.5 -188v-559h-286v1053h276v-97h53q95 123 293 123q194 0 291.5 -112.5t97.5 -319.5v-647zM664 -475h-168l141 127v43h-121v194h287v-237z" />
    <glyph glyph-name="Ncaron" unicode="&#x147;" horiz-adv-x="1599" 
d="M1155 1462h279v-1462h-396l-536 991h-53v-991h-279v1462h395l537 -991h53v991zM676 1571l-223 264h227l94 -113h53l97 113h223l-223 -264h-248z" />
    <glyph glyph-name="ncaron" unicode="&#x148;" horiz-adv-x="1300" 
d="M1163 0h-286v596q0 111 -53 170t-152 59q-105 0 -169.5 -78t-64.5 -188v-559h-286v1053h276v-97h53q95 123 293 123q194 0 291.5 -112.5t97.5 -319.5v-647zM528 1192l-225 297h217l105 -135h53l104 135h215l-225 -297h-244z" />
    <glyph glyph-name="Eng" unicode="&#x14a;" horiz-adv-x="1599" 
d="M1153 1462h281v-1421q0 -218 -126 -334.5t-345 -116.5h-95v248h84q95 0 144 38t59 124h-117l-536 991h-53v-991h-279v1462h395l537 -991h51v991z" />
    <glyph glyph-name="eng" unicode="&#x14b;" horiz-adv-x="1300" 
d="M1163 647v-680q0 -100 -31 -174.5t-87.5 -118t-127 -64t-157.5 -20.5h-133v238h94q156 0 156 162v606q0 111 -53 170t-152 59q-105 0 -169.5 -78.5t-64.5 -189.5v-557h-286v1053h276v-97h53q95 123 293 123q194 0 291.5 -112.5t97.5 -319.5z" />
    <glyph glyph-name="Omacron" unicode="&#x14c;" horiz-adv-x="1630" 
d="M813 1489q170 0 306.5 -58t225 -160t135 -240t46.5 -300t-46.5 -300t-135 -240t-225 -160t-306.5 -58t-306.5 58t-225 160t-135 240t-46.5 300t46.5 300t135 240t225 160t306.5 58zM813 246q100 0 177.5 37.5t125 104t72 153.5t24.5 190t-24.5 190t-72 154t-125 104.5
t-177.5 37.5q-131 0 -222.5 -66t-134 -173.5t-42.5 -246.5t42.5 -246t134 -173t222.5 -66zM1124 1628h-618v168h618v-168z" />
    <glyph glyph-name="omacron" unicode="&#x14d;" horiz-adv-x="1273" 
d="M637 1079q250 0 397.5 -152t147.5 -401t-147.5 -401t-397.5 -152q-248 0 -396.5 152t-148.5 401t148.5 401t396.5 152zM637 211q128 0 193 89t65 226q0 87 -26 156t-86 113.5t-146 44.5q-127 0 -192.5 -89.5t-65.5 -224.5q0 -88 26.5 -157.5t86 -113.5t145.5 -44z
M946 1268h-618v174h618v-174z" />
    <glyph glyph-name="Ohungarumlaut" unicode="&#x150;" horiz-adv-x="1630" 
d="M813 1489q170 0 306.5 -58t225 -160t135 -240t46.5 -300t-46.5 -300t-135 -240t-225 -160t-306.5 -58t-306.5 58t-225 160t-135 240t-46.5 300t46.5 300t135 240t225 160t306.5 58zM813 246q100 0 177.5 37.5t125 104t72 153.5t24.5 190t-24.5 190t-72 154t-125 104.5
t-177.5 37.5q-131 0 -222.5 -66t-134 -173.5t-42.5 -246.5t42.5 -246t134 -173t222.5 -66zM920 1835l-207 -264h-228l158 264h277zM1296 1835l-209 -264h-225l160 264h274z" />
    <glyph glyph-name="ohungarumlaut" unicode="&#x151;" horiz-adv-x="1273" 
d="M637 1079q250 0 397.5 -152t147.5 -401t-147.5 -401t-397.5 -152q-248 0 -396.5 152t-148.5 401t148.5 401t396.5 152zM637 211q128 0 193 89t65 226q0 87 -26 156t-86 113.5t-146 44.5q-127 0 -192.5 -89.5t-65.5 -224.5q0 -88 26.5 -157.5t86 -113.5t145.5 -44z
M735 1489l-198 -297h-228l152 297h274zM1112 1489l-201 -297h-225l152 297h274z" />
    <glyph glyph-name="OE" unicode="&#x152;" horiz-adv-x="2234" 
d="M1450 272h694v-272h-999v86h-53q-128 -113 -340 -113q-293 0 -472.5 206t-179.5 552t179.5 552t472.5 206q208 0 340 -113h53v86h977v-272h-672v-307h500v-267h-500v-344zM813 246q121 0 204.5 47.5t127.5 126.5v622q-44 79 -129 127t-203 48q-130 0 -221.5 -66
t-134.5 -174t-43 -246q0 -103 25 -190t73.5 -153.5t125.5 -104t175 -37.5z" />
    <glyph glyph-name="oe" unicode="&#x153;" horiz-adv-x="2002" 
d="M1911 494h-744q6 -134 66.5 -208.5t179.5 -74.5q149 0 197 111h291q-33 -165 -156 -257t-332 -92q-217 0 -362 158h-54q-135 -158 -368 -158q-242 0 -389.5 154.5t-147.5 398.5t147.5 398.5t389.5 154.5q233 0 375 -161h53q134 161 366 161q219 0 353.5 -140.5
t134.5 -358.5v-86zM631 211q125 0 188.5 89t63.5 226q0 136 -63.5 225t-188.5 89q-83 0 -141 -44t-84.5 -113.5t-26.5 -156.5q0 -136 64.5 -225.5t187.5 -89.5zM1409 864q-95 0 -152 -48.5t-77 -131.5h436q-11 85 -62 132.5t-145 47.5z" />
    <glyph glyph-name="Racute" unicode="&#x154;" horiz-adv-x="1476" 
d="M170 1462h688q244 0 379 -119.5t135 -334.5q0 -136 -56 -236t-161 -156l219 -616h-307l-197 551h-395v-551h-305v1462zM475 1194v-383h340q131 0 188.5 48.5t57.5 144.5q0 103 -62.5 146.5t-214.5 43.5h-309zM1057 1835l-240 -264h-260l186 264h314z" />
    <glyph glyph-name="racute" unicode="&#x155;" horiz-adv-x="917" 
d="M862 1053v-267h-102q-322 0 -322 -325v-461h-286v1053h276v-119h53q32 47 101 83t182 36h98zM791 1489l-240 -297h-252l188 297h304z" />
    <glyph glyph-name="uni0156" unicode="&#x156;" horiz-adv-x="1476" 
d="M170 1462h688q244 0 379 -119.5t135 -334.5q0 -136 -56 -236t-161 -156l219 -616h-307l-197 551h-395v-551h-305v1462zM475 1194v-383h340q131 0 188.5 48.5t57.5 144.5q0 103 -62.5 146.5t-214.5 43.5h-309zM758 -475h-168l141 127v43h-121v194h287v-237z" />
    <glyph glyph-name="uni0157" unicode="&#x157;" horiz-adv-x="917" 
d="M862 1053v-267h-102q-322 0 -322 -325v-461h-286v1053h276v-119h53q32 47 101 83t182 36h98zM299 -475h-168l141 127v43h-120v194h286v-237z" />
    <glyph glyph-name="Rcaron" unicode="&#x158;" horiz-adv-x="1476" 
d="M170 1462h688q244 0 379 -119.5t135 -334.5q0 -136 -56 -236t-161 -156l219 -616h-307l-197 551h-395v-551h-305v1462zM475 1194v-383h340q131 0 188.5 48.5t57.5 144.5q0 103 -62.5 146.5t-214.5 43.5h-309zM596 1571l-223 264h227l94 -113h54l96 113h223l-223 -264
h-248z" />
    <glyph glyph-name="rcaron" unicode="&#x159;" horiz-adv-x="917" 
d="M862 1053v-267h-102q-322 0 -322 -325v-461h-286v1053h276v-119h53q32 47 101 83t182 36h98zM381 1192l-225 297h217l104 -135h53l105 135h215l-225 -297h-244z" />
    <glyph glyph-name="Sacute" unicode="&#x15a;" horiz-adv-x="1413" 
d="M1268 1061h-312q-20 87 -84.5 126.5t-181.5 39.5q-104 0 -171.5 -42t-67.5 -124q0 -67 48.5 -101t133.5 -49l272 -49q398 -75 398 -428q0 -93 -36.5 -175t-107 -146.5t-185 -102t-259.5 -37.5q-275 0 -438 126.5t-187 346.5h311q35 -210 326 -210q123 0 195.5 48.5
t72.5 135.5q0 82 -49.5 122.5t-148.5 59.5l-279 49q-184 32 -279.5 133.5t-95.5 266.5q0 91 37 170t105.5 139t174 94.5t234.5 34.5q240 0 394.5 -115t179.5 -313zM1032 1835l-239 -264h-261l187 264h313z" />
    <glyph glyph-name="sacute" unicode="&#x15b;" horiz-adv-x="1118" 
d="M1008 764h-285q-18 94 -170 94q-70 0 -112 -22.5t-42 -67.5q0 -40 26.5 -57t86.5 -29l190 -29q336 -52 336 -338q0 -141 -123.5 -241.5t-343.5 -100.5q-232 0 -354.5 94.5t-140.5 264.5h284q20 -137 209 -137q88 0 135.5 29t47.5 85q0 52 -35.5 77.5t-116.5 39.5l-205 33
q-134 25 -208 94t-74 197q0 144 113 236.5t335 92.5q194 0 311.5 -85.5t135.5 -229.5zM895 1489l-240 -297h-252l189 297h303z" />
    <glyph glyph-name="Scedilla" unicode="&#x15e;" horiz-adv-x="1413" 
d="M1268 1061h-312q-20 87 -84.5 126.5t-181.5 39.5q-104 0 -171.5 -42t-67.5 -124q0 -67 48.5 -101t133.5 -49l272 -49q398 -75 398 -428q0 -93 -36.5 -175t-107 -146.5t-185 -102t-259.5 -37.5h-17l-34 -92h28q27 21 80 21q68 0 113 -48t45 -128q0 -81 -58.5 -138
t-173.5 -57q-98 0 -154 49t-61 117h148q5 -22 23 -36.5t48 -14.5q33 0 53.5 19.5t20.5 51.5t-20.5 51t-53.5 19q-38 0 -63 -25h-127l84 220q-224 26 -355.5 148t-150.5 316h311q35 -210 326 -210q123 0 195.5 48.5t72.5 135.5q0 82 -49.5 122.5t-148.5 59.5l-279 49
q-184 32 -279.5 133.5t-95.5 266.5q0 91 37 170t105.5 139t174 94.5t234.5 34.5q240 0 394.5 -115t179.5 -313z" />
    <glyph glyph-name="scedilla" unicode="&#x15f;" horiz-adv-x="1118" 
d="M1008 764h-285q-18 94 -170 94q-70 0 -112 -22.5t-42 -67.5q0 -40 26.5 -57t86.5 -29l190 -29q336 -52 336 -338q0 -141 -123.5 -241.5t-343.5 -100.5h-20l-35 -92h29q27 21 80 21q68 0 112.5 -48t44.5 -128q0 -81 -58 -138t-173 -57q-98 0 -154 49t-61 117h147
q5 -22 23.5 -36.5t48.5 -14.5q33 0 53.5 19.5t20.5 51.5t-20.5 51t-53.5 19q-38 0 -63 -25h-127l84 220q-175 24 -268 114.5t-105 235.5h284q20 -137 209 -137q88 0 135.5 29t47.5 85q0 52 -35.5 77.5t-116.5 39.5l-205 33q-134 25 -208 94t-74 197q0 144 113 236.5
t335 92.5q194 0 311.5 -85.5t135.5 -229.5z" />
    <glyph glyph-name="Scaron" unicode="&#x160;" horiz-adv-x="1413" 
d="M1268 1061h-312q-20 87 -84.5 126.5t-181.5 39.5q-104 0 -171.5 -42t-67.5 -124q0 -67 48.5 -101t133.5 -49l272 -49q398 -75 398 -428q0 -93 -36.5 -175t-107 -146.5t-185 -102t-259.5 -37.5q-275 0 -438 126.5t-187 346.5h311q35 -210 326 -210q123 0 195.5 48.5
t72.5 135.5q0 82 -49.5 122.5t-148.5 59.5l-279 49q-184 32 -279.5 133.5t-95.5 266.5q0 91 37 170t105.5 139t174 94.5t234.5 34.5q240 0 394.5 -115t179.5 -313zM575 1571l-223 264h228l94 -113h53l96 113h224l-224 -264h-248z" />
    <glyph glyph-name="scaron" unicode="&#x161;" horiz-adv-x="1118" 
d="M1008 764h-285q-18 94 -170 94q-70 0 -112 -22.5t-42 -67.5q0 -40 26.5 -57t86.5 -29l190 -29q336 -52 336 -338q0 -141 -123.5 -241.5t-343.5 -100.5q-232 0 -354.5 94.5t-140.5 264.5h284q20 -137 209 -137q88 0 135.5 29t47.5 85q0 52 -35.5 77.5t-116.5 39.5l-205 33
q-134 25 -208 94t-74 197q0 144 113 236.5t335 92.5q194 0 311.5 -85.5t135.5 -229.5zM442 1192l-225 297h217l105 -135h53l104 135h215l-225 -297h-244z" />
    <glyph glyph-name="uni0162" unicode="&#x162;" horiz-adv-x="1280" 
d="M1247 1462v-268h-454v-1194h-306v1194h-454v268h1214zM643 -475h-168l141 127v43h-120v194h286v-237z" />
    <glyph glyph-name="uni0163" unicode="&#x163;" horiz-adv-x="829" 
d="M489 1053h232v-240h-232v-453q0 -116 136 -116h96v-244h-100q-76 0 -136 9t-114 31.5t-90 59t-57 93.5t-21 133v487h-154v240h154v295h286v-295zM473 -475h-168l141 127v43h-120v194h286v-237z" />
    <glyph glyph-name="Tcaron" unicode="&#x164;" horiz-adv-x="1280" 
d="M1247 1462v-268h-454v-1194h-306v1194h-454v268h1214zM516 1571l-223 264h227l94 -113h54l96 113h223l-223 -264h-248z" />
    <glyph glyph-name="tcaron" unicode="&#x165;" horiz-adv-x="907" 
d="M809 1370h-139v248h301v-299l-156 -168h-162l156 168v51zM489 1053h232v-240h-232v-453q0 -116 136 -116h96v-244h-100q-76 0 -136 9t-114 31.5t-90 59t-57 93.5t-21 133v487h-154v240h154v295h286v-295z" />
    <glyph glyph-name="Tbar" unicode="&#x166;" horiz-adv-x="1280" 
d="M1247 1462v-268h-454v-336h297v-233h-297v-625h-306v625h-299v233h299v336h-454v268h1214z" />
    <glyph glyph-name="tbar" unicode="&#x167;" horiz-adv-x="823" 
d="M489 1053h232v-213h-232v-160h232v-213h-232v-107q0 -116 136 -116h96v-244h-100q-76 0 -136 9t-114 31.5t-90 59t-57 93.5t-21 133v141h-154v213h154v160h-154v213h154v295h286v-295z" />
    <glyph glyph-name="Utilde" unicode="&#x168;" horiz-adv-x="1556" 
d="M1085 1462h306v-923q0 -272 -159.5 -419t-455.5 -147q-293 0 -451.5 147t-158.5 419v923h305v-917q0 -137 80.5 -218t226.5 -81q147 0 227 80.5t80 218.5v917zM991 1835h131q0 -124 -53.5 -195t-157.5 -71q-44 0 -86 15t-69 33t-61 33t-64 15q-36 0 -49 -24t-15 -70h-129
q0 126 52.5 196t156.5 70q43 0 85.5 -14.5t70.5 -32.5t63 -32.5t66 -14.5q34 0 45.5 23.5t13.5 68.5z" />
    <glyph glyph-name="utilde" unicode="&#x169;" horiz-adv-x="1300" 
d="M137 1053h287v-596q0 -111 53 -170.5t152 -59.5q105 0 169 78.5t64 188.5v559h287v-1053h-277v96h-53q-95 -123 -293 -123q-194 0 -291.5 113t-97.5 320v647zM856 1483h129q0 -133 -53 -210t-156 -77q-43 0 -85.5 18.5t-69.5 40t-60 40t-61 18.5q-68 0 -68 -117h-129
q0 134 53.5 210.5t155.5 76.5q43 0 85.5 -18.5t70 -40t61.5 -40t62 -18.5q65 0 65 117z" />
    <glyph glyph-name="Umacron" unicode="&#x16a;" horiz-adv-x="1556" 
d="M1085 1462h306v-923q0 -272 -159.5 -419t-455.5 -147q-293 0 -451.5 147t-158.5 419v923h305v-917q0 -137 80.5 -218t226.5 -81q147 0 227 80.5t80 218.5v917zM1087 1628h-618v168h618v-168z" />
    <glyph glyph-name="umacron" unicode="&#x16b;" horiz-adv-x="1300" 
d="M139 1053h287v-596q0 -111 53 -170.5t152 -59.5q105 0 169 78.5t64 188.5v559h287v-1053h-277v96h-53q-95 -123 -293 -123q-194 0 -291.5 113t-97.5 320v647zM952 1268h-618v174h618v-174z" />
    <glyph glyph-name="Uring" unicode="&#x16e;" horiz-adv-x="1556" 
d="M1085 1462h306v-923q0 -272 -159.5 -419t-455.5 -147q-293 0 -451.5 147t-158.5 419v923h305v-917q0 -137 80.5 -218t226.5 -81q147 0 227 80.5t80 218.5v917zM776 2003q102 0 172 -68.5t70 -167.5t-70 -167t-172 -68q-99 0 -170 68.5t-71 166.5t71 167t170 69zM776 1663
q43 0 74 30.5t31 73.5t-31 74t-74 31q-41 0 -71.5 -31t-30.5 -74t30.5 -73.5t71.5 -30.5z" />
    <glyph glyph-name="uring" unicode="&#x16f;" horiz-adv-x="1300" 
d="M139 1053h287v-596q0 -111 53 -170.5t152 -59.5q105 0 169 78.5t64 188.5v559h287v-1053h-277v96h-53q-95 -123 -293 -123q-194 0 -291.5 113t-97.5 320v647zM643 1640q102 0 172 -68t70 -167t-70 -167.5t-172 -68.5q-99 0 -170.5 69t-71.5 167t71.5 166.5t170.5 68.5z
M643 1303q43 0 74 30t31 72q0 43 -31 73.5t-74 30.5q-41 0 -71.5 -30.5t-30.5 -73.5q0 -42 30 -72t72 -30z" />
    <glyph glyph-name="Uhungarumlaut" unicode="&#x170;" horiz-adv-x="1556" 
d="M1085 1462h306v-923q0 -272 -159.5 -419t-455.5 -147q-293 0 -451.5 147t-158.5 419v923h305v-917q0 -137 80.5 -218t226.5 -81q147 0 227 80.5t80 218.5v917zM903 1835l-207 -264h-227l158 264h276zM1280 1835l-209 -264h-225l160 264h274z" />
    <glyph glyph-name="uhungarumlaut" unicode="&#x171;" horiz-adv-x="1300" 
d="M139 1053h287v-596q0 -111 53 -170.5t152 -59.5q105 0 169 78.5t64 188.5v559h287v-1053h-277v96h-53q-95 -123 -293 -123q-194 0 -291.5 113t-97.5 320v647zM727 1489l-199 -297h-227l152 297h274zM1104 1489l-201 -297h-225l151 297h275z" />
    <glyph glyph-name="Uogonek" unicode="&#x172;" horiz-adv-x="1556" 
d="M1085 1462h306v-923q0 -386 -314 -514q-108 -43 -151 -83t-43 -92q0 -42 31.5 -67t91.5 -25v-168h-62q-141 0 -207.5 53.5t-66.5 143.5q0 52 26 101.5t78 84.5q-293 2 -450.5 148.5t-157.5 417.5v923h305v-917q0 -137 80.5 -218t226.5 -81q147 0 227 80.5t80 218.5v917z
" />
    <glyph glyph-name="uogonek" unicode="&#x173;" horiz-adv-x="1300" 
d="M139 1053h287v-596q0 -111 53 -170.5t152 -59.5q105 0 169 78.5t64 188.5v559h287v-1053q-55 -30 -87 -69.5t-32 -80.5q0 -42 31.5 -67t91.5 -25v-168h-61q-141 0 -208 53.5t-67 143.5q0 64 39 121.5t115 91.5h-99v96h-53q-95 -123 -293 -123q-194 0 -291.5 113
t-97.5 320v647z" />
    <glyph glyph-name="Ydieresis" unicode="&#x178;" horiz-adv-x="1390" 
d="M666 879h57l313 583h324l-512 -942v-520h-307v520l-510 942h321zM1016 1602h-240v233h240v-233zM614 1602h-241v233h241v-233z" />
    <glyph glyph-name="Zacute" unicode="&#x179;" horiz-adv-x="1363" 
d="M1241 1462v-329l-762 -803v-58h795v-272h-1184v330l766 803v57h-711v272h1096zM1028 1835l-240 -264h-260l187 264h313z" />
    <glyph glyph-name="zacute" unicode="&#x17a;" horiz-adv-x="1134" 
d="M1032 0h-930v291l527 469v53h-494v240h881v-293l-527 -469v-53h543v-238zM887 1489l-240 -297h-252l189 297h303z" />
    <glyph glyph-name="Zdotaccent" unicode="&#x17b;" horiz-adv-x="1363" 
d="M1241 1462v-329l-762 -803v-58h795v-272h-1184v330l766 803v57h-711v272h1096zM827 1602h-290v233h290v-233z" />
    <glyph glyph-name="zdotaccent" unicode="&#x17c;" horiz-adv-x="1134" 
d="M1032 0h-930v291l527 469v53h-494v240h881v-293l-527 -469v-53h543v-238zM709 1233h-291v256h291v-256z" />
    <glyph glyph-name="Zcaron" unicode="&#x17d;" horiz-adv-x="1363" 
d="M1241 1462v-329l-762 -803v-58h795v-272h-1184v330l766 803v57h-711v272h1096zM559 1571l-223 264h227l94 -113h54l96 113h223l-223 -264h-248z" />
    <glyph glyph-name="zcaron" unicode="&#x17e;" horiz-adv-x="1134" 
d="M1032 0h-930v291l527 469v53h-494v240h881v-293l-527 -469v-53h543v-238zM461 1192l-225 297h217l104 -135h53l105 135h215l-225 -297h-244z" />
    <glyph glyph-name="florin" unicode="&#x192;" horiz-adv-x="942" 
d="M367 -410h-285l188 1084h-182v239h225l25 142q40 234 158 334t325 100h101v-240h-86q-99 0 -146 -53.5t-72 -171.5l-20 -111h217v-239h-258z" />
    <glyph glyph-name="circumflex" unicode="&#x2c6;" horiz-adv-x="858" 
d="M551 1489l225 -297h-217l-106 135h-54l-104 -135h-213l225 297h244z" />
    <glyph glyph-name="caron" unicode="&#x2c7;" horiz-adv-x="858" 
d="M307 1192l-225 297h217l104 -135h54l104 135h215l-225 -297h-244z" />
    <glyph glyph-name="breve" unicode="&#x2d8;" horiz-adv-x="755" 
d="M504 1489h170q0 -138 -75.5 -217.5t-219.5 -79.5q-145 0 -221 79.5t-76 217.5h172q0 -67 31.5 -103t93.5 -36q61 0 93 36t32 103z" />
    <glyph glyph-name="dotaccent" unicode="&#x2d9;" horiz-adv-x="454" 
d="M373 1233h-291v256h291v-256z" />
    <glyph glyph-name="ring" unicode="&#x2da;" horiz-adv-x="647" 
d="M324 1640q102 0 171.5 -68t69.5 -167t-69.5 -167.5t-171.5 -68.5q-99 0 -170.5 69t-71.5 167t71.5 166.5t170.5 68.5zM324 1303q43 0 73.5 29.5t30.5 72.5t-30.5 73.5t-73.5 30.5q-42 0 -72.5 -30.5t-30.5 -73.5q0 -42 30.5 -72t72.5 -30z" />
    <glyph glyph-name="ogonek" unicode="&#x2db;" horiz-adv-x="497" 
d="M279 18l122 -18q-55 -30 -86.5 -69.5t-31.5 -80.5q0 -42 31.5 -67t91.5 -25v-168h-62q-141 0 -207.5 53.5t-66.5 143.5q0 74 53.5 140t155.5 91z" />
    <glyph glyph-name="tilde" unicode="&#x2dc;" horiz-adv-x="845" 
d="M635 1483h129q0 -133 -53 -210t-156 -77q-43 0 -85.5 18.5t-69.5 40t-60 40t-61 18.5q-68 0 -68 -117h-129q0 134 53.5 210.5t155.5 76.5q43 0 85.5 -18.5t70 -40t61 -40t61.5 -18.5q66 0 66 117z" />
    <glyph glyph-name="hungarumlaut" unicode="&#x2dd;" horiz-adv-x="966" 
d="M508 1489l-199 -297h-227l151 297h275zM885 1489l-201 -297h-225l151 297h275z" />
    <glyph glyph-name="uni03A9" unicode="&#x3a9;" horiz-adv-x="1581" 
d="M1241 293v-53h236v-240h-603v250q291 197 291 524q0 207 -103 325t-271 118q-169 0 -273 -118t-104 -325q0 -329 288 -524v-250h-600v240h236v53q-104 80 -171 209.5t-67 300.5q0 197 81 351.5t239.5 244.5t370.5 90t369 -90t237 -244t80 -352q0 -171 -65.5 -300
t-170.5 -210z" />
    <glyph glyph-name="pi" unicode="&#x3c0;" horiz-adv-x="1323" 
d="M1231 0h-115q-189 0 -271.5 83t-82.5 273v457h-268v-813h-287v813h-158v240h1180v-240h-180v-442q0 -69 24.5 -101t85.5 -32h72v-238z" />
    <glyph glyph-name="uni0401" unicode="&#x401;" horiz-adv-x="1363" 
d="M475 272h799v-272h-1104v1462h1081v-272h-776v-307h604v-267h-604v-344zM1028 1602h-240v233h240v-233zM627 1602h-242v233h242v-233z" />
    <glyph glyph-name="uni0402" unicode="&#x402;" horiz-adv-x="1697" 
d="M1599 432q0 -101 -26 -180.5t-71 -131t-110 -85.5t-137.5 -48t-158.5 -14q-94 0 -109 9v272q32 -8 78 -8q221 0 221 182q0 91 -68.5 139.5t-226.5 48.5q-136 0 -260 -28v-588h-305v1194h-393v268h1202v-268h-504v-336q132 31 322 31q120 0 214.5 -25.5t156 -68
t101.5 -102t57 -124t17 -137.5z" />
    <glyph glyph-name="uni0403" unicode="&#x403;" horiz-adv-x="1306" 
d="M1006 1847l-240 -297h-252l188 297h304zM1225 1190h-750v-1190h-305v1462h1055v-272z" />
    <glyph glyph-name="uni0404" unicode="&#x404;" horiz-adv-x="1505" 
d="M1087 432h320q-30 -205 -194.5 -332t-415.5 -127q-163 0 -295.5 56.5t-220 157t-134.5 239.5t-47 305q0 226 80 396t238 266t377 96q238 0 398.5 -120t197.5 -318h-318q-26 79 -99.5 122.5t-182.5 43.5q-156 0 -249 -92.5t-114 -250.5h541v-266h-543q18 -165 113 -263.5
t256 -98.5q116 0 192.5 49t99.5 137z" />
    <glyph glyph-name="uni0405" unicode="&#x405;" horiz-adv-x="1413" 
d="M1268 1061h-312q-20 87 -84.5 126.5t-181.5 39.5q-104 0 -171.5 -42t-67.5 -124q0 -67 48.5 -101t133.5 -49l272 -49q398 -75 398 -428q0 -93 -36.5 -175t-107 -146.5t-185 -102t-259.5 -37.5q-275 0 -438 126.5t-187 346.5h311q35 -210 326 -210q123 0 195.5 48.5
t72.5 135.5q0 82 -49.5 122.5t-148.5 59.5l-279 49q-184 32 -279.5 133.5t-95.5 266.5q0 91 37 170t105.5 139t174 94.5t234.5 34.5q240 0 394.5 -115t179.5 -313z" />
    <glyph glyph-name="uni0406" unicode="&#x406;" horiz-adv-x="663" 
d="M180 1462h305v-1462h-305v1462z" />
    <glyph glyph-name="uni0407" unicode="&#x407;" horiz-adv-x="665" 
d="M180 1462h305v-1462h-305v1462zM655 1602h-239v233h239v-233zM254 1602h-242v233h242v-233z" />
    <glyph glyph-name="uni0408" unicode="&#x408;" horiz-adv-x="1236" 
d="M573 -27q-149 0 -262.5 56t-180 168t-71.5 268h303q15 -219 209 -219q94 0 144.5 63t50.5 185v968h305v-970q0 -245 -132 -382t-366 -137z" />
    <glyph glyph-name="uni0409" unicode="&#x409;" horiz-adv-x="2355" 
d="M1382 268h285q149 0 214 53.5t65 161.5q0 107 -65.5 161t-213.5 54h-285v-430zM324 1462h1058v-495h332q257 0 400 -127.5t143 -354.5q0 -229 -142.5 -357t-400.5 -128h-639v1190h-463v-395q0 -169 -13.5 -294.5t-43 -213t-69.5 -144t-101.5 -88t-128.5 -43.5t-160 -12
h-53v299h51q45 0 74 5.5t57.5 24t45 52.5t29.5 91.5t18.5 141.5t5.5 201v647z" />
    <glyph glyph-name="uni040A" unicode="&#x40a;" horiz-adv-x="2379" 
d="M1741 0h-639v612h-627v-612h-305v1462h305v-569h627v569h305v-495h334q257 0 398.5 -127.5t141.5 -354.5q0 -229 -141.5 -357t-398.5 -128zM1407 268h285q149 0 213.5 53.5t64.5 161.5t-64.5 161.5t-213.5 53.5h-285v-430z" />
    <glyph glyph-name="uni040B" unicode="&#x40b;" horiz-adv-x="1703" 
d="M1593 0h-305v373q0 26 -0.5 40.5t-3 38.5t-8 38t-16 33.5t-25.5 31t-38 25t-53 20.5t-70.5 11.5t-90.5 4.5q-141 0 -252 -32v-584h-305v1194h-393v268h1202v-268h-504v-340q149 35 326 35q84 0 154 -9t122 -23t92.5 -38.5t67.5 -48.5t46.5 -59.5t29.5 -65t15.5 -72.5
t7 -74t1.5 -77v-422z" />
    <glyph glyph-name="uni040C" unicode="&#x40c;" horiz-adv-x="1507" 
d="M170 0v1462h305v-571h346l269 571h315l-328 -710l346 -752h-315l-285 614h-348v-614h-305zM1110 1835l-240 -264h-260l187 264h313z" />
    <glyph glyph-name="uni040E" unicode="&#x40e;" horiz-adv-x="1396" 
d="M684 807h57l310 655h309l-701 -1462h-305l209 438l-540 1024h319zM864 1851h226q-12 -148 -114 -231.5t-274 -83.5t-273.5 83t-113.5 232h226q6 -57 47.5 -92t113.5 -35q71 0 112.5 35t49.5 92z" />
    <glyph glyph-name="uni040F" unicode="&#x40f;" horiz-adv-x="1572" 
d="M635 -358v358h-465v1462h305v-1190h625v1190h305v-1462h-465v-358h-305z" />
    <glyph glyph-name="uni0410" unicode="&#x410;" horiz-adv-x="1478" 
d="M1133 0l-119 395h-557l-119 -395h-301l465 1462h473l467 -1462h-309zM688 1169l-153 -507h397l-154 507h-90z" />
    <glyph glyph-name="uni0411" unicode="&#x411;" horiz-adv-x="1468" 
d="M475 911h385q243 0 376.5 -119.5t133.5 -334.5t-133.5 -336t-376.5 -121h-690v1462h1071v-272h-766v-279zM475 268h328q138 0 196 47t58 146q0 97 -58.5 145.5t-195.5 48.5h-328v-387z" />
    <glyph glyph-name="uni0412" unicode="&#x412;" horiz-adv-x="1482" 
d="M1188 786v-53q82 -37 136 -120.5t54 -188.5q0 -192 -127 -308t-377 -116h-704v1462h686q117 0 210.5 -31t151.5 -84.5t88.5 -122.5t30.5 -149q0 -98 -40 -175t-109 -114zM475 883h344q205 0 205 164q0 161 -207 161h-342v-325zM475 260h354q236 0 236 180q0 187 -231 187
h-359v-367z" />
    <glyph glyph-name="uni0413" unicode="&#x413;" horiz-adv-x="1306" 
d="M1225 1190h-750v-1190h-305v1462h1055v-272z" />
    <glyph glyph-name="uni0414" unicode="&#x414;" horiz-adv-x="1636" 
d="M1378 272h209v-630h-297v358h-960v-358h-297v630h151q174 309 174 869v321h1020v-1190zM1081 272v918h-440v-129q0 -513 -147 -789h587z" />
    <glyph glyph-name="uni0415" unicode="&#x415;" horiz-adv-x="1363" 
d="M475 272h799v-272h-1104v1462h1081v-272h-776v-307h604v-267h-604v-344z" />
    <glyph glyph-name="uni0416" unicode="&#x416;" horiz-adv-x="2205" 
d="M1554 604h-303v-604h-297v604h-303l-248 -604h-311l309 741l-290 721h311l229 -581h303v581h297v-581h303l230 581h311l-291 -721l310 -741h-312z" />
    <glyph glyph-name="uni0417" unicode="&#x417;" horiz-adv-x="1425" 
d="M954 1051q0 81 -66.5 123.5t-170.5 42.5q-233 0 -266 -168h-316q23 210 178 325t408 115q254 0 400.5 -112t146.5 -290q0 -108 -41.5 -178.5t-106.5 -105.5v-53q93 -34 147 -115t54 -211q0 -195 -161 -323t-437 -128q-294 0 -455 123t-188 348h321q52 -198 322 -198
q129 0 203.5 51t74.5 139q0 182 -256 182h-215v267h215q111 0 160 45.5t49 120.5z" />
    <glyph glyph-name="uni0418" unicode="&#x418;" horiz-adv-x="1613" 
d="M170 1462h285v-1020h53l526 1020h412v-1462h-287v1042h-53l-539 -1042h-397v1462z" />
    <glyph glyph-name="uni0419" unicode="&#x419;" horiz-adv-x="1613" 
d="M170 1462h285v-1020h53l526 1020h412v-1462h-287v1042h-53l-539 -1042h-397v1462zM969 1851h225q-12 -149 -113.5 -232t-273.5 -83t-273.5 83t-113.5 232h225q6 -57 48 -92t114 -35q71 0 112.5 35t49.5 92z" />
    <glyph glyph-name="uni041A" unicode="&#x41a;" horiz-adv-x="1466" 
d="M170 0v1462h305v-571h346l269 571h315l-328 -710l346 -752h-315l-285 614h-348v-614h-305z" />
    <glyph glyph-name="uni041B" unicode="&#x41b;" horiz-adv-x="1562" 
d="M43 299h51q45 0 74 5.5t57.5 24t45 52.5t29.5 91.5t18.5 141.5t5.5 201v647h1071v-1462h-308v1190h-475v-395q0 -169 -13.5 -294.5t-43 -213t-69.5 -144t-101.5 -88t-128.5 -43.5t-160 -12h-53v299z" />
    <glyph glyph-name="uni041C" unicode="&#x41c;" horiz-adv-x="1808" 
d="M170 0v1462h469l240 -590h53l237 590h471v-1462h-284v1090h-53l-246 -590h-305l-244 590h-53v-1090h-285z" />
    <glyph glyph-name="uni041D" unicode="&#x41d;" horiz-adv-x="1595" 
d="M1122 1462h305v-1462h-305v612h-647v-612h-305v1462h305v-569h647v569z" />
    <glyph glyph-name="uni041E" unicode="&#x41e;" horiz-adv-x="1626" 
d="M813 1489q170 0 306.5 -58t225 -160t135 -240t46.5 -300t-46.5 -300t-135 -240t-225 -160t-306.5 -58t-306.5 58t-225 160t-135 240t-46.5 300t46.5 300t135 240t225 160t306.5 58zM813 246q100 0 177.5 37.5t125 104t72 153.5t24.5 190t-24.5 190t-72 154t-125 104.5
t-177.5 37.5q-131 0 -222.5 -66t-134 -173.5t-42.5 -246.5t42.5 -246t134 -173t222.5 -66z" />
    <glyph glyph-name="uni041F" unicode="&#x41f;" horiz-adv-x="1579" 
d="M170 1462h1241v-1462h-305v1190h-631v-1190h-305v1462z" />
    <glyph glyph-name="uni0420" unicode="&#x420;" horiz-adv-x="1464" 
d="M170 1462h668q251 0 389.5 -122.5t138.5 -342.5q0 -223 -138.5 -348t-389.5 -125h-363v-524h-305v1462zM475 793h320q137 0 197.5 50t60.5 150q0 101 -60.5 151t-197.5 50h-320v-401z" />
    <glyph glyph-name="uni0421" unicode="&#x421;" horiz-adv-x="1509" 
d="M1094 467h317q-33 -223 -195.5 -358.5t-414.5 -135.5q-219 0 -378.5 96t-241 266.5t-81.5 395.5t82 395.5t241.5 266.5t377.5 96q239 0 399 -124.5t197 -328.5h-320q-52 181 -276 181q-96 0 -170.5 -37.5t-121.5 -104.5t-71 -154t-24 -190q0 -139 41 -246t130 -173
t216 -66q118 0 194 58t99 163z" />
    <glyph glyph-name="uni0422" unicode="&#x422;" horiz-adv-x="1280" 
d="M1247 1462v-268h-454v-1194h-306v1194h-454v268h1214z" />
    <glyph glyph-name="uni0423" unicode="&#x423;" horiz-adv-x="1396" 
d="M684 807h57l310 655h309l-701 -1462h-305l209 438l-540 1024h319z" />
    <glyph glyph-name="uni0424" unicode="&#x424;" horiz-adv-x="1837" 
d="M1063 1337h20q199 0 347.5 -64.5t233.5 -198t85 -322.5q0 -193 -85.5 -326.5t-233 -196.5t-347.5 -63h-20v-193h-291v193h-18q-309 0 -488.5 149t-179.5 437q0 189 86 322.5t234.5 198t347.5 64.5h18v172h291v-172zM754 426h18v651h-18q-171 0 -267 -80t-96 -245
q0 -163 96 -244.5t267 -81.5zM1063 426h20q170 0 265.5 81.5t95.5 244.5q0 166 -95 245.5t-266 79.5h-20v-651z" />
    <glyph glyph-name="uni0425" unicode="&#x425;" horiz-adv-x="1421" 
d="M1047 0l-306 602h-63l-311 -602h-328l403 768l-348 694h314l272 -536h63l281 536h309l-354 -686l403 -776h-335z" />
    <glyph glyph-name="uni0426" unicode="&#x426;" horiz-adv-x="1660" 
d="M1315 -358v358h-1145v1462h305v-1190h623v1190h305v-1190h209v-630h-297z" />
    <glyph glyph-name="uni0427" unicode="&#x427;" horiz-adv-x="1443" 
d="M109 1462h305v-418q0 -26 0.5 -40t3 -38t8 -38t16 -33.5t25.5 -30.5t38 -24.5t53 -20.5t71 -11.5t90 -4.5q137 0 252 33v626h305v-1462h-305v565q-146 -35 -326 -35q-84 0 -154 9t-122 23t-92.5 38t-67.5 48t-46.5 59.5t-29.5 65t-15.5 72.5t-7 74.5t-1.5 77.5v465z" />
    <glyph glyph-name="uni0428" unicode="&#x428;" horiz-adv-x="2154" 
d="M930 272v1190h297v-1190h463v1190h297v-1462h-1817v1462h297v-1190h463z" />
    <glyph glyph-name="uni0429" unicode="&#x429;" horiz-adv-x="2244" 
d="M1898 -358v358h-1728v1462h297v-1190h463v1190h297v-1190h463v1190h297v-1190h208v-630h-297z" />
    <glyph glyph-name="uni042A" unicode="&#x42a;" horiz-adv-x="1685" 
d="M1044 0h-657v1190h-373v272h678v-495h352q258 0 400.5 -127.5t142.5 -354.5q0 -229 -142 -357t-401 -128zM692 268h305q148 0 212.5 53.5t64.5 161.5q0 107 -65 161t-212 54h-305v-430z" />
    <glyph glyph-name="uni042B" unicode="&#x42b;" horiz-adv-x="1957" 
d="M1485 1462h305v-1462h-305v1462zM475 268h258q148 0 212.5 53.5t64.5 161.5q0 107 -65 161t-212 54h-258v-430zM780 0h-610v1462h305v-495h305q257 0 400 -127.5t143 -354.5q0 -229 -142.5 -357t-400.5 -128z" />
    <glyph glyph-name="uni042C" unicode="&#x42c;" horiz-adv-x="1468" 
d="M475 268h303q149 0 214 54.5t65 162.5t-65 160.5t-214 52.5h-303v-430zM829 0h-659v1462h305v-495h354q257 0 399 -127.5t142 -354.5q0 -229 -142 -357t-399 -128z" />
    <glyph glyph-name="uni042D" unicode="&#x42d;" horiz-adv-x="1486" 
d="M80 432h319q23 -88 99.5 -137t193.5 -49q161 0 256 98.5t113 263.5h-543v266h541q-21 158 -114 250.5t-249 92.5q-109 0 -182.5 -43.5t-99.5 -122.5h-318q37 198 197.5 318t398.5 120q219 0 377 -96.5t237.5 -266t79.5 -395.5q0 -222 -80.5 -392.5t-239.5 -268
t-376 -97.5q-251 0 -415.5 127t-194.5 332z" />
    <glyph glyph-name="uni042E" unicode="&#x42e;" horiz-adv-x="2220" 
d="M1417 1489q166 0 300.5 -58t221.5 -160t134 -240t47 -300t-47 -300t-134 -240t-221.5 -160t-300.5 -58q-151 0 -275.5 48t-211 133.5t-139.5 202t-68 255.5h-248v-612h-305v1462h305v-569h254q43 269 222 432.5t466 163.5zM1417 246q126 0 215.5 66t131.5 173.5t42 245.5
t-42 246t-131.5 174t-215.5 66q-127 0 -216.5 -66t-131 -174t-41.5 -246t41.5 -245.5t131 -173.5t216.5 -66z" />
    <glyph glyph-name="uni042F" unicode="&#x42f;" horiz-adv-x="1474" 
d="M618 1462h689v-1462h-306v551h-395l-196 -551h-308l220 616q-105 56 -161.5 156.5t-56.5 235.5q0 215 135 334.5t379 119.5zM1001 811v383h-309q-151 0 -213.5 -43.5t-62.5 -146.5q0 -96 57.5 -144.5t188.5 -48.5h339z" />
    <glyph glyph-name="uni0430" unicode="&#x430;" horiz-adv-x="1200" 
d="M799 0v90h-54q-100 -117 -294 -117q-172 0 -272.5 102.5t-100.5 248.5q0 65 24 124.5t72.5 111.5t134 83t197.5 31h280v26q0 164 -186 164q-166 0 -178 -112h-285q3 99 62 174t159.5 114t227.5 39q225 0 351 -95.5t126 -299.5v-684h-264zM551 201q104 0 169.5 61.5
t65.5 159.5v65h-225q-196 0 -196 -141q0 -71 48.5 -108t137.5 -37z" />
    <glyph glyph-name="uni0431" unicode="&#x431;" horiz-adv-x="1280" 
d="M686 1018q225 0 363.5 -146.5t138.5 -375.5t-150.5 -376t-394.5 -147q-263 0 -407 166.5t-144 483.5q0 76 5 144t17.5 140t32.5 132.5t52.5 117t75 98.5t102 72t131.5 41l270 43q61 11 82 25.5t25 52.5h231q0 -53 -7.5 -93.5t-28.5 -82.5t-65.5 -70.5t-111.5 -40.5
l-346 -55q-110 -17 -167.5 -80.5t-80.5 -192.5h53q54 76 132.5 110t191.5 34zM641 211q127 0 192.5 84t65.5 209q0 80 -26 143.5t-86 104.5t-146 41q-128 0 -194 -82.5t-66 -206.5q0 -80 26.5 -144.5t87 -106.5t146.5 -42z" />
    <glyph glyph-name="uni0432" unicode="&#x432;" horiz-adv-x="1239" 
d="M965 584v-54q80 -21 129 -82.5t49 -156.5q0 -145 -95.5 -218t-277.5 -73h-618v1053h602q158 0 244.5 -71.5t86.5 -195.5q0 -73 -34 -124.5t-86 -77.5zM432 207h273q81 0 115 30.5t34 86.5q0 118 -149 118h-273v-235zM432 846v-203h244q123 0 123 100q0 103 -123 103h-244
z" />
    <glyph glyph-name="uni0433" unicode="&#x433;" horiz-adv-x="1062" 
d="M152 0v1053h852v-240h-566v-813h-286z" />
    <glyph glyph-name="uni0434" unicode="&#x434;" horiz-adv-x="1419" 
d="M1174 238h186v-531h-270v293h-781v-293h-270v531h156q92 236 92 512v303h887v-815zM887 238v575h-342v-65q0 -293 -78 -510h420z" />
    <glyph glyph-name="uni0435" unicode="&#x435;" horiz-adv-x="1222" 
d="M1130 580v-86h-753q6 -137 70.5 -210t185.5 -73q154 0 196 111h291q-33 -163 -157.5 -256t-333.5 -93q-249 0 -393 151.5t-144 405.5q0 252 143.5 400.5t387.5 148.5q233 0 367.5 -139t139.5 -360zM621 864q-188 0 -234 -180h451q-13 83 -67.5 131.5t-149.5 48.5z" />
    <glyph glyph-name="uni0436" unicode="&#x436;" horiz-adv-x="1775" 
d="M553 418l-191 -418h-290l247 541l-231 512h287l178 -396h203v396h266v-396h201l178 396h289l-234 -512l250 -541h-293l-190 418h-201v-418h-266v418h-203z" />
    <glyph glyph-name="uni0437" unicode="&#x437;" horiz-adv-x="1167" 
d="M752 743q0 50 -47.5 76.5t-133.5 26.5q-172 0 -196 -115h-262q17 171 146 259.5t333 88.5q205 0 324.5 -85.5t119.5 -217.5q0 -153 -106 -201v-53q137 -45 137 -217q0 -145 -130.5 -238.5t-344.5 -93.5q-241 0 -369 93t-147 264h264q35 -123 238 -123q202 0 202 112
q0 56 -39.5 80.5t-130.5 24.5h-172v219h162q152 0 152 100z" />
    <glyph glyph-name="uni0438" unicode="&#x438;" horiz-adv-x="1320" 
d="M430 0h-278v1053h278v-594h49l408 594h282v-1053h-278v592h-49z" />
    <glyph glyph-name="uni0439" unicode="&#x439;" horiz-adv-x="1320" 
d="M430 0h-278v1053h278v-594h49l408 594h282v-1053h-278v592h-49zM811 1470h221q-12 -145 -107.5 -226t-265.5 -81q-169 0 -263.5 81t-106.5 226h221q7 -55 43.5 -89.5t105.5 -34.5q137 0 152 124z" />
    <glyph glyph-name="uni043A" unicode="&#x43a;" horiz-adv-x="1251" 
d="M881 0l-213 420h-230v-420h-286v1053h286v-394h234l200 394h293l-258 -508l275 -545h-301z" />
    <glyph glyph-name="uni043B" unicode="&#x43b;" horiz-adv-x="1325" 
d="M45 0v274h37q69 0 109.5 29t61.5 103t21 204v443h900v-1053h-287v813h-348v-213q0 -223 -50.5 -355.5t-148.5 -188.5t-258 -56h-37z" />
    <glyph glyph-name="uni043C" unicode="&#x43c;" horiz-adv-x="1542" 
d="M152 0v1053h380l213 -443h54l213 443h379v-1053h-279v672h-53l-168 -340h-240l-168 340h-53v-672h-278z" />
    <glyph glyph-name="uni043D" unicode="&#x43d;" 
d="M1163 0h-286v420h-439v-420h-286v1053h286v-394h439v394h286v-1053z" />
    <glyph glyph-name="uni043E" unicode="&#x43e;" horiz-adv-x="1273" 
d="M637 1079q250 0 397.5 -152t147.5 -401t-147.5 -401t-397.5 -152q-248 0 -396.5 152t-148.5 401t148.5 401t396.5 152zM637 211q128 0 193 89t65 226q0 87 -26 156t-86 113.5t-146 44.5q-127 0 -192.5 -89.5t-65.5 -224.5q0 -88 26.5 -157.5t86 -113.5t145.5 -44z" />
    <glyph glyph-name="uni043F" unicode="&#x43f;" horiz-adv-x="1306" 
d="M1155 0h-287v813h-430v-813h-286v1053h1003v-1053z" />
    <glyph glyph-name="uni0440" unicode="&#x440;" 
d="M684 840q-126 0 -191 -89.5t-65 -224.5t65 -225t191 -90q123 0 187.5 88.5t64.5 226.5t-64.5 226t-187.5 88zM152 1053h276v-97h53q97 123 295 123q205 0 326 -155t121 -398q0 -245 -121.5 -399t-325.5 -154q-193 0 -284 123h-54v-506h-286v1463z" />
    <glyph glyph-name="uni0441" unicode="&#x441;" horiz-adv-x="1193" 
d="M821 354h283q-20 -171 -152 -276t-329 -105q-244 0 -387.5 151t-143.5 402q0 250 144 401.5t387 151.5q196 0 324.5 -99.5t148.5 -262.5h-285q-35 123 -186 123q-126 0 -186 -87t-60 -225q0 -67 14 -122.5t42.5 -100t77 -69.5t112.5 -25q85 0 134.5 37t61.5 106z" />
    <glyph glyph-name="uni0442" unicode="&#x442;" horiz-adv-x="1099" 
d="M61 813v240h977v-240h-344v-813h-286v813h-347z" />
    <glyph glyph-name="uni0443" unicode="&#x443;" horiz-adv-x="1216" 
d="M547 -410h-287l223 519l-446 944h299l262 -561h53l242 561h289z" />
    <glyph glyph-name="uni0444" unicode="&#x444;" horiz-adv-x="1601" 
d="M940 0v-410h-278v410h-19q-259 0 -405 146t-146 380q0 152 62 269t185.5 186t293.5 72h29v436h278v-436h29q168 -3 291.5 -72t186 -186.5t62.5 -268.5q0 -238 -150 -382t-419 -144zM373 526q0 -131 68 -216t198 -89h23v610h-21q-131 -4 -199.5 -89.5t-68.5 -215.5z
M940 221h16q132 4 201.5 89t69.5 216q0 130 -69.5 215.5t-201.5 89.5h-16v-610z" />
    <glyph glyph-name="uni0445" unicode="&#x445;" horiz-adv-x="1236" 
d="M860 0l-205 387h-75l-209 -387h-303l301 541l-271 512h297l189 -363h75l193 363h293l-275 -508l299 -545h-309z" />
    <glyph glyph-name="uni0446" unicode="&#x446;" horiz-adv-x="1392" 
d="M860 1053h287v-815h186v-531h-270v293h-911v1053h286v-815h422v815z" />
    <glyph glyph-name="uni0447" unicode="&#x447;" horiz-adv-x="1202" 
d="M92 1053h289v-308q0 -27 2.5 -46t14 -42t32 -37t58.5 -24t92 -10q105 0 198 22v445h287v-1053h-287v377q-142 -29 -293 -29q-74 0 -133 10.5t-99.5 27.5t-70.5 43.5t-47 54t-27 64.5t-13 69t-3 73v363z" />
    <glyph glyph-name="uni0448" unicode="&#x448;" horiz-adv-x="1761" 
d="M1333 1053h277v-1053h-1458v1053h278v-815h313v815h277v-815h313v815z" />
    <glyph glyph-name="uni0449" unicode="&#x449;" horiz-adv-x="1855" 
d="M1333 1053h277v-815h186v-531h-270v293h-1374v1053h278v-815h313v815h277v-815h313v815z" />
    <glyph glyph-name="uni044A" unicode="&#x44a;" horiz-adv-x="1378" 
d="M35 813v240h590v-308h258q203 0 312.5 -97t109.5 -271q0 -175 -110 -276t-312 -101h-545v813h-303zM625 238h215q98 0 138 35.5t40 105.5q0 71 -40 106t-138 35h-215v-282z" />
    <glyph glyph-name="uni044B" unicode="&#x44b;" horiz-adv-x="1693" 
d="M152 1053h286v-308h238q203 0 312.5 -97t109.5 -271q0 -175 -110 -276t-312 -101h-524v1053zM438 520v-282h197q98 0 137 35.5t39 105.5q0 72 -39 106.5t-137 34.5h-197zM1255 1053h287v-1053h-287v1053z" />
    <glyph glyph-name="uni044C" unicode="&#x44c;" horiz-adv-x="1191" 
d="M438 1053v-308h258q203 0 312.5 -97t109.5 -271q0 -175 -110 -276t-312 -101h-544v1053h286zM438 238h217q98 0 137 35.5t39 105.5q0 72 -39 106.5t-137 34.5h-217v-282z" />
    <glyph glyph-name="uni044D" unicode="&#x44d;" horiz-adv-x="1208" 
d="M92 336h268q19 -63 75 -96t143 -33q109 0 172 58.5t75 158.5h-370v219h366q-14 92 -75.5 147.5t-167.5 55.5q-162 0 -203 -111h-269q30 157 157 250.5t321 93.5q239 0 385.5 -153t146.5 -400q0 -248 -146.5 -400.5t-387.5 -152.5q-197 0 -331 101t-159 262z" />
    <glyph glyph-name="uni044E" unicode="&#x44e;" horiz-adv-x="1783" 
d="M1153 1079q239 0 389 -156.5t150 -396.5q0 -243 -149.5 -398t-389.5 -155q-214 0 -356.5 121.5t-171.5 325.5h-193v-420h-280v1053h280v-394h199q37 192 177 306t345 114zM1151 211q124 0 189 89.5t65 225.5q0 135 -65 224.5t-189 89.5q-126 0 -191 -89t-65 -225
q0 -88 26 -157.5t85 -113.5t145 -44z" />
    <glyph glyph-name="uni044F" unicode="&#x44f;" horiz-adv-x="1222" 
d="M539 1053h534v-1053h-287v352h-262l-135 -352h-283l160 414q-155 88 -155 286q0 166 111.5 259.5t316.5 93.5zM786 563v260h-225q-92 0 -130 -32.5t-38 -96.5q0 -65 38 -98t130 -33h225z" />
    <glyph glyph-name="uni0451" unicode="&#x451;" horiz-adv-x="1222" 
d="M1130 580v-86h-753q6 -137 70.5 -210t185.5 -73q154 0 196 111h291q-33 -163 -157.5 -256t-333.5 -93q-249 0 -393 151.5t-144 405.5q0 252 143.5 400.5t387.5 148.5q233 0 367.5 -139t139.5 -360zM621 864q-188 0 -234 -180h451q-13 83 -67.5 131.5t-149.5 48.5z
M946 1210h-239v256h239v-256zM545 1210h-242v256h242v-256z" />
    <glyph glyph-name="uni0452" unicode="&#x452;" horiz-adv-x="1331" 
d="M1210 557v-590q0 -109 -33.5 -185t-96 -117t-137.5 -58t-173 -17h-96v240h94q156 0 156 162v514q0 229 -203 229q-107 0 -171.5 -78t-64.5 -188v-469h-286v1145h-150v180h150v164h286v-164h371v-180h-371v-279h54q91 123 286 123q193 0 289 -112.5t96 -319.5z" />
    <glyph glyph-name="uni0453" unicode="&#x453;" horiz-adv-x="1062" 
d="M870 1489l-239 -297h-252l188 297h303zM152 0v1053h852v-240h-566v-813h-286z" />
    <glyph glyph-name="uni0454" unicode="&#x454;" horiz-adv-x="1206" 
d="M848 336h268q-25 -162 -158.5 -262.5t-330.5 -100.5q-241 0 -388 152.5t-147 400.5q0 247 147 400t386 153q194 0 320.5 -93.5t156.5 -250.5h-268q-40 111 -203 111q-106 0 -168 -55.5t-76 -147.5h367v-219h-371q12 -100 75.5 -158.5t172.5 -58.5q86 0 142 33t75 96z" />
    <glyph glyph-name="uni0455" unicode="&#x455;" horiz-adv-x="1118" 
d="M1008 764h-285q-18 94 -170 94q-70 0 -112 -22.5t-42 -67.5q0 -40 26.5 -57t86.5 -29l190 -29q336 -52 336 -338q0 -141 -123.5 -241.5t-343.5 -100.5q-232 0 -354.5 94.5t-140.5 264.5h284q20 -137 209 -137q88 0 135.5 29t47.5 85q0 52 -35.5 77.5t-116.5 39.5l-205 33
q-134 25 -208 94t-74 197q0 144 113 236.5t335 92.5q194 0 311.5 -85.5t135.5 -229.5z" />
    <glyph glyph-name="uni0456" unicode="&#x456;" horiz-adv-x="593" 
d="M442 1233h-290v256h290v-256zM440 1053v-1053h-286v1053h286z" />
    <glyph glyph-name="uni0457" unicode="&#x457;" horiz-adv-x="593" 
d="M621 1233h-240v256h240v-256zM219 1233h-242v256h242v-256zM440 1053v-1053h-286v1053h286z" />
    <glyph glyph-name="uni0458" unicode="&#x458;" horiz-adv-x="616" 
d="M465 1233h-291v256h291v-256zM59 -410h-133v240h94q156 0 156 162v1061h287v-1086q0 -101 -30.5 -175t-86 -117.5t-127 -64t-160.5 -20.5z" />
    <glyph glyph-name="uni0459" unicode="&#x459;" horiz-adv-x="1908" 
d="M45 0v274h37q69 0 109.5 29t61.5 103t21 204v443h889v-308h250q203 0 312.5 -97t109.5 -271q0 -175 -110 -276t-312 -101h-536v813h-338v-213q0 -223 -50.5 -355.5t-148.5 -188.5t-258 -56h-37zM1163 238h207q98 0 138 35.5t40 105.5q0 76 -43 108.5t-155 32.5h-187v-282
z" />
    <glyph glyph-name="uni045A" unicode="&#x45a;" horiz-adv-x="1890" 
d="M1145 1053v-308h250q203 0 312.5 -97t109.5 -271q0 -175 -110 -276t-312 -101h-537v420h-420v-420h-286v1053h286v-394h420v394h287zM1145 238h207q98 0 138 35.5t40 105.5q0 76 -42.5 108.5t-154.5 32.5h-188v-282z" />
    <glyph glyph-name="uni045B" unicode="&#x45b;" horiz-adv-x="1347" 
d="M1210 0h-286v506q0 229 -203 229q-107 0 -171.5 -78t-64.5 -188v-469h-286v1145h-150v180h150v164h286v-164h371v-180h-371v-279h54q91 123 286 123q193 0 289 -112.5t96 -319.5v-557z" />
    <glyph glyph-name="uni045C" unicode="&#x45c;" horiz-adv-x="1243" 
d="M979 1489l-240 -297h-252l189 297h303zM881 0l-213 420h-230v-420h-286v1053h286v-394h234l200 394h293l-258 -508l275 -545h-301z" />
    <glyph glyph-name="uni045E" unicode="&#x45e;" horiz-adv-x="1216" 
d="M547 -410h-287l223 519l-446 944h299l262 -561h53l242 561h289zM758 1470h221q-12 -145 -107.5 -226t-265.5 -81q-169 0 -263.5 81t-106.5 226h221q7 -55 43.5 -89.5t105.5 -34.5q137 0 152 124z" />
    <glyph glyph-name="uni045F" unicode="&#x45f;" horiz-adv-x="1298" 
d="M860 1053h287v-1053h-363v-293h-270v293h-362v1053h286v-815h422v815z" />
    <glyph glyph-name="uni0490" unicode="&#x490;" horiz-adv-x="1306" 
d="M475 1190v-1190h-305v1462h748v307h307v-579h-750z" />
    <glyph glyph-name="uni0491" unicode="&#x491;" horiz-adv-x="1038" 
d="M711 1329h268v-516h-541v-813h-286v1053h559v276z" />
    <glyph glyph-name="uni0492" unicode="&#x492;" horiz-adv-x="1370" 
d="M45 608v234h188v620h1055v-272h-749v-348h419v-234h-419v-608h-306v608h-188z" />
    <glyph glyph-name="uni0493" unicode="&#x493;" horiz-adv-x="1087" 
d="M41 354v205h154v494h833v-240h-547v-254h348v-205h-348v-354h-286v354h-154z" />
    <glyph glyph-name="uni049A" unicode="&#x49a;" horiz-adv-x="1574" 
d="M170 0v1462h305v-571h346l269 571h315l-328 -710l219 -480h230v-630h-297v358h-121l-285 614h-348v-614h-305z" />
    <glyph glyph-name="uni049B" unicode="&#x49b;" horiz-adv-x="1316" 
d="M881 0l-213 420h-230v-420h-286v1053h286v-394h234l200 394h293l-258 -508l154 -307h196v-531h-270v293h-106z" />
    <glyph glyph-name="uni04A2" unicode="&#x4a2;" horiz-adv-x="1685" 
d="M1122 1462h305v-1190h209v-630h-297v358h-217v612h-647v-612h-305v1462h305v-569h647v569z" />
    <glyph glyph-name="uni04A3" unicode="&#x4a3;" horiz-adv-x="1409" 
d="M1163 1053v-815h187v-531h-271v293h-202v420h-439v-420h-286v1053h286v-394h439v394h286z" />
    <glyph glyph-name="uni04AE" unicode="&#x4ae;" horiz-adv-x="1390" 
d="M666 879h57l313 583h324l-512 -942v-520h-307v520l-510 942h321z" />
    <glyph glyph-name="uni04AF" unicode="&#x4af;" horiz-adv-x="1185" 
d="M340 -88l-299 1141h293l217 -887h88l209 887h293l-303 -1141h-105v-322h-287v322h-106z" />
    <glyph glyph-name="uni04B0" unicode="&#x4b0;" horiz-adv-x="1390" 
d="M666 879h57l313 583h324l-424 -778h281v-233h-369v-451h-307v451h-369v233h281l-422 778h321z" />
    <glyph glyph-name="uni04B1" unicode="&#x4b1;" horiz-adv-x="1210" 
d="M137 -176v176h178l-274 1053h293l217 -887h88l209 887h293l-281 -1053h174v-176h-301v-234h-287v234h-309z" />
    <glyph glyph-name="uni04BA" unicode="&#x4ba;" horiz-adv-x="1445" 
d="M1337 0h-305v418q0 26 -0.5 40t-3 38t-8 38t-16 33.5t-25.5 30.5t-38 24.5t-53 20.5t-71 11.5t-90 4.5q-141 0 -252 -32v-627h-305v1462h305v-565q146 35 326 35q84 0 154 -9t122 -23t92.5 -38t67.5 -48t46.5 -59.5t29.5 -65t15.5 -72.5t7 -74.5t1.5 -77.5v-465z" />
    <glyph glyph-name="uni04BB" unicode="&#x4bb;" horiz-adv-x="1300" 
d="M1163 0h-286v596q0 229 -205 229q-105 0 -169.5 -78t-64.5 -188v-559h-286v1489h286v-533h54q91 123 286 123q193 0 289 -112.5t96 -319.5v-647z" />
    <glyph glyph-name="uni04D8" unicode="&#x4d8;" horiz-adv-x="1579" 
d="M774 242q174 0 271 101.5t110 268.5h-745q8 -165 100 -267.5t264 -102.5zM770 1489q170 0 305.5 -57t223 -159t134 -240t46.5 -302q0 -162 -45.5 -300t-131 -240t-219.5 -160t-301 -58q-324 0 -503 214t-179 595q0 30 4 80h1051q-21 163 -117.5 261t-263.5 98
q-232 0 -291 -170h-317q42 201 200 319.5t404 118.5z" />
    <glyph glyph-name="uni04D9" unicode="&#x4d9;" horiz-adv-x="1222" 
d="M602 -27q-125 0 -223.5 41.5t-160.5 116.5t-94 175.5t-32 221.5q0 45 2 72h748q-12 117 -76 179.5t-174 62.5q-160 0 -199 -111h-291q31 165 160 256.5t332 91.5q245 0 390.5 -152t145.5 -405t-143 -401t-385 -148zM604 188q109 0 171 56t69 166h-469q1 -105 62.5 -163.5
t166.5 -58.5z" />
    <glyph glyph-name="uni04E8" unicode="&#x4e8;" horiz-adv-x="1626" 
d="M813 1489q170 0 306.5 -58t225 -160t135 -240t46.5 -300t-46.5 -300t-135 -240t-225 -160t-306.5 -58t-306.5 58t-225 160t-135 240t-46.5 300t46.5 300t135 240t225 160t306.5 58zM813 246q172 0 273 101t122 269h-790q18 -168 119.5 -269t275.5 -101zM813 1217
q-171 0 -269 -93t-124 -258h786q-26 163 -124.5 257t-268.5 94z" />
    <glyph glyph-name="uni04E9" unicode="&#x4e9;" horiz-adv-x="1273" 
d="M637 1079q250 0 397.5 -152t147.5 -401t-147.5 -401t-397.5 -152q-248 0 -396.5 152t-148.5 401t148.5 401t396.5 152zM637 211q107 0 169.5 59.5t80.5 163.5h-500q18 -104 80.5 -163.5t169.5 -59.5zM637 840q-106 0 -168 -56.5t-80 -158.5h496q-18 102 -80 158.5
t-168 56.5z" />
    <glyph glyph-name="endash" unicode="&#x2013;" horiz-adv-x="1271" 
d="M1180 469h-1090v221h1090v-221z" />
    <glyph glyph-name="emdash" unicode="&#x2014;" horiz-adv-x="1800" 
d="M1708 469h-1618v221h1618v-221z" />
    <glyph glyph-name="quoteleft" unicode="&#x2018;" horiz-adv-x="600" 
d="M319 1171h140v-311h-316v363l158 239h174l-156 -239v-52z" />
    <glyph glyph-name="quoteright" unicode="&#x2019;" horiz-adv-x="600" 
d="M281 1151h-140v311h316v-362l-158 -240h-174l156 240v51z" />
    <glyph glyph-name="quotesinglbase" unicode="&#x201a;" horiz-adv-x="600" 
d="M281 0h-140v311h316v-362l-158 -240h-174l156 240v51z" />
    <glyph glyph-name="quotedblleft" unicode="&#x201c;" horiz-adv-x="1054" 
d="M319 1171h140v-311h-316v363l158 239h174l-156 -239v-52zM774 1171h139v-311h-315v363l158 239h174l-156 -239v-52z" />
    <glyph glyph-name="quotedblright" unicode="&#x201d;" horiz-adv-x="1054" 
d="M281 1151h-140v311h316v-362l-158 -240h-174l156 240v51zM735 1151h-139v311h315v-362l-157 -240h-174l155 240v51z" />
    <glyph glyph-name="quotedblbase" unicode="&#x201e;" horiz-adv-x="1054" 
d="M281 0h-140v311h316v-362l-158 -240h-174l156 240v51zM735 0h-139v311h315v-362l-157 -240h-174l155 240v51z" />
    <glyph glyph-name="dagger" unicode="&#x2020;" horiz-adv-x="1124" 
d="M434 827h-356v240h356v395h258v-395h357v-240h-357v-1138h-258v1138z" />
    <glyph glyph-name="daggerdbl" unicode="&#x2021;" horiz-adv-x="1124" 
d="M434 827h-356v240h356v395h258v-395h357v-240h-357v-495h357v-240h-357v-403h-258v403h-356v240h356v495z" />
    <glyph glyph-name="bullet" unicode="&#x2022;" horiz-adv-x="851" 
d="M125 729q0 125 88.5 213t212.5 88t212.5 -88t88.5 -213t-88.5 -213t-212.5 -88t-212.5 88t-88.5 213z" />
    <glyph glyph-name="ellipsis" unicode="&#x2026;" horiz-adv-x="1732" 
d="M457 0h-316v311h316v-311zM1022 0h-313v311h313v-311zM1589 0h-315v311h315v-311z" />
    <glyph glyph-name="perthousand" unicode="&#x2030;" horiz-adv-x="2584" 
d="M582 0h-209l868 1434h207zM426 1462q165 0 252.5 -107.5t87.5 -279.5t-87.5 -279.5t-252.5 -107.5q-164 0 -252 107.5t-88 279.5t88 279.5t252 107.5zM426 856q75 0 113.5 59t38.5 160q0 98 -38.5 158.5t-113.5 60.5t-112.5 -60t-37.5 -159q0 -101 37.5 -160t112.5 -59z
M1395 748q164 0 252 -108t88 -280t-88 -279.5t-252 -107.5q-166 0 -254 107.5t-88 279.5t88.5 280t253.5 108zM1395 141q75 0 113 59t38 160q0 99 -38 159.5t-113 60.5q-76 0 -114 -60.5t-38 -159.5q0 -101 37.5 -160t114.5 -59zM2157 748q164 0 253 -108.5t89 -279.5
t-89 -279t-253 -108t-252 107.5t-88 279.5t88 280t252 108zM2157 141q76 0 113.5 58.5t37.5 160.5q0 99 -37.5 159.5t-113.5 60.5t-114 -60.5t-38 -159.5q0 -101 37.5 -160t114.5 -59z" />
    <glyph glyph-name="guilsinglleft" unicode="&#x2039;" horiz-adv-x="827" 
d="M371 618v-53l350 -375h-309l-306 318v168l306 315h309z" />
    <glyph glyph-name="guilsinglright" unicode="&#x203a;" horiz-adv-x="827" 
d="M457 565v53l-351 373h310l305 -315v-168l-305 -318h-310z" />
    <glyph glyph-name="fraction" unicode="&#x2044;" horiz-adv-x="501" 
d="M-78 0h-209l869 1434h206z" />
    <glyph glyph-name="Euro" unicode="&#x20ac;" horiz-adv-x="1437" 
d="M862 653l-47 -141h-291q46 -276 285 -276q104 0 166 56.5t76 162.5h288q-30 -222 -170 -352t-362 -130q-233 0 -382.5 140.5t-193.5 398.5h-184l47 141h123q-6 44 -2 125h-168l47 142h137q43 258 192.5 400t383.5 142q214 0 351.5 -120t170.5 -324h-293q-35 182 -229 182
q-116 0 -187 -71.5t-96 -208.5h430l-49 -142h-397q-5 -87 0 -125h354z" />
    <glyph glyph-name="uni20B4" unicode="&#x20b4;" horiz-adv-x="1415" 
d="M66 518v141h1284v-141h-842q-12 -32 -12 -82q0 -101 65.5 -155t169.5 -54q200 0 242 166h299q-30 -198 -166 -309t-375 -111q-129 0 -231.5 36.5t-166 99.5t-97 143t-33.5 172q0 57 12 94h-149zM66 926h839q25 45 25 98q0 89 -56.5 136.5t-146.5 47.5q-184 0 -211 -153
h-293q17 184 156.5 295.5t349.5 111.5q116 0 211 -34.5t155.5 -93.5t93 -135.5t32.5 -162.5q0 -58 -19 -110h148v-142h-1284v142z" />
    <glyph glyph-name="uni20B8" unicode="&#x20b8;" horiz-adv-x="1126" 
d="M33 1026v141h1061v-141h-383v-1026h-295v1026h-383zM33 1292v142h1061v-142h-1061z" />
    <glyph glyph-name="uni20BD" unicode="&#x20bd;" horiz-adv-x="1447" 
d="M248 1434h588q246 0 380 -118.5t134 -334.5q0 -217 -134.5 -338t-379.5 -121h-293v-125h372v-141h-372v-256h-295v256h-189v141h189v125h-189v248h189v664zM543 1186v-416h250q264 0 264 211q0 101 -62.5 153t-201.5 52h-250z" />
    <glyph glyph-name="uni2116" unicode="&#x2116;" horiz-adv-x="2373" 
d="M1135 1434h272v-1434h-387l-526 973h-52v-973h-272v1434h387l524 -973h54v973zM2273 414h-682v164h682v-164zM1929 1462q166 0 254 -107.5t88 -279.5t-88 -279.5t-254 -107.5q-165 0 -251.5 107.5t-86.5 279.5t86.5 279.5t251.5 107.5zM1929 856q77 0 114.5 59t37.5 160
q0 99 -38 159t-114 60q-75 0 -112 -60t-37 -159q0 -101 37 -160t112 -59z" />
    <glyph glyph-name="trademark" unicode="&#x2122;" horiz-adv-x="1761" 
d="M1104 1462l123 -307h30l117 307h268v-776h-163v567h-33l-123 -309h-166l-123 309h-30v-567h-166v776h266zM707 1462v-157h-244v-619h-176v619h-242v157h662z" />
    <glyph glyph-name="Omega" unicode="&#x2126;" horiz-adv-x="1576" 
d="M1241 293v-53h236v-240h-603v250q291 197 291 524q0 207 -103 325t-271 118q-169 0 -273 -118t-104 -325q0 -329 288 -524v-250h-600v240h236v53q-104 80 -171 209.5t-67 300.5q0 197 81 351.5t239.5 244.5t370.5 90t369 -90t237 -244t80 -352q0 -171 -65.5 -300
t-170.5 -210z" />
    <glyph glyph-name="arrowleft" unicode="&#x2190;" horiz-adv-x="1654" 
d="M612 1053h340l-354 -351v-53h950v-243h-950v-54l354 -352h-340l-526 528z" />
    <glyph glyph-name="arrowup" unicode="&#x2191;" horiz-adv-x="1378" 
d="M1217 936v-340l-353 354h-53v-950h-244v950h-53l-352 -354v340l528 526z" />
    <glyph glyph-name="arrowright" unicode="&#x2192;" horiz-adv-x="1654" 
d="M702 1053h340l527 -525l-527 -528h-340l355 352v54h-951v243h951v53z" />
    <glyph glyph-name="arrowdown" unicode="&#x2193;" horiz-adv-x="1378" 
d="M162 526v340l352 -354h53v950h244v-950h53l353 354v-340l-529 -526z" />
    <glyph glyph-name="uni2196" unicode="&#x2196;" horiz-adv-x="1443" 
d="M907 1462l240 -239h-500l-37 -37l672 -672l-172 -174l-672 674l-39 -39v-500l-237 242v745h745z" />
    <glyph glyph-name="uni2197" unicode="&#x2197;" horiz-adv-x="1443" 
d="M297 1223l240 239h745v-745l-238 -242v500l-38 39l-672 -674l-172 174l672 672l-37 37h-500z" />
    <glyph glyph-name="uni2198" unicode="&#x2198;" horiz-adv-x="1443" 
d="M1147 240l-240 -240h-745v745l237 242v-500l39 -38l672 673l172 -174l-672 -672l37 -36h500z" />
    <glyph glyph-name="uni2199" unicode="&#x2199;" horiz-adv-x="1443" 
d="M537 0l-240 240h500l37 36l-672 672l172 174l672 -673l38 38v500l238 -242v-745h-745z" />
    <glyph glyph-name="partialdiff" unicode="&#x2202;" horiz-adv-x="1261" 
d="M631 211q125 0 187.5 81t62.5 212q0 130 -63 212.5t-187 82.5q-125 0 -189.5 -83t-64.5 -212q0 -130 64.5 -211.5t189.5 -81.5zM295 1489h342q71 -49 137.5 -108t141 -148.5t128.5 -188t89.5 -229.5t35.5 -270q0 -167 -60.5 -294.5t-184.5 -202.5t-297 -75
q-245 0 -390 150t-145 383q0 227 125.5 372.5t314.5 145.5q158 0 226 -68h57q-35 80 -96.5 159t-141.5 150.5t-141.5 119.5t-140.5 104z" />
    <glyph glyph-name="increment" unicode="&#x2206;" horiz-adv-x="1337" 
d="M817 1434l436 -1145v-289h-1171v289l436 1145h299zM1004 236v53l-308 815h-55l-307 -815v-53h670z" />
    <glyph glyph-name="product" unicode="&#x220f;" horiz-adv-x="1275" 
d="M1028 -410h-244v1647h-292v-1647h-244v1647h-195v225h1170v-225h-195v-1647z" />
    <glyph glyph-name="summation" unicode="&#x2211;" horiz-adv-x="1169" 
d="M418 268h700v-268h-1048v319l360 386v53l-346 385v319h997v-268h-653v-51l311 -352v-121l-321 -351v-51z" />
    <glyph glyph-name="minus" unicode="&#x2212;" horiz-adv-x="1378" 
d="M1217 471h-1055v244h1055v-244z" />
    <glyph glyph-name="radical" unicode="&#x221a;" horiz-adv-x="1366" 
d="M66 1053h239l215 -762h53l349 1143h391v-213h-217l-383 -1221h-336z" />
    <glyph glyph-name="infinity" unicode="&#x221e;" horiz-adv-x="1873" 
d="M911 664h52q99 103 149 142q130 103 264 103q149 0 242.5 -90t93.5 -241t-93.5 -241.5t-242.5 -90.5q-53 0 -105 16t-92 38.5t-83 58.5t-70.5 64.5t-62.5 68.5h-52q-35 -40 -62.5 -68.5t-70.5 -64.5t-83 -58.5t-92 -38.5t-105 -16q-149 0 -242.5 90.5t-93.5 241.5
t93.5 241t242.5 90q63 0 120 -18.5t114 -62t83.5 -68.5t82.5 -83zM848 578q-43 50 -72.5 81t-75.5 69.5t-95 57.5t-101 19q-98 0 -164 -60.5t-66 -166.5t66 -167t164 -61q52 0 101.5 19.5t94 56t77 70.5t71.5 82zM1026 578q39 -48 71.5 -82t77 -70.5t94 -56t101.5 -19.5
q98 0 163.5 61t65.5 167t-65.5 166.5t-163.5 60.5q-52 0 -101 -19t-95 -57.5t-75.5 -69.5t-72.5 -81z" />
    <glyph glyph-name="integral" unicode="&#x222b;" horiz-adv-x="1056" 
d="M934 1489h100v-240h-84q-100 0 -148.5 -53.5t-68.5 -169.5l-176 -1001q-43 -236 -159 -335.5t-324 -99.5h-101v240h84q100 0 148.5 53.5t68.5 169.5l177 1002q40 234 158 334t325 100z" />
    <glyph glyph-name="approxequal" unicode="&#x2248;" horiz-adv-x="1374" 
d="M1016 993h196q0 -183 -77.5 -272.5t-216.5 -89.5q-64 0 -132.5 29t-117.5 64t-106 64t-101 29q-103 0 -103 -145h-196q0 183 77.5 272.5t215.5 89.5q53 0 108 -19t100 -46.5t87 -55t84.5 -46.5t78.5 -19q103 0 103 145zM1016 535h196q0 -183 -78 -273t-216 -90
q-64 0 -132.5 29t-117.5 64t-106 64t-101 29q-103 0 -103 -145h-196q0 183 77.5 272.5t215.5 89.5q53 0 108 -19t100 -46.5t87 -55t84.5 -46.5t78.5 -19q103 0 103 146z" />
    <glyph glyph-name="notequal" unicode="&#x2260;" horiz-adv-x="1376" 
d="M1214 502v-244h-612l-151 -240h-254l151 240h-186v244h344l115 180h-459v244h614l154 239h250l-152 -239h186v-244h-342l-114 -180h456z" />
    <glyph glyph-name="lessequal" unicode="&#x2264;" horiz-adv-x="1378" 
d="M1217 309l-1055 320v245l1055 291v-245l-619 -156v-51l619 -156v-248zM162 0v244h1055v-244h-1055z" />
    <glyph glyph-name="greaterequal" unicode="&#x2265;" horiz-adv-x="1378" 
d="M1217 629l-1055 -320v248l618 156v51l-618 156v245l1055 -291v-245zM1217 244v-244h-1055v244h1055z" />
    <glyph glyph-name="lozenge" unicode="&#x25ca;" horiz-adv-x="1175" 
d="M713 1462l354 -731l-354 -731h-250l-357 731l357 731h250zM614 328l183 403l-183 404h-53l-182 -404l182 -403h53z" />
    <glyph glyph-name="commaaccent" unicode="&#xf6c3;" horiz-adv-x="460" 
d="M246 -475h-168l141 127v43h-121v194h287v-237z" />
    <glyph glyph-name="uniFEFF" unicode="&#xfeff;" horiz-adv-x="0" 
 />
    <glyph glyph-name="zero.numr" horiz-adv-x="794" 
d="M721 1071q0 -201 -89 -302t-237 -101q-147 0 -235 101t-88 302q0 205 88 305.5t235 100.5q149 0 237.5 -100.5t88.5 -305.5zM395 834q40 0 69.5 21t44.5 57t21.5 75t6.5 84t-6.5 84.5t-21.5 76t-44.5 58t-69.5 21.5t-69 -21t-43.5 -58t-20.5 -76t-6 -85q0 -45 6 -83.5
t20.5 -75t43.5 -57.5t69 -21z" />
    <glyph glyph-name="one.numr" horiz-adv-x="688" 
d="M442 842h172v-160h-542v160h184v426h-39l-145 -88v174l186 108h184v-620z" />
    <glyph glyph-name="two.numr" horiz-adv-x="757" 
d="M365 842h319v-160h-612v197l227 141q84 50 130 94t46 96q0 50 -27.5 75.5t-76.5 25.5q-110 0 -113 -105h-186q4 132 85.5 201.5t219.5 69.5q128 0 206.5 -67t78.5 -189q0 -148 -154 -248l-143 -92v-39z" />
    <glyph glyph-name="three.numr" horiz-adv-x="753" 
d="M502 1190v-37q76 -12 129 -67.5t53 -149.5q0 -122 -85.5 -195t-223.5 -73q-140 0 -225.5 74.5t-90.5 193.5h185q4 -52 39 -77t92 -25q60 0 92.5 28t32.5 78q0 53 -33 81t-90 28q-43 0 -76 -11v148l121 80v37h-309v159h532v-192z" />
    <glyph glyph-name="four.numr" horiz-adv-x="776" 
d="M610 997h95v-159h-95v-156h-180v156h-371v188l334 436h217v-465zM231 997h205v258h-39l-166 -221v-37z" />
    <glyph glyph-name="five.numr" horiz-adv-x="763" 
d="M434 1217q110 0 183 -74.5t73 -190.5q0 -127 -86 -205.5t-217 -78.5q-144 0 -225.5 73.5t-89.5 194.5h186q12 -107 123 -107q57 0 90 33t33 90q0 59 -33 90t-88 31q-78 0 -123 -57h-168l39 446h508v-159h-369l-8 -125h41q39 39 131 39z" />
    <glyph glyph-name="six.numr" horiz-adv-x="774" 
d="M438 1206q107 0 184.5 -73.5t77.5 -184.5q0 -119 -83 -199.5t-216 -80.5q-152 0 -240.5 93t-88.5 298q0 189 83 303.5t248 114.5q107 0 186 -64.5t91 -157.5h-180q-25 72 -101 72q-62 0 -102.5 -43.5t-50.5 -132.5h39q55 55 153 55zM395 819q55 0 88 33t33 92
q0 58 -33.5 88.5t-87.5 30.5q-56 0 -89.5 -30.5t-33.5 -88.5q0 -59 34 -92t89 -33z" />
    <glyph glyph-name="seven.numr" horiz-adv-x="706" 
d="M72 1462h561v-200l-303 -580h-193l299 580v41h-364v159z" />
    <glyph glyph-name="eight.numr" horiz-adv-x="778" 
d="M389 1335q-52 0 -81 -25.5t-29 -64.5q0 -40 29 -66t81 -26q49 0 79 26.5t30 65.5q0 38 -30.5 64t-78.5 26zM389 817q63 0 96 30.5t33 74.5t-33 73t-96 29q-64 0 -97.5 -29t-33.5 -73q0 -45 33.5 -75t97.5 -30zM186 1081v35q-84 50 -84 148q0 91 77.5 152t209.5 61
t208.5 -61t76.5 -152q0 -98 -84 -148v-35q115 -52 115 -180q0 -96 -85 -164.5t-233 -68.5q-147 0 -231 68.5t-84 164.5q0 128 114 180z" />
    <glyph glyph-name="nine.numr" horiz-adv-x="774" 
d="M334 938q-107 0 -184.5 73.5t-77.5 184.5q0 119 83 200t216 81q152 0 240.5 -93.5t88.5 -298.5q0 -189 -83 -303t-248 -114q-108 0 -186.5 64t-90.5 157h180q25 -72 101 -72q62 0 102.5 43.5t50.5 132.5h-39q-55 -55 -153 -55zM377 1325q-55 0 -88 -33t-33 -92
q0 -58 33.5 -88.5t87.5 -30.5q56 0 89.5 30.5t33.5 88.5q0 59 -34 92t-89 33z" />
    <glyph glyph-name="zero.dnom" horiz-adv-x="794" 
d="M721 389q0 -201 -89 -302t-237 -101q-147 0 -235 101t-88 302q0 205 88 305.5t235 100.5q149 0 237.5 -100.5t88.5 -305.5zM395 152q40 0 69.5 21t44.5 57t21.5 75t6.5 84t-6.5 84.5t-21.5 76t-44.5 58t-69.5 21.5t-69 -21t-43.5 -58t-20.5 -76t-6 -85q0 -45 6 -83.5
t20.5 -75t43.5 -57.5t69 -21z" />
    <glyph glyph-name="one.dnom" horiz-adv-x="688" 
d="M442 160h172v-160h-542v160h184v426h-39l-145 -88v174l186 108h184v-620z" />
    <glyph glyph-name="two.dnom" horiz-adv-x="757" 
d="M365 160h319v-160h-612v197l227 141q84 50 130 94t46 96q0 50 -27.5 75.5t-76.5 25.5q-110 0 -113 -105h-186q4 132 85.5 201.5t219.5 69.5q128 0 206.5 -67t78.5 -189q0 -148 -154 -248l-143 -92v-39z" />
    <glyph glyph-name="three.dnom" horiz-adv-x="755" 
d="M502 508v-37q76 -12 129 -67.5t53 -149.5q0 -122 -85.5 -195t-223.5 -73q-140 0 -225.5 74.5t-90.5 193.5h185q4 -52 39 -77t92 -25q60 0 92.5 28t32.5 78q0 53 -33 81t-90 28q-43 0 -76 -11v148l121 80v37h-309v159h532v-192z" />
    <glyph glyph-name="four.dnom" horiz-adv-x="776" 
d="M610 315h95v-159h-95v-156h-180v156h-371v188l334 436h217v-465zM231 315h205v258h-39l-166 -221v-37z" />
    <glyph glyph-name="five.dnom" horiz-adv-x="763" 
d="M434 535q110 0 183 -74.5t73 -190.5q0 -127 -86 -205.5t-217 -78.5q-144 0 -225.5 73.5t-89.5 194.5h186q12 -107 123 -107q57 0 90 33t33 90q0 59 -33 90t-88 31q-78 0 -123 -57h-168l39 446h508v-159h-369l-8 -125h41q39 39 131 39z" />
    <glyph glyph-name="six.dnom" horiz-adv-x="774" 
d="M438 524q107 0 184.5 -73.5t77.5 -184.5q0 -119 -83 -199.5t-216 -80.5q-152 0 -240.5 93t-88.5 298q0 189 83 303.5t248 114.5q107 0 186 -64.5t91 -157.5h-180q-25 72 -101 72q-62 0 -102.5 -43.5t-50.5 -132.5h39q55 55 153 55zM395 137q55 0 88 33t33 92
q0 58 -33.5 88.5t-87.5 30.5q-56 0 -89.5 -30.5t-33.5 -88.5q0 -59 34 -92t89 -33z" />
    <glyph glyph-name="seven.dnom" horiz-adv-x="706" 
d="M72 780h561v-200l-303 -580h-193l299 580v41h-364v159z" />
    <glyph glyph-name="eight.dnom" horiz-adv-x="778" 
d="M389 653q-52 0 -81 -25.5t-29 -64.5q0 -40 29 -66t81 -26q49 0 79 26.5t30 65.5q0 38 -30.5 64t-78.5 26zM389 135q63 0 96 30.5t33 74.5t-33 73t-96 29q-64 0 -97.5 -29t-33.5 -73q0 -45 33.5 -75t97.5 -30zM186 399v35q-84 50 -84 148q0 91 77.5 152t209.5 61
t208.5 -61t76.5 -152q0 -98 -84 -148v-35q115 -52 115 -180q0 -96 -85 -164.5t-233 -68.5q-147 0 -231 68.5t-84 164.5q0 128 114 180z" />
    <glyph glyph-name="nine.dnom" horiz-adv-x="774" 
d="M334 256q-107 0 -184.5 73.5t-77.5 184.5q0 119 83 200t216 81q152 0 240.5 -93.5t88.5 -298.5q0 -189 -83 -303t-248 -114q-108 0 -186.5 64t-90.5 157h180q25 -72 101 -72q62 0 102.5 43.5t50.5 132.5h-39q-55 -55 -153 -55zM377 643q-55 0 -88 -33t-33 -92
q0 -58 33.5 -88.5t87.5 -30.5q56 0 89.5 30.5t33.5 88.5q0 59 -34 92t-89 33z" />
    <glyph glyph-name="zero.onum" horiz-adv-x="1280" 
d="M641 1079q159 0 285 -68t198 -194.5t72 -290.5t-72 -290.5t-198 -194.5t-285 -68t-285 68t-198 194.5t-72 290.5t72 290.5t198 194.5t285 68zM641 225q131 0 199.5 81.5t68.5 219.5t-68.5 219.5t-199.5 81.5t-199.5 -81.5t-68.5 -219.5t68.5 -219.5t199.5 -81.5z" />
    <glyph glyph-name="one.onum" horiz-adv-x="1048" 
d="M123 0v246h291v524h-56l-235 -152v281l235 154h344v-807h261v-246h-840z" />
    <glyph glyph-name="two.onum" horiz-adv-x="1140" 
d="M1059 246v-246h-979v283l414 194q133 62 185 106.5t52 112.5q0 63 -45.5 99t-128.5 36q-191 0 -188 -178h-289q-5 185 126.5 305.5t356.5 120.5q216 0 335.5 -103.5t119.5 -252.5q0 -121 -67 -200t-189 -138l-180 -88v-51h477z" />
    <glyph glyph-name="three.onum" horiz-adv-x="1228" 
d="M141 1053h920v-297l-277 -209v-51q153 -13 253 -120.5t100 -289.5q0 -224 -150.5 -356.5t-392.5 -132.5q-240 0 -390 131t-155 331h287q12 -97 83 -154t175 -57q116 0 186 66.5t70 171.5q0 110 -67.5 175t-188.5 65q-58 0 -131 -15v240l274 205v51h-596v246z" />
    <glyph glyph-name="four.onum" horiz-adv-x="1298" 
d="M1038 246h181v-246h-181v-381h-280v381h-684v299l626 754h338v-807zM350 246h418v499h-53l-365 -446v-53z" />
    <glyph glyph-name="five.onum" horiz-adv-x="1277" 
d="M723 598q198 0 327.5 -133.5t129.5 -347.5q0 -232 -149.5 -376t-379.5 -144q-245 0 -387.5 128.5t-154.5 333.5h286q14 -99 78.5 -155t167.5 -56q116 0 184 72.5t68 190.5q0 123 -70 191.5t-180 68.5q-144 0 -225 -109h-275l64 791h883v-246h-658l-22 -295h53
q48 41 107 63.5t153 22.5z" />
    <glyph glyph-name="six.onum" horiz-adv-x="1271" 
d="M733 952q195 0 327 -132.5t132 -338.5q0 -140 -62 -255t-182 -184t-278 -69q-100 0 -184.5 23.5t-156 77.5t-121.5 136t-78 204t-28 276q0 170 34.5 309t103.5 243.5t180.5 162t257.5 57.5q190 0 323 -109t154 -270h-287q-40 140 -196 140q-126 0 -203.5 -97.5
t-87.5 -287.5h53q101 114 299 114zM664 215q107 0 174 67.5t67 188.5t-67.5 186.5t-175.5 65.5t-176 -65.5t-68 -184.5q0 -120 69.5 -189t176.5 -69z" />
    <glyph glyph-name="seven.onum" horiz-adv-x="1173" 
d="M1075 750l-573 -1131h-301l573 1131v53h-674v250h975v-303z" />
    <glyph glyph-name="eight.onum" horiz-adv-x="1292" 
d="M983 786v-53q38 -16 73 -42.5t67.5 -66t52.5 -97t20 -124.5q0 -88 -36 -165t-103.5 -136.5t-173.5 -94t-236 -34.5t-236.5 34.5t-174 94t-104 137t-36.5 164.5q0 67 20 124.5t52.5 97t67.5 66t73 42.5v53q-29 15 -56 39t-53 59t-41.5 85t-15.5 108q0 166 135.5 275.5
t368.5 109.5q231 0 366.5 -109.5t135.5 -275.5q0 -110 -49 -182.5t-117 -108.5zM647 1237q-99 0 -162 -54t-63 -136q0 -83 63 -138t162 -55q101 0 163 55t62 138t-62 136.5t-163 53.5zM647 215q124 0 193 61.5t69 153.5q0 91 -69 153t-193 62q-125 0 -194.5 -62t-69.5 -153
q0 -92 69.5 -153.5t194.5 -61.5z" />
    <glyph glyph-name="nine.onum" horiz-adv-x="1271" 
d="M535 100q-194 0 -325.5 132t-131.5 339q0 140 62 255t181.5 184t276.5 69q126 0 226.5 -39t178.5 -122t120 -224t42 -332q0 -170 -34 -308t-102.5 -241t-180 -159.5t-258.5 -56.5q-191 0 -321 108.5t-156 271.5h288q14 -65 63 -103t132 -38q128 0 205.5 94.5t87.5 284.5
h-53q-101 -115 -301 -115zM606 838q-107 0 -174 -67.5t-67 -188.5t67.5 -186.5t175.5 -65.5q107 0 174.5 65.5t67.5 184.5q0 120 -68.5 189t-175.5 69z" />
    <glyph glyph-name="zero.tnum" horiz-adv-x="1290" 
d="M643 1462q122 0 223 -44t178 -132t119.5 -233t42.5 -336q0 -153 -28 -277t-78 -210t-121 -144.5t-155 -85.5t-181 -27q-121 0 -221.5 44t-176.5 132t-118.5 233t-42.5 335q0 153 28 277.5t77.5 210.5t120 144.5t153.5 85.5t180 27zM381 717q0 -186 39 -297l358 737
q-52 43 -135 43q-62 0 -109 -28.5t-75.5 -74.5t-46.5 -111t-24.5 -129.5t-6.5 -139.5zM645 236q63 0 111 28.5t76.5 74t47 110.5t25 129.5t6.5 138.5q0 184 -39 295l-358 -736q52 -40 131 -40z" />
    <glyph glyph-name="one.tnum" horiz-adv-x="1290" 
d="M129 0v256h410v883h-52l-266 -176v292l266 179h347v-1178h333v-256h-1038z" />
    <glyph glyph-name="two.tnum" horiz-adv-x="1290" 
d="M406 1001h-295q12 223 151 342t373 119q222 0 360 -122.5t138 -338.5q0 -251 -267 -458l-301 -234v-53h606v-256h-1058v307l491 367q50 35 86 66.5t72 72.5t55 87t19 95q0 101 -56.5 153t-152.5 52q-94 0 -152.5 -49t-68.5 -150z" />
    <glyph glyph-name="three.tnum" horiz-adv-x="1290" 
d="M178 1434h922v-301l-275 -203v-56q153 -13 253 -120t100 -291q0 -224 -152 -357t-395 -133q-238 0 -389 131.5t-156 331.5h295q12 -97 78.5 -148.5t171.5 -51.5q116 0 184 62t68 167q0 108 -65.5 171.5t-186.5 63.5q-82 0 -131 -14v244l274 203v53h-596v248z" />
    <glyph glyph-name="four.tnum" horiz-adv-x="1290" 
d="M1044 563h179v-256h-179v-307h-284v307h-682v309l627 818h339v-871zM354 563h416v539h-53l-363 -486v-53z" />
    <glyph glyph-name="five.tnum" horiz-adv-x="1290" 
d="M731 977q199 0 329 -134.5t130 -348.5q0 -231 -150 -376t-381 -145q-245 0 -388.5 129t-155.5 334h295q12 -98 73 -149t166 -51q115 0 180.5 68.5t65.5 184.5q0 124 -67 190t-177 66q-148 0 -227 -106h-274l63 795h885v-248h-656l-22 -293h53q35 26 62.5 41.5t79.5 29
t116 13.5z" />
    <glyph glyph-name="six.tnum" horiz-adv-x="1290" 
d="M735 952q196 0 329.5 -132.5t133.5 -338.5q0 -140 -63.5 -255t-184.5 -184t-278 -69q-127 0 -228.5 39t-180 121.5t-121 223.5t-42.5 333q0 170 35 309t104.5 243.5t182 162t258.5 57.5q192 0 326 -109t155 -270h-293q-39 136 -194 136q-127 0 -204 -96t-87 -283h53
q99 112 299 112zM666 219q107 0 171 66t64 186t-64.5 184t-172.5 64t-173 -63.5t-65 -182.5q0 -120 66.5 -187t173.5 -67z" />
    <glyph glyph-name="seven.tnum" horiz-adv-x="1290" 
d="M1122 1126l-573 -1126h-307l575 1126v52h-674v256h979v-308z" />
    <glyph glyph-name="eight.tnum" horiz-adv-x="1290" 
d="M987 786v-53q38 -16 73 -42.5t67.5 -66t52.5 -97t20 -124.5q0 -87 -36.5 -164.5t-104.5 -137t-174.5 -94t-237.5 -34.5t-237.5 34.5t-174.5 94t-104.5 137t-36.5 164.5q0 67 20 124.5t52.5 97t67.5 66t73 42.5v53q-68 36 -117 107.5t-49 183.5q0 166 137 275.5t369 109.5
t369 -109.5t137 -275.5q0 -58 -15.5 -108t-41.5 -85t-53 -59t-56 -39zM647 1235q-98 0 -159.5 -53.5t-61.5 -134.5q0 -85 61 -138t160 -53q102 0 161.5 52.5t59.5 138.5q0 81 -60 134.5t-161 53.5zM647 219q124 0 192 60.5t68 152.5q0 91 -68 152t-192 61q-125 0 -192.5 -61
t-67.5 -152q0 -93 67.5 -153t192.5 -60z" />
    <glyph glyph-name="nine.tnum" horiz-adv-x="1290" 
d="M557 483q-196 0 -329.5 132.5t-133.5 338.5q0 140 63.5 255t185 184t278.5 69q101 0 185.5 -23.5t157 -77.5t122.5 -136t78 -204t28 -276q0 -170 -35 -309t-104.5 -243.5t-182 -162t-258.5 -57.5q-192 0 -326 109t-155 270h293q39 -135 194 -135q127 0 204 96t87 283h-53
q-100 -113 -299 -113zM627 1217q-107 0 -171.5 -66t-64.5 -186t65 -184t173 -64t172.5 63t64.5 183t-66 187t-173 67z" />
    <glyph glyph-name="dollar.tnum" horiz-adv-x="1290" 
d="M582 1634h129v-174q188 -23 307.5 -135.5t142.5 -286.5h-291q-18 70 -55.5 111.5t-103.5 54.5v-346l106 -22q381 -75 381 -412q0 -87 -30 -164t-88.5 -138.5t-153 -101t-215.5 -47.5v-174h-129v178q-222 18 -345.5 140t-148.5 329h291q33 -178 203 -215v394l-105 20
q-346 69 -346 387q0 173 118.5 293t332.5 137v172zM711 598v-373q88 8 142 57t54 126q0 78 -40 120t-117 62zM582 883v325q-74 -11 -116 -52.5t-42 -111.5q0 -126 158 -161z" />
    <glyph glyph-name="Euro.tnum" horiz-adv-x="1290" 
d="M768 653l-47 -141h-262q41 -276 266 -276q96 0 155 61t72 158h289q-33 -224 -165.5 -353t-350.5 -129q-228 0 -372 140.5t-185 398.5h-154l47 141h91q-3 47 0 125h-138l49 142h103q42 254 187.5 398t369.5 144q211 0 339.5 -118.5t166.5 -325.5h-293q-38 182 -211 182
q-110 0 -178 -71.5t-88 -208.5h401l-49 -142h-367q-6 -64 0 -125h324z" />
    <glyph glyph-name="sterling.tnum" horiz-adv-x="1290" 
d="M487 256h732v-256h-1133v256h35q69 0 98 45.5t29 130.5v127h-160v229h160v203q0 213 120.5 342t340.5 129q216 0 334 -121.5t126 -322.5h-292q-5 93 -43 137.5t-121 44.5q-172 0 -172 -196v-216h428v-229h-428v-96q0 -57 -11.5 -91t-42.5 -63v-53z" />
    <glyph glyph-name="yen.tnum" horiz-adv-x="1290" 
d="M166 649v142h174l-293 643h293l274 -643h58l276 643h295l-295 -643h174v-142h-235l-58 -125h293v-141h-329v-383h-295v383h-332v141h295l-58 125h-237z" />
    <glyph glyph-name="uni20BD.tnum" horiz-adv-x="1290" 
d="M219 1434h520q245 0 376.5 -118.5t131.5 -334.5q0 -218 -131.5 -338.5t-376.5 -120.5h-225v-125h358v-141h-358v-256h-295v256h-160v141h160v125h-160v248h160v664zM514 770h180q137 0 198.5 54.5t61.5 158.5q0 102 -61 152.5t-199 50.5h-180v-416z" />
    <glyph glyph-name="uni20B4.tnum" horiz-adv-x="1290" 
d="M66 659h1159v-141h-758q-12 -40 -12 -84q0 -100 58 -153.5t153 -53.5q87 0 140.5 40.5t76.5 125.5h299q-33 -198 -162.5 -309t-355.5 -111q-124 0 -222 36t-158 98t-91 141t-31 170q0 54 12 100h-108v141zM66 926h751q27 48 27 104q0 84 -47 131t-129 47
q-84 0 -128.5 -38.5t-62.5 -114.5h-291q17 183 150 295t334 112q111 0 201 -34t146.5 -92.5t87 -134.5t30.5 -161q0 -51 -19 -114h109v-142h-1159v142z" />
    <glyph glyph-name="uni20B8.tnum" horiz-adv-x="1290" 
d="M115 1026v141h1061v-141h-383v-1026h-295v1026h-383zM115 1292v142h1061v-142h-1061z" />
    <glyph glyph-name="cent.tnum" horiz-adv-x="1290" 
d="M870 354h283q-20 -162 -137 -264.5t-297 -114.5v-139h-109v141q-216 17 -342.5 166t-126.5 383q0 233 126 381t343 168v142h109v-140q178 -12 292 -109t134 -251h-285q-30 109 -141 121v-623q63 6 101.5 42.5t49.5 96.5zM428 528q0 -120 45 -206.5t137 -102.5v615
q-93 -19 -137.5 -103t-44.5 -203z" />
    <glyph glyph-name="circumflex.cap" horiz-adv-x="858" 
d="M553 1835l223 -264h-227l-96 112h-54l-94 -112h-223l223 264h248z" />
    <glyph glyph-name="dieresis.cap" horiz-adv-x="806" 
d="M725 1602h-240v233h240v-233zM324 1602h-242v233h242v-233z" />
    <glyph glyph-name="acute.cap" horiz-adv-x="669" 
d="M588 1835l-240 -264h-260l186 264h314z" />
    <glyph glyph-name="grave.cap" horiz-adv-x="669" 
d="M326 1571l-238 264h311l189 -264h-262z" />
    <glyph glyph-name="ring.cap" horiz-adv-x="647" 
d="M324 1982q102 0 171.5 -68t69.5 -167t-69.5 -167.5t-171.5 -68.5q-99 0 -170.5 69t-71.5 167t71.5 166.5t170.5 68.5zM324 1642q43 0 73.5 31t30.5 74t-30.5 73.5t-73.5 30.5q-42 0 -72.5 -30.5t-30.5 -73.5t31 -74t72 -31z" />
    <glyph glyph-name="caron.cap" horiz-adv-x="858" 
d="M305 1571l-223 264h227l94 -113h54l96 113h223l-223 -264h-248z" />
    <glyph glyph-name="dotaccent.cap" horiz-adv-x="454" 
d="M373 1602h-291v233h291v-233z" />
    <glyph glyph-name="breve.cap" horiz-adv-x="755" 
d="M504 1835h170q-5 -126 -79.5 -195t-217.5 -69q-139 0 -214.5 69.5t-80.5 194.5h172q3 -113 123 -113q60 0 92.5 29.5t34.5 83.5z" />
    <glyph glyph-name="hungarumlaut.cap" horiz-adv-x="974" 
d="M516 1835l-207 -264h-227l158 264h276zM893 1835l-209 -264h-225l159 264h275z" />
    <glyph glyph-name="tilde.cap" horiz-adv-x="847" 
d="M635 1835h131q0 -124 -53.5 -195t-157.5 -71q-56 0 -106.5 24t-94 48t-80.5 24q-35 0 -48 -23.5t-15 -70.5h-129q0 126 52.5 196t156.5 70q55 0 106 -23.5t95.5 -47t82.5 -23.5q34 0 46 23.5t14 68.5z" />
    <glyph glyph-name="macron.cap" horiz-adv-x="782" 
d="M700 1628h-618v168h618v-168z" />
    <glyph glyph-name="cyrbreve" horiz-adv-x="931" 
d="M616 1470h222q-12 -145 -107.5 -226t-265.5 -81q-169 0 -264 81t-107 226h221q7 -55 44 -89.5t106 -34.5q136 0 151 124z" />
    <glyph glyph-name="cyrbreve.cap" horiz-adv-x="937" 
d="M631 1851h225q-12 -149 -113.5 -232t-273.5 -83t-273.5 83t-113.5 232h225q6 -57 48 -92t114 -35q71 0 112.5 35t49.5 92z" />
    <glyph glyph-name="hyphen.case" horiz-adv-x="800" 
d="M713 629h-621v248h621v-248z" />
    <glyph glyph-name="endash.case" horiz-adv-x="1271" 
d="M1180 643h-1090v221h1090v-221z" />
    <glyph glyph-name="emdash.case" horiz-adv-x="1798" 
d="M1708 643h-1618v221h1618v-221z" />
    <glyph glyph-name="emdash.ss02.case" horiz-adv-x="2957" 
d="M2867 643h-2777v221h2777v-221z" />
    <glyph glyph-name="bracketleft.case" horiz-adv-x="780" 
d="M672 -190h-531v1843h531v-211h-283v-1422h283v-210z" />
    <glyph glyph-name="bracketright.case" horiz-adv-x="780" 
d="M639 -190h-530v210h282v1422h-282v211h530v-1843z" />
    <glyph glyph-name="braceleft.case" horiz-adv-x="874" 
d="M412 758v-53q63 -20 100 -78.5t37 -153.5v-235q0 -112 43 -165t139 -53h72v-210h-115q-181 0 -284 101t-103 273v242q0 98 -33 146.5t-112 48.5h-50v221h50q79 0 112 48t33 146v242q0 172 103 273.5t284 101.5h115v-211h-72q-96 0 -139 -52.5t-43 -164.5v-236
q0 -95 -37 -153t-100 -78z" />
    <glyph glyph-name="braceright.case" horiz-adv-x="874" 
d="M463 705v53q-63 20 -100 78t-37 153v236q0 111 -43.5 164t-139.5 53h-71v211h114q181 0 284 -101.5t103 -273.5v-242q0 -98 33.5 -146t112.5 -48h49v-221h-49q-79 0 -112.5 -48.5t-33.5 -146.5v-242q0 -172 -103 -273t-284 -101h-114v210h71q96 0 139.5 53t43.5 165v235
q0 95 37 153.5t100 78.5z" />
    <glyph glyph-name="parenleft.case" horiz-adv-x="665" 
d="M338 735q0 -149 27 -288t76.5 -255.5t100 -204t115.5 -177.5h-249q-318 383 -318 925q0 530 311 918h250q-63 -89 -112.5 -176t-98 -203t-75.5 -254t-27 -285z" />
    <glyph glyph-name="parenright.case" horiz-adv-x="665" 
d="M328 735q0 147 -27 285t-76 254t-98.5 203t-112.5 176h250q311 -388 311 -918q0 -543 -317 -925h-250q51 71 92 137.5t85.5 158.5t74 184t49 208t19.5 237z" />
    <glyph glyph-name="guillemotright.case" horiz-adv-x="1345" 
d="M975 700v54l-350 372h309l305 -315v-168l-305 -317h-309zM457 700v54l-351 372h310l305 -315v-168l-305 -317h-310z" />
    <glyph glyph-name="guillemotleft.case" horiz-adv-x="1345" 
d="M371 754v-54l350 -374h-309l-306 317v168l306 315h309zM889 754v-54l350 -374h-309l-305 317v168l305 315h309z" />
    <glyph glyph-name="guilsinglright.case" horiz-adv-x="827" 
d="M457 700v54l-351 372h310l305 -315v-168l-305 -317h-310z" />
    <glyph glyph-name="guilsinglleft.case" horiz-adv-x="827" 
d="M371 754v-54l350 -374h-309l-306 317v168l306 315h309z" />
    <glyph glyph-name="exclamdown.case" horiz-adv-x="706" 
d="M498 0h-289v594l53 428h182l54 -428v-594zM197 1462h313v-311h-313v311z" />
    <glyph glyph-name="questiondown.case" horiz-adv-x="1183" 
d="M610 -27q-243 0 -372 119t-129 307q0 59 13.5 108.5t33.5 85.5t55 71.5t66 59.5t79 56q77 53 104 89.5t27 99.5v53h293v-53q0 -81 -22 -139.5t-62 -101.5t-116 -99q-11 -8 -35.5 -26t-34 -25t-28.5 -23t-27 -25t-20 -25t-16.5 -30.5t-8.5 -33.5t-4 -40q0 -76 51 -125
t145 -49q103 0 157 51t58 164h293q-2 -99 -34.5 -183t-93.5 -148.5t-156.5 -101t-215.5 -36.5zM479 1462h314v-311h-314v311z" />
    <glyph glyph-name="a.ss03" 
d="M539 1079q204 0 295 -123h53v97h276v-1053h-276v96h-53q-94 -123 -295 -123q-205 0 -326 155t-121 398t121 398t326 155zM631 211q126 0 191 90t65 225t-65 224.5t-191 89.5q-123 0 -187.5 -88t-64.5 -226t64.5 -226.5t187.5 -88.5z" />
    <glyph glyph-name="aacute.ss03" 
d="M987 1489l-239 -297h-252l188 297h303zM539 1079q204 0 295 -123h53v97h276v-1053h-276v96h-53q-94 -123 -295 -123q-205 0 -326 155t-121 398t121 398t326 155zM631 211q126 0 191 90t65 225t-65 224.5t-191 89.5q-123 0 -187.5 -88t-64.5 -226t64.5 -226.5t187.5 -88.5
z" />
    <glyph glyph-name="agrave.ss03" 
d="M573 1192l-237 297h301l190 -297h-254zM539 1079q204 0 295 -123h53v97h276v-1053h-276v96h-53q-94 -123 -295 -123q-205 0 -326 155t-121 398t121 398t326 155zM631 211q126 0 191 90t65 225t-65 224.5t-191 89.5q-123 0 -187.5 -88t-64.5 -226t64.5 -226.5t187.5 -88.5
z" />
    <glyph glyph-name="acircumflex.ss03" 
d="M539 1079q204 0 295 -123h53v97h276v-1053h-276v96h-53q-94 -123 -295 -123q-205 0 -326 155t-121 398t121 398t326 155zM631 211q126 0 191 90t65 225t-65 224.5t-191 89.5q-123 0 -187.5 -88t-64.5 -226t64.5 -226.5t187.5 -88.5zM786 1489l226 -297h-217l-107 135h-53
l-105 -135h-213l226 297h243z" />
    <glyph glyph-name="adieresis.ss03" 
d="M539 1079q204 0 295 -123h53v97h276v-1053h-276v96h-53q-94 -123 -295 -123q-205 0 -326 155t-121 398t121 398t326 155zM631 211q126 0 191 90t65 225t-65 224.5t-191 89.5q-123 0 -187.5 -88t-64.5 -226t64.5 -226.5t187.5 -88.5zM979 1233h-240v256h240v-256z
M578 1233h-242v256h242v-256z" />
    <glyph glyph-name="atilde.ss03" 
d="M866 1483h129q0 -133 -53 -210t-156 -77q-43 0 -85.5 18.5t-69.5 40t-60 40t-61 18.5q-68 0 -68 -117h-129q0 134 53.5 210.5t155.5 76.5q43 0 85.5 -18.5t70 -40t61.5 -40t62 -18.5q65 0 65 117zM539 1079q204 0 295 -123h53v97h276v-1053h-276v96h-53
q-94 -123 -295 -123q-205 0 -326 155t-121 398t121 398t326 155zM631 211q126 0 191 90t65 225t-65 224.5t-191 89.5q-123 0 -187.5 -88t-64.5 -226t64.5 -226.5t187.5 -88.5z" />
    <glyph glyph-name="aring.ss03" 
d="M653 1640q102 0 172 -68t70 -167t-70 -167.5t-172 -68.5q-99 0 -170 69t-71 167t71 166.5t170 68.5zM653 1303q43 0 74 30t31 72q0 43 -31 73.5t-74 30.5q-41 0 -71.5 -30.5t-30.5 -73.5q0 -42 30 -72t72 -30zM539 1079q204 0 295 -123h53v97h276v-1053h-276v96h-53
q-94 -123 -295 -123q-205 0 -326 155t-121 398t121 398t326 155zM631 211q126 0 191 90t65 225t-65 224.5t-191 89.5q-123 0 -187.5 -88t-64.5 -226t64.5 -226.5t187.5 -88.5z" />
    <glyph glyph-name="amacron.ss03" 
d="M539 1079q204 0 295 -123h53v97h276v-1053h-276v96h-53q-94 -123 -295 -123q-205 0 -326 155t-121 398t121 398t326 155zM631 211q126 0 191 90t65 225t-65 224.5t-191 89.5q-123 0 -187.5 -88t-64.5 -226t64.5 -226.5t187.5 -88.5zM981 1268h-619v174h619v-174z" />
    <glyph glyph-name="abreve.ss03" 
d="M539 1079q204 0 295 -123h53v97h276v-1053h-276v96h-53q-94 -123 -295 -123q-205 0 -326 155t-121 398t121 398t326 155zM631 211q126 0 191 90t65 225t-65 224.5t-191 89.5q-123 0 -187.5 -88t-64.5 -226t64.5 -226.5t187.5 -88.5zM784 1489h170q0 -138 -75.5 -217.5
t-219.5 -79.5q-145 0 -221 79.5t-76 217.5h173q0 -139 124 -139q61 0 93 36t32 103z" />
    <glyph glyph-name="aogonek.ss03" 
d="M539 1079q204 0 295 -123h53v97h276v-1053q-55 -30 -87 -69.5t-32 -80.5q0 -42 31.5 -67t91.5 -25v-168h-61q-141 0 -208 53.5t-67 143.5q0 64 39 121.5t115 91.5h-98v96h-53q-94 -123 -295 -123q-205 0 -326 155t-121 398t121 398t326 155zM631 211q126 0 191 90t65 225
t-65 224.5t-191 89.5q-123 0 -187.5 -88t-64.5 -226t64.5 -226.5t187.5 -88.5z" />
    <glyph glyph-name="t.ss04" horiz-adv-x="778" 
d="M489 0h-286v813h-154v240h154v295h286v-295h232v-240h-232v-813z" />
    <glyph glyph-name="tcaron.ss04" horiz-adv-x="907" 
d="M807 1370h-137v248h301v-299l-156 -168h-164l156 168v51zM489 0h-286v813h-154v240h154v295h286v-295h232v-240h-232v-813z" />
    <glyph glyph-name="uni0163.ss04" horiz-adv-x="778" 
d="M489 0h-286v813h-154v240h154v295h286v-295h232v-240h-232v-813zM350 -475h-168l142 127v43h-121v194h286v-237z" />
    <glyph glyph-name="Y.ss05" horiz-adv-x="1396" 
d="M684 807h57l310 655h309l-701 -1462h-305l209 438l-540 1024h319z" />
    <glyph glyph-name="Yacute.ss05" horiz-adv-x="1396" 
d="M684 807h57l310 655h309l-701 -1462h-305l209 438l-540 1024h319zM1036 1835l-239 -264h-260l186 264h313z" />
    <glyph glyph-name="Ydieresis.ss05" horiz-adv-x="1396" 
d="M684 807h57l310 655h309l-701 -1462h-305l209 438l-540 1024h319zM1022 1602h-240v233h240v-233zM621 1602h-242v233h242v-233z" />
    <glyph glyph-name="ampersand.ss06" horiz-adv-x="1394" 
d="M1341 885v-242h-135v-178q0 -216 -154 -354t-403 -138q-257 0 -409 121.5t-152 323.5q0 132 60.5 214t146.5 116v53q-152 76 -152 272q0 175 137 282t349 107q209 0 331 -97.5t146 -268.5h-289q-35 125 -194 125q-88 0 -141.5 -45t-53.5 -119q0 -79 56 -125.5t153 -46.5
h94v-242h-94q-258 0 -258 -209q0 -99 71.5 -155t198.5 -56q128 0 198.5 63t70.5 179v420h423z" />
    <glyph glyph-name="zero.ss07" horiz-adv-x="1323" 
d="M659 1462q122 0 223 -44t178 -132t120 -233t43 -336q0 -190 -43 -335t-120 -233t-178 -132t-223 -44q-121 0 -221.5 44t-176.5 132t-118.5 233t-42.5 335q0 153 28 277.5t77.5 210.5t120 144.5t153.5 85.5t180 27zM397 717q0 -186 39 -297l359 737q-52 43 -136 43
q-62 0 -109 -28.5t-75.5 -74.5t-46.5 -111t-24.5 -129.5t-6.5 -139.5zM662 236q63 0 111 28.5t76.5 74t47 110.5t25 129.5t6.5 138.5q0 184 -39 295l-359 -736q52 -40 132 -40z" />
    <glyph glyph-name="emdash.ss02" horiz-adv-x="2957" 
d="M2867 469h-2777v221h2777v-221z" />
    <glyph glyph-name="uni0430.ss03" 
d="M539 1079q204 0 295 -123h53v97h276v-1053h-276v96h-53q-94 -123 -295 -123q-205 0 -326 155t-121 398t121 398t326 155zM631 211q126 0 191 90t65 225t-65 224.5t-191 89.5q-123 0 -187.5 -88t-64.5 -226t64.5 -226.5t187.5 -88.5z" />
    <glyph glyph-name="uni0423.ss08" horiz-adv-x="1400" 
d="M291 0v289h65q73 0 117.5 24.5t73.5 81.5l24 51l-536 1016h321l338 -649h58l305 649h309l-541 -1134q-82 -178 -186 -253t-274 -75h-74z" />
    <glyph glyph-name="uni040E.ss08" horiz-adv-x="1400" 
d="M881 1851h225q-12 -149 -113.5 -232t-273.5 -83t-273.5 83t-113.5 232h225q6 -57 48 -92t114 -35q71 0 112.5 35t49.5 92zM291 0v289h65q73 0 117.5 24.5t73.5 81.5l24 51l-536 1016h321l338 -649h58l305 649h309l-541 -1134q-82 -178 -186 -253t-274 -75h-74z" />
    <glyph glyph-name="quotedbl.ss01" horiz-adv-x="649" 
d="M164 969v493h69v-493h-69zM416 969v493h69v-493h-69z" />
    <glyph glyph-name="numbersign.ss01" horiz-adv-x="1128" 
d="M614 0l66 426h-326l-65 -426h-70l66 426h-213v63h225l70 455h-209v64h219l67 426h70l-70 -426h330l68 426h69l-67 -426h213v-64h-223l-72 -455h211v-63h-221l-66 -426h-72zM436 944l-71 -455h327l72 455h-328z" />
    <glyph glyph-name="quotesingle.ss01" horiz-adv-x="397" 
d="M164 969v493h69v-493h-69z" />
    <glyph glyph-name="parenleft.ss01" horiz-adv-x="487" 
d="M389 1554h86q-303 -385 -303 -921q0 -537 303 -922h-88q-285 387 -285 922q0 531 287 921z" />
    <glyph glyph-name="parenright.ss01" horiz-adv-x="491" 
d="M12 1554h86q287 -390 287 -921q0 -535 -285 -922h-88q303 385 303 922q0 536 -303 921z" />
    <glyph glyph-name="bracketleft.ss01" horiz-adv-x="528" 
d="M406 -289h-242v1843h242v-63h-173v-1716h173v-64z" />
    <glyph glyph-name="bracketright.ss01" horiz-adv-x="528" 
d="M365 -289h-242v64h172v1716h-172v63h242v-1843z" />
    <glyph glyph-name="braceleft.ss01" horiz-adv-x="690" 
d="M281 651v-37q37 -14 55 -56t18 -130v-440q0 -112 44.5 -162.5t148.5 -50.5h61v-64h-61q-129 0 -195.5 65t-66.5 214v418q0 104 -18 149t-77 45h-26v62h26q59 0 77 45t18 149v418q0 149 66.5 213.5t195.5 64.5h61v-63h-61q-104 0 -148.5 -50.5t-44.5 -162.5v-440
q0 -88 -18 -130.5t-55 -56.5z" />
    <glyph glyph-name="braceright.ss01" horiz-adv-x="690" 
d="M410 614v37q-37 14 -55.5 56.5t-18.5 130.5v440q0 112 -44.5 162.5t-148.5 50.5h-61v63h61q129 0 196 -64.5t67 -213.5v-418q0 -52 3 -84t12.5 -59t28.5 -39t50 -12h26v-62h-26q-31 0 -50 -12t-28.5 -39t-12.5 -59t-3 -84v-418q0 -149 -67 -214t-196 -65h-61v64h61
q104 0 148.5 50.5t44.5 162.5v440q0 88 18.5 130t55.5 56z" />
    <glyph glyph-name="asterisk.ss01" horiz-adv-x="925" 
d="M428 1462h70l-2 -368l348 123l20 -72l-348 -113l219 -289l-57 -47l-215 301l-215 -301l-58 47l222 291l-351 111l23 72l346 -123z" />
    <glyph glyph-name="plus.ss01" horiz-adv-x="1378" 
d="M657 625v493h68v-493h492v-64h-492v-495h-68v495h-495v64h495z" />
    <glyph glyph-name="minus.ss01" horiz-adv-x="1378" 
d="M1217 561h-1055v64h1055v-64z" />
    <glyph glyph-name="less.ss01" horiz-adv-x="1355" 
d="M1194 172v-68l-1032 443v90l1032 442v-67l-930 -402v-37z" />
    <glyph glyph-name="equal.ss01" horiz-adv-x="1376" 
d="M1214 426v-64h-1052v64h1052zM1214 819v-63h-1052v63h1052z" />
    <glyph glyph-name="greater.ss01" horiz-adv-x="1355" 
d="M162 104v68l930 401v37l-930 402v67l1032 -442v-90z" />
    <glyph glyph-name="hyphen.ss01" horiz-adv-x="813" 
d="M717 545h-621v63h621v-63z" />
    <glyph glyph-name="endash.ss01" horiz-adv-x="1271" 
d="M1180 545h-1090v63h1090v-63z" />
    <glyph glyph-name="emdash.ss01" horiz-adv-x="1800" 
d="M1708 545h-1618v63h1618v-63z" />
    <glyph glyph-name="emdash.ss01.ss02" horiz-adv-x="2957" 
d="M2867 545h-2777v63h2777v-63z" />
    <glyph glyph-name="underscore.ss01" horiz-adv-x="1050" 
d="M1053 -254h-1055v64h1055v-64z" />
    <glyph glyph-name="slash.ss01" horiz-adv-x="747" 
d="M74 -289h-74l618 1843h68z" />
    <glyph glyph-name="bar.ss01" horiz-adv-x="438" 
d="M184 -289v1843h70v-1843h-70z" />
    <glyph glyph-name="backslash.ss01" horiz-adv-x="747" 
d="M748 -289h-74l-613 1843h68z" />
    <glyph glyph-name="degree.ss01" horiz-adv-x="944" 
d="M82 1071q0 174 111.5 290t277.5 116t278.5 -116t112.5 -290q0 -173 -112.5 -288t-278.5 -115t-277.5 115t-111.5 288zM152 1071q0 -146 90 -243t229 -97q140 0 231 97t91 243q0 148 -90.5 245t-231.5 97q-139 0 -229 -97t-90 -245z" />
    <glyph glyph-name="guillemotleft.ss01" horiz-adv-x="993" 
d="M180 610v-37l367 -383h-86l-355 361v80l349 360h86zM520 610v-37l367 -383h-86l-355 361v80l349 360h86z" />
    <glyph glyph-name="guillemotright.ss01" horiz-adv-x="989" 
d="M809 573v37l-363 381h86l351 -358v-80l-351 -363h-86zM469 573v37l-363 381h87l350 -358v-80l-350 -363h-87z" />
    <glyph glyph-name="guilsinglleft.ss01" horiz-adv-x="653" 
d="M180 610v-37l367 -383h-86l-355 361v80l349 360h86z" />
    <glyph glyph-name="guilsinglright.ss01" horiz-adv-x="653" 
d="M473 573v37l-360 381h86l348 -360v-80l-354 -361h-87z" />
    <glyph glyph-name="quoteleft.ss01" horiz-adv-x="479" 
d="M217 1249h68v-209h-131v244l98 178h63l-98 -178v-35z" />
    <glyph glyph-name="quoteright.ss01" horiz-adv-x="479" 
d="M252 1253h-68v209h131v-243l-98 -179h-63l98 179v34z" />
    <glyph glyph-name="quotesinglbase.ss01" horiz-adv-x="479" 
d="M252 0h-68v209h131v-244l-98 -178h-63l98 178v35z" />
    <glyph glyph-name="quotedblleft.ss01" horiz-adv-x="759" 
d="M498 1249h67v-209h-131v244l98 178h64l-98 -178v-35zM217 1249h68v-209h-131v244l98 178h63l-98 -178v-35z" />
    <glyph glyph-name="quotedblright.ss01" horiz-adv-x="759" 
d="M252 1253h-68v209h131v-243l-98 -179h-63l98 179v34zM532 1253h-67v209h131v-243l-98 -179h-64l98 179v34z" />
    <glyph glyph-name="quotedblbase.ss01" horiz-adv-x="759" 
d="M252 0h-68v209h131v-244l-98 -178h-63l98 178v35zM532 0h-67v209h131v-244l-98 -178h-64l98 178v35z" />
    <glyph glyph-name="arrowleft.ss01" horiz-adv-x="1654" 
d="M612 1053h95l-451 -451v-41h1292v-63h-1292v-43l451 -455h-95l-526 528z" />
    <glyph glyph-name="arrowup.ss01" horiz-adv-x="1378" 
d="M1217 936v-94l-453 454h-39v-1296h-70v1296h-39l-454 -454v94l528 526z" />
    <glyph glyph-name="arrowright.ss01" horiz-adv-x="1654" 
d="M948 1053h94l527 -525l-527 -528h-94l451 455v43h-1293v63h1293v41z" />
    <glyph glyph-name="arrowdown.ss01" horiz-adv-x="1378" 
d="M1217 621v-95l-527 -526l-528 526v95l454 -455h39v1296h70v-1296h39z" />
    <glyph glyph-name="uni2196.ss01" horiz-adv-x="1382" 
d="M907 1462l66 -65h-639l-27 -29l914 -917l-47 -48l-918 916l-27 -29v-641l-67 68v745h745z" />
    <glyph glyph-name="uni2197.ss01" horiz-adv-x="1382" 
d="M410 1397l65 65h746v-745l-68 -68v641l-27 29l-917 -916l-47 48l913 917l-26 29h-639z" />
    <glyph glyph-name="uni2198.ss01" horiz-adv-x="1382" 
d="M973 66l-66 -66h-745v745l67 68v-641l27 -29l918 916l47 -47l-914 -918l27 -28h639z" />
    <glyph glyph-name="uni2199.ss01" horiz-adv-x="1382" 
d="M475 0l-65 66h639l26 28l-913 918l47 47l917 -916l27 29v641l68 -68v-745h-746z" />
    <glyph glyph-name="parenleft.ss01.case" horiz-adv-x="487" 
d="M389 1653h86q-303 -385 -303 -922q0 -536 303 -921h-88q-285 387 -285 921q0 532 287 922z" />
    <glyph glyph-name="parenright.ss01.case" horiz-adv-x="487" 
d="M12 1653h86q287 -390 287 -922q0 -534 -285 -921h-88q303 385 303 921q0 537 -303 922z" />
    <glyph glyph-name="bracketleft.ss01.case" horiz-adv-x="528" 
d="M406 -190h-242v1843h242v-64h-173v-1716h173v-63z" />
    <glyph glyph-name="bracketright.ss01.case" horiz-adv-x="528" 
d="M365 -190h-242v63h172v1716h-172v64h242v-1843z" />
    <glyph glyph-name="braceleft.ss01.case" horiz-adv-x="690" 
d="M281 750v-37q37 -14 55 -56.5t18 -130.5v-440q0 -112 44.5 -162.5t148.5 -50.5h61v-63h-61q-129 0 -195.5 64.5t-66.5 213.5v418q0 104 -18 149t-77 45h-26v62h26q59 0 77 45t18 149v418q0 149 66.5 214t195.5 65h61v-64h-61q-104 0 -148.5 -50.5t-44.5 -162.5v-440
q0 -88 -18 -130t-55 -56z" />
    <glyph glyph-name="braceright.ss01.case" horiz-adv-x="690" 
d="M410 713v37q-37 14 -55.5 56t-18.5 130v440q0 112 -44.5 162.5t-148.5 50.5h-61v64h61q129 0 196 -65t67 -214v-418q0 -52 3 -84t12.5 -59t28.5 -39t50 -12h26v-62h-26q-31 0 -50 -12t-28.5 -39t-12.5 -59t-3 -84v-418q0 -149 -67 -213.5t-196 -64.5h-61v63h61
q104 0 148.5 50.5t44.5 162.5v440q0 88 18.5 130.5t55.5 56.5z" />
    <glyph glyph-name="guillemotleft.ss01.case" horiz-adv-x="993" 
d="M180 745v-36l367 -383h-86l-355 360v80l349 360h86zM520 745v-36l367 -383h-86l-355 360v80l349 360h86z" />
    <glyph glyph-name="guillemotright.ss01.case" horiz-adv-x="989" 
d="M809 709v36l-363 381h86l351 -358v-80l-351 -362h-86zM469 709v36l-363 381h87l350 -358v-80l-350 -362h-87z" />
    <glyph glyph-name="guilsinglleft.ss01.case" horiz-adv-x="653" 
d="M180 745v-36l367 -383h-86l-355 360v80l349 360h86z" />
    <glyph glyph-name="guilsinglright.ss01.case" horiz-adv-x="653" 
d="M473 709v36l-360 381h86l348 -360v-80l-354 -360h-87z" />
    <glyph glyph-name="endash.ss01.case" horiz-adv-x="1271" 
d="M1180 719h-1090v63h1090v-63z" />
    <glyph glyph-name="hyphen.ss01.case" horiz-adv-x="813" 
d="M717 719h-621v63h621v-63z" />
    <glyph glyph-name="emdash.ss01.case" horiz-adv-x="1800" 
d="M1708 719h-1618v63h1618v-63z" />
    <glyph glyph-name="emdash.ss01.ss02.case" horiz-adv-x="2957" 
d="M2867 719h-2777v63h2777v-63z" />
    </font>
</defs>
</svg>
