<?xml version="1.0" standalone="no"?>
<!DOCTYPE svg PUBLIC "-//W3C//DTD SVG 1.1//EN" "http://www.w3.org/Graphics/SVG/1.1/DTD/svg11.dtd" >
<svg xmlns="http://www.w3.org/2000/svg" xmlns:xlink="http://www.w3.org/1999/xlink" version="1.1">
<metadata>
Created by FontForge 20170731 at Tue Sep 29 09:29:09 2020
 By Aleksey,,,
Copyright (c) 2014 by Vyacheslav Kirilenko, Gayane Bagdasaryan. All rights reserved.
</metadata>
<defs>
<font id="Formular-BoldItalic" horiz-adv-x="1290" >
  <font-face 
    font-family="Formular"
    font-weight="700"
    font-style="italic"
    font-stretch="normal"
    units-per-em="2048"
    panose-1="2 0 0 0 0 0 0 0 0 0"
    ascent="1638"
    descent="-410"
    x-height="1053"
    cap-height="1462"
    bbox="-215 -475 3017 2003"
    underline-thickness="102"
    underline-position="-307"
    slope="-10"
    unicode-range="U+000D-FEFF"
  />
<missing-glyph horiz-adv-x="1052" 
d="M176 0v1462h844v-1462h-844zM326 137h546v1188h-546v-1188z" />
    <glyph glyph-name="fi" unicode="fi" horiz-adv-x="1384" 
d="M893 813h-260l-144 -813h-286l143 813h-151l41 240h153l17 90q35 188 146.5 267t299.5 79h160l-43 -240h-127q-128 0 -154 -133l-14 -63h260zM1415 1053l-184 -1053h-287l184 1053h287zM1448 1233h-289l45 256h291z" />
    <glyph glyph-name="fl" unicode="fl" horiz-adv-x="1382" 
d="M893 813h-260l-144 -813h-286l143 813h-151l41 240h153l17 90q35 188 146.5 267t299.5 79h160l-43 -240h-127q-128 0 -154 -133l-14 -63h260zM1493 1489l-262 -1489h-287l262 1489h287z" />
    <glyph glyph-name=".notdef" horiz-adv-x="1052" 
d="M176 0v1462h844v-1462h-844zM326 137h546v1188h-546v-1188z" />
    <glyph glyph-name=".null" horiz-adv-x="0" 
 />
    <glyph glyph-name="nonmarkingreturn" horiz-adv-x="682" 
 />
    <glyph glyph-name="NULL" horiz-adv-x="0" 
 />
    <glyph glyph-name="NULL" horiz-adv-x="0" 
 />
    <glyph glyph-name="CR" unicode="&#xd;" horiz-adv-x="569" 
 />
    <glyph glyph-name="space" unicode=" " horiz-adv-x="569" 
 />
    <glyph glyph-name="exclam" unicode="!" horiz-adv-x="706" 
d="M465 1462h289l-105 -594l-129 -428h-182l24 428zM510 0h-313l53 311h315z" />
    <glyph glyph-name="quotedbl" unicode="&#x22;" horiz-adv-x="960" 
d="M303 874l103 588h258l-103 -588h-258zM709 874l102 588h258l-102 -588h-258z" />
    <glyph glyph-name="numbersign" unicode="#" horiz-adv-x="1312" 
d="M254 1065h244l59 369h221l-57 -369h231l60 369h221l-57 -369h198v-217h-233l-41 -262h207v-217h-240l-59 -369h-226l60 369h-232l-57 -369h-225l57 369h-197v217h232l43 262h-209v217zM686 848l-41 -262h232l41 262h-232z" />
    <glyph glyph-name="dollar" unicode="$" horiz-adv-x="1339" 
d="M883 1634h137l-33 -186q170 -32 271.5 -137t105.5 -273h-289q-6 64 -41.5 105t-91.5 55l-63 -344l96 -29q325 -99 325 -389q0 -133 -71.5 -239.5t-195 -165t-273.5 -58.5q-23 0 -37 2l-31 -176h-133l33 185q-195 33 -307.5 151.5t-116.5 310.5h291q11 -168 178 -206
l68 389l-95 30q-148 47 -222.5 139t-74.5 222q0 197 134.5 315.5t349.5 126.5q32 0 55 -2zM834 594l-66 -367q101 -5 168.5 41t67.5 144q0 64 -35.5 105t-106.5 67zM606 1044q0 -58 30 -90.5t91 -54.5l23 -8l59 323q-88 0 -145.5 -43.5t-57.5 -126.5z" />
    <glyph glyph-name="percent" unicode="%" horiz-adv-x="1851" 
d="M594 0h-207l1120 1434h207zM954 1147q0 -69 -14.5 -134.5t-45.5 -125t-75.5 -103.5t-108.5 -70t-141 -26q-138 0 -222.5 87.5t-84.5 228.5q0 88 23.5 168t68.5 146t119.5 105t169.5 39q142 0 226.5 -86.5t84.5 -228.5zM580 856q62 0 104.5 44.5t60 106t17.5 132.5
t-32 113t-95 42q-61 0 -103.5 -46t-59.5 -107t-17 -129q0 -71 31 -113.5t94 -42.5zM1839 432q0 -87 -24 -167.5t-69.5 -146.5t-121 -105.5t-170.5 -39.5q-138 0 -223.5 87.5t-85.5 228.5q0 87 24 167.5t69.5 146.5t120.5 105.5t169 39.5q140 0 225.5 -87t85.5 -229z
M1464 141q61 0 103.5 44.5t60 106.5t17.5 132q0 71 -31 113.5t-94 42.5q-61 0 -104 -46t-61 -108t-18 -129q0 -71 32 -113.5t95 -42.5z" />
    <glyph glyph-name="ampersand" unicode="&#x26;" horiz-adv-x="1546" 
d="M463 784l26 13l3 53q-91 121 -91 254q0 160 115.5 259t284.5 99q175 0 285 -88.5t110 -238.5q0 -124 -77.5 -213t-229.5 -166l219 -291q97 123 125 260h278q-60 -243 -241 -453l221 -272h-326l-67 86h-54q-183 -113 -378 -113q-218 0 -351 108.5t-133 293.5
q0 272 281 409zM690 219q127 0 234 82l-260 338l-56 -27q-145 -77 -145 -209q0 -85 61.5 -134.5t165.5 -49.5zM657 1112q0 -63 58 -143l37 -49l61 34q66 39 97.5 76.5t31.5 91.5q0 56 -39 90.5t-100 34.5q-64 0 -105 -37t-41 -98z" />
    <glyph glyph-name="quotesingle" unicode="'" horiz-adv-x="555" 
d="M303 874l103 588h258l-103 -588h-258z" />
    <glyph glyph-name="parenleft" unicode="(" horiz-adv-x="679" 
d="M627 -289h-246q-191 291 -191 713q0 328 133.5 616t372.5 514h265q-124 -140 -210 -258t-161.5 -260t-113.5 -297.5t-38 -326.5q0 -354 189 -701z" />
    <glyph glyph-name="parenright" unicode=")" horiz-adv-x="679" 
d="M276 1554h246q191 -291 191 -712q0 -328 -133.5 -616.5t-372.5 -514.5h-264q97 110 170 204t142 208t113 223.5t70.5 239.5t26.5 268q0 353 -189 700z" />
    <glyph glyph-name="asterisk" unicode="*" horiz-adv-x="1017" 
d="M1149 1057l-332 -88l158 -256l-170 -117l-135 272l-230 -270l-153 123l248 256l-293 88l84 186l286 -112l41 323h203l-65 -323l315 110z" />
    <glyph glyph-name="plus" unicode="+" horiz-adv-x="1378" 
d="M659 715v403h244v-403h408v-244h-408v-405h-244v405h-403v244h403z" />
    <glyph glyph-name="comma" unicode="," horiz-adv-x="600" 
d="M281 0h-140l56 311h313l-61 -362l-201 -240h-176l200 240z" />
    <glyph glyph-name="hyphen" unicode="-" horiz-adv-x="813" 
d="M797 455h-621l43 247h621z" />
    <glyph glyph-name="period" unicode="." horiz-adv-x="600" 
d="M457 0h-316l56 311h313z" />
    <glyph glyph-name="slash" unicode="/" horiz-adv-x="897" 
d="M182 -289h-237l942 1843h233z" />
    <glyph glyph-name="zero" unicode="0" horiz-adv-x="1329" 
d="M219 520q0 201 46 374.5t129.5 299t206.5 197t271 71.5q99 0 185 -32.5t154.5 -96.5t108.5 -171.5t40 -246.5q0 -269 -79 -482.5t-228 -336.5t-344 -123q-100 0 -186.5 32.5t-155.5 96.5t-108.5 171.5t-39.5 246.5zM514 510q0 -132 56 -203t151 -71q71 0 130.5 43.5
t98 114t65.5 162.5t38.5 185t11.5 185q0 132 -56 203t-151 71q-71 0 -130.5 -43.5t-98 -114t-65.5 -162.5t-38.5 -185t-11.5 -185z" />
    <glyph glyph-name="one" unicode="1" horiz-adv-x="1083" 
d="M106 0l46 256h321l156 883h-54l-301 -187l50 293l301 189h348l-207 -1178h295l-45 -256h-910z" />
    <glyph glyph-name="two" unicode="2" horiz-adv-x="1232" 
d="M537 1001h-295q37 222 182 341.5t373 119.5q203 0 331.5 -108t128.5 -295q0 -79 -23.5 -152t-59 -128.5t-90.5 -111t-104 -93.5t-114 -82l-155 -109l-107 -74l-8 -53h598l-45 -256h-1049l52 307l198 133l324 215q142 91 216.5 178t74.5 195q0 87 -55.5 129.5t-137.5 42.5
q-96 0 -157 -49t-78 -150z" />
    <glyph glyph-name="three" unicode="3" horiz-adv-x="1236" 
d="M1251 1133l-313 -207l-8 -52q145 -26 220 -124.5t75 -253.5q0 -227 -162.5 -375t-411.5 -148q-238 0 -378 126t-140 337h295q7 -98 71 -149t169 -51q117 0 189.5 71.5t72.5 179.5q0 102 -62 157.5t-168 55.5q-64 0 -122 -12l43 242l307 203l10 53h-596l43 248h918z" />
    <glyph glyph-name="four" unicode="4" 
d="M1133 563h178l-47 -256h-177l-53 -307h-284l53 307h-676l55 309l762 818h342zM449 563h409l94 537h-53l-440 -484z" />
    <glyph glyph-name="five" unicode="5" horiz-adv-x="1280" 
d="M1290 1186h-653l-72 -295h53q94 86 246 86q182 0 294 -115.5t112 -314.5q0 -129 -46 -238.5t-124 -182t-180 -113t-213 -40.5q-124 0 -224.5 36t-166 99t-100 147t-34.5 181h295q4 -97 66.5 -148.5t169.5 -51.5q111 0 186.5 77.5t75.5 208.5q0 107 -60.5 165t-160.5 58
q-135 0 -228 -106h-276l199 795h884z" />
    <glyph glyph-name="six" unicode="6" 
d="M1352 1083h-295q-26 136 -191 136q-114 0 -204.5 -98t-118.5 -271h53q116 102 276 102q180 0 301 -118t121 -304q0 -111 -40 -212t-110.5 -177.5t-176.5 -122t-230 -45.5q-113 0 -206.5 34t-163.5 101.5t-109 175.5t-39 248q0 145 27 281.5t82 254t132 205.5t182.5 138.5
t227.5 50.5q113 0 203.5 -33t147 -88.5t89.5 -121t42 -136.5zM999 510q0 98 -61.5 153.5t-161.5 55.5q-115 0 -186.5 -76.5t-71.5 -198.5q0 -106 60 -165.5t170 -59.5q121 0 186 85t65 206z" />
    <glyph glyph-name="seven" unicode="7" horiz-adv-x="1165" 
d="M1266 1126l-752 -1126h-309l751 1126l13 52h-666l45 256h973z" />
    <glyph glyph-name="eight" unicode="8" horiz-adv-x="1306" 
d="M1120 764l-10 -51q77 -48 122.5 -116t45.5 -175q0 -195 -153.5 -322t-411.5 -127q-256 0 -399.5 114t-143.5 296q0 76 24.5 139.5t66 107.5t84.5 72.5t93 49.5l11 51q-56 40 -93 104.5t-37 149.5q0 110 62 201.5t182.5 147.5t276.5 56q228 0 361.5 -105.5t133.5 -269.5
q0 -120 -63.5 -205.5t-151.5 -117.5zM606 1036q0 -86 60.5 -133t148.5 -47q101 0 166.5 54.5t65.5 148.5q0 82 -62 129t-149 47q-100 0 -165 -54t-65 -145zM471 416q0 -90 72.5 -143.5t175.5 -53.5q119 0 191.5 59t72.5 160q0 99 -72 153t-178 54q-118 0 -190 -61t-72 -168z
" />
    <glyph glyph-name="nine" unicode="9" 
d="M188 352h295q26 -135 191 -135q114 0 204.5 98t118.5 271h-53q-117 -103 -276 -103q-180 0 -301 118t-121 304q0 111 40 212t110.5 177.5t176.5 122t230 45.5q113 0 206.5 -34t163.5 -101.5t109 -175.5t39 -248q0 -145 -27 -281.5t-82 -254t-132 -205.5t-182.5 -138.5
t-227.5 -50.5q-113 0 -203.5 33t-147 88.5t-89.5 121t-42 136.5zM541 926q0 -98 61.5 -153.5t161.5 -55.5q115 0 186.5 76t71.5 198q0 107 -60 166.5t-169 59.5q-121 0 -186.5 -85t-65.5 -206z" />
    <glyph glyph-name="colon" unicode=":" horiz-adv-x="600" 
d="M457 0h-316l56 311h313zM584 741h-316l56 312h313z" />
    <glyph glyph-name="semicolon" unicode=";" horiz-adv-x="600" 
d="M281 0h-140l56 311h313l-61 -362l-201 -240h-176l200 240zM584 741h-316l56 312h313z" />
    <glyph glyph-name="less" unicode="&#x3c;" horiz-adv-x="1355" 
d="M1288 281v-252l-1032 465v196l1032 465v-252l-645 -285v-53z" />
    <glyph glyph-name="equal" unicode="=" horiz-adv-x="1376" 
d="M1309 502v-244h-1053v244h1053zM1309 926v-244h-1053v244h1053z" />
    <glyph glyph-name="greater" unicode="&#x3e;" horiz-adv-x="1355" 
d="M256 29v252l643 284v53l-643 285v252l1032 -465v-196z" />
    <glyph glyph-name="question" unicode="?" horiz-adv-x="1175" 
d="M786 1489q219 0 346.5 -108t127.5 -269q0 -65 -17.5 -121t-44 -97t-70 -80t-83 -65.5t-95.5 -58.5q-87 -51 -124 -92t-50 -106l-10 -52h-289l10 54q16 82 47 140t77.5 100.5t125.5 92.5q16 10 51 32.5t49.5 32t40 29t36.5 33.5t25 34.5t19 43t5 49.5q0 68 -52 111
t-139 43q-99 0 -161 -56t-72 -159h-291q13 99 51.5 182.5t102.5 148.5t162.5 101.5t221.5 36.5zM705 0h-312l53 311h312z" />
    <glyph glyph-name="at" unicode="@" horiz-adv-x="1992" 
d="M1503 -125l60 -108q-239 -156 -541 -156q-249 0 -436 103t-287 288.5t-100 427.5q0 209 70 392t195 315t306.5 208t394.5 76q132 0 255 -32.5t226 -97t180 -154t120 -210t43 -257.5q0 -170 -51.5 -304.5t-158 -216t-253.5 -81.5q-203 0 -258 125h-39q-93 -125 -260 -125
q-155 0 -242.5 99t-87.5 273q0 136 53 252t154 188t229 72q76 0 129 -28t76 -68h39l16 68h230l-86 -521q-11 -57 -11 -92q0 -58 28.5 -83t84.5 -25q48 0 94 26.5t86 80t64 147t24 213.5q0 137 -49 253t-138.5 199t-221.5 129.5t-291 46.5q-172 0 -321 -62t-257.5 -173.5
t-170.5 -274.5t-62 -356q0 -110 25 -211t79.5 -190.5t134.5 -155t196.5 -103.5t258.5 -38q256 0 471 141zM1036 252q98 0 161 94t63 227q0 197 -150 197q-99 0 -160 -95.5t-61 -225.5q0 -99 39 -148t108 -49z" />
    <glyph glyph-name="A" unicode="A" horiz-adv-x="1468" 
d="M1128 0l-51 395h-551l-186 -395h-303l717 1462h473l205 -1462h-304zM893 1169l-240 -507h389l-63 507h-86z" />
    <glyph glyph-name="B" unicode="B" horiz-adv-x="1482" 
d="M1298 784l-10 -53q69 -37 111.5 -112.5t42.5 -174.5q0 -102 -33 -180t-89.5 -127.5t-140 -80.5t-175.5 -43.5t-205 -12.5h-629l256 1462h647q193 0 311.5 -94t118.5 -248q0 -129 -57 -215.5t-148 -120.5zM686 1208l-57 -325h329q101 0 162.5 45t61.5 141q0 43 -18.5 72.5
t-52 43t-67.5 18.5t-79 5h-279zM518 260h348q112 0 183 52.5t71 160.5q0 75 -55 114.5t-139 39.5h-340z" />
    <glyph glyph-name="C" unicode="C" horiz-adv-x="1515" 
d="M1194 467h315q-45 -222 -223 -358t-432 -136q-180 0 -321.5 73.5t-224.5 219t-83 342.5q0 184 55 345t153.5 280t245.5 187.5t322 68.5q230 0 382.5 -122t181.5 -331h-314q-40 181 -268 181q-105 0 -191 -51t-140 -135t-83.5 -189.5t-29.5 -218.5q0 -175 88.5 -276
t246.5 -101q122 0 206.5 59t113.5 162z" />
    <glyph glyph-name="D" unicode="D" horiz-adv-x="1544" 
d="M170 0l256 1462h485q153 0 273.5 -35.5t208.5 -107.5t135 -187.5t47 -269.5q0 -137 -29.5 -262t-94 -235t-157.5 -191t-228 -127.5t-298 -46.5h-598zM520 272h254q83 0 153 20.5t119.5 54t88.5 81t62.5 98t39 108t21.5 108t6 100.5q0 180 -99.5 264t-269.5 84h-211z" />
    <glyph glyph-name="E" unicode="E" horiz-adv-x="1355" 
d="M520 272h791l-45 -272h-1096l256 1462h1073l-47 -272h-770l-53 -307h600l-47 -267h-598z" />
    <glyph glyph-name="F" unicode="F" horiz-adv-x="1320" 
d="M1450 1190h-768l-57 -336h606l-47 -266h-606l-103 -588h-305l256 1462h1071z" />
    <glyph glyph-name="G" unicode="G" horiz-adv-x="1572" 
d="M864 -27q-185 0 -329 74t-227 219.5t-83 341.5q0 187 55 348.5t155 279.5t248.5 185.5t326.5 67.5q234 0 388 -120t183 -325h-315q-24 83 -92 128t-179 45q-110 0 -198.5 -49t-144 -132t-84.5 -188.5t-29 -224.5q0 -175 91.5 -277t256.5 -102q151 0 244.5 83t119.5 236
h-344l43 250h643q-6 -178 -51 -326t-130.5 -265t-225.5 -183t-322 -66z" />
    <glyph glyph-name="H" unicode="H" horiz-adv-x="1587" 
d="M1370 1462h305l-256 -1462h-305l107 612h-639l-107 -612h-305l256 1462h305l-102 -569h643z" />
    <glyph glyph-name="I" unicode="I" horiz-adv-x="665" 
d="M436 1462h305l-256 -1462h-305z" />
    <glyph glyph-name="J" unicode="J" horiz-adv-x="1228" 
d="M594 -27q-203 0 -333 105t-130 291q0 52 8 96h303q-4 -36 -4 -49q0 -170 176 -170q191 0 234 254l168 962h305l-172 -989q-42 -241 -183 -370.5t-372 -129.5z" />
    <glyph glyph-name="K" unicode="K" horiz-adv-x="1533" 
d="M170 0l256 1462h305l-106 -600l694 600h356l-506 -452l314 -1010h-320l-239 737h-54l-315 -266l-80 -471h-305z" />
    <glyph glyph-name="L" unicode="L" horiz-adv-x="1325" 
d="M522 279h768l-49 -279h-1071l256 1462h305z" />
    <glyph glyph-name="M" unicode="M" horiz-adv-x="1796" 
d="M170 0l256 1462h459l133 -590h53l338 590h475l-256 -1462h-282l190 1090h-53l-346 -590h-299l-140 590h-53l-192 -1090h-283z" />
    <glyph glyph-name="N" unicode="N" horiz-adv-x="1591" 
d="M1401 1462h278l-256 -1462h-381l-366 991h-53l-174 -991h-279l256 1462h381l367 -991h53z" />
    <glyph glyph-name="O" unicode="O" horiz-adv-x="1622" 
d="M1014 1489q184 0 328 -74t227.5 -219t83.5 -340q0 -145 -34 -277.5t-101 -243t-161 -191.5t-220 -126t-271 -45q-185 0 -329.5 74.5t-228 220t-83.5 340.5q0 182 54 341.5t153 280t249.5 190t332.5 69.5zM885 246q109 0 198 51.5t144 137t84.5 190.5t29.5 217
q0 175 -91 275t-255 100q-110 0 -199.5 -52t-144.5 -137.5t-84.5 -189.5t-29.5 -215q0 -175 92 -276t256 -101z" />
    <glyph glyph-name="P" unicode="P" horiz-adv-x="1449" 
d="M426 1462h649q199 0 329 -111t130 -307q0 -240 -161 -380t-447 -140h-359l-92 -524h-305zM1022 1194h-338l-70 -401h347q117 0 188.5 58.5t71.5 174.5q0 82 -56 125t-143 43z" />
    <glyph glyph-name="Q" unicode="Q" horiz-adv-x="1622" 
d="M1014 1489q184 0 328 -74t227.5 -219t83.5 -340q0 -244 -90.5 -441t-259.5 -313l106 -260h-262l-64 160q-113 -29 -217 -29q-185 0 -329.5 74.5t-228 220t-83.5 340.5q0 182 54 341.5t153 280t249.5 190t332.5 69.5zM885 246q44 0 96 10l-166 420h254l119 -293
q76 85 114.5 205.5t38.5 253.5q0 175 -91 275t-255 100q-110 0 -199.5 -52t-144.5 -137.5t-84.5 -189.5t-29.5 -215q0 -175 92 -276t256 -101z" />
    <glyph glyph-name="R" unicode="R" horiz-adv-x="1478" 
d="M571 551l-96 -551h-305l256 1462h668q193 0 319.5 -107.5t126.5 -297.5q0 -154 -71 -268.5t-205 -176.5l112 -612h-301l-100 551h-404zM1040 1194h-356l-68 -383h369q111 0 177.5 55.5t66.5 167.5q0 76 -53.5 118t-135.5 42z" />
    <glyph glyph-name="S" unicode="S" horiz-adv-x="1413" 
d="M1438 1061h-310q-11 86 -82.5 126t-179.5 40q-65 0 -117.5 -15t-89 -54.5t-36.5 -98.5q0 -64 38 -95.5t119 -54.5l260 -69q342 -90 342 -394q0 -140 -81 -249t-218.5 -166.5t-306.5 -57.5q-275 0 -438 122.5t-170 350.5h311q20 -210 316 -210q50 0 95.5 9.5t87 30
t66.5 58.5t25 90q0 66 -41.5 107t-128.5 65l-268 72q-161 41 -239.5 137.5t-78.5 232.5q0 205 152.5 328t413.5 123q158 0 281.5 -48t198 -146t79.5 -234z" />
    <glyph glyph-name="T" unicode="T" horiz-adv-x="1271" 
d="M1495 1462l-45 -268h-453l-209 -1194h-305l209 1194h-448l47 268h1204z" />
    <glyph glyph-name="U" unicode="U" horiz-adv-x="1548" 
d="M1335 1462h305l-161 -927q-48 -274 -215 -418t-451 -144q-258 0 -409.5 123t-151.5 334q0 62 10 127l160 905h303l-158 -887q-10 -45 -10 -96q0 -110 71 -171.5t199 -61.5q148 0 236 80t113 225z" />
    <glyph glyph-name="V" unicode="V" horiz-adv-x="1435" 
d="M465 0l-170 1462h303l119 -1167h92l526 1167h322l-680 -1462h-512z" />
    <glyph glyph-name="W" unicode="W" horiz-adv-x="1888" 
d="M928 1020h379l65 -658h53l316 1100h293l-426 -1462h-443l-63 735h-53l-318 -735h-448l84 1462h280l-67 -1100h53z" />
    <glyph glyph-name="X" unicode="X" horiz-adv-x="1411" 
d="M1049 0l-193 602h-63l-410 -602h-342l530 768l-219 694h299l174 -536h64l368 536h320l-469 -686l262 -776h-321z" />
    <glyph glyph-name="Y" unicode="Y" horiz-adv-x="1382" 
d="M807 879h57l412 583h330l-670 -942l-92 -520h-305l92 522l-342 940h307z" />
    <glyph glyph-name="Z" unicode="Z" horiz-adv-x="1355" 
d="M1489 1462l-57 -323l-895 -813l-9 -54h783l-47 -272h-1174l55 324l895 813l11 53h-697l47 272h1088z" />
    <glyph glyph-name="bracketleft" unicode="[" horiz-adv-x="776" 
d="M621 -289h-529l324 1843h530l-39 -211h-280l-252 -1421h282z" />
    <glyph glyph-name="backslash" unicode="\" horiz-adv-x="847" 
d="M831 -289h-215l-288 1843h209z" />
    <glyph glyph-name="bracketright" unicode="]" horiz-adv-x="776" 
d="M584 -289h-529l37 211h283l250 1421h-281l37 211h526z" />
    <glyph glyph-name="asciicircum" unicode="^" horiz-adv-x="1204" 
d="M451 559h-275l582 860h188l279 -860h-256l-152 473h-53z" />
    <glyph glyph-name="underscore" unicode="_" horiz-adv-x="1048" 
d="M995 -315h-1052l32 186h1053z" />
    <glyph glyph-name="grave" unicode="`" horiz-adv-x="649" 
d="M532 1192l-186 297h297l135 -297h-246z" />
    <glyph glyph-name="a" unicode="a" horiz-adv-x="1202" 
d="M801 0l14 90h-53q-105 -117 -287 -117q-151 0 -244.5 89.5t-93.5 230.5q0 97 36.5 171t102.5 119.5t152 68t190 22.5h287q8 56 8 69q0 59 -42 90t-121 31q-166 0 -193 -112h-287q25 152 156 239.5t330 87.5q196 0 315 -83t119 -238q0 -45 -10 -103l-115 -655h-264z
M594 201q104 0 178 63.5t92 159.5l10 63h-221q-221 0 -221 -159q0 -60 42 -93.5t120 -33.5z" />
    <glyph glyph-name="b" unicode="b" horiz-adv-x="1308" 
d="M1313 616q0 -99 -22 -193t-66.5 -175.5t-105.5 -142.5t-145.5 -96.5t-180.5 -35.5q-98 0 -177 36.5t-116 99.5h-54l-18 -109h-276l262 1489h286l-94 -533h53q38 56 106 89.5t157 33.5q183 0 287 -131t104 -332zM817 840q-72 0 -129.5 -34.5t-92 -90.5t-53 -122.5
t-18.5 -135.5q0 -116 56 -181t159 -65q122 0 201.5 110t79.5 277q0 114 -51 178t-152 64z" />
    <glyph glyph-name="c" unicode="c" horiz-adv-x="1196" 
d="M893 354h285q-33 -175 -166.5 -278t-343.5 -103q-208 0 -346 126.5t-138 342.5q0 136 39.5 252.5t112.5 202t184.5 134t249.5 48.5q183 0 306.5 -100t135.5 -262h-282q-11 57 -56.5 90t-117.5 33q-89 0 -155.5 -56t-98 -142t-31.5 -187q0 -116 56 -180t159 -64
q78 0 133 38.5t74 104.5z" />
    <glyph glyph-name="d" unicode="d" horiz-adv-x="1308" 
d="M184 436q0 124 35 239t98.5 205.5t162.5 144.5t218 54q98 0 173 -36t112 -99h53l97 545h286l-262 -1489h-276l18 96h-53q-43 -57 -112.5 -90t-158.5 -33q-184 0 -287.5 129.5t-103.5 333.5zM680 211q72 0 129.5 34.5t92 91t53 123t18.5 136.5q0 116 -56 180t-159 64
q-122 0 -201.5 -110t-79.5 -275q0 -114 51 -179t152 -65z" />
    <glyph glyph-name="e" unicode="e" horiz-adv-x="1210" 
d="M883 322h291q-35 -165 -167.5 -257t-336.5 -92q-208 0 -347 127t-139 344q0 184 67 327t199.5 225.5t311.5 82.5q93 0 175 -30.5t146 -87t101 -145t37 -198.5q0 -38 -11 -124h-741q-2 -8 -2 -37q0 -112 59 -179t166 -67q144 0 191 111zM750 864q-90 0 -153.5 -46.5
t-94.5 -133.5h432q-5 81 -50 130.5t-134 49.5z" />
    <glyph glyph-name="f" unicode="f" horiz-adv-x="811" 
d="M893 813h-260l-144 -813h-286l143 813h-151l41 240h153l17 90q35 188 146.5 267t299.5 79h160l-43 -240h-127q-128 0 -154 -133l-14 -63h260z" />
    <glyph glyph-name="g" unicode="g" horiz-adv-x="1304" 
d="M1061 1053h276l-174 -996q-41 -232 -194.5 -360.5t-382.5 -128.5q-206 0 -334.5 91.5t-132.5 262.5h282q6 -64 62 -96.5t141 -32.5q119 0 183.5 75.5t91.5 213.5l10 51h-53q-36 -54 -105 -85.5t-156 -31.5q-183 0 -287 124t-104 317q0 97 22 188.5t67 170t107 137.5
t146.5 92.5t182.5 33.5q102 0 173.5 -40t106.5 -97h53zM754 840q-118 0 -199.5 -100t-81.5 -257q0 -104 58.5 -165.5t156.5 -61.5q89 0 155.5 52.5t98 130t31.5 165.5q0 109 -60 172.5t-159 63.5z" />
    <glyph glyph-name="h" unicode="h" horiz-adv-x="1292" 
d="M416 1489h286l-96 -531h53q103 121 289 121q156 0 241 -91t85 -240q0 -48 -12 -130l-107 -618h-287l103 573q10 52 10 99q0 73 -42.5 113t-127.5 40q-104 0 -177.5 -71.5t-96.5 -196.5l-99 -557h-286z" />
    <glyph glyph-name="i" unicode="i" horiz-adv-x="591" 
d="M623 1053l-185 -1053h-286l184 1053h287zM655 1233h-288l45 256h290z" />
    <glyph glyph-name="j" unicode="j" horiz-adv-x="612" 
d="M356 1053h287l-197 -1112q-18 -98 -59.5 -168t-103 -109t-132 -56.5t-157.5 -17.5h-141l43 240h94q152 0 178 156zM432 1489h291l-47 -256h-291z" />
    <glyph glyph-name="k" unicode="k" horiz-adv-x="1216" 
d="M1194 0h-287l-157 494h-54l-207 -187l-51 -307h-286l262 1489h286l-149 -844l446 408h328l-352 -326z" />
    <glyph glyph-name="l" unicode="l" horiz-adv-x="589" 
d="M700 1489l-262 -1489h-286l262 1489h286z" />
    <glyph glyph-name="m" unicode="m" horiz-adv-x="1845" 
d="M614 1053l-16 -92h51q93 118 264 118q180 0 242 -121h53q106 121 303 121q154 0 235 -87.5t81 -229.5q0 -58 -10 -123l-113 -639h-287l109 614q8 31 8 78q0 133 -135 133q-94 0 -150.5 -62.5t-74.5 -166.5l-105 -596h-287l109 612q8 31 8 82q0 131 -129 131
q-98 0 -155 -70t-74 -177l-103 -578h-286l184 1053h278z" />
    <glyph glyph-name="n" unicode="n" horiz-adv-x="1292" 
d="M1155 0h-287l103 573q10 52 10 99q0 73 -42.5 113t-127.5 40q-104 0 -177.5 -71.5t-96.5 -196.5l-99 -557h-286l184 1053h278l-18 -95h53q108 121 299 121q156 0 241 -91t85 -240q0 -48 -12 -130z" />
    <glyph glyph-name="o" unicode="o" horiz-adv-x="1273" 
d="M780 1079q137 0 249 -54.5t180.5 -163t68.5 -253.5q0 -183 -70.5 -326t-208 -226t-321.5 -83q-138 0 -248.5 54t-178 162.5t-67.5 254.5q0 185 69 327.5t205.5 225t321.5 82.5zM696 211q91 0 160 56t103 142.5t34 188.5q0 115 -61 178.5t-170 63.5q-90 0 -159 -55
t-102.5 -141t-33.5 -187q0 -116 61 -181t168 -65z" />
    <glyph glyph-name="p" unicode="p" horiz-adv-x="1306" 
d="M338 1053h276l-18 -97h53q43 56 113.5 89.5t159.5 33.5q122 0 211.5 -62.5t133.5 -166t44 -234.5q0 -124 -34.5 -239t-98 -205.5t-162 -144.5t-217.5 -54q-97 0 -172.5 36t-114.5 100h-53l-92 -519h-287zM737 211q122 0 201.5 110t79.5 277q0 113 -51.5 177.5
t-151.5 64.5q-71 0 -128.5 -34.5t-92.5 -90.5t-53.5 -122.5t-18.5 -135.5q0 -116 56.5 -181t158.5 -65z" />
    <glyph glyph-name="q" unicode="q" horiz-adv-x="1310" 
d="M184 436q0 99 22 193t66.5 175.5t106 142.5t146 96.5t180.5 35.5q98 0 174 -36t114 -99h54l20 109h276l-256 -1463h-286l90 506h-53q-36 -56 -105.5 -89.5t-157.5 -33.5q-183 0 -287 131t-104 332zM680 211q72 0 129.5 34.5t92 91t53 123t18.5 136.5q0 115 -57.5 179.5
t-157.5 64.5q-121 0 -201 -110t-80 -275q0 -114 51 -179t152 -65z" />
    <glyph glyph-name="r" unicode="r" horiz-adv-x="909" 
d="M1044 1053l-47 -269h-102q-163 0 -255 -77t-118 -232l-84 -475h-286l184 1053h278l-20 -119h51q104 119 283 119h116z" />
    <glyph glyph-name="s" unicode="s" horiz-adv-x="1118" 
d="M127 332h283q5 -61 64.5 -99t154.5 -38q74 0 125 28.5t51 81.5q0 41 -32 65.5t-107 45.5l-185 53q-243 71 -243 274q0 156 120.5 244t321.5 88q180 0 304 -82t144 -229h-282q-7 46 -53.5 70t-116.5 24q-68 0 -110 -24t-42 -72q0 -19 7 -33t25 -24t33 -15.5t47 -15.5
q2 -1 3 -1t3 -0.5t3.5 -1.5t3.5 -1l185 -52q258 -74 258 -301q0 -154 -132.5 -249t-341.5 -95q-210 0 -342 91.5t-149 267.5z" />
    <glyph glyph-name="t" unicode="t" horiz-adv-x="825" 
d="M236 1053h153l51 295h287l-51 -295h225l-41 -240h-227l-78 -434q-8 -31 -8 -62q0 -73 98 -73h113l-41 -244h-152q-147 0 -227 69t-80 187q0 41 10 106l78 451h-151z" />
    <glyph glyph-name="u" unicode="u" horiz-adv-x="1294" 
d="M326 1053h286l-102 -574q-10 -52 -10 -98q0 -74 42.5 -114t127.5 -40q104 0 176.5 72t95.5 197l98 557h287l-184 -1053h-277l17 94h-54q-105 -121 -297 -121q-156 0 -240.5 91.5t-84.5 240.5q0 47 12 129z" />
    <glyph glyph-name="v" unicode="v" horiz-adv-x="1173" 
d="M338 0l-111 1053h279l76 -797h86l350 797h299l-488 -1053h-491z" />
    <glyph glyph-name="w" unicode="w" horiz-adv-x="1523" 
d="M752 764h274l61 -434h54l213 723h272l-326 -1053h-352l-74 494h-53l-241 -494h-355l47 1053h256l-41 -723h54z" />
    <glyph glyph-name="x" unicode="x" horiz-adv-x="1228" 
d="M866 0l-139 387h-74l-276 -387h-309l393 541l-178 512h282l125 -363h72l258 363h301l-360 -508l198 -545h-293z" />
    <glyph glyph-name="y" unicode="y" horiz-adv-x="1208" 
d="M471 -410h-293l316 525l-273 938h279l170 -561h53l342 561h293z" />
    <glyph glyph-name="z" unicode="z" horiz-adv-x="1130" 
d="M1028 0h-926l50 291l602 471l10 51h-483l41 240h872l-51 -291l-598 -471l-8 -53h532z" />
    <glyph glyph-name="braceleft" unicode="{" horiz-adv-x="874" 
d="M528 659l-8 -53q103 -40 103 -168q0 -46 -9 -80l-39 -219q-10 -42 -10 -88q0 -68 36.5 -98.5t115.5 -30.5h71l-34 -211h-92q-162 0 -257.5 75t-95.5 208q0 64 10 106l39 217q9 41 9 80q0 62 -28.5 93.5t-92.5 31.5h-47l41 221h47q79 0 120.5 48.5t59.5 146.5l47 264
q31 175 140 263.5t307 88.5h116l-37 -211h-82q-94 0 -141.5 -51.5t-68.5 -165.5l-43 -247q-16 -92 -63.5 -146t-113.5 -74z" />
    <glyph glyph-name="bar" unicode="|" horiz-adv-x="552" 
d="M111 -289l323 1843h232l-326 -1843h-229z" />
    <glyph glyph-name="braceright" unicode="}" horiz-adv-x="874" 
d="M569 606l9 53q-101 39 -101 168q0 49 8 80l39 219q11 46 11 88q0 68 -37.5 98.5t-114.5 30.5h-74l35 211h92q162 0 257 -74.5t95 -207.5q0 -62 -10 -107l-39 -217q-8 -41 -8 -80q0 -125 121 -125h47l-41 -221h-47q-79 0 -120.5 -48t-59.5 -146l-47 -265
q-31 -175 -140 -263.5t-307 -88.5h-117l37 211h82q95 0 143.5 52t67.5 165l43 248q31 175 176 219z" />
    <glyph glyph-name="asciitilde" unicode="~" horiz-adv-x="1374" 
d="M1110 754h197q0 -183 -78 -273t-217 -90q-53 0 -107 19.5t-98.5 47t-87 54.5t-85.5 46.5t-79 19.5q-102 0 -102 -146h-197q0 183 77.5 273t215.5 90q53 0 108 -19.5t100 -46.5t87.5 -54.5t85 -47t78.5 -19.5q102 0 102 146z" />
    <glyph glyph-name="uni00A0" unicode="&#xa0;" horiz-adv-x="569" 
 />
    <glyph glyph-name="exclamdown" unicode="&#xa1;" horiz-adv-x="706" 
d="M420 -410h-291l107 594l129 428h182l-23 -428zM635 741h-313l53 312h313z" />
    <glyph glyph-name="cent" unicode="&#xa2;" horiz-adv-x="1196" 
d="M893 354h285q-35 -173 -166.5 -277t-337.5 -104h-12l-25 -137h-107l25 150q-166 30 -268.5 150t-102.5 306q0 180 64.5 320.5t193.5 225t306 89.5l24 140h109l-27 -146q150 -20 248 -116t110 -238h-282q-8 45 -38.5 77.5t-78.5 39.5l-111 -623q71 1 121.5 40t69.5 103z
M471 455q0 -89 33 -149.5t94 -80.5l107 611q-74 -8 -128.5 -67t-80 -141t-25.5 -173z" />
    <glyph glyph-name="sterling" unicode="&#xa3;" horiz-adv-x="1331" 
d="M547 256h760l-43 -256h-1170l45 256h35q78 0 119 43.5t59 132.5l23 127h-182l43 229h178l39 213q39 214 164 337.5t341 123.5q196 0 309 -99.5t113 -262.5q0 -38 -6 -82h-278q6 27 6 51q0 64 -43 97.5t-117 33.5q-171 0 -211 -205l-37 -207h449l-41 -229h-449l-16 -100
q-11 -58 -27.5 -89.5t-52.5 -60.5z" />
    <glyph glyph-name="currency" unicode="&#xa4;" horiz-adv-x="1478" 
d="M1284 0l-141 137q-137 -98 -307 -98q-175 0 -312 98l-139 -137l-129 127l137 139q-98 140 -98 314q0 172 98 309l-137 139l129 129l139 -139q137 98 312 98q170 0 307 -98l141 139l127 -129l-137 -141q98 -137 98 -307q0 -172 -98 -312l137 -141zM836 213
q147 0 246.5 105.5t99.5 261.5q0 153 -99.5 256.5t-246.5 103.5q-148 0 -250.5 -103.5t-102.5 -256.5q0 -156 102.5 -261.5t250.5 -105.5z" />
    <glyph glyph-name="yen" unicode="&#xa5;" horiz-adv-x="1333" 
d="M303 1434h287l176 -643h57l404 643h307l-416 -643h185l-25 -142h-254l-82 -125h311l-22 -141h-354l-68 -383h-287l66 383h-352l24 141h313l-36 125h-254l26 142h187z" />
    <glyph glyph-name="brokenbar" unicode="&#xa6;" horiz-adv-x="552" 
d="M311 834l123 720h232l-125 -720h-230zM111 -289l127 721h229l-125 -721h-231z" />
    <glyph glyph-name="section" unicode="&#xa7;" horiz-adv-x="1296" 
d="M178 63h262q-5 -84 50 -138t163 -54q92 0 143.5 37.5t51.5 105.5q0 49 -31 82t-98 58l-254 96q-134 50 -194 122.5t-60 178.5q0 67 24 122.5t62 90.5t73.5 55.5t69.5 30.5l11 51q-74 66 -74 191q0 159 127 264.5t342 105.5q100 0 183.5 -25t148 -75t100 -131.5
t33.5 -186.5h-267q5 88 -49 139.5t-161 51.5q-91 0 -141 -39t-50 -106q0 -47 30.5 -79t96.5 -57l254 -96q137 -53 196.5 -124.5t59.5 -176.5q0 -67 -24 -123t-61.5 -91t-73.5 -56t-70 -29l-11 -51q74 -66 74 -195q0 -156 -129 -262t-344 -106q-101 0 -186 26t-148.5 76.5
t-98 131.5t-30.5 185zM897 649l-291 117q-49 -14 -89 -58.5t-40 -111.5q0 -52 26.5 -81.5t90.5 -55.5l289 -117q50 14 90.5 58.5t40.5 109.5q0 53 -27 83t-90 56z" />
    <glyph glyph-name="dieresis" unicode="&#xa8;" horiz-adv-x="802" 
d="M539 1233h-240l45 256h242zM942 1233h-242l48 256h239z" />
    <glyph glyph-name="copyright" unicode="&#xa9;" horiz-adv-x="1744" 
d="M1182 610h178q-21 -128 -111 -206t-233 -78q-179 0 -279 112.5t-100 290.5q0 179 100 292.5t279 113.5q140 0 229.5 -72.5t108.5 -192.5h-180q-24 107 -158 107q-100 0 -148.5 -66.5t-48.5 -181.5q0 -112 48.5 -179t148.5 -67q145 0 166 127zM999 1489q159 0 300 -58
t242 -158t159.5 -241t58.5 -301q0 -214 -99.5 -387.5t-273.5 -272t-387 -98.5q-214 0 -387.5 98.5t-271.5 272t-98 387.5q0 160 58.5 301t159 241t241 158t298.5 58zM999 96q179 0 323 83.5t224 228.5t80 323q0 179 -80 324.5t-224 229t-323 83.5t-322 -83.5t-221.5 -229
t-78.5 -324.5q0 -181 79 -325.5t221 -227t322 -82.5z" />
    <glyph glyph-name="ordfeminine" unicode="&#xaa;" horiz-adv-x="897" 
d="M748 686v68h-33q-79 -86 -221 -86q-127 0 -200 75t-73 181q0 48 17 92t52 81.5t96.5 60t141.5 22.5h211v24q0 119 -143 119q-122 0 -137 -88h-193q6 110 94 176t228 66q161 0 251.5 -70t90.5 -215v-506h-182zM555 825q79 0 131.5 47.5t52.5 120.5v56h-170
q-72 0 -113.5 -30t-41.5 -81q0 -54 38 -83.5t103 -29.5z" />
    <glyph glyph-name="guillemotleft" unicode="&#xab;" horiz-adv-x="1351" 
d="M473 608l-8 -51l283 -367h-295l-254 324l28 168l355 309h311zM1004 608l-9 -51l283 -367h-295l-254 324l29 168l354 309h311z" />
    <glyph glyph-name="logicalnot" unicode="&#xac;" horiz-adv-x="1396" 
d="M1065 205v393h-832v244h1074v-637h-242z" />
    <glyph glyph-name="uni00AD" unicode="&#xad;" horiz-adv-x="813" 
d="M797 455h-621l43 247h621z" />
    <glyph glyph-name="registered" unicode="&#xae;" horiz-adv-x="1744" 
d="M705 1120h372q131 0 203 -64.5t72 -181.5q0 -142 -113 -206l117 -328h-180l-105 291h-190v-291h-176v780zM881 967v-187h168q122 0 122 92q0 95 -122 95h-168zM1001 1489q159 0 300 -58t242 -158t159.5 -241t58.5 -301q0 -214 -99.5 -387.5t-273.5 -272t-387 -98.5
q-214 0 -387.5 98.5t-271.5 272t-98 387.5q0 160 58.5 301t159 241t241 158t298.5 58zM1001 96q179 0 323 83.5t224 228.5t80 323q0 179 -80 324.5t-224 229t-323 83.5t-322 -83.5t-221.5 -229t-78.5 -324.5q0 -181 79 -325.5t221 -227t322 -82.5z" />
    <glyph glyph-name="overscore" unicode="&#xaf;" horiz-adv-x="778" 
d="M924 1268h-619l29 174h618z" />
    <glyph glyph-name="degree" unicode="&#xb0;" horiz-adv-x="950" 
d="M1067 1071q0 -173 -116 -288t-289 -115q-172 0 -287 115t-115 288t115 289.5t287 116.5q173 0 289 -116.5t116 -289.5zM662 840q96 0 158.5 66t62.5 165t-62.5 166.5t-158.5 67.5t-158 -67.5t-62 -166.5t62 -165t158 -66z" />
    <glyph glyph-name="plusminus" unicode="&#xb1;" horiz-adv-x="1378" 
d="M633 827v338h241v-338h408v-243h-408v-340h408v-244h-1055v244h406v340h-404v243h404z" />
    <glyph glyph-name="twosuperior" unicode="&#xb2;" horiz-adv-x="751" 
d="M829 842l-28 -160h-608l34 197l293 165q156 89 156 183q0 40 -27.5 62t-70.5 22q-107 0 -121 -105h-185q20 131 102 201t216 70q120 0 200 -62.5t80 -171.5q0 -42 -14 -79.5t-33 -64t-53 -55t-59.5 -45t-67.5 -41.5l-133 -77l-8 -39h327z" />
    <glyph glyph-name="threesuperior" unicode="&#xb3;" horiz-adv-x="763" 
d="M860 1270l-155 -78l-7 -31q152 -41 152 -207q0 -125 -93.5 -205.5t-236.5 -80.5q-139 0 -221 72.5t-82 195.5h180q4 -51 39.5 -76.5t89.5 -25.5q63 0 103.5 31.5t40.5 84.5q0 44 -32.5 71.5t-86.5 27.5q-40 0 -74 -9l27 154l133 76l6 33h-313l28 159h535z" />
    <glyph glyph-name="acute" unicode="&#xb4;" horiz-adv-x="649" 
d="M838 1489l-293 -297h-258l239 297h312z" />
    <glyph glyph-name="mu" unicode="&#xb5;" horiz-adv-x="1314" 
d="M236 1053h286v-596q0 -230 203 -230q105 0 169 78.5t64 188.5v559h287v-1053h-276v96h-54q-95 -123 -292 -123q-43 0 -101 15v-398h-286v1463z" />
    <glyph glyph-name="paragraph" unicode="&#xb6;" horiz-adv-x="1472" 
d="M805 1462h842l-33 -198h-164l-289 -1626h-241l288 1626h-200l-287 -1626h-242l178 1005q-187 0 -296 86.5t-109 259.5q0 117 43.5 209t120.5 149t175.5 86t213.5 29z" />
    <glyph glyph-name="middot" unicode="&#xb7;" horiz-adv-x="600" 
d="M553 541h-315l55 311h313z" />
    <glyph glyph-name="cedilla" unicode="&#xb8;" horiz-adv-x="606" 
d="M217 45h113l-92 -166h28q38 23 76 23q61 0 98 -42.5t37 -113.5q0 -90 -65 -152.5t-176 -62.5q-96 0 -151.5 48t-57.5 118h147q10 -51 68 -51q36 0 59 22t23 60q0 59 -66 59q-35 0 -63 -25h-132z" />
    <glyph glyph-name="onesuperior" unicode="&#xb9;" horiz-adv-x="686" 
d="M592 842h174l-29 -160h-542l28 160h183l75 426h-39l-157 -88l28 174l205 108h184z" />
    <glyph glyph-name="ordmasculine" unicode="&#xba;" horiz-adv-x="927" 
d="M639 1477q177 0 284 -114.5t107 -289.5q0 -178 -107 -291.5t-284 -113.5q-178 0 -285.5 114t-107.5 291q0 175 108 289.5t285 114.5zM639 838q96 0 147.5 67.5t51.5 167.5q0 99 -51.5 166.5t-147.5 67.5q-98 0 -150.5 -67.5t-52.5 -166.5q0 -100 52.5 -167.5t150.5 -67.5
z" />
    <glyph glyph-name="guillemotright" unicode="&#xbb;" horiz-adv-x="1351" 
d="M1090 575l8 52l-283 364h295l254 -321l-29 -168l-356 -312h-311zM559 575l8 52l-282 364h295l254 -321l-29 -168l-356 -312h-312z" />
    <glyph glyph-name="onequarter" unicode="&#xbc;" horiz-adv-x="1808" 
d="M596 0h-205l1120 1434h203zM592 842h174l-29 -160h-542l28 160h183l75 426h-39l-157 -88l28 174l205 108h184zM1698 315h94l-27 -159h-96l-27 -156h-178l27 156h-373l33 188l412 436h217zM1327 315h197l45 254h-37l-199 -217z" />
    <glyph glyph-name="onehalf" unicode="&#xbd;" horiz-adv-x="1896" 
d="M596 0h-205l1120 1434h203zM592 842h174l-29 -160h-542l28 160h183l75 426h-39l-157 -88l28 174l205 108h184zM1831 160l-29 -160h-608l35 197l293 165q77 44 116 87.5t39 95.5q0 40 -27.5 62t-70.5 22q-107 0 -121 -105h-184q20 131 101.5 201t215.5 70
q120 0 200.5 -62.5t80.5 -171.5q0 -42 -14 -79.5t-33 -64t-53 -55t-59.5 -45t-67.5 -41.5l-134 -77l-8 -39h328z" />
    <glyph glyph-name="threequarters" unicode="&#xbe;" horiz-adv-x="1826" 
d="M612 0h-204l1120 1434h203zM1714 315h94l-26 -159h-96l-27 -156h-178l26 156h-372l32 188l412 436h217zM1343 315h197l45 254h-37l-198 -217zM860 1270l-155 -78l-7 -31q152 -41 152 -207q0 -125 -93.5 -205.5t-236.5 -80.5q-139 0 -221 72.5t-82 195.5h180
q4 -51 39.5 -76.5t89.5 -25.5q63 0 103.5 31.5t40.5 84.5q0 44 -32.5 71.5t-86.5 27.5q-40 0 -74 -9l27 154l133 76l6 33h-313l28 159h535z" />
    <glyph glyph-name="questiondown" unicode="&#xbf;" horiz-adv-x="1167" 
d="M571 -432q-219 0 -347 109t-128 270q0 65 18 121t43 95t71.5 79t82.5 64.5t97 60.5q87 48 122.5 87.5t47.5 104.5l8 53h293l-11 -55q-10 -62 -28.5 -107.5t-51.5 -84.5t-71.5 -69t-100.5 -69q-113 -69 -146 -97q-75 -65 -75 -153q0 -68 52 -111.5t137 -43.5
q100 0 161.5 55.5t71.5 159.5h289q-10 -98 -48 -181.5t-103 -148.5t-163.5 -102t-220.5 -37zM649 1053h314l-56 -312h-309z" />
    <glyph glyph-name="Agrave" unicode="&#xc0;" horiz-adv-x="1468" 
d="M1128 0l-51 395h-551l-186 -395h-303l717 1462h473l205 -1462h-304zM893 1169l-240 -507h389l-63 507h-86zM883 1571l-195 264h303l144 -264h-252z" />
    <glyph glyph-name="Aacute" unicode="&#xc1;" horiz-adv-x="1468" 
d="M1128 0l-51 395h-551l-186 -395h-303l717 1462h473l205 -1462h-304zM893 1169l-240 -507h389l-63 507h-86zM1411 1835l-285 -264h-264l234 264h315z" />
    <glyph glyph-name="Acircumflex" unicode="&#xc2;" horiz-adv-x="1468" 
d="M1128 0l-51 395h-551l-186 -395h-303l717 1462h473l205 -1462h-304zM893 1169l-240 -507h389l-63 507h-86zM655 1571l271 264h245l179 -264h-217l-76 112h-53l-117 -112h-232z" />
    <glyph glyph-name="Atilde" unicode="&#xc3;" horiz-adv-x="1468" 
d="M1128 0l-51 395h-551l-186 -395h-303l717 1462h473l205 -1462h-304zM893 1169l-240 -507h389l-63 507h-86zM1262 1835h129q-21 -125 -84 -195.5t-166 -70.5q-44 0 -83.5 15.5t-63.5 34.5t-55 34.5t-60 15.5q-72 0 -88 -98h-129q50 266 249 266q43 0 83.5 -15.5
t65.5 -33.5t56 -33.5t58 -15.5q72 0 88 96z" />
    <glyph glyph-name="Adieresis" unicode="&#xc4;" horiz-adv-x="1468" 
d="M1128 0l-51 395h-551l-186 -395h-303l717 1462h473l205 -1462h-304zM893 1169l-240 -507h389l-63 507h-86zM934 1602h-242l39 233h242zM1337 1602h-241l39 233h241z" />
    <glyph glyph-name="Aring" unicode="&#xc5;" horiz-adv-x="1468" 
d="M987 1827q102 0 172 -68.5t70 -167.5q0 -73 -39 -129h37l205 -1462h-304l-51 395h-551l-186 -395h-303l717 1462h30q-39 56 -39 129q0 98 71.5 167t170.5 69zM893 1169l-240 -507h389l-63 507h-86zM987 1487q43 0 73 30.5t30 73.5t-30 74t-73 31q-42 0 -72 -31t-30 -74
t29.5 -73.5t72.5 -30.5z" />
    <glyph glyph-name="AE" unicode="&#xc6;" horiz-adv-x="2138" 
d="M1059 0l67 395h-503l-271 -395h-346l1043 1462h1232l-45 -272h-665l-53 -307h493l-45 -267h-496l-61 -344h688l-47 -272h-991zM1163 1180l-356 -518h367l90 518h-101z" />
    <glyph glyph-name="Ccedilla" unicode="&#xc7;" horiz-adv-x="1515" 
d="M1194 467h315q-45 -222 -223 -358t-432 -136q-27 0 -41 2l-53 -96h28q38 23 76 23q61 0 98 -42.5t37 -113.5q0 -90 -65 -152.5t-176 -62.5q-96 0 -151.5 48t-57.5 118h147q10 -51 68 -51q36 0 59 22t23 60q0 59 -66 59q-35 0 -63 -25h-131l121 226q-219 41 -350.5 203.5
t-131.5 416.5q0 184 55 345t153.5 280t245.5 187.5t322 68.5q230 0 382.5 -122t181.5 -331h-314q-40 181 -268 181q-105 0 -191 -51t-140 -135t-83.5 -189.5t-29.5 -218.5q0 -175 88.5 -276t246.5 -101q122 0 206.5 59t113.5 162z" />
    <glyph glyph-name="Egrave" unicode="&#xc8;" horiz-adv-x="1355" 
d="M520 272h791l-45 -272h-1096l256 1462h1073l-47 -272h-770l-53 -307h600l-47 -267h-598zM909 1571l-194 264h303l143 -264h-252z" />
    <glyph glyph-name="Eacute" unicode="&#xc9;" horiz-adv-x="1355" 
d="M520 272h791l-45 -272h-1096l256 1462h1073l-47 -272h-770l-53 -307h600l-47 -267h-598zM1325 1835l-285 -264h-264l234 264h315z" />
    <glyph glyph-name="Ecircumflex" unicode="&#xca;" horiz-adv-x="1355" 
d="M520 272h791l-45 -272h-1096l256 1462h1073l-47 -272h-770l-53 -307h600l-47 -267h-598zM643 1571l270 264h246l178 -264h-217l-76 112h-53l-117 -112h-231z" />
    <glyph glyph-name="Edieresis" unicode="&#xcb;" horiz-adv-x="1355" 
d="M520 272h791l-45 -272h-1096l256 1462h1073l-47 -272h-770l-53 -307h600l-47 -267h-598zM913 1602h-241l39 233h241zM1317 1602h-242l39 233h242z" />
    <glyph glyph-name="Igrave" unicode="&#xcc;" horiz-adv-x="665" 
d="M436 1462h305l-256 -1462h-305zM492 1571l-195 264h303l143 -264h-251z" />
    <glyph glyph-name="Iacute" unicode="&#xcd;" horiz-adv-x="665" 
d="M436 1462h305l-256 -1462h-305zM1026 1835l-285 -264h-264l234 264h315z" />
    <glyph glyph-name="Icircumflex" unicode="&#xce;" horiz-adv-x="665" 
d="M436 1462h305l-256 -1462h-305zM262 1571l270 264h246l178 -264h-217l-75 112h-54l-116 -112h-232z" />
    <glyph glyph-name="Idieresis" unicode="&#xcf;" horiz-adv-x="665" 
d="M436 1462h305l-256 -1462h-305zM535 1602h-242l39 233h241zM938 1602h-242l39 233h242z" />
    <glyph glyph-name="Eth" unicode="&#xd0;" horiz-adv-x="1601" 
d="M164 625l41 233h172l106 604h486q153 0 273.5 -35.5t208 -107.5t134.5 -187.5t47 -269.5q0 -137 -29.5 -262t-94 -235t-157.5 -191t-228 -127.5t-298 -46.5h-598l109 625h-172zM578 272h253q83 0 153 20.5t119.5 54t88.5 81t62.5 98t39 108t21.5 108t6 100.5
q0 180 -99.5 264t-269.5 84h-211l-59 -332h356l-41 -233h-358z" />
    <glyph glyph-name="Ntilde" unicode="&#xd1;" horiz-adv-x="1591" 
d="M1401 1462h278l-256 -1462h-381l-366 991h-53l-174 -991h-279l256 1462h381l367 -991h53zM1327 1835h129q-21 -125 -84 -195.5t-166 -70.5q-44 0 -83.5 15.5t-63.5 34.5t-55 34.5t-60 15.5q-72 0 -88 -98h-129q50 266 250 266q55 0 103 -24.5t87 -49t72 -24.5q72 0 88 96
z" />
    <glyph glyph-name="Ograve" unicode="&#xd2;" horiz-adv-x="1622" 
d="M1014 1489q184 0 328 -74t227.5 -219t83.5 -340q0 -145 -34 -277.5t-101 -243t-161 -191.5t-220 -126t-271 -45q-185 0 -329.5 74.5t-228 220t-83.5 340.5q0 182 54 341.5t153 280t249.5 190t332.5 69.5zM885 246q109 0 198 51.5t144 137t84.5 190.5t29.5 217
q0 175 -91 275t-255 100q-110 0 -199.5 -52t-144.5 -137.5t-84.5 -189.5t-29.5 -215q0 -175 92 -276t256 -101zM963 1571l-195 264h303l143 -264h-251z" />
    <glyph glyph-name="Oacute" unicode="&#xd3;" horiz-adv-x="1622" 
d="M1014 1489q184 0 328 -74t227.5 -219t83.5 -340q0 -145 -34 -277.5t-101 -243t-161 -191.5t-220 -126t-271 -45q-185 0 -329.5 74.5t-228 220t-83.5 340.5q0 182 54 341.5t153 280t249.5 190t332.5 69.5zM885 246q109 0 198 51.5t144 137t84.5 190.5t29.5 217
q0 175 -91 275t-255 100q-110 0 -199.5 -52t-144.5 -137.5t-84.5 -189.5t-29.5 -215q0 -175 92 -276t256 -101zM1460 1835l-284 -264h-265l234 264h315z" />
    <glyph glyph-name="Ocircumflex" unicode="&#xd4;" horiz-adv-x="1622" 
d="M1014 1489q184 0 328 -74t227.5 -219t83.5 -340q0 -145 -34 -277.5t-101 -243t-161 -191.5t-220 -126t-271 -45q-185 0 -329.5 74.5t-228 220t-83.5 340.5q0 182 54 341.5t153 280t249.5 190t332.5 69.5zM885 246q109 0 198 51.5t144 137t84.5 190.5t29.5 217
q0 175 -91 275t-255 100q-110 0 -199.5 -52t-144.5 -137.5t-84.5 -189.5t-29.5 -215q0 -175 92 -276t256 -101zM750 1571l270 264h246l178 -264h-217l-76 112h-53l-117 -112h-231z" />
    <glyph glyph-name="Otilde" unicode="&#xd5;" horiz-adv-x="1622" 
d="M1014 1489q184 0 328 -74t227.5 -219t83.5 -340q0 -145 -34 -277.5t-101 -243t-161 -191.5t-220 -126t-271 -45q-185 0 -329.5 74.5t-228 220t-83.5 340.5q0 182 54 341.5t153 280t249.5 190t332.5 69.5zM885 246q109 0 198 51.5t144 137t84.5 190.5t29.5 217
q0 175 -91 275t-255 100q-110 0 -199.5 -52t-144.5 -137.5t-84.5 -189.5t-29.5 -215q0 -175 92 -276t256 -101zM1346 1835h129q-21 -125 -84 -195.5t-166 -70.5q-44 0 -83.5 15.5t-63.5 34.5t-55 34.5t-60 15.5q-73 0 -89 -98h-129q50 266 250 266q55 0 103 -24.5t87 -49
t72 -24.5q36 0 58.5 25.5t30.5 70.5z" />
    <glyph glyph-name="Odieresis" unicode="&#xd6;" horiz-adv-x="1622" 
d="M1014 1489q184 0 328 -74t227.5 -219t83.5 -340q0 -145 -34 -277.5t-101 -243t-161 -191.5t-220 -126t-271 -45q-185 0 -329.5 74.5t-228 220t-83.5 340.5q0 182 54 341.5t153 280t249.5 190t332.5 69.5zM885 246q109 0 198 51.5t144 137t84.5 190.5t29.5 217
q0 175 -91 275t-255 100q-110 0 -199.5 -52t-144.5 -137.5t-84.5 -189.5t-29.5 -215q0 -175 92 -276t256 -101zM1016 1602h-242l39 233h242zM1419 1602h-241l39 233h241z" />
    <glyph glyph-name="multiply" unicode="&#xd7;" horiz-adv-x="1347" 
d="M598 592l-342 344l170 170l342 -342l344 342l168 -170l-340 -342l340 -346l-168 -168l-344 342l-340 -340l-170 168z" />
    <glyph glyph-name="Oslash" unicode="&#xd8;" horiz-adv-x="1622" 
d="M1014 1489q251 0 430 -143l117 116h221l-234 -233q105 -150 105 -373q0 -145 -34 -277.5t-101 -243t-161 -191.5t-220 -126t-271 -45q-263 0 -432 144l-117 -117h-219l232 231q-105 159 -105 377q0 182 54 341.5t153 280t249.5 190t332.5 69.5zM537 623q0 -89 24 -160
l670 670q-90 84 -236 84q-110 0 -199.5 -52t-144.5 -137.5t-84.5 -189.5t-29.5 -215zM885 246q109 0 198 51.5t144 137t84.5 190.5t29.5 217q0 87 -24 155l-670 -669q88 -82 238 -82z" />
    <glyph glyph-name="Ugrave" unicode="&#xd9;" horiz-adv-x="1548" 
d="M1335 1462h305l-161 -927q-48 -274 -215 -418t-451 -144q-258 0 -409.5 123t-151.5 334q0 62 10 127l160 905h303l-158 -887q-10 -45 -10 -96q0 -110 71 -171.5t199 -61.5q148 0 236 80t113 225zM954 1571l-194 264h303l143 -264h-252z" />
    <glyph glyph-name="Uacute" unicode="&#xda;" horiz-adv-x="1548" 
d="M1335 1462h305l-161 -927q-48 -274 -215 -418t-451 -144q-258 0 -409.5 123t-151.5 334q0 62 10 127l160 905h303l-158 -887q-10 -45 -10 -96q0 -110 71 -171.5t199 -61.5q148 0 236 80t113 225zM1444 1835l-285 -264h-264l233 264h316z" />
    <glyph glyph-name="Ucircumflex" unicode="&#xdb;" horiz-adv-x="1548" 
d="M1335 1462h305l-161 -927q-48 -274 -215 -418t-451 -144q-258 0 -409.5 123t-151.5 334q0 62 10 127l160 905h303l-158 -887q-10 -45 -10 -96q0 -110 71 -171.5t199 -61.5q148 0 236 80t113 225zM696 1571l271 264h245l179 -264h-217l-76 112h-54l-116 -112h-232z" />
    <glyph glyph-name="Udieresis" unicode="&#xdc;" horiz-adv-x="1548" 
d="M1335 1462h305l-161 -927q-48 -274 -215 -418t-451 -144q-258 0 -409.5 123t-151.5 334q0 62 10 127l160 905h303l-158 -887q-10 -45 -10 -96q0 -110 71 -171.5t199 -61.5q148 0 236 80t113 225zM975 1602h-242l39 233h242zM1378 1602h-241l39 233h241z" />
    <glyph glyph-name="Yacute" unicode="&#xdd;" horiz-adv-x="1382" 
d="M807 879h57l412 583h330l-670 -942l-92 -520h-305l92 522l-342 940h307zM1337 1835l-284 -264h-265l234 264h315z" />
    <glyph glyph-name="Thorn" unicode="&#xde;" horiz-adv-x="1390" 
d="M682 1184h313q191 0 315 -108t124 -296q0 -230 -154 -365.5t-428 -135.5h-330l-49 -279h-305l258 1462h303zM940 915h-305l-68 -368h316q108 0 173.5 53.5t65.5 159.5q0 76 -51.5 115.5t-130.5 39.5z" />
    <glyph glyph-name="germandbls" unicode="&#xdf;" horiz-adv-x="1310" 
d="M217 1053h178q42 224 165.5 333t344.5 109q194 0 313 -100.5t119 -259.5q0 -109 -51.5 -189.5t-144.5 -122.5l-6 -53q91 -41 137.5 -119t46.5 -182q0 -144 -70.5 -251.5t-188.5 -162.5t-267 -55h-158l43 238h92q119 0 190.5 62t71.5 175q0 89 -57 144t-154 55h-49l43 237
h59q78 0 128.5 54.5t50.5 136.5q0 72 -44.5 113.5t-119.5 41.5q-174 0 -211 -210l-184 -1047h-285l141 813h-174z" />
    <glyph glyph-name="agrave" unicode="&#xe0;" horiz-adv-x="1202" 
d="M801 0l14 90h-53q-105 -117 -287 -117q-151 0 -244.5 89.5t-93.5 230.5q0 97 36.5 171t102.5 119.5t152 68t190 22.5h287q8 56 8 69q0 59 -42 90t-121 31q-166 0 -193 -112h-287q25 152 156 239.5t330 87.5q196 0 315 -83t119 -238q0 -45 -10 -103l-115 -655h-264z
M594 201q104 0 178 63.5t92 159.5l10 63h-221q-221 0 -221 -159q0 -60 42 -93.5t120 -33.5zM727 1192l-186 297h297l135 -297h-246z" />
    <glyph glyph-name="aacute" unicode="&#xe1;" horiz-adv-x="1202" 
d="M801 0l14 90h-53q-105 -117 -287 -117q-151 0 -244.5 89.5t-93.5 230.5q0 97 36.5 171t102.5 119.5t152 68t190 22.5h287q8 56 8 69q0 59 -42 90t-121 31q-166 0 -193 -112h-287q25 152 156 239.5t330 87.5q196 0 315 -83t119 -238q0 -45 -10 -103l-115 -655h-264z
M594 201q104 0 178 63.5t92 159.5l10 63h-221q-221 0 -221 -159q0 -60 42 -93.5t120 -33.5zM1190 1489l-293 -297h-258l240 297h311z" />
    <glyph glyph-name="acircumflex" unicode="&#xe2;" horiz-adv-x="1202" 
d="M801 0l14 90h-53q-105 -117 -287 -117q-151 0 -244.5 89.5t-93.5 230.5q0 97 36.5 171t102.5 119.5t152 68t190 22.5h287q8 56 8 69q0 59 -42 90t-121 31q-166 0 -193 -112h-287q25 152 156 239.5t330 87.5q196 0 315 -83t119 -238q0 -45 -10 -103l-115 -655h-264z
M594 201q104 0 178 63.5t92 159.5l10 63h-221q-221 0 -221 -159q0 -60 42 -93.5t120 -33.5zM993 1489l170 -297h-205l-79 135h-54l-131 -135h-223l279 297h243z" />
    <glyph glyph-name="atilde" unicode="&#xe3;" horiz-adv-x="1202" 
d="M801 0l14 90h-53q-105 -117 -287 -117q-151 0 -244.5 89.5t-93.5 230.5q0 97 36.5 171t102.5 119.5t152 68t190 22.5h287q8 56 8 69q0 59 -42 90t-121 31q-166 0 -193 -112h-287q25 152 156 239.5t330 87.5q196 0 315 -83t119 -238q0 -45 -10 -103l-115 -655h-264z
M594 201q104 0 178 63.5t92 159.5l10 63h-221q-221 0 -221 -159q0 -60 42 -93.5t120 -33.5zM1067 1483h141q-52 -287 -247 -287q-43 0 -81.5 18.5t-62.5 40t-54 40t-58 18.5q-34 0 -58.5 -33t-32.5 -84h-139q51 287 246 287q43 0 81.5 -18.5t62.5 -40t54 -40t58 -18.5
q65 0 90 117z" />
    <glyph glyph-name="adieresis" unicode="&#xe4;" horiz-adv-x="1202" 
d="M801 0l14 90h-53q-105 -117 -287 -117q-151 0 -244.5 89.5t-93.5 230.5q0 97 36.5 171t102.5 119.5t152 68t190 22.5h287q8 56 8 69q0 59 -42 90t-121 31q-166 0 -193 -112h-287q25 152 156 239.5t330 87.5q196 0 315 -83t119 -238q0 -45 -10 -103l-115 -655h-264z
M594 201q104 0 178 63.5t92 159.5l10 63h-221q-221 0 -221 -159q0 -60 42 -93.5t120 -33.5zM737 1233h-239l45 256h241zM1141 1233h-242l47 256h240z" />
    <glyph glyph-name="aring" unicode="&#xe5;" horiz-adv-x="1202" 
d="M801 0l14 90h-53q-105 -117 -287 -117q-151 0 -244.5 89.5t-93.5 230.5q0 97 36.5 171t102.5 119.5t152 68t190 22.5h287q8 56 8 69q0 59 -42 90t-121 31q-166 0 -193 -112h-287q25 152 156 239.5t330 87.5q196 0 315 -83t119 -238q0 -45 -10 -103l-115 -655h-264z
M594 201q104 0 178 63.5t92 159.5l10 63h-221q-221 0 -221 -159q0 -60 42 -93.5t120 -33.5zM848 1640q102 0 172 -68t70 -167t-70 -167.5t-172 -68.5q-99 0 -170.5 69t-71.5 167t71.5 166.5t170.5 68.5zM848 1303q43 0 73.5 29.5t30.5 72.5t-30.5 73.5t-73.5 30.5
q-42 0 -72.5 -30.5t-30.5 -73.5q0 -42 30.5 -72t72.5 -30z" />
    <glyph glyph-name="ae" unicode="&#xe6;" horiz-adv-x="1859" 
d="M557 752h-287q24 152 151.5 239.5t313.5 87.5q218 0 318 -133h45q133 133 342 133q85 0 161.5 -30.5t137 -86.5t96 -145.5t35.5 -198.5q0 -52 -10 -124h-725v-58q0 -100 57 -162.5t158 -62.5q126 0 184 111h291q-42 -163 -167 -256t-319 -93q-117 0 -213.5 47t-156.5 132
h-45q-69 -78 -173.5 -128.5t-236.5 -50.5q-178 0 -277.5 90t-99.5 234q0 96 36.5 169.5t102.5 118.5t152 67t190 22h279q8 31 8 69q0 59 -42.5 90t-117.5 31q-161 0 -188 -112zM594 201q99 0 172 62t90 159l10 65h-215q-219 0 -219 -159q0 -60 42 -93.5t120 -33.5zM1407 860
q-91 0 -154 -47t-92 -137h422q-2 81 -45.5 132.5t-130.5 51.5z" />
    <glyph glyph-name="ccedilla" unicode="&#xe7;" horiz-adv-x="1196" 
d="M893 354h285q-33 -175 -166.5 -278t-343.5 -103q-25 0 -35 2l-53 -96h28q38 23 76 23q61 0 98 -42.5t37 -113.5q0 -90 -65 -152.5t-176 -62.5q-96 0 -151.5 48t-57.5 118h147q10 -51 68 -51q36 0 59 22t23 60q0 59 -66 59q-35 0 -63 -25h-131l122 228q-156 38 -250 156
t-94 296q0 136 39.5 252.5t112.5 202t184.5 134t249.5 48.5q183 0 306.5 -100t135.5 -262h-282q-11 57 -56.5 90t-117.5 33q-89 0 -155.5 -56t-98 -142t-31.5 -187q0 -116 56 -180t159 -64q78 0 133 38.5t74 104.5z" />
    <glyph glyph-name="egrave" unicode="&#xe8;" horiz-adv-x="1210" 
d="M883 322h291q-35 -165 -167.5 -257t-336.5 -92q-208 0 -347 127t-139 344q0 184 67 327t199.5 225.5t311.5 82.5q93 0 175 -30.5t146 -87t101 -145t37 -198.5q0 -38 -11 -124h-741q-2 -8 -2 -37q0 -112 59 -179t166 -67q144 0 191 111zM750 864q-90 0 -153.5 -46.5
t-94.5 -133.5h432q-5 81 -50 130.5t-134 49.5zM715 1192l-187 297h297l136 -297h-246z" />
    <glyph glyph-name="eacute" unicode="&#xe9;" horiz-adv-x="1210" 
d="M883 322h291q-35 -165 -167.5 -257t-336.5 -92q-208 0 -347 127t-139 344q0 184 67 327t199.5 225.5t311.5 82.5q93 0 175 -30.5t146 -87t101 -145t37 -198.5q0 -38 -11 -124h-741q-2 -8 -2 -37q0 -112 59 -179t166 -67q144 0 191 111zM750 864q-90 0 -153.5 -46.5
t-94.5 -133.5h432q-5 81 -50 130.5t-134 49.5zM1190 1489l-293 -297h-258l240 297h311z" />
    <glyph glyph-name="ecircumflex" unicode="&#xea;" horiz-adv-x="1210" 
d="M883 322h291q-35 -165 -167.5 -257t-336.5 -92q-208 0 -347 127t-139 344q0 184 67 327t199.5 225.5t311.5 82.5q93 0 175 -30.5t146 -87t101 -145t37 -198.5q0 -38 -11 -124h-741q-2 -8 -2 -37q0 -112 59 -179t166 -67q144 0 191 111zM750 864q-90 0 -153.5 -46.5
t-94.5 -133.5h432q-5 81 -50 130.5t-134 49.5zM971 1489l170 -297h-205l-80 135h-53l-131 -135h-223l278 297h244z" />
    <glyph glyph-name="edieresis" unicode="&#xeb;" horiz-adv-x="1210" 
d="M883 322h291q-35 -165 -167.5 -257t-336.5 -92q-208 0 -347 127t-139 344q0 184 67 327t199.5 225.5t311.5 82.5q93 0 175 -30.5t146 -87t101 -145t37 -198.5q0 -38 -11 -124h-741q-2 -8 -2 -37q0 -112 59 -179t166 -67q144 0 191 111zM750 864q-90 0 -153.5 -46.5
t-94.5 -133.5h432q-5 81 -50 130.5t-134 49.5zM719 1233h-240l45 256h242zM1122 1233h-241l47 256h239z" />
    <glyph glyph-name="igrave" unicode="&#xec;" horiz-adv-x="587" 
d="M379 1192l-186 297h296l136 -297h-246zM623 1053l-185 -1053h-286l184 1053h287z" />
    <glyph glyph-name="iacute" unicode="&#xed;" horiz-adv-x="587" 
d="M926 1489l-293 -297h-258l239 297h312zM623 1053l-185 -1053h-286l184 1053h287z" />
    <glyph glyph-name="icircumflex" unicode="&#xee;" horiz-adv-x="587" 
d="M623 1053l-185 -1053h-286l184 1053h287zM678 1489l170 -297h-205l-80 135h-53l-131 -135h-223l278 297h244z" />
    <glyph glyph-name="idieresis" unicode="&#xef;" horiz-adv-x="587" 
d="M430 1233h-240l46 256h241zM834 1233h-242l47 256h240zM623 1053l-185 -1053h-286l184 1053h287z" />
    <glyph glyph-name="eth" unicode="&#xf0;" horiz-adv-x="1239" 
d="M428 1276h289q-90 92 -240 201h330q129 -99 209 -201h241l-22 -135h-131q137 -234 137 -520q0 -191 -69.5 -337.5t-203 -228.5t-313.5 -82q-132 0 -238 53t-169.5 157t-63.5 243q0 259 138.5 428.5t355.5 169.5q69 0 123 -19.5t82 -50.5h53q-37 101 -105 187h-428z
M676 211q85 0 150 53t96.5 134t31.5 173q0 105 -55.5 166.5t-153.5 61.5q-85 0 -149.5 -53.5t-95.5 -134t-31 -173.5q0 -105 55 -166t152 -61z" />
    <glyph glyph-name="ntilde" unicode="&#xf1;" horiz-adv-x="1292" 
d="M1155 0h-287l103 573q10 52 10 99q0 73 -42.5 113t-127.5 40q-104 0 -177.5 -71.5t-96.5 -196.5l-99 -557h-286l184 1053h278l-18 -95h53q108 121 299 121q156 0 241 -91t85 -240q0 -48 -12 -130zM1120 1483h142q-52 -287 -248 -287q-43 0 -81.5 18.5t-62.5 40t-54 40
t-58 18.5q-34 0 -58 -33t-32 -84h-140q51 287 246 287q43 0 81.5 -18.5t62.5 -40t54 -40t58 -18.5q65 0 90 117z" />
    <glyph glyph-name="ograve" unicode="&#xf2;" horiz-adv-x="1273" 
d="M780 1079q137 0 249 -54.5t180.5 -163t68.5 -253.5q0 -183 -70.5 -326t-208 -226t-321.5 -83q-138 0 -248.5 54t-178 162.5t-67.5 254.5q0 185 69 327.5t205.5 225t321.5 82.5zM696 211q91 0 160 56t103 142.5t34 188.5q0 115 -61 178.5t-170 63.5q-90 0 -159 -55
t-102.5 -141t-33.5 -187q0 -116 61 -181t168 -65zM735 1192l-186 297h297l135 -297h-246z" />
    <glyph glyph-name="oacute" unicode="&#xf3;" horiz-adv-x="1273" 
d="M780 1079q137 0 249 -54.5t180.5 -163t68.5 -253.5q0 -183 -70.5 -326t-208 -226t-321.5 -83q-138 0 -248.5 54t-178 162.5t-67.5 254.5q0 185 69 327.5t205.5 225t321.5 82.5zM696 211q91 0 160 56t103 142.5t34 188.5q0 115 -61 178.5t-170 63.5q-90 0 -159 -55
t-102.5 -141t-33.5 -187q0 -116 61 -181t168 -65zM1214 1489l-292 -297h-258l239 297h311z" />
    <glyph glyph-name="ocircumflex" unicode="&#xf4;" horiz-adv-x="1273" 
d="M780 1079q137 0 249 -54.5t180.5 -163t68.5 -253.5q0 -183 -70.5 -326t-208 -226t-321.5 -83q-138 0 -248.5 54t-178 162.5t-67.5 254.5q0 185 69 327.5t205.5 225t321.5 82.5zM696 211q91 0 160 56t103 142.5t34 188.5q0 115 -61 178.5t-170 63.5q-90 0 -159 -55
t-102.5 -141t-33.5 -187q0 -116 61 -181t168 -65zM1001 1489l170 -297h-204l-80 135h-53l-132 -135h-223l279 297h243z" />
    <glyph glyph-name="otilde" unicode="&#xf5;" horiz-adv-x="1273" 
d="M780 1079q137 0 249 -54.5t180.5 -163t68.5 -253.5q0 -183 -70.5 -326t-208 -226t-321.5 -83q-138 0 -248.5 54t-178 162.5t-67.5 254.5q0 185 69 327.5t205.5 225t321.5 82.5zM696 211q91 0 160 56t103 142.5t34 188.5q0 115 -61 178.5t-170 63.5q-90 0 -159 -55
t-102.5 -141t-33.5 -187q0 -116 61 -181t168 -65zM1075 1483h142q-52 -287 -248 -287q-43 0 -81.5 18.5t-62.5 40t-54 40t-58 18.5q-34 0 -58 -33t-32 -84h-140q51 287 246 287q43 0 81.5 -18.5t62.5 -40t54 -40t58 -18.5q65 0 90 117z" />
    <glyph glyph-name="odieresis" unicode="&#xf6;" horiz-adv-x="1273" 
d="M780 1079q137 0 249 -54.5t180.5 -163t68.5 -253.5q0 -183 -70.5 -326t-208 -226t-321.5 -83q-138 0 -248.5 54t-178 162.5t-67.5 254.5q0 185 69 327.5t205.5 225t321.5 82.5zM696 211q91 0 160 56t103 142.5t34 188.5q0 115 -61 178.5t-170 63.5q-90 0 -159 -55
t-102.5 -141t-33.5 -187q0 -116 61 -181t168 -65zM764 1233h-240l45 256h242zM1167 1233h-241l47 256h239z" />
    <glyph glyph-name="divide" unicode="&#xf7;" horiz-adv-x="1406" 
d="M961 18h-326v279h326v-279zM961 887h-326v278h326v-278zM1339 471h-1083v244h1083v-244z" />
    <glyph glyph-name="oslash" unicode="&#xf8;" horiz-adv-x="1273" 
d="M780 1079q190 0 322 -100l76 74h188l-172 -168q84 -113 84 -277q0 -183 -70.5 -326t-208 -226t-321.5 -83q-190 0 -322 99l-73 -72h-191l172 168q-80 115 -80 276q0 185 69 327.5t205.5 225t321.5 82.5zM696 211q91 0 160 56t103 142.5t34 188.5q0 37 -10 82l-436 -422
q59 -47 149 -47zM467 457q0 -39 10 -84l434 420q-59 47 -149 47t-159 -55t-102.5 -141t-33.5 -187z" />
    <glyph glyph-name="ugrave" unicode="&#xf9;" horiz-adv-x="1294" 
d="M326 1053h286l-102 -574q-10 -52 -10 -98q0 -74 42.5 -114t127.5 -40q104 0 176.5 72t95.5 197l98 557h287l-184 -1053h-277l17 94h-54q-105 -121 -297 -121q-156 0 -240.5 91.5t-84.5 240.5q0 47 12 129zM756 1192l-187 297h297l135 -297h-245z" />
    <glyph glyph-name="uacute" unicode="&#xfa;" horiz-adv-x="1294" 
d="M326 1053h286l-102 -574q-10 -52 -10 -98q0 -74 42.5 -114t127.5 -40q104 0 176.5 72t95.5 197l98 557h287l-184 -1053h-277l17 94h-54q-105 -121 -297 -121q-156 0 -240.5 91.5t-84.5 240.5q0 47 12 129zM1231 1489l-293 -297h-258l240 297h311z" />
    <glyph glyph-name="ucircumflex" unicode="&#xfb;" horiz-adv-x="1294" 
d="M326 1053h286l-102 -574q-10 -52 -10 -98q0 -74 42.5 -114t127.5 -40q104 0 176.5 72t95.5 197l98 557h287l-184 -1053h-277l17 94h-54q-105 -121 -297 -121q-156 0 -240.5 91.5t-84.5 240.5q0 47 12 129zM1022 1489l170 -297h-205l-80 135h-53l-131 -135h-223l278 297
h244z" />
    <glyph glyph-name="udieresis" unicode="&#xfc;" horiz-adv-x="1294" 
d="M326 1053h286l-102 -574q-10 -52 -10 -98q0 -74 42.5 -114t127.5 -40q104 0 176.5 72t95.5 197l98 557h287l-184 -1053h-277l17 94h-54q-105 -121 -297 -121q-156 0 -240.5 91.5t-84.5 240.5q0 47 12 129zM770 1233h-240l45 256h242zM1174 1233h-242l47 256h240z" />
    <glyph glyph-name="yacute" unicode="&#xfd;" horiz-adv-x="1208" 
d="M471 -410h-293l316 525l-273 938h279l170 -561h53l342 561h293zM1196 1489l-293 -297h-258l240 297h311z" />
    <glyph glyph-name="thorn" unicode="&#xfe;" horiz-adv-x="1306" 
d="M416 1489h276l-96 -533h53q43 56 113.5 89.5t159.5 33.5q122 0 211.5 -62.5t133.5 -166t44 -234.5q0 -124 -34.5 -239t-98 -205.5t-162 -144.5t-217.5 -54q-97 0 -172.5 36t-114.5 100h-53l-92 -519h-287zM737 211q122 0 201.5 110t79.5 277q0 113 -51.5 177.5
t-151.5 64.5q-71 0 -128.5 -34.5t-92.5 -90.5t-53.5 -122.5t-18.5 -135.5q0 -116 56.5 -181t158.5 -65z" />
    <glyph glyph-name="ydieresis" unicode="&#xff;" horiz-adv-x="1208" 
d="M471 -410h-293l316 525l-273 938h279l170 -561h53l342 561h293zM723 1233h-240l45 256h242zM1126 1233h-241l47 256h239z" />
    <glyph glyph-name="Amacron" unicode="&#x100;" horiz-adv-x="1468" 
d="M1128 0l-51 395h-551l-186 -395h-303l717 1462h473l205 -1462h-304zM893 1169l-240 -507h389l-63 507h-86zM1321 1628h-616l26 168h619z" />
    <glyph glyph-name="amacron" unicode="&#x101;" horiz-adv-x="1202" 
d="M801 0l14 90h-53q-105 -117 -287 -117q-151 0 -244.5 89.5t-93.5 230.5q0 97 36.5 171t102.5 119.5t152 68t190 22.5h287q8 56 8 69q0 59 -42 90t-121 31q-166 0 -193 -112h-287q25 152 156 239.5t330 87.5q196 0 315 -83t119 -238q0 -45 -10 -103l-115 -655h-264z
M594 201q104 0 178 63.5t92 159.5l10 63h-221q-221 0 -221 -159q0 -60 42 -93.5t120 -33.5zM1137 1268h-619l29 174h618z" />
    <glyph glyph-name="Abreve" unicode="&#x102;" horiz-adv-x="1468" 
d="M1128 0l-51 395h-551l-186 -395h-303l717 1462h473l205 -1462h-304zM893 1169l-240 -507h389l-63 507h-86zM739 1835h172q-2 -2 -2 -14v-6q0 -93 107 -93q56 0 93.5 28.5t49.5 84.5h172q-27 -126 -114.5 -195t-227.5 -69q-122 0 -189 57t-67 156q0 30 6 51z" />
    <glyph glyph-name="abreve" unicode="&#x103;" horiz-adv-x="1202" 
d="M801 0l14 90h-53q-105 -117 -287 -117q-151 0 -244.5 89.5t-93.5 230.5q0 97 36.5 171t102.5 119.5t152 68t190 22.5h287q8 56 8 69q0 59 -42 90t-121 31q-166 0 -193 -112h-287q25 152 156 239.5t330 87.5q196 0 315 -83t119 -238q0 -45 -10 -103l-115 -655h-264z
M594 201q104 0 178 63.5t92 159.5l10 63h-221q-221 0 -221 -159q0 -60 42 -93.5t120 -33.5zM989 1489h170q-24 -140 -109 -218.5t-225 -78.5q-123 0 -194.5 60.5t-71.5 164.5q0 41 8 72h172q-4 -20 -4 -37q0 -48 28 -75t79 -27q120 0 147 139z" />
    <glyph glyph-name="Aogonek" unicode="&#x104;" horiz-adv-x="1468" 
d="M1128 0l-51 395h-551l-186 -395h-303l717 1462h473l205 -1462q-144 -74 -144 -170q0 -33 27.5 -52.5t81.5 -19.5l-31 -166q-25 -2 -66 -2q-122 0 -179.5 47t-57.5 121q0 82 53 144.5t137 97.5h-125zM893 1169l-240 -507h389l-63 507h-86z" />
    <glyph glyph-name="aogonek" unicode="&#x105;" horiz-adv-x="1247" 
d="M801 0l14 90h-53q-105 -117 -287 -117q-151 0 -244.5 89.5t-93.5 230.5q0 97 36.5 171t102.5 119.5t152 68t190 22.5h287q8 56 8 69q0 59 -42 90t-121 31q-166 0 -193 -112h-287q25 152 156 239.5t330 87.5q196 0 315 -83t119 -238q0 -45 -10 -103l-115 -655
q-143 -73 -143 -170q0 -33 27 -52.5t81 -19.5l-31 -166q-25 -2 -65 -2q-123 0 -180.5 47t-57.5 121q0 82 53.5 144.5t137.5 97.5h-86zM594 201q104 0 178 63.5t92 159.5l10 63h-221q-221 0 -221 -159q0 -60 42 -93.5t120 -33.5z" />
    <glyph glyph-name="Cacute" unicode="&#x106;" horiz-adv-x="1515" 
d="M1194 467h315q-45 -222 -223 -358t-432 -136q-180 0 -321.5 73.5t-224.5 219t-83 342.5q0 184 55 345t153.5 280t245.5 187.5t322 68.5q230 0 382.5 -122t181.5 -331h-314q-40 181 -268 181q-105 0 -191 -51t-140 -135t-83.5 -189.5t-29.5 -218.5q0 -175 88.5 -276
t246.5 -101q122 0 206.5 59t113.5 162zM1438 1835l-285 -264h-264l233 264h316z" />
    <glyph glyph-name="cacute" unicode="&#x107;" horiz-adv-x="1196" 
d="M893 354h285q-33 -175 -166.5 -278t-343.5 -103q-208 0 -346 126.5t-138 342.5q0 136 39.5 252.5t112.5 202t184.5 134t249.5 48.5q183 0 306.5 -100t135.5 -262h-282q-11 57 -56.5 90t-117.5 33q-89 0 -155.5 -56t-98 -142t-31.5 -187q0 -116 56 -180t159 -64
q78 0 133 38.5t74 104.5zM1210 1489l-292 -297h-259l240 297h311z" />
    <glyph glyph-name="Ccaron" unicode="&#x10c;" horiz-adv-x="1515" 
d="M1194 467h315q-45 -222 -223 -358t-432 -136q-180 0 -321.5 73.5t-224.5 219t-83 342.5q0 184 55 345t153.5 280t245.5 187.5t322 68.5q230 0 382.5 -122t181.5 -331h-314q-40 181 -268 181q-105 0 -191 -51t-140 -135t-83.5 -189.5t-29.5 -218.5q0 -175 88.5 -276
t246.5 -101q122 0 206.5 59t113.5 162zM922 1571l-181 264h224l75 -113h54l116 113h226l-269 -264h-245z" />
    <glyph glyph-name="ccaron" unicode="&#x10d;" horiz-adv-x="1196" 
d="M893 354h285q-33 -175 -166.5 -278t-343.5 -103q-208 0 -346 126.5t-138 342.5q0 136 39.5 252.5t112.5 202t184.5 134t249.5 48.5q183 0 306.5 -100t135.5 -262h-282q-11 57 -56.5 90t-117.5 33q-89 0 -155.5 -56t-98 -142t-31.5 -187q0 -116 56 -180t159 -64
q78 0 133 38.5t74 104.5zM686 1192l-172 297h209l80 -135h53l129 135h221l-276 -297h-244z" />
    <glyph glyph-name="Dcaron" unicode="&#x10e;" horiz-adv-x="1544" 
d="M170 0l256 1462h485q153 0 273.5 -35.5t208.5 -107.5t135 -187.5t47 -269.5q0 -137 -29.5 -262t-94 -235t-157.5 -191t-228 -127.5t-298 -46.5h-598zM520 272h254q83 0 153 20.5t119.5 54t88.5 81t62.5 98t39 108t21.5 108t6 100.5q0 180 -99.5 264t-269.5 84h-211z
M870 1571l-180 264h223l76 -113h53l117 113h225l-268 -264h-246z" />
    <glyph glyph-name="dcaron" unicode="&#x10f;" horiz-adv-x="1595" 
d="M1696 1241h-137l45 248h301l-56 -299l-184 -170h-162l185 170zM184 436q0 124 35 239t98.5 205.5t162.5 144.5t218 54q98 0 173 -36t112 -99h53l97 545h286l-262 -1489h-276l18 96h-53q-43 -57 -112.5 -90t-158.5 -33q-184 0 -287.5 129.5t-103.5 333.5zM680 209
q71 0 129 35t92.5 92t53 124t18.5 136q0 116 -56.5 181t-158.5 65q-122 0 -201.5 -111t-79.5 -276q0 -114 51 -180t152 -66z" />
    <glyph glyph-name="Dcroat" unicode="&#x110;" horiz-adv-x="1601" 
d="M164 625l41 233h172l106 604h486q153 0 273.5 -35.5t208 -107.5t134.5 -187.5t47 -269.5q0 -137 -29.5 -262t-94 -235t-157.5 -191t-228 -127.5t-298 -46.5h-598l109 625h-172zM578 272h253q83 0 153 20.5t119.5 54t88.5 81t62.5 98t39 108t21.5 108t6 100.5
q0 180 -99.5 264t-269.5 84h-211l-59 -332h356l-41 -233h-358z" />
    <glyph glyph-name="dslash" unicode="&#x111;" horiz-adv-x="1333" 
d="M184 436q0 124 35 239t98.5 205.5t162.5 144.5t218 54q98 0 173 -36t112 -99h53l41 236h-315l26 145h316l29 164h286l-28 -164h157l-26 -145h-158l-207 -1180h-276l18 96h-53q-43 -57 -112.5 -90t-158.5 -33q-184 0 -287.5 129.5t-103.5 333.5zM680 211q72 0 129.5 34.5
t92 91t53 123t18.5 136.5q0 116 -56 180t-159 64q-122 0 -201.5 -110t-79.5 -275q0 -114 51 -179t152 -65z" />
    <glyph glyph-name="Emacron" unicode="&#x112;" horiz-adv-x="1355" 
d="M520 272h791l-45 -272h-1096l256 1462h1073l-47 -272h-770l-53 -307h600l-47 -267h-598zM1311 1628h-617l27 168h618z" />
    <glyph glyph-name="emacron" unicode="&#x113;" horiz-adv-x="1210" 
d="M883 322h291q-35 -165 -167.5 -257t-336.5 -92q-208 0 -347 127t-139 344q0 184 67 327t199.5 225.5t311.5 82.5q93 0 175 -30.5t146 -87t101 -145t37 -198.5q0 -38 -11 -124h-741q-2 -8 -2 -37q0 -112 59 -179t166 -67q144 0 191 111zM750 864q-90 0 -153.5 -46.5
t-94.5 -133.5h432q-5 81 -50 130.5t-134 49.5zM1141 1268h-619l29 174h618z" />
    <glyph glyph-name="Edotaccent" unicode="&#x116;" horiz-adv-x="1355" 
d="M520 272h791l-45 -272h-1096l256 1462h1073l-47 -272h-770l-53 -307h600l-47 -267h-598zM1106 1602h-291l39 233h293z" />
    <glyph glyph-name="edotaccent" unicode="&#x117;" horiz-adv-x="1210" 
d="M883 322h291q-35 -165 -167.5 -257t-336.5 -92q-208 0 -347 127t-139 344q0 184 67 327t199.5 225.5t311.5 82.5q93 0 175 -30.5t146 -87t101 -145t37 -198.5q0 -38 -11 -124h-741q-2 -8 -2 -37q0 -112 59 -179t166 -67q144 0 191 111zM750 864q-90 0 -153.5 -46.5
t-94.5 -133.5h432q-5 81 -50 130.5t-134 49.5zM969 1233h-291l45 256h291z" />
    <glyph glyph-name="Eogonek" unicode="&#x118;" horiz-adv-x="1355" 
d="M520 272h791l-45 -272q-144 -74 -144 -170q0 -33 27.5 -52.5t81.5 -19.5l-31 -166q-25 -2 -65 -2q-123 0 -180.5 47t-57.5 121q0 82 53 144.5t137 97.5h-917l256 1462h1073l-47 -272h-770l-53 -307h600l-47 -267h-598z" />
    <glyph glyph-name="eogonek" unicode="&#x119;" horiz-adv-x="1210" 
d="M883 322h291q-47 -209 -236 -295q-145 -67 -145 -170q0 -33 27 -52.5t81 -19.5l-31 -166q-25 -2 -65 -2q-123 0 -180.5 47t-57.5 121q0 108 101 188q-135 0 -244 54.5t-174.5 163t-65.5 253.5q0 184 67 327t199.5 225.5t311.5 82.5q93 0 175 -30.5t146 -87t101 -145
t37 -198.5q0 -38 -11 -124h-741q-2 -8 -2 -37q0 -112 59 -179t166 -67q144 0 191 111zM750 864q-90 0 -153.5 -46.5t-94.5 -133.5h432q-5 81 -50 130.5t-134 49.5z" />
    <glyph glyph-name="Ecaron" unicode="&#x11a;" horiz-adv-x="1355" 
d="M520 272h791l-45 -272h-1096l256 1462h1073l-47 -272h-770l-53 -307h600l-47 -267h-598zM836 1571l-181 264h224l75 -113h54l116 113h226l-269 -264h-245z" />
    <glyph glyph-name="ecaron" unicode="&#x11b;" horiz-adv-x="1210" 
d="M883 322h291q-35 -165 -167.5 -257t-336.5 -92q-208 0 -347 127t-139 344q0 184 67 327t199.5 225.5t311.5 82.5q93 0 175 -30.5t146 -87t101 -145t37 -198.5q0 -38 -11 -124h-741q-2 -8 -2 -37q0 -112 59 -179t166 -67q144 0 191 111zM750 864q-90 0 -153.5 -46.5
t-94.5 -133.5h432q-5 81 -50 130.5t-134 49.5zM676 1192l-172 297h209l80 -135h53l129 135h221l-276 -297h-244z" />
    <glyph glyph-name="uni0122" unicode="&#x122;" horiz-adv-x="1572" 
d="M864 -27q-185 0 -329 74t-227 219.5t-83 341.5q0 187 55 348.5t155 279.5t248.5 185.5t326.5 67.5q234 0 388 -120t183 -325h-315q-24 83 -92 128t-179 45q-110 0 -198.5 -49t-144 -132t-84.5 -188.5t-29 -224.5q0 -175 91.5 -277t256.5 -102q151 0 244.5 83t119.5 236
h-344l43 250h643q-6 -178 -51 -326t-130.5 -265t-225.5 -183t-322 -66zM731 -475h-166l162 127l8 43h-123l35 194h289l-43 -237z" />
    <glyph glyph-name="uni0123" unicode="&#x123;" horiz-adv-x="1304" 
d="M1061 1053h276l-174 -996q-41 -232 -194.5 -360.5t-382.5 -128.5q-206 0 -334.5 91.5t-132.5 262.5h282q6 -64 62 -96.5t141 -32.5q119 0 183.5 75.5t91.5 213.5l10 51h-53q-36 -54 -105 -85.5t-156 -31.5q-183 0 -287 124t-104 317q0 97 22 188.5t67 170t107 137.5
t146.5 92.5t182.5 33.5q102 0 173.5 -40t106.5 -97h53zM754 840q-118 0 -199.5 -100t-81.5 -257q0 -104 58.5 -165.5t156.5 -61.5q89 0 155.5 52.5t98 130t31.5 165.5q0 109 -60 172.5t-159 63.5zM918 1548h165l-161 -127l-9 -43h123l-35 -194h-288l43 237z" />
    <glyph glyph-name="Itilde" unicode="&#x128;" horiz-adv-x="665" 
d="M436 1462h305l-256 -1462h-305zM868 1835h129q-21 -126 -83.5 -196t-165.5 -70q-44 0 -84 15.5t-64 34.5t-55 34.5t-60 15.5q-72 0 -88 -98h-129q50 266 250 266q55 0 103 -24.5t87 -49t72 -24.5q72 0 88 96z" />
    <glyph glyph-name="itilde" unicode="&#x129;" horiz-adv-x="587" 
d="M766 1483h141q-52 -287 -248 -287q-43 0 -81.5 18.5t-62.5 40t-54 40t-58 18.5q-34 0 -58 -33t-32 -84h-139q51 287 246 287q43 0 81.5 -18.5t62.5 -40t54 -40t58 -18.5q65 0 90 117zM623 1053l-185 -1053h-286l184 1053h287z" />
    <glyph glyph-name="Imacron" unicode="&#x12a;" horiz-adv-x="665" 
d="M436 1462h305l-256 -1462h-305zM924 1628h-617l27 168h618z" />
    <glyph glyph-name="imacron" unicode="&#x12b;" horiz-adv-x="587" 
d="M825 1268h-618l29 174h618zM623 1053l-185 -1053h-286l184 1053h287z" />
    <glyph glyph-name="Iogonek" unicode="&#x12e;" horiz-adv-x="665" 
d="M436 1462h305l-256 -1462q-143 -73 -143 -170q0 -33 27.5 -52.5t81.5 -19.5l-31 -166q-25 -2 -66 -2q-122 0 -179.5 47t-57.5 121q0 82 53 144.5t137 97.5h-127z" />
    <glyph glyph-name="iogonek" unicode="&#x12f;" horiz-adv-x="591" 
d="M623 1053l-185 -1053q-143 -73 -143 -170q0 -33 27 -52.5t81 -19.5l-30 -166q-25 -2 -66 -2q-122 0 -179.5 47t-57.5 121q0 82 53 144.5t137 97.5h-108l184 1053h287zM655 1233h-288l45 256h290z" />
    <glyph glyph-name="dotlessi" unicode="&#x131;" horiz-adv-x="589" 
d="M623 1053l-185 -1053h-286l184 1053h287z" />
    <glyph glyph-name="uni0136" unicode="&#x136;" horiz-adv-x="1533" 
d="M170 0l256 1462h305l-106 -600l694 600h356l-506 -452l314 -1010h-320l-239 737h-54l-315 -266l-80 -471h-305zM737 -475h-166l162 127l8 43h-123l35 194h289l-43 -237z" />
    <glyph glyph-name="uni0137" unicode="&#x137;" horiz-adv-x="1216" 
d="M1194 0h-287l-157 494h-54l-207 -187l-51 -307h-286l262 1489h286l-149 -844l446 408h328l-352 -326zM596 -475h-166l162 127l8 43h-123l35 194h289l-43 -237z" />
    <glyph glyph-name="kgreenlandic" unicode="&#x138;" horiz-adv-x="1216" 
d="M1194 0h-287l-157 494h-54l-207 -187l-51 -307h-286l184 1053h287l-72 -408l446 408h328l-352 -326z" />
    <glyph glyph-name="Lacute" unicode="&#x139;" horiz-adv-x="1325" 
d="M522 279h768l-49 -279h-1071l256 1462h305zM1014 1835l-285 -264h-264l233 264h316z" />
    <glyph glyph-name="lacute" unicode="&#x13a;" horiz-adv-x="589" 
d="M700 1489l-262 -1489h-286l262 1489h286zM985 1835l-285 -264h-264l234 264h315z" />
    <glyph glyph-name="uni013B" unicode="&#x13b;" horiz-adv-x="1325" 
d="M522 279h768l-49 -279h-1071l256 1462h305zM631 -475h-166l162 127l8 43h-123l35 194h289l-43 -237z" />
    <glyph glyph-name="uni013C" unicode="&#x13c;" horiz-adv-x="589" 
d="M700 1489l-262 -1489h-286l262 1489h286zM215 -475h-166l162 127l8 43h-123l35 194h289l-43 -237z" />
    <glyph glyph-name="Lcaron" unicode="&#x13d;" horiz-adv-x="1325" 
d="M1245 1163l-186 -170h-162l184 170l11 51h-140l45 248h299zM520 270h768l-47 -270h-1071l256 1462h305z" />
    <glyph glyph-name="lcaron" unicode="&#x13e;" horiz-adv-x="870" 
d="M700 1489l-262 -1489h-286l262 1489h286zM973 1241h-137l45 248h299l-54 -299l-186 -170h-162l185 170z" />
    <glyph glyph-name="Lslash" unicode="&#x141;" horiz-adv-x="1374" 
d="M571 279h768l-49 -279h-1071l94 547l-194 -74l45 252l194 72l117 665h305l-96 -542l385 145l-43 -252l-387 -145z" />
    <glyph glyph-name="lslash" unicode="&#x142;" horiz-adv-x="759" 
d="M786 1489l-96 -547l215 88l-45 -256l-215 -88l-121 -686h-286l98 557l-215 -88l47 256l213 88l119 676h286z" />
    <glyph glyph-name="Nacute" unicode="&#x143;" horiz-adv-x="1591" 
d="M1401 1462h278l-256 -1462h-381l-366 991h-53l-174 -991h-279l256 1462h381l367 -991h53zM1468 1835l-284 -264h-264l233 264h315z" />
    <glyph glyph-name="nacute" unicode="&#x144;" horiz-adv-x="1292" 
d="M1155 0h-287l103 573q10 52 10 99q0 73 -42.5 113t-127.5 40q-104 0 -177.5 -71.5t-96.5 -196.5l-99 -557h-286l184 1053h278l-18 -95h53q108 121 299 121q156 0 241 -91t85 -240q0 -48 -12 -130zM1266 1489l-293 -297h-258l239 297h312z" />
    <glyph glyph-name="uni0145" unicode="&#x145;" horiz-adv-x="1591" 
d="M1401 1462h278l-256 -1462h-381l-366 991h-53l-174 -991h-279l256 1462h381l367 -991h53zM721 -475h-166l162 127l8 43h-123l35 194h289l-43 -237z" />
    <glyph glyph-name="uni0146" unicode="&#x146;" horiz-adv-x="1292" 
d="M1155 0h-287l103 573q10 52 10 99q0 73 -42.5 113t-127.5 40q-104 0 -177.5 -71.5t-96.5 -196.5l-99 -557h-286l184 1053h278l-18 -95h53q108 121 299 121q156 0 241 -91t85 -240q0 -48 -12 -130zM590 -475h-166l162 127l8 43h-123l35 194h289l-43 -237z" />
    <glyph glyph-name="Ncaron" unicode="&#x147;" horiz-adv-x="1591" 
d="M1401 1462h278l-256 -1462h-381l-366 991h-53l-174 -991h-279l256 1462h381l367 -991h53zM940 1571l-180 264h223l76 -113h53l117 113h225l-268 -264h-246z" />
    <glyph glyph-name="ncaron" unicode="&#x148;" horiz-adv-x="1292" 
d="M1155 0h-287l103 573q10 52 10 99q0 73 -42.5 113t-127.5 40q-104 0 -177.5 -71.5t-96.5 -196.5l-99 -557h-286l184 1053h278l-18 -95h53q108 121 299 121q156 0 241 -91t85 -240q0 -48 -12 -130zM731 1192l-172 297h209l80 -135h53l129 135h221l-276 -297h-244z" />
    <glyph glyph-name="Eng" unicode="&#x14a;" horiz-adv-x="1591" 
d="M1401 1462h278l-252 -1431q-41 -225 -176 -332t-362 -109h-105l45 248h97q96 0 148 37.5t75 124.5h-107l-366 993h-53l-174 -993h-279l256 1462h381l367 -993h53z" />
    <glyph glyph-name="eng" unicode="&#x14b;" horiz-adv-x="1292" 
d="M336 1053h278l-18 -95h53q108 121 299 121q156 0 241 -91t85 -240q0 -48 -12 -130l-109 -632q-69 -396 -471 -396h-131l41 238h94q154 0 180 158l105 587q10 52 10 99q0 73 -42.5 113t-127.5 40q-104 0 -177.5 -71.5t-96.5 -196.5l-99 -557h-286z" />
    <glyph glyph-name="Omacron" unicode="&#x14c;" horiz-adv-x="1622" 
d="M1014 1489q184 0 328 -74t227.5 -219t83.5 -340q0 -145 -34 -277.5t-101 -243t-161 -191.5t-220 -126t-271 -45q-185 0 -329.5 74.5t-228 220t-83.5 340.5q0 182 54 341.5t153 280t249.5 190t332.5 69.5zM885 246q109 0 198 51.5t144 137t84.5 190.5t29.5 217
q0 175 -91 275t-255 100q-110 0 -199.5 -52t-144.5 -137.5t-84.5 -189.5t-29.5 -215q0 -175 92 -276t256 -101zM1407 1628h-616l26 168h619z" />
    <glyph glyph-name="omacron" unicode="&#x14d;" horiz-adv-x="1273" 
d="M780 1079q137 0 249 -54.5t180.5 -163t68.5 -253.5q0 -183 -70.5 -326t-208 -226t-321.5 -83q-138 0 -248.5 54t-178 162.5t-67.5 254.5q0 185 69 327.5t205.5 225t321.5 82.5zM696 211q91 0 160 56t103 142.5t34 188.5q0 115 -61 178.5t-170 63.5q-90 0 -159 -55
t-102.5 -141t-33.5 -187q0 -116 61 -181t168 -65zM1157 1268h-618l28 174h619z" />
    <glyph glyph-name="Ohungarumlaut" unicode="&#x150;" horiz-adv-x="1622" 
d="M1014 1489q184 0 328 -74t227.5 -219t83.5 -340q0 -145 -34 -277.5t-101 -243t-161 -191.5t-220 -126t-271 -45q-185 0 -329.5 74.5t-228 220t-83.5 340.5q0 182 54 341.5t153 280t249.5 190t332.5 69.5zM885 246q109 0 198 51.5t144 137t84.5 190.5t29.5 217
q0 175 -91 275t-255 100q-110 0 -199.5 -52t-144.5 -137.5t-84.5 -189.5t-29.5 -215q0 -175 92 -276t256 -101zM1204 1835l-243 -264h-228l195 264h276zM1581 1835l-244 -264h-225l195 264h274z" />
    <glyph glyph-name="ohungarumlaut" unicode="&#x151;" horiz-adv-x="1273" 
d="M780 1079q137 0 249 -54.5t180.5 -163t68.5 -253.5q0 -183 -70.5 -326t-208 -226t-321.5 -83q-138 0 -248.5 54t-178 162.5t-67.5 254.5q0 185 69 327.5t205.5 225t321.5 82.5zM696 211q91 0 160 56t103 142.5t34 188.5q0 115 -61 178.5t-170 63.5q-90 0 -159 -55
t-102.5 -141t-33.5 -187q0 -116 61 -181t168 -65zM961 1489l-242 -297h-227l194 297h275zM1337 1489l-243 -297h-226l195 297h274z" />
    <glyph glyph-name="OE" unicode="&#x152;" horiz-adv-x="2232" 
d="M1501 272h686l-45 -272h-993l14 84h-53q-144 -111 -340 -111q-246 0 -395.5 164.5t-149.5 454.5q0 190 52.5 354.5t148.5 284.5t238.5 189t314.5 69q209 0 356 -127h54l16 100h971l-49 -272h-662l-55 -307h493l-47 -267h-491zM881 246q117 0 203 48t139 128l108 620
q-42 80 -126.5 127.5t-194.5 47.5q-112 0 -203.5 -48.5t-149.5 -131.5t-89 -189.5t-31 -226.5q0 -179 91.5 -277t252.5 -98z" />
    <glyph glyph-name="oe" unicode="&#x153;" horiz-adv-x="1947" 
d="M184 444q0 183 69 326.5t200 226t305 82.5q226 0 352 -153h53q146 153 371 153q83 0 158.5 -30.5t135 -86.5t95 -145.5t35.5 -198.5q0 -61 -8 -124h-719q-2 -6 -2 -37q0 -117 54.5 -181.5t156.5 -64.5q67 0 109.5 27t72.5 84h293q-42 -164 -165.5 -256.5t-315.5 -92.5
q-107 0 -196.5 41t-150.5 115h-53q-143 -156 -377 -156q-93 0 -178 32t-151 90t-105 149t-39 200zM690 211q133 0 212 114.5t79 272.5q0 115 -60 178.5t-165 63.5q-134 0 -211.5 -113t-77.5 -270q0 -117 59 -181.5t164 -64.5zM1499 860q-179 0 -242 -176h414q0 76 -44 126
t-128 50z" />
    <glyph glyph-name="Racute" unicode="&#x154;" horiz-adv-x="1478" 
d="M571 551l-96 -551h-305l256 1462h668q193 0 319.5 -107.5t126.5 -297.5q0 -154 -71 -268.5t-205 -176.5l112 -612h-301l-100 551h-404zM1040 1194h-356l-68 -383h369q111 0 177.5 55.5t66.5 167.5q0 76 -53.5 118t-135.5 42zM1366 1835l-285 -264h-264l234 264h315z" />
    <glyph glyph-name="racute" unicode="&#x155;" horiz-adv-x="909" 
d="M1044 1053l-47 -269h-102q-163 0 -255 -77t-118 -232l-84 -475h-286l184 1053h278l-20 -119h51q104 119 283 119h116zM1055 1489l-293 -297h-258l239 297h312z" />
    <glyph glyph-name="uni0156" unicode="&#x156;" horiz-adv-x="1478" 
d="M571 551l-96 -551h-305l256 1462h668q193 0 319.5 -107.5t126.5 -297.5q0 -154 -71 -268.5t-205 -176.5l112 -612h-301l-100 551h-404zM1040 1194h-356l-68 -383h369q111 0 177.5 55.5t66.5 167.5q0 76 -53.5 118t-135.5 42zM686 -475h-166l162 127l8 43h-123l35 194h289
l-43 -237z" />
    <glyph glyph-name="uni0157" unicode="&#x157;" horiz-adv-x="909" 
d="M1044 1053l-47 -269h-102q-163 0 -255 -77t-118 -232l-84 -475h-286l184 1053h278l-20 -119h51q104 119 283 119h116zM215 -475h-166l162 127l8 43h-123l35 194h289l-43 -237z" />
    <glyph glyph-name="Rcaron" unicode="&#x158;" horiz-adv-x="1478" 
d="M571 551l-96 -551h-305l256 1462h668q193 0 319.5 -107.5t126.5 -297.5q0 -154 -71 -268.5t-205 -176.5l112 -612h-301l-100 551h-404zM1040 1194h-356l-68 -383h369q111 0 177.5 55.5t66.5 167.5q0 76 -53.5 118t-135.5 42zM850 1571l-180 264h223l76 -113h53l117 113
h225l-268 -264h-246z" />
    <glyph glyph-name="rcaron" unicode="&#x159;" horiz-adv-x="909" 
d="M1044 1053l-47 -269h-102q-163 0 -255 -77t-118 -232l-84 -475h-286l184 1053h278l-20 -119h51q104 119 283 119h116zM590 1192l-172 297h209l80 -135h53l129 135h221l-276 -297h-244z" />
    <glyph glyph-name="Sacute" unicode="&#x15a;" horiz-adv-x="1413" 
d="M1438 1061h-310q-11 86 -82.5 126t-179.5 40q-65 0 -117.5 -15t-89 -54.5t-36.5 -98.5q0 -64 38 -95.5t119 -54.5l260 -69q342 -90 342 -394q0 -140 -81 -249t-218.5 -166.5t-306.5 -57.5q-275 0 -438 122.5t-170 350.5h311q20 -210 316 -210q50 0 95.5 9.5t87 30
t66.5 58.5t25 90q0 66 -41.5 107t-128.5 65l-268 72q-161 41 -239.5 137.5t-78.5 232.5q0 205 152.5 328t413.5 123q158 0 281.5 -48t198 -146t79.5 -234zM1329 1835l-285 -264h-264l234 264h315z" />
    <glyph glyph-name="sacute" unicode="&#x15b;" horiz-adv-x="1118" 
d="M127 332h283q5 -61 64.5 -99t154.5 -38q74 0 125 28.5t51 81.5q0 41 -32 65.5t-107 45.5l-185 53q-243 71 -243 274q0 156 120.5 244t321.5 88q180 0 304 -82t144 -229h-282q-7 46 -53.5 70t-116.5 24q-68 0 -110 -24t-42 -72q0 -19 7 -33t25 -24t33 -15.5t47 -15.5
q2 -1 3 -1t3 -0.5t3.5 -1.5t3.5 -1l185 -52q258 -74 258 -301q0 -154 -132.5 -249t-341.5 -95q-210 0 -342 91.5t-149 267.5zM1069 1489l-293 -297h-258l240 297h311z" />
    <glyph glyph-name="Scedilla" unicode="&#x15e;" horiz-adv-x="1413" 
d="M1438 1061h-310q-11 86 -82.5 126t-179.5 40q-65 0 -117.5 -15t-89 -54.5t-36.5 -98.5q0 -64 38 -95.5t119 -54.5l260 -69q342 -90 342 -394q0 -140 -81 -249t-218.5 -166.5t-306.5 -57.5h-33l-51 -94h29q38 23 76 23q61 0 98 -42.5t37 -113.5q0 -90 -65.5 -152.5
t-176.5 -62.5q-96 0 -151.5 48t-57.5 118h148q10 -51 67 -51q36 0 59 22t23 60q0 59 -65 59q-36 0 -64 -25h-131l119 222q-216 30 -339.5 147t-129.5 315h311q20 -210 316 -210q50 0 95.5 9.5t87 30t66.5 58.5t25 90q0 66 -41.5 107t-128.5 65l-268 72q-161 41 -239.5 137.5
t-78.5 232.5q0 205 152.5 328t413.5 123q158 0 281.5 -48t198 -146t79.5 -234z" />
    <glyph glyph-name="scedilla" unicode="&#x15f;" horiz-adv-x="1118" 
d="M127 332h283q5 -61 64.5 -99t154.5 -38q74 0 125 28.5t51 81.5q0 41 -32 65.5t-107 45.5l-185 53q-243 71 -243 274q0 156 120.5 244t321.5 88q180 0 304 -82t144 -229h-282q-7 46 -53.5 70t-116.5 24q-68 0 -110 -24t-42 -72q0 -19 7 -33t25 -24t33 -15.5t47 -15.5
q2 -1 3 -1t3 -0.5t3.5 -1.5t3.5 -1l185 -52q258 -74 258 -301q0 -154 -132.5 -249t-341.5 -95h-22l-51 -94h28q38 23 76 23q61 0 98 -42.5t37 -113.5q0 -90 -65 -152.5t-176 -62.5q-96 0 -151.5 48t-57.5 118h147q10 -51 68 -51q36 0 59 22t23 60q0 59 -66 59q-35 0 -63 -25
h-131l118 222q-158 26 -254 113.5t-108 234.5z" />
    <glyph glyph-name="Scaron" unicode="&#x160;" horiz-adv-x="1413" 
d="M1438 1061h-310q-11 86 -82.5 126t-179.5 40q-65 0 -117.5 -15t-89 -54.5t-36.5 -98.5q0 -64 38 -95.5t119 -54.5l260 -69q342 -90 342 -394q0 -140 -81 -249t-218.5 -166.5t-306.5 -57.5q-275 0 -438 122.5t-170 350.5h311q20 -210 316 -210q50 0 95.5 9.5t87 30
t66.5 58.5t25 90q0 66 -41.5 107t-128.5 65l-268 72q-161 41 -239.5 137.5t-78.5 232.5q0 205 152.5 328t413.5 123q158 0 281.5 -48t198 -146t79.5 -234zM821 1571l-180 264h223l76 -113h53l117 113h225l-268 -264h-246z" />
    <glyph glyph-name="scaron" unicode="&#x161;" horiz-adv-x="1118" 
d="M127 332h283q5 -61 64.5 -99t154.5 -38q74 0 125 28.5t51 81.5q0 41 -32 65.5t-107 45.5l-185 53q-243 71 -243 274q0 156 120.5 244t321.5 88q180 0 304 -82t144 -229h-282q-7 46 -53.5 70t-116.5 24q-68 0 -110 -24t-42 -72q0 -19 7 -33t25 -24t33 -15.5t47 -15.5
q2 -1 3 -1t3 -0.5t3.5 -1.5t3.5 -1l185 -52q258 -74 258 -301q0 -154 -132.5 -249t-341.5 -95q-210 0 -342 91.5t-149 267.5zM588 1192l-172 297h209l80 -135h53l129 135h221l-277 -297h-243z" />
    <glyph glyph-name="uni0162" unicode="&#x162;" horiz-adv-x="1271" 
d="M1495 1462l-45 -268h-453l-209 -1194h-305l209 1194h-448l47 268h1204zM563 -475h-166l162 127l8 43h-123l35 194h289l-43 -237z" />
    <glyph glyph-name="uni0163" unicode="&#x163;" horiz-adv-x="825" 
d="M236 1053h153l51 295h287l-51 -295h225l-41 -240h-227l-78 -434q-8 -31 -8 -62q0 -73 98 -73h113l-41 -244h-152q-147 0 -227 69t-80 187q0 41 10 106l78 451h-151zM387 -475h-166l162 127l8 43h-123l35 194h289l-43 -237z" />
    <glyph glyph-name="Tcaron" unicode="&#x164;" horiz-adv-x="1271" 
d="M1495 1462l-45 -268h-453l-209 -1194h-305l209 1194h-448l47 268h1204zM772 1571l-180 264h223l76 -113h53l117 113h225l-268 -264h-246z" />
    <glyph glyph-name="tcaron" unicode="&#x165;" horiz-adv-x="903" 
d="M1049 1370h-138l45 248h299l-53 -299l-186 -168h-160l184 168zM268 362l78 451h-151l41 240h153l51 295h287l-51 -295h225l-41 -240h-227l-78 -434q-8 -31 -8 -64q0 -71 98 -71h113l-41 -244h-152q-147 0 -227 69t-80 187q0 41 10 106z" />
    <glyph glyph-name="Tbar" unicode="&#x166;" horiz-adv-x="1271" 
d="M1495 1462l-45 -268h-453l-59 -336h297l-41 -233h-297l-109 -625h-305l109 625h-297l43 233h295l59 336h-448l47 268h1204z" />
    <glyph glyph-name="tbar" unicode="&#x167;" horiz-adv-x="825" 
d="M569 467l-14 -88q-8 -31 -8 -62q0 -73 98 -73h113l-41 -244h-152q-147 0 -227 69t-80 187q0 41 10 106l19 105h-156l39 213h154l24 139h-153l41 234h153l51 295h287l-51 -295h225l-39 -234h-227l-27 -139h232l-39 -213h-232z" />
    <glyph glyph-name="Utilde" unicode="&#x168;" horiz-adv-x="1548" 
d="M1335 1462h305l-161 -927q-48 -274 -215 -418t-451 -144q-258 0 -409.5 123t-151.5 334q0 62 10 127l160 905h303l-158 -887q-10 -45 -10 -96q0 -110 71 -171.5t199 -61.5q148 0 236 80t113 225zM1309 1835h129q-21 -125 -84 -195.5t-166 -70.5q-44 0 -83.5 15.5
t-63.5 34.5t-55 34.5t-60 15.5q-72 0 -88 -98h-129q50 266 249 266q43 0 83.5 -15.5t65.5 -33.5t56 -33.5t58 -15.5q72 0 88 96z" />
    <glyph glyph-name="utilde" unicode="&#x169;" horiz-adv-x="1294" 
d="M326 1053h286l-102 -574q-10 -52 -10 -98q0 -74 42.5 -114t127.5 -40q104 0 176.5 72t95.5 197l98 557h287l-184 -1053h-277l17 94h-54q-105 -121 -297 -121q-156 0 -240.5 91.5t-84.5 240.5q0 47 12 129zM1102 1483h141q-52 -287 -248 -287q-43 0 -81.5 18.5t-62.5 40
t-54 40t-58 18.5q-34 0 -58 -33t-32 -84h-139q51 287 246 287q43 0 81.5 -18.5t62.5 -40t54 -40t58 -18.5q65 0 90 117z" />
    <glyph glyph-name="Umacron" unicode="&#x16a;" horiz-adv-x="1548" 
d="M1335 1462h305l-161 -927q-48 -274 -215 -418t-451 -144q-258 0 -409.5 123t-151.5 334q0 62 10 127l160 905h303l-158 -887q-10 -45 -10 -96q0 -110 71 -171.5t199 -61.5q148 0 236 80t113 225zM1368 1628h-616l26 168h619z" />
    <glyph glyph-name="umacron" unicode="&#x16b;" horiz-adv-x="1294" 
d="M326 1053h286l-102 -574q-10 -52 -10 -98q0 -74 42.5 -114t127.5 -40q104 0 176.5 72t95.5 197l98 557h287l-184 -1053h-277l17 94h-54q-105 -121 -297 -121q-156 0 -240.5 91.5t-84.5 240.5q0 47 12 129zM1169 1268h-618l29 174h618z" />
    <glyph glyph-name="Uring" unicode="&#x16e;" horiz-adv-x="1548" 
d="M1335 1462h305l-161 -927q-48 -274 -215 -418t-451 -144q-258 0 -409.5 123t-151.5 334q0 62 10 127l160 905h303l-158 -887q-10 -45 -10 -96q0 -110 71 -171.5t199 -61.5q148 0 236 80t113 225zM1053 2003q102 0 171.5 -68.5t69.5 -167.5t-69.5 -167t-171.5 -68
q-99 0 -170.5 68.5t-71.5 166.5t71.5 167t170.5 69zM1053 1663q43 0 72.5 30.5t29.5 73.5t-30 74t-72 31q-43 0 -73 -31t-30 -74t30 -73.5t73 -30.5z" />
    <glyph glyph-name="uring" unicode="&#x16f;" horiz-adv-x="1294" 
d="M326 1053h286l-102 -574q-10 -52 -10 -98q0 -74 42.5 -114t127.5 -40q104 0 176.5 72t95.5 197l98 557h287l-184 -1053h-277l17 94h-54q-105 -121 -297 -121q-156 0 -240.5 91.5t-84.5 240.5q0 47 12 129zM858 1640q102 0 172 -68t70 -167t-70 -167.5t-172 -68.5
q-99 0 -170.5 69t-71.5 167t71.5 166.5t170.5 68.5zM858 1303q43 0 74 30t31 72q0 43 -31 73.5t-74 30.5q-41 0 -71.5 -30.5t-30.5 -73.5q0 -42 30 -72t72 -30z" />
    <glyph glyph-name="Uhungarumlaut" unicode="&#x170;" horiz-adv-x="1548" 
d="M1335 1462h305l-161 -927q-48 -274 -215 -418t-451 -144q-258 0 -409.5 123t-151.5 334q0 62 10 127l160 905h303l-158 -887q-10 -45 -10 -96q0 -110 71 -171.5t199 -61.5q148 0 236 80t113 225zM1186 1835l-244 -264h-227l194 264h277zM1563 1835l-244 -264h-225
l194 264h275z" />
    <glyph glyph-name="uhungarumlaut" unicode="&#x171;" horiz-adv-x="1294" 
d="M326 1053h286l-102 -574q-10 -52 -10 -98q0 -74 42.5 -114t127.5 -40q104 0 176.5 72t95.5 197l98 557h287l-184 -1053h-277l17 94h-54q-105 -121 -297 -121q-156 0 -240.5 91.5t-84.5 240.5q0 47 12 129zM985 1489l-242 -297h-227l195 297h274zM1362 1489l-244 -297
h-225l194 297h275z" />
    <glyph glyph-name="Uogonek" unicode="&#x172;" horiz-adv-x="1548" 
d="M1335 1462h305l-161 -927q-36 -209 -133 -332.5t-261 -186.5q-109 -42 -151.5 -85.5t-42.5 -100.5q0 -33 27 -52.5t81 -19.5l-30 -166q-25 -2 -66 -2q-122 0 -179.5 47t-57.5 121q0 135 137 215q-254 5 -402.5 126.5t-148.5 330.5q0 62 10 127l160 905h303l-158 -887
q-10 -45 -10 -96q0 -110 71 -171.5t199 -61.5q148 0 236 80t113 225z" />
    <glyph glyph-name="uogonek" unicode="&#x173;" horiz-adv-x="1294" 
d="M326 1053h286l-102 -574q-10 -52 -10 -98q0 -74 42.5 -114t127.5 -40q104 0 176.5 72t95.5 197l98 557h287l-184 -1053q-144 -74 -144 -170q0 -33 27.5 -52.5t81.5 -19.5l-31 -166q-25 -2 -65 -2q-123 0 -180.5 47t-57.5 121q0 82 53.5 144.5t137.5 97.5h-99l17 94h-54
q-105 -121 -297 -121q-156 0 -240.5 91.5t-84.5 240.5q0 47 12 129z" />
    <glyph glyph-name="Ydieresis" unicode="&#x178;" horiz-adv-x="1382" 
d="M807 879h57l412 583h330l-670 -942l-92 -520h-305l92 522l-342 940h307zM866 1602h-241l39 233h241zM1270 1602h-242l39 233h242z" />
    <glyph glyph-name="Zacute" unicode="&#x179;" horiz-adv-x="1355" 
d="M1489 1462l-57 -323l-895 -813l-9 -54h783l-47 -272h-1174l55 324l895 813l11 53h-697l47 272h1088zM1346 1835l-285 -264h-264l233 264h316z" />
    <glyph glyph-name="zacute" unicode="&#x17a;" horiz-adv-x="1130" 
d="M1028 0h-926l50 291l602 471l10 51h-483l41 240h872l-51 -291l-598 -471l-8 -53h532zM1153 1489l-293 -297h-258l240 297h311z" />
    <glyph glyph-name="Zdotaccent" unicode="&#x17b;" horiz-adv-x="1355" 
d="M1489 1462l-57 -323l-895 -813l-9 -54h783l-47 -272h-1174l55 324l895 813l11 53h-697l47 272h1088zM1102 1602h-291l39 233h293z" />
    <glyph glyph-name="zdotaccent" unicode="&#x17c;" horiz-adv-x="1130" 
d="M1028 0h-926l50 291l602 471l10 51h-483l41 240h872l-51 -291l-598 -471l-8 -53h532zM928 1233h-291l45 256h291z" />
    <glyph glyph-name="Zcaron" unicode="&#x17d;" horiz-adv-x="1355" 
d="M1489 1462l-57 -323l-895 -813l-9 -54h783l-47 -272h-1174l55 324l895 813l11 53h-697l47 272h1088zM825 1571l-180 264h223l76 -113h53l117 113h225l-268 -264h-246z" />
    <glyph glyph-name="zcaron" unicode="&#x17e;" horiz-adv-x="1130" 
d="M1028 0h-926l50 291l602 471l10 51h-483l41 240h872l-51 -291l-598 -471l-8 -53h532zM637 1192l-172 297h209l80 -135h53l129 135h221l-276 -297h-244z" />
    <glyph glyph-name="florin" unicode="&#x192;" horiz-adv-x="905" 
d="M483 -410h-284l188 1084h-182v239h225l25 142q40 234 158 334t325 100h100v-240h-86q-99 0 -145.5 -53.5t-71.5 -171.5l-20 -111h217v-239h-258z" />
    <glyph glyph-name="circumflex" unicode="&#x2c6;" horiz-adv-x="851" 
d="M813 1489l170 -297h-205l-80 135h-53l-131 -135h-223l278 297h244z" />
    <glyph glyph-name="caron" unicode="&#x2c7;" horiz-adv-x="851" 
d="M516 1192l-172 297h209l80 -135h53l129 135h221l-276 -297h-244z" />
    <glyph glyph-name="breve" unicode="&#x2d8;" horiz-adv-x="751" 
d="M766 1489h170q-24 -140 -109 -218.5t-225 -78.5q-123 0 -194.5 60.5t-71.5 164.5q0 41 8 72h172q-4 -20 -4 -37q0 -48 27.5 -75t78.5 -27q121 0 148 139z" />
    <glyph glyph-name="dotaccent" unicode="&#x2d9;" horiz-adv-x="448" 
d="M590 1233h-291l45 256h291z" />
    <glyph glyph-name="ring" unicode="&#x2da;" horiz-adv-x="645" 
d="M557 1640q102 0 172 -68t70 -167t-70 -167.5t-172 -68.5q-99 0 -170.5 69t-71.5 167t71.5 166.5t170.5 68.5zM557 1303q43 0 74 30t31 72q0 43 -31 73.5t-74 30.5q-41 0 -71.5 -30.5t-30.5 -73.5q0 -42 30 -72t72 -30z" />
    <glyph glyph-name="ogonek" unicode="&#x2db;" horiz-adv-x="493" 
d="M276 18l121 -18q-143 -73 -143 -170q0 -33 27 -52.5t81 -19.5l-30 -166q-25 -2 -66 -2q-122 0 -179.5 47t-57.5 121q0 94 72 163.5t175 96.5z" />
    <glyph glyph-name="tilde" unicode="&#x2dc;" horiz-adv-x="841" 
d="M885 1483h141q-52 -287 -248 -287q-43 0 -81.5 18.5t-62.5 40t-54 40t-58 18.5q-34 0 -58 -33t-32 -84h-139q51 287 246 287q43 0 81.5 -18.5t62.5 -40t54 -40t58 -18.5q65 0 90 117z" />
    <glyph glyph-name="hungarumlaut" unicode="&#x2dd;" horiz-adv-x="962" 
d="M760 1489l-242 -297h-227l194 297h275zM1137 1489l-244 -297h-225l194 297h275z" />
    <glyph glyph-name="uni03A9" unicode="&#x3a9;" horiz-adv-x="1581" 
d="M1343 293v-53h236v-240h-602v250q291 197 291 524q0 207 -103.5 325t-271.5 118q-169 0 -273 -118t-104 -325q0 -329 289 -524v-250h-600v240h235v53q-104 80 -170.5 209.5t-66.5 300.5q0 197 81 351.5t239 244.5t370 90t369 -90t237 -244t80 -352q0 -171 -65.5 -300
t-170.5 -210z" />
    <glyph glyph-name="pi" unicode="&#x3c0;" horiz-adv-x="1353" 
d="M1350 0h-115q-189 0 -271.5 83t-82.5 273v457h-269v-813h-286v813h-158v240h1180v-240h-181v-442q0 -69 25 -101t86 -32h72v-238z" />
    <glyph glyph-name="uni0401" unicode="&#x401;" horiz-adv-x="1355" 
d="M520 272h791l-45 -272h-1096l256 1462h1073l-47 -272h-770l-53 -307h600l-47 -267h-598zM909 1602h-241l39 233h241zM1313 1602h-242l39 233h242z" />
    <glyph glyph-name="uni0402" unicode="&#x402;" horiz-adv-x="1691" 
d="M977 -18l47 272q24 -8 84 -8q68 0 122.5 19t90 63.5t35.5 109.5q0 82 -65.5 130t-200.5 48q-157 0 -261 -30l-102 -586h-305l209 1194h-387l45 268h1192l-45 -268h-502l-57 -334q155 29 292 29q124 0 220.5 -32.5t156.5 -90.5t90.5 -134.5t30.5 -168.5
q0 -127 -46.5 -223.5t-126 -153.5t-177 -85t-209.5 -28q-104 0 -131 9z" />
    <glyph glyph-name="uni0403" unicode="&#x403;" horiz-adv-x="1296" 
d="M1325 1847l-293 -297h-258l240 297h311zM1425 1190h-741l-209 -1190h-305l256 1462h1047z" />
    <glyph glyph-name="uni0404" unicode="&#x404;" horiz-adv-x="1513" 
d="M1190 432h317q-45 -205 -222 -332t-431 -127q-180 0 -321.5 73.5t-224.5 219t-83 342.5q0 184 55 345t153.5 280t245.5 187.5t322 68.5q228 0 380.5 -118t181.5 -320h-314q-49 166 -262 166q-152 0 -259 -94.5t-150 -248.5h544l-47 -266h-532v-20q0 -155 88.5 -248.5
t245.5 -93.5q117 0 198.5 49.5t114.5 136.5z" />
    <glyph glyph-name="uni0405" unicode="&#x405;" horiz-adv-x="1413" 
d="M1438 1061h-310q-11 86 -82.5 126t-179.5 40q-65 0 -117.5 -15t-89 -54.5t-36.5 -98.5q0 -64 38 -95.5t119 -54.5l260 -69q342 -90 342 -394q0 -140 -81 -249t-218.5 -166.5t-306.5 -57.5q-275 0 -438 122.5t-170 350.5h311q20 -210 316 -210q50 0 95.5 9.5t87 30
t66.5 58.5t25 90q0 66 -41.5 107t-128.5 65l-268 72q-161 41 -239.5 137.5t-78.5 232.5q0 205 152.5 328t413.5 123q158 0 281.5 -48t198 -146t79.5 -234z" />
    <glyph glyph-name="uni0406" unicode="&#x406;" horiz-adv-x="665" 
d="M436 1462h305l-256 -1462h-305z" />
    <glyph glyph-name="uni0407" unicode="&#x407;" horiz-adv-x="665" 
d="M436 1462h305l-256 -1462h-305zM535 1602h-242l39 233h241zM938 1602h-242l39 233h242z" />
    <glyph glyph-name="uni0408" unicode="&#x408;" horiz-adv-x="1228" 
d="M594 -27q-203 0 -333 105t-130 291q0 52 8 96h303q-4 -36 -4 -49q0 -170 176 -170q191 0 234 254l168 962h305l-172 -989q-42 -241 -183 -370.5t-372 -129.5z" />
    <glyph glyph-name="uni0409" unicode="&#x409;" horiz-adv-x="2330" 
d="M1538 967h305q204 0 338.5 -115t134.5 -315q0 -248 -166.5 -392.5t-459.5 -144.5h-627l209 1190h-457l-61 -354q-31 -176 -67 -306.5t-81.5 -223.5t-95.5 -152.5t-116 -93.5t-135.5 -47t-162.5 -13h-53l51 299h51q50 0 82 7t65 31t55.5 66t47 117t46.5 179t48 257l86 506
h1049zM1788 698h-297l-76 -430h305q126 0 205.5 63t79.5 187q0 89 -61.5 134.5t-155.5 45.5z" />
    <glyph glyph-name="uni040A" unicode="&#x40a;" horiz-adv-x="2363" 
d="M1096 0l108 621h-620l-109 -621h-305l256 1462h305l-98 -565h620l99 565h305l-86 -495h305q204 0 338.5 -115t134.5 -315q0 -248 -167 -392.5t-460 -144.5h-626zM1821 698h-297l-76 -430h305q126 0 205.5 63t79.5 187q0 89 -61.5 134.5t-155.5 45.5z" />
    <glyph glyph-name="uni040B" unicode="&#x40b;" horiz-adv-x="1695" 
d="M1587 0h-307l63 369q13 59 13 100q0 33 -9.5 57t-36 46t-79.5 33t-133 11q-153 0 -267 -32l-102 -584h-305l207 1194h-387l47 268h1194l-47 -268h-500l-61 -340q158 35 317 35q114 0 199.5 -16t139 -42.5t86.5 -66.5t45.5 -82.5t12.5 -95.5q0 -66 -16 -164z" />
    <glyph glyph-name="uni040C" unicode="&#x40c;" horiz-adv-x="1480" 
d="M170 0l256 1462h305l-102 -571h336l366 571h320l-449 -710l211 -752h-297l-176 614h-358l-107 -614h-305zM1411 1835l-285 -264h-264l234 264h315z" />
    <glyph glyph-name="uni040E" unicode="&#x40e;" horiz-adv-x="1404" 
d="M815 807h57l424 655h326l-956 -1462h-308l283 438l-356 1024h303zM1165 1851h228q-33 -150 -143 -232.5t-285 -82.5q-163 0 -255 74.5t-92 204.5q0 15 3 36h219q0 -58 35.5 -92.5t109.5 -34.5q75 0 120.5 35t59.5 92z" />
    <glyph glyph-name="uni040F" unicode="&#x40f;" horiz-adv-x="1564" 
d="M567 -358l62 358h-459l256 1462h305l-211 -1190h619l209 1190h305l-256 -1462h-463l-62 -358h-305z" />
    <glyph glyph-name="uni0410" unicode="&#x410;" horiz-adv-x="1468" 
d="M1128 0l-51 395h-551l-186 -395h-303l717 1462h473l205 -1462h-304zM893 1169l-240 -507h389l-63 507h-86z" />
    <glyph glyph-name="uni0411" unicode="&#x411;" horiz-adv-x="1456" 
d="M934 655h-344l-68 -387h348q117 0 187.5 56t70.5 172q0 78 -55 118.5t-139 40.5zM170 0l256 1462h1063l-49 -272h-756l-49 -279h358q192 0 317.5 -108.5t125.5 -296.5q0 -234 -156 -370t-432 -136h-678z" />
    <glyph glyph-name="uni0412" unicode="&#x412;" horiz-adv-x="1482" 
d="M1298 784l-10 -53q69 -37 111.5 -112.5t42.5 -174.5q0 -102 -33 -180t-89.5 -127.5t-140 -80.5t-175.5 -43.5t-205 -12.5h-629l256 1462h647q193 0 311.5 -94t118.5 -248q0 -129 -57 -215.5t-148 -120.5zM686 1208l-57 -325h329q101 0 162.5 45t61.5 141q0 43 -18.5 72.5
t-52 43t-67.5 18.5t-79 5h-279zM518 260h348q112 0 183 52.5t71 160.5q0 75 -55 114.5t-139 39.5h-340z" />
    <glyph glyph-name="uni0413" unicode="&#x413;" horiz-adv-x="1296" 
d="M1425 1190h-741l-209 -1190h-305l256 1462h1047z" />
    <glyph glyph-name="uni0414" unicode="&#x414;" horiz-adv-x="1634" 
d="M618 1462h1012l-211 -1190h205l-108 -630h-297l61 358h-942l-64 -358h-297l107 630h152q230 316 313 789zM1122 272l162 918h-436l-23 -129q-97 -527 -284 -789h581z" />
    <glyph glyph-name="uni0415" unicode="&#x415;" horiz-adv-x="1355" 
d="M520 272h791l-45 -272h-1096l256 1462h1073l-47 -272h-770l-53 -307h600l-47 -267h-598z" />
    <glyph glyph-name="uni0416" unicode="&#x416;" horiz-adv-x="2203" 
d="M1659 604h-307l-109 -604h-295l105 604h-293l-350 -604h-318l436 741l-161 721h303l125 -581h307l102 581h295l-100 -581h293l329 581h316l-416 -721l178 -741h-301z" />
    <glyph glyph-name="uni0417" unicode="&#x417;" horiz-adv-x="1431" 
d="M684 885h215q102 0 166.5 43t64.5 133q0 75 -63.5 115.5t-161.5 40.5q-229 0 -272 -168h-316q43 210 203.5 325t407.5 115q240 0 382 -108.5t142 -274.5q0 -121 -60 -203t-171 -119l-11 -53q81 -29 132 -96t51 -172q0 -116 -51 -210.5t-138 -154.5t-198.5 -92.5
t-235.5 -32.5q-289 0 -448.5 122.5t-163.5 348.5h321q15 -198 291 -198q129 0 216 56.5t87 158.5q0 157 -223 157h-211z" />
    <glyph glyph-name="uni0418" unicode="&#x418;" horiz-adv-x="1601" 
d="M426 1462h283l-181 -1020h54l692 1020h416l-256 -1462h-283l182 1042h-53l-709 -1042h-401z" />
    <glyph glyph-name="uni0419" unicode="&#x419;" horiz-adv-x="1601" 
d="M426 1462h283l-181 -1020h54l692 1020h416l-256 -1462h-283l182 1042h-53l-709 -1042h-401zM1266 1851h227q-33 -150 -143 -232.5t-285 -82.5q-163 0 -254.5 74.5t-91.5 204.5q0 22 2 36h219q0 -58 35.5 -92.5t109.5 -34.5q75 0 121 35t60 92z" />
    <glyph glyph-name="uni041A" unicode="&#x41a;" horiz-adv-x="1480" 
d="M170 0l256 1462h305l-102 -571h336l366 571h320l-449 -710l211 -752h-297l-176 614h-358l-107 -614h-305z" />
    <glyph glyph-name="uni041B" unicode="&#x41b;" horiz-adv-x="1548" 
d="M94 299h51q46 0 77 7t63 28.5t55 60.5t47 104.5t45.5 159.5t44.5 226l98 577h1061l-256 -1462h-305l207 1190h-467l-61 -354q-31 -176 -67 -306.5t-81.5 -223.5t-95.5 -152.5t-116 -93.5t-135.5 -47t-162.5 -13h-53z" />
    <glyph glyph-name="uni041C" unicode="&#x41c;" horiz-adv-x="1796" 
d="M170 0l256 1462h459l133 -590h53l338 590h475l-256 -1462h-282l190 1090h-53l-346 -590h-299l-140 590h-53l-192 -1090h-283z" />
    <glyph glyph-name="uni041D" unicode="&#x41d;" horiz-adv-x="1587" 
d="M1370 1462h305l-256 -1462h-305l107 612h-639l-107 -612h-305l256 1462h305l-102 -569h643z" />
    <glyph glyph-name="uni041E" unicode="&#x41e;" horiz-adv-x="1622" 
d="M1014 1489q184 0 328 -74t227.5 -219t83.5 -340q0 -145 -34 -277.5t-101 -243t-161 -191.5t-220 -126t-271 -45q-185 0 -329.5 74.5t-228 220t-83.5 340.5q0 182 54 341.5t153 280t249.5 190t332.5 69.5zM885 246q109 0 198 51.5t144 137t84.5 190.5t29.5 217
q0 175 -91 275t-255 100q-110 0 -199.5 -52t-144.5 -137.5t-84.5 -189.5t-29.5 -215q0 -175 92 -276t256 -101z" />
    <glyph glyph-name="uni041F" unicode="&#x41f;" horiz-adv-x="1570" 
d="M426 1462h1233l-256 -1462h-305l209 1190h-625l-207 -1190h-305z" />
    <glyph glyph-name="uni0420" unicode="&#x420;" horiz-adv-x="1449" 
d="M426 1462h649q199 0 329 -111t130 -307q0 -240 -161 -380t-447 -140h-359l-92 -524h-305zM1022 1194h-338l-70 -401h347q117 0 188.5 58.5t71.5 174.5q0 82 -56 125t-143 43z" />
    <glyph glyph-name="uni0421" unicode="&#x421;" horiz-adv-x="1515" 
d="M1194 467h315q-45 -222 -223 -358t-432 -136q-180 0 -321.5 73.5t-224.5 219t-83 342.5q0 184 55 345t153.5 280t245.5 187.5t322 68.5q230 0 382.5 -122t181.5 -331h-314q-40 181 -268 181q-105 0 -191 -51t-140 -135t-83.5 -189.5t-29.5 -218.5q0 -175 88.5 -276
t246.5 -101q122 0 206.5 59t113.5 162z" />
    <glyph glyph-name="uni0422" unicode="&#x422;" horiz-adv-x="1271" 
d="M1495 1462l-45 -268h-453l-209 -1194h-305l209 1194h-448l47 268h1204z" />
    <glyph glyph-name="uni0423" unicode="&#x423;" horiz-adv-x="1404" 
d="M815 807h57l424 655h326l-956 -1462h-308l283 438l-356 1024h303z" />
    <glyph glyph-name="uni0424" unicode="&#x424;" horiz-adv-x="1849" 
d="M774 -27l35 193q-269 17 -428.5 154.5t-159.5 363.5q0 154 57 278.5t159.5 206t243 125t308.5 43.5h25l30 172h291l-30 -172q269 -17 428 -155t159 -365q0 -155 -57 -279t-159.5 -205t-243 -124t-308.5 -43h-24l-35 -193h-291zM1145 426h24q186 0 301 95t115 278
q0 129 -83.5 201.5t-241.5 76.5zM971 1077h-25q-187 0 -302.5 -94.5t-115.5 -277.5q0 -129 84 -202t242 -77z" />
    <glyph glyph-name="uni0425" unicode="&#x425;" horiz-adv-x="1411" 
d="M1049 0l-193 602h-63l-410 -602h-342l530 768l-219 694h299l174 -536h64l368 536h320l-469 -686l262 -776h-321z" />
    <glyph glyph-name="uni0426" unicode="&#x426;" horiz-adv-x="1656" 
d="M1239 -358l64 358h-1133l256 1462h305l-211 -1190h619l209 1190h305l-209 -1190h205l-111 -630h-299z" />
    <glyph glyph-name="uni0427" unicode="&#x427;" horiz-adv-x="1435" 
d="M365 1462h305l-74 -411q-12 -54 -12 -101q0 -27 5.5 -47t22 -40t44.5 -32.5t75.5 -20t112.5 -7.5q123 0 264 31l111 628h305l-256 -1462h-305l98 565q-140 -35 -311 -35q-114 0 -199.5 16t-138.5 42.5t-86 66.5t-45.5 83.5t-12.5 97.5q0 71 15 163z" />
    <glyph glyph-name="uni0428" unicode="&#x428;" horiz-adv-x="2142" 
d="M1974 0h-1804l256 1462h297l-209 -1190h457l209 1190h297l-211 -1190h458l209 1190h297z" />
    <glyph glyph-name="uni0429" unicode="&#x429;" horiz-adv-x="2234" 
d="M1819 -358l63 358h-1712l256 1462h297l-209 -1190h457l209 1190h297l-211 -1190h458l209 1190h297l-209 -1190h203l-108 -630h-297z" />
    <glyph glyph-name="uni042A" unicode="&#x42a;" horiz-adv-x="1671" 
d="M858 967h326q204 0 338.5 -115t134.5 -315q0 -248 -166.5 -392.5t-460.5 -144.5h-647l209 1190h-369l47 272h674zM1130 698h-319l-76 -430h328q126 0 205.5 63t79.5 187q0 89 -62 134.5t-156 45.5z" />
    <glyph glyph-name="uni042B" unicode="&#x42b;" horiz-adv-x="1933" 
d="M1716 1462h305l-256 -1462h-305zM645 967h270q204 0 339 -115t135 -315q0 -248 -166.5 -392.5t-460.5 -144.5h-592l256 1462h305zM862 698h-264l-76 -430h273q126 0 205 63t79 187q0 89 -61.5 134.5t-155.5 45.5z" />
    <glyph glyph-name="uni042C" unicode="&#x42c;" horiz-adv-x="1458" 
d="M645 967h326q204 0 338.5 -115t134.5 -315q0 -248 -166.5 -392.5t-460.5 -144.5h-647l256 1462h305zM918 698h-320l-76 -430h328q126 0 205.5 63t79.5 187q0 89 -61.5 134.5t-155.5 45.5z" />
    <glyph glyph-name="uni042D" unicode="&#x42d;" horiz-adv-x="1488" 
d="M666 874h536q-6 157 -91 250t-234 93q-227 0 -304 -166h-317q52 205 225.5 321.5t417.5 116.5q180 0 320.5 -76t220.5 -221.5t80 -339.5q0 -184 -54 -344.5t-152 -279.5t-245 -187t-324 -68q-155 0 -283 56t-209 161t-97 242h311q17 -89 97.5 -137.5t199.5 -48.5
q159 0 265 101t140 261h-551z" />
    <glyph glyph-name="uni042E" unicode="&#x42e;" horiz-adv-x="2215" 
d="M426 1462h303l-100 -569h248q45 174 144 307t253 211t342 78q182 0 324 -74t224.5 -219t82.5 -340q0 -182 -53.5 -342.5t-151 -281t-245 -190t-324.5 -69.5q-284 0 -456.5 175.5t-172.5 463.5h-264l-107 -612h-303zM1491 246q86 0 159 34t125 91.5t88.5 134t54 162
t17.5 174.5q0 174 -89.5 274.5t-248.5 100.5q-106 0 -193 -52t-140.5 -137.5t-82 -189.5t-28.5 -215q0 -175 89 -276t249 -101z" />
    <glyph glyph-name="uni042F" unicode="&#x42f;" horiz-adv-x="1462" 
d="M1550 1462l-256 -1462h-305l96 551h-342l-288 -551h-324l328 618q-83 52 -130.5 137.5t-47.5 198.5q0 235 156 371.5t435 136.5h678zM778 811h355l67 383h-364q-112 0 -179 -54.5t-67 -166.5q0 -81 52.5 -121.5t135.5 -40.5z" />
    <glyph glyph-name="uni0430" unicode="&#x430;" horiz-adv-x="1202" 
d="M801 0l14 90h-53q-105 -117 -287 -117q-151 0 -244.5 89.5t-93.5 230.5q0 97 36.5 171t102.5 119.5t152 68t190 22.5h287q8 56 8 69q0 59 -42 90t-121 31q-166 0 -193 -112h-287q25 152 156 239.5t330 87.5q196 0 315 -83t119 -238q0 -45 -10 -103l-115 -655h-264z
M594 201q104 0 178 63.5t92 159.5l10 63h-221q-221 0 -221 -159q0 -60 42 -93.5t120 -33.5z" />
    <glyph glyph-name="uni0431" unicode="&#x431;" horiz-adv-x="1284" 
d="M870 1018q193 0 303.5 -115t110.5 -299q0 -181 -72 -323.5t-209 -225t-317 -82.5q-219 0 -351 132t-132 374q0 87 12.5 177t38 186t70.5 182t104 157.5t144 121t186 65.5l284 43q61 11 83 25.5t32 52.5h229q-8 -42 -17.5 -74t-29 -70t-46 -64.5t-69.5 -47.5t-98 -29
l-350 -51q-116 -18 -191 -84.5t-112 -196.5h53q64 79 146.5 112.5t197.5 33.5zM709 211q90 0 159 53.5t102.5 134t33.5 170.5q0 105 -60.5 164.5t-165.5 59.5q-89 0 -157.5 -52.5t-102 -133t-33.5 -171.5q0 -104 60 -164.5t164 -60.5z" />
    <glyph glyph-name="uni0432" unicode="&#x432;" horiz-adv-x="1234" 
d="M1075 573l-10 -53q125 -61 125 -201q0 -74 -25 -130t-67.5 -91.5t-106 -57.5t-134.5 -31t-159 -9h-546l184 1053h567q147 0 231.5 -65.5t84.5 -176.5q0 -92 -40.5 -152t-103.5 -86zM827 846h-245l-39 -203h254q133 0 133 121q0 40 -29.5 61t-73.5 21zM784 442h-274
l-45 -235h283q70 0 111.5 34t41.5 103q0 48 -33 73t-84 25z" />
    <glyph glyph-name="uni0433" unicode="&#x433;" horiz-adv-x="1060" 
d="M1182 1053l-43 -240h-557l-144 -813h-286l184 1053h846z" />
    <glyph glyph-name="uni0434" unicode="&#x434;" horiz-adv-x="1419" 
d="M1212 238h185l-94 -531h-271l53 293h-768l-53 -293h-270l92 531h143q144 224 195 512l51 303h881zM926 238l100 575h-332l-10 -63q-48 -293 -172 -512h414z" />
    <glyph glyph-name="uni0435" unicode="&#x435;" horiz-adv-x="1210" 
d="M883 322h291q-35 -165 -167.5 -257t-336.5 -92q-208 0 -347 127t-139 344q0 184 67 327t199.5 225.5t311.5 82.5q93 0 175 -30.5t146 -87t101 -145t37 -198.5q0 -38 -11 -124h-741q-2 -8 -2 -37q0 -112 59 -179t166 -67q144 0 191 111zM750 864q-90 0 -153.5 -46.5
t-94.5 -133.5h432q-5 81 -50 130.5t-134 49.5z" />
    <glyph glyph-name="uni0436" unicode="&#x436;" horiz-adv-x="1777" 
d="M633 418l-262 -418h-299l342 543l-140 510h275l104 -396h211l70 396h264l-68 -396h193l244 396h295l-322 -512l154 -541h-281l-115 418h-208l-76 -418h-264l73 418h-190z" />
    <glyph glyph-name="uni0437" unicode="&#x437;" horiz-adv-x="1163" 
d="M553 643h154q165 0 165 100q0 47 -43.5 75t-117.5 28q-172 0 -207 -115h-262q35 176 168 262t331 86t308 -81t110 -207q0 -170 -143 -228l-10 -53q112 -38 112 -164q0 -76 -28 -138.5t-76.5 -105.5t-113.5 -72.5t-138 -43t-152 -13.5q-76 0 -143.5 12t-128.5 39
t-105 67.5t-70 101.5t-26 137h262q13 -123 217 -123q35 0 69 6t68.5 19.5t56 41t21.5 66.5q0 84 -145 84h-172z" />
    <glyph glyph-name="uni0438" unicode="&#x438;" horiz-adv-x="1314" 
d="M444 0h-292l184 1053h278l-104 -594h53l488 594h297l-185 -1053h-278l104 592h-53z" />
    <glyph glyph-name="uni0439" unicode="&#x439;" horiz-adv-x="1314" 
d="M444 0h-292l184 1053h278l-104 -594h53l488 594h297l-185 -1053h-278l104 592h-53zM514 1470h221q-2 -4 -2 -16v-10q0 -44 35.5 -71t95.5 -27q139 0 170 124h223q-31 -145 -137 -226t-274 -81q-159 0 -246.5 72.5t-87.5 200.5v12q0 16 2 22z" />
    <glyph glyph-name="uni043A" unicode="&#x43a;" horiz-adv-x="1257" 
d="M879 0l-138 420h-229l-74 -420h-286l184 1053h287l-70 -394h227l267 394h294l-344 -508l177 -545h-295z" />
    <glyph glyph-name="uni043B" unicode="&#x43b;" horiz-adv-x="1316" 
d="M457 1053h893l-187 -1053h-286l143 813h-342l-41 -242q-38 -217 -107 -342.5t-172.5 -177t-263.5 -51.5h-49l47 274h39q115 0 165.5 75.5t84.5 264.5z" />
    <glyph glyph-name="uni043C" unicode="&#x43c;" horiz-adv-x="1529" 
d="M152 0l184 1053h369l131 -443h53l289 443h385l-185 -1053h-280l119 672h-54l-223 -340h-235l-103 340h-53l-117 -672h-280z" />
    <glyph glyph-name="uni043D" unicode="&#x43d;" horiz-adv-x="1306" 
d="M1339 1053l-182 -1053h-289l74 420h-430l-74 -420h-286l184 1053h287l-70 -394h430l70 394h286z" />
    <glyph glyph-name="uni043E" unicode="&#x43e;" horiz-adv-x="1273" 
d="M780 1079q137 0 249 -54.5t180.5 -163t68.5 -253.5q0 -183 -70.5 -326t-208 -226t-321.5 -83q-138 0 -248.5 54t-178 162.5t-67.5 254.5q0 185 69 327.5t205.5 225t321.5 82.5zM696 211q91 0 160 56t103 142.5t34 188.5q0 115 -61 178.5t-170 63.5q-90 0 -159 -55
t-102.5 -141t-33.5 -187q0 -116 61 -181t168 -65z" />
    <glyph glyph-name="uni043F" unicode="&#x43f;" horiz-adv-x="1298" 
d="M1149 0h-289l144 813h-422l-144 -813h-286l184 1053h995z" />
    <glyph glyph-name="uni0440" unicode="&#x440;" horiz-adv-x="1306" 
d="M338 1053h276l-18 -97h53q43 56 113.5 89.5t159.5 33.5q122 0 211.5 -62.5t133.5 -166t44 -234.5q0 -124 -34.5 -239t-98 -205.5t-162 -144.5t-217.5 -54q-97 0 -172.5 36t-114.5 100h-53l-92 -519h-287zM737 211q122 0 201.5 110t79.5 277q0 113 -51.5 177.5
t-151.5 64.5q-71 0 -128.5 -34.5t-92.5 -90.5t-53.5 -122.5t-18.5 -135.5q0 -116 56.5 -181t158.5 -65z" />
    <glyph glyph-name="uni0441" unicode="&#x441;" horiz-adv-x="1196" 
d="M893 354h285q-33 -175 -166.5 -278t-343.5 -103q-208 0 -346 126.5t-138 342.5q0 136 39.5 252.5t112.5 202t184.5 134t249.5 48.5q183 0 306.5 -100t135.5 -262h-282q-11 57 -56.5 90t-117.5 33q-89 0 -155.5 -56t-98 -142t-31.5 -187q0 -116 56 -180t159 -64
q78 0 133 38.5t74 104.5z" />
    <glyph glyph-name="uni0442" unicode="&#x442;" horiz-adv-x="1097" 
d="M205 813l43 240h971l-43 -240h-340l-144 -813h-286l143 813h-344z" />
    <glyph glyph-name="uni0443" unicode="&#x443;" horiz-adv-x="1208" 
d="M471 -410h-293l316 525l-273 938h279l170 -561h53l342 561h293z" />
    <glyph glyph-name="uni0444" unicode="&#x444;" horiz-adv-x="1607" 
d="M594 -410l72 410q-220 17 -351 138.5t-131 310.5q0 147 52 263.5t143.5 190t211.5 112t261 38.5l78 436h280l-77 -436q221 -17 350 -137.5t129 -311.5q0 -147 -51.5 -263.5t-142 -190t-210.5 -112t-262 -38.5l-72 -410h-280zM467 473q0 -112 63 -180t177 -72l108 610
q-165 0 -256.5 -104t-91.5 -254zM1331 582q0 111 -63.5 178t-175.5 71l-109 -610q113 0 194 51.5t117.5 131.5t36.5 178z" />
    <glyph glyph-name="uni0445" unicode="&#x445;" horiz-adv-x="1228" 
d="M866 0l-139 387h-74l-276 -387h-309l393 541l-178 512h282l125 -363h72l258 363h301l-360 -508l198 -545h-293z" />
    <glyph glyph-name="uni0446" unicode="&#x446;" horiz-adv-x="1388" 
d="M1001 -293l52 293h-901l184 1053h287l-142 -815h414l141 815h287l-141 -815h184l-94 -531h-271z" />
    <glyph glyph-name="uni0447" unicode="&#x447;" horiz-adv-x="1210" 
d="M279 1053h286l-51 -291q-10 -38 -10 -72q0 -49 36 -76.5t132 -27.5q115 0 205 20l79 447h287l-186 -1053h-287l66 375q-148 -27 -277 -27q-177 0 -265.5 61t-88.5 173q0 59 14 131z" />
    <glyph glyph-name="uni0448" unicode="&#x448;" horiz-adv-x="1753" 
d="M1507 1053h279l-184 -1053h-1450l184 1053h278l-143 -815h309l142 815h278l-143 -815h307z" />
    <glyph glyph-name="uni0449" unicode="&#x449;" horiz-adv-x="1849" 
d="M1507 1053h279l-144 -815h185l-94 -531h-271l51 293h-1361l184 1053h278l-143 -815h309l142 815h278l-143 -815h307z" />
    <glyph glyph-name="uni044A" unicode="&#x44a;" horiz-adv-x="1372" 
d="M178 813l43 240h590l-55 -308h250q155 0 256.5 -89t101.5 -244q0 -104 -37.5 -184t-104 -129t-152.5 -74t-187 -25h-545l143 813h-303zM717 520l-49 -282h223q84 0 135 39.5t51 121.5q0 59 -40 90t-103 31h-217z" />
    <glyph glyph-name="uni044B" unicode="&#x44b;" horiz-adv-x="1685" 
d="M1718 1053l-184 -1053h-287l183 1053h288zM152 0l186 1053h287l-56 -308h224q155 0 256.5 -89t101.5 -244q0 -104 -37.5 -184t-104 -129t-152.5 -74t-187 -25h-518zM530 520l-49 -282h197q84 0 135 39.5t51 121.5q0 59 -40 90t-103 31h-191z" />
    <glyph glyph-name="uni044C" unicode="&#x44c;" horiz-adv-x="1185" 
d="M152 0l186 1053h287l-56 -308h250q155 0 257 -89t102 -244q0 -104 -38 -184t-104.5 -129t-152.5 -74t-187 -25h-544zM530 520l-49 -282h224q84 0 135 39.5t51 121.5q0 59 -40 90t-103 31h-218z" />
    <glyph glyph-name="uni044D" unicode="&#x44d;" horiz-adv-x="1202" 
d="M487 735h-268q44 165 175 254.5t329 89.5q217 0 350 -131t133 -336q0 -288 -159.5 -463.5t-423.5 -175.5q-198 0 -333 104t-140 259h266q7 -62 59.5 -95.5t138.5 -33.5q108 0 185.5 55.5t103.5 161.5h-379l41 219h355q-7 92 -68 147.5t-154 55.5q-78 0 -133 -28.5
t-78 -82.5z" />
    <glyph glyph-name="uni044E" unicode="&#x44e;" horiz-adv-x="1771" 
d="M336 1053h282l-71 -394h192q54 193 198.5 306.5t358.5 113.5q132 0 240.5 -55t174 -163t65.5 -249q0 -135 -39.5 -251.5t-113 -203t-184.5 -135.5t-247 -49q-202 0 -337 123.5t-142 323.5h-207l-74 -420h-280zM1204 211q89 0 157 57t101 144.5t33 187.5q0 112 -59.5 176
t-163.5 64q-86 0 -153 -56.5t-100.5 -143.5t-33.5 -185q0 -113 58.5 -178.5t160.5 -65.5z" />
    <glyph glyph-name="uni044F" unicode="&#x44f;" horiz-adv-x="1220" 
d="M1253 1053l-184 -1053h-289l64 352h-258l-195 -352h-285l236 424q-115 81 -115 240q0 98 36 173.5t98.5 122t143.5 70t175 23.5h573zM645 563h234l47 260h-242q-77 0 -123.5 -36.5t-46.5 -112.5q0 -54 37 -82.5t94 -28.5z" />
    <glyph glyph-name="uni0451" unicode="&#x451;" horiz-adv-x="1210" 
d="M883 322h291q-35 -165 -167.5 -257t-336.5 -92q-208 0 -347 127t-139 344q0 184 67 327t199.5 225.5t311.5 82.5q93 0 175 -30.5t146 -87t101 -145t37 -198.5q0 -38 -11 -124h-741q-2 -8 -2 -37q0 -112 59 -179t166 -67q144 0 191 111zM750 864q-90 0 -153.5 -46.5
t-94.5 -133.5h432q-5 81 -50 130.5t-134 49.5zM719 1233h-240l45 256h242zM1122 1233h-241l47 256h239z" />
    <glyph glyph-name="uni0452" unicode="&#x452;" horiz-adv-x="1337" 
d="M457 1489h286l-28 -164h364l-30 -180h-365l-49 -277h53q54 60 122.5 90.5t166.5 30.5q156 0 241 -91.5t85 -240.5q0 -40 -13 -129l-92 -534q-35 -201 -155.5 -302.5t-317.5 -101.5h-133l43 238h94q151 0 180 158l90 497q11 57 11 99q0 73 -42.5 113t-127.5 40
q-104 0 -178 -72t-97 -196l-84 -467h-286l202 1145h-149l31 180h149z" />
    <glyph glyph-name="uni0453" unicode="&#x453;" horiz-adv-x="1060" 
d="M1135 1489l-293 -297h-258l239 297h312zM1182 1053l-43 -240h-557l-144 -813h-286l184 1053h846z" />
    <glyph glyph-name="uni0454" unicode="&#x454;" horiz-adv-x="1193" 
d="M848 643l-37 -219h-340q0 -104 55 -163.5t158 -59.5q75 0 129.5 35t77.5 100h285q-33 -168 -166.5 -265.5t-341.5 -97.5t-346 126.5t-138 342.5q0 136 39.5 252.5t112.5 202t184.5 134t249.5 48.5q182 0 305 -95t135 -249h-280q-10 55 -57 86t-119 31q-97 0 -165 -56.5
t-93 -152.5h352z" />
    <glyph glyph-name="uni0455" unicode="&#x455;" horiz-adv-x="1118" 
d="M127 332h283q5 -61 64.5 -99t154.5 -38q74 0 125 28.5t51 81.5q0 41 -32 65.5t-107 45.5l-185 53q-243 71 -243 274q0 156 120.5 244t321.5 88q180 0 304 -82t144 -229h-282q-7 46 -53.5 70t-116.5 24q-68 0 -110 -24t-42 -72q0 -19 7 -33t25 -24t33 -15.5t47 -15.5
q2 -1 3 -1t3 -0.5t3.5 -1.5t3.5 -1l185 -52q258 -74 258 -301q0 -154 -132.5 -249t-341.5 -95q-210 0 -342 91.5t-149 267.5z" />
    <glyph glyph-name="uni0456" unicode="&#x456;" horiz-adv-x="591" 
d="M623 1053l-185 -1053h-286l184 1053h287zM655 1233h-288l45 256h290z" />
    <glyph glyph-name="uni0457" unicode="&#x457;" horiz-adv-x="587" 
d="M432 1233h-239l45 256h241zM836 1233h-242l47 256h240zM623 1053l-185 -1053h-286l184 1053h287z" />
    <glyph glyph-name="uni0458" unicode="&#x458;" horiz-adv-x="612" 
d="M356 1053h287l-197 -1112q-18 -98 -59.5 -168t-103 -109t-132 -56.5t-157.5 -17.5h-141l43 240h94q152 0 178 156zM432 1489h291l-47 -256h-291z" />
    <glyph glyph-name="uni0459" unicode="&#x459;" horiz-adv-x="1898" 
d="M457 1053h886l-57 -310h246q153 0 255.5 -88.5t102.5 -242.5q0 -104 -38 -184t-104.5 -129t-152.5 -74t-186 -25h-537l144 813h-338l-41 -242q-38 -217 -107 -342.5t-172.5 -177t-263.5 -51.5h-49l47 274h39q115 0 165.5 75.5t84.5 264.5zM1249 524l-51 -286h219
q83 0 135 40.5t52 122.5q0 60 -40.5 91.5t-103.5 31.5h-211z" />
    <glyph glyph-name="uni045A" unicode="&#x45a;" horiz-adv-x="1880" 
d="M852 0l72 420h-412l-74 -420h-286l184 1053h287l-70 -394h414l67 394h287l-55 -310h247q153 0 256 -88.5t103 -242.5q0 -104 -38 -184t-104.5 -129t-152.5 -74t-186 -25h-539zM1229 524l-49 -286h219q83 0 134.5 40.5t51.5 122.5q0 60 -40 91.5t-103 31.5h-213z" />
    <glyph glyph-name="uni045B" unicode="&#x45b;" horiz-adv-x="1337" 
d="M457 1489h286l-28 -164h364l-30 -180h-365l-49 -277h53q54 60 122.5 90.5t166.5 30.5q156 0 241 -91.5t85 -240.5q0 -40 -13 -129l-92 -528h-287l88 483q11 57 11 99q0 73 -42.5 113t-127.5 40q-104 0 -178 -72t-97 -196l-84 -467h-286l202 1145h-149l31 180h149z" />
    <glyph glyph-name="uni045C" unicode="&#x45c;" horiz-adv-x="1257" 
d="M1214 1489l-292 -297h-258l239 297h311zM879 0l-138 420h-229l-74 -420h-286l184 1053h287l-70 -394h227l267 394h294l-344 -508l177 -545h-295z" />
    <glyph glyph-name="uni045E" unicode="&#x45e;" horiz-adv-x="1208" 
d="M471 -410h-293l316 525l-273 938h279l170 -561h53l342 561h293zM457 1470h221q-2 -4 -2 -16v-10q0 -44 35.5 -71t95.5 -27q139 0 170 124h223q-31 -145 -137.5 -226t-274.5 -81q-159 0 -246 72.5t-87 200.5v12q0 16 2 22z" />
    <glyph glyph-name="uni045F" unicode="&#x45f;" 
d="M457 -307l53 307h-358l184 1053h287l-142 -815h414l141 815h287l-182 -1053h-361l-55 -307h-268z" />
    <glyph glyph-name="uni0490" unicode="&#x490;" horiz-adv-x="1298" 
d="M682 1190l-207 -1190h-305l256 1462h741l56 307h307l-105 -579h-743z" />
    <glyph glyph-name="uni0491" unicode="&#x491;" horiz-adv-x="1056" 
d="M936 1329h270l-90 -516h-536l-144 -813h-284l184 1053h553z" />
    <glyph glyph-name="uni0492" unicode="&#x492;" horiz-adv-x="1359" 
d="M154 608l39 234h188l108 620h1047l-47 -272h-739l-64 -348h414l-41 -234h-412l-108 -608h-306l105 608h-184z" />
    <glyph glyph-name="uni0493" unicode="&#x493;" horiz-adv-x="1089" 
d="M109 354l34 205h154l86 494h827l-41 -240h-540l-45 -254h342l-37 -205h-342l-62 -354h-286l61 354h-151z" />
    <glyph glyph-name="uni049A" unicode="&#x49a;" horiz-adv-x="1572" 
d="M170 0l256 1462h305l-102 -571h336l366 571h320l-449 -710l133 -480h236l-111 -630h-297l62 358h-109l-176 614h-358l-107 -614h-305z" />
    <glyph glyph-name="uni049B" unicode="&#x49b;" horiz-adv-x="1314" 
d="M879 0l-138 420h-229l-74 -420h-286l184 1053h287l-70 -394h227l267 394h294l-344 -508l99 -307h196l-94 -531h-268l51 293h-102z" />
    <glyph glyph-name="uni04A2" unicode="&#x4a2;" horiz-adv-x="1679" 
d="M1370 1462h305l-209 -1190h207l-108 -630h-297l61 358h-215l107 612h-639l-107 -612h-305l256 1462h305l-102 -569h643z" />
    <glyph glyph-name="uni04A3" unicode="&#x4a3;" horiz-adv-x="1404" 
d="M1339 1053l-141 -815h184l-94 -531h-270l51 293h-201l74 420h-430l-74 -420h-286l184 1053h287l-70 -394h430l70 394h286z" />
    <glyph glyph-name="uni04AE" unicode="&#x4ae;" horiz-adv-x="1382" 
d="M807 879h57l412 583h330l-670 -942l-92 -520h-305l92 522l-342 940h307z" />
    <glyph glyph-name="uni04AF" unicode="&#x4af;" horiz-adv-x="1177" 
d="M319 -88l-90 1141h287l53 -887h88l357 887h299l-496 -1141h-104l-56 -322h-286l55 322h-107z" />
    <glyph glyph-name="uni04B0" unicode="&#x4b0;" horiz-adv-x="1382" 
d="M807 879h57l412 583h330l-553 -778h272l-41 -233h-360l-80 -451h-305l79 451h-366l41 233h278l-282 778h307z" />
    <glyph glyph-name="uni04B1" unicode="&#x4b1;" horiz-adv-x="1177" 
d="M109 -176l30 176h172l-82 1053h287l53 -887h88l357 887h299l-459 -1053h170l-31 -176h-295l-41 -234h-286l41 234h-303z" />
    <glyph glyph-name="uni04BA" unicode="&#x4ba;" horiz-adv-x="1439" 
d="M1329 0h-305l74 412q12 54 12 100q0 27 -5.5 47t-22 40t-44.5 32.5t-75.5 20t-112.5 7.5q-127 0 -264 -30l-111 -629h-305l256 1462h305l-98 -565q140 35 311 35q114 0 199.5 -15.5t138.5 -42.5t85.5 -66.5t45 -83t12.5 -97.5q0 -78 -14 -164z" />
    <glyph glyph-name="uni04BB" unicode="&#x4bb;" horiz-adv-x="1292" 
d="M416 1489h286l-96 -531h53q103 121 289 121q156 0 241 -91t85 -240q0 -48 -12 -130l-107 -618h-287l103 573q10 52 10 99q0 73 -42.5 113t-127.5 40q-104 0 -177.5 -71.5t-96.5 -196.5l-99 -557h-286z" />
    <glyph glyph-name="uni04D8" unicode="&#x4d8;" horiz-adv-x="1572" 
d="M252 862h1034q0 166 -85 262.5t-247 96.5q-115 0 -192 -46t-107 -124h-317q50 199 222.5 318.5t424.5 119.5q278 0 448.5 -173t170.5 -466q0 -139 -31 -268t-94.5 -240t-153.5 -193t-215.5 -129t-273.5 -47q-189 0 -329 84.5t-211 227.5t-71 323q0 121 27 254zM1257 612
h-714q0 -4 -1 -19t-1 -22q0 -145 83 -237t236 -92q155 0 254.5 98t142.5 272z" />
    <glyph glyph-name="uni04D9" unicode="&#x4d9;" horiz-adv-x="1208" 
d="M514 731h-291q37 163 169.5 255.5t334.5 92.5q135 0 244 -54.5t175 -163.5t66 -255q0 -185 -67 -327t-199.5 -224t-312.5 -82q-93 0 -174.5 30.5t-144.5 88t-99.5 148.5t-36.5 204q0 86 12 156h740q0 108 -58 174t-165 66q-146 0 -193 -109zM909 410h-456v-11
q0 -97 49.5 -154t146.5 -57q102 0 169 55.5t91 166.5z" />
    <glyph glyph-name="uni04E8" unicode="&#x4e8;" horiz-adv-x="1622" 
d="M1014 1489q184 0 328 -74t227.5 -219t83.5 -340q0 -145 -34 -277.5t-101 -243t-161 -191.5t-220 -126t-271 -45q-185 0 -329.5 74.5t-228 220t-83.5 340.5q0 182 54 341.5t153 280t249.5 190t332.5 69.5zM885 246q159 0 269 103t157 267h-774q2 -173 93 -271.5t255 -98.5
zM995 1217q-156 0 -265.5 -98t-156.5 -253h768q-8 163 -98 257t-248 94z" />
    <glyph glyph-name="uni04E9" unicode="&#x4e9;" horiz-adv-x="1273" 
d="M780 1079q137 0 249 -54.5t180.5 -163t68.5 -253.5q0 -183 -70.5 -326t-208 -226t-321.5 -83q-138 0 -248.5 54t-178 162.5t-67.5 254.5q0 185 69 327.5t205.5 225t321.5 82.5zM696 211q99 0 170 61t101 162h-500q4 -105 65 -164t164 -59zM762 840q-96 0 -166 -59
t-102 -156h497q-6 102 -67 158.5t-162 56.5z" />
    <glyph glyph-name="endash" unicode="&#x2013;" horiz-adv-x="1271" 
d="M1264 469h-1092l39 221h1089z" />
    <glyph glyph-name="emdash" unicode="&#x2014;" horiz-adv-x="1798" 
d="M1790 469h-1618l39 221h1616z" />
    <glyph glyph-name="quoteleft" unicode="&#x2018;" horiz-adv-x="600" 
d="M520 1171h139l-55 -311h-313l61 363l201 239h176l-201 -239z" />
    <glyph glyph-name="quoteright" unicode="&#x2019;" horiz-adv-x="600" 
d="M477 1151h-139l55 311h314l-62 -362l-201 -240h-176l201 240z" />
    <glyph glyph-name="quotesinglbase" unicode="&#x201a;" horiz-adv-x="600" 
d="M281 0h-140l56 311h313l-61 -362l-201 -240h-176l200 240z" />
    <glyph glyph-name="quotedblleft" unicode="&#x201c;" horiz-adv-x="1054" 
d="M520 1171h139l-55 -311h-313l61 363l201 239h176l-201 -239zM975 1171h139l-55 -311h-314l62 363l201 239h176l-201 -239z" />
    <glyph glyph-name="quotedblright" unicode="&#x201d;" horiz-adv-x="1054" 
d="M477 1151h-139l55 311h314l-62 -362l-201 -240h-176l201 240zM932 1151h-139l55 311h313l-61 -362l-201 -240h-176l201 240z" />
    <glyph glyph-name="quotedblbase" unicode="&#x201e;" horiz-adv-x="1054" 
d="M281 0h-140l56 311h313l-61 -362l-201 -240h-176l200 240zM735 0h-139l55 311h314l-62 -362l-201 -240h-176l201 240z" />
    <glyph glyph-name="dagger" unicode="&#x2020;" horiz-adv-x="1126" 
d="M580 827h-359l43 240h359l67 395h260l-69 -395h358l-43 -240h-358l-201 -1138h-260z" />
    <glyph glyph-name="daggerdbl" unicode="&#x2021;" horiz-adv-x="1126" 
d="M580 827h-359l43 240h359l67 395h260l-69 -395h358l-43 -240h-358l-88 -495h360l-43 -240h-358l-72 -403h-258l72 403h-359l43 240h357z" />
    <glyph glyph-name="bullet" unicode="&#x2022;" horiz-adv-x="851" 
d="M252 729q0 125 88 213t213 88t213 -88t88 -213t-88 -213t-213 -88t-213 88t-88 213z" />
    <glyph glyph-name="ellipsis" unicode="&#x2026;" horiz-adv-x="1716" 
d="M457 0h-316l56 311h313zM1016 0h-316l56 311h313zM1575 0h-315l53 311h315z" />
    <glyph glyph-name="perthousand" unicode="&#x2030;" horiz-adv-x="2613" 
d="M594 0h-207l1120 1434h207zM954 1147q0 -69 -14.5 -134.5t-45.5 -125t-75.5 -103.5t-108.5 -70t-141 -26q-138 0 -222.5 87.5t-84.5 228.5q0 88 23.5 168t68.5 146t119.5 105t169.5 39q142 0 226.5 -86.5t84.5 -228.5zM580 856q62 0 104.5 44.5t60 106t17.5 132.5
t-32 113t-95 42q-61 0 -103.5 -46t-59.5 -107t-17 -129q0 -71 31 -113.5t94 -42.5zM1839 432q0 -87 -24 -167.5t-69.5 -146.5t-121 -105.5t-170.5 -39.5q-138 0 -223.5 87.5t-85.5 228.5q0 87 24 167.5t69.5 146.5t120.5 105.5t169 39.5q140 0 225.5 -87t85.5 -229z
M1464 141q61 0 103.5 44.5t60 106.5t17.5 132q0 71 -31 113.5t-94 42.5q-61 0 -104 -46t-61 -108t-18 -129q0 -71 32 -113.5t95 -42.5zM2601 432q0 -88 -23.5 -168t-69 -146t-120.5 -105.5t-170 -39.5q-139 0 -224 87.5t-85 228.5q0 88 23.5 168t69 146t120.5 105.5
t170 39.5q140 0 224.5 -87t84.5 -229zM2228 141q61 0 103.5 44.5t59.5 106.5t17 132q0 71 -31 113.5t-96 42.5q-60 0 -102.5 -46t-60 -108t-17.5 -129q0 -71 32 -113.5t95 -42.5z" />
    <glyph glyph-name="guilsinglleft" unicode="&#x2039;" horiz-adv-x="821" 
d="M473 608l-8 -51l283 -367h-295l-254 324l28 168l355 309h311z" />
    <glyph glyph-name="guilsinglright" unicode="&#x203a;" horiz-adv-x="821" 
d="M559 575l8 52l-282 366h295l254 -323l-29 -168l-354 -309h-312z" />
    <glyph glyph-name="fraction" unicode="&#x2044;" horiz-adv-x="595" 
d="M-10 0h-205l1120 1434h203z" />
    <glyph glyph-name="Euro" unicode="&#x20ac;" horiz-adv-x="1443" 
d="M184 778l74 142h125q67 250 234 396t399 146q217 0 345 -118t152 -326h-290q-12 88 -73.5 135t-154.5 47q-115 0 -196.5 -74t-120.5 -206h438l-72 -142h-399q-13 -69 -16 -125h348l-70 -141h-278q12 -276 252 -276q103 0 173.5 57.5t100.5 161.5h295q-57 -214 -209 -348
t-375 -134q-124 0 -222.5 39.5t-163.5 112t-101.5 170.5t-42.5 217h-199l74 141h125q2 49 14 125h-166z" />
    <glyph glyph-name="uni20B4" unicode="&#x20b4;" horiz-adv-x="1462" 
d="M1096 393h297q-43 -200 -197 -310t-399 -110q-231 0 -373.5 111.5t-142.5 300.5q0 72 20 133h-147l24 141h1335l-26 -141h-889q-25 -52 -25 -110q0 -89 69 -135t171 -46q228 0 283 166zM1534 784h-1333l24 142h901q31 57 31 110q0 86 -63 129t-150 43q-204 0 -248 -153
h-293q39 192 182 299.5t373 107.5q213 0 346.5 -109t133.5 -296q0 -60 -23 -131h146z" />
    <glyph glyph-name="uni20B8" unicode="&#x20b8;" horiz-adv-x="1120" 
d="M213 1026l27 141h1056l-24 -141h-381l-180 -1026h-295l180 1026h-383zM260 1292l27 142h1056l-24 -142h-1059z" />
    <glyph glyph-name="uni20BD" unicode="&#x20bd;" horiz-adv-x="1476" 
d="M195 770h188l117 664h612q196 0 322.5 -108.5t126.5 -297.5q0 -232 -157.5 -369t-434.5 -137h-336l-23 -125h379l-22 -141h-381l-43 -256h-295l45 256h-189l25 141h188l23 125h-188zM750 1186l-72 -416h317q122 0 196.5 60.5t74.5 181.5q0 84 -59 129t-146 45h-311z" />
    <glyph glyph-name="uni2116" unicode="&#x2116;" horiz-adv-x="2361" 
d="M1376 1434h273l-250 -1434h-375l-358 973h-54l-170 -973h-272l252 1434h375l354 -973h53zM2329 414h-678l26 164h678zM2451 1147q0 -87 -24 -167.5t-69.5 -146.5t-121 -105.5t-170.5 -39.5q-139 0 -224 87.5t-85 228.5q0 87 24 167.5t69.5 146t120.5 105t169 39.5
q141 0 226 -87t85 -228zM2077 856q61 0 103.5 44.5t59.5 106.5t17 132q0 71 -31 113t-96 42q-60 0 -102.5 -45.5t-60 -107.5t-17.5 -129q0 -71 32 -113.5t95 -42.5z" />
    <glyph glyph-name="trademark" unicode="&#x2122;" horiz-adv-x="1757" 
d="M956 684l138 778h266l67 -307h31l172 307h268l-137 -778h-164l101 569h-33l-176 -309h-164l-70 309h-32l-101 -569h-166zM963 1462l-27 -157h-244l-110 -621h-176l110 621h-242l27 157h662z" />
    <glyph glyph-name="Omega" unicode="&#x2126;" horiz-adv-x="1581" 
d="M1343 293v-53h236v-240h-602v250q291 197 291 524q0 207 -103.5 325t-271.5 118q-169 0 -273 -118t-104 -325q0 -329 289 -524v-250h-600v240h235v53q-104 80 -170.5 209.5t-66.5 300.5q0 197 81 351.5t239 244.5t370 90t369 -90t237 -244t80 -352q0 -171 -65.5 -300
t-170.5 -210z" />
    <glyph glyph-name="arrowleft" unicode="&#x2190;" horiz-adv-x="1656" 
d="M684 1053h340l-354 -351v-53h950v-243h-950v-54l354 -352h-340l-526 528z" />
    <glyph glyph-name="arrowup" unicode="&#x2191;" horiz-adv-x="1376" 
d="M1337 936v-340l-352 354h-53v-950h-244v950h-53l-352 -354v340l528 526z" />
    <glyph glyph-name="arrowright" unicode="&#x2192;" horiz-adv-x="1656" 
d="M801 1053h340l526 -525l-526 -528h-340l354 352v54h-950v243h950v53z" />
    <glyph glyph-name="arrowdown" unicode="&#x2193;" horiz-adv-x="1376" 
d="M1337 866v-340l-526 -526l-528 526v340l352 -354h53v950h244v-950h53z" />
    <glyph glyph-name="uni2196" unicode="&#x2196;" horiz-adv-x="1443" 
d="M1075 1462l240 -239h-500l-37 -37l672 -672l-172 -174l-672 674l-39 -39v-500l-237 242v745h745z" />
    <glyph glyph-name="uni2197" unicode="&#x2197;" horiz-adv-x="1443" 
d="M389 1223l240 239h745v-745l-237 -242v500l-39 39l-672 -674l-172 174l672 672l-37 37h-500z" />
    <glyph glyph-name="uni2198" unicode="&#x2198;" horiz-adv-x="1443" 
d="M1284 240l-240 -240h-745v745l238 242v-500l38 -38l672 673l172 -174l-671 -672l36 -36h500z" />
    <glyph glyph-name="uni2199" unicode="&#x2199;" horiz-adv-x="1443" 
d="M616 0l-239 240h500l36 36l-671 672l172 174l671 -673l39 38v500l238 -242v-745h-746z" />
    <glyph glyph-name="partialdiff" unicode="&#x2202;" horiz-adv-x="1265" 
d="M723 211q125 0 187.5 81t62.5 212q0 130 -63 212.5t-187 82.5q-125 0 -189.5 -83t-64.5 -212q0 -130 64.5 -211.5t189.5 -81.5zM387 1489h342q72 -49 138 -107.5t140.5 -148.5t129 -188.5t90 -229.5t35.5 -270q0 -255 -142.5 -413.5t-400.5 -158.5q-245 0 -390 150
t-145 383q0 227 126 372.5t315 145.5q157 0 225 -68h57q-35 80 -96.5 159t-141.5 150.5t-141.5 119.5t-140.5 104z" />
    <glyph glyph-name="increment" unicode="&#x2206;" horiz-adv-x="1337" 
d="M874 1434l437 -1145v-289h-1172v289l436 1145h299zM1061 236v53l-307 815h-56l-307 -815v-53h670z" />
    <glyph glyph-name="product" unicode="&#x220f;" horiz-adv-x="1275" 
d="M1200 -410h-244v1647h-292v-1647h-244v1647h-195v225h1170v-225h-195v-1647z" />
    <glyph glyph-name="summation" unicode="&#x2211;" horiz-adv-x="1243" 
d="M565 268h701v-268h-1049v319l361 386v53l-347 385v319h998v-268h-654v-51l312 -352v-121l-322 -351v-51z" />
    <glyph glyph-name="minus" unicode="&#x2212;" horiz-adv-x="1376" 
d="M1309 471h-1053v244h1053v-244z" />
    <glyph glyph-name="radical" unicode="&#x221a;" horiz-adv-x="1366" 
d="M246 1053h239l215 -762h54l348 1143h391v-213h-217l-383 -1221h-336z" />
    <glyph glyph-name="infinity" unicode="&#x221e;" horiz-adv-x="1873" 
d="M1006 664h51q99 103 149 142q130 103 264 103q149 0 242.5 -90t93.5 -241t-93.5 -241.5t-242.5 -90.5q-53 0 -105 16t-92 38.5t-83 58.5t-70.5 64.5t-62.5 68.5h-51q-45 -51 -81.5 -86.5t-90.5 -76t-115.5 -62t-126.5 -21.5q-149 0 -242.5 90.5t-93.5 241.5t93.5 241
t242.5 90q39 0 77.5 -9.5t67 -19.5t66.5 -36t55.5 -38.5t55.5 -49t46 -45t46 -47.5zM942 578q-43 50 -72.5 81t-75.5 69.5t-95 57.5t-101 19q-98 0 -163.5 -60.5t-65.5 -166.5t65.5 -167t163.5 -61q52 0 101.5 19.5t94 56t77 70.5t71.5 82zM1120 578q39 -48 71.5 -82
t77 -70.5t94 -56t101.5 -19.5q98 0 164 61t66 167t-66 166.5t-164 60.5q-52 0 -101 -19t-95 -57.5t-75.5 -69.5t-72.5 -81z" />
    <glyph glyph-name="integral" unicode="&#x222b;" horiz-adv-x="940" 
d="M973 1489h100v-240h-84q-100 0 -148.5 -53.5t-68.5 -169.5l-176 -1001q-43 -236 -159 -335.5t-324 -99.5h-101v240h84q100 0 148.5 53.5t68.5 169.5l176 1002q40 234 158.5 334t325.5 100z" />
    <glyph glyph-name="approxequal" unicode="&#x2248;" horiz-adv-x="1374" 
d="M1110 991h197q0 -183 -78 -272.5t-217 -89.5q-64 0 -132.5 29.5t-117.5 64.5t-107 64.5t-102 29.5q-102 0 -102 -147h-195q0 183 77.5 272.5t215.5 89.5q63 0 131.5 -29.5t118.5 -64.5t107.5 -64.5t99.5 -29.5q104 0 104 147zM1110 532h197q0 -183 -78 -272.5t-217 -89.5
q-64 0 -132.5 29.5t-117.5 64.5t-107 64.5t-102 29.5q-102 0 -102 -147h-195q0 183 77.5 272.5t215.5 89.5q63 0 131.5 -29.5t118.5 -64.5t107.5 -64.5t99.5 -29.5q104 0 104 147z" />
    <glyph glyph-name="notequal" unicode="&#x2260;" horiz-adv-x="1376" 
d="M1303 502v-244h-613l-151 -240h-254l151 240h-186v244h344l115 180h-459v244h614l154 239h250l-152 -239h187v-244h-342l-115 -180h457z" />
    <glyph glyph-name="lessequal" unicode="&#x2264;" horiz-adv-x="1378" 
d="M1298 309l-1054 320v245l1054 291v-245l-618 -156v-51l618 -156v-248zM244 0v244h1054v-244h-1054z" />
    <glyph glyph-name="greaterequal" unicode="&#x2265;" horiz-adv-x="1378" 
d="M1311 629l-1055 -320v248l618 156v51l-618 156v245l1055 -291v-245zM1311 244v-244h-1055v244h1055z" />
    <glyph glyph-name="lozenge" unicode="&#x25ca;" horiz-adv-x="1175" 
d="M840 1462l354 -731l-354 -731h-250l-357 731l357 731h250zM741 328l183 403l-183 404h-53l-182 -404l182 -403h53z" />
    <glyph glyph-name="commaaccent" unicode="&#xf6c3;" horiz-adv-x="456" 
d="M160 -475h-166l162 127l8 43h-123l35 194h289l-43 -237z" />
    <glyph glyph-name="uniFEFF" unicode="&#xfeff;" horiz-adv-x="0" 
 />
    <glyph glyph-name="eight.numr" horiz-adv-x="784" 
d="M895 1272q0 -111 -107 -172l-6 -33q36 -22 61 -59.5t25 -87.5q0 -81 -48.5 -140t-122.5 -85.5t-162 -26.5q-131 0 -215 65t-84 164q0 140 139 193l4 32q-25 19 -42.5 53t-17.5 76q0 110 88.5 168t215.5 58q121 0 196.5 -59.5t75.5 -145.5zM547 817q62 0 98.5 29t36.5 80
q0 43 -35.5 70.5t-89.5 27.5q-60 0 -97.5 -30t-37.5 -81q0 -42 35.5 -69t89.5 -27zM602 1153q55 0 86 24.5t31 71.5q0 35 -30.5 60.5t-74.5 25.5q-54 0 -85 -25.5t-31 -72.5q0 -37 28.5 -60.5t75.5 -23.5z" />
    <glyph glyph-name="nine.numr" horiz-adv-x="782" 
d="M506 938q-104 0 -167 63t-63 164q0 140 93 226t237 86q125 0 208 -77.5t83 -223.5q0 -73 -14 -143.5t-45 -137t-75 -116.5t-109.5 -80.5t-143.5 -30.5q-111 0 -183.5 61t-76.5 160h178q5 -32 29 -52t65 -20q61 0 110 47t66 127h-39q-57 -53 -153 -53zM596 1325
q-62 0 -97.5 -39t-35.5 -102q0 -44 30 -73.5t80 -29.5q62 0 99 37.5t37 100.5q0 48 -30 77t-83 29z" />
    <glyph glyph-name="zero.dnom" horiz-adv-x="802" 
d="M516 795q123 0 205 -76.5t82 -224.5q0 -220 -105 -364t-276 -144q-124 0 -205.5 76t-81.5 223q0 144 46.5 260t134 183t200.5 67zM430 152q47 0 83.5 32t58 84t32 109.5t10.5 114.5q0 67 -29 102t-81 35q-47 0 -84.5 -32.5t-58.5 -84.5t-31.5 -109.5t-10.5 -115.5
q0 -66 29.5 -100.5t81.5 -34.5z" />
    <glyph glyph-name="one.dnom" horiz-adv-x="686" 
d="M471 160h174l-29 -160h-542l28 160h183l75 426h-38l-158 -88l29 174l204 108h185z" />
    <glyph glyph-name="two.dnom" horiz-adv-x="751" 
d="M709 160l-29 -160h-608l34 197l293 165q156 89 156 183q0 40 -27.5 62t-70.5 22q-107 0 -121 -105h-184q20 131 101.5 201t215.5 70q120 0 200.5 -62.5t80.5 -171.5q0 -42 -14 -79.5t-33 -64t-53.5 -55t-60 -45t-67.5 -41.5l-133 -77l-8 -39h328z" />
    <glyph glyph-name="three.dnom" horiz-adv-x="763" 
d="M739 588l-155 -78l-6 -31q151 -41 151 -207q0 -125 -93.5 -205.5t-236.5 -80.5q-139 0 -221 72.5t-82 195.5h180q4 -51 40 -76.5t90 -25.5q63 0 103 31.5t40 84.5q0 44 -32.5 71.5t-86.5 27.5q-40 0 -74 -9l27 154l133 76l6 33h-313l29 159h534z" />
    <glyph glyph-name="four.dnom" horiz-adv-x="776" 
d="M666 315h94l-27 -159h-96l-27 -156h-178l27 156h-373l33 188l411 436h218zM295 315h197l45 254h-37l-199 -217z" />
    <glyph glyph-name="seven.numr" horiz-adv-x="681" 
d="M317 1462h562l-35 -200l-404 -580h-194l397 580l6 41h-360z" />
    <glyph glyph-name="six.dnom" horiz-adv-x="782" 
d="M526 524q104 0 167 -63t63 -164q0 -139 -93 -225t-237 -86q-125 0 -208 77.5t-83 223.5q0 73 14 143.5t45 137t75 116.5t109.5 80.5t143.5 30.5q111 0 183.5 -61.5t76.5 -160.5h-178q-5 32 -29 52t-65 20q-61 0 -110 -47t-66 -127h39q57 53 153 53zM436 137
q62 0 97.5 39.5t35.5 102.5q0 44 -30 73t-80 29q-62 0 -98.5 -37t-36.5 -100q0 -48 29.5 -77.5t82.5 -29.5z" />
    <glyph glyph-name="seven.dnom" horiz-adv-x="681" 
d="M197 780h561l-35 -200l-404 -580h-194l397 580l6 41h-360z" />
    <glyph glyph-name="eight.dnom" horiz-adv-x="784" 
d="M774 590q0 -111 -106 -172l-6 -33q36 -22 61 -59.5t25 -87.5q0 -81 -49 -140t-123 -85.5t-162 -26.5q-131 0 -215 65t-84 164q0 140 139 193l4 32q-25 19 -42 53t-17 76q0 110 88 168t215 58q121 0 196.5 -59.5t75.5 -145.5zM426 135q62 0 98.5 29t36.5 80
q0 43 -35.5 70.5t-89.5 27.5q-60 0 -97.5 -30t-37.5 -81q0 -42 35.5 -69t89.5 -27zM481 471q55 0 86 24.5t31 71.5q0 36 -30 61t-74 25q-55 0 -86 -25.5t-31 -72.5q0 -37 28.5 -60.5t75.5 -23.5z" />
    <glyph glyph-name="nine.dnom" horiz-adv-x="782" 
d="M389 256q-103 0 -166 63t-63 164q0 140 92.5 226t236.5 86q125 0 208 -77.5t83 -223.5q0 -73 -14 -143.5t-45 -137t-75 -116.5t-109.5 -80.5t-143.5 -30.5q-111 0 -183.5 61t-76.5 160h178q5 -32 29.5 -52t65.5 -20q61 0 110 47t66 127h-39q-57 -53 -154 -53zM479 643
q-62 0 -97.5 -39t-35.5 -102q0 -44 30.5 -73.5t80.5 -29.5q62 0 98.5 37.5t36.5 100.5q0 48 -30 77t-83 29z" />
    <glyph glyph-name="zero.onum" horiz-adv-x="1302" 
d="M797 1079q142 0 256.5 -54.5t184 -163.5t69.5 -255q0 -181 -72.5 -323.5t-213.5 -226t-329 -83.5q-142 0 -256 55t-183 164.5t-69 256.5q0 182 71.5 323.5t212 224t329.5 82.5zM711 225q142 0 225.5 106.5t83.5 258.5q0 111 -65.5 174t-176.5 63q-94 0 -165 -51.5
t-106.5 -132.5t-35.5 -178q0 -112 64.5 -176t175.5 -64z" />
    <glyph glyph-name="one.onum" horiz-adv-x="1052" 
d="M127 0l41 246h291l92 524h-53l-262 -152l49 281l262 154h342l-141 -807h258l-41 -246h-838z" />
    <glyph glyph-name="two.onum" horiz-adv-x="1134" 
d="M1094 246l-43 -246h-975l49 283l481 211q45 20 72 33.5t59.5 34t50 40t29.5 46.5t12 59q0 58 -43 91t-120 33q-89 0 -144 -44t-65 -134h-289q12 184 153 305t363 121q206 0 319 -93.5t113 -231.5q0 -65 -18 -119.5t-46.5 -93t-74.5 -73.5t-91 -58.5t-108 -49.5l-147 -63
l-8 -51h471z" />
    <glyph glyph-name="three.onum" horiz-adv-x="1236" 
d="M1174 756l-312 -209l-8 -51q144 -26 216.5 -123.5t72.5 -253.5q0 -228 -160 -375t-410 -147q-237 0 -375.5 125.5t-138.5 336.5h287q10 -100 75 -155.5t169 -55.5q116 0 191 76.5t75 184.5q0 104 -63 160.5t-170 56.5q-65 0 -123 -15l45 242l305 203l10 51h-594l41 246
h918z" />
    <glyph glyph-name="four.onum" horiz-adv-x="1294" 
d="M1079 246h181l-43 -246h-181l-67 -381h-281l66 381h-684l53 299l756 754h342zM399 246h410l88 495h-53l-436 -442z" />
    <glyph glyph-name="five.onum" horiz-adv-x="1277" 
d="M1223 807h-654l-71 -295h53q94 86 248 86q182 0 291.5 -115.5t109.5 -314.5q0 -128 -46 -237t-123 -181t-178 -112.5t-212 -40.5q-124 0 -223 36t-162.5 99t-98 146.5t-36.5 180.5h287q8 -99 69.5 -155t169.5 -56q113 0 189.5 82.5t76.5 214.5q0 106 -62 166t-163 60
q-134 0 -229 -109h-273l199 791h879z" />
    <glyph glyph-name="six.onum" 
d="M1343 1083h-288q-26 140 -191 140q-118 0 -206 -100t-117 -275h53q119 104 276 104q181 0 299.5 -117.5t118.5 -304.5q0 -111 -39.5 -212t-110 -177.5t-175.5 -122t-228 -45.5q-232 0 -373 141.5t-141 417.5q0 183 43 349t122.5 296t204.5 207.5t277 77.5q91 0 167 -22
t129 -58.5t91.5 -86.5t59.5 -102.5t28 -109.5zM1001 510q0 100 -63 156.5t-164 56.5q-115 0 -188.5 -79.5t-73.5 -199.5q0 -109 61.5 -169t171.5 -60q120 0 188 86t68 209z" />
    <glyph glyph-name="seven.onum" horiz-adv-x="1169" 
d="M1200 750l-756 -1131h-305l756 1131l10 53h-669l45 250h970z" />
    <glyph glyph-name="eight.onum" horiz-adv-x="1306" 
d="M1116 764l-8 -51q77 -48 122.5 -116t45.5 -175q0 -196 -152 -322.5t-411 -126.5q-257 0 -399 113.5t-142 296.5q0 76 24.5 139.5t66.5 107.5t85 72.5t92 49.5l13 51q-57 39 -93 103.5t-36 150.5q0 171 140.5 288t375.5 117q228 0 359.5 -105.5t131.5 -269.5
q0 -120 -63.5 -205.5t-151.5 -117.5zM602 1034q0 -86 63 -133t150 -47q102 0 169 54t67 149q0 82 -64 131t-151 49q-99 0 -166.5 -56.5t-67.5 -146.5zM467 416q0 -93 74 -147t178 -54q119 0 193.5 60t74.5 163q0 98 -74 152.5t-180 54.5q-118 0 -192 -61t-74 -168z" />
    <glyph glyph-name="nine.onum" horiz-adv-x="1284" 
d="M123 -25h289q26 -139 190 -139q118 0 206.5 97t117.5 272h-54q-109 -105 -276 -105q-181 0 -299.5 117.5t-118.5 304.5q0 110 39.5 210.5t109.5 177.5t175.5 123t228.5 46q232 0 373 -141.5t141 -417.5q0 -121 -19 -235.5t-55 -217.5t-92 -189t-126.5 -148.5t-161 -97.5
t-193.5 -35q-112 0 -202 33t-145 88.5t-87 120t-41 136.5zM465 543q0 -100 63 -156.5t164 -56.5q115 0 188.5 79.5t73.5 198.5q0 109 -61.5 169.5t-171.5 60.5q-121 0 -188.5 -86t-67.5 -209z" />
    <glyph glyph-name="zero.tnum" horiz-adv-x="1308" 
d="M229 520q0 269 79 482.5t229 336.5t346 123q78 0 149 -20t133 -63t107.5 -106t71.5 -154.5t26 -203.5q0 -269 -79 -482.5t-228 -336.5t-344 -123q-100 0 -186.5 32.5t-155.5 96.5t-108.5 171.5t-39.5 246.5zM524 510q0 -61 4 -78l473 715q-53 53 -133 53
q-71 0 -130.5 -43.5t-98 -114t-65.5 -162.5t-38.5 -185t-11.5 -185zM1075 926q0 38 -6 75l-473 -714q51 -51 135 -51q71 0 130.5 43.5t98 114t65.5 162.5t38.5 185t11.5 185z" />
    <glyph glyph-name="one.tnum" 
d="M129 0l45 256h410l155 883h-51l-297 -176l51 292l297 179h346l-206 -1178h333l-45 -256h-1038z" />
    <glyph glyph-name="two.tnum" 
d="M553 1001h-295q37 222 182 341.5t373 119.5q203 0 332 -108.5t129 -294.5q0 -79 -23.5 -152t-59 -128.5t-90.5 -111t-104 -93.5t-114 -82l-156 -109l-106 -74l-9 -53h598l-45 -256h-1048l51 307l199 133l323 215q142 91 216.5 178t74.5 195q0 87 -55.5 129.5t-137.5 42.5
q-96 0 -157 -49t-78 -150z" />
    <glyph glyph-name="three.tnum" 
d="M1276 1133l-313 -207l-9 -52q145 -26 220 -124.5t75 -253.5q0 -227 -162 -375t-411 -148q-238 0 -378 126t-140 337h295q7 -98 70.5 -149t168.5 -51q117 0 189.5 71.5t72.5 179.5q0 103 -61.5 158t-167.5 55q-65 0 -123 -12l43 242l307 203l11 53h-596l43 248h917z" />
    <glyph glyph-name="four.tnum" 
d="M1137 563h178l-47 -256h-176l-54 -307h-284l53 307h-676l55 309l762 818h342zM453 563h409l94 537h-53l-440 -484z" />
    <glyph glyph-name="five.tnum" 
d="M1305 1186h-654l-71 -295h53q94 86 246 86q182 0 293.5 -115.5t111.5 -314.5q0 -129 -46 -238.5t-124 -182t-180 -113t-213 -40.5q-124 0 -224.5 36t-165.5 99t-99.5 147t-34.5 181h295q4 -97 66 -148.5t169 -51.5q111 0 186.5 77.5t75.5 208.5q0 107 -60.5 165
t-160.5 58q-71 0 -125 -25.5t-102 -80.5h-277l199 795h885z" />
    <glyph glyph-name="six.tnum" 
d="M1352 1083h-295q-26 136 -191 136q-114 0 -204.5 -98t-118.5 -271h53q116 102 276 102q180 0 301 -118t121 -304q0 -111 -40 -212t-110.5 -177.5t-176.5 -122t-230 -45.5q-113 0 -206.5 34t-163.5 101.5t-109 175.5t-39 248q0 145 27 281.5t82 254t132 205.5t182.5 138.5
t227.5 50.5q113 0 203.5 -33t147 -88.5t89.5 -121t42 -136.5zM999 510q0 98 -61.5 153.5t-161.5 55.5q-115 0 -186.5 -76.5t-71.5 -198.5q0 -106 60 -165.5t170 -59.5q121 0 186 85t65 206z" />
    <glyph glyph-name="seven.tnum" 
d="M1317 1126l-752 -1126h-309l752 1126l12 52h-666l45 256h973z" />
    <glyph glyph-name="eight.tnum" 
d="M1130 764l-10 -51q77 -48 122.5 -116t45.5 -175q0 -195 -153.5 -322t-411.5 -127q-256 0 -399.5 114t-143.5 296q0 76 24.5 139.5t66.5 107.5t85 72.5t93 49.5l10 51q-56 40 -92.5 104t-36.5 150q0 82 36.5 155.5t102.5 129t164.5 88t216.5 32.5q228 0 362 -105.5
t134 -269.5q0 -120 -64 -205t-152 -118zM616 1036q0 -86 60.5 -133t148.5 -47q101 0 166.5 54.5t65.5 148.5q0 82 -62 129t-149 47q-100 0 -165 -54t-65 -145zM481 416q0 -90 72.5 -143.5t175.5 -53.5q119 0 191.5 59t72.5 160q0 99 -72 153t-178 54q-118 0 -190 -61
t-72 -168z" />
    <glyph glyph-name="nine.tnum" 
d="M205 352h295q26 -135 190 -135q114 0 205 98t119 271h-53q-117 -103 -277 -103q-180 0 -301 118t-121 304q0 111 40 212t110.5 177.5t176.5 122t230 45.5q113 0 206.5 -34t163.5 -101.5t109 -175.5t39 -248q0 -145 -27 -281.5t-82 -254t-132 -205.5t-182.5 -138.5
t-227.5 -50.5q-91 0 -168 22t-130.5 59t-93 86.5t-61 102.5t-28.5 109zM557 926q0 -98 61.5 -153.5t161.5 -55.5q115 0 186.5 76t71.5 198q0 107 -60 166.5t-169 59.5q-121 0 -186.5 -85t-65.5 -206z" />
    <glyph glyph-name="dollar.tnum" 
d="M156 446h288q14 -165 170 -206l68 391l-94 28q-145 43 -217 136t-72 225q0 195 142 318.5t374 123.5h14l31 172h131l-33 -186q167 -35 265.5 -139t105.5 -271h-289q-21 124 -127 160l-61 -344l98 -31q316 -94 316 -389q0 -203 -155 -332t-394 -129h-21l-30 -174h-129
l32 187q-190 31 -298.5 148.5t-114.5 311.5zM973 414q0 69 -42.5 115t-125.5 63l-64 -369q88 -5 160 45.5t72 145.5zM590 1040q0 -58 29 -89.5t88 -51.5l22 -8l57 321q-84 0 -140 -47t-56 -125z" />
    <glyph glyph-name="Euro.tnum" 
d="M147 778l72 142h96q69 244 227.5 393t381.5 149q229 0 349.5 -120t133.5 -324h-291q-5 87 -55 134.5t-141 47.5q-106 0 -183.5 -75t-122.5 -205h402l-72 -142h-369q-13 -68 -16 -125h318l-72 -141h-246q7 -145 62.5 -210.5t160.5 -65.5q98 0 164.5 62t95.5 157h289
q-29 -105 -77 -190.5t-115.5 -152t-160.5 -103t-204 -36.5q-223 0 -359.5 143t-148.5 396h-168l72 141h98q2 39 15 125h-136z" />
    <glyph glyph-name="sterling.tnum" 
d="M545 256h725l-45 -256h-1127l45 256h35q68 0 103.5 44.5t54.5 131.5l22 127h-159l41 229h159l37 222q36 209 160 330.5t340 121.5q194 0 310 -102.5t116 -267.5q0 -36 -6 -74h-293q4 36 4 55q0 64 -38.5 95.5t-106.5 31.5q-161 0 -191 -192l-37 -220h422l-41 -229h-422
l-18 -96q-11 -58 -28.5 -91.5t-53.5 -62.5z" />
    <glyph glyph-name="yen.tnum" 
d="M281 649l26 142h172l-178 643h285l159 -643h58l389 643h305l-407 -643h174l-27 -142h-238l-79 -125h294l-22 -141h-336l-68 -383h-288l67 383h-331l22 141h297l-37 125h-237z" />
    <glyph glyph-name="uni20BD.tnum" 
d="M184 770h168l119 664h494q195 0 321.5 -108t126.5 -298q0 -232 -157.5 -369t-434.5 -137h-219l-20 -125h374l-22 -141h-379l-43 -256h-295l45 256h-168l25 141h170l20 125h-168zM719 1186l-72 -416h201q122 0 196 60.5t74 181.5q0 84 -59 129t-146 45h-194z" />
    <glyph glyph-name="uni20B4.tnum" 
d="M154 518l26 141h1155l-24 -141h-752q-29 -66 -29 -127q0 -75 52.5 -119.5t144.5 -44.5q89 0 148 44.5t83 121.5h299q-36 -195 -176 -307.5t-364 -112.5q-229 0 -354 112.5t-125 291.5q0 67 26 141h-110zM227 926h750q37 53 37 125q0 71 -47.5 114t-120.5 43
q-157 0 -203 -153h-293q33 187 166.5 297t341.5 110q213 0 331 -111t118 -280q0 -69 -29 -145h104l-26 -142h-1155z" />
    <glyph glyph-name="uni20B8.tnum" 
d="M297 1026l22 141h1063l-24 -141h-385l-180 -1026h-293l180 1026h-383zM344 1292l23 142h1063l-25 -142h-1061z" />
    <glyph glyph-name="cent.tnum" 
d="M934 354h285q-35 -173 -166.5 -277t-337.5 -104h-13l-24 -137h-107l25 150q-166 30 -268.5 150t-102.5 306q0 180 64.5 320.5t193 225t305.5 89.5l25 140h109l-27 -146q150 -20 248 -116t110 -238h-282q-8 45 -38.5 77.5t-78.5 39.5l-111 -623q71 1 121.5 40t69.5 103z
M512 455q0 -89 33 -149.5t94 -80.5l106 611q-74 -8 -128 -67t-79.5 -141t-25.5 -173z" />
    <glyph glyph-name="circumflex.cap" horiz-adv-x="851" 
d="M295 1571l270 264h246l178 -264h-217l-76 112h-53l-117 -112h-231z" />
    <glyph glyph-name="dieresis.cap" horiz-adv-x="802" 
d="M543 1602h-242l39 233h242zM946 1602h-241l38 233h242z" />
    <glyph glyph-name="acute.cap" horiz-adv-x="663" 
d="M848 1835l-285 -264h-264l233 264h316z" />
    <glyph glyph-name="grave.cap" horiz-adv-x="663" 
d="M545 1571l-195 264h303l144 -264h-252z" />
    <glyph glyph-name="ring.cap" horiz-adv-x="645" 
d="M561 1982q102 0 172 -68t70 -167t-70 -167.5t-172 -68.5q-99 0 -170.5 69t-71.5 167t71.5 166.5t170.5 68.5zM561 1642q43 0 73 31t30 74t-30 73.5t-73 30.5t-72.5 -30.5t-29.5 -73.5t30 -74t72 -31z" />
    <glyph glyph-name="caron.cap" horiz-adv-x="851" 
d="M520 1571l-180 264h223l76 -113h53l117 113h225l-268 -264h-246z" />
    <glyph glyph-name="dotaccent.cap" horiz-adv-x="448" 
d="M592 1602h-291l39 233h293z" />
    <glyph glyph-name="breve.cap" horiz-adv-x="751" 
d="M340 1835h172q-2 -2 -2 -14v-6q0 -93 106 -93q56 0 94 28.5t50 84.5h172q-27 -126 -114.5 -195t-227.5 -69q-122 0 -189 57t-67 156q0 30 6 51z" />
    <glyph glyph-name="hungarumlaut.cap" horiz-adv-x="970" 
d="M766 1835l-244 -264h-227l194 264h277zM1143 1835l-244 -264h-225l194 264h275z" />
    <glyph glyph-name="tilde.cap" horiz-adv-x="854" 
d="M961 1835h129q-21 -125 -84 -195.5t-166 -70.5q-44 0 -83.5 15.5t-63.5 34.5t-55 34.5t-60 15.5q-73 0 -89 -98h-129q50 266 250 266q55 0 103 -24.5t87 -49t72 -24.5q36 0 58.5 25.5t30.5 70.5z" />
    <glyph glyph-name="macron.cap" horiz-adv-x="778" 
d="M924 1628h-617l27 168h618z" />
    <glyph glyph-name="cyrbreve" horiz-adv-x="927" 
d="M352 1470h221q-2 -4 -2 -16v-10q0 -44 35.5 -71t95.5 -27q139 0 170 124h224q-31 -145 -137.5 -226t-274.5 -81q-159 0 -246.5 72.5t-87.5 200.5v12q0 16 2 22z" />
    <glyph glyph-name="cyrbreve.cap" horiz-adv-x="931" 
d="M891 1851h227q-33 -150 -143 -232.5t-285 -82.5q-163 0 -254.5 74.5t-91.5 204.5q0 22 2 36h219q0 -58 36 -92.5t110 -34.5q75 0 120.5 35t59.5 92z" />
    <glyph glyph-name="hyphen.case" horiz-adv-x="813" 
d="M827 629h-620l43 248h620z" />
    <glyph glyph-name="endash.case" horiz-adv-x="1271" 
d="M1294 643h-1091l39 221h1089z" />
    <glyph glyph-name="emdash.case" horiz-adv-x="1798" 
d="M1821 643h-1618l39 221h1616z" />
    <glyph glyph-name="emdash.ss02.case" horiz-adv-x="2957" 
d="M2980 643h-2777l37 221h2777z" />
    <glyph glyph-name="bracketleft.case" horiz-adv-x="776" 
d="M635 -190h-529l324 1843h531l-39 -211h-281l-252 -1422h283z" />
    <glyph glyph-name="bracketright.case" horiz-adv-x="776" 
d="M397 1653h529l-324 -1843h-530l39 210h280l252 1422h-283z" />
    <glyph glyph-name="braceleft.case" horiz-adv-x="874" 
d="M549 758l-8 -53q102 -40 102 -168q0 -49 -8 -80l-39 -219q-10 -42 -10 -88q0 -69 36 -99.5t115 -30.5h72l-35 -210h-92q-162 0 -257 74.5t-95 207.5q0 65 10 107l39 217q8 36 8 80q0 62 -28.5 93.5t-92.5 31.5h-47l41 221h47q79 0 120.5 48t59.5 146l48 264
q31 175 140 264t306 89h117l-37 -211h-82q-94 0 -142 -51.5t-69 -165.5l-43 -248q-31 -175 -176 -219z" />
    <glyph glyph-name="braceright.case" horiz-adv-x="874" 
d="M590 705l8 53q-102 40 -102 168q0 49 8 80l39 219q10 42 10 88q0 68 -36.5 98.5t-115.5 30.5h-71l35 211h92q162 0 257 -75t95 -208q0 -64 -10 -106l-39 -217q-8 -36 -8 -80q0 -62 28 -93.5t92 -31.5h48l-41 -221h-48q-79 0 -120.5 -48.5t-59.5 -146.5l-47 -264
q-31 -175 -139.5 -263.5t-306.5 -88.5h-117l37 210h82q94 0 142 52t69 166l43 247q31 176 176 220z" />
    <glyph glyph-name="parenleft.case" horiz-adv-x="681" 
d="M643 -190h-246q-190 289 -190 712q0 328 133.5 616.5t372.5 514.5h264q-97 -110 -170 -204t-142 -208t-113 -223.5t-70.5 -239.5t-26.5 -268q0 -355 188 -700z" />
    <glyph glyph-name="parenright.case" horiz-adv-x="681" 
d="M293 1653h246q190 -289 190 -713q0 -328 -133.5 -616t-372.5 -514h-264q98 110 170 204t142 207.5t113.5 223t70 239.5t26.5 268q0 356 -188 701z" />
    <glyph glyph-name="guillemotright.case" horiz-adv-x="1351" 
d="M1114 711l8 51l-282 364h295l254 -321l-29 -168l-356 -311h-312zM584 711l8 51l-283 364h295l254 -321l-29 -168l-356 -311h-311z" />
    <glyph glyph-name="guillemotleft.case" horiz-adv-x="1351" 
d="M498 743l-9 -51l283 -366h-295l-254 323l29 168l354 309h312zM1026 743l-8 -51l282 -366h-294l-254 323l28 168l355 309h311z" />
    <glyph glyph-name="guilsinglright.case" horiz-adv-x="821" 
d="M584 711l8 51l-283 366h295l254 -323l-29 -168l-354 -309h-311z" />
    <glyph glyph-name="guilsinglleft.case" horiz-adv-x="821" 
d="M498 743l-9 -51l283 -366h-295l-254 323l29 168l354 309h312z" />
    <glyph glyph-name="exclamdown.case" horiz-adv-x="706" 
d="M492 0h-289l104 594l129 428h182l-24 -428zM446 1462h314l-53 -311h-316z" />
    <glyph glyph-name="questiondown.case" horiz-adv-x="1175" 
d="M647 -27q-219 0 -346 108t-127 269q0 65 17.5 121t44 97t69.5 80t82.5 65.5t95.5 58.5q86 50 123.5 92t50.5 107l11 51h288l-10 -53q-24 -120 -78.5 -190.5t-171.5 -143.5q-15 -10 -50.5 -32.5t-49.5 -32t-40 -29t-36.5 -33.5t-24.5 -34.5t-19 -43t-5 -49.5
q0 -68 52 -111t139 -43q99 0 161 56t72 159h291q-13 -99 -51.5 -182.5t-103 -148.5t-163 -101.5t-221.5 -36.5zM729 1462h311l-53 -311h-311z" />
    <glyph glyph-name="a.ss03" horiz-adv-x="1308" 
d="M184 436q0 124 35 239t98.5 205.5t162.5 144.5t218 54q98 0 173 -36t112 -99h53l21 109h286l-186 -1053h-276l18 96h-53q-43 -57 -112.5 -90t-158.5 -33q-184 0 -287.5 129.5t-103.5 333.5zM680 211q72 0 129.5 34.5t92 91t53 123t18.5 136.5q0 116 -56 180t-159 64
q-122 0 -201.5 -110t-79.5 -275q0 -114 51 -179t152 -65z" />
    <glyph glyph-name="aacute.ss03" horiz-adv-x="1308" 
d="M1253 1489l-292 -297h-259l240 297h311zM184 436q0 124 35 239t98.5 205.5t162.5 144.5t218 54q98 0 173 -36t112 -99h53l21 109h286l-186 -1053h-276l18 96h-53q-43 -57 -112.5 -90t-158.5 -33q-184 0 -287.5 129.5t-103.5 333.5zM680 211q72 0 129.5 34.5t92 91t53 123
t18.5 136.5q0 116 -56 180t-159 64q-122 0 -201.5 -110t-79.5 -275q0 -114 51 -179t152 -65z" />
    <glyph glyph-name="agrave.ss03" horiz-adv-x="1308" 
d="M788 1192l-186 297h297l135 -297h-246zM184 436q0 124 35 239t98.5 205.5t162.5 144.5t218 54q98 0 173 -36t112 -99h53l21 109h286l-186 -1053h-276l18 96h-53q-43 -57 -112.5 -90t-158.5 -33q-184 0 -287.5 129.5t-103.5 333.5zM680 211q72 0 129.5 34.5t92 91t53 123
t18.5 136.5q0 116 -56 180t-159 64q-122 0 -201.5 -110t-79.5 -275q0 -114 51 -179t152 -65z" />
    <glyph glyph-name="acircumflex.ss03" horiz-adv-x="1308" 
d="M184 436q0 124 35 239t98.5 205.5t162.5 144.5t218 54q98 0 173 -36t112 -99h53l21 109h286l-186 -1053h-276l18 96h-53q-43 -57 -112.5 -90t-158.5 -33q-184 0 -287.5 129.5t-103.5 333.5zM680 211q72 0 129.5 34.5t92 91t53 123t18.5 136.5q0 116 -56 180t-159 64
q-122 0 -201.5 -110t-79.5 -275q0 -114 51 -179t152 -65zM1053 1489l170 -297h-205l-80 135h-53l-131 -135h-224l279 297h244z" />
    <glyph glyph-name="adieresis.ss03" horiz-adv-x="1308" 
d="M184 436q0 124 35 239t98.5 205.5t162.5 144.5t218 54q98 0 173 -36t112 -99h53l21 109h286l-186 -1053h-276l18 96h-53q-43 -57 -112.5 -90t-158.5 -33q-184 0 -287.5 129.5t-103.5 333.5zM680 211q72 0 129.5 34.5t92 91t53 123t18.5 136.5q0 116 -56 180t-159 64
q-122 0 -201.5 -110t-79.5 -275q0 -114 51 -179t152 -65zM797 1233h-240l45 256h242zM1200 1233h-242l48 256h239z" />
    <glyph glyph-name="atilde.ss03" horiz-adv-x="1308" 
d="M1120 1483h142q-52 -287 -248 -287q-43 0 -81.5 18.5t-62.5 40t-54 40t-58 18.5q-34 0 -58 -33t-32 -84h-140q51 287 246 287q43 0 81.5 -18.5t62.5 -40t54 -40t58 -18.5q65 0 90 117zM184 436q0 124 35 239t98.5 205.5t162.5 144.5t218 54q98 0 173 -36t112 -99h53
l21 109h286l-186 -1053h-276l18 96h-53q-43 -57 -112.5 -90t-158.5 -33q-184 0 -287.5 129.5t-103.5 333.5zM680 211q72 0 129.5 34.5t92 91t53 123t18.5 136.5q0 116 -56 180t-159 64q-122 0 -201.5 -110t-79.5 -275q0 -114 51 -179t152 -65z" />
    <glyph glyph-name="aring.ss03" horiz-adv-x="1308" 
d="M893 1640q102 0 172 -68t70 -167t-70 -167.5t-172 -68.5q-99 0 -170.5 69t-71.5 167t71.5 166.5t170.5 68.5zM893 1303q43 0 73.5 29.5t30.5 72.5t-30.5 73.5t-73.5 30.5q-41 0 -71.5 -30.5t-30.5 -73.5q0 -42 30 -72t72 -30zM184 436q0 124 35 239t98.5 205.5
t162.5 144.5t218 54q98 0 173 -36t112 -99h53l21 109h286l-186 -1053h-276l18 96h-53q-43 -57 -112.5 -90t-158.5 -33q-184 0 -287.5 129.5t-103.5 333.5zM680 211q72 0 129.5 34.5t92 91t53 123t18.5 136.5q0 116 -56 180t-159 64q-122 0 -201.5 -110t-79.5 -275
q0 -114 51 -179t152 -65z" />
    <glyph glyph-name="amacron.ss03" horiz-adv-x="1308" 
d="M184 436q0 124 35 239t98.5 205.5t162.5 144.5t218 54q98 0 173 -36t112 -99h53l21 109h286l-186 -1053h-276l18 96h-53q-43 -57 -112.5 -90t-158.5 -33q-184 0 -287.5 129.5t-103.5 333.5zM680 211q72 0 129.5 34.5t92 91t53 123t18.5 136.5q0 116 -56 180t-159 64
q-122 0 -201.5 -110t-79.5 -275q0 -114 51 -179t152 -65zM1202 1268h-618l28 174h619z" />
    <glyph glyph-name="abreve.ss03" horiz-adv-x="1308" 
d="M184 436q0 124 35 239t98.5 205.5t162.5 144.5t218 54q98 0 173 -36t112 -99h53l21 109h286l-186 -1053h-276l18 96h-53q-43 -57 -112.5 -90t-158.5 -33q-184 0 -287.5 129.5t-103.5 333.5zM680 211q72 0 129.5 34.5t92 91t53 123t18.5 136.5q0 116 -56 180t-159 64
q-122 0 -201.5 -110t-79.5 -275q0 -114 51 -179t152 -65zM1051 1489h170q-24 -140 -109 -218.5t-225 -78.5q-123 0 -194.5 60.5t-71.5 164.5q0 41 8 72h172q-4 -20 -4 -37q0 -48 27.5 -75t78.5 -27q121 0 148 139z" />
    <glyph glyph-name="aogonek.ss03" horiz-adv-x="1308" 
d="M184 436q0 124 35 239t98.5 205.5t162.5 144.5t218 54q98 0 173 -36t112 -99h53l21 109h286l-186 -1053q-143 -73 -143 -170q0 -33 27 -52.5t81 -19.5l-30 -166q-25 -2 -66 -2q-123 0 -180.5 47t-57.5 121q0 82 53.5 144.5t137.5 97.5h-98l18 96h-53q-43 -57 -112.5 -90
t-158.5 -33q-184 0 -287.5 129.5t-103.5 333.5zM680 211q72 0 129.5 34.5t92 91t53 123t18.5 136.5q0 116 -56 180t-159 64q-122 0 -201.5 -110t-79.5 -275q0 -114 51 -179t152 -65z" />
    <glyph glyph-name="t.ss04" horiz-adv-x="774" 
d="M487 0h-284l141 813h-151l40 240h154l51 295h287l-53 -295h229l-43 -240h-227z" />
    <glyph glyph-name="tcaron.ss04" horiz-adv-x="903" 
d="M1049 1370h-138l45 248h299l-53 -299l-186 -168h-160l184 168zM487 0h-284l141 813h-151l40 240h154l51 295h287l-53 -295h229l-43 -240h-227z" />
    <glyph glyph-name="uni0163.ss04" horiz-adv-x="774" 
d="M487 0h-284l141 813h-151l40 240h154l51 295h287l-53 -295h229l-43 -240h-227zM270 -475h-166l162 127l8 43h-122l34 194h289l-43 -237z" />
    <glyph glyph-name="Y.ss05" horiz-adv-x="1404" 
d="M815 807h57l424 655h326l-956 -1462h-308l283 438l-356 1024h303z" />
    <glyph glyph-name="Yacute.ss05" horiz-adv-x="1404" 
d="M815 807h57l424 655h326l-956 -1462h-308l283 438l-356 1024h303zM1368 1835l-285 -264h-264l234 264h315z" />
    <glyph glyph-name="Ydieresis.ss05" horiz-adv-x="1404" 
d="M815 807h57l424 655h326l-956 -1462h-308l283 438l-356 1024h303zM905 1602h-241l38 233h242zM1309 1602h-242l39 233h242z" />
    <glyph glyph-name="ampersand.ss06" horiz-adv-x="1386" 
d="M1067 885h422l-41 -242h-135l-37 -190q-43 -221 -197.5 -350.5t-402.5 -129.5q-229 0 -370.5 113t-141.5 297q0 82 25 152t66.5 115.5t86.5 75t92 42.5l8 51q-120 83 -120 240q0 182 139.5 292.5t355.5 110.5q208 0 332.5 -99.5t136.5 -266.5h-289q-10 60 -60.5 92.5
t-125.5 32.5q-94 0 -149.5 -50t-55.5 -127q0 -73 48.5 -116t125.5 -43h103l-43 -242h-107q-130 0 -205 -58.5t-75 -166.5q0 -89 65 -142t180 -53q124 0 199.5 62t95.5 180z" />
    <glyph glyph-name="zero.ss07" horiz-adv-x="1329" 
d="M219 520q0 201 46 374.5t129.5 299t206.5 197t271 71.5q99 0 185 -32.5t154.5 -96.5t108.5 -171.5t40 -246.5q0 -269 -79 -482.5t-228 -336.5t-344 -123q-100 0 -186.5 32.5t-155.5 96.5t-108.5 171.5t-39.5 246.5zM514 510q0 -51 8 -78l473 713q-57 57 -137 57
q-71 0 -130.5 -44t-98 -114.5t-65.5 -162.5t-38.5 -185.5t-11.5 -185.5zM1065 926q0 38 -8 69l-471 -708q54 -54 135 -54q71 0 130.5 44t98 115t65.5 163t38.5 185.5t11.5 185.5z" />
    <glyph glyph-name="emdash.ss02" horiz-adv-x="2959" 
d="M2949 469h-2777l39 221h2777z" />
    <glyph glyph-name="uni0430.ss03" horiz-adv-x="1308" 
d="M184 436q0 124 35 239t98.5 205.5t162.5 144.5t218 54q98 0 173 -36t112 -99h53l21 109h286l-186 -1053h-276l18 96h-53q-43 -57 -112.5 -90t-158.5 -33q-184 0 -287.5 129.5t-103.5 333.5zM680 211q72 0 129.5 34.5t92 91t53 123t18.5 136.5q0 116 -56 180t-159 64
q-122 0 -201.5 -110t-79.5 -275q0 -114 51 -179t152 -65z" />
    <glyph glyph-name="uni0423.ss08" horiz-adv-x="1368" 
d="M262 0l49 289h66q72 0 120.5 24.5t86.5 81.5l32 51l-354 1016h305l226 -649h57l418 649h325l-739 -1134q-117 -180 -232 -254t-286 -74h-74z" />
    <glyph glyph-name="uni040E.ss08" horiz-adv-x="1368" 
d="M1135 1851h227q-33 -150 -143 -232.5t-285 -82.5q-163 0 -254.5 74.5t-91.5 204.5q0 22 2 36h219q0 -58 35.5 -92.5t109.5 -34.5q75 0 121 35t60 92zM262 0l49 289h66q72 0 120.5 24.5t86.5 81.5l32 51l-354 1016h305l226 -649h57l418 649h325l-739 -1134
q-117 -180 -232 -254t-286 -74h-74z" />
    <glyph glyph-name="glyph545" horiz-adv-x="0" 
 />
    <glyph glyph-name="six.numr" horiz-adv-x="782" 
d="M647 1206q103 0 166.5 -63t63.5 -164q0 -139 -93 -225t-237 -86q-125 0 -208 77.5t-83 223.5q0 73 14 143.5t45 137t75 116.5t109.5 80.5t143.5 30.5q111 0 183.5 -61.5t76.5 -160.5h-178q-5 32 -29 52t-65 20q-61 0 -110 -47t-66 -127h39q57 53 153 53zM557 819
q62 0 97.5 39.5t35.5 102.5q0 44 -30 73t-80 29q-62 0 -99 -37t-37 -100q0 -48 30 -77.5t83 -29.5z" />
    <glyph glyph-name="five.numr" horiz-adv-x="763" 
d="M864 1303h-366l-33 -123h41q43 37 131 37q100 0 161.5 -64t61.5 -168q0 -140 -92 -228.5t-233 -88.5t-220 75.5t-79 192.5h182q5 -51 36 -79t85 -28q59 0 96 37t37 101q0 50 -29.5 78t-81.5 28q-79 0 -121 -57h-172l113 446h512z" />
    <glyph glyph-name="four.numr" horiz-adv-x="776" 
d="M786 997h95l-27 -159h-96l-27 -156h-178l27 156h-373l33 188l411 436h217zM416 997h196l45 254h-36l-199 -217z" />
    <glyph glyph-name="three.numr" horiz-adv-x="763" 
d="M860 1270l-155 -78l-7 -31q152 -41 152 -207q0 -125 -93.5 -205.5t-236.5 -80.5q-139 0 -221 72.5t-82 195.5h180q4 -51 39.5 -76.5t89.5 -25.5q63 0 103.5 31.5t40.5 84.5q0 44 -32.5 71.5t-86.5 27.5q-40 0 -74 -9l27 154l133 76l6 33h-313l28 159h535z" />
    <glyph glyph-name="two.numr" horiz-adv-x="751" 
d="M829 842l-28 -160h-608l34 197l293 165q156 89 156 183q0 40 -27.5 62t-70.5 22q-107 0 -121 -105h-185q20 131 102 201t216 70q120 0 200 -62.5t80 -171.5q0 -42 -14 -79.5t-33 -64t-53 -55t-59.5 -45t-67.5 -41.5l-133 -77l-8 -39h327z" />
    <glyph glyph-name="quotedbl.ss01" horiz-adv-x="649" 
d="M334 969l86 493h69l-86 -493h-69zM586 969l86 493h69l-86 -493h-69z" />
    <glyph glyph-name="numbersign.ss01" horiz-adv-x="1128" 
d="M750 0l65 426h-326l-65 -426h-70l66 426h-213v63h225l70 455h-209v64h219l68 426h69l-69 -426h329l68 426h70l-68 -426h213v-64h-223l-72 -455h211v-63h-221l-66 -426h-71zM571 944l-71 -455h327l72 455h-328z" />
    <glyph glyph-name="quotesingle.ss01" horiz-adv-x="397" 
d="M334 969l86 493h69l-86 -493h-69z" />
    <glyph glyph-name="parenleft.ss01" horiz-adv-x="524" 
d="M682 1554h92q-241 -228 -372.5 -513.5t-131.5 -616.5q0 -192 44.5 -363t134.5 -350h-76q-172 328 -172 715q0 313 124.5 603.5t356.5 524.5z" />
    <glyph glyph-name="parenright.ss01" horiz-adv-x="524" 
d="M66 -289h-93q241 228 372.5 514t131.5 617q0 192 -44 363t-134 349h76q172 -328 172 -714q0 -313 -124.5 -604t-356.5 -525z" />
    <glyph glyph-name="bracketleft.ss01" horiz-adv-x="522" 
d="M354 -289h-241l323 1843h242l-10 -63h-172l-303 -1716h172z" />
    <glyph glyph-name="bracketright.ss01" horiz-adv-x="522" 
d="M389 1554h242l-324 -1843h-241l10 64h172l303 1716h-172z" />
    <glyph glyph-name="braceleft.ss01" horiz-adv-x="690" 
d="M395 651l-8 -37q51 -17 51 -98q0 -36 -10 -88l-78 -440q-6 -40 -6 -76q0 -73 38 -105t124 -32h61l-10 -64h-61q-222 0 -222 195q0 44 9 84l73 418q13 70 13 106q0 88 -74 88h-27l13 62h26q58 0 82.5 44t44.5 150l74 418q28 150 105 214t206 64h62l-11 -63h-61
q-104 0 -157 -50.5t-72 -162.5l-78 -440q-16 -88 -42 -130.5t-65 -56.5z" />
    <glyph glyph-name="braceright.ss01" horiz-adv-x="690" 
d="M516 614l8 37q-51 17 -51 99q0 36 10 88l78 440q6 40 6 76q0 73 -37.5 105t-123.5 32h-62l10 63h62q108 0 164.5 -46t56.5 -148q0 -48 -8 -84l-74 -418q-12 -65 -12 -106q0 -44 16.5 -66t56.5 -22h27l-12 -62h-27q-58 0 -82.5 -44t-44.5 -150l-74 -418
q-28 -150 -105 -214.5t-206 -64.5h-61l10 64h61q104 0 157.5 50.5t72.5 162.5l78 440q16 88 41.5 130t64.5 56z" />
    <glyph glyph-name="asterisk.ss01" horiz-adv-x="917" 
d="M1051 1145l-365 -103l172 -297l-63 -38l-158 301l-275 -301l-49 51l281 286l-328 111l27 70l323 -129l37 366h74l-51 -366l362 118z" />
    <glyph glyph-name="plus.ss01" horiz-adv-x="1378" 
d="M752 625v493h67v-493h492v-64h-492v-495h-67v495h-496v64h496z" />
    <glyph glyph-name="minus.ss01" horiz-adv-x="1376" 
d="M1309 561h-1053v64h1053v-64z" />
    <glyph glyph-name="less.ss01" horiz-adv-x="1355" 
d="M1288 172v-68l-1032 443v90l1032 442v-67l-930 -402v-37z" />
    <glyph glyph-name="equal.ss01" horiz-adv-x="1376" 
d="M1309 426v-64h-1053v64h1053zM1309 819v-63h-1053v63h1053z" />
    <glyph glyph-name="greater.ss01" horiz-adv-x="1355" 
d="M256 104v68l930 401v37l-930 402v67l1032 -442v-90z" />
    <glyph glyph-name="hyphen.ss01" horiz-adv-x="813" 
d="M813 545h-620l10 63h620z" />
    <glyph glyph-name="endash.ss01" horiz-adv-x="1271" 
d="M1276 545h-1090l11 63h1089z" />
    <glyph glyph-name="emdash.ss01" horiz-adv-x="1798" 
d="M1802 545h-1618l13 63h1615z" />
    <glyph glyph-name="emdash.ss01.ss02" horiz-adv-x="2959" 
d="M2961 545h-2777l13 63h2777z" />
    <glyph glyph-name="underscore.ss01" horiz-adv-x="1048" 
d="M1006 -254h-1053l12 64h1053z" />
    <glyph glyph-name="slash.ss01" horiz-adv-x="743" 
d="M20 -289h-71l940 1843h67z" />
    <glyph glyph-name="bar.ss01" horiz-adv-x="438" 
d="M133 -289l324 1843h69l-323 -1843h-70z" />
    <glyph glyph-name="backslash.ss01" horiz-adv-x="747" 
d="M696 -289h-69l-289 1843h63z" />
    <glyph glyph-name="degree.ss01" horiz-adv-x="944" 
d="M268 1071q0 174 111.5 290t277.5 116t279 -116t113 -290q0 -173 -113 -288t-279 -115t-277.5 115t-111.5 288zM338 1071q0 -146 90 -243t229 -97q140 0 231 97t91 243q0 148 -90.5 245t-231.5 97q-139 0 -229 -97t-90 -245z" />
    <glyph glyph-name="guillemotleft.ss01" horiz-adv-x="987" 
d="M291 610l-6 -37l303 -383h-84l-297 369l14 80l404 352h96zM629 610l-6 -37l303 -383h-84l-297 369l14 80l404 352h96z" />
    <glyph glyph-name="guillemotright.ss01" horiz-adv-x="987" 
d="M926 590l6 37l-287 364h84l281 -350l-15 -80l-424 -371h-96zM588 590l6 37l-287 364h84l281 -350l-15 -80l-424 -371h-96z" />
    <glyph glyph-name="guilsinglleft.ss01" horiz-adv-x="649" 
d="M291 610l-6 -37l303 -383h-84l-297 369l14 80l404 352h96z" />
    <glyph glyph-name="guilsinglright.ss01" horiz-adv-x="649" 
d="M588 590l6 37l-289 364h84l283 -350l-15 -80l-424 -371h-96z" />
    <glyph glyph-name="quoteleft.ss01" horiz-adv-x="458" 
d="M436 1249h68l-37 -209h-131l43 244l131 178h63l-131 -178z" />
    <glyph glyph-name="quoteright.ss01" horiz-adv-x="458" 
d="M438 1253h-67l37 209h131l-43 -243l-131 -179h-64l131 179z" />
    <glyph glyph-name="quotesinglbase.ss01" horiz-adv-x="458" 
d="M231 0h-67l37 209h131l-43 -244l-131 -178h-64l131 178z" />
    <glyph glyph-name="quotedblleft.ss01" horiz-adv-x="735" 
d="M713 1249h67l-37 -209h-131l43 244l131 178h64l-131 -178zM432 1249h68l-37 -209h-131l43 244l131 178h63l-131 -178z" />
    <glyph glyph-name="quotedblright.ss01" horiz-adv-x="739" 
d="M438 1253h-67l37 209h131l-43 -243l-131 -179h-64l131 179zM719 1253h-68l37 209h131l-43 -243l-131 -179h-63l131 179z" />
    <glyph glyph-name="quotedblbase.ss01" horiz-adv-x="739" 
d="M231 0h-67l37 209h131l-43 -244l-131 -178h-64l131 178zM512 0h-68l37 209h131l-43 -244l-131 -178h-63l131 178z" />
    <glyph glyph-name="arrowleft.ss01" horiz-adv-x="1656" 
d="M684 1053h94l-450 -451v-41h1292v-63h-1292v-43l450 -455h-94l-526 528z" />
    <glyph glyph-name="arrowup.ss01" horiz-adv-x="1376" 
d="M1337 936v-94l-452 454h-39v-1296h-70v1296h-39l-454 -454v94l528 526z" />
    <glyph glyph-name="arrowright.ss01" horiz-adv-x="1656" 
d="M1047 1053h94l526 -525l-526 -528h-94l450 455v43h-1292v63h1292v41z" />
    <glyph glyph-name="arrowdown.ss01" horiz-adv-x="1376" 
d="M1337 621v-95l-526 -526l-528 526v95l454 -455h39v1296h70v-1296h39z" />
    <glyph glyph-name="uni2196.ss01" horiz-adv-x="1382" 
d="M1075 1462l66 -65h-639l-27 -29l914 -917l-48 -48l-917 916l-27 -29v-641l-67 68v745h745z" />
    <glyph glyph-name="uni2197.ss01" horiz-adv-x="1382" 
d="M502 1397l65 65h746v-745l-68 -68v641l-26 29l-918 -916l-47 48l913 917l-26 29h-639z" />
    <glyph glyph-name="uni2198.ss01" horiz-adv-x="1382" 
d="M1110 66l-66 -66h-745v745l68 68v-641l26 -29l918 916l47 -47l-914 -918l27 -28h639z" />
    <glyph glyph-name="uni2199.ss01" horiz-adv-x="1382" 
d="M555 0l-66 66h639l27 28l-913 918l47 47l917 -916l27 29v641l67 -68v-745h-745z" />
    <glyph glyph-name="parenleft.ss01.case" horiz-adv-x="524" 
d="M713 1653h92q-241 -228 -372.5 -514t-131.5 -617q0 -192 44 -363t134 -349h-76q-172 328 -172 714q0 313 125 604t357 525z" />
    <glyph glyph-name="parenright.ss01.case" horiz-adv-x="526" 
d="M96 -190h-92q241 228 372.5 513.5t131.5 616.5q0 192 -44.5 363.5t-133.5 349.5h76q172 -328 172 -715q0 -312 -124.5 -603t-357.5 -525z" />
    <glyph glyph-name="bracketleft.ss01.case" horiz-adv-x="522" 
d="M371 -190h-242l324 1843h241l-10 -64h-172l-303 -1716h172z" />
    <glyph glyph-name="bracketright.ss01.case" horiz-adv-x="522" 
d="M406 1653h241l-323 -1843h-242l10 63h172l303 1716h-172z" />
    <glyph glyph-name="braceleft.ss01.case" horiz-adv-x="690" 
d="M412 750l-9 -37q52 -18 52 -99q0 -31 -11 -88l-77 -440q-7 -47 -7 -76q0 -73 38 -105t124 -32h62l-11 -63h-61q-108 0 -164.5 46t-56.5 148q0 48 8 84l74 418q12 64 12 106q0 88 -74 88h-26l12 62h27q58 0 82.5 44t44.5 150l73 418q28 150 105.5 214.5t206.5 64.5h61
l-10 -64h-62q-104 0 -157 -50.5t-72 -162.5l-78 -440q-16 -88 -41.5 -130t-64.5 -56z" />
    <glyph glyph-name="braceright.ss01.case" horiz-adv-x="690" 
d="M535 713l8 37q-51 17 -51 98q0 36 10 88l78 440q6 40 6 76q0 73 -38 105t-124 32h-62l11 64h61q108 0 164.5 -46.5t56.5 -148.5q0 -48 -8 -84l-74 -418q-12 -64 -12 -106q0 -88 74 -88h27l-13 -62h-26q-58 0 -82.5 -44t-44.5 -150l-74 -418q-28 -150 -105 -214t-206 -64
h-62l10 63h62q104 0 157 50.5t72 162.5l78 440q16 88 42 130.5t65 56.5z" />
    <glyph glyph-name="guillemotleft.ss01.case" horiz-adv-x="987" 
d="M313 745l-6 -36l303 -383h-84l-297 368l15 80l403 352h96zM651 745l-6 -36l303 -383h-84l-297 368l15 80l403 352h96z" />
    <glyph glyph-name="guillemotright.ss01.case" horiz-adv-x="987" 
d="M948 725l6 37l-286 364h84l280 -350l-14 -80l-424 -370h-96zM610 725l6 37l-286 364h84l280 -350l-14 -80l-424 -370h-96z" />
    <glyph glyph-name="guilsinglleft.ss01.case" horiz-adv-x="649" 
d="M313 745l-6 -36l303 -383h-84l-297 368l15 80l403 352h96z" />
    <glyph glyph-name="guilsinglright.ss01.case" horiz-adv-x="649" 
d="M608 725l6 37l-288 364h84l282 -350l-14 -80l-424 -370h-96z" />
    <glyph glyph-name="hyphen.ss01.case" horiz-adv-x="813" 
d="M844 719h-621l10 63h621z" />
    <glyph glyph-name="endash.ss01.case" horiz-adv-x="1271" 
d="M1305 719h-1090l10 63h1090z" />
    <glyph glyph-name="emdash.ss01.case" horiz-adv-x="1798" 
d="M1831 719h-1618l12 63h1616z" />
    <glyph glyph-name="emdash.ss01.ss02.case" horiz-adv-x="2959" 
d="M2990 719h-2777l12 63h2777z" />
    <glyph glyph-name="one.numr" horiz-adv-x="686" 
d="M592 842h174l-29 -160h-542l28 160h183l75 426h-39l-157 -88l28 174l205 108h184z" />
    <glyph glyph-name="zero.numr" horiz-adv-x="802" 
d="M637 1477q123 0 205 -76.5t82 -224.5q0 -220 -105 -364t-276 -144q-124 0 -205.5 76t-81.5 223q0 144 46.5 260t134 183t200.5 67zM551 834q47 0 83.5 32t58 84t32 109.5t10.5 114.5q0 67 -29 102t-81 35q-47 0 -84.5 -32.5t-58.5 -84.5t-31.5 -109.5t-10.5 -115.5
q0 -66 29.5 -100.5t81.5 -34.5z" />
    <glyph glyph-name="five.dnom" horiz-adv-x="763" 
d="M743 621h-366l-33 -123h41q43 37 131 37q100 0 161.5 -64t61.5 -168q0 -140 -92 -228.5t-233 -88.5t-220 75.5t-79 192.5h182q5 -51 36 -79t85 -28q59 0 96 37t37 101q0 50 -29.5 78t-81.5 28q-79 0 -121 -57h-172l113 446h512z" />
    </font>
</defs>
</svg>
