<svg xmlns="http://www.w3.org/2000/svg" viewBox="0 0 471.5 131.5"><defs><style>.cls-1{fill:#fff;}.cls-2{fill-rule:evenodd;}</style></defs><title>logo_whiteмоб</title><g id="plug_Изображение" data-name="plug Изображение"><path class="cls-1" d="M72,76.24V27.31h35.21V36.2h-26V49.57h24.57v8.54H81.2V76.24Z"/><path class="cls-1" d="M128.31,76.24v-49h9.17v49Z"/><path class="cls-1" d="M193.41,27.24h10.15v.42L187,51.46,204.05,76v.28H193.69L181.16,57.83,168.63,76.24H158.27V76l17-24.5-16.52-23.8v-.42h10.15l12.25,18.27Z"/><path class="cls-1" d="M222.88,41.45c.07-10.36,9.87-14.84,18.9-14.84,9.8,0,20.44,4,20.44,15.61,0,12.46-9.38,14.84-19.67,14.84-4.06,0-10.64,1.05-10.64,6.37v4.2h30.45v8.61H222.67V63.36c0-11.27,10.22-14.63,19.88-14.63,3.71,0,10.5-.63,10.5-6.3,0-5.32-4.83-7.84-11.13-7.84-4.83,0-9.8,2.45-9.87,6.86Z"/><path class="cls-1" d="M283.36,76.24V27.31h35.21V36.2h-26V49.57h24.57v8.54H292.6V76.24Z"/><path class="cls-1" d="M339.7,76.24v-49h9.17v49Z"/><path class="cls-1" d="M404.81,27.24H415v.42l-16.59,23.8L415.45,76v.28H405.09L392.56,57.83,380,76.24H369.66V76l17-24.5-16.52-23.8v-.42h10.15l12.25,18.27Z"/><path class="cls-1" d="M71.57,103.38V87.67A1.4,1.4,0,0,1,73,86.25a1.55,1.55,0,0,1,1,.38,1.4,1.4,0,0,1,.46.93,7,7,0,0,1,4-1.3,6.91,6.91,0,0,1,0,13.83,6.7,6.7,0,0,1-4-1.3v4.61a1.44,1.44,0,0,1-2.88,0ZM81.34,96a4,4,0,0,0,0-5.67,4,4,0,0,0-2.86-1.16,4,4,0,0,0,0,8A4,4,0,0,0,81.34,96Z"/><path class="cls-1" d="M93.73,98a6.88,6.88,0,0,1,0-9.79,6.95,6.95,0,0,1,9.77,0,6.84,6.84,0,0,1,2.07,4.84,1.34,1.34,0,0,1-1.42,1.38H94.89a4,4,0,0,0,1.38,2,3.78,3.78,0,0,0,2.36.8,3.33,3.33,0,0,0,2.59-1,1.49,1.49,0,0,1,1-.36,1.33,1.33,0,0,1,1.17.7,1.48,1.48,0,0,1,.25.81A1.39,1.39,0,0,1,103,98.5a5.56,5.56,0,0,1-1.71,1.1,7.36,7.36,0,0,1-2.71.46A6.94,6.94,0,0,1,93.73,98Zm8.87-6a4,4,0,0,0-1.38-2.19A4.08,4.08,0,0,0,98.67,89a3.86,3.86,0,0,0-2.52.87,3.91,3.91,0,0,0-1.35,2.19Z"/><path class="cls-1" d="M120.39,99.9a1.46,1.46,0,0,1-.62-.13,1.18,1.18,0,0,1-.43-.3s0,0,0,0h0A1.36,1.36,0,0,1,119,99l-2.91-6.45-.9,6a1.48,1.48,0,0,1-.56,1,1.29,1.29,0,0,1-.81.29,1.47,1.47,0,0,1-1.22-.64,1.33,1.33,0,0,1-.28-.84,2.54,2.54,0,0,1,0-.28L114,87.54a1.47,1.47,0,0,1,.59-.94,1.45,1.45,0,0,1,.93-.36,1.36,1.36,0,0,1,1,.41,1.66,1.66,0,0,1,.33.48l3.55,8.09,3.52-8.09a1.35,1.35,0,0,1,.8-.77,1.18,1.18,0,0,1,.54-.1,1.46,1.46,0,0,1,1,.41,1.42,1.42,0,0,1,.52.87l1.59,10.6c0,.13,0,.23,0,.28a1.27,1.27,0,0,1-.26.81,1.47,1.47,0,0,1-1.23.65,1.21,1.21,0,0,1-.8-.28,1.41,1.41,0,0,1-.57-.94l-.91-6L121.69,99a1.65,1.65,0,0,1-.74.74l-.07,0a1.63,1.63,0,0,1-.42.1Z"/><path class="cls-1" d="M137.08,98a6.89,6.89,0,1,1,4.88,2A6.86,6.86,0,0,1,137.08,98ZM144.82,96a4,4,0,0,0,0-5.67A4,4,0,0,0,142,89.16a4,4,0,0,0,0,8A4,4,0,0,0,144.82,96Z"/><path class="cls-1" d="M156.12,99.47a1.35,1.35,0,0,1-.44-1V87.74a1.37,1.37,0,0,1,.45-1.06,1.43,1.43,0,0,1,1.06-.43,1.41,1.41,0,0,1,1.38,1.49v3.78h6.22V87.74a1.45,1.45,0,1,1,2.9,0v10.7a1.35,1.35,0,0,1-.44,1,1.53,1.53,0,0,1-1.06.43,1.4,1.4,0,0,1-1.41-1.46V94.5h-6.22v3.94a1.4,1.4,0,0,1-1.41,1.46A1.47,1.47,0,0,1,156.12,99.47Z"/><path class="cls-1" d="M180.32,98.44V89.15h-4a1.39,1.39,0,0,1-1.46-1.39,1.45,1.45,0,0,1,1.46-1.49h10.71a1.45,1.45,0,1,1,0,2.9H183.2v9.29a1.35,1.35,0,0,1-.44,1,1.47,1.47,0,0,1-1,.43A1.4,1.4,0,0,1,180.32,98.44Z"/><path class="cls-1" d="M206.64,98.21a1.59,1.59,0,0,1-.52-1.14,1.33,1.33,0,0,1,.45-1,1.53,1.53,0,0,1,1-.42,2,2,0,0,1,1.29.61,3.74,3.74,0,0,0,2.75.93,3.8,3.8,0,0,0,2.22-.8,3.86,3.86,0,0,0,1.32-1.88h-4.36a1.38,1.38,0,0,1-1.46-1.38,1.33,1.33,0,0,1,1.46-1.32h4.33a4.25,4.25,0,0,0-1.35-1.83,3.68,3.68,0,0,0-2.25-.78,4,4,0,0,0-2.67.93,2.09,2.09,0,0,1-1.3.62,1.52,1.52,0,0,1-1-.42,1.28,1.28,0,0,1-.45-1.06,1.59,1.59,0,0,1,.52-1.14,6.49,6.49,0,0,1,4.71-1.86,7,7,0,0,1,4.94,2,6.89,6.89,0,0,1,2,4.91h0s0,0,0,0a6.77,6.77,0,0,1-2,4.86,7,7,0,0,1-4.94,2A6.49,6.49,0,0,1,206.64,98.21Z"/><path class="cls-1" d="M224.73,99.51a1.4,1.4,0,0,1-.42-1,1.71,1.71,0,0,1,.12-.57l4.81-10.83a1.48,1.48,0,0,1,1.35-.88,1.44,1.44,0,0,1,1.36.88l4.8,10.83a1.35,1.35,0,0,1,.13.58,1.48,1.48,0,0,1-.12.54,1.51,1.51,0,0,1-.78.8,1.72,1.72,0,0,1-.57.12,1.56,1.56,0,0,1-1.35-.9l-3.46-8.62-3.48,8.63a1.37,1.37,0,0,1-.78.8,1.32,1.32,0,0,1-.55.1A1.47,1.47,0,0,1,224.73,99.51Z"/><path class="cls-1" d="M244.9,98a6.88,6.88,0,0,1,0-9.79,6.95,6.95,0,0,1,9.77,0,6.84,6.84,0,0,1,2.07,4.84,1.34,1.34,0,0,1-1.42,1.38h-9.26a4,4,0,0,0,1.38,2,3.78,3.78,0,0,0,2.36.8,3.33,3.33,0,0,0,2.59-1,1.5,1.5,0,0,1,1-.36,1.33,1.33,0,0,1,1.17.7,1.48,1.48,0,0,1,.25.81,1.39,1.39,0,0,1-.55,1.09,5.57,5.57,0,0,1-1.71,1.1,7.36,7.36,0,0,1-2.71.46A6.94,6.94,0,0,1,244.9,98Zm8.87-6a4,4,0,0,0-1.38-2.19,4.08,4.08,0,0,0-2.55-.87,3.86,3.86,0,0,0-2.52.87A3.91,3.91,0,0,0,246,92.06Z"/><path class="cls-1" d="M273.12,99.45l-4.87-5.16-1.06,1v3.16a1.38,1.38,0,0,1-.41,1,1.45,1.45,0,0,1-2,0,1.42,1.42,0,0,1-.43-1V87.7a1.35,1.35,0,0,1,.43-1,1.49,1.49,0,0,1,1-.42,1.41,1.41,0,0,1,1.42,1.45v3.62l5.41-5.06a1.44,1.44,0,0,1,1.06-.41,1.48,1.48,0,0,1,1,.46,1.33,1.33,0,0,1,.36,1,1.46,1.46,0,0,1-.46,1.07l-4.22,4,4.87,5.15a1.41,1.41,0,0,1,.42,1,1.49,1.49,0,0,1-.45,1,1.45,1.45,0,0,1-2.07-.06Z"/><path class="cls-1" d="M287,98.44V89.15h-4a1.39,1.39,0,0,1-1.46-1.39A1.45,1.45,0,0,1,283,86.25h10.71a1.45,1.45,0,1,1,0,2.9h-3.86v9.29a1.35,1.35,0,0,1-.43,1,1.47,1.47,0,0,1-1,.43A1.4,1.4,0,0,1,287,98.44Z"/><path class="cls-1" d="M302,103.38V87.67a1.4,1.4,0,0,1,1.44-1.42,1.55,1.55,0,0,1,1,.38,1.4,1.4,0,0,1,.46.93,7,7,0,0,1,4-1.3,6.91,6.91,0,0,1,0,13.83,6.7,6.7,0,0,1-4-1.3v4.61a1.44,1.44,0,0,1-2.88,0ZM311.79,96a4,4,0,0,0,0-5.67,4,4,0,0,0-2.86-1.16,4,4,0,0,0,0,8A4,4,0,0,0,311.79,96Z"/><path class="cls-1" d="M324.16,98a6.89,6.89,0,1,1,4.89,2A6.86,6.86,0,0,1,324.16,98ZM331.9,96a4,4,0,0,0,0-5.67A4,4,0,0,0,329,89.16a4,4,0,0,0,0,8A4,4,0,0,0,331.9,96Z"/><path class="cls-1" d="M343.2,99.47a1.35,1.35,0,0,1-.43-1V87.74a1.37,1.37,0,0,1,.45-1.06,1.44,1.44,0,0,1,1.06-.43,1.41,1.41,0,0,1,1.38,1.49v3.78h6.22V87.74a1.45,1.45,0,1,1,2.9,0v10.7a1.35,1.35,0,0,1-.43,1,1.53,1.53,0,0,1-1.06.43,1.4,1.4,0,0,1-1.41-1.46V94.5h-6.22v3.94a1.4,1.4,0,0,1-1.41,1.46A1.47,1.47,0,0,1,343.2,99.47Z"/><path class="cls-1" d="M364,99.47a1.47,1.47,0,0,1-.43-1V87.74A1.47,1.47,0,0,1,365,86.25a1.44,1.44,0,0,1,1.42,1.49v6.94l6.51-7.86a1.43,1.43,0,0,1,.54-.41,1.14,1.14,0,0,1,.64-.17,1.49,1.49,0,0,1,1.49,1.48v10.7a1.52,1.52,0,0,1-.42,1,1.38,1.38,0,0,1-1,.43,1.33,1.33,0,0,1-1.3-1.48V91.37l-6.62,8a1.42,1.42,0,0,1-1.19.58A1.38,1.38,0,0,1,364,99.47Z"/><path class="cls-1" d="M393.23,99.45l-4.87-5.16-1.06,1v3.16a1.38,1.38,0,0,1-.41,1,1.45,1.45,0,0,1-2,0,1.42,1.42,0,0,1-.43-1V87.7a1.35,1.35,0,0,1,.43-1,1.49,1.49,0,0,1,1-.42,1.41,1.41,0,0,1,1.42,1.45v3.62l5.41-5.06a1.44,1.44,0,0,1,1.06-.41,1.48,1.48,0,0,1,1,.46,1.33,1.33,0,0,1,.36,1,1.46,1.46,0,0,1-.46,1.07l-4.22,4,4.87,5.15a1.41,1.41,0,0,1,.42,1,1.49,1.49,0,0,1-.45,1,1.45,1.45,0,0,1-2.07-.06Z"/><path class="cls-1" d="M403.68,99.47a1.47,1.47,0,0,1-.43-1V87.74a1.47,1.47,0,0,1,1.46-1.49,1.44,1.44,0,0,1,1.42,1.49v6.94l6.51-7.86a1.43,1.43,0,0,1,.54-.41,1.14,1.14,0,0,1,.64-.17,1.49,1.49,0,0,1,1.49,1.48v10.7a1.52,1.52,0,0,1-.42,1,1.38,1.38,0,0,1-1,.43,1.33,1.33,0,0,1-1.3-1.48V91.37l-6.62,8a1.42,1.42,0,0,1-1.19.58A1.38,1.38,0,0,1,403.68,99.47Z"/><rect class="cls-1" x="440.71" y="78.06" width="4.6" height="21.85"/><rect class="cls-1" x="436.58" y="79.97" width="12.88" height="2.5" rx="1.25" ry="1.25"/><rect class="cls-1" x="437.62" y="75.89" width="10.79" height="4.33"/><polygon class="cls-1" points="460.01 45.64 460.01 59.12 459.88 59.33 443.04 85.7 426.2 59.33 426.01 59.03 426.01 45.64 460.01 45.64"/><rect class="cls-1" x="431.01" y="27.26" width="4.44" height="20.69" rx="1.36" ry="1.36"/><rect class="cls-1" x="450.58" y="27.26" width="4.44" height="20.69" rx="1.36" ry="1.36"/><path d="M440.41,46.58h5.19a0,0,0,0,1,0,0V58.1a2.1,2.1,0,0,1-2.1,2.1h-1a2.1,2.1,0,0,1-2.1-2.1V46.58A0,0,0,0,1,440.41,46.58Z"/><rect class="cls-1" x="22" y="44.39" width="29.5" height="32.11" rx="2.42" ry="2.42"/><rect class="cls-1" x="24.31" y="27.26" width="24.87" height="18.14"/><rect class="cls-1" x="29.06" y="74.51" width="15.37" height="11.49"/><path class="cls-2" d="M40.81,59.39h-.3c0,3-1.26,3.26-2.23,3.76-.35.18-.65.29-.76.57v4a1.57,1.57,0,0,1-.42,3.08,1.58,1.58,0,0,1-.55-3.06V65.22a7.07,7.07,0,0,0-.88-.4c-1.21-.48-2-.81-2-3.63a1.57,1.57,0,1,1,.91,0c0,2.22.6,2.45,1.47,2.8l.55.23,0-9.4H35.25L37,51.66l1.83,3.12H37.54l0,7.62c.11-.06.22,0,.34-.08.75-.39,1.7.05,1.74-2.95h-.79v-3h2Z"/><rect x="27.08" y="37.01" width="4.63" height="4.63"/><rect x="41.79" y="37.01" width="4.63" height="4.63"/><rect class="cls-1" x="34" y="76.5" width="5.5" height="23.5"/></g></svg>