<?xml version="1.0" standalone="no"?>
<!DOCTYPE svg PUBLIC "-//W3C//DTD SVG 20010904//EN"
 "http://www.w3.org/TR/2001/REC-SVG-20010904/DTD/svg10.dtd">
<svg version="1.0" xmlns="http://www.w3.org/2000/svg"
 width="512.000000pt" height="512.000000pt" viewBox="0 0 512.000000 512.000000"
 preserveAspectRatio="xMidYMid meet">
<metadata>
Created by potrace 1.11, written by Peter Selinger 2001-2013
</metadata>
<g transform="translate(0.000000,512.000000) scale(0.100000,-0.100000)"
fill="#000000" stroke="none">
<path d="M2325 5109 c-513 -52 -991 -248 -1380 -564 -121 -98 -334 -318 -423
-437 -149 -199 -284 -445 -367 -672 -48 -130 -108 -370 -131 -521 -26 -169
-26 -542 0 -710 71 -465 260 -899 543 -1250 232 -288 518 -517 854 -684 249
-124 502 -204 784 -247 169 -26 541 -26 710 0 465 71 899 260 1250 543 288
232 517 518 684 854 91 181 149 340 196 529 56 231 69 346 69 610 0 271 -13
386 -74 626 -48 187 -92 309 -180 490 -125 259 -261 453 -465 663 -223 229
-427 378 -700 512 -260 127 -488 199 -757 240 -154 23 -474 33 -613 18z m771
-1311 c69 -36 90 -64 154 -206 l55 -122 180 0 c195 0 279 -10 349 -39 59 -26
121 -83 157 -146 l29 -50 0 -859 0 -859 -84 -83 c-62 -62 -101 -92 -152 -116
l-69 -33 -1150 0 -1150 0 -68 33 c-47 23 -95 60 -153 116 l-84 83 0 860 0 860
39 59 c44 69 101 115 181 146 49 19 82 22 283 27 l229 6 54 120 c43 93 66 130
101 162 76 72 78 72 593 70 l455 -2 51 -27z"/>
<path d="M2432 3090 c-142 -26 -302 -116 -403 -228 -118 -131 -177 -275 -186
-453 -7 -136 12 -231 74 -359 39 -81 59 -107 137 -185 149 -149 307 -215 511
-215 204 0 362 66 511 215 74 73 98 106 132 175 64 129 86 230 79 365 -9 198
-72 340 -212 480 -141 141 -285 204 -479 210 -61 2 -135 0 -164 -5z m230 -241
c177 -37 327 -179 373 -354 79 -303 -156 -605 -470 -605 -314 0 -549 302 -470
605 23 85 62 152 130 221 115 116 278 166 437 133z"/>
</g>
</svg>
