<svg width="16" height="16" viewBox="0 0 16 16" fill="none" xmlns="http://www.w3.org/2000/svg">
<rect width="16" height="16" rx="6" fill="#3F8CFF"/>
<path fill-rule="evenodd" clip-rule="evenodd" d="M10.7144 7.50413L10.971 9.50079C11.1614 10.8041 10.4044 11.3341 9.38769 11.3341H6.62435C5.60469 11.3341 4.82435 10.9675 5.03435 9.50079L5.29435 7.50413C5.33435 7.20746 5.47769 6.93079 5.70102 6.72746C5.87135 6.57779 6.09102 6.49746 6.31769 6.49746V6.42079C6.29102 5.80413 6.60802 5.22079 7.14102 4.90413C7.67435 4.58746 8.34102 4.58746 8.87435 4.90413C9.40769 5.22079 9.72102 5.80413 9.69769 6.42079V6.49746C10.1177 6.49746 10.561 6.79079 10.7144 7.50413ZM6.82435 6.4208C6.82435 5.77413 7.35102 5.24746 8.00102 5.24746C8.65435 5.24746 9.18102 5.77413 9.18102 6.4208V6.49446H6.82435V6.4208ZM6.73435 7.86413C6.73435 8.02413 6.86768 8.15746 7.03101 8.15746C7.19435 8.15746 7.32435 8.02413 7.32435 7.86413C7.32435 7.7008 7.19435 7.5708 7.03101 7.5708C6.86768 7.5708 6.73435 7.7008 6.73435 7.86413ZM8.96435 8.15746C9.04102 8.15746 9.11769 8.12746 9.17102 8.0708C9.22769 8.01746 9.25769 7.9408 9.25769 7.86413C9.25769 7.7008 9.12435 7.5708 8.96435 7.5708C8.80135 7.5708 8.66769 7.7008 8.66769 7.86413C8.66769 8.02413 8.80135 8.15746 8.96435 8.15746Z" fill="white"/>
</svg>
