<svg width="16" height="16" viewBox="0 0 16 16" fill="none" xmlns="http://www.w3.org/2000/svg">
<rect width="16" height="16" rx="6" fill="#FFA2C0"/>
<path fill-rule="evenodd" clip-rule="evenodd" d="M9.72666 5.46996C9.72666 5.02663 10.0867 4.66663 10.53 4.66663C10.9733 4.66663 11.3333 5.02663 11.3333 5.46996C11.3333 5.91329 10.9733 6.27329 10.53 6.27329C10.0867 6.27329 9.72666 5.91329 9.72666 5.46996ZM8.44329 8.91972L9.40662 7.67672L9.39329 7.68339C9.44662 7.61005 9.45662 7.51672 9.41996 7.43339C9.38362 7.35005 9.30329 7.29339 9.21696 7.28672C9.12662 7.27672 9.03696 7.31672 8.98329 7.39005L8.17696 8.43339L7.25329 7.70672C7.19662 7.66339 7.12996 7.64639 7.06329 7.65339C6.99696 7.66339 6.93696 7.69972 6.89662 7.75305L5.91029 9.03672L5.88996 9.06672C5.83329 9.17305 5.85996 9.30972 5.95996 9.38339C6.00662 9.41339 6.05663 9.43339 6.11329 9.43339C6.19029 9.43672 6.26329 9.39639 6.30996 9.33339L7.14662 8.25639L8.09662 8.97005L8.12662 8.98972C8.23329 9.04639 8.36662 9.02005 8.44329 8.91972ZM9.14996 5.26006C9.13663 5.34339 9.12996 5.42672 9.12996 5.51006C9.12996 6.26006 9.73663 6.86639 10.4833 6.86639C10.5666 6.86639 10.6466 6.85672 10.73 6.84339V9.53306C10.73 10.6634 10.0633 11.3334 8.92996 11.3334H6.46696C5.33329 11.3334 4.66663 10.6634 4.66663 9.53306V7.06672C4.66663 5.93339 5.33329 5.26006 6.46696 5.26006H9.14996Z" fill="white"/>
</svg>
