<svg width="40" height="37" viewBox="0 0 40 37" fill="none" xmlns="http://www.w3.org/2000/svg">
<path fill-rule="evenodd" clip-rule="evenodd" d="M34.9426 18.7009L30.6578 12.0703C30.3257 11.5564 29.7626 11.2495 29.1516 11.2495H10.2465C9.63639 11.2495 9.07385 11.5556 8.74162 12.0682L4.44346 18.6997C4.00423 19.3773 4.07208 20.2719 4.60846 20.8751L18.3517 36.3365C18.6918 36.7192 19.1802 36.9387 19.6915 36.9387H19.6916C20.2029 36.9387 20.6914 36.7192 21.0315 36.3366L34.7763 20.8743C35.3119 20.2717 35.3803 19.378 34.9426 18.7009ZM28.2837 12.7911L24.6801 18.375L21.0744 12.7911H28.2837ZM16.1168 19.0234H23.2663L19.6916 13.4874L16.1168 19.0234ZM18.3086 12.7913L14.7129 18.3598L11.1183 12.7913H18.3086ZM13.309 19.0234L9.69596 13.426L6.06804 19.0234H13.309ZM6.39297 20.5651H14.1349L18.2284 33.8801L6.39297 20.5651ZM15.7447 20.5651L19.6915 33.4028L23.6383 20.5651H15.7447ZM21.1545 33.8806L25.2482 20.5652H32.9908L21.1545 33.8806ZM29.7036 13.4299L26.0939 19.0234H33.3182L29.7036 13.4299Z" fill="#1421FF"/>
<path d="M2.33331 19.0234H0.769231C0.344462 19.0234 0 19.3685 0 19.7943C0 20.22 0.344462 20.5651 0.769231 20.5651H2.33331C2.75808 20.5651 3.10254 20.22 3.10254 19.7943C3.10254 19.3685 2.75808 19.0234 2.33331 19.0234Z" fill="#1421FF"/>
<path d="M38.6154 19.0234H37.0513C36.6266 19.0234 36.2821 19.3685 36.2821 19.7943C36.2821 20.22 36.6266 20.5651 37.0513 20.5651H38.6154C39.0402 20.5651 39.3846 20.22 39.3846 19.7943C39.3846 19.3685 39.0402 19.0234 38.6154 19.0234Z" fill="#1421FF"/>
<path d="M33.6267 5.8449C33.3262 5.54389 32.8393 5.54389 32.5387 5.8449L29.9836 8.40538C29.6832 8.70639 29.6832 9.19448 29.9836 9.49549C30.1339 9.64603 30.3307 9.72126 30.5276 9.72126C30.7245 9.72126 30.9213 9.64595 31.0715 9.49549L33.6267 6.93501C33.9271 6.634 33.9271 6.14599 33.6267 5.8449Z" fill="#1421FF"/>
<path d="M9.43433 8.39154L6.87925 5.83098C6.57894 5.52997 6.09202 5.52997 5.79133 5.83098C5.49094 6.13199 5.49094 6.62008 5.79133 6.9211L8.34648 9.48157C8.49671 9.63212 8.69356 9.70735 8.89041 9.70735C9.08725 9.70735 9.2841 9.63204 9.43433 9.48157C9.73471 9.18064 9.73471 8.69247 9.43433 8.39154Z" fill="#1421FF"/>
<path d="M19.7119 0.0610352C19.2871 0.0610352 18.9426 0.406137 18.9426 0.831869V5.85524C18.9426 6.28097 19.287 6.62607 19.7119 6.62607C20.1366 6.62607 20.4811 6.28097 20.4811 5.85524V0.831869C20.4811 0.406214 20.1366 0.0610352 19.7119 0.0610352Z" fill="#1421FF"/>
<path d="M20.2553 7.91799C20.1123 7.77462 19.9138 7.69214 19.7115 7.69214C19.5092 7.69214 19.3107 7.77462 19.1676 7.91799C19.0246 8.06137 18.9423 8.26024 18.9423 8.46297C18.9423 8.66647 19.0245 8.86458 19.1676 9.00795C19.3107 9.1521 19.5092 9.2338 19.7115 9.2338C19.9138 9.2338 20.1123 9.1521 20.2553 9.00795C20.3991 8.86458 20.4807 8.6657 20.4807 8.46297C20.4807 8.26024 20.3991 8.06144 20.2553 7.91799Z" fill="#1421FF"/>
</svg>
