<svg width="22" height="22" viewBox="0 0 22 22" fill="none" xmlns="http://www.w3.org/2000/svg">
<mask id="mask0" mask-type="alpha" maskUnits="userSpaceOnUse" x="1" y="1" width="20" height="20">
<path fill-rule="evenodd" clip-rule="evenodd" d="M11 1.83325C5.94004 1.83325 1.83337 5.93992 1.83337 10.9999C1.83337 16.0599 5.94004 20.1666 11 20.1666C16.06 20.1666 20.1667 16.0599 20.1667 10.9999C20.1667 5.93992 16.06 1.83325 11 1.83325ZM11 4.58325C12.5217 4.58325 13.75 5.81158 13.75 7.33325C13.75 8.85492 12.5217 10.0833 11 10.0833C9.47837 10.0833 8.25004 8.85492 8.25004 7.33325C8.25004 5.81158 9.47837 4.58325 11 4.58325ZM11 17.5999C8.70837 17.5999 6.68254 16.4266 5.50004 14.6483C5.52754 12.8241 9.16671 11.8249 11 11.8249C12.8242 11.8249 16.4725 12.8241 16.5 14.6483C15.3175 16.4266 13.2917 17.5999 11 17.5999Z" fill="white"/>
</mask>
<g mask="url(#mask0)">
<rect x="-11.9166" y="-11.9167" width="45.8333" height="45.8333" fill="white"/>
<mask id="mask1" mask-type="alpha" maskUnits="userSpaceOnUse" x="-12" y="-12" width="46" height="46">
<rect x="-11.9166" y="-11.9167" width="45.8333" height="45.8333" fill="white"/>
</mask>
<g mask="url(#mask1)">
</g>
</g>
</svg>
