<svg width="36" height="39" viewBox="0 0 36 39" fill="none" xmlns="http://www.w3.org/2000/svg">
<path d="M35.4398 38.2407C35.1304 38.2407 34.8797 37.9899 34.8797 37.6805C34.8797 37.6606 34.7434 35.6 32.5607 34.0701C32.3074 33.8925 32.246 33.5432 32.4235 33.2899C32.6011 33.0366 32.9505 32.9752 33.2037 33.1527C34.2161 33.8623 35.0119 34.7988 35.505 35.861C35.8957 36.7024 36 37.4006 36 37.6805C36 37.9899 35.7493 38.2407 35.4398 38.2407ZM18 38.2407C17.6906 38.2407 17.4398 37.9899 17.4398 37.6805V34.9933L16.5572 34.6185C16.3306 34.5224 16.0628 34.5877 15.9061 34.7777L14.4179 36.5827C14.2114 36.8329 13.9073 36.9814 13.5832 36.9903C13.2573 36.999 12.9497 36.8681 12.7311 36.6308C11.9002 35.7293 10.5064 33.8977 10.5064 31.7623C10.5064 31.7277 10.5068 31.6936 10.5074 31.6596C10.2319 31.7584 9.95639 31.8478 9.68273 31.9266L9.31855 32.0316C7.18999 32.6447 4.27474 33.4844 3.43927 34.07C1.25656 35.6 1.12033 37.6606 1.12033 37.6805C1.12033 37.9899 0.869602 38.2407 0.560166 38.2407C0.25073 38.2407 0 37.9899 0 37.6805C0 37.4006 0.104266 36.7024 0.494963 35.861C0.988133 34.7988 1.78387 33.8623 2.79627 33.1527C3.71211 32.5107 6.04882 31.8076 9.00851 30.9551L9.37218 30.8503C9.81874 30.7214 10.2717 30.5624 10.7213 30.3768C11.0182 29.4859 11.5662 28.9088 11.9982 28.5703C11.8946 28.5007 11.7883 28.4292 11.6791 28.3558L11.4259 28.1857C9.00471 26.5557 8.38307 24.6786 8.30801 22.2352C7.82634 22.436 7.28261 22.4182 6.80632 22.1768C6.33764 21.9392 5.69368 21.4031 5.28774 20.1985C5.189 19.9054 5.34652 19.5876 5.63975 19.4888C5.9329 19.3901 6.25071 19.5476 6.34944 19.8409C6.57179 20.5006 6.91394 20.9753 7.31286 21.1776C7.52848 21.2868 7.7701 21.2768 7.97594 21.1505C8.18178 21.0241 8.29987 20.8129 8.29987 20.5714V15.0175C8.29987 14.7759 8.18178 14.5648 7.97594 14.4383C7.7701 14.312 7.52841 14.302 7.31293 14.4113C6.70683 14.7185 6.0592 15.7687 6.0592 17.7945C6.0592 18.1039 5.80847 18.3546 5.49904 18.3546C5.1896 18.3546 4.93887 18.1039 4.93887 17.7945C4.93887 15.6431 5.63699 14.0049 6.80632 13.412C7.27992 13.1719 7.82037 13.1531 8.29987 13.3502V10.842C8.29987 8.27761 9.29495 6.08938 11.1776 4.51374C11.881 3.92505 12.6928 3.44256 13.5839 3.07598C14.2637 1.22654 16.0098 0 18 0C18.3094 0 18.5602 0.25073 18.5602 0.560166C18.5602 0.869602 18.3094 1.12033 18 1.12033C16.8284 1.12033 15.7679 1.67796 15.1072 2.58124C16.0228 2.35688 16.9951 2.24066 18 2.24066C19.0024 2.24066 19.9724 2.35628 20.8861 2.5796C20.6742 2.29242 20.4199 2.03594 20.1324 1.82293C19.8839 1.63875 19.8317 1.28793 20.0158 1.03937C20.1999 0.790805 20.5507 0.738672 20.7993 0.922705C21.5433 1.47398 22.0992 2.21527 22.4161 3.07583C23.3072 3.44248 24.1191 3.92497 24.8225 4.51367C26.7051 6.0893 27.7002 8.27754 27.7002 10.842V13.3501C28.1799 13.153 28.7201 13.1719 29.1938 13.4119C30.3631 14.0048 31.0612 15.643 31.0612 17.7944C31.0612 19.4381 30.6537 20.7822 29.9398 21.5895C29.913 23.6235 29.3436 24.9722 28.1538 25.826C27.6544 26.1844 27.0432 26.4599 26.2881 26.6596C25.8938 27.1361 25.3954 27.5899 24.7678 28.0318C24.7032 28.0772 24.4029 28.2817 23.9907 28.5617C24.4245 28.899 24.9793 29.4783 25.2788 30.3768C25.7283 30.5624 26.1812 30.7214 26.6279 30.8504L26.9923 30.9554C28.1782 31.2969 29.5224 31.6841 30.6789 32.0708C30.9723 32.169 31.1306 32.4863 31.0324 32.7798C30.9344 33.0732 30.6168 33.2314 30.3235 33.1334C29.1895 32.7541 27.8574 32.3704 26.6822 32.0319L26.3173 31.9268C26.0436 31.8478 25.768 31.7586 25.4926 31.6598C25.4932 31.6937 25.4936 31.7279 25.4936 31.7625C25.4936 33.8979 24.0998 35.7293 23.2689 36.631C23.0502 36.8683 22.7409 36.9994 22.4168 36.9904C22.0927 36.9816 21.7886 36.8331 21.5822 36.5829L20.094 34.7779C19.9373 34.5879 19.6697 34.5223 19.4429 34.6186L18.5602 34.9934V37.6805C18.5602 37.9899 18.3094 38.2407 18 38.2407ZM12.2875 29.8386C11.9475 30.2427 11.6267 30.8625 11.6267 31.7624C11.6267 33.5826 12.9752 35.2426 13.555 35.8718L15.0416 34.0651C15.0797 34.019 15.12 33.9752 15.1621 33.934C13.4727 33.0183 12.2874 31.8905 12.2874 29.9242V29.8386H12.2875ZM20.758 33.8608C20.8298 33.9223 20.897 33.9905 20.9584 34.065L22.4466 35.8699C23.0248 35.2425 24.3733 33.5826 24.3733 31.7623C24.3733 30.8624 24.0526 30.2426 23.7126 29.8385V29.9241C23.7125 31.3497 22.7412 32.6491 20.758 33.8608ZM13.4078 29.5183V29.9242C13.4078 31.9158 15.0634 32.7613 17.999 34.0133C21.0472 32.6868 22.5922 31.3116 22.5922 29.9242V29.5114C21.9165 29.9704 21.2836 30.4008 21.2157 30.45C20.2577 31.1518 19.1757 31.5078 18 31.5078C17.6906 31.5078 17.4398 31.2571 17.4398 30.9477C17.4398 30.6382 17.6906 30.3875 18 30.3875C18.9324 30.3875 19.7917 30.1044 20.554 29.5459C20.6414 29.482 21.4192 28.9535 22.596 28.1546C23.3011 27.6758 24.0304 27.1807 24.1229 27.1156C24.1843 27.0724 24.2443 27.0291 24.303 26.9859C23.6675 27.0422 22.9628 27.0695 22.1806 27.0695C21.8711 27.0695 21.6204 26.8187 21.6204 26.5093C21.6204 26.1999 21.8711 25.9491 22.1806 25.9491C23.599 25.9491 24.7429 25.8548 25.6502 25.6588C26.1781 24.9042 26.4468 24.0151 26.5404 22.8043C26.1165 23.2299 25.5376 23.5869 24.747 23.8141C24.4741 23.8927 24.1851 23.7541 24.0753 23.4917C23.67 22.5212 22.7238 21.8941 21.665 21.8941H19.3613C19.3301 21.9138 19.2984 21.9334 19.2662 21.9531C18.4853 22.4284 17.5148 22.4284 16.7337 21.953C16.7011 21.9331 16.669 21.9132 16.6375 21.8933C16.628 21.8938 16.6183 21.8941 16.6087 21.8941H14.335C13.2761 21.8941 12.3299 22.5211 11.9247 23.4917C11.8149 23.7542 11.526 23.8927 11.253 23.8141C10.464 23.5874 9.88596 23.2314 9.46225 22.8071C9.63538 24.9225 10.364 26.1202 12.0514 27.2563L12.304 27.426C14.3958 28.832 15.3624 29.483 15.4382 29.5365C15.6301 29.6721 15.8277 29.7931 16.0254 29.8961C16.2997 30.0391 16.4062 30.3774 16.2632 30.6518C16.1202 30.9261 15.7816 31.0323 15.5076 30.8896C15.2654 30.7634 15.0245 30.616 14.7917 30.4514C14.7428 30.4172 14.2789 30.1043 13.4078 29.5183ZM27.6927 22.2355C27.662 23.307 27.5326 24.2496 27.2012 25.1065C27.3076 25.0462 27.4074 24.9827 27.5007 24.9157C28.2473 24.3798 28.6556 23.5645 28.7795 22.3273C28.4171 22.4109 28.0388 22.3797 27.6927 22.2355ZM20.3552 20.7737H21.665C22.9972 20.7737 24.205 21.4701 24.8702 22.5855C26.4393 21.9218 26.58 20.47 26.58 19.0271V13.8176L24.2493 11.297C24.1536 11.1935 24.1004 11.0577 24.1004 10.9167V8.33721C23.3474 8.47569 22.0377 8.68803 20.495 8.81567C20.1885 8.84166 19.9161 8.61192 19.8905 8.3036C19.865 7.99529 20.0943 7.72469 20.4026 7.69915C22.0546 7.56247 23.4261 7.3266 24.1004 7.19739V5.37027C22.5504 4.07457 20.3841 3.361 18 3.361C15.6159 3.361 13.4496 4.07457 11.8996 5.37027V7.19716C12.8738 7.38329 15.3643 7.80326 18 7.80326C18.3094 7.80326 18.5602 8.05399 18.5602 8.36343C18.5602 8.67286 18.3094 8.92359 18 8.92359C15.4494 8.92359 13.0299 8.54395 11.8996 8.33676V10.9167C11.8996 11.0577 11.8464 11.1935 11.7507 11.297L9.42005 13.8177V19.0271C9.42005 20.47 9.56069 21.9218 11.1298 22.5855C11.795 21.4701 13.0028 20.7737 14.335 20.7737H15.6448C15.5668 20.49 15.5749 20.158 15.6884 19.7513L16.541 16.6947C16.726 16.0322 17.3122 15.5871 18 15.5871C18.6878 15.5871 19.2741 16.0322 19.4589 16.6947L20.3117 19.7513C20.4251 20.158 20.4332 20.49 20.3552 20.7737ZM27.7003 20.5714C27.7003 20.8129 27.8184 21.0241 28.0242 21.1505C28.2301 21.2769 28.4717 21.2869 28.6872 21.1776C29.2933 20.8703 29.9409 19.8202 29.9409 17.7944C29.9409 15.7686 29.2933 14.7185 28.6872 14.4112C28.4716 14.3019 28.2301 14.3119 28.0242 14.4382C27.8184 14.5647 27.7003 14.7758 27.7003 15.0174V20.5714ZM18 16.7074C17.9298 16.7074 17.6948 16.7281 17.6201 16.9957L16.7675 20.0523C16.6587 20.4422 16.622 20.5736 17.3161 20.9959C17.738 21.2527 18.2621 21.2526 18.6839 20.996C19.3781 20.5736 19.3414 20.4422 19.2327 20.0523H19.2326L18.3799 16.9957C18.3052 16.7282 18.0702 16.7074 18 16.7074ZM10.7792 6.54886C9.88544 7.74545 9.42005 9.20383 9.42005 10.842V12.1674L10.7792 10.6974V6.54886ZM25.2208 10.6975L26.58 12.1674V10.842C26.58 9.20383 26.1146 7.74553 25.2208 6.54894V10.6975ZM20.3567 25.1847H15.6434C14.7933 25.1847 13.6898 24.7312 13.3144 23.9722C13.1773 23.6949 13.2909 23.3589 13.5681 23.2218C13.8458 23.0847 14.1815 23.1984 14.3186 23.4755C14.4202 23.6811 14.9647 24.0644 15.6433 24.0644H20.3566C21.0352 24.0644 21.5798 23.6811 21.6813 23.4755C21.8184 23.1983 22.1543 23.0846 22.4318 23.2218C22.7091 23.3589 22.8227 23.6949 22.6855 23.9722C22.3103 24.7312 21.2068 25.1847 20.3567 25.1847ZM21.6081 17.9406C21.2987 17.9406 21.048 17.6899 21.048 17.3805V16.1289C21.048 15.8195 21.2987 15.5687 21.6081 15.5687C21.9176 15.5687 22.1683 15.8195 22.1683 16.1289V17.3805C22.1683 17.6899 21.9175 17.9406 21.6081 17.9406ZM14.3919 17.9406C14.0824 17.9406 13.8317 17.6899 13.8317 17.3805V16.1289C13.8317 15.8195 14.0824 15.5687 14.3919 15.5687C14.7013 15.5687 14.952 15.8195 14.952 16.1289V17.3805C14.952 17.6899 14.7013 17.9406 14.3919 17.9406ZM19.6184 14.8153C19.4439 14.8153 19.2719 14.7339 19.1625 14.5811C18.9825 14.3296 19.0403 13.9797 19.2919 13.7996C20.1091 13.2145 21.159 12.8923 22.2482 12.8923C23.5539 12.8923 24.5215 13.4152 24.8767 13.64C25.1382 13.8054 25.216 14.1514 25.0505 14.4128C24.8852 14.6743 24.5392 14.7521 24.2777 14.5867C23.7095 14.2272 22.9507 14.0126 22.2481 14.0126C21.4033 14.0126 20.5635 14.267 19.944 14.7105C19.8453 14.7812 19.7314 14.8153 19.6184 14.8153ZM16.3816 14.8153C16.2686 14.8153 16.1547 14.7812 16.0559 14.7105C15.4365 14.267 14.5967 14.0126 13.7518 14.0126C13.0492 14.0126 12.2905 14.2272 11.7223 14.5867C11.4608 14.752 11.1148 14.6743 10.9494 14.4128C10.7839 14.1514 10.8618 13.8054 11.1233 13.64C11.4785 13.4152 12.446 12.8923 13.7517 12.8923C14.8409 12.8923 15.8909 13.2145 16.708 13.7996C16.9596 13.9797 17.0175 14.3296 16.8374 14.5811C16.7281 14.7339 16.5561 14.8153 16.3816 14.8153Z" fill="#1D1D1D"/>
</svg>
