<svg width="20" height="20" viewBox="0 0 20 20" fill="none" xmlns="http://www.w3.org/2000/svg">
<path d="M10 0C4.47715 0 0 4.47715 0 10C0 15.5229 4.47715 20 10 20C15.5229 20 20 15.5229 20 10C20 4.47715 15.5229 0 10 0ZM6.40625 3.97217C6.61228 3.96002 6.79852 4.08317 6.9397 4.30175L8.30688 6.89452C8.45083 7.20175 8.36903 7.53072 8.1543 7.75023L7.52808 8.37645C7.48943 8.42942 7.464 8.48907 7.46338 8.55467C7.70353 9.48425 8.432 10.3417 9.07473 10.9314C9.71743 11.5211 10.4082 12.3194 11.3049 12.5085C11.4158 12.5395 11.5516 12.5505 11.6309 12.4768L12.3584 11.7359C12.6095 11.5455 12.9728 11.4533 13.241 11.6089H13.2532L15.7202 13.0652C16.0823 13.2922 16.1198 13.7309 15.8606 13.9978L14.1614 15.6836C13.9104 15.9409 13.5771 16.0275 13.2532 16.0278C11.8207 15.9849 10.4672 15.2819 9.3555 14.5593C7.53067 13.2318 5.85678 11.5852 4.80592 9.59595C4.40288 8.76178 3.92943 7.69745 3.97462 6.76638C3.97865 6.41612 4.07342 6.07297 4.32008 5.8472L6.0193 4.14798C6.15167 4.03535 6.28262 3.97947 6.40625 3.97217Z" fill="black"/>
</svg>
